<?xml version="1.0" encoding="UTF-8"?>
<svg id="Calque_1" data-name="Calque 1" xmlns="http://www.w3.org/2000/svg" xmlns:xlink="http://www.w3.org/1999/xlink" viewBox="0 0 500 700">
  <defs>
    <style>
      .cls-1 {
        stroke-width: 2.23px;
      }

      .cls-1, .cls-2, .cls-3, .cls-4, .cls-5, .cls-6, .cls-7, .cls-8, .cls-9, .cls-10, .cls-11, .cls-12, .cls-13, .cls-14, .cls-15, .cls-16, .cls-17, .cls-18, .cls-19, .cls-20, .cls-21, .cls-22, .cls-23, .cls-24, .cls-25, .cls-26, .cls-27, .cls-28, .cls-29, .cls-30 {
        stroke-linecap: round;
        stroke-linejoin: round;
      }

      .cls-1, .cls-3, .cls-8, .cls-10, .cls-31, .cls-13, .cls-14, .cls-20, .cls-23, .cls-25, .cls-27, .cls-28 {
        stroke: #1d2937;
      }

      .cls-1, .cls-6, .cls-32, .cls-9, .cls-10, .cls-12, .cls-14, .cls-19, .cls-20, .cls-21, .cls-22, .cls-24, .cls-29 {
        fill: none;
      }

      .cls-33, .cls-2, .cls-4, .cls-5, .cls-8, .cls-31, .cls-13, .cls-15, .cls-16, .cls-17, .cls-23 {
        fill: #e31e46;
      }

      .cls-2, .cls-4, .cls-22 {
        stroke: #e31e46;
      }

      .cls-2, .cls-5, .cls-6, .cls-7, .cls-11, .cls-31, .cls-12, .cls-18, .cls-20, .cls-21, .cls-22, .cls-23, .cls-24, .cls-26, .cls-27, .cls-28, .cls-29, .cls-30 {
        stroke-width: 2px;
      }

      .cls-3 {
        stroke-width: 2.14px;
      }

      .cls-3, .cls-34, .cls-25, .cls-28 {
        fill: #1d2937;
      }

      .cls-5, .cls-9, .cls-12, .cls-15, .cls-16, .cls-17, .cls-19, .cls-30 {
        stroke: #000;
      }

      .cls-6 {
        stroke: #020000;
      }

      .cls-35, .cls-11, .cls-27 {
        fill: #fff;
      }

      .cls-7, .cls-29 {
        stroke: #030000;
      }

      .cls-8 {
        stroke-width: 2.06px;
      }

      .cls-9, .cls-17 {
        stroke-width: 2.13px;
      }

      .cls-10 {
        stroke-width: 2.22px;
      }

      .cls-11 {
        stroke: #fff;
      }

      .cls-36 {
        clip-path: url(#clippath-1);
      }

      .cls-13 {
        stroke-width: 1.64px;
      }

      .cls-37 {
        clip-path: url(#clippath-3);
      }

      .cls-14 {
        stroke-width: 2.08px;
      }

      .cls-16, .cls-19 {
        stroke-width: 2px;
      }

      .cls-18, .cls-21 {
        stroke: #000100;
      }

      .cls-38 {
        font-family: Poppins-Bold, Poppins;
        font-size: 171.15px;
        font-weight: 700;
      }

      .cls-39 {
        fill-rule: evenodd;
      }

      .cls-24 {
        stroke: #fffdff;
      }

      .cls-25 {
        stroke-width: 2.13px;
      }

      .cls-40 {
        clip-path: url(#clippath-2);
      }

      .cls-26 {
        stroke: #000200;
      }

      .cls-41 {
        clip-path: url(#clippath);
      }
    </style>
    <clipPath id="clippath">
      <rect class="cls-32" x="-543.33" y="-610" width="466.67" height="533.33" rx="30" ry="30"/>
    </clipPath>
    <clipPath id="clippath-1">
      <rect class="cls-32" x="16.67" y="-610" width="466.67" height="533.33" rx="30" ry="30"/>
    </clipPath>
    <clipPath id="clippath-2">
      <rect class="cls-32" x="16.67" y="150" width="466.67" height="533.33" rx="30" ry="30"/>
    </clipPath>
    <clipPath id="clippath-3">
      <rect class="cls-32" x="-543.33" y="150.98" width="466.67" height="533.33" rx="30" ry="30"/>
    </clipPath>
  </defs>
  <g>
    <rect class="cls-35" x="2.5" y="2.5" width="495" height="695" rx="47.5" ry="47.5"/>
    <path d="M450,5c24.81,0,45,20.19,45,45v600c0,24.81-20.19,45-45,45H50c-24.81,0-45-20.19-45-45V50C5,25.19,25.19,5,50,5h400M450,0H50C22.39,0,0,22.39,0,50v600c0,27.61,22.39,50,50,50h400c27.61,0,50-22.39,50-50V50c0-27.61-22.39-50-50-50h0Z"/>
  </g>
  <text class="cls-38" transform="translate(56.36 168.18)"><tspan x="0" y="0">K</tspan></text>
  <path id="path2" class="cls-39" d="M112.52,201c-9.86,2.63-14.34,12.95-9.66,22.26,1.04,2.06,1.93,3.35,5.17,7.49,3.19,4.07,5.49,7.75,5.09,8.15-.04.04-1.39-.97-3.02-2.24-8.56-6.67-10.54-7.61-16.08-7.63-6.24-.02-11.07,3.03-13.7,8.65-4.39,9.38,2.31,20.51,12.63,20.95,5.73.25,8.44-.92,16.25-7,3.84-2.99,4.83-3.67,4.83-3.32,0,.31-1.05,4.45-1.83,7.21-1.97,6.99-4.79,14.12-7.07,17.87-.29.48-.53.93-.53,1,0,.15,1.02.06,3.34-.3,2.42-.38,13.47-.37,15.95,0,2.3.35,3.34.44,3.34.31,0-.06-.39-.81-.86-1.65-2.72-4.85-5.06-11.09-7.38-19.74-.93-3.45-1.19-4.62-1.04-4.71.15-.09,1.65.99,5.26,3.8,6.93,5.41,9.37,6.49,14.69,6.49,13.48,0,20.06-15.69,10.59-25.25-3.12-3.15-6.07-4.34-10.73-4.34-5.37,0-7.55,1.06-16.24,7.89-2.73,2.14-2.91,2.26-2.75,1.72.46-1.53,1.85-3.64,5.42-8.23,6.17-7.93,7.67-12.37,6.24-18.43-1.82-7.68-10.43-12.95-17.9-10.96"/>
  <g class="cls-41">
    <g id="g4419-0">
      <path id="path4415-4" class="cls-33" d="M56.67,23.66v-155.16l-4.75,2.5-31.72,56.56,21.48,25.03-20.48,16.52,28.73,49.3,6.74,5.26Z"/>
      <path id="path18470-8" class="cls-20" d="M-162.57,115.92l37.39-33.2,14.99-11.01L-32.97,16.13-16.75,3.87-1.76-6.14l57.43,28.8"/>
      <path id="path18474-2" class="cls-23" d="M-.09-5.57c-6.45-4.04-18.18-13.82-18.18-13.82,0,0-2.88,3.78-5,4-3.7.39-8.69-1.51-9.99-5.01-1.51-4.07,3.42-7.97,5-12.01,1.72-4.4,3.95-8.67,4.87-13.31,1.45-7.26,1.76-14.84.94-22.19-.82-7.4-5.65-14.12-5.81-21.56-.07-3.08-.53-7.26,2-9.01,3.87-2.68,13.99,2,13.99,2l52.96-25.03c-18.27-11.15-29.53-20.49-44.96-29.61-14.42-9.13-39.97-28.45-39.97-28.45,0,0-13.42,16.61-19.98,25.03-10.82,13.89-20.4,28.78-31.97,42.04-8.06,9.24-16.88,17.81-25.98,26.03-10.2,9.21-23.25,15.4-31.97,26.03-7.67,9.34-13.7,20.4-16.99,32.03-2.9,10.3-4.81,21.71-2,32.03,3.28,12.05,12.79,21.61,20.98,31.03,12.11,13.93,41.09,37.1,41.09,37.1l-10.99,8.01s-26.82-19.9-38.09-32.09c-10.87-11.75-23.08-23.79-27.98-39.04-3.74-11.64-2.35-24.68,0-36.67,2.38-12.15,6.87-24.28,13.99-34.4,7.47-10.63,18.77-18,28.98-26.03,6.03-4.74,13.16-8.02,18.98-13.01,11.81-10.13,22.12-21.98,31.97-34.04,9.84-12.03,18.41-25.07,26.98-38.04,5.61-8.49,15.99-26.03,15.99-26.03l103.91,70.07-31.97,56.06,21.98,26.03-20.98,16.02,29.98,52.05S16.31,4.7-.09-5.57Z"/>
      <path id="path18478-3" d="M9-1.7L-9.28-37.41l13.07-14.52-11.07-20.5,16.18-32.44,17.57-7.4L6.1-73.45l12.6,23.03-14.6,15.41L25.95,6.04,9-1.7Z"/>
      <path id="path18480-8" class="cls-23" d="M1.96,72s7.96,10.92,6.75,16.85c-1,4.9-5.78,9.27-10.59,10.63-3.76,1.06-8.45-.16-11.39-2.74-3.49-3.06-5.03-8.37-5-13.01.02-3.59,4-10.01,4-10.01,0,0-8.07,7.09-12.99,7.01-4.63-.08-9.69-2.99-11.99-7.01-2.16-3.76-1.25-8.86,0-13.01,1.04-3.45,2.65-7.66,6-9.01,5.88-2.37,18.55,4.13,18.55,4.13,0,0-5.4-11.91-3.17-17.34,1.54-3.77,5.93-6.96,9.99-7.01,6-.07,12.61,4.49,14.99,10.01,1.9,4.41-2.4,14.22-2.4,14.22,0,0,10.15-4.61,14.99-3,4.25,1.41,8.72,5.53,8.99,10.01.35,5.73-4.47,12.19-9.87,14.11-5.51,1.96-16.86-4.81-16.86-4.81h0Z"/>
      <path id="path18482-0" class="cls-20" d="M10.7,64.7c-6.57,4.33-13.43,7.99-17.99,17.02-4.52-9.37-9.8-13.35-14.99-18.02,5.21-2.56,10.42-5.25,15.99-17.02,3.92,6.53,6.43,13.48,16.99,18.02Z"/>
      <path id="path18484-1" class="cls-23" d="M6.09,75.1l15.9,6.68,3.23,14.43-13.93-5.13-5.2-15.99Z"/>
      <path id="path18490-0" class="cls-23" d="M4.62,56.22l16.68-6.54,3.21-15.41-15.8,6.42-4.09,15.53Z"/>
    </g>
  </g>
  <g class="cls-36">
    <g>
      <path id="path4171-1" d="M354.17,106s-2.8-4.17-4.5-6c-2.26-2.42-4.48-5.15-7.5-6.5-3.68-1.64-7.98-1.74-12-1.5-4.12.25-12,3-12,3,0,0,.33-7.89-1-11.5-1.49-4.04-4.09-7.87-7.5-10.5-4.09-3.16-9.33-5.33-14.5-5.5-4-.13-7.8,1.96-11.5,3.5-2.27.95-6.5,3.5-6.5,3.5,0,0-2.29-8.98-4.5-13-1.55-2.8-3.51-5.49-6-7.5-3.19-2.58-7.06-4.38-11-5.5-1.77-.5-5.5-.5-5.5-.5l9.5-25,9-31,6-22.5,3.5-18.5,4-20,.5-13.5-34.5-.5-5,27.5-13.5,43-10.5,24-13,23.5-13.5,19.5-12,4-6.5,12.5v9.5l-10.5,1.5-6,12v13l1.5,8-16-10-39-24,24.5-23,17-22.5,17.5-24,14.5-29,9.5-18-73.1-35.71-2.4-11.29-10.5-3.5-11.5,2-3,8,.5,5.5-24,2.5-20.5-3-26-.5v-165l15,13,21.5,20,18.5,25.5,15.71,25.84,7.35,29.12,2.13,15.25,99.31,48.3,3.5-14.5,3-20.5,2-24v-31.5h222l3,67.5,4,37,10,32,13.5,32.5,17,31.5,14,21.5,11,16.5-44,18.5-11.5-9.5-20-34-22.5-48.5-12-43.5-7-28.5-2.5-24.5-44.5.5,3.5,44,3.5,28.5,8,29,6,23.5,10,25,9.5,18,6.5,12-4,1.5-6.5-2-8.5,10.5-8-2-1-1Z"/>
      <path id="path4175-2" class="cls-33" d="M427.37,91.27l-8.91,1.27-8.28-3.82-7.96,3.82-5.41-2.87-5.41,1.59-12.1-26.11-14.65-36.93-8.91-31.52-4.14-27.06-2.55-20.38-.64-20.7,22.29.64,4.46,29.29,7.64,35.98,9.23,28.34,9.87,22.61,10.51,20.38,6.69,12.74,8.28,12.74Z"/>
      <path id="path4173-2" class="cls-33" d="M218.51,83.94l15.92-29.93,15.92-35.66,10.83-35.66,7-32.79,3.82-20.7-15.6-.64-8.6,33.43L235.38-1.7l-10.51,24.52-12.42,21.33-8.91,12.74,7.64,4.78,4.14,11.46,3.18,10.83Z"/>
      <path id="path4177-6" class="cls-33" d="M136.35-61.26l-22.02-11.01s-.07,5.66-1.57,7.86c-2.46,3.6-7,5.36-11.01,7.08-4.05,1.74-8.51,2.36-12.85,3.15-2.16.39-6.55.79-6.55.79l.26,76.81s9.3-8.2,13.37-12.85c4.86-5.55,8.99-11.71,13.11-17.83,4.01-5.96,7.82-12.06,11.27-18.35,3.36-6.13,6.33-12.49,9.18-18.88,2.46-5.51,6.82-16.78,6.82-16.78Z"/>
      <path id="path4169-8" class="cls-33" d="M600.17,30.5l-33,23-40.5,22-18.5,9.5-2.5-6.5,10.5-24.5,10-37,1.5-23-4.5-28.5-8-21.5-13.5-22-15.5-18.5-12.5-12-15-11-21.5-11-1-28,3-17.5,4-21.5,41,19.5,2,33,8,35,14,37,12,19.5,26.5,34.5,23.5,23.5,18.5,14.5,11.5,11.5Z"/>
      <g id="g4120-5">
        <path id="path3931-7" class="cls-31" d="M444.67,350c-21-38.33-42-76.67-63-115-22.57,8.42-46.6,11.23-70.37,13.75-25.95,2.75-52.21,2.85-78.26,1.42-21.27-1.17-42.66-2.75-63.37-8.17-23.67,36-47.33,72-71,108h346Z"/>
        <path id="path3933-6" d="M294.29,288.89c-2.41-2.02-5.58-3.8-8.71-3.61-3.16.19-5.87,2.62-8.27,4.69-1.52,1.31-2.43,2.66-3.69,4.74-1.63-1.94-3.06-4.38-5.29-5.69-2.75-1.62-6.34-3.51-9.3-2.3-3.56,1.45-5.77,5.98-6.06,9.81-.27,3.54,1.45,7.51,4.15,9.82,2.54,2.17,6.41,2.1,9.74,2.41-.95,2.99-2.55,6.81-1.39,9.95,1.36,3.67,4.94,7.21,8.82,7.75,3.51.49,7.39-1.8,9.61-4.56,1.93-2.41,2.68-6.01,2.06-9.04-.45-2.24-2.09-4.14-4-5.56,3.88-.32,8.35-.76,11.08-3.51,2.61-2.64,3.54-6.95,3.26-10.65-.12-1.56-1.26-2.87-2.02-4.23h0ZM277.31,301.69c.27,1.78-1.01,4.38-2.8,4.63-1.83.25-4.07-1.96-4.04-3.81.03-1.73,2.15-3.44,3.88-3.44,1.32,0,2.76,1.33,2.96,2.63Z"/>
        <path id="path3933-7-1-8" d="M350.39,318.16c2.79-1.45,5.65-3.69,6.68-6.66,1.04-2.99-.09-6.45-1.15-9.44-.81-2.29-2.43-4.21-3.86-6.17,2.05.7,4.43.75,6.32-.18,3.58-1.76,7.44-5.29,7.57-9.27.12-3.84-3.3-7.62-6.73-9.37-3.17-1.61-7.49-1.55-10.66.06-2.98,1.52-4.4,5.12-5.96,8.07-2.39-2.03-5.29-4.12-8.42-4.11-4.2.01-9.42,1.82-11.29,5.58-1.72,3.47.09,8.17,2.21,11.41,1.44,2.19,3.88,4.2,6.49,4.45,2.36.23,4.51-1.6,6.55-2.82-1.19,3.71-2.51,8.01-1.01,11.58,1.43,3.43,5.05,5.94,8.58,7.1,1.48.49,3.13-.06,4.68-.24h0ZM344.62,296.56c-1.82-.23-4.31-1.99-3.99-3.8.31-1.82,3.46-3.17,5.07-2.26,1.49.84,1.41,3.58.63,5.11-.3.58-1.06,1.04-1.71.96Z"/>
        <path id="path3933-7-4-8" d="M196.57,322.02c-2.79-1.45-5.65-3.69-6.68-6.66-1.04-2.99.09-6.45,1.15-9.44.81-2.29,2.43-4.21,3.86-6.17-2.05.7-4.43.75-6.32-.18-3.58-1.76-7.44-5.29-7.57-9.27-.12-3.84,3.3-7.62,6.73-9.37,3.17-1.61,7.49-1.55,10.66.06,2.98,1.52,4.4,5.12,5.96,8.07,2.39-2.03,5.29-4.12,8.42-4.11,4.2.01,9.42,1.82,11.29,5.58,1.72,3.47-.09,8.17-2.21,11.41-1.44,2.19-3.88,4.2-6.49,4.45-2.36.23-4.51-1.6-6.55-2.82,1.19,3.71,2.51,8.01,1.01,11.58-1.43,3.43-5.05,5.94-8.58,7.1-1.48.49-3.13-.06-4.68-.24h0ZM202.33,300.42c1.82-.23,4.31-1.99,3.99-3.8-.31-1.82-3.46-3.17-5.07-2.26-1.49.84-1.41,3.58-.63,5.11.3.58,1.06,1.04,1.71.96Z"/>
        <path id="path3933-7-4-0-92" d="M134.36,312.27c3.5.09,7.56-1.04,9.93-3.78,2.48-2.86,2.7-7.35,2.85-11.24,1.41,1.84,2.7,4.25,4.87,4.83,2.39.64,5.2-.41,7.18-1.99,2.93-2.33,6.07-6.17,5.67-10.02-.43-4.17-4.47-7.59-8.18-9.02-2.76-1.06-6.01-.07-8.78,1.03-.13-.97-.24-2.01-.37-3.02l-4.81,7.25c.21-.15.47-.29.73-.34,1.72-.31,4.06,2.01,3.74,3.83-.31,1.81-3.09,2.64-4.78,2.25-.6-.14-1.15-.8-1.22-1.44-.09-.78.07-1.76.38-2.61l-13.16,19.82c.58.95,1.23,1.81,1.92,2.61,1.32.69,2.56,1.81,4.03,1.84Z"/>
        <path id="path3933-7-4-0-9-7" d="M411.58,309.3c-3.49-.21-7.44-1.69-9.57-4.62-2.22-3.06-2.06-7.55-1.87-11.44-1.56,1.71-3.06,4-5.27,4.4-2.44.43-5.15-.86-6.99-2.6-2.72-2.58-5.52-6.67-4.79-10.47.79-4.12,5.11-7.18,8.93-8.28,2.84-.82,6,.44,8.66,1.78.21-.95.41-1.98.63-2.98l4.17,7.64c-.2-.17-.45-.33-.69-.4-1.69-.46-4.21,1.65-4.06,3.5.15,1.83,2.85,2.9,4.57,2.65.61-.09,1.21-.69,1.34-1.33.15-.77.08-1.76-.15-2.63l11.41,20.88c-.66.9-1.38,1.7-2.14,2.43-1.37.58-2.7,1.58-4.17,1.49h0Z"/>
        <path id="path4015-9-4" d="M249.21,279.19c5.24-.65,10.77,1.42,15.28,4.13,2.4,1.44,4.07,3.86,5.72,6.12,1.5,2.05,2.47,5.38,3.74,6.63-.72-6.92-2.56-11.42-6.15-15.77-3.45-4.18-8.67-6.76-13.75-8.68-5.47-2.06-11.49-3.21-17.33-2.8-6.87.49-13.67,2.89-19.71,6.15-4.1,2.22-7.96,5.19-10.78,8.88-1.57,2.05-2.9,5.09-3.16,7.05,2.62-3.15,6.99-6.83,11.34-8.89,3.97-1.88,8.51-3.48,12.87-2.89,4.23.58,7.37,2.81,11.25,6.05,4.11-2.2,6.62-5.49,10.68-5.99h0Z"/>
        <path id="path4015-4-5" d="M297.57,277.24c-5.2-.38-10.45,2.12-14.86,4.9-2.32,1.47-4.1,3.72-5.7,5.95-1.47,2.04-1.57,6.84-3.49,6.69.35-6.95,2.42-11.12,5.78-15.49,3.27-4.27,8.21-7.19,13.13-9.37,5.29-2.34,11.17-3.79,16.95-3.68,6.81.14,13.64,2.19,19.77,5.14,4.16,2.01,8.12,4.78,11.09,8.32,1.65,1.97,3.13,4.93,3.49,6.88-2.75-3.01-7.25-6.46-11.65-8.3-4.01-1.67-8.58-3.04-12.85-2.23-4.14.79-7.13,3.18-10.79,6.61-4.17-1.99-6.82-5.14-10.85-5.44h0Z"/>
        <path id="path4015-4-8-4" d="M186.19,273.09c4.1.13,8.22,2.8,11.51,5.91,1.75,1.66,2.7,4.23,3.97,6.41,1,1.71,1.35,5.19,2.86,5.23-.04-6.45-1.66-9.87-4.05-13.96-2.46-4.22-6.21-7.41-9.99-9.88-4.07-2.65-8.65-4.54-13.19-4.97-5.35-.5-10.78.75-15.7,2.92-3.34,1.47-6.54,3.66-8.99,6.66-1.36,1.67-2.62,4.27-2.97,6.04,2.26-2.53,5.91-5.3,9.43-6.59,3.21-1.17,6.84-2.02,10.16-.86,3.23,1.12,5.49,3.6,8.26,7.11,3.34-1.45,5.52-4.12,8.7-4.02h0Z"/>
        <path id="path4015-4-8-8-3" d="M376.11,266.64c4.02-1.56,9.07-.53,13.49,1.31,2.35.98,4.42,3.11,6.39,4.94,2.08,1.92,4.22,6.88,5.7,6.3-2.61-6.61-5.67-10.95-10.32-14.77-3.82-3.14-8.95-5.04-13.6-6.01-5-1.04-10.18-1.09-14.74.35-5.38,1.7-10.14,5.23-14.03,9.49-2.65,2.89-4.87,6.47-6.05,10.56-.66,2.28-.84,5.47-.47,7.42,1.6-4.8,3.12-8.92,6.5-11.93,2.55-2.27,6.08-3.76,9.49-3.82,3.83-.07,6.74,1.43,10.82,3.89,2.66-2.87,3.71-6.52,6.82-7.73h0Z"/>
        <path id="path4072-1-0" class="cls-33" d="M389.93,254.19s-10.24-3.29-15.56-3.54c-6.29-.29-12.92.06-18.74,2.47-4.12,1.7-7.42,5.01-10.61,8.13-2.16,2.11-5.66,7.07-5.66,7.07,0,0-11.63-6.4-18.03-7.78-6.34-1.37-13.01-1.16-19.45-.35-6.18.78-12.54,2-18.03,4.95-4.41,2.37-11.31,9.9-11.31,9.9,0,0-8.73-9.38-14.5-11.67-5.6-2.22-12.01-1.7-18.03-1.41-5.5.26-11.02,1.16-16.26,2.83-5.22,1.66-14.85,7.07-14.85,7.07,0,0-5.49-7.54-9.19-10.25-3.44-2.53-7.58-4.06-11.67-5.3-4.11-1.25-8.44-2.51-12.73-2.12-5.24.47-14.85,5.32-14.85,5.32l10.11-15.14s30.46,5.26,45.84,6.7c12.91,1.21,25.89,1.48,38.85,1.63,13.96.17,27.93.08,41.87-.76,11.64-.71,23.24-2.1,34.81-3.6,8.71-1.12,17.49-1.99,26.03-4.02,7.83-1.86,22.96-7.45,22.96-7.45l8.99,17.32Z"/>
      </g>
      <g id="g4187-2">
        <path id="path4075-3" class="cls-20" d="M380.28,234.42c4.05-20.75,7.97-41.63,14.63-61.73,6.45-18.42,16.03-35.52,25.53-52.48,3.58-5.42,10.47-10.13,17.19-8.31,4.44,1.27,4.61,5.97,3.23,9.63"/>
        <path id="path4078-3" class="cls-20" d="M369.82,237.04c3.62-32.63,11.36-65.11,24.46-95.15,7.37-16.88,19.3-37.93,37.67-42.62,7.84-2,19.02,1.12,22.83,8.26,4.28,8.03,1.15,21.73-6.6,26.51-7.31,4.51-19.15.49-25.15-5.66-2.14-2.2-1.53-5.97-1.79-9.03"/>
        <path id="path4081-4" class="cls-20" d="M358.05,241.83c2.81-20.24,5.31-41.29,11.29-61.13,6.96-23.04,14.39-46.81,28.37-66.41,6.44-9.02,13.85-19.84,24.66-22.3,5.38-1.23,12.57-.79,15.88,4.69"/>
        <path id="path4081-2-1" class="cls-20" d="M346.72,242.28c2.45-21.13,5.69-42.06,11.37-62.44,4.8-17.23,10.82-34.28,19.08-50.14,7.09-13.62,14.16-26.51,25.87-38.1,2.98-2.94,10.09-2.57,15.16.54"/>
        <path id="path4081-2-4-1" class="cls-20" d="M336.05,244.51c1.92-21.18,4.63-42.19,9.8-62.71,4.37-17.34,9.99-34.53,17.81-50.61,6.4-13.15,12.18-25.11,23.6-36.99,2.9-3.02,8.28-5.44,13.43-2.46"/>
        <path id="path4081-2-4-5-3" class="cls-20" d="M324.2,246.72c2.08-21.14,4.61-38.73,8.99-57.69,3.94-17.07,8.85-34.31,15.51-50.22,5.44-13.01,10.36-24.85,19.77-36.5,2.39-2.96,6.74-5.26,10.77-2.18"/>
        <path id="path4081-2-4-5-5-8" class="cls-20" d="M313.99,247.92c1.25-20.02,3.04-36.72,6.52-54.77,3.13-16.25,7.16-32.69,12.88-47.93,4.68-12.47,8.89-23.81,17.33-35.12,2.14-2.87,6.15-5.2,10.03-2.42"/>
        <path id="path4081-2-4-5-5-1-7" class="cls-20" d="M302.85,248.07c1.16-19.28,2.82-35.36,6.04-52.74,2.9-15.65,6.63-31.48,11.92-46.16,4.33-12.01,8.23-22.93,16.04-33.82,1.98-2.77,5.69-5,9.28-2.33"/>
      </g>
      <g id="g4260-4">
        <path id="path4197-2" class="cls-20" d="M338.17,112.36c-1.48-1.37-3.51-2.81-5.52-2.54-3.27.43-5.6,3.71-7.63,6.31-3.01,3.88-4.32,8.82-6.27,13.33-2.01,4.64-3.73,9.41-5.6,14.1"/>
        <path id="path4199-7" class="cls-20" d="M308.15,133.58c3.36-7.57,6.23-15.41,10.45-22.54,2.01-3.4,3.52-7.71,7.02-9.55,4.81-2.52,11.79-3.5,16.3-.46,3.34,2.26,4.09,7.28,4.21,11.35"/>
        <path id="path4201-7-3" class="cls-20" d="M303.15,126.53l15.01-30.91"/>
        <path id="path4203-9" class="cls-20" d="M265.46,97.37l11.19-21.78"/>
        <path id="path4246-3" class="cls-20" d="M233.08,57.63l-12.95,25.9"/>
        <path id="path4205-1" class="cls-20" d="M217.48,84.12c-2.52-7.31-2.24-16.3-7.51-21.96-4.68-5.02-12.18-9.09-18.95-8-6.9,1.11-13.7,7.13-15.8,13.8-3.7,11.78,4.61,25.41,8.94,35.95"/>
        <path id="path4211-9" class="cls-20" d="M290.78,115.03c3.79-6.44,12.16-14.88,9.71-22.76-1.1-3.55-5.76-6.64-9.42-5.97-4.36.8-5.82,6.78-7.98,10.65-1.56,2.8-2.34,5.97-3.5,8.95"/>
        <path id="path4213-8" class="cls-20" d="M297.26,120.06c5.46-9.48,11.03-18.74,12.61-28.53.88-5.45-3.78-11.71-8.78-14.04-5.5-2.57-13.94-1.96-18.03,2.52-4.33,4.74-6.48,10.25-9.13,15.66-.92,1.87-2.28,5.82-2.28,5.82"/>
        <path id="path4215-6" class="cls-20" d="M258.1,93.25c4.12-7.48,9.93-16.03,8.21-24.45-1.18-5.8-6.12-11.59-11.8-13.26-4.27-1.25-10.15.07-12.86,3.61-5.83,7.62-8.9,16.22-11.52,23.51"/>
        <path id="path4217-5" class="cls-20" d="M252.22,88.83c2.26-5.09,7.85-14.57,4.45-20.78-1.38-2.52-5.38-4.03-8.06-3.01-6.42,2.44-8,13.68-9.64,18.2"/>
        <path id="path4219-0" class="cls-20" d="M171.56,240.71c.61-33.49-1.03-67.29,3.45-100.44,1.97-14.56,5.7-30.26,15.4-41.29,6.88-7.82,17.1-13.09,27.65-14.57"/>
        <path id="path4232-2" class="cls-20" d="M170.21,188.41c-6.09-10.63-11.46-22.16-13.01-34.29-1.44-11.29.84-21.9,3.71-33.96"/>
        <path id="path4234-8" class="cls-20" d="M171.67,170.99c-6.66-7.75-6.14-15.12-6.67-23.12-.35-5.21,1.59-11.33,2.32-15.5"/>
        <path id="path4236-6" class="cls-20" d="M172.83,141.37c-5.45-11.61-14.01-22.59-15.19-35.36-.68-7.28.07-15.83,4.8-21.4,2.76-3.25,7.6-4.05,11.85-4.8"/>
        <path id="path4238-0" class="cls-20" d="M174.86,128.3c-5.2-9.91-12.64-21.88-8.82-32.4,1.59-4.36,5.84-8.54,11.43-7.96"/>
        <path id="path4240-2" class="cls-20" d="M179.22,118.14c-5.1-7.67-8.55-14.16-5.46-20.52,1-2.06,4.71-2.39,6.33-2.71"/>
        <path id="path4248-4" class="cls-20" d="M189.38,96.36c-3.3-8.64-10.14-19.52-5.2-27.39,2.93-4.66,10.94-6.55,15.95-4.26,6.85,3.13,7.96,13.03,9.87,20.33"/>
        <path id="path4250-8" class="cls-20" d="M202.74,87.94c-1.37-7.32-3.12-17.44-9.11-16.04-4.24.99-1.51,8.75-.75,13.04.47,2.63,2.49,5.78,3.18,7.36"/>
      </g>
      <g id="g4190-4">
        <path id="path3868-9" class="cls-5" d="M104.62,81.04c17.65-17.05,34.62-35.66,48.77-55.96,13.21-18.95,23.35-39.92,33.25-60.8-16.5-8.25-33-16.5-49.5-24.75-7.88,18.19-16.75,36.09-27.75,52.57-7.76,11.62-16.85,22.73-26.73,32.29-.24,13.44.24,28.27,0,41.71,7.07,5.19,14.88,9.77,21.95,14.96h0Z"/>
        <path id="path3870-6" class="cls-12" d="M97.2,72.44c15.25-14.35,19.86-17.47,28.4-27.51,11.48-13.49,21.39-28.33,30.4-43.58,7.68-13,17.12-35.2,20.03-40.62"/>
        <path id="path3872-3" class="cls-12" d="M83.69,40.8c10.74-10.37,21.92-22.67,31.38-35.24,6.95-9.24,13.17-19.08,18.52-29.33,5.07-9.73,9.25-19.95,12.75-30.35"/>
        <path id="path3874-7" class="cls-12" d="M101.76,67.04l-2.38-21.55-15.27.1"/>
        <path id="path3876-8" class="cls-12" d="M120.17,48.42l-1.41-24.04-19.41,2.02"/>
        <path id="path3878-8" class="cls-12" d="M137.85,28.23l-2.12-27.89-19.09,3.54"/>
        <path id="path3880-2" class="cls-12" d="M153.41,3.64l-3.54-25.23-19.07,3.96"/>
      </g>
      <path id="path3805-5" class="cls-20" d="M157.26,113.6l-39.14-23.65-34.02-22.83"/>
      <g id="g4369-0">
        <path id="path3858-6" class="cls-20" d="M82.67-52V252l-29,26-25-26V-57"/>
        <path id="path3860-6" class="cls-20" d="M55.67,228s-4.03-25.35-3.4-38.08c.65-13.19,5.7-25.82,7.4-38.92,1.49-11.51,3.43-23.16,2.44-34.72-1.13-13.09-7.46-25.29-9.44-38.28-1.66-10.89-2.65-22-2-33,.77-13,5.57-25.49,6.92-38.44,1.26-12.13,2.56-24.46,1.08-36.56-1.05-8.59-7-25-7-25"/>
      </g>
      <path id="path3888-1" class="cls-23" d="M233.03,57.32s6.08-7.41,10.22-9.53c1.68-.86,5.56-1.11,5.56-1.11,0,0,7.84-17.63,11.12-26.69,4.41-12.16,8.11-24.59,11.49-37.08,3.28-12.12,6.46-24.32,8.53-36.7,1.59-9.56,2.97-28.92,2.97-28.92l-35.22.37s-2.29,13.63-3.71,20.39c-1.54,7.33-3.11,14.68-5.19,21.87-2.54,8.79-5.53,17.45-8.9,25.95-3.54,8.95-7.57,17.71-11.86,26.32-4.47,8.96-9.27,17.76-14.46,26.32-3,4.95-9.64,14.46-9.64,14.46l10.38,3.71s11.19-16.73,15.94-25.58c5.78-10.77,10.65-22.03,15.2-33.37,5.02-12.51,9.56-25.25,13.35-38.19,3-10.24,7.42-31.14,7.42-31.14l15.2.37s-4.3,28.06-7.42,41.9c-2.56,11.38-5.74,22.62-9.27,33.74-2.86,9.02-6.05,17.94-9.64,26.69-3.65,8.9-12.08,26.22-12.08,26.22h0Z"/>
      <path id="path3897-3" class="cls-15" d="M316.62,32.1s3.65,11.06.37,14.7c-4.28,4.74-14.23,5.6-19.1,1.47-4.22-3.58-1.47-16.53-1.47-16.53,0,0-10.72,2.61-13.96-.73-3.92-4.05-4.09-12.67-.37-16.9,3.01-3.42,13.59-1.47,13.59-1.47,0,0-.68-10.52,2.94-13.23,4.23-3.16,11.75-2.29,15.8,1.1,3.48,2.92,3.31,13.23,3.31,13.23,0,0,11.79-3.08,15.06.73,3.85,4.49,2.55,13.68-1.84,17.64-3.55,3.2-14.33,0-14.33,0Z"/>
      <circle id="path3899-5" class="cls-5" cx="306.15" cy="21.99" r="8.27"/>
      <path id="path3905-9" class="cls-23" d="M444.74,98.27c-15.49-24.77-30.2-50.26-41.1-77.35-8.13-20.2-13.2-41.55-17.84-62.82-2.86-13.11-4.21-26.51-6.12-39.79-15.08-.12-30.17-.24-45.25-.35,1.71,22.73,2.35,40.2,5.95,59.96,4.67,25.69,11.06,51.22,20.22,75.67,5.73,15.29,13.36,28.88,21.56,43.97,1.37-5.5,7.88-5.35,8.93-8.62-11.91-22.75-22.76-46.3-29.66-71-8.1-28.99-13.68-70.08-13.44-89.31,5.62.09,16.53.54,22.15.63,4.64,29.6,9.14,56.04,17.99,82.89,5.37,16.31,13.4,31.64,21.14,46.96,5.35,10.59,12.95,22.64,17.44,31.01,6.21,2.32,10.38,3.5,12.33,7.97.96.05,4.75.11,5.7.16h0Z"/>
      <path id="path3912-8" class="cls-15" d="M357.13,66.67c.39,4.05,1.58,9.08-1.03,12.23-3.44,4.16-10.35,5.55-15.61,4.34-5.13-1.18-8.87-6.09-11.85-10.43-2.38-3.46-3.29-7.76-4.39-11.82-1.79,2.04-4.35,3.79-7.05,4.11-2.66.31-5.23-1.26-7.69-2.32,4.31-3.57,8.74-7.57,10.87-12.73,2.06-4.99,1.71-10.79,1.23-16.16,3.64,8.65,7.17,17.45,12.35,25.27,2.64,3.98,4.88,9.26,9.39,10.82,3.03,1.05,6.35-1,9.44-1.83,1.48-.4,2.9-.97,4.34-1.5h0Z"/>
      <path id="path3914-4" class="cls-15" d="M293.88,37s-4.68,8.79-8.84,10.96c-2.93,1.53-6.87,2.04-9.9.71-3.3-1.45-6.72-8.49-6.72-8.49,0,0,4.05-5.67,7.07-5.66,2.43.01,3.31,3.97,5.66,4.6,4.16,1.1,12.73-2.12,12.73-2.12h0Z"/>
      <path id="path3916-0" class="cls-15" d="M293.53,12.47c-3.2-2.93-6.84-5.59-8.51-9.51-1.55-3.64-2.39-8.17-.88-11.83,1.42-3.43,4.75-6.77,8.43-7.27,2.33-.32,4.43,1.71,6.39,3.02.8.53,2.16,1.35,2.14,1.94-2.43.55-5.21,1.57-6.8,3.58-2.1,2.65-2.41,6.44-2.55,9.82-.14,3.46.92,6.77,1.78,10.24h0Z"/>
      <path id="path3918-7" class="cls-15" d="M319.47,10.35c0-.6,7.82-6.57,9.38-11.18,1.34-3.97,1.69-9.04-.59-12.56-1.89-2.91-5.92-3.91-9.31-4.68-2.59-.59-5.32-.1-7.96.13.31,2.64.92,5.38,2.27,7.69,1.35,2.32,4.55,3.31,5.61,5.77,1.95,4.54,1.39,9.96.61,14.83Z"/>
      <path id="path3932-3" class="cls-20" d="M507.31,82.72c-24.58-32.54-45.31-68.8-57.74-107.54-10.89-33.92-12.46-70.4-13.68-106-.55-16.18.67-32.44,2.91-48.48.81-5.84,2.44-11.54,3.81-17.28"/>
      <g id="g4018-6">
        <path id="path4007-1" class="cls-5" d="M601.17,29.6c-28.78-21.58-55.53-46.72-76.16-76.08-14.71-20.94-25.32-44.96-32.64-69.48-5.92-19.85-9.5-43.43-8.7-61.54,17.5,8.17,35,16.33,52.5,24.5,2.06,17.53,6.04,35.09,13.54,51,10.13,21.5,24.52,41.35,41.49,58,7.35,7.22,16.05,13.2,25.48,17.5V17.5c-5.17,4.03-10.33,8.07-15.5,12.1Z"/>
        <path id="path4010-5" class="cls-12" d="M607.17,22c-18.27-11.41-34.62-24.66-48.99-40.11-17.5-18.81-32.75-40.1-44.4-62.99-9.64-18.93-16.53-39.47-20.52-60.34-1.98-10.34-2.15-21-1.58-31.56"/>
        <path id="path4014-2" class="cls-12" d="M516.17-161.5l.5,9-8-.5v-7l-8.5-2,2,18.5,15-1.5,4.5,17-6.5,2-3-9-8,2,5,16.5,15-5,8,17-8.5,3-3.5-7.5-8,2.5,7,17.5,15-7.5,8.5,16-7.5,5.5-4-8.5-8.5,4,9.5,15.5,14-8.5,10,13.5-7.5,5.5-3.5-5.5-6.5,4,9.5,14,14.5-11.5,11,13-7,7-6.5-7.5-5,5,12.5,14.5,13-12,12.5,12-6,7.5-8-8-4.5,7,13.5,12,13-13,13.64,10.5-7.14,7-6.5-5-6,5.5,14,9.5,6.5-7"/>
      </g>
      <path id="path3932-8-0" class="cls-20" d="M499.04,86.96c-24.87-33.34-45.55-70.5-58.31-109.99-10.34-32-12.77-66.32-13.81-99.93-.62-19.76,1.61-39.58,4.44-59.15.92-6.32,2.53-12.51,4.05-18.72"/>
      <g id="g4071-9">
        <path id="path3934-7" class="cls-20" d="M505.9,77.77s8.09-17.7,11.31-26.87c3.29-9.36,6.54-18.84,8.13-28.64,1.63-10.01,2.02-20.28,1.41-30.41-.47-7.87-2.03-15.67-3.89-23.33-1.72-7.1-3.71-14.2-6.72-20.86-4.07-9-9.55-17.35-15.2-25.46-5.9-8.45-12.1-16.81-19.45-24.04-5.87-5.77-12.58-10.67-19.45-15.2-7.75-5.11-24.4-13.43-24.4-13.43"/>
        <path id="path3936-3" class="cls-28" d="M472.31,26.85c1.71-16.46,2.84-33.59-1.24-49.63-2.74-10.79-8.63-20.75-15.22-29.72-4.35-5.91-10.1-10.69-15.71-15.41,0,0,6.16,32.68,11.47,48.38,5.43,16.04,20.7,46.38,20.7,46.38h0Z"/>
        <path id="path3938-7" class="cls-20" d="M498.48,68.57s6.82-.05,9.19-2.12c2.75-2.4,4.02-6.6,3.89-10.25-.13-3.64-2.25-7.12-4.6-9.9-3.32-3.95-8.14-6.46-12.73-8.84-3.67-1.9-11.67-4.24-11.67-4.24"/>
        <path id="path3940-2" class="cls-20" d="M486.81,3.52s9.67.31,14.5.71c4.14.34,8.6-.31,12.37,1.41,3.49,1.59,6.75,4.36,8.49,7.78,1.45,2.85,1.73,6.42,1.06,9.55-.97,4.55-3.31,9.29-7.07,12.02-3.13,2.27-7.45,2.45-11.31,2.47-7.58.05-22.27-4.6-22.27-4.6"/>
        <path id="path3942-6" class="cls-34" d="M484.69,27.38s11.58,3.72,17.32,2.66c2.75-.51,5.92-1.64,7.42-4.17,1.39-2.35,1.32-5.77.35-8.35-1.21-3.24-4.05-5.92-7.07-7.21-5.14-2.2-16.62,0-16.62,0l-1.41,17.08Z"/>
        <path id="path3940-1-0" class="cls-20" d="M482.3-24.58s9.28-2.69,13.98-3.81c4.03-.96,8.06-2.94,12.19-2.5,3.81.41,7.78,1.97,10.5,4.62,2.27,2.21,3.66,5.44,4.01,8.55.51,4.53-.22,9.67-2.93,13.36-2.25,3.07-6.3,4.58-9.96,5.79-7.18,2.38-22.59,2.59-22.59,2.59"/>
        <path id="path4045-4" class="cls-28" d="M480.24,40.59c4.19,1.16,8.85,1.92,12.16,4.75,3.57,3.06,6.94,7.49,7.08,12.18.04,1.51-.92,3.03-2.04,4.04-.98.88-2.6,1.54-3.7,1.4-4.51-7.45-9.02-14.89-13.49-22.37Z"/>
      </g>
      <g id="g4147-0">
        <path id="path4087-0" class="cls-20" d="M230.52,214.89s.24,5.39-.53,7.93c-.41,1.36-2.11,3.7-2.11,3.7,0,0,8.69-3.15,13.22-3.17,4.7-.02,9.1,2.44,13.74,3.17,5.59.88,11.27,1.92,16.92,1.47,6.34-.51,12.78-1.87,18.5-4.65,2.6-1.26,6.87-5.29,6.87-5.29,0,0-11.71,5.48-17.97,6.87-4.83,1.07-9.87,1.44-14.8,1.06-4.69-.37-9.06-2.79-13.74-3.17-5.63-.46-11.39-.11-16.92,1.06-1.5.32-4.32,1.6-4.32,1.6,0,0,1.36-3.39,1.55-5.18.19-1.79-.4-3.28-.4-5.4Z"/>
        <path id="path4089-1" class="cls-20" d="M236.19,208.75s3.18-1.1,4.75-.75c3.77.84,6.01,5.1,9.61,6.49,2.97,1.14,6.27,1.24,9.45,1.35,3.56.12,7.22.1,10.66-.81,4.67-1.24,8.96-3.7,13.09-6.21,3.57-2.17,6.44-5.36,9.99-7.56,1.37-.85,4.32-2.16,4.32-2.16,0,0-7.69-.73-11.47-.13-6.14.97-11.59,4.7-17.68,5.94-3.36.69-6.83.81-10.26.81-3.27,0-6.53-.39-9.78-.75-1.22-.13-2.43-.71-3.64-.53-3.3.5-9.04,4.31-9.04,4.31Z"/>
        <path id="path4091-4" class="cls-20" d="M283.89,198.16s-6.37-6.09-10.39-7.56c-2.88-1.06-6.11-.73-9.18-.67-4.62.08-9.41-.04-13.77,1.48-2.62.91-4.8,2.8-7.02,4.45-1.59,1.17-4.49,3.85-4.49,3.85,0,0,5.54,2.46,8.41,3.43,2.87.98,5.75,2.13,8.77,2.43,4.4.44,8.94.13,13.23-.94,5.12-1.29,14.44-6.48,14.44-6.48h0Z"/>
        <ellipse id="path4093-6" class="cls-14" cx="260.54" cy="197.89" rx="10.8" ry="7.29"/>
        <ellipse id="path4095-0" class="cls-28" cx="259.86" cy="199.58" rx="3.91" ry="3.04"/>
        <path id="path4097-7" class="cls-28" d="M167.17,211.75s3.43,2.56,5.5,6.5c1.88,3.59,5.91,5.98,9.75,7.25,3.16,1.05,6.68.26,10,0,3.78-.29,7.46-1.92,11.25-1.75,2.06.09,4.01.98,6,1.5.92.24,2.75.75,2.75.75l-2-11.17.75,9.92s-4.9-2.05-7.5-2.5c-3.37-.59-6.83-.31-10.25-.25-4.09.08-8.34,1.97-12.25.75-5.67-1.77-14-11-14-11Z"/>
        <path id="path4099-1" class="cls-20" d="M212.25,212.42c-.03-4.3-.08-9.76-.87-14.55-.87-5.22-3.09-10.14-4.21-15.31-.97-4.46-1.31-9.04-2.19-13.52-.4-2.02-1.33-3.96-1.39-6.02-.06-2.12-.13-4.52,1.08-6.27,2.4-3.47,7.62-3.76,10.91-6.39,1.46-1.17,2.63-2.67,3.84-4.11"/>
        <path id="path4103-7" class="cls-20" d="M237.92,166.5c2.52.93,4.91-1.6,6.21-3.61.96-1.49,1.02-3.57.56-5.28-.67-2.46-2.3-4.96-4.56-6.14-2.59-1.35-5.99-1.2-8.74-.25-2.07.72-3.13,3.15-5.05,4.21-2.43,1.34-5.23,1.88-7.91,2.57"/>
        <path id="path4106-7" class="cls-28" d="M258.92,148.75s5.51,1.72,8.25,1.25c1.4-.24,2.88-.88,3.75-2,1.48-1.9,1.98-4.61,1.75-7-.24-2.56-1.2-5.44-3.25-7-3.23-2.46-7.98-2.51-12-2-3.89.49-7.23,3.03-10.75,4.75-2.38,1.16-4.54,2.78-7,3.75-2.73,1.07-5.57,2.21-8.5,2.25-1.8.02-4.72.47-5.25-1.25-.4-1.3,1.51-2.44,2.75-3,3.34-1.51,7.4.45,11-.25,3.94-.76,7.41-3.09,11.25-4.25,3.6-1.08,7.26-2.86,11-2.5,3.08.3,6.32,1.55,8.5,3.75,1.47,1.48,2.36,3.66,2.5,5.75.15,2.16-.38,4.57-1.75,6.25-1.72,2.11-4.53,3.68-7.25,3.75-1.83.05-5-2.25-5-2.25Z"/>
        <path id="path4110-7-7" class="cls-28" d="M188.92,151.5s-4.61-1.84-6-3.75c-1.21-1.67-1.49-3.94-1.5-6-.01-2.83.15-6.11,2-8.25,1.18-1.36,3.21-1.89,5-2,2.66-.17,5.25,1.06,7.75,2,2.62.98,4.94,2.63,7.5,3.75,2.37,1.04,4.67,2.55,7.25,2.75,1.61.13,3.49-2.02,4.75-1,.52.42.32,1.41,0,2-.66,1.22-2.12,2.11-3.5,2.25-2.05.2-3.87-1.4-5.75-2.25-2.65-1.2-5.15-2.7-7.75-4-2.73-1.37-5.22-3.63-8.25-4-2.37-.29-5.31-.19-7,1.5-1.99,1.99-2.02,5.45-1.75,8.25.22,2.34,1.14,4.78,2.75,6.5,1.15,1.22,4.5,2.25,4.5,2.25Z"/>
        <path id="path4113-7" class="cls-28" d="M246.67,123.5s-5.33,1.52-8,2.25c-2.5.68-4.91,2.01-7.5,2-2.85,0-5.46-1.67-8.25-2.25-2.31-.48-4.7-1.51-7-1-1.65.36-2.58,2.5-4.25,2.75-2.4.36-4.8-.98-7-2-1.36-.63-3.75-2.5-3.75-2.5,0,0,3.72,1.89,5.75,2,2.64.15,5.11-1.49,7.75-1.75,3.32-.33,6.68-.11,10,.25,2.19.24,4.32.91,6.5,1.25,2.16.33,4.32.91,6.5.75,2.24-.17,4.28-1.46,6.5-1.75.91-.12,2.75,0,2.75,0Z"/>
        <path id="path4115-3" class="cls-20" d="M232.17,114.75s-4.53-2.33-7-2.75c-2.22-.38-4.56-.28-6.75.25-2.5.6-7,3.25-7,3.25"/>
        <path id="path4117-3" class="cls-20" d="M209.67,205s-6.58,4.95-10.25,6.75c-3,1.47-6.16,3.02-9.5,3.25-3.05.21-6.07-.88-9-1.75-2.33-.69-4.4-2.14-6.75-2.75-1.95-.51-6-.75-6-.75"/>
        <path id="path4091-2-5" class="cls-20" d="M171,200.93s5.78-5.02,9.17-6.69c2.41-1.19,5.07-1.99,7.74-2.26,4-.41,8.2-.39,12.03.97,2.3.82,4.23,2.62,6.21,4.19,1.4,1.11,3.99,3.68,3.99,3.68,0,0-4.79,2.66-7.27,3.74-2.49,1.09-4.98,2.34-7.61,2.75-3.83.6-7.79.47-11.55-.45-4.49-1.1-12.71-5.94-12.71-5.94h0Z"/>
        <ellipse id="path4093-4-9-8" class="cls-1" cx="191.36" cy="199.79" rx="9.43" ry="7.28" transform="translate(-15.04 15.58) rotate(-4.49)"/>
        <ellipse id="path4095-5-9" class="cls-3" cx="191.98" cy="201.45" rx="3.42" ry="3.03" transform="translate(-24.78 26.94) rotate(-7.54)"/>
        <path id="path4143-8-3" class="cls-20" d="M245.17,190.25l10.25-9"/>
        <path id="path4145-1" class="cls-20" d="M205.17,187l-10.25-7.5"/>
      </g>
      <path id="path3037-7-45-51-7-1-6" class="cls-35" d="M203.97-21.31c-.32-1.41-1.01-2.96-2.87-3.68-3.36-1.29-6.75.83-8.18,4.57-1,2.61-.7,4.71-.57,7.06.14,2.51.82,4.97,1.44,7.41.79,3.13,2.87,9.25,2.87,9.25,0,0,5.65-3.14,8.33-4.94,2.09-1.4,4.24-2.77,6.03-4.54,1.68-1.66,3.3-3.02,4.31-5.63,1.44-3.73.34-7.58-3.02-8.87-1.87-.72-3.42-.03-4.59.81l-.23-.52,2.18-3.45c1.09-1.72,3.65-5.03,3.65-5.03q-4.02-.69-7.47-2.87s-.31,4.16-.66,6.17q-.34,2.01-.69,4.02l-.52.23Z"/>
      <path id="path3037-7-45-51-7-1-1-6" class="cls-35" d="M180.08,25.57c-.1-1.44-.54-3.08-2.27-4.08-3.12-1.8-6.8-.22-8.79,3.25-1.4,2.43-1.42,4.54-1.66,6.89-.25,2.5.05,5.04.28,7.54.29,3.21,1.41,9.58,1.41,9.58,0,0,6.06-2.23,8.99-3.6,2.28-1.06,4.62-2.08,6.66-3.55,1.91-1.39,3.73-2.47,5.12-4.9,1.99-3.47,1.51-7.44-1.61-9.23-1.73-1-3.37-.56-4.66.09l-.15-.55q1.34-1.53,2.69-3.07c1.34-1.53,4.38-4.4,4.38-4.4q-3.87-1.3-6.93-3.99s-.95,4.07-1.61,6q-.65,1.93-1.3,3.87l-.55.15Z"/>
      <path id="path3037-7-45-51-7-1-1-5-0" class="cls-35" d="M152.1,65.09c.17-1.43.03-3.12-1.49-4.42-2.74-2.33-6.64-1.45-9.24,1.59-1.81,2.13-2.22,4.21-2.88,6.47-.7,2.42-.87,4.96-1.1,7.47-.3,3.21-.36,9.68-.36,9.68,0,0,6.37-1.09,9.49-1.9,2.44-.63,4.92-1.2,7.19-2.28,2.13-1.01,4.12-1.75,5.93-3.88,2.59-3.05,2.84-7.04.1-9.37-1.52-1.3-3.21-1.16-4.6-.76l-.05-.56q1.6-1.26,3.2-2.53c1.6-1.26,5.11-3.53,5.11-3.53q-3.56-1.98-6.09-5.18s-1.68,3.82-2.67,5.61q-.99,1.78-1.98,3.56l-.56.05Z"/>
      <path id="path3037-7-45-51-7-1-1-5-2-3" class="cls-35" d="M461.02,83.66c0,1.44-.35,3.1-2.02,4.21-3.01,1.98-6.77.63-8.97-2.71-1.54-2.34-1.69-4.45-2.07-6.78-.4-2.48-.26-5.03-.18-7.54.1-3.23.83-9.65.83-9.65,0,0,6.19,1.86,9.19,3.04,2.34.92,4.74,1.79,6.86,3.14,1.99,1.27,3.87,2.24,5.41,4.58,2.2,3.34,1.96,7.33-1.05,9.31-1.67,1.1-3.33.76-4.66.2l-.11.55q1.43,1.45,2.87,2.9c1.43,1.45,4.64,4.13,4.64,4.13q-3.78,1.53-6.68,4.4s-1.2-4-1.97-5.89q-.77-1.89-1.53-3.78l-.55-.11Z"/>
      <path id="path3037-7-45-51-7-1-1-5-2-7-8" class="cls-35" d="M439.9,43.53c-.25,1.42-.86,3-2.69,3.81-3.29,1.45-6.78-.5-8.4-4.16-1.13-2.56-.93-4.67-.92-7.03.02-2.52.58-5,1.07-7.47.63-3.16,2.42-9.38,2.42-9.38,0,0,5.79,2.87,8.56,4.53,2.16,1.3,4.37,2.56,6.24,4.24,1.76,1.58,3.45,2.85,4.58,5.41,1.62,3.66.71,7.56-2.58,9.01-1.83.81-3.41.19-4.63-.58l-.2.53q1.17,1.67,2.35,3.34c1.17,1.67,3.89,4.84,3.89,4.84q-3.98.88-7.32,3.23s-.52-4.14-.96-6.14q-.44-1.99-.88-3.98l-.53-.2Z"/>
      <path id="path3037-7-45-51-7-1-1-5-2-7-6-0" class="cls-35" d="M421.94,2.32c-.32,1.41-1.01,2.96-2.88,3.67-3.36,1.29-6.75-.84-8.18-4.58-1-2.61-.7-4.71-.56-7.07.14-2.51.83-4.97,1.45-7.41.79-3.13,2.89-9.24,2.89-9.24,0,0,5.64,3.15,8.32,4.95,2.09,1.4,4.24,2.77,6.02,4.55,1.67,1.67,3.3,3.02,4.3,5.64,1.43,3.74.33,7.58-3.03,8.87-1.87.71-3.42.02-4.59-.81l-.23.52q1.09,1.72,2.18,3.45c1.09,1.72,3.64,5.03,3.64,5.03q-4.02.68-7.47,2.86s-.31-4.16-.65-6.18q-.34-2.01-.68-4.02l-.52-.23Z"/>
      <path id="path3033-6" class="cls-20" d="M454.88,107.08c30.44-11.2,60.27-24.35,88.56-40.19,25.71-14.39,50.76-30.06,73.23-49.51"/>
    </g>
  </g>
  <g class="cls-40">
    <g>
      <path id="path4910" class="cls-7" d="M84.01,461.21l16.61-11.07.46,177.19-12.08-1.28-10.08-2.12,4.84-12.82,1.18-7.78-.92-142.12Z"/>
      <path id="path4613" class="cls-33" d="M409.7,643.28l-1.93-34.16,7.09-45.76,9.95-42.53,10.68-38.02,9.02-24.49,13.53-27.07,10.96-19.33,6.44-13.53,4.51-5.16,5.16.64,5.16-5.8h7.09l39.31,21.91.64,7.73-12.89,17.4-13.53,23.84-14.82,29.64-11.6,34.16-7.73,38.02-3.87,29.64-2.58,25.78-16.66-.08-17.39,5.04-16.22,13.09-10.31,9.02Z"/>
      <path id="path4902" class="cls-33" d="M262.01,506.34l-.96,98.58s5.53,3.19,7.21,5.77c1.36,2.08,1.6,4.75,1.92,7.21.35,2.7,0,8.17,0,8.17,0,0,4.84-3.57,7.69-3.85,2.98-.29,6.11.83,8.66,2.4,2.03,1.25,4.81,5.29,4.81,5.29,0,0,2.89-21.46,2.4-32.22-.53-11.69-2.87-23.29-5.77-34.62-2.65-10.36-6.11-20.58-10.58-30.3-4.27-9.27-15.39-26.45-15.39-26.45Z"/>
      <path id="path4900" class="cls-33" d="M33.11,712.64l-16.45-.48v-197.16l27.51-24.53,31.26-23.08-.48,132.24-12.02,1.92-9.14,9.62,1.26,7.84,6.96,7.84-8.22,8.36-9.14,2.89-6.43,7.96,1.67,12.25-3.89,7.69,1.22,8.66,4.48,2.66-1.22,9.43-.15,7.14,4.33,2.4-.48,7.69-10.1,1.92-.96,6.73Z"/>
      <path id="path4904-1" d="M97.7,809.87l-1.44-83.19,5.77-2.4,9.62,4.81,10.1-4.33,1.92-10.1-6.25-6.73h-11.06l-17.79.96-18.27,4.81-12.98-.96-8.66-6.25v-6.25l6.73.96,11.06-.48,9.14,1.92,14.43-1.44,7.69-1.92,6.25-12.02,1.92-15.87v-15.87l-2.89-12.5-3.85-7.69-7.21-8.17,38.95.96,12.02,7.69,7.69,4.81-2.89,25.01-7.21,42.32-10.1,36.55-9.14,23.08-10.1,20.68-13.46,21.64Z"/>
      <path id="path4906-9" d="M340.54,623.29l-47.63,12.5-2.87,41.84,2.38,37.55,5.31,23.52,7.21,27.89,9.62,25.49,11.06,22.12,10.1,19.72,11.06,16.35,11.06-4.33,6.73.48,10.58-1.44,6.73,3.37,10.58-1.92,5.77,5.77,3.37,4.33,7.69,4.81,4.33,4.81,2.4,6.73,29.33-13.95,27.89-13.46-23.56-14.43-30.3-23.56-24.04-23.08-19.72-22.6-13.46-21.64-12.02-24.53-8.18-32.7-2.4-27.41.96-32.22Z"/>
      <path id="path4613-7" class="cls-33" d="M223.63,617.15l1.93,34.16-7.09,45.76-9.95,42.53-10.68,38.02-9.02,24.49-13.53,27.07-10.96,19.33-6.44,13.53-4.51,5.16-5.16-.64-5.16,5.8h-7.09l-39.31-21.91-.64-7.73,12.89-17.4,13.53-23.84,14.82-29.64,11.6-34.16,7.73-38.02,3.87-29.64,2.58-25.78,16.66.08,17.39-5.04,16.22-13.09,10.31-9.02Z"/>
      <path id="path4498-6" class="cls-5" d="M163.2,645.19c-2.74,33.89-7.46,68-17.57,100.45-7.6,24.39-19.02,47.63-31.99,69.64-4.88,8.28-11.31,15.92-17.11,23.21l.25-23.64c15.03-25.55,28.91-52.5,37.9-80.89,9.51-30.02,12.45-61.76,16.49-93.01,4.01,1.41,8.02,2.83,12.02,4.24h0Z"/>
      <path id="path4578-2" class="cls-2" d="M343.67,852.15l-4.96-.99-78.03-55.87-85.51,53.89-.99,5.45-5.45-1.98-8.92,6.44,16.35-30.72,19.33-41.13,11.4-37.33,8.42-33.04,5.45-30.72,4.36-24.98.1-18.63,6.44,4.96,12.88-1.98-.99,13.88,5.95,9.42,11.89.5,9.91-4.96,1.49-8.42-2.48-9.91,12.39,2.48,7.43-6.44-.99,33.7,1.03,26.35,3.43,22.21,6.61,28.84,7.4,22.43,11.57,31.89,12.58,19.41,14.87,23.29-2.97,1.98Z"/>
      <path id="path4500-9" class="cls-6" d="M158.96,860.2c15.72-27.58,30.31-56.1,40.28-86.22,13.53-40.85,22.34-83.59,25.96-126.47.98-11.58-.32-23.27-1.18-34.86"/>
      <g id="g4369-8">
        <ellipse id="path3862-2" class="cls-8" cx="67.93" cy="612.23" rx="14.32" ry="13.8"/>
        <path id="path3864-2" class="cls-8" d="M72.84,625c3.47-3.28,3.77-5.93,3.58-9.22-.22-3.81-2.59-7.49-5.36-10.11-1.34-1.27-3.22-1.99-5.04-2.31-1.54-.28-3.81-.22-4.68.35"/>
      </g>
      <path id="path3807-9" class="cls-23" d="M123.72,719.05c-.91,4.8-6.99,9.59-10.8,9.91-3.8.32-9.8-5.2-13.73-4.66-7.85,1.08-15.85,1.41-23.6,1.66-10.4.34-21.11,1.74-31.2-.78-6.48-1.62-14.52-3.24-17.9-9-3.1-5.27-3.59-14.04.77-18.33,4.63-4.56,14.18-4.29,19.47-.52,3.51,2.5.48,9.69,3.9,12.32,7.8,6,19.65,1.84,29.48,1.41,7.8-.34,15.4-3.06,23.21-3.14,5.33-.06,11.54-1.27,15.9,1.81,2.81,1.99,5.16,5.92,4.52,9.31h0Z"/>
      <path id="path4902-9" class="cls-33" d="M371.32,754.09l.96-98.58s-5.53-3.19-7.21-5.77c-1.36-2.08-1.6-4.75-1.92-7.21-.35-2.7,0-8.17,0-8.17,0,0-4.84,3.57-7.69,3.85-2.98.29-6.11-.83-8.66-2.4-2.03-1.25-4.81-5.29-4.81-5.29,0,0-2.89,21.46-2.4,32.22.53,11.69,2.87,23.29,5.77,34.62,2.65,10.36,6.11,20.58,10.58,30.3,4.27,9.27,15.39,26.45,15.39,26.45Z"/>
      <g id="g3845-0">
        <path id="path3810-03" class="cls-27" d="M106.01,683.41c-.87,3.78-2.67,7.36-4.78,10.62-1.54,2.38-3.15,5.04-5.66,6.37-2.89,1.53-6.48.92-9.73,1.24-5.06.5-10.29,2.32-15.22,1.06-1.7-.43-2.73-2.38-4.42-2.83-3.54-.94-7.41,1.4-10.97.53-1.59-.39-3.33-1.12-4.25-2.48-.67-.99-.53-3.54-.53-3.54,0,0-5.28,1.41-7.43.18-1.69-.97-2.54-3.2-2.83-5.13-.4-2.62.56-5.35,1.59-7.79.9-2.11,2.26-4.05,3.89-5.66.76-.75,2.65-1.77,2.65-1.77,0,0-5.41,2.71-7.96,1.77-1.66-.61-2.84-2.51-3.19-4.25-.37-1.85.76-3.71,1.42-5.49.93-2.52,1.64-5.35,3.54-7.26,2-2,7.61-3.72,7.61-3.72,0,0-5.44,1.83-7.79.71-1.53-.73-2.51-2.58-2.83-4.25-.45-2.3.3-4.83,1.42-6.9.83-1.54,2.2-2.85,3.72-3.72,1.22-.7,4.07-1.06,4.07-1.06,0,0-5.32-1.63-5.66-3.89-.38-2.53,2.51-4.83,4.78-6.02,4.66-2.45,10.63.16,15.75-1.06,2.93-.7,5.39-2.82,8.32-3.54,4.48-1.09,9.31-2.1,13.8-1.06,3.4.79,6.52,2.88,9.02,5.31,2.95,2.86,4.75,6.75,6.55,10.44,1.83,3.78,3.38,7.75,4.25,11.86,1.18,5.61,1.1,11.43,1.24,17.16.07,2.65-.11,5.31-.18,7.96-.05,2.06.29,4.18-.18,6.19h0Z"/>
        <path id="path3815-9" class="cls-27" d="M51.5,692.97c3.08-4.48,7.95-8.23,13.63-8.12,3.84-.75,7.72,1.46,11.34.49,2.51-1.62,3.71-5.06,6.31-6.68,2.85-1.77,6.92-3.07,9.61-2.96"/>
        <path id="path3817-1" class="cls-27" d="M48.67,673.68c6.32-3.66,11.47-7.22,18.81-7.94,3.21-.04,7.61-.23,9.18,3.23,1.37,2.73.28,6.3-2.54,7.62-4.75,2.76-9.65,7.46-14.83,9.29"/>
        <path id="path3819-8" class="cls-27" d="M69.98,678.63c-3.17-.03-8.59-2.71-9.03-6.35-.44-1.25-.48-2.6-.52-3.92"/>
        <path id="path3821-1" class="cls-27" d="M49.38,655.63c8.07-1.53,14.66-4.3,22.89-3.02,2.83.96,6.69,1.9,7.61,5.15.22,3.14-2.63,5.75-5.28,6.91-1.04.3-4.84.92-5.92,1"/>
        <path id="path3823-9" class="cls-27" d="M67.3,665.33c-3.18-1.55-6.27-6.31-5.26-9.54.09-.53.2-1.05.32-1.58"/>
        <path id="path3825-5" class="cls-27" d="M68.84,699.52c-.82-2.67-2.1-6.24-5.45-6.23-3.97-.22-7.73,1.23-11.18,3.05"/>
        <path id="path3827-32" class="cls-27" d="M68.27,652.09c4.85-.32,7.9-3.49,7.29-6.75-.9-4.82-5.68-5.79-13.67-5.43-4.94-.13-5.87.99-10.81.26-1.1-.09-2.2-.19-3.3-.29"/>
        <path id="path3829-5" class="cls-27" d="M66.37,639.88c3.9-1.37,7.7-5.34,5.02-7.85-1.39-1.76-5.05-2.94-7.14-3.3"/>
        <path id="path3831-2" class="cls-27" d="M63.25,651.56c-2.17-1.68-3.13-3.62-3.22-5.84-.07-1.75,1.74-3.98,2.16-4.78"/>
        <path id="path3833-5" class="cls-27" d="M61.59,639c-2.28-1.48-4.95-4.07-3.24-6.98.31-.83.69-1.63,1.12-2.4"/>
      </g>
      <path id="path4494-3" class="cls-23" d="M79.11,623.43s7.06,18.54,8.13,28.3c.9,8.15-1.49,24.54-1.49,24.54l-10.26,9.05-11.14-2.01s9.44-4.64,11.75-9c.8-1.51,1.03-3.57.3-5.12-.82-1.75-4.66-3.43-4.66-3.43,0,0,4.5-.96,5.95-2.56,1.28-1.41,2.36-3.66,1.72-5.45-1.24-3.48-9.25-6.08-9.25-6.08,0,0,6.03-2.58,5.34-8.07-.6-4.84-11.06-3.36-11.06-3.36,0,0,7.81-1.34,7.2-6.68-.48-4.16-7.78-4.34-7.78-4.34l7.83-2.51,7.43-3.28Z"/>
      <g id="g4555-6">
        <path id="path4515-1" class="cls-12" d="M294.75,724.41l-37.43-24.02-43.91,31.09"/>
        <path id="path4517-4" class="cls-12" d="M289.8,697.53l-31.53-19.34-41.97,29.65"/>
        <path id="path4519-6" class="cls-12" d="M289.8,676.31l-16.97-15.56"/>
        <path id="path4521-2" class="cls-12" d="M244.97,661.27l-23.47,21.33"/>
        <path id="path4523-9" class="cls-12" d="M226.15,656.51l11.78-9.85"/>
      </g>
      <path id="path4539-0" class="cls-29" d="M345.95,847.53s-14.86-20.67-20.79-31.89c-7.75-14.67-13.73-30.27-19.1-45.97-4.66-13.64-8.55-27.59-11.32-41.73-2.24-11.42-3.54-23.04-4.24-34.66-.63-10.35-.13-20.75,0-31.12.12-9.67.71-29,.71-29M342.14,623.98s-2.2,19.78-2.12,29.71c.08,10.89.75,21.85,2.83,32.53,2.3,11.86,5.92,23.52,10.61,34.66,5.53,13.13,12.46,25.74,20.51,37.49,5.58,8.14,12.47,15.31,19.1,22.63,7.5,8.28,15.04,16.57,23.34,24.05,6.24,5.62,13.13,10.47,19.8,15.56,6.3,4.81,12.54,9.7,19.1,14.15,4.5,3.05,13.87,8.58,13.87,8.58"/>
      <path id="path4541-7" class="cls-12" d="M372.52,754.94l.04-99.84"/>
      <path id="path4755-8-3" class="cls-34" d="M399.37,689.74l10.85-36.72s-3.08,2.74-4.89,2.5c-1.53-.2-2.61-1.8-3.46-3.1-1.73-2.64-2.97-9-2.97-9,0,0-.6,5.61-2.03,7.93-.83,1.34-2.01,2.88-3.57,3.1-1.44.2-3.94-1.85-3.94-1.85l10.01,37.14Z"/>
      <path id="path4541" class="cls-12" d="M260.82,505.49l-.04,99.84"/>
      <path id="path3037-5-8-6-2" class="cls-35" d="M184.91,676.77c-1.14-1.8-2.95-3.68-6.26-4.05-5.96-.66-10.43,3.31-11.04,8.84-.61,5.52,2.81,10.94,8.78,11.6,3.31.37,4.1-.66,6.27-2.1l.6.63c-2.17,1.44-7.36,5.89-7.79,9.76-.49,4.42,3.54,10.46,8.84,11.04,5.3.59,10.55-4.42,11.04-8.84.43-3.87-3.66-9.35-5.46-11.23l.72-.48c1.8,1.88,2.34,3.06,5.66,3.42,5.96.66,10.49-3.87,11.11-9.39.61-5.52-2.87-10.38-8.84-11.04-3.31-.37-5.49,1.07-7,2.58l-.6-.63c1.03-3.24.97-2.69,1.94-5.38.97-2.69,3.57-7.99,3.57-7.99q-6.75.37-13.25-1.47s1.38,5.74,1.73,8.58c.36,2.84.42,2.28.71,5.67l-.72.48Z"/>
      <g id="g4749-7">
        <path id="path4732-3" class="cls-33" d="M361.23,799.33s-6.82-.54-8.76-2.92c-2.21-2.71-2.17-7.05-1.25-10.43.96-3.54,3.39-7.13,6.68-8.76,2.99-1.48,6.79-.88,10.01,0,4.21,1.15,8.49,3.31,11.27,6.68,2.35,2.85,3.28,6.77,3.76,10.43.41,3.18.25,6.58-.83,9.6-1.49,4.14-4.01,8.19-7.51,10.85-3.05,2.31-7.1,3.01-10.85,3.76-4.51.9-9.26,1.76-13.77.83-5.18-1.06-10.22-3.59-14.19-7.09-5.26-4.65-9.06-11.01-11.68-17.52-2.06-5.11-2.3-10.8-2.92-16.27-.63-5.53-.93-11.12-.83-16.69.11-6.7,1.26-13.34,1.67-20.03.21-3.47,1.05-7.01.42-10.43-.38-2.08-1.08-4.27-2.5-5.84-.96-1.06-2.33-2.24-3.76-2.09-1.47.16-2.86,1.52-3.34,2.92-.46,1.34.83,4.17.83,4.17,0,0-4.23-3.09-5.01-5.42-.89-2.65-.69-6,.83-8.35,1.22-1.88,3.62-3.07,5.84-3.34,2.01-.24,4.08.67,5.84,1.67,2.48,1.4,6.26,5.84,6.26,5.84,0,0,1.75-12.21,1.67-18.36-.06-4.76-.5-9.57-1.67-14.19-.92-3.63-2.11-7.31-4.17-10.43-1.08-1.64-2.36-3.42-4.17-4.17-1.93-.8-6.26,0-6.26,0,0,0,4.28,2.52,5.42,4.59.95,1.72,1.36,3.95.83,5.84-.53,1.9-2.03,3.63-3.76,4.59-1.96,1.08-4.54,1.53-6.68.83-2.71-.88-4.91-3.33-6.26-5.84-1.6-2.98-2.47-6.73-1.67-10.01.49-2.03,2.09-3.75,3.76-5.01,3.09-2.34,6.98-4.06,10.85-4.17,3.65-.1,7.44,1.24,10.43,3.34,3.17,2.22,5.43,5.69,7.09,9.18,2.34,4.9,3.35,10.44,3.76,15.86.52,6.82-.72,13.67-1.67,20.45-.69,4.92-2.29,9.68-2.92,14.6-.32,2.49-.25,5.01-.42,7.51-.24,3.62-.83,10.85-.83,10.85,0,0,6.24-5,10.01-5.42,3.59-.4,7.7.56,10.43,2.92,3.11,2.69,4.68,7.17,5.01,11.27.22,2.72-.55,5.67-2.09,7.93-1.46,2.14-3.8,3.78-6.26,4.59-1.72.56-3.82.83-5.42,0-1.06-.55-2.09-2.92-2.09-2.92,0,0,3-1.21,3.76-2.5.92-1.56.8-3.65.42-5.42-.37-1.7-1-3.7-2.5-4.59-1.79-1.06-4.3-.71-6.26,0-3.06,1.11-5.99,3.38-7.51,6.26-1.37,2.59-.74,5.83-.83,8.76-.15,4.59-.21,9.22.42,13.77.63,4.54,1.32,9.23,3.34,13.35,1.78,3.65,4.48,6.89,7.51,9.6,3.17,2.83,6.83,5.31,10.85,6.68,3.84,1.3,8.11,1.98,12.1,1.25,2.45-.45,4.75-1.77,6.68-3.34,1.92-1.57,3.68-3.54,4.59-5.84,1.13-2.86,1.72-6.24.83-9.18-.77-2.56-2.6-5.1-5.01-6.26-2.26-1.08-5.45-1.42-7.51,0-1.6,1.1-2.02,3.49-2.09,5.42-.08,2.33,2.09,6.68,2.09,6.68h0Z"/>
        <ellipse id="path4736-3" class="cls-33" cx="313.46" cy="648.7" rx="10.48" ry="10.52"/>
      </g>
      <g id="g4878-5">
        <ellipse id="path4549-3" class="cls-30" cx="462.73" cy="674.9" rx="59.76" ry="60.83"/>
        <circle id="path4623-2" class="cls-33" cx="420.64" cy="672.67" r="5" transform="translate(-310.27 981.19) rotate(-80.87)"/>
        <circle id="path4623-8-2" class="cls-33" cx="462.89" cy="678" r="5" transform="translate(-279.99 1027.39) rotate(-80.87)"/>
        <circle id="path4623-6-2" class="cls-33" cx="441.72" cy="676.41" r="5" transform="translate(-296.24 1005.16) rotate(-80.87)"/>
        <circle id="path4623-5-6" class="cls-33" cx="463.22" cy="699.48" r="5" transform="translate(-300.92 1045.79) rotate(-80.87)"/>
        <circle id="path4623-9-0" class="cls-33" cx="485.71" cy="675.98" r="5" transform="translate(-258.8 1048.23) rotate(-80.87)"/>
        <path id="path4857-0" class="cls-22" d="M450.47,731.36l-.67-41.62s-17.54-.91-26.18-2.35c-5.57-.93-16.45-4.03-16.45-4.03"/>
        <path id="path4859-3" class="cls-22" d="M441.74,728.68l-.67-31.21s-12.15-.87-18.12-2.01c-5.01-.96-14.77-4.03-14.77-4.03"/>
        <path id="path4861-4" class="cls-22" d="M474.97,730.02l1.34-41.28s14.84-.81,22.15-2.01c6.59-1.09,19.47-4.7,19.47-4.7"/>
        <path id="path4863-0" class="cls-22" d="M483.36,728l1.34-31.88s11.9-1.29,17.79-2.35c4.97-.89,14.77-3.36,14.77-3.36"/>
        <path id="path4865-0" class="cls-22" d="M515.92,653.5c-12.21,4.74-26.45,8.41-40.16,9.61-12.1,1.05-24.35-.47-36.37-2.22-9.77-1.42-25.08-5.42-28.86-6.71"/>
        <path id="path4868-5" class="cls-4" d="M503.38,642.49c-2.55,1.95-6.7-.91-9.18-2.95-3.09-2.54-3.51-7.23-5.8-10.5-2.21-3.16-7.61-8.73-7.61-8.73,0,0,10.69,4.79,15.21,8.41,2.8,2.25,5.79,4.74,7.13,8.07.71,1.76,1.76,4.54.25,5.69Z"/>
        <path id="path4870-3" class="cls-2" d="M472.04,621.05s5.61,5.63,8.19,8.65c1.62,1.89,3.61,3.62,4.55,5.92.93,2.26,1.43,4.89.91,7.28-.34,1.56-1.09,3.35-2.5,4.1-1.34.71-3.36.71-4.55-.23-1.87-1.47-1.55-4.51-2.05-6.83-.48-2.25-.45-4.58-.91-6.83-.51-2.47-1.31-4.87-2.05-7.28-.49-1.61-1.59-4.78-1.59-4.78h0Z"/>
        <path id="path4872-1" class="cls-2" d="M464.76,620.59s2.21,8.45,2.96,12.75c.56,3.24,1.86,6.58,1.14,9.79-.54,2.36-1.85,4.81-3.87,6.15-1.22.8-2.96,1.21-4.32.68-1.46-.56-2.46-2.16-2.96-3.64-.8-2.37-.13-5.03.23-7.51.51-3.57,1.42-7.11,2.73-10.47,1.06-2.72,4.1-7.74,4.1-7.74Z"/>
        <path id="path4874-0" class="cls-2" d="M456.56,621.27s-4.36,7.4-5.92,11.38c-1.15,2.93-1.38,6.17-2.5,9.11-.61,1.58-.99,3.44-2.28,4.55-1.27,1.1-3.25,2.28-4.78,1.59-1.21-.54-1.44-2.33-1.59-3.64-.28-2.45.36-5.03,1.37-7.28,1.17-2.62,3.34-4.67,5.24-6.83,1.7-1.94,3.48-3.82,5.46-5.46,1.56-1.29,5.01-3.41,5.01-3.41Z"/>
        <path id="path4876-6" class="cls-2" d="M444.73,620.59s-4.25,4.49-6.15,6.89c-1.9,2.41-3.77,4.87-5.24,7.52-1.33,2.4-.91,5.82-3.19,7.52-1.07.8-2.82,1.12-4.1.63-1.46-.56-2.46-2.12-2.73-3.55-.39-2.06.67-4.25,1.82-6.06,1.62-2.55,4.27-4.47,6.83-6.27,1.81-1.27,3.94-2.1,5.92-3.13,2.27-1.19,6.83-3.55,6.83-3.55Z"/>
      </g>
      <path id="path4908" d="M315.73,397.26l57.76,40.87,46.59-28.61,11.71,4.63,8.17-1.63,6.27-3,2.72,2.18,8.17-.27-83.37,51.76-77.1-54.76,5.99-4.36,1.09-2.45,5.18,2.18,4.36-2.18,2.45-4.36Z"/>
      <path id="path4505" class="cls-33" d="M316.65,398.11l57.29,40.31,48.09-29.71-6.6-4.91-9.54-10.35-.54,12.53-5.72,8.72-7.08,6.81-10.9,2.72-17.71.54-17.98-9.26-13.35-14.44-7.9-12.26-5.99-10.08-1.36,11.71-.71,7.65Z"/>
      <path id="path4904" d="M535.64,450.56l1.44,83.19-5.77,2.4-9.62-4.81-10.1,4.33-1.92,10.1,6.25,6.73h11.06l17.79-.96,18.27-4.81,12.98.96,8.66,6.25v6.25l-6.73-.96-11.06.48-9.14-1.92-14.43,1.44-7.69,1.92-6.25,12.02-1.92,15.87v15.87l2.89,12.5,3.85,7.69,7.21,8.17-38.95-.96-12.02-7.69-7.69-4.81,2.89-25.01,7.21-42.32,10.1-36.55,9.14-23.08,10.1-20.68,13.46-21.64Z"/>
      <path id="path4906" d="M292.79,637.14l47.63-12.5,2.87-41.84-2.38-37.55-5.31-23.52-7.21-27.89-9.62-25.49-11.06-22.12-10.1-19.72-11.06-16.35-11.06,4.33-6.73-.48-10.58,1.44-6.73-3.37-10.58,1.92-5.77-5.77-3.37-4.33-7.69-4.81-4.33-4.81-2.4-6.73-29.33,13.95-27.89,13.46,23.56,14.43,30.3,23.56,24.04,23.08,19.72,22.6,13.46,21.64,12.02,24.53,8.18,32.7,2.4,27.41-.96,32.22Z"/>
      <path id="path4498" class="cls-5" d="M470.13,615.24c2.74-33.89,7.46-68,17.57-100.45,7.6-24.39,19.02-47.63,31.99-69.64,4.88-8.28,11.31-15.92,17.11-23.21l-.25,23.64c-15.03,25.55-28.91,52.5-37.9,80.89-9.51,30.02-12.45,61.76-16.49,93.01-4.01-1.41-8.02-2.83-12.02-4.24h0Z"/>
      <path id="path4578" class="cls-2" d="M289.67,408.28l4.96.99,78.03,55.87,85.51-53.89.99-5.45,5.45,1.98,8.92-6.44-16.35,30.72-19.33,41.13-11.4,37.33-8.42,33.04-5.45,30.72-4.36,24.98-.1,18.63-6.44-4.96-12.88,1.98.99-13.88-5.95-9.42-11.89-.5-9.91,4.96-1.49,8.42,2.48,9.91-12.39-2.48-7.43,6.44.99-33.7-1.03-26.35-3.43-22.21-6.61-28.84-7.4-22.43-11.57-31.89-12.58-19.41-14.87-23.29,2.97-1.98Z"/>
      <path id="path4500" class="cls-6" d="M474.38,400.23c-15.72,27.58-30.31,56.1-40.28,86.22-13.53,40.85-22.34,83.59-25.96,126.47-.98,11.58.32,23.27,1.18,34.86"/>
      <path id="path3805" class="cls-20" d="M496.9,388.61l19.97,10.44,19.92,10.98"/>
      <path id="path3033" class="cls-20" d="M216.48,387.86c-36.09,15.71-74.38,35.49-108.99,57.66-32.09,20.54-64.19,42.13-90.83,69.4"/>
      <path id="path4755-4" class="cls-34" d="M119.85,512.63l-10.85,36.72s3.08-2.74,4.89-2.5c1.53.2,2.61,1.8,3.46,3.1,1.73,2.64,2.97,9,2.97,9,0,0,.6-5.61,2.03-7.93.83-1.34,2.01-2.88,3.57-3.1,1.44-.2,3.94,1.85,3.94,1.85l-10.01-37.14Z"/>
      <g id="g4147-2">
        <path id="path4087-7" class="cls-20" d="M332.79,258.92c.59-1.58,8.9-2.37,13.42-3.01,5.44-.78,10.98-1.73,16.42-1.04,6.11.77,12.29,2.5,17.72,5.75,2.47,1.47,6.44,6.05,6.44,6.05,0,0-11.12-6.43-17.12-8.18-4.63-1.34-9.49-1.72-14.28-1.67-4.68.04-9.29,1.52-13.96,1.89-2.88.23-9.77,3.23-8.64.21h0Z"/>
        <path id="path4089-9" class="cls-20" d="M332.47,279.82s3.36-2.81,5.15-4.06c2.89-2.01,5.8-4.07,9.01-5.49,2.56-1.13,5.27-2.06,8.05-2.35,3.55-.37,7.22-.1,10.67.81,4.67,1.24,8.97,3.7,13.1,6.21,2.71,1.65,5.2,3.66,7.59,5.76,1.11.98,3.12,3.16,3.12,3.16,0,0-7.19,1.05-10.67.34-5.36-1.1-9.59-5.55-14.88-6.94-3.32-.87-6.84-1.08-10.26-.81-3.34.26-6.49,1.71-9.78,2.35-1.2.23-2.42.4-3.64.53-2.47.26-7.44.5-7.44.5Z"/>
        <path id="path4091-5" class="cls-20" d="M378.58,285.61s-6.41,6-10.4,7.56c-2.87,1.12-6.1,1.02-9.18,1.08-3.8.07-7.74.24-11.37-.88-3.47-1.08-6.47-3.36-9.43-5.46-1.61-1.14-4.49-3.86-4.49-3.86,0,0,5.54-2.46,8.41-3.44,2.87-.98,5.76-2.13,8.78-2.43,4.4-.44,8.94-.13,13.23.95,5.12,1.29,14.45,6.48,14.45,6.48Z"/>
        <ellipse id="path4093-43" class="cls-14" cx="355.23" cy="285.88" rx="10.8" ry="7.29"/>
        <ellipse id="path4095-1" class="cls-28" cx="354.55" cy="284.19" rx="3.92" ry="3.04"/>
        <path id="path4097-2" class="cls-28" d="M259.46,265.45s3.71-2.13,6.24-5.79c2.3-3.33,6.67-4.88,10.55-6.03,3.25-.96,6.82-1.21,10.15-.59,3.87.72,7.33,2.93,10.74,4.88,2.03,1.16,4.19,2.28,5.75,4.02,1.76,1.96,3.82,6.93,3.82,6.93-1.72-4.43-5.8-7.24-9.75-9.46-3.01-1.69-6.61-2.06-10.02-2.58-4.05-.62-8.3-1.63-12.27-.63-5.76,1.45-15.22,9.24-15.22,9.24h0Z"/>
        <path id="path4099-3" class="cls-20" d="M306.93,271.35c-.03,4.3-.08,9.76-.87,14.56-.87,5.22-3.09,10.14-4.21,15.31-.97,4.46-1.31,9.04-2.19,13.52-.4,2.02-1.33,3.96-1.39,6.02-.06,2.12-.13,4.52,1.08,6.27,2.4,3.47,7.62,3.76,10.91,6.39,1.46,1.17,2.63,2.67,3.84,4.11"/>
        <path id="path4103-3" class="cls-28" d="M334.68,313.21c2.3-.68,5.62,2.13,6.85,4.03,1.61,2.48.26,6.66-1.93,8.64-2.95,2.67-7.96,2.2-11.86,1.41-3.26-.66-5.46-4.04-8.65-4.96-1.93-.56-4.37-1.39-6.03-.25-.98.67-1.74,2.34-1.15,3.38.83,1.47,3.29.82,4.96,1.05,2.3.32,4.68,0,6.95.49,2.58.54,4.81,2.66,7.44,2.67,2.99.02,6.53-.66,8.47-2.93,2.09-2.45,3.04-6.59,1.7-9.53-1.09-2.37-6.75-3.99-6.75-3.99h0Z"/>
        <path id="path4106-4" class="cls-28" d="M356.81,331.74s4.91-2.21,7.47-1.99c1.3.11,2.71.62,3.61,1.66,1.52,1.76,2.2,4.41,2.18,6.82-.01,2.57-.65,5.53-2.4,7.27-2.76,2.74-7.11,3.21-10.85,3.07-3.61-.14-6.88-2.37-10.26-3.77-2.28-.94-4.39-2.36-6.73-3.11-2.59-.83-5.29-1.7-7.99-1.48-1.65.14-4.37-.04-4.71,1.72-.26,1.33,1.59,2.29,2.77,2.74,3.19,1.21,6.75-1.11,10.11-.74,3.67.41,7.06,2.42,10.67,3.22,3.39.76,6.9,2.2,10.3,1.5,2.8-.57,5.67-2.12,7.49-4.5,1.23-1.61,1.86-3.86,1.82-5.95-.04-2.16-.73-4.52-2.12-6.07-1.75-1.95-4.46-3.25-6.96-3.08-1.68.11-4.4,2.69-4.4,2.69Z"/>
        <path id="path4110-1" class="cls-28" d="M284.07,331.43s-4.7,1.62-6.17,3.46c-1.29,1.61-1.68,3.86-1.78,5.92-.14,2.83-.14,6.11,1.61,8.34,1.11,1.41,3.12,2.03,4.9,2.23,2.65.3,5.3-.82,7.84-1.63,2.66-.86,5.06-2.39,7.67-3.39,2.41-.93,4.79-2.33,7.37-2.41,1.62-.05,3.4,2.18,4.7,1.22.54-.4.39-1.4.09-2-.61-1.25-2.02-2.21-3.39-2.41-2.04-.3-3.94,1.22-5.85,1.98-2.7,1.07-5.27,2.45-7.93,3.63-2.8,1.24-5.38,3.38-8.43,3.61-2.38.17-5.32-.06-6.92-1.83-1.89-2.08-1.76-5.54-1.36-8.33.33-2.33,1.36-4.73,3.05-6.36,1.2-1.17,4.6-2.04,4.6-2.04h0Z"/>
        <path id="path4113-1" class="cls-28" d="M340.73,358.02s-4.9,1.52-7.35,2.25c-2.29.68-4.5,2.03-6.9,2-2.45-.03-4.61-1.7-7.01-2.19-1.21-.25-2.45-.48-3.68-.37-2.5.22-4.73,2.09-7.23,2.06-2.25-.03-4.41-.98-6.44-2-1.25-.63-3.45-2.5-3.45-2.5,0,0,3.42,1.89,5.29,2,2.43.15,4.7-1.49,7.13-1.75,3.05-.33,6.15-.11,9.19.25,2.02.24,3.97.92,5.98,1.25,1.98.33,3.98.91,5.98.75,2.06-.17,3.93-1.46,5.98-1.75.84-.12,2.53,0,2.53,0h0Z"/>
        <path id="path4117-7" class="cls-20" d="M304.34,278.76s-6.58-4.95-10.25-6.75c-3.01-1.47-6.18-2.87-9.5-3.25-3.13-.36-6.31.34-9.4.95-2.24.44-4.55.86-6.55,1.95-2.23,1.22-5.8,4.96-5.8,4.96"/>
        <path id="path4091-2-4" class="cls-20" d="M263.61,284.48s6.16,5.53,9.84,7.28c2.72,1.3,5.74,2.12,8.75,2.26,3.95.18,7.96-.66,11.72-1.93,2.37-.8,4.5-2.17,6.64-3.53,1.52-.96,4.37-3.26,4.37-3.26,0,0-4.46-3.2-6.81-4.56-2.35-1.37-4.69-2.9-7.25-3.61-3.74-1.03-7.76-1.6-11.53-.82-5.77,1.2-15.72,8.17-15.72,8.17h0Z"/>
        <ellipse id="path4093-4-2" class="cls-10" cx="286.14" cy="284.26" rx="7.36" ry="9.43" transform="translate(-47.58 510.79) rotate(-78.98)"/>
        <ellipse id="path4095-5-7" class="cls-25" cx="286.94" cy="282.66" rx="3.06" ry="3.42" transform="translate(-59 488.96) rotate(-75.38)"/>
        <path id="path4143-7" class="cls-20" d="M339.85,293.52l10.25,9"/>
        <path id="path4145-9" class="cls-20" d="M299.84,296.77l-10.25,7.5"/>
      </g>
      <path id="path4421" class="cls-20" d="M258.3,246.7l.13,11.59,2.61,19.64,1,15.03-.4,19.64,1.4,15.63,4.21,21.24,2.94,15.79-.34,9.25"/>
      <path id="path4423" class="cls-20" d="M261.03,280.74s-.81,4.7-1.87,6.79c-1.36,2.67-3.22,5.22-5.62,7.02-2.43,1.83-5.39,3.67-8.43,3.51-3.1-.16-6.43-1.89-8.19-4.45-1.65-2.4-1.72-5.8-1.17-8.66.51-2.64,1.68-5.63,3.98-7.02,1.8-1.1,4.37-1.04,6.32-.23,1.38.57,2.43,1.92,3.04,3.28.65,1.43.47,4.68.47,4.68,0,0,2.62-4.24,3.51-6.56,1.16-3,1.76-6.2,2.34-9.37.47-2.55.49-5.17.94-7.73.42-2.44,1.64-7.26,1.64-7.26"/>
      <path id="path4425" class="cls-20" d="M261.73,296.19s-1.28,8.85-2.58,13.11c-1.23,4.05-2.75,8.07-4.92,11.71-1.34,2.24-2.87,4.47-4.92,6.09-2.58,2.03-8.9,4.21-8.9,4.21,0,0,4.96-3.61,5.15-6.32.14-2.1-1.56-4.17-3.28-5.39-1.82-1.29-4.34-1.73-6.56-1.4-2.56.38-5.14,1.75-6.79,3.75-1.77,2.15-2.61,5.17-2.58,7.96.04,2.81.99,5.81,2.81,7.96,2.31,2.72,5.85,4.59,9.37,5.15,3.76.6,7.8-.47,11.24-2.11,3.05-1.45,5.69-3.86,7.73-6.56,2.38-3.15,4.92-10.77,4.92-10.77"/>
      <g id="g4451">
        <path id="path4427" class="cls-20" d="M389,390.78c6.69-1.47,7.5,8.16,4.99,11.5-2.92,3.89-11.46,1.98-14.49-1.84-4.05-5.1-2.87-15.11,2-19.43,4.29-3.8,12.32-2.72,17.18.3,4.45,2.77,7.04,8.74,7.18,13.97.24,8.55-3.25,18.79-10.43,23.43-12.45,8.03-32.01,7.8-44.44-.25-10.62-6.88-15.72-15.3-22.03-24.2-3.51-4.95-7.57-13.72-8.65-16.03"/>
        <path id="path4430" class="cls-20" d="M330.68,378.4c3.04,6.72,6.8,12.68,11.84,17.65,6.6,6.51,14.41,12.59,23.32,15.17,6.88,1.99,14.82,2.31,21.5-.28,2.72-1.06,5.38-4.82,6.55-5.82"/>
        <path id="path4432" class="cls-20" d="M339.81,377.75c4.42,6.42,10.34,14.4,17.69,18.94,7.18,3.29,14.59,6.53,21.73,4.84"/>
        <path id="path4434" class="cls-20" d="M349.25,373.84c3.31,5.68,7.54,11.11,12.97,14.76,4.02,2.71,9,3.71,13.75,4.78"/>
        <path id="path4436" class="cls-20" d="M358.05,368.95c3.88,4.46,7.16,8.27,11.64,11.3,2.49,1.69,6.12,2.85,8.24,3.69"/>
        <path id="path4438" class="cls-20" d="M365.22,362.44c3.21,4.7,7.12,9.09,11.84,12.27,2.49,1.68,6.52,2.53,8.36,3.37"/>
        <path id="path4440" class="cls-20" d="M373.04,356.25c4.19,5.85,7.41,8.97,11.88,12.64,4.01,3.29,11.94,7.12,13.21,8.22"/>
        <path id="path4442" class="cls-20" d="M381.18,349.73c2.4,4.69,5.69,8.93,9.41,12.64,1.45,1.44,3.24,2.48,4.92,3.65"/>
      </g>
      <g id="g4555">
        <path id="path4507" class="cls-12" d="M295.44,408.71l77.8,55.17,100.42-62.9"/>
        <path id="path4509" class="cls-12" d="M311,446.91l62.24,44.56,79.92-50.92"/>
        <path id="path4511" class="cls-12" d="M322.58,478.57l49.94,35.53,66.48-43.14"/>
        <path id="path4513" class="cls-12" d="M332.92,507.03l41.02,30.41,54.46-36.78"/>
        <path id="path4515" class="cls-12" d="M338.58,536.02l37.43,24.02,43.91-31.09"/>
        <path id="path4517" class="cls-12" d="M343.53,562.9l31.53,19.34,41.97-29.65"/>
        <path id="path4519" class="cls-12" d="M343.53,584.12l16.97,15.56"/>
        <path id="path4521" class="cls-12" d="M388.36,599.16l23.47-21.33"/>
        <path id="path4523" class="cls-12" d="M407.18,603.92l-11.78,9.85"/>
        <path id="path4525" class="cls-12" d="M306.75,418.62v21.22"/>
        <path id="path4527" class="cls-12" d="M329.38,433.99v24.94"/>
        <path id="path4529" class="cls-12" d="M351.03,449.38l.28,24.4"/>
        <path id="path4531" class="cls-12" d="M372.53,464.59l.71,26.17"/>
        <path id="path4533" class="cls-12" d="M396.58,450.44l.57,24.61"/>
        <path id="path4535" class="cls-12" d="M419.92,434.88v24.75"/>
        <path id="path4537" class="cls-12" d="M443.61,420.38l-.36,25.82"/>
      </g>
      <g id="g4580">
        <path id="path4075-1" class="cls-20" d="M395.67,238.39c4.61,22.99,8.31,79.41,9.55,100.55,1.47,19.47,3.64,36.77,12.25,49.6,2.06,6.16,7.49,10.6,14.46,10.57,7.64.68,11.67-17.07-2.72-17.18"/>
        <path id="path4078-7" class="cls-20" d="M383.4,236.68c7.94,34.36,7.97,92.88,12.88,125.28,2.76,18.22,10.72,39.33,26.9,47.89,7.16,3.79,18.79,3.94,24.2-2.08,6.5-7.25,5.45-21.63-.66-29.21-5.3-6.58-17.22-10.01-24.63-5.95-4.59,2.52-5.49,9.72-5.09,14.87"/>
        <path id="path4079" class="cls-20" d="M407.54,239.23c6.71,29.2,6.06,36.65,7.1,67.87.34,10.18.46,29.56,3.39,43.96,1.31,6.42,3.67,15.27,6.28,18.62"/>
        <path id="path4079-4" class="cls-20" d="M418.46,242.4c6.71,29.2,6.06,36.65,7.1,67.87.34,10.18-.21,25.34,2.44,37.63,1.57,7.26,5.26,17.49,7.87,20.84"/>
        <path id="path4079-4-0" class="cls-20" d="M427.96,243.82c6.71,27.95,6.06,35.09,7.1,64.98.34,9.75-.21,24.26,2.44,36.03,1.57,6.95,5.26,16.74,7.87,19.95"/>
        <path id="path4079-4-0-9" class="cls-20" d="M439.04,245.88c6.22,26.49,5.62,33.25,6.59,61.58.31,9.24-.2,22.99,2.27,34.14,1.45,6.58,4.87,15.86,7.29,18.91"/>
        <path id="path4079-4-0-9-4" class="cls-20" d="M449.49,247.46c6.22,24.81,5.62,31.14,6.59,57.66.31,8.65-.2,21.53,2.27,31.97,1.45,6.17,4.87,14.86,7.29,17.71"/>
        <path id="path4156-8" class="cls-20" d="M447.16,367.07c1.1-2.25,2.96-4.91,5.48-5.19,4.98-.56,9.94,3.62,12.92,7.59,4.99,6.65,6.9,15.87,6,24.09-.51,4.61-2.44,9.79-6.22,12.51-1.54,1.11-3.26,1.91-5.64.78"/>
        <path id="path4156-8-8" class="cls-20" d="M457.91,362.66c.63-2.21,1.81-4.89,3.8-5.4,3.93-1.01,8.37,2.43,11.21,5.87,4.75,5.75,7.32,14.21,7.53,22,.12,4.38-.84,9.41-3.56,12.33-1.11,1.19-2.4,2.1-4.43,1.27"/>
        <path id="path4156-8-8-2" class="cls-20" d="M467.5,357.76c.63-2.21,1.81-4.89,3.8-5.4,3.93-1.01,8.37,2.43,11.21,5.87,4.75,5.75,7.32,14.21,7.53,22,.12,4.38-.84,9.41-3.56,12.33-1.11,1.19-2.4,2.1-4.43,1.27"/>
        <path id="path4156-8-8-4" class="cls-20" d="M478.17,354.29c.66-2.14,1.88-4.71,3.87-5.18,3.94-.93,8.34,2.47,11.13,5.84,4.67,5.64,7.12,13.88,7.23,21.44.06,4.25-.49,9.3-3.73,11.91-1.66,1.33-4.33,1.37-6.35.54"/>
        <path id="path4156" class="cls-20" d="M436.35,371.43c1.1-2.25,2.96-4.91,5.48-5.19,4.98-.56,9.94,3.62,12.92,7.59,4.99,6.65,6.9,15.87,6,24.09-.51,4.61-2.09,10.26-6.22,12.51-2.3,1.26-5.48.32-7.86-.81"/>
      </g>
      <g id="g4601">
        <path id="path4075" class="cls-20" d="M267.63,361.26c-4.76,12.5-10.78,16.62-20.29,22.59-3.58,5.42-10.12,10.75-14.54,7.55-3.92-2.84-4.72-13.32,2.34-14.33"/>
        <path id="path4078" class="cls-20" d="M269.62,373.6c-4.56,16.19-17.46,28.11-31.9,29.68-7.46.81-16.89-4.35-19.41-11.42-3.07-8.63.18-21.77,9.56-25.78,5.85-2.5,13.13-.16,17.21,4.1,3.67,3.84,2.71,12.61,2.97,15.66"/>
        <path id="path4081" class="cls-20" d="M280.68,374.24c-4.92,13.57-16.8,36.14-33.75,38.97-6.04,1.01-12.57-3.75-15.88-9.24"/>
        <path id="path4081-2" class="cls-20" d="M289.87,376.63c-5.2,13.62-6.93,27.08-17.54,34.32-5.87,4.01-16.15,5.22-21.22,2.11"/>
        <path id="path4081-2-4" class="cls-20" d="M299.59,377.78c-3.5,12.48-4.73,23.97-13.38,31.32-4.6,3.91-12.45,7.33-17.59,4.35"/>
        <path id="path4081-2-4-5" class="cls-20" d="M308.51,377.74c-1.86,9.49-1.53,20.79-8.41,27.42-2.39,2.31-5.61,5.64-9.64,2.56"/>
        <path id="path4081-2-4-5-5" class="cls-20" d="M318.51,377.77c-1.95,8.44-.94,11.7-3.71,19.98-1.14,3.4-5.77,7.47-9.66,4.69"/>
        <path id="path3268" class="cls-20" d="M237.14,362.89c1.71-1.51,3.82-3.11,6.11-3.11,3.79,0,7.69,2.25,10.14,5.14,2.43,2.88,2.88,7.05,3.37,10.8"/>
        <path id="path3268-1" class="cls-20" d="M248.28,359.95c1.22-.94,2.73-1.93,4.36-1.93,2.71,0,5.49,1.4,7.24,3.19,1.74,1.79,2.06,4.38,2.41,6.7"/>
        <path id="path4059" class="cls-20" d="M256.46,357.73s2.75-2.82,4.57-3.1c1.68-.25,4.87,1.47,4.87,1.47"/>
      </g>
      <path id="path4539" class="cls-29" d="M287.38,412.9s14.86,20.67,20.79,31.89c7.75,14.67,13.73,30.27,19.1,45.97,4.66,13.64,8.55,27.59,11.32,41.73,2.24,11.42,3.54,23.04,4.24,34.66.63,10.35.13,20.75,0,31.12-.12,9.67-.71,29-.71,29M291.19,636.46s2.2-19.78,2.12-29.71c-.08-10.89-.75-21.85-2.83-32.53-2.3-11.86-5.92-23.52-10.61-34.66-5.53-13.13-12.46-25.74-20.51-37.49-5.58-8.14-12.47-15.31-19.1-22.63-7.5-8.28-15.04-16.57-23.34-24.05-6.24-5.62-13.13-10.47-19.8-15.56-6.3-4.81-12.54-9.7-19.1-14.15-4.5-3.05-13.87-8.58-13.87-8.58"/>
      <path id="path4543" class="cls-20" d="M101.18,450.01l-.25,185.95"/>
      <path id="path4545" class="cls-20" d="M84.22,461.05v143.15"/>
      <path id="path4547" class="cls-20" d="M74.51,468.61l.25,130.17"/>
      <path id="path4755-8" class="cls-34" d="M233.96,570.69l-10.85,36.72s3.08-2.74,4.89-2.5c1.53.2,2.61,1.8,3.46,3.1,1.73,2.64,2.97,9,2.97,9,0,0,.6-5.61,2.03-7.93.83-1.34,2.01-2.88,3.57-3.1,1.44-.2,3.94,1.85,3.94,1.85l-10.01-37.14Z"/>
      <g id="g4573">
        <path id="path3897-31" class="cls-27" d="M363.61,613.82s-4.39-13.66-.44-18.15c5.15-5.86,17.12-6.91,22.99-1.82,5.08,4.42,1.77,20.42,1.77,20.42,0,0,12.9-3.23,16.8.91,4.72,5,4.92,15.65.44,20.88-3.62,4.23-16.36,1.82-16.36,1.82,0,0,.82,13-3.54,16.34-5.09,3.9-14.14,2.83-19.01-1.36-4.19-3.61-3.98-16.34-3.98-16.34,0,0-14.19,3.81-18.13-.91-4.63-5.54-3.07-16.9,2.21-21.78,4.27-3.95,17.24,0,17.24,0h0Z"/>
        <path id="path4492" class="cls-28" d="M375.11,607.15l-18.1,17.69,18.52,17.69,20.16-18.93-20.57-16.46Z"/>
        <ellipse id="path3899-9" class="cls-13" cx="376.62" cy="624.66" rx="9.95" ry="10.21"/>
      </g>
      <path id="path3037-5-8" class="cls-35" d="M487.69,446.25c.37,2.1,1.32,4.53,4.24,6.13,5.26,2.89,10.91.91,13.58-3.96,2.67-4.87,1.57-11.18-3.69-14.07-2.92-1.6-4.04-.95-6.6-.45l-.32-.81c2.56-.5,9.05-2.64,10.92-6.05,2.14-3.9.72-11.01-3.96-13.58-4.68-2.57-11.44.06-13.58,3.96-1.87,3.41-.18,10.04.77,12.46l-.85.17c-.95-2.42-1-3.72-3.93-5.32-5.26-2.89-11.17-.43-13.85,4.45-2.67,4.87-1.3,10.69,3.96,13.58,2.92,1.6,5.48,1.1,7.45.28l.32.81c-2.19,2.6-1.92,2.12-3.84,4.23s-6.35,6.02-6.35,6.02q6.38,2.23,11.69,6.41s.92-5.83,1.67-8.59c.75-2.76.48-2.27,1.5-5.51l.85-.17Z"/>
      <path id="path3037-5-8-6" class="cls-35" d="M448.43,583.67c1.14,1.8,2.95,3.68,6.26,4.05,5.96.66,10.43-3.31,11.04-8.84.61-5.52-2.81-10.94-8.78-11.6-3.31-.37-4.1.66-6.27,2.1l-.6-.63c2.17-1.44,7.36-5.89,7.79-9.76.49-4.42-3.54-10.46-8.84-11.04-5.3-.59-10.55,4.42-11.04,8.84-.43,3.87,3.66,9.35,5.46,11.23l-.72.48c-1.8-1.88-2.34-3.06-5.66-3.42-5.96-.66-10.49,3.87-11.11,9.39-.61,5.52,2.87,10.38,8.84,11.04,3.31.37,5.49-1.07,7-2.58l.6.63c-1.03,3.24-.97,2.69-1.94,5.38s-3.57,7.99-3.57,7.99q6.75-.37,13.25,1.47s-1.38-5.74-1.73-8.58c-.36-2.84-.42-2.28-.71-5.67l.72-.48Z"/>
      <path id="path3037-5-5-0" class="cls-35" d="M46.17,536.74c1,1.33,2.5,2.67,5,2.67,4.5,0,7.5-3.56,7.5-8s-3-8.45-7.5-8.45c-2.5,0-3,.89-4.5,2.22l-.5-.44c1.5-1.33,5-5.33,5-8.45,0-3.56-3.5-8-7.5-8s-7.5,4.45-7.5,8c0,3.11,3.5,7.11,5,8.45l-.5.44c-1.5-1.33-2-2.22-4.5-2.22-4.5,0-7.5,4-7.5,8.45s3,8,7.5,8c2.5,0,4-1.33,5-2.67l.5.44c-.5,2.67-.5,2.22-1,4.45-.5,2.22-2,6.67-2,6.67q5-.89,10,0s-1.5-4.45-2-6.67c-.5-2.22-.5-1.78-1-4.45l.5-.44Z"/>
      <path id="path3037-5-5-2" class="cls-35" d="M46.17,596.76c1,1.33,2.5,2.67,5,2.67,4.5,0,7.5-3.56,7.5-8s-3-8.45-7.5-8.45c-2.5,0-3,.89-4.5,2.22l-.5-.44c1.5-1.33,5-5.33,5-8.45,0-3.56-3.5-8-7.5-8s-7.5,4.45-7.5,8c0,3.11,3.5,7.11,5,8.45l-.5.44c-1.5-1.33-2-2.22-4.5-2.22-4.5,0-7.5,4-7.5,8.45s3,8,7.5,8c2.5,0,4-1.33,5-2.67l.5.44c-.5,2.67-.5,2.22-1,4.45-.5,2.22-2,6.67-2,6.67q5-.89,10,0s-1.5-4.45-2-6.67c-.5-2.22-.5-1.78-1-4.45l.5-.44Z"/>
      <g id="g4726">
        <circle id="path4722" class="cls-24" cx="460.77" cy="504.29" r="20"/>
        <circle id="path4724" class="cls-11" cx="460.77" cy="504.29" r="10"/>
      </g>
      <g id="g4749">
        <path id="path4730" class="cls-33" d="M234.97,423.55c1.87-.43,3.88,1.01,5.27,2.33,2.12,2.03,1.9,5.75,3.93,7.88,1.87,1.96,4.61,2.88,7.08,3.97,3.62,1.6,7.48,2.6,11.26,3.75-6.45,2.68-14.01,4.6-20.58,2.45-4.36-1.43-8.49-5.08-10.06-9.4-.99-2.72-.1-5.96,1.07-8.61.42-.96,1.01-2.16,2.03-2.39Z"/>
        <path id="path4732" class="cls-33" d="M272.1,461.1s6.82.54,8.76,2.92c2.21,2.71,2.17,7.05,1.25,10.43-.96,3.54-3.39,7.13-6.68,8.76-2.99,1.48-6.79.88-10.01,0-4.21-1.15-8.49-3.31-11.27-6.68-2.35-2.85-3.28-6.77-3.76-10.43-.41-3.18-.25-6.58.83-9.6,1.49-4.14,4.01-8.19,7.51-10.85,3.05-2.31,7.1-3.01,10.85-3.76,4.51-.9,9.26-1.76,13.77-.83,5.18,1.06,10.22,3.59,14.19,7.09,5.26,4.65,9.06,11.01,11.68,17.52,2.06,5.11,2.3,10.8,2.92,16.27.63,5.53.93,11.12.83,16.69-.11,6.7-1.26,13.34-1.67,20.03-.21,3.47-1.05,7.01-.42,10.43.38,2.08,1.08,4.27,2.5,5.84.96,1.06,2.33,2.24,3.76,2.09,1.47-.16,2.86-1.52,3.34-2.92.46-1.34-.83-4.17-.83-4.17,0,0,4.23,3.09,5.01,5.42.89,2.65.69,6-.83,8.35-1.22,1.88-3.62,3.07-5.84,3.34-2.01.24-4.08-.67-5.84-1.67-2.48-1.4-6.26-5.84-6.26-5.84,0,0-1.75,12.21-1.67,18.36.06,4.76.5,9.57,1.67,14.19.92,3.63,2.11,7.31,4.17,10.43,1.08,1.64,2.36,3.42,4.17,4.17,1.93.8,6.26,0,6.26,0,0,0-4.28-2.52-5.42-4.59-.95-1.72-1.36-3.95-.83-5.84.53-1.9,2.03-3.63,3.76-4.59,1.96-1.08,4.54-1.53,6.68-.83,2.71.88,4.91,3.33,6.26,5.84,1.6,2.98,2.47,6.73,1.67,10.01-.49,2.03-2.09,3.75-3.76,5.01-3.09,2.34-6.98,4.06-10.85,4.17-3.65.1-7.44-1.24-10.43-3.34-3.17-2.22-5.43-5.69-7.09-9.18-2.34-4.9-3.35-10.44-3.76-15.86-.52-6.82.72-13.67,1.67-20.45.69-4.92,2.29-9.68,2.92-14.6.32-2.49.25-5.01.42-7.51.24-3.62.83-10.85.83-10.85,0,0-6.24,5-10.01,5.42-3.59.4-7.7-.56-10.43-2.92-3.11-2.69-4.68-7.17-5.01-11.27-.22-2.72.55-5.67,2.09-7.93,1.46-2.14,3.8-3.78,6.26-4.59,1.72-.56,3.82-.83,5.42,0,1.06.55,2.09,2.92,2.09,2.92,0,0-3,1.21-3.76,2.5-.92,1.56-.8,3.65-.42,5.42.37,1.7,1,3.7,2.5,4.59,1.79,1.06,4.3.71,6.26,0,3.06-1.11,5.99-3.38,7.51-6.26,1.37-2.59.74-5.83.83-8.76.15-4.59.21-9.22-.42-13.77-.63-4.54-1.32-9.23-3.34-13.35-1.78-3.65-4.48-6.89-7.51-9.6-3.17-2.83-6.83-5.31-10.85-6.68-3.84-1.3-8.11-1.98-12.1-1.25-2.45.45-4.75,1.77-6.68,3.34-1.92,1.57-3.68,3.54-4.59,5.84-1.13,2.86-1.72,6.24-.83,9.18.77,2.56,2.6,5.1,5.01,6.26,2.26,1.08,5.45,1.42,7.51,0,1.6-1.1,2.02-3.49,2.09-5.42.08-2.33-2.09-6.68-2.09-6.68h0Z"/>
        <ellipse id="path4734" class="cls-33" cx="290.04" cy="531.62" rx="7.94" ry="7.35"/>
        <ellipse id="path4736" class="cls-33" cx="319.88" cy="611.73" rx="10.48" ry="10.52"/>
      </g>
      <path id="path4755" class="cls-34" d="M234.97,491.98l-10.85,36.72s3.08-2.74,4.89-2.5c1.53.2,2.61,1.8,3.46,3.1,1.73,2.64,2.97,9,2.97,9,0,0,.6-5.61,2.03-7.93.83-1.34,2.01-2.88,3.57-3.1,1.44-.2,3.94,1.85,3.94,1.85l-10.01-37.14Z"/>
      <path id="path4755-6" class="cls-34" d="M196.04,447.52l-10.85,36.72s3.08-2.74,4.89-2.5c1.53.2,2.61,1.8,3.46,3.1,1.73,2.64,2.97,9,2.97,9,0,0,.6-5.61,2.03-7.93.83-1.34,2.01-2.88,3.57-3.1,1.44-.2,3.94,1.85,3.94,1.85l-10.01-37.14Z"/>
      <path id="path4755-0" class="cls-34" d="M158.45,421.67l-10.85,36.72s3.08-2.74,4.89-2.5c1.53.2,2.61,1.8,3.46,3.1,1.73,2.64,2.97,9,2.97,9,0,0,.6-5.61,2.03-7.93.83-1.34,2.01-2.88,3.57-3.1,1.44-.2,3.94,1.85,3.94,1.85l-10.01-37.14Z"/>
      <path id="path4755-2" class="cls-34" d="M120.52,452.89l-10.85,36.72s3.08-2.74,4.89-2.5c1.53.2,2.61,1.8,3.46,3.1,1.73,2.64,2.97,9,2.97,9,0,0,.6-5.61,2.03-7.93.83-1.34,2.01-2.88,3.57-3.1,1.44-.2,3.94,1.85,3.94,1.85l-10.01-37.14Z"/>
      <g id="g4878">
        <ellipse id="path4549" class="cls-30" cx="170.6" cy="585.53" rx="59.76" ry="60.83"/>
        <path id="path4551" class="cls-5" d="M149.68,527.39s-3.12-9.16-5.69-13.2c-2.94-4.62-10.93-12.29-10.93-12.29,0,0,6.81-4.69,10.7-5.92,4.07-1.29,12.75-1.37,12.75-1.37,0,0,3.28-6.05,5.24-8.88,2.55-3.68,8.42-10.47,8.42-10.47,0,0,8.45,6.49,11.61,10.7,1.94,2.58,4.32,8.65,4.32,8.65,0,0,8.02-.12,11.84.91,4.55,1.23,12.75,6.15,12.75,6.15,0,0-9.27,7.76-12.52,12.75-2.81,4.31-5.69,14.34-5.69,14.34,0,0-9.6-3.1-14.57-3.87-4.88-.75-9.88-1.14-14.8-.68-4.58.43-13.43,3.19-13.43,3.19h0Z"/>
        <path id="path4553" class="cls-26" d="M159.93,523.52s-1.86-7.38-3.64-10.7c-1.41-2.62-5.46-7.06-5.46-7.06,0,0,4.22-1.2,6.37-1.14,2.58.08,7.51,1.82,7.51,1.82,0,0,1.72-5.87,2.96-8.65.89-1.99,3.19-5.69,3.19-5.69,0,0,3.56,4.02,4.78,6.37,1.25,2.41,2.5,7.74,2.5,7.74,0,0,4.68-1.07,7.06-1.14,2.29-.07,6.83.68,6.83.68,0,0-4.31,5.08-5.92,7.97-1.91,3.42-4.32,10.93-4.32,10.93,0,0-7.82-2.12-11.84-2.28-3.36-.13-10.02,1.14-10.02,1.14h0Z"/>
        <circle id="path4623" class="cls-33" cx="212.69" cy="587.76" r="5" transform="translate(-401.38 704.45) rotate(-80.87)"/>
        <circle id="path4623-8" class="cls-33" cx="170.44" cy="582.44" r="5" transform="translate(-431.66 658.26) rotate(-80.87)"/>
        <circle id="path4623-6" class="cls-33" cx="191.61" cy="584.02" r="5" transform="translate(-415.42 680.49) rotate(-80.87)"/>
        <circle id="path4623-5" class="cls-33" cx="170.11" cy="560.96" r="5" transform="translate(-410.74 639.86) rotate(-80.87)"/>
        <circle id="path4623-0" class="cls-33" cx="171.12" cy="541.82" r="5" transform="translate(-391 624.76) rotate(-80.87)"/>
        <circle id="path4623-9" class="cls-33" cx="147.62" cy="584.45" r="5" transform="translate(-452.85 637.42) rotate(-80.87)"/>
        <circle id="path4623-00" class="cls-33" cx="126.92" cy="587.71" r="5" transform="translate(-473.48 619.73) rotate(-80.87)"/>
        <path id="path4857" class="cls-22" d="M182.86,529.07l.67,41.62s17.54.91,26.18,2.35c5.57.93,16.45,4.03,16.45,4.03"/>
        <path id="path4859" class="cls-22" d="M191.59,531.76l.67,31.21s12.15.87,18.12,2.01c5.01.96,14.77,4.03,14.77,4.03"/>
        <path id="path4861" class="cls-22" d="M158.36,530.41l-1.34,41.28s-14.84.81-22.15,2.01c-6.59,1.09-19.47,4.7-19.47,4.7"/>
        <path id="path4863" class="cls-22" d="M149.97,532.43l-1.34,31.88s-11.9,1.29-17.79,2.35c-4.97.89-14.77,3.36-14.77,3.36"/>
        <path id="path4865" class="cls-22" d="M117.42,606.94c12.21-4.74,26.45-8.41,40.16-9.61,12.1-1.05,24.35.47,36.37,2.22,9.77,1.42,25.08,5.42,28.86,6.71"/>
        <path id="path4868" class="cls-4" d="M129.95,617.94c2.55-1.95,6.7.91,9.18,2.95,3.09,2.54,3.51,7.23,5.8,10.5,2.21,3.16,7.61,8.73,7.61,8.73,0,0-10.69-4.79-15.21-8.41-2.8-2.25-5.79-4.74-7.13-8.07-.71-1.76-1.76-4.54-.25-5.69Z"/>
        <path id="path4870" class="cls-2" d="M161.29,639.39s-5.61-5.63-8.19-8.65c-1.62-1.89-3.61-3.62-4.55-5.92-.93-2.26-1.43-4.89-.91-7.28.34-1.56,1.09-3.35,2.5-4.1,1.34-.71,3.36-.71,4.55.23,1.87,1.47,1.55,4.51,2.05,6.83.48,2.25.45,4.58.91,6.83.51,2.47,1.31,4.87,2.05,7.28.49,1.61,1.59,4.78,1.59,4.78h0Z"/>
        <path id="path4872" class="cls-2" d="M168.58,639.84s-2.21-8.45-2.96-12.75c-.56-3.24-1.86-6.58-1.14-9.79.54-2.36,1.85-4.81,3.87-6.15,1.22-.8,2.96-1.21,4.32-.68,1.46.56,2.46,2.16,2.96,3.64.8,2.37.13,5.03-.23,7.51-.51,3.57-1.42,7.11-2.73,10.47-1.06,2.72-4.1,7.74-4.1,7.74Z"/>
        <path id="path4874" class="cls-2" d="M176.77,639.16s4.36-7.4,5.92-11.38c1.15-2.93,1.38-6.17,2.5-9.11.61-1.58.99-3.44,2.28-4.55,1.27-1.1,3.25-2.28,4.78-1.59,1.21.54,1.44,2.33,1.59,3.64.28,2.45-.36,5.03-1.37,7.28-1.17,2.62-3.34,4.67-5.24,6.83-1.7,1.94-3.48,3.82-5.46,5.46-1.56,1.29-5.01,3.41-5.01,3.41Z"/>
        <path id="path4876" class="cls-2" d="M188.61,639.84s4.25-4.49,6.15-6.89c1.9-2.41,3.77-4.87,5.24-7.52,1.33-2.4.91-5.82,3.19-7.52,1.07-.8,2.82-1.12,4.1-.63,1.46.56,2.46,2.12,2.73,3.55.39,2.06-.67,4.25-1.82,6.06-1.62,2.55-4.27,4.47-6.83,6.27-1.81,1.27-3.94,2.1-5.92,3.13-2.27,1.19-6.83,3.55-6.83,3.55Z"/>
      </g>
      <g id="g6242">
        <path id="path3931" class="cls-31" d="M205.03,150c18.55,34.41,35.14,62.95,53.68,97.37,19.94-7.55,42.48-9.57,64.1-11.37,22.96-1.9,46.18-1.51,69.12.69,18.88,1.81,37.68,5.41,55.97,10.27,20.9-32.32,41.8-64.64,62.71-96.95H205.03Z"/>
        <path id="path3933-7" d="M287.26,187.12c-1.39-.76-2.04-4.27-1.14-6.15.26-.54.99-.93,1.59-.86,1.7.21,3.25,1.8,3.71,3.41.33,1.15-.93,2.28-.93,3.48,0,1.19.19,2.5.9,3.45,1.41,1.86,3.7,3.44,6.03,3.54,3.87.17,8.76-1.64,10.5-5.01,1.6-3.12-.08-7.33-2.06-10.24-1.34-1.97-3.61-3.77-6.03-4-2.2-.21-4.19,1.44-6.09,2.53,1.11-3.33,2.33-7.19.94-10.4-1.33-3.07-4.7-5.33-7.98-6.38-1.38-.44-2.91.06-4.35.21h0c-2.59,1.3-5.26,3.31-6.21,5.98-.96,2.69.09,5.79,1.07,8.47.75,2.05,2.26,3.78,3.59,5.54-1.91-.63-4.12-.67-5.88.16-3.33,1.58-6.92,4.75-7.04,8.32-.11,3.45,3.07,6.84,6.25,8.41,2.95,1.45,7.06,1.61,9.92-.06,2.22-1.3,3.38-4.18,3.83-6.71.22-1.24-.62-3.72-.62-3.72h0Z"/>
        <path id="path3933-7-4-0-9" d="M234.5,193.36c.01-1.37.97-1.43.83-3.08-.14-1.64-2.65-2.6-4.25-2.38-.57.08-1.24,2.4-1.36,2.98l-10.35-18.16c.61-.8,1.29-1.52,1.99-2.18,1.28-.52,2.51-1.42,3.88-1.34,3.25.19,6.92,1.51,8.9,4.15,2.07,2.75,1.92,6.78,1.74,10.27,1.45-1.53,2.84-3.59,4.9-3.95,2.27-.39,4.79.77,6.5,2.34,2.53,2.31,5.13,5.99,4.45,9.4-.73,3.7-4.75,6.44-8.3,7.43-2.64.73-5.57-.4-8.06-1.6"/>
        <path id="path4015" d="M379.07,197c-4.54.58-9.33-1.27-13.24-3.71-2.08-1.29-2.95-4.06-4.96-5.49-.92-.65-2.01-.19-3.1-1.3.62,6.21,2.74,6.86,5.19,9.51,3.22,3.49,7.52,6.07,11.92,7.79,4.74,1.85,9.96,2.88,15.01,2.51,5.96-.44,11.84-2.59,17.08-5.52,3.56-1.99,6.9-4.66,9.34-7.97,1.36-1.84,2.51-4.57,2.74-6.33-2.27,2.83-6.06,6.13-9.83,7.98-3.44,1.69-7.38,3.12-11.15,2.59-3.66-.52-6.38-2.52-9.75-5.43-3.56,1.98-5.74,4.93-9.26,5.38h0Z"/>
        <path id="path4015-4" d="M332.88,198.32c4.79.34,9.62-1.9,13.68-4.4,2.14-1.32,3.38-3.69,5.25-5.34.89-.78,1.05-2.29,2.82-2.15-.32,6.24-2.49,7.22-4.92,10.05-3.19,3.72-7.56,6.46-12.08,8.41-4.87,2.1-10.28,3.41-15.6,3.3-6.27-.13-12.55-1.96-18.2-4.61-3.83-1.8-7.68-4.1-10.21-7.47-1.36-1.81-2-4.63-2.33-6.38,2.53,2.7,6.04,5.98,9.85,7.65,3.66,1.61,7.9,2.73,11.83,2,3.81-.71,6.56-2.85,9.93-5.93,3.84,1.78,6.27,4.62,9.99,4.88h0Z"/>
        <path id="path4015-4-8" d="M439.19,202.48c-3.75-.12-7.53-2.51-10.54-5.3-1.6-1.49-2.47-3.8-3.64-5.75-.91-1.54-1.23-4.66-2.62-4.69.04,5.79,1.52,8.86,3.71,12.53,2.25,3.79,5.68,6.65,9.15,8.87,3.73,2.38,7.92,4.08,12.08,4.46,4.9.45,9.87-.68,14.37-2.62,3.06-1.32,5.77-3.62,8.23-5.98,2.09-2,5.11-5.23,5.43-6.82-2.9,1.03-4.76,3.66-10.77,7.04-2.73,1.54-6.71,2.03-9.88,1.05-3.12-.97-5.03-3.23-7.56-6.39-3.06,1.3-5.06,3.7-7.97,3.61h0Z"/>
        <path id="path4015-4-8-8" d="M256.53,206.72c-3.8,1.4-8.93.73-12.75-1.18-2.28-1.14-3.49-3.73-5.15-5.66-1.28-1.48-4.23-7.09-3.72-4.54.77,3.88,3.45,9.97,7.2,13.37,3.44,3.12,8.47,4.53,12.86,5.39,4.73.93,9.62.98,13.94-.31,5.09-1.52,9.58-4.7,13.27-8.52,2.5-2.59,4.76-5.91,5.72-9.48.53-1.97.24-4.35-.11-6.11-1.52,4.31-2.68,7.62-5.59,10.15-2.42,2.1-5.75,3.37-8.98,3.43-3.62.06-6.38-1.28-10.23-3.49-2.51,2.58-3.51,5.85-6.45,6.94h0Z"/>
        <path id="path4072" d="M242.67,215.57s9.93,3.13,15.1,3.44c6.13.37,12.58.16,18.29-1.9,4.04-1.46,7.31-4.37,10.46-7.12,2.13-1.86,5.62-6.25,5.62-6.25,0,0,11.23,5.94,17.44,7.29,6.15,1.34,12.66,1.26,18.93.65,6.04-.59,12.25-1.58,17.64-4.14,4.34-2.06,11.18-8.69,11.18-8.69,0,0,8.36,8.57,13.93,10.72,5.42,2.09,11.67,1.73,17.54,1.57,5.36-.14,10.75-.85,15.89-2.26,5.11-1.4,14.58-6.1,14.58-6.1,0,0,5.23,6.86,8.79,9.36,3.31,2.33,7.32,3.77,11.28,4.96,3.99,1.2,8.18,2.39,12.36,2.12,5.11-.33,14.55-4.52,14.55-4.52l-8.29,13.42s-30.81-5.22-46.34-6.79c-12.56-1.27-25.19-1.76-37.82-2.12-13.59-.39-27.21-.55-40.79-.03-11.35.44-22.67,1.5-33.97,2.64-8.5.86-17.02,1.62-25.41,3.17-7.59,1.4-22.48,5.53-22.48,5.53l-8.48-14.93Z"/>
        <path id="path14597" class="cls-33" d="M251.2,230.13s32.16-8.02,59.37-10.79c26.34-2.68,53-3.31,79.42-1.54,22.7,1.52,67.47,10.41,67.47,10.41l-10.41,16.58s-35.93-8.25-54.23-9.9c-27.35-2.45-55.05-2.54-82.38.13-17.12,1.67-50.63,9.9-50.63,9.9l-8.61-14.78Z"/>
        <path id="path3933-7-4-0-9-6" d="M476.35,193.98c.07-1.37-.88-1.48-.64-3.13.24-1.63,2.8-2.44,4.38-2.12.56.11,1.09,2.47,1.18,3.05l11.41-17.52c-.56-.84-1.2-1.6-1.86-2.3-1.24-.59-2.42-1.57-3.79-1.57-3.25,0-7,1.1-9.13,3.62-2.23,2.62-2.31,6.66-2.34,10.15-1.36-1.62-2.63-3.76-4.66-4.23-2.24-.52-4.82.49-6.62,1.95-2.66,2.16-5.47,5.68-5,9.12.51,3.73,4.36,6.71,7.85,7.91,2.6.89,5.59-.07,8.14-1.12"/>
        <path id="path3933-7-1" d="M423.14,186.22c1.39-.76,2.04-4.27,1.14-6.15-.26-.54-.99-.93-1.59-.86-1.7.21-3.25,1.8-3.71,3.41-.33,1.15.8,2.28.93,3.48.09.84-.11,2.52-.11,2.52-2.22,1.82-4.11,4.29-6.82,4.47-3.87.26-8.76-1.64-10.5-5.01-1.6-3.12.08-7.33,2.06-10.24,1.34-1.97,3.61-3.77,6.03-4,2.2-.21,4.19,1.44,6.09,2.53-1.11-3.33-2.33-7.19-.94-10.4,1.33-3.07,4.7-5.33,7.98-6.38,1.38-.44,2.91.06,4.35.21h0c2.59,1.3,5.26,3.31,6.21,5.98.96,2.69-.09,5.79-1.07,8.47-.75,2.05-2.26,3.78-3.59,5.54,1.91-.63,4.12-.67,5.88.16,3.33,1.58,6.92,4.75,7.04,8.32.11,3.45-3.07,6.84-6.25,8.41-2.95,1.45-7.07,1.62-9.92-.06-2.39-1.4-2.64-4.59-4.1-7.24l.89-3.19Z"/>
        <path id="path3933-7-3" d="M354.73,183.57c-1.15-1.09-.88-4.65.47-6.23.39-.46,1.19-.65,1.76-.42,1.59.64,2.62,2.57,2.71,4.25.06,1.06-1.08,1.84-1.39,2.86-.27.88-.41,2.73-.41,2.73,1.68,2.33,2.47,5.18,4.92,6.07,3.64,1.34,8.89.67,11.43-2.15,2.35-2.6,1.8-7.11.64-10.43-.79-2.25-2.52-4.57-4.81-5.41-2.07-.76-4.42.31-6.53.88,1.92-2.93,4.1-6.35,3.58-9.81-.5-3.31-3.17-6.36-6.07-8.21-1.22-.78-2.83-.69-4.26-.91h0c-2.84.59-5.93,1.85-7.54,4.18-1.62,2.35-1.4,5.62-1.14,8.46.2,2.18,1.21,4.23,2.05,6.28-1.68-1.1-3.81-1.71-5.72-1.35-3.62.67-7.91,2.81-8.94,6.24-.99,3.31,1.21,7.4,3.89,9.73,2.47,2.16,6.41,3.38,9.6,2.49,2.67-.74,3.73-3.76,5.82-5.95l-.04-3.31Z"/>
      </g>
      <g id="g4573-0">
        <path id="path3897-31-3" class="cls-27" d="M269.72,646.61s4.39,13.66.44,18.15c-5.15,5.86-17.12,6.91-22.99,1.82-5.08-4.42-1.77-20.42-1.77-20.42,0,0-12.9,3.23-16.8-.91-4.72-5-4.92-15.65-.44-20.88,3.62-4.23,16.36-1.82,16.36-1.82,0,0-.82-13,3.54-16.34,5.09-3.9,14.14-2.83,19.01,1.36,4.19,3.61,3.98,16.34,3.98,16.34,0,0,14.19-3.81,18.13.91,4.63,5.54,3.07,16.9-2.21,21.78-4.27,3.95-17.24,0-17.24,0h0Z"/>
        <path id="path4492-8" class="cls-28" d="M258.22,653.28l18.1-17.69-18.52-17.69-20.16,18.93,20.57,16.46Z"/>
        <ellipse id="path3899-9-2" class="cls-13" cx="256.71" cy="635.77" rx="9.95" ry="10.21"/>
      </g>
    </g>
  </g>
  <g class="cls-37">
    <g>
      <g id="g7523">
        <path id="path17933-2" class="cls-23" d="M10.67,149.65c-2.73,19.88-2.73,40.12,0,60,2.83,20.55,8.55,40.64,16,60,8.04,20.9,18.1,41.03,30,60-9.76-2.65-19.88-4-30-4s-20.24,1.35-30,4l-100-180H10.67Z"/>
        <path id="path17941-5" class="cls-21" d="M-80.47,149.65s-7.78,10.62-2.07,19.76c3.19,5.11,17.39,6.29,17.39,6.29,0,0-5.42,15.93-1.7,22.45,3.69,6.46,20.03,9.86,20.03,9.86,0,0-7.24,14.36-2.61,22.47,6.71,11.76,19.51,7.79,19.51,7.79,0,0-8.04,14.15,1.59,25.44,5,5.86,16.04,5.98,16.04,5.98-5.48,5.62-5.51,15.89-1.79,22.38,2.89,5.04,15.71,7.59,15.71,7.59,0,0-5.13,13.19-.42,17.9,4.71,4.71,12.02,6.72,12.02,6.72"/>
        <path id="path17945-51" class="cls-18" d="M-28.47,243.79c.54,2.06,1.2,4.14,2.31,5.95,1.47,2.38,3.08,5.05,5.65,6.23,3.23,1.49,7.74,2.43,10.81.45,2.99-1.93,4.41-6.37,3.94-9.8-.54-3.96-7.35-9.35-7.35-9.35,0,0,9.78-1.96,11.92-5.79,2.02-3.59,1.04-8.85-1.4-12.02-2.4-3.14-7.21-5.62-11.13-4.45-4.39,1.31-8.04,11.13-8.04,11.13,0,0-.73-7.66-2.8-10.69-1.83-2.69-4.61-5.45-7.92-5.79-2.94-.3-6.54,1.11-8.24,3.56-2.67,3.86-2.45,9.71-.47,13.81,1.98,4.11,11.07,8.12,11.07,8.12,0,0-1.86-5.68,3.01-8.22,3.89-2.03,9.95,1.73,11.48,5.68,1.29,3.35-.35,9.27-3.91,10.29-7.1,2.04-9.73-4.69-9.73-4.69,0,0,.31,3.76.78,5.57h0Z"/>
        <path id="path17945-51-1" class="cls-18" d="M4.28,304.17c.46,1.88,1.02,3.78,1.97,5.43,1.26,2.18,2.63,4.6,4.82,5.69,2.75,1.36,6.6,2.22,9.21.41,2.55-1.76,3.75-5.81,3.36-8.94-.46-3.61-6.26-8.53-6.26-8.53,0,0,8.33-1.79,10.16-5.28,1.72-3.28.89-8.07-1.19-10.97-2.05-2.86-6.15-5.13-9.48-4.06-3.74,1.2-6.85,10.16-6.85,10.16,0,0-.62-6.98-2.38-9.75-1.56-2.46-3.93-4.97-6.75-5.28-2.5-.28-5.57,1.01-7.02,3.25-2.28,3.52-2.08,8.86-.4,12.6,1.69,3.75,9.43,7.41,9.43,7.41,0,0-1.58-5.18,2.56-7.5,3.31-1.85,8.48,1.57,9.78,5.19,1.1,3.06-.3,8.46-3.33,9.39-6.05,1.86-8.29-4.28-8.29-4.28,0,0,.27,3.43.67,5.08h0Z"/>
        <path id="path6754" d="M-151.17,151.38S-67.35,324.99-19.33,408.48c4.59,7.98,8.95,16.24,14.91,23.26,5.19,6.12,11.17,11.73,17.9,16.11,5.3,3.45,11.21,6.05,17.3,7.75,4.63,1.3,9.53,2.22,14.32,1.79,3.32-.3,9.54-2.98,9.54-2.98L-133.27,151.38h-17.9Z"/>
        <g id="g6738">
          <path id="path6710" class="cls-20" d="M-166.34,150.71s5.6,41.67,9.9,62.23c2.49,11.92,5.63,23.71,9.19,35.36,7.67,25.09,15.91,50.09,26.16,74.25,6.38,15.04,14.07,29.51,21.92,43.84,11.48,20.95,22.76,42.16,36.77,61.52,5.49,7.58,11.19,15.23,18.38,21.21,9.67,8.04,20.78,14.61,32.53,19.09,9.46,3.61,19.65,5.71,29.77,5.99,7.36.2,14.75-1.23,21.85-3.16,5.41-1.47,15.56-6.36,15.56-6.36,0,0-19.73,2.07-28.99-.71-10.65-3.2-19.91-10.37-28.28-17.68-6.94-6.05-12.59-13.54-17.68-21.21-9.38-14.15-15.61-30.14-23.33-45.25-9.02-17.65-17.8-35.41-26.87-53.03-10.95-21.28-22.45-42.28-33.23-63.64-9.45-18.73-18.24-37.78-27.58-56.57-9.29-18.69-28.28-55.86-28.28-55.86h-7.78Z"/>
          <path id="path6736" class="cls-20" d="M-56.56,434.81c25.22,12.24,55.81,29.87,81.03,28.77"/>
        </g>
        <path id="path7013" class="cls-34" d="M-9.83,470.65l-24.5,33s18.69,2.77,27.5,6c8.33,3.06,16.19,7.47,23.5,12.5,8.37,5.76,23,20,23,20l17-12.5v-64s-12.16,4.9-18.5,6.5c-7.2,1.82-14.58,3.33-22,3.5-4.53.11-9.06-.64-13.5-1.5-4.25-.82-12.5-3.5-12.5-3.5Z"/>
      </g>
      <g id="g7523-7">
        <path id="path6886-9" class="cls-23" d="M55.17,650.15l-139.5,112.5-9.5-11.5,149.5-120-.5,19Z"/>
        <path id="path6894-0" class="cls-23" d="M-144.83,708.65s-7.79,6.22-11,10c-3.59,4.22-6.65,8.95-9.06,13.94-3.15,6.51-5.77,13.42-6.94,20.56-1,6.09-.79,12.38,0,18.5,1.18,9.06,3.53,18.05,7,26.5,2.92,7.11,11.5,20,11.5,20l-15.73-.65s-9.33-15.35-11.89-23.85c-2.42-8.03-2.89-16.59-3.09-24.97-.15-6.32.23-12.71,1.44-18.91,1.14-5.85,3.3-11.46,5.41-17.03,1.56-4.12,3.18-8.25,5.35-12.09,1.71-3.02,6-8.5,6-8.5,0,0-6.68-10.81-9.5-16.5-3.05-6.16-5.94-12.44-8-19-2.86-9.11-5.43-18.47-6-28-.78-12.86,1.02-25.85,3.5-38.5,2.41-12.31,5.63-24.66,11-36,4.37-9.23,10.43-17.68,17-25.5,6.52-7.76,13.85-14.97,22-21,8.76-6.48,18.39-11.93,28.5-16,13.58-5.46,27.97-9.27,42.5-11,9.93-1.18,20.08-.78,30,.5,9.02,1.17,17.89,3.58,26.5,6.5,7.07,2.4,14.12,5.13,20.5,9,6.58,4,12.33,9.29,18,14.5,3.73,3.43,10.5,11,10.5,11l16-13v17l-188,151.5-8.5-9.5-12.5,10.5,7.5,10Z"/>
        <path id="path6900-9" class="cls-28" d="M55.67,558.65l-181,149.5,24.5,33.5,156.5-125v-58Z"/>
        <path id="path6906-8" class="cls-30" d="M31.67,547.65l-29.5,25.5s-15.67-13.44-25-17.5c-9.53-4.15-20.11-6.37-30.5-6.5-10.85-.13-21.82,2.23-32,6-10.29,3.82-20.16,9.37-28.5,16.5-6.84,5.85-12.69,13.09-17,21-4.61,8.47-7.48,17.98-9,27.5-1.15,7.24-.37,14.68,0,22,.42,8.2.54,16.53,2.5,24.5,1.29,5.23,6,15,6,15l-27,21.5s-8.91-13.21-12-20.5c-3.64-8.6-6.24-17.74-7.5-27-1.06-7.76-.69-15.7,0-23.5.92-10.45,2.58-20.92,5.5-31,3.31-11.42,7.23-22.9,13.5-33,5.98-9.63,14.08-17.91,22.5-25.5,7.9-7.12,16.54-13.63,26-18.5,8.15-4.2,17.02-7.13,26-9,10.47-2.18,21.3-2.5,32-2.5,8.53,0,17.08.65,25.5,2,7.62,1.22,15.33,2.63,22.5,5.5,7.14,2.86,13.89,6.82,20,11.5,5.99,4.59,16,16,16,16Z"/>
        <g id="g7174-34">
          <path id="path6908-8" class="cls-17" d="M12.41,562.15s-9.97,1.67-14.92,1c-5.01-.68-10.16-2.05-14.48-5-2.66-1.82-6.58-7.5-6.58-7.5,0,0,8.55-4.67,13.17-5,5.21-.37,10.71.79,15.36,3.5,2.49,1.45,4.74,3.74,6.14,6.5.98,1.92,1.32,6.5,1.32,6.5Z"/>
          <path id="path6910-4" class="cls-9" d="M11.53,560.65s-5.95-4.16-9.22-5.5c-2.67-1.09-8.34-2-8.34-2"/>
        </g>
        <path id="path6924-3" class="cls-23" d="M21.13,710.06l9.54-19.41s-.67-6.07-3-7.29c-1.96-1.03-4.64.2-6.5,1.41-2.37,1.55-5,6.88-5,6.88l-4.12,13.68"/>
        <path id="path6926-3" class="cls-20" d="M29.93,689.59s-4.16,3.69-6.77,4.06c-2.56.36-7.5-2-7.5-2"/>
        <path id="path18500-2-8-9-6-8" class="cls-11" d="M41.87,617.61l-28.61,6.55,15.72-28.17s-1.32,6.81.83,8.85c1.86,1.76,7.69.3,7.69.3,0,0-4.63,6.15-3.35,9.13,1.11,2.57,7.72,3.33,7.72,3.33Z"/>
        <path id="path18506-7-7-5-24-8" class="cls-11" d="M10.39,639.47c-1.18-.97-1.04-3.62.15-4.56,1.01-.8,3.1-.3,3.8.78.56.87.04,2.29-.68,3.02-.79.79-2.4,1.47-3.26.76h0Z"/>
        <path id="path18506-7-7-5-0-8-6" class="cls-11" d="M-4.43,640.85c-1.18-.97-1.04-3.62.15-4.56,1.01-.8,3.1-.3,3.8.78.56.87.04,2.29-.68,3.02-.79.79-2.4,1.47-3.26.76h0Z"/>
        <path id="path18506-7-7-5-2-6-2" class="cls-11" d="M-.43,625.6c-1.18-.97-1.04-3.62.15-4.56,1.01-.8,3.1-.3,3.8.78.56.87.04,2.29-.68,3.02-.79.79-2.4,1.47-3.26.76h0Z"/>
        <path id="path18506-7-7-5-24-5-6" class="cls-11" d="M44.73,597.48c-1.18-.97-1.04-3.62.15-4.56,1.01-.8,3.1-.3,3.8.78.56.87.04,2.29-.68,3.02-.79.79-2.4,1.47-3.26.76h0Z"/>
        <g id="g7174-0-5">
          <path id="path6908-9-3" class="cls-16" d="M20.63,556.49s-10.15-5.38-14.3-9.25c-4.2-3.92-8.12-8.5-10.34-13.79-1.37-3.26-1.61-10.48-1.61-10.48,0,0,10.62,2,15.05,4.85,5.01,3.22,9.37,7.86,12.04,13.18,1.43,2.85,2.14,6.22,1.8,9.38-.24,2.21-2.64,6.13-2.64,6.13Z"/>
          <path id="path6910-0-92" class="cls-19" d="M20.72,554.69s-3-7.37-5.21-10.65c-1.81-2.68-6.47-7.23-6.47-7.23"/>
        </g>
      </g>
    </g>
  </g>
</svg>