<?xml version="1.0" encoding="UTF-8"?>
<svg id="Calque_1" data-name="Calque 1" xmlns="http://www.w3.org/2000/svg" viewBox="0 0 500 700">
  <defs>
    <style>
      .cls-1 {
        fill: #fff;
      }

      .cls-2 {
        font-family: Poppins-Bold, Poppins;
        font-size: 171.15px;
        font-weight: 700;
      }

      .cls-3 {
        fill-rule: evenodd;
      }
    </style>
  </defs>
  <g>
    <rect class="cls-1" x="2.5" y="2.5" width="495" height="695" rx="47.5" ry="47.5"/>
    <path d="M450,5c24.81,0,45,20.19,45,45v600c0,24.81-20.19,45-45,45H50c-24.81,0-45-20.19-45-45V50C5,25.19,25.19,5,50,5h400M450,0H50C22.39,0,0,22.39,0,50v600c0,27.61,22.39,50,50,50h400c27.61,0,50-22.39,50-50V50c0-27.61-22.39-50-50-50h0Z"/>
  </g>
  <text class="cls-2" transform="translate(60.37 168.18)"><tspan x="0" y="0">5</tspan></text>
  <path id="path2" class="cls-3" d="M112.52,201c-9.86,2.63-14.34,12.95-9.66,22.26,1.04,2.06,1.93,3.35,5.17,7.49,3.19,4.07,5.49,7.75,5.09,8.15-.04.04-1.39-.97-3.02-2.24-8.56-6.67-10.54-7.61-16.08-7.63-6.24-.02-11.07,3.03-13.7,8.65-4.39,9.38,2.31,20.51,12.63,20.95,5.73.25,8.44-.92,16.25-7,3.84-2.99,4.83-3.67,4.83-3.32,0,.31-1.05,4.45-1.83,7.21-1.97,6.99-4.79,14.12-7.07,17.87-.29.48-.53.93-.53,1,0,.15,1.02.06,3.34-.3,2.42-.38,13.47-.37,15.95,0,2.3.35,3.34.44,3.34.31,0-.06-.39-.81-.86-1.65-2.72-4.85-5.06-11.09-7.38-19.74-.93-3.45-1.19-4.62-1.04-4.71.15-.09,1.65.99,5.26,3.8,6.93,5.41,9.37,6.49,14.69,6.49,13.48,0,20.06-15.69,10.59-25.25-3.12-3.15-6.07-4.34-10.73-4.34-5.37,0-7.55,1.06-16.24,7.89-2.73,2.14-2.91,2.26-2.75,1.72.46-1.53,1.85-3.64,5.42-8.23,6.17-7.93,7.67-12.37,6.24-18.43-1.82-7.68-10.43-12.95-17.9-10.96"/>
  <path id="path2-2" data-name="path2" class="cls-3" d="M246.64,204.99c-7.96,2.12-11.57,10.46-7.79,17.97.84,1.66,1.56,2.71,4.17,6.05,2.57,3.29,4.43,6.26,4.11,6.58-.03.03-1.12-.78-2.44-1.81-6.91-5.39-8.51-6.15-12.98-6.16-5.03-.02-8.93,2.45-11.06,6.99-3.55,7.57,1.87,16.55,10.2,16.91,4.63.2,6.82-.75,13.12-5.65,3.1-2.42,3.9-2.97,3.9-2.68,0,.25-.85,3.6-1.47,5.82-1.59,5.64-3.87,11.4-5.71,14.43-.24.39-.43.75-.43.81,0,.12.82.05,2.69-.24,1.96-.3,10.87-.3,12.88,0,1.86.28,2.69.36,2.69.25,0-.05-.31-.65-.7-1.33-2.2-3.91-4.08-8.95-5.96-15.93-.75-2.78-.96-3.73-.84-3.81.12-.08,1.33.8,4.24,3.07,5.6,4.37,7.56,5.24,11.86,5.24,10.88,0,16.19-12.67,8.55-20.38-2.52-2.54-4.9-3.5-8.66-3.5-4.34,0-6.09.86-13.11,6.37-2.2,1.73-2.35,1.82-2.22,1.39.37-1.24,1.49-2.94,4.38-6.64,4.98-6.4,6.2-9.99,5.04-14.88-1.47-6.2-8.42-10.45-14.45-8.85"/>
  <path id="path2-3" data-name="path2" class="cls-3" d="M246.64,566.3c-7.96,2.12-11.57,10.46-7.79,17.97.84,1.66,1.56,2.71,4.17,6.05,2.57,3.29,4.43,6.26,4.11,6.58-.03.03-1.12-.78-2.44-1.81-6.91-5.39-8.51-6.15-12.98-6.16-5.03-.02-8.93,2.45-11.06,6.99-3.55,7.57,1.87,16.55,10.2,16.91,4.63.2,6.82-.75,13.12-5.65,3.1-2.42,3.9-2.97,3.9-2.68,0,.25-.85,3.6-1.47,5.82-1.59,5.64-3.87,11.4-5.71,14.43-.24.39-.43.75-.43.81,0,.12.82.05,2.69-.24,1.96-.3,10.87-.3,12.88,0,1.86.28,2.69.36,2.69.25,0-.05-.31-.65-.7-1.33-2.2-3.91-4.08-8.95-5.96-15.93-.75-2.78-.96-3.73-.84-3.81.12-.08,1.33.8,4.24,3.07,5.6,4.37,7.56,5.24,11.86,5.24,10.88,0,16.19-12.67,8.55-20.38-2.52-2.54-4.9-3.5-8.66-3.5-4.34,0-6.09.86-13.11,6.37-2.2,1.73-2.35,1.82-2.22,1.39.37-1.24,1.49-2.94,4.38-6.64,4.98-6.4,6.2-9.99,5.04-14.88-1.47-6.2-8.42-10.45-14.45-8.85"/>
  <path id="path2-4" data-name="path2" class="cls-3" d="M333.44,385.64c-7.96,2.12-11.57,10.46-7.79,17.97.84,1.66,1.56,2.71,4.17,6.05,2.57,3.29,4.43,6.26,4.11,6.58-.03.03-1.12-.78-2.44-1.81-6.91-5.39-8.51-6.15-12.98-6.16-5.03-.02-8.93,2.45-11.06,6.99-3.55,7.57,1.87,16.55,10.2,16.91,4.63.2,6.82-.75,13.12-5.65,3.1-2.42,3.9-2.97,3.9-2.68,0,.25-.85,3.6-1.47,5.82-1.59,5.64-3.87,11.4-5.71,14.43-.24.39-.43.75-.43.81,0,.12.82.05,2.69-.24,1.96-.3,10.87-.3,12.88,0,1.86.28,2.69.36,2.69.25,0-.05-.31-.65-.7-1.33-2.2-3.91-4.08-8.95-5.96-15.93-.75-2.78-.96-3.73-.84-3.81.12-.08,1.33.8,4.24,3.07,5.6,4.37,7.56,5.24,11.86,5.24,10.88,0,16.19-12.67,8.55-20.38-2.52-2.54-4.9-3.5-8.66-3.5-4.34,0-6.09.86-13.11,6.37-2.2,1.73-2.35,1.82-2.22,1.39.37-1.24,1.49-2.94,4.38-6.64,4.98-6.4,6.2-9.99,5.04-14.88-1.47-6.2-8.42-10.45-14.45-8.85"/>
  <path id="path2-5" data-name="path2" class="cls-3" d="M420.24,205.05c-7.96,2.12-11.57,10.46-7.79,17.97.84,1.66,1.56,2.71,4.17,6.05,2.57,3.29,4.43,6.26,4.11,6.58-.03.03-1.12-.78-2.44-1.81-6.91-5.39-8.51-6.15-12.98-6.16-5.03-.02-8.93,2.45-11.06,6.99-3.55,7.57,1.87,16.55,10.2,16.91,4.63.2,6.82-.75,13.12-5.65,3.1-2.42,3.9-2.97,3.9-2.68,0,.25-.85,3.6-1.47,5.82-1.59,5.64-3.87,11.4-5.71,14.43-.24.39-.43.75-.43.81,0,.12.82.05,2.69-.24,1.96-.3,10.87-.3,12.88,0,1.86.28,2.69.36,2.69.25,0-.05-.31-.65-.7-1.33-2.2-3.91-4.08-8.95-5.96-15.93-.75-2.78-.96-3.73-.84-3.81.12-.08,1.33.8,4.24,3.07,5.6,4.37,7.56,5.24,11.86,5.24,10.88,0,16.19-12.67,8.55-20.38-2.52-2.54-4.9-3.5-8.66-3.5-4.34,0-6.09.86-13.11,6.37-2.2,1.73-2.35,1.82-2.22,1.39.37-1.24,1.49-2.94,4.38-6.64,4.98-6.4,6.2-9.99,5.04-14.88-1.47-6.2-8.42-10.45-14.45-8.85"/>
  <path id="path2-6" data-name="path2" class="cls-3" d="M420.24,566.3c-7.96,2.12-11.57,10.46-7.79,17.97.84,1.66,1.56,2.71,4.17,6.05,2.57,3.29,4.43,6.26,4.11,6.58-.03.03-1.12-.78-2.44-1.81-6.91-5.39-8.51-6.15-12.98-6.16-5.03-.02-8.93,2.45-11.06,6.99-3.55,7.57,1.87,16.55,10.2,16.91,4.63.2,6.82-.75,13.12-5.65,3.1-2.42,3.9-2.97,3.9-2.68,0,.25-.85,3.6-1.47,5.82-1.59,5.64-3.87,11.4-5.71,14.43-.24.39-.43.75-.43.81,0,.12.82.05,2.69-.24,1.96-.3,10.87-.3,12.88,0,1.86.28,2.69.36,2.69.25,0-.05-.31-.65-.7-1.33-2.2-3.91-4.08-8.95-5.96-15.93-.75-2.78-.96-3.73-.84-3.81.12-.08,1.33.8,4.24,3.07,5.6,4.37,7.56,5.24,11.86,5.24,10.88,0,16.19-12.67,8.55-20.38-2.52-2.54-4.9-3.5-8.66-3.5-4.34,0-6.09.86-13.11,6.37-2.2,1.73-2.35,1.82-2.22,1.39.37-1.24,1.49-2.94,4.38-6.64,4.98-6.4,6.2-9.99,5.04-14.88-1.47-6.2-8.42-10.45-14.45-8.85"/>
</svg>