<?xml version="1.0" encoding="UTF-8"?>
<svg id="Calque_1" data-name="Calque 1" xmlns="http://www.w3.org/2000/svg" xmlns:xlink="http://www.w3.org/1999/xlink" viewBox="0 0 500 700">
  <defs>
    <style>
      .cls-1, .cls-2, .cls-3, .cls-4 {
        fill: #e31e46;
      }

      .cls-5, .cls-6, .cls-7 {
        fill: #1d2937;
      }

      .cls-8, .cls-9 {
        stroke: #000;
      }

      .cls-8, .cls-9, .cls-6, .cls-2, .cls-10, .cls-11, .cls-12, .cls-13, .cls-4, .cls-14, .cls-15, .cls-7 {
        stroke-linecap: round;
        stroke-linejoin: round;
      }

      .cls-8, .cls-9, .cls-6, .cls-2, .cls-10, .cls-12 {
        stroke-width: 1.98px;
      }

      .cls-8, .cls-16, .cls-11, .cls-12, .cls-13 {
        fill: none;
      }

      .cls-6, .cls-2, .cls-10, .cls-3, .cls-11, .cls-12, .cls-13, .cls-4, .cls-14, .cls-15, .cls-7 {
        stroke: #1d2937;
      }

      .cls-17, .cls-10, .cls-15 {
        fill: #fff;
      }

      .cls-18 {
        clip-path: url(#clippath-1);
      }

      .cls-3, .cls-13, .cls-4, .cls-14, .cls-15, .cls-7 {
        stroke-width: 2px;
      }

      .cls-11 {
        stroke-width: 2.06px;
      }

      .cls-19 {
        font-family: Poppins-Bold, Poppins;
        font-size: 171.15px;
        font-weight: 700;
      }

      .cls-20 {
        fill-rule: evenodd;
      }

      .cls-21 {
        clip-path: url(#clippath);
      }
    </style>
    <clipPath id="clippath">
      <rect class="cls-16" x="16.67" y="-610" width="466.67" height="532.75" rx="30" ry="30"/>
    </clipPath>
    <clipPath id="clippath-1">
      <rect class="cls-16" x="16.67" y="150" width="466.67" height="533.33" rx="30" ry="30"/>
    </clipPath>
  </defs>
  <g>
    <rect class="cls-17" x="2.5" y="2.5" width="495" height="695" rx="47.5" ry="47.5"/>
    <path d="M450,5c24.81,0,45,20.19,45,45v600c0,24.81-20.19,45-45,45H50c-24.81,0-45-20.19-45-45V50C5,25.19,25.19,5,50,5h400M450,0H50C22.39,0,0,22.39,0,50v600c0,27.61,22.39,50,50,50h400c27.61,0,50-22.39,50-50V50c0-27.61-22.39-50-50-50h0Z"/>
  </g>
  <text class="cls-19" transform="translate(66.52 168.18)"><tspan x="0" y="0">J</tspan></text>
  <path id="path2" class="cls-20" d="M112.52,201c-9.86,2.63-14.34,12.95-9.66,22.26,1.04,2.06,1.93,3.35,5.17,7.49,3.19,4.07,5.49,7.75,5.09,8.15-.04.04-1.39-.97-3.02-2.24-8.56-6.67-10.54-7.61-16.08-7.63-6.24-.02-11.07,3.03-13.7,8.65-4.39,9.38,2.31,20.51,12.63,20.95,5.73.25,8.44-.92,16.25-7,3.84-2.99,4.83-3.67,4.83-3.32,0,.31-1.05,4.45-1.83,7.21-1.97,6.99-4.79,14.12-7.07,17.87-.29.48-.53.93-.53,1,0,.15,1.02.06,3.34-.3,2.42-.38,13.47-.37,15.95,0,2.3.35,3.34.44,3.34.31,0-.06-.39-.81-.86-1.65-2.72-4.85-5.06-11.09-7.38-19.74-.93-3.45-1.19-4.62-1.04-4.71.15-.09,1.65.99,5.26,3.8,6.93,5.41,9.37,6.49,14.69,6.49,13.48,0,20.06-15.69,10.59-25.25-3.12-3.15-6.07-4.34-10.73-4.34-5.37,0-7.55,1.06-16.24,7.89-2.73,2.14-2.91,2.26-2.75,1.72.46-1.53,1.85-3.64,5.42-8.23,6.17-7.93,7.67-12.37,6.24-18.43-1.82-7.68-10.43-12.95-17.9-10.96"/>
  <g class="cls-21">
    <g>
      <g id="g11136">
        <path id="path11054" d="M245.54-279.41l-11.69,6-6.75,7.44-10.94-6.75-12-2.12-11,6.75-8.81,12.38,11.69,13.44,13.44,18.37,11.62,20.5,11,22.25,9.19,26.19,6,28.62,2.13.06,4.37,29.06s2.5,31.1,2.5,29.69,3.56,26.19,3.56,26.19l8.81,17.31,14.87,12.69,17.31,2.12,13.06,11.69,14.87,9.19,15.88-1.44,14.88-6,12.37,9.19,15.88,5.31,11.69-6,6.75-7.44,10.94,6.75,12,2.12,11-6.75,8.81-12.38-11.69-13.44-13.44-18.37-11.62-20.5-11-22.25-9.19-26.19-6-28.62-2.13-.06-4.38-29.06s-2.5-31.1-2.5-29.69-3.56-26.19-3.56-26.19l-8.81-17.31-14.88-12.69-17.31-2.12-13.06-11.69-14.88-9.19-15.88,1.44-14.87,6-12.38-9.19-15.88-5.31Z"/>
        <path id="path10972" class="cls-5" d="M393.42-91.85l21.5,13.75,14.75,13,13,16.5,10,17.75,6.75,17,1.25,13.75-1,13.25-17.5-21.5-11-13.5-10.5-15.25-8.75-14-9.5-16.25-7-15-2-9.5Z"/>
        <path id="path4096" class="cls-7" d="M384.4-207.75c14,2.67,22.88,5.16,33.76,9.4,18.48,7.19,36.51,15.99,53,27,13.67,9.13,26.24,20.03,37.5,32,13.86,14.74,26.63,30.84,36.5,48.5,7.62,13.64,13.05,28.56,17.12,43.65,4.2,15.58,6.34,31.74,7.38,47.85.9,13.97.46,28.07-1,42-.85,8.09-2.92,16.02-4.5,24-1.59,8.02-3.33,16-5,24,0,0,18.6,8.02,28.24,11.05,9.57,3.01,29.26,7.07,29.26,7.07V-207.65l-165.03-103.94-67.24,103.85Z"/>
        <path id="path4098" class="cls-7" d="M550.48,67.73c2.6-12.76,5.56-25.57,6.18-38.58.89-18.52-.15-37.27-3.5-55.5-2.65-14.41-7.13-28.57-13-42-6.94-15.87-15.69-31.08-26-45-8.14-10.99-17.73-20.96-28-30-12.64-11.12-26.52-20.92-41-29.5-7.31-4.33-15.09-7.89-23-11-8.29-3.26-16.89-5.73-25.5-8-6.77-1.79-14.04-3.67-20.54-4.42l4.13,37.33,22.9,7.21,35.62,14.84,38.58,34.77,23.74,33.92,13.57,34.77,6.36,41.55-2.54,27.56-5.51,27.98c13.57,10.61,22.05,15.21,33.07,22.05,0,0,3.21-11.93,4.45-17.97h0Z"/>
        <path id="path11046" class="cls-13" d="M616.67,109.65c-19.94-4.47-39.36-10.11-58-18-3.85-1.63-7.4-3.88-11-6-11.56-6.8-23.4-13.28-34-21.5-3.07-2.38-5.64-5.37-8.5-8-8.91-8.19-18.25-15.9-27-24.25-6.18-5.9-12.22-11.96-18-18.25-6.16-6.7-12.09-13.62-17.75-20.75-8.82-11.1-17.77-22.2-25.25-34.25-9.2-14.82-18.14-30.07-24-46.5-2.97-8.34-3.78-17.31-5.5-26-2.14-10.81-4.19-21.63-6-32.5-.75-4.49-1.43-8.99-2-13.5-1.59-12.47-2.68-25-4-37.5-.68-6.42-.63-12.95-2-19.25-.93-4.3-2.19-8.59-4.19-12.51-1.64-3.22-3.81-6.21-6.3-8.82-3.51-3.68-7.52-6.99-11.97-9.45-3.02-1.67-6.39-2.76-9.77-3.47-2.99-.62-6.09-.42-9.14-.63,0,0-18.24-17.98-30.13-20.29-9.62-1.87-28.76,6.1-28.76,6.1,0,0-17.96-13.95-28.32-13.07-7.43.63-18.45,12.67-18.45,12.67,0,0-14.88-10.44-22.94-8.92-8.73,1.65-19.61,18.03-19.61,18.03"/>
        <path id="path4100" class="cls-4" d="M513.92,64.15c2-13.67,5.69-26.85,6.25-40.5.68-16.53.24-33.39-3.5-49.5-3.91-16.82-10.98-32.98-19.5-48-8.74-15.43-19.19-30.23-32-42.5-11.69-11.19-25.58-20.17-40-27.5-14.33-7.28-31.33-10.67-45.5-16,4.33,26.18,8.67,46.44,13,67.5,10,6.67,23.05,14.37,33,23.5,6.45,5.92,12.18,12.7,17,20,5.75,8.71,10.41,18.2,14,28,2.18,5.96,3.94,12.18,4.5,18.5.47,5.32-1,11.67-1,16l26.5,27,27.25,23.5Z"/>
        <path id="path4102-9" class="cls-7" d="M503.67,53.65c1.83-11.17,5.19-22.19,5.5-33.5.43-15.58-1.19-31.38-5-46.5-3.56-14.14-9.41-27.76-16.5-40.5-8.13-14.59-17.59-28.79-29.5-40.5-10.75-10.57-23.61-19.07-37-26-11.47-5.93-24.33-8.67-36.5-13l5,31.5c5.67,2.33,11.59,4.12,17,7,7.43,3.95,14.39,8.79,21,14,5.98,4.71,11.64,9.86,16.75,15.5,5.47,6.04,10.42,12.59,14.75,19.5,4.47,7.14,8.44,14.65,11.5,22.5,2.95,7.57,5.24,15.47,6.5,23.5,1.24,7.91,1.03,15.99,1,24-.02,6.84-1,14.33-1,20.5l26.5,22Z"/>
        <path id="path4106" class="cls-13" d="M391.17-101.85c8.33,2.75,16.73,7.57,24.25,12.75,8.51,5.86,16.31,12.85,23.25,20.5,5.74,6.32,10.63,13.42,15,20.75,4.22,7.07,8.11,14.45,10.75,22.25,2.53,7.49,4,15.38,4.75,23.25.75,7.8-.25,16.17-.25,23.5"/>
        <g id="g3969-15">
          <path id="path4126-27" class="cls-4" d="M497.18-26.88c-3.43-1.3-7.69-1.12-11,.47-3.29,1.58-6.1,4.77-7.21,8.25-1.03,3.24-.59,7.15,1.03,10.14,1.63,3.02,4.73,5.44,8.01,6.47,3.11.97,6.82.71,9.76-.71,3.06-1.47,5.77-4.29,6.92-7.49,1.19-3.28.9-7.28-.56-10.46-1.34-2.92-3.95-5.54-6.95-6.68Z"/>
        </g>
        <g id="g3969-14">
          <path id="path4126-23" class="cls-4" d="M498.93,26.43c-3.43,1.3-7.69,1.12-11-.47-3.29-1.58-6.1-4.77-7.21-8.25-1.03-3.24-.59-7.15,1.03-10.14,1.63-3.02,4.73-5.44,8.01-6.47,3.11-.97,6.82-.71,9.76.71,3.06,1.47,5.77,4.29,6.92,7.49,1.19,3.28.9,7.28-.56,10.46-1.34,2.92-3.95,5.54-6.95,6.68Z"/>
          <path id="path4128-22" class="cls-13" d="M494.83,19.04c-2.41.59-5.75-1.35-6.43-3.73-.68-2.4,1.13-5.95,3.54-6.6,2.56-.69,6.18,1.57,6.78,4.15.56,2.37-1.53,5.61-3.89,6.19Z"/>
        </g>
        <g id="g3969-16">
          <path id="path4126-8-9" class="cls-4" d="M500.43,50.26c3.44-3.28,4.3-9.5,2.69-13.96-1.24-3.43-4.87-6.26-8.45-6.93-4.4-.82-11.19.14-12.75,4.22"/>
          <path id="path4128-57" class="cls-13" d="M494.38,46.39c2.1-1.23,2.26-6.24.3-8.09-1.68-1.58-5.7-1.98-6.89.67"/>
        </g>
      </g>
      <g id="g11136-1">
        <path id="path11052-4" class="cls-1" d="M387.11,269.39c4.6-10.25,8.24-20.99,13.79-30.76,3.55-6.26,8.64-11.53,12.37-17.68,3.44-5.68,6.93-11.43,9.19-17.68,1.69-4.65,3.28-9.55,3.18-14.5-.1-4.63-2.36-8.96-3.54-13.44,3.3-4.95,6.6-9.9,9.9-14.85,5.07-.59,10.66.56,15.2-1.77,4.68-2.4,8.71-6.76,10.61-11.67,1.91-4.95,1.72-10.89,0-15.91-1.74-5.08-5.45-9.72-9.9-12.73-4.27-2.88-9.73-4.77-14.85-4.24-5.82.59-10.88,4.61-15.56,8.13-5.46,4.11-9.43,9.9-14.14,14.85-1.41-4.01-1.84-8.52-4.24-12.02-2.37-3.44-5.67-6.56-9.55-8.13-3.39-1.37-7.34-1.23-10.96-.71-4.1.59-8.09,2.17-11.67,4.24-1.74,1.01-2.7,3.23-4.6,3.89-9.03,3.12-19.09-.71-28.64-1.06-4.24,10.84-8.49,21.68-12.73,32.53,1.18,2.36,2.36,4.71,3.54,7.07-4.6-.71-9.19-2.78-13.79-2.12-4.12.59-8.45,2.28-11.31,5.3-2.8,2.95-4.06,7.28-4.6,11.31-.52,3.88-.03,8.02,1.41,11.67,1.61,4.08,4.22,8.05,7.78,10.61,2.21,1.59,5.19,1.65,7.78,2.47-1.3,4.95-2.24,10.01-3.89,14.85-1.85,5.45-4.31,10.68-6.72,15.91-1.87,4.07-4.18,7.93-6.01,12.02-2.6,5.79-5.18,11.62-7.07,17.68-1.58,5.08-2.41,10.36-3.54,15.56-.99,4.59-1.89,9.19-2.83,13.79,7.78-.24,15.58-.03,23.33-.71,6.53-.57,12.97-1.85,19.45-2.83,6.84-1.03,13.73-1.81,20.51-3.18,6.19-1.25,12.4-2.56,18.38-4.6,4.75-1.62,9.28-3.82,13.79-6.01,3.37-1.63,6.6-3.54,9.9-5.3Z"/>
        <path id="path11040-9" d="M426.58,116.94s-7.32,2.91-10.46,5.23c-3.39,2.5-8.71,9.15-8.71,9.15l-.44-123.74s7.57,4.7,11.76,6.1c2.51.84,7.84,1.31,7.84,1.31v101.95Z"/>
        <path id="path11042-6" class="cls-1" d="M408.28,67.71l-156.41.87,50.54-79.3s17.94,17.71,29.63,20.48c9.13,2.16,27.88-3.92,27.88-3.92,0,0,16.89,11.99,26.58,11.76,8.12-.19,21.78-10.89,21.78-10.89"/>
        <path id="path4074-3" d="M222.67,111.15L300.67-9.85s-8.14.56-12-.5c-2.37-.65-6.5-3.5-6.5-3.5l-83.5,129.5,7,4,6.5-4.5,10.5-4Z"/>
        <path id="path4070-7" class="cls-4" d="M406.67,69.65h-156l-25.57,39.16,181.57.84v-40Z"/>
        <path id="path4096-8" class="cls-7" d="M248.93-52.95c-14-2.67-22.88-5.16-33.76-9.4-18.48-7.19-36.51-15.99-53-27-13.67-9.13-26.24-20.03-37.5-32-13.86-14.74-26.63-30.84-36.5-48.5-7.62-13.64-13.05-28.56-17.12-43.65-4.2-15.58-6.34-31.74-7.38-47.85-.9-13.97-.46-28.07,1-42,.85-8.09,2.92-16.02,4.5-24,1.59-8.02,3.33-16,5-24,0,0-18.6-8.02-28.24-11.05-9.57-3.01-29.26-7.07-29.26-7.07V-53.05L181.69,50.9l67.24-103.85Z"/>
        <path id="path2996-9" class="cls-4" d="M436.67,349.65l-50-80s-12.95,7.58-20,10c-16.08,5.52-33.09,8.33-50,10-19.9,1.97-40.07,1.65-60,0-20.21-1.67-60-10-60-10l-50,70h290Z"/>
        <path id="path3766-1" class="cls-13" d="M197.71,279.59s-6.28-18.58-4.71-27.87c.9-5.3,6.44-8.93,7.78-14.14.53-2.05.55-4.32,0-6.36-3.54-13.16-16.16-22.44-20.51-35.36-.61-1.8-1.4-3.89-.71-5.66,2.81-7.16,14.43-7.87,17.68-14.85,2.09-4.49-1.57-10.15,0-14.85.75-2.24,3.72-3.36,4.24-5.66.8-3.52-2.55-7.03-2.12-10.61.47-3.87,3.98-6.83,4.95-10.61.88-3.43-1.09-7.55.71-10.61,2.84-4.85,8.9-7.16,14.14-9.19,6.68-2.6,14.04-3.52,21.21-3.54,10.27-.02,20.73,1.52,30.41,4.95,8.96,3.17,16.91,8.78,24.75,14.14,4.96,3.39,9.92,6.95,14.02,11.35,6.01,6.44,15.17,21.65,15.17,21.65"/>
        <path id="path3768-3" class="cls-13" d="M207.61,258.13s8.67,7.26,13.99,8.39c7.55,1.61,15.62-.52,23-2.8,6.24-1.93,11.65-5.93,17.41-9.01,2.82-1.51,8.39-4.66,8.39-4.66,0,0-10.4,5.74-15.85,8.08-5.15,2.21-10.33,4.65-15.85,5.6-5.31.91-10.86.96-16.16,0-5.23-.95-14.92-5.6-14.92-5.6h0Z"/>
        <path id="path3770-5" class="cls-13" d="M222.53,250.98s6.84,1.64,10.26,1.24c4.49-.52,8.76-2.52,12.74-4.66,3.85-2.07,7.3-4.87,10.57-7.77,3.51-3.11,9.64-10.26,9.64-10.26"/>
        <path id="path3772-9" class="cls-13" d="M215.69,247.25s4-2.44,6.22-3.11c4.1-1.23,8.56-.68,12.74-1.55,3.18-.67,6.32-1.58,9.33-2.8,3.35-1.35,6.47-3.22,9.64-4.97,2.32-1.28,4.45-2.9,6.84-4.04,1.6-.76,4.97-1.87,4.97-1.87"/>
        <path id="path3774-8" class="cls-13" d="M219.42,227.36s4.96-6.41,7.77-9.33c1.83-1.9,3.81-3.68,5.91-5.28,1.96-1.5,6.22-4.04,6.22-4.04"/>
        <path id="path3776-4" class="cls-13" d="M219.73,198.14s3.94-5.84,3.42-9.01c-.47-2.91-2.93-5.58-5.6-6.84-2.62-1.24-5.87-.63-8.7,0-1.9.42-3.6,1.51-5.28,2.49-2.19,1.27-3.78,3.68-6.22,4.35-1.3.36-3.7,1-4.04-.31-.47-1.81,3-2.27,4.66-3.11,2.16-1.1,4.5-1.84,6.84-2.49,2.64-.73,5.34-1.6,8.08-1.55,2.76.05,6.1-.06,8.08,1.87,1.46,1.42,1.61,3.87,1.55,5.91-.08,3.05-2.8,8.7-2.8,8.7h0Z"/>
        <path id="path3778-0" class="cls-13" d="M247.71,173.9s4.36,4.43,7.15,4.35c2.38-.06,4.51-2.11,5.91-4.04,1.52-2.1,2.46-4.89,2.18-7.46-.26-2.35-1.59-4.72-3.42-6.22-3.28-2.67-7.91-4.13-12.12-3.73-4.2.39-7.55,3.78-11.19,5.91-3.3,1.93-6.32,4.32-9.64,6.22-2.82,1.61-5.5,3.85-8.7,4.35-3.32.52-7.38.61-9.95-1.55-.75-.63-1.56-2.04-.93-2.8,1.82-2.17,5.57,1.38,8.39,1.24,3.41-.17,6.78-1.2,9.95-2.49,4.22-1.71,7.68-4.93,11.81-6.84,4.19-1.94,8.45-5,13.06-4.66,3.51.26,6.93,2.39,9.33,4.97,1.92,2.08,3.46,4.94,3.42,7.77-.04,2.64-1.34,5.52-3.42,7.15-2,1.57-5,2.19-7.46,1.55-1.85-.48-4.35-3.73-4.35-3.73Z"/>
        <path id="path3780-7" class="cls-13" d="M203.57,159.91c3-.56,6.01-1.05,9.01-1.55,4.45-.75,9.18-.49,13.37-2.18,1.52-.61,4.04-2.8,4.04-2.8,0,0-5.05,2.4-7.77,2.8-3.9.58-7.87-.65-11.81-.62-3.12.02-9.33.62-9.33.62l-3.73,4.97s4.14-.86,6.22-1.24h0Z"/>
        <path id="path3782-6" class="cls-13" d="M228.74,242.28c-2.32,0-4.8-1.27-6.22-3.11-1.87-2.43-3.02-6.17-1.87-9.01,1.03-2.56,4.09-4.48,6.84-4.66,3.47-.23,7.38,1.78,9.33,4.66,1.45,2.15,1.9,5.51.62,7.77-1.59,2.83-5.46,4.35-8.7,4.35Z"/>
        <path id="path3784-3" class="cls-13" d="M259.83,230.47s-7.33.44-10.88-.31c-2.96-.62-5.46-2.69-8.39-3.42-4.04-1-12.43-1.24-12.43-1.24"/>
        <path id="path3786-6" class="cls-7" d="M227.19,237.93c1.91.05,3.69-2.44,3.73-4.35.04-1.84-1.57-4.38-3.42-4.35-1.93.03-3.44,2.74-3.42,4.66.02,1.7,1.41,4,3.11,4.04h0Z"/>
        <path id="path3047-1" class="cls-7" d="M407.78,349.65l-29.01-57.06c-12.98,4.5-24.17,6.68-40.71,8.53l7.8,48.53h11.46l-10.24-41.46c9.5-.66,18.37-2.59,26.57-5.85l20.97,47.31h13.16Z"/>
        <path id="path3049-5" class="cls-7" d="M328.06,349.65l-6.09-46.58c-20.15,1.87-36.31,2.97-56.46.98l-10.97,45.61h12.92l6.09-35.61c15.83.95,25.12-.02,38.42-.98l4.45,36.59h11.64Z"/>
        <path id="path3051-4" class="cls-7" d="M234.94,349.65l14.63-46.09c-14.71-1.22-28.12-2.04-44.12-5.85l-31.45,51.95h12.68l24.13-42.68c8.94,2.44,16.66,3.15,25.6,4.39l-12.43,38.29h10.97Z"/>
        <path id="path3821-2" class="cls-13" d="M386.72,269.12s9.25-21.24,14.82-31.37c6.11-11.09,15.84-20.23,20.34-32.06,2.53-6.64,4.7-14.04,3.45-21.03-1.02-5.72-4.13-11.48-8.62-15.17-3.65-3-8.72-4.47-13.45-4.48-5.2-.02-11.23,1.08-14.82,4.83-3.83,4-4.84,10.47-4.48,16,.36,5.56,2.38,11.68,6.55,15.38,2.15,1.91,5.4,2.51,8.27,2.41,3.67-.12,7.79-1.16,10.34-3.79,3.04-3.13,4.42-8.06,4.14-12.41-.24-3.69-1.79-7.88-4.83-10-2.84-1.99-7.19-2.48-10.34-1.03-2.55,1.17-4.47,4.11-4.82,6.9-.32,2.48.89,5.23,2.62,7.03,1.16,1.2,4.62,1.93,4.62,1.93"/>
        <path id="path3821-1-0" class="cls-13" d="M348.65,283.6s8.86-28.27,14.82-41.8c4.43-10.05,12-18.66,15.51-29.07,2.99-8.87,6.36-18.55,4.48-27.72-1.12-5.47-4.74-10.7-8.96-14.14-3.77-3.07-8.72-4.82-13.45-4.84-5.2-.02-11.07,1.56-14.82,5.21-4.38,4.27-6.89,11.04-6.55,17.15.35,6.26,3.82,12.68,8.62,16.72,2.21,1.86,5.4,2.71,8.27,2.61,3.67-.13,7.79-1.25,10.34-4.09,3.04-3.38,4.42-8.7,4.14-13.4-.24-3.99-1.84-8.23-4.83-10.79-2.71-2.33-6.91-3.82-10.34-2.84-3.1.89-5.85,3.96-6.55,7.1-.76,3.37.89,8.29,3.1,9.88,5.95,4.27,8.62-1.59,8.62-1.59"/>
        <path id="path3821-1-7-9" class="cls-13" d="M309.41,289.46s3.3-24.02,12.76-45.59c4.51-10.3,10.89-19.93,13.79-30.79,2.64-9.87,5.02-20.45,3.1-30.48-1.17-6.11-3.93-12.46-8.62-16.56-3.59-3.13-8.69-4.59-13.45-4.84-5.32-.28-11.57.25-15.51,3.83-4.85,4.4-7.1,12-6.55,18.53.54,6.36,4.36,12.69,9.31,16.72,2.24,1.83,5.38,2.71,8.27,2.61,3.71-.13,7.82-1.37,10.34-4.09,3.17-3.43,4.42-8.73,4.14-13.4-.24-3.93-1.84-8.23-4.83-10.79-2.71-2.33-6.91-3.82-10.34-2.84-3.1.89-5.85,3.96-6.55,7.1-.76,3.37.89,8.29,3.1,9.88,5.95,4.27,8.62-1.59,8.62-1.59"/>
        <path id="path3859-7" class="cls-13" d="M374.31,274.63c2.3-7.24,3.87-14.75,6.9-21.72,3.73-8.59,8.87-16.51,13.79-24.48,3.35-5.42,7.65-10.25,10.69-15.86,3.09-5.7,5.63-12.07,7.58-17.93"/>
        <path id="path3859-4-3" class="cls-13" d="M361.56,278.94c1.94-6.77,3.26-13.8,5.81-20.32,3.15-8.04,7.39-15.46,11.61-22.9,3.21-5.66,7.59-10.65,10.4-16.52,2.34-4.9,3.64-9.93,5.28-15.42"/>
        <path id="path3859-4-0-7" class="cls-13" d="M336.73,286.7c1.94-7.77,3.26-15.83,5.81-23.3,3.15-9.21,7.39-17.72,11.61-26.26,3.21-6.49,7.59-12.21,10.4-18.94,2.34-5.62,3.64-11.39,5.28-17.68"/>
        <path id="path3859-4-0-9-2" class="cls-13" d="M321.91,287.73c1.81-7.12,3.05-14.5,5.44-21.35,2.95-8.44,7.07-16.13,10.89-24.06,2.88-5.97,6.43-11.61,9.06-17.7,2.22-5.15,4.1-10.09,5.64-15.85"/>
        <path id="path3859-4-0-4-6" class="cls-13" d="M296.4,290.49c1.75-8.92,2.69-18.04,5.26-26.75,2.85-9.67,7.61-18.67,11.21-28.08,3.02-7.9,6.3-15.72,8.73-23.81,2-6.66,3.29-13.08,4.79-20.3"/>
        <path id="path3859-4-0-9-8-0" class="cls-13" d="M282.26,289.97c1.65-7.67,2.78-15.64,4.96-23.02,2.69-9.1,6.31-17.51,9.92-25.95,2.74-6.41,6.48-12.06,8.88-18.71,2-5.55,3.1-11.25,4.51-17.47"/>
        <path id="path3940-1" class="cls-13" d="M388.13,170.02c4.67-10.5,8.07-21.56,14.62-30.88,5.27-7.5,11.44-14.96,19.41-19.49,5.38-3.05,11.9-5.53,18-4.5,5.11.86,9.86,4.38,13,8.5,3.29,4.32,5.03,10.07,5,15.5-.03,5.27-1.61,10.96-5,15-2.92,3.49-7.59,5.38-12,6.5-3.72.94-8,1.56-11.5,0-4.1-1.82-7.08-5.95-9-10-1.88-3.96-3.36-8.83-2-13,1.39-4.26,5.36-7.79,9.5-9.5,3.54-1.47,8.08-1.73,11.5,0,2.77,1.4,4.54,4.55,5.5,7.5.83,2.53,1.2,5.62,0,8-1.21,2.41-3.81,4.56-6.5,4.83-2.2.22-4.8-.97-6-2.83-1.09-1.69-.54-4.78-.09-6.04"/>
        <path id="path3940-8-6" class="cls-13" d="M338.82,176.93c4.06-9.11,5.84-21.26,10.74-31.06,4.52-9.04,8.73-19.26,16.96-25.12,5.22-3.71,12.25-5.95,18.58-4.94,4.45.71,8.59,3.8,11.32,7.37,2.87,3.74,4.42,8.74,4.35,13.45-.06,4.31-1.64,8.83-4.35,12.18-2.58,3.19-6.51,5.35-10.45,6.47-3.21.91-6.96,1.35-10.01,0-3.57-1.58-6.17-5.15-7.84-8.68-1.48-3.12-2.5-6.93-1.53-10.24,1.15-3.93,4.34-7.58,8.07-9.28,3.04-1.38,7.04-1.5,10.01,0,2.41,1.22,4.09,3.9,4.79,6.51.64,2.38.48,5.26-.83,7.36-1.01,1.61-2.94,2.81-4.83,3.06-2.17.29-4.96-.19-6.26-1.94-1.23-1.66-1.12-5.59-.02-6.2"/>
        <path id="path3960-5" class="cls-13" d="M422.67,174.79c2.78-5.36,6.24-9.36,9.54-13.68"/>
        <path id="path3962-7" class="cls-13" d="M414.17,166.91c3.23-5.07,5.79-8.09,8.5-11.61"/>
        <path id="path3964-5" class="cls-13" d="M401.73,164.63c4.89-8.71,9.98-16.61,15.97-20.94"/>
        <path id="path3960-2-41" class="cls-13" d="M376.85,171.05c.29-4.74,2.92-9.36,4.35-14.72"/>
        <path id="path3960-2-4-2" class="cls-13" d="M365.55,165.97c.29-4.74,2.92-9.36,4.35-14.72"/>
        <path id="path3960-2-5-0" class="cls-13" d="M354.14,165.97c.5-6.81,7.5-21.74,11.4-27.99"/>
        <path id="path4009-0" class="cls-13" d="M331.23,166.49c1.38-7.95,4.3-15.26,7.26-22.6,2.64-6.57,5.81-12.3,9.33-19.08"/>
        <path id="path4011-1" class="cls-13" d="M321.69,156.75c1.52-5.87,3.46-11.84,5.6-17.62,1.9-5.14,4.08-9.68,6.43-15.14"/>
        <path id="path4013-4" class="cls-4" d="M55.12,243.94s-10.94,13.34-14.14,21.21c-2.89,7.11-5.7,15.09-4.24,22.63,1.16,6.03,4.94,11.92,9.9,15.56,5.9,4.33,13.98,6.77,21.21,5.66,6.07-.94,11.7-5.11,15.56-9.9,3-3.72,4.49-8.68,4.95-13.44.58-5.94-.73-12.09-2.83-17.68-1.56-4.16-4.53-7.66-7.07-11.31-2.97-4.28-9.54-12.39-9.54-12.39l19.79-27.22-19.48-27.9s9.43-10.99,12.77-17.34c3.02-5.74,5.72-11.93,6.36-18.38.52-5.21.13-10.83-2.12-15.56-2.22-4.67-6.32-8.42-10.61-11.31-3.77-2.55-8.18-4.78-12.73-4.95-5.66-.21-11.74,1.54-16.26,4.95-3.81,2.87-6.24,7.5-7.78,12.02-1.83,5.36-1.95,11.3-1.4,16.95.54,5.61,2.11,11.22,4.6,16.28,3.31,6.72,13.43,18.04,13.43,18.04l-19.46,26.52,19.09,27.58Z"/>
        <path id="path4015-6" class="cls-4" d="M61.73,253.97s9.56,11.35,12.5,18.06c1.48,3.37,2.9,7.12,2.43,10.76-.45,3.49-2.35,6.9-4.86,9.38-2.58,2.54-6.1,4.81-9.72,4.86-3.57.05-7.26-1.93-9.72-4.51-2.76-2.89-4.22-7.12-4.51-11.11-.29-3.92,1.17-7.87,2.78-11.46,2.66-5.91,6.31-10.73,11.11-15.97Z"/>
        <path id="path4015-5-0" class="cls-4" d="M61.87,179.66s9.51-12.58,12.5-19.79c1.41-3.4,2.9-7.12,2.43-10.76-.45-3.49-2.35-6.9-4.86-9.38-2.58-2.54-6.1-4.81-9.72-4.86-3.57-.05-7.26,1.93-9.72,4.51-2.76,2.89-4.22,7.12-4.51,11.11-.29,3.92,1.25,7.84,2.78,11.46,2.71,6.42,6.31,12.47,11.11,17.71Z"/>
        <path id="path4035-7" class="cls-7" d="M62.77,199.8l11.81,16.32-12.15,17.71-12.15-16.67,12.5-17.36Z"/>
        <g id="g4055-1">
          <path id="path4037-7-3" class="cls-13" d="M126.92,70.4c-4.42,9.66-7.69,20.38-14.89,28.21-6.79,7.39-15.89,12.89-25.35,16.25-7.62,2.71-16.03,2.69-24.11,2.71-3.43.01-8.04,1.55-10.24-1.09-2.43-2.92-1.14-8.14.86-11.37,3.24-5.24,10-7.57,15.85-9.48,4.97-1.63,10.4-1.32,15.63-1.48-1.23-8.47-1.59-15.57-.11-23.15.94-4.81,4.32-9.75,5.61-13.6"/>
          <path id="path4041-7" class="cls-13" d="M72.42,115.9c0-2.58,1.36-5.55,0-7.75-1.08-1.74-3.52-2.22-5.5-2.75-2.58-.69-5.33-.67-8-.5-1.78.11-3.5.67-5.25,1"/>
          <path id="path4043-7" class="cls-13" d="M50.67,104.9c-2.17-.58-4.86-.22-6.5-1.75-2.06-1.92-3.11-5.2-2.75-8,.27-2.09,2.01-3.77,3.5-5.25,2.48-2.46,5.58-4.29,8.75-5.75,3.55-1.63,7.38-2.76,11.25-3.25,3.06-.39,6.25-.47,9.25.25,1.7.41,3.62.91,4.75,2.25.78.93,1.11,2.29,1,3.5-.14,1.48-.94,2.96-2,4-1.52,1.49-3.64,2.5-5.75,2.75-1.95.23-4.18-.08-5.75-1.25-1.38-1.02-2.07-2.84-2.5-4.5-.31-1.21-.24-2.52,0-3.75.17-.88.67-1.67,1-2.5"/>
          <path id="path4045-7" class="cls-13" d="M43.92,89.65c-1.92-1.58-4.64-2.53-5.75-4.75-.78-1.57-.9-3.62-.25-5.25,1.03-2.57,3.72-4.18,6-5.75,2.73-1.88,5.83-3.28,9-4.25,3.14-.96,6.47-1.21,9.75-1.5,3.24-.29,6.53-.67,9.75-.25,1.46.19,3.08.35,4.25,1.25,1.01.77,1.85,1.99,2,3.25.15,1.31-.49,2.67-1.25,3.75-1.16,1.65-2.8,3.22-4.75,3.75-1.79.49-3.75-.14-5.5-.75-1.55-.54-3.34-1.13-4.25-2.5-.7-1.05-.61-2.49-.5-3.75.12-1.39.83-2.67,1.25-4"/>
          <path id="path4047-3" class="cls-13" d="M43.67,73.4c-1.25-1.92-3.24-3.52-3.75-5.75-.58-2.54-.44-5.58,1-7.75,1.65-2.49,4.92-3.53,7.75-4.5,3.5-1.2,7.31-1.25,11-1.5,3.16-.21,6.41-.7,9.5,0,1.89.43,3.83,1.18,5.25,2.5,1.12,1.04,2.17,2.47,2.25,4,.07,1.45-.72,2.97-1.75,4-1.35,1.34-3.37,1.95-5.25,2.25-1.9.3-4.04.38-5.75-.5-1.26-.65-2.19-1.94-2.75-3.25-.63-1.46-.82-3.19-.5-4.75.31-1.5,1.5-2.67,2.25-4"/>
          <path id="path4049-3" class="cls-13" d="M47.42,55.65c-1.58-.75-4.32-1.38-5-3.25-.69-1.88.68-4.05,1.75-5.75,1.51-2.4,3.65-4.63,6.25-5.75,2.15-.93,4.66-.54,7-.5,3.27.05,6.59.16,9.75,1,2.38.63,5.25,1.04,6.75,3,.67.87.78,2.19.5,3.25-.48,1.84-1.87,3.52-3.5,4.5-2.1,1.26-4.99,2.21-7.25,1.25-2.04-.87-3.16-3.36-3.75-5.5-.35-1.29-.27-2.77.25-4,.53-1.25,1.83-2,2.75-3"/>
          <path id="path4053-5" class="cls-13" d="M61.42,38.9c.72-2.33,4.51-4.67,8.5-7"/>
        </g>
        <path id="path4064-9" class="cls-7" d="M406.67,109.65h-162.73s19.81,1.41,28.97,4.89c4.16,1.58,11.31,7.07,11.31,7.07l78.49,2.12s7.2-5.04,11.31-6.36c4.06-1.31,8.55-2.3,12.73-1.41,3.2.68,6.07,2.74,8.49,4.95,1.5,1.37,2.64,3.13,3.54,4.95,1.08,2.21,1.76,4.64,2.12,7.07.34,2.33,0,7.07,0,7.07l5.77-10.34v-20Z"/>
        <path id="path4066-9" class="cls-13" d="M406.67,99.65h-174"/>
        <path id="path4072-8" class="cls-17" d="M341.9,47.85c-2.81,2.81,2.81,9.12,0,11.93-2.81,2.81-9.12,2.81-11.93,0s2.81-9.12,0-11.93c-2.81-2.81-9.12,2.81-11.93,0-2.81-2.81-2.81-9.12,0-11.93,2.81-2.81,9.12,2.81,11.93,0,2.81-2.81-2.81-9.12,0-11.93,2.81-2.81,9.12-2.81,11.93,0,2.81,2.81-2.81,9.12,0,11.93,2.81,2.81,9.12-2.81,11.93,0,2.81,2.81,2.81,9.12,0,11.93-2.81,2.81-9.12-2.81-11.93,0Z"/>
        <path id="path4076-1" class="cls-1" d="M199.32,115.28l-13.65-9.63L269.67-24.85s2.62,4.35,4.5,6c2.3,2.02,8,4.5,8,4.5l-82.85,129.63Z"/>
        <path id="path4078-8" class="cls-5" d="M186.06,105.91l-7.89-4.76,86-133.5,5,8-83.11,130.26Z"/>
        <path id="path4080-2" class="cls-1" d="M178.82,100.54l-9.65-6.89,90-139,4.63,14.21-84.98,131.68Z"/>
        <path id="path4082-6" class="cls-1" d="M168.17,93.65L18.67-.85v-16l155,99-5.5,11.5Z"/>
        <path id="path4084-6" d="M174.8,83.49l10.95-17.38L18.67-41.35v24.4l156.13,100.44Z"/>
        <path id="path4086-0" class="cls-1" d="M185.56,67.12l5.68-9.58L18.67-52.85v12l166.89,107.97Z"/>
        <path id="path4088-3" class="cls-4" d="M16.67-134.35s32.42,25.33,45.5,41c11.17,13.39,20.76,28.42,27.5,44.5,6.19,14.77,11.45,46.66,11.45,46.66l15.5,9.78s-7.32-43.42-15.95-63.44c-7.98-18.51-19.4-35.68-32.5-51-14.88-17.41-51.5-45.5-51.5-45.5v18Z"/>
        <path id="path4092-8" class="cls-4" d="M150.17,27.65s-3.28-50.69-10-75c-4.94-17.84-12.25-35.26-22-51-13.46-21.71-30.36-41.58-49.5-58.5-15.52-13.71-52-34-52-34v-13.4s42.22,24.11,60.5,39.9c17.42,15.05,33.36,32.26,46,51.5,12.2,18.57,21.53,39.24,28,60.5,4.96,16.31,8,50.5,8,50.5l41.25-65.5,13,5.25-60.25,91.75-3-2Z"/>
        <path id="path11046-0" class="cls-13" d="M16.67-370.35c19.94,4.47,39.36,10.11,58,18,3.85,1.63,7.4,3.88,11,6,11.56,6.8,23.4,13.28,34,21.5,3.07,2.38,5.64,5.37,8.5,8,8.91,8.19,18.25,15.9,27,24.25,6.18,5.9,12.22,11.96,18,18.25,6.16,6.7,12.09,13.62,17.75,20.75,8.82,11.1,17.77,22.2,25.25,34.25,9.2,14.82,18.14,30.07,24,46.5,2.97,8.34,3.78,17.31,5.5,26,2.14,10.81,4.19,21.63,6,32.5.75,4.49,1.43,8.99,2,13.5,1.59,12.47,2.68,25,4,37.5.68,6.42.63,12.95,2,19.25.93,4.3,2.19,8.59,4.19,12.51,1.64,3.22,3.81,6.21,6.3,8.82,3.51,3.68,7.52,6.99,11.97,9.45,3.02,1.67,6.39,2.76,9.77,3.47,2.99.62,6.09.42,9.14.63,0,0,18.24,17.98,30.13,20.29,9.62,1.87,28.76-6.1,28.76-6.1,0,0,17.96,13.95,28.32,13.07,7.43-.63,18.45-12.67,18.45-12.67,0,0,14.88,10.44,22.94,8.92,8.73-1.65,19.61-18.03,19.61-18.03"/>
        <path id="path4094-1" class="cls-13" d="M301.04-9.22l-56.37,88.87h162"/>
        <path id="path4124-16" class="cls-17" d="M118.17-1.35s13.53,6.32,19.5,3.5c2.77-1.3,5.74-5.2,4.5-8-.9-2.03-4.28-1.62-6.5-1.5-6.16.32-17.5,6-17.5,6Z"/>
        <path id="path4176-43" class="cls-13" d="M396.67,91.65v-4h-20v4h20Z"/>
        <g id="g10921-6-8">
          <path id="path4124-6-8-9-2" class="cls-17" d="M207.35,1.59s-11.3-5.44-16.19-2.96c-2.73,1.39-5.39,5.55-3.98,8.27,1.03,1.97,4.38,1.39,6.58,1.08,4.96-.69,13.59-6.4,13.59-6.4h0Z"/>
        </g>
        <g id="g10921-0-4">
          <path id="path4124-6-2-0-2" class="cls-17" d="M185.68,30.82s-4.64-12.37-10.18-14.11c-2.92-.92-7.74.12-8.66,3.04-.67,2.12,2.13,4.06,3.89,5.42,4.23,3.24,14.95,5.65,14.95,5.65h0Z"/>
          <path id="path4124-6-4-6-5" class="cls-17" d="M191.41,30.3s2.34-13.36-1.55-17.92c-1.99-2.32-6.55-4.14-8.91-2.2-1.72,1.41-.46,4.57.29,6.66,1.91,5.29,10.17,13.45,10.17,13.45h0Z"/>
          <path id="path4124-6-8-1-8" class="cls-17" d="M188.36,35.46s-11.8-6.15-17-3.6c-2.75,1.35-5.39,5.55-3.98,8.27,1.03,1.97,4.37,1.33,6.58,1.08,5.14-.56,14.4-5.76,14.4-5.76Z"/>
        </g>
        <path id="path10966-6" class="cls-14" d="M17.77-54.9L191.57,56.73"/>
        <path id="path10968-2" class="cls-14" d="M206.5,119.66L16.67-1.66"/>
        <path id="path10970-6" class="cls-14" d="M167.74,94.77l91.7-140.23"/>
        <path id="path4176-3-5" class="cls-13" d="M366.67,91.65v-4h-20v4h20Z"/>
        <path id="path4176-8-3" class="cls-13" d="M336.67,91.65v-4h-20v4h20Z"/>
        <path id="path4176-9-9" class="cls-13" d="M306.67,91.65v-4h-20v4h20Z"/>
        <path id="path4176-34-2" class="cls-13" d="M276.67,91.65v-4h-20v4h20Z"/>
        <path id="path4176-4-4" class="cls-13" d="M246.67,91.65v-4h-6.6l-2.4,4h9Z"/>
        <path id="path11024-1" d="M487.17,107.4l-.5-69.25,19.25,16.5-.75,44.75-18,8Z"/>
        <path id="path11026-8" class="cls-7" d="M478.42,110.65l-.25-80.25-26.5-28.5-2.75-2.75s-3.31,3.69-5,5.5c-2.46,2.64-7.5,7.82-7.5,7.82l.25,100.68,8.75,3.25,6.75,4.25,26.25-10Z"/>
        <path id="path11030-2" class="cls-3" d="M452.22,118.34c.63-5.75.44-13.75,1.62-18.12,1.03-3.8,2.88-7.56,5.06-11.25,2.54-4.29,7.42-8.26,10.81-14.38,3.17-5.71,6.89-12.23,7.5-19.88.53-6.55-1.04-9.17-3.94-14.88-3.35-6.59-9.18-9.93-12.19-13.69-2.37-2.97-6.35-5.22-7.81-8.06-1.16-2.26-3.86-12.57-5.06-16l-10.25,8.12c.96,2.74,3.11,9.69,4.94,13.25,1.98,3.86,5.11,6.52,7.44,9.44,4.29,5.37,8.62,7.74,10.56,11.56,2.27,4.46,3.2,6.55,2.81,11.38-.43,5.34-1.85,9.19-5,14.88-2.38,4.29-7.16,8.17-10.69,14.12-2.37,4.01-4.62,8.41-5.94,13.25-1.63,5.98-1.34,11.7-1.88,16.62l12,3.62Z"/>
        <path id="path11028-1" class="cls-4" d="M460.92,115.46l12-2.88c-.53-6.37.67-14.08-1.94-21.94-2.38-7.17-7.46-12.08-10.44-16.88-3.5-5.63-7.64-9.68-8.75-13.88-.93-3.52-.27-8.03.56-12.81.73-4.22,2.02-8.39,3.88-12.19,1.2-2.44,3.54-4.96,5.75-8.31,1.85-2.8,3.34-4.35,5.06-7.06l-8-9.75c-1.77,2.79-5.94,9.79-7.69,12.44-1.69,2.55-4.33,5.28-6.25,9.19-2.22,4.54-3.77,9.39-4.62,14.31-.83,4.75-1.98,10.35-.44,16.19,1.9,7.16,7.05,11.78,9.75,16.12,3.66,5.89,7.98,10.36,9.56,15.12,1.82,5.47.93,14.69,1.56,22.31Z"/>
        <path id="path11020-1" class="cls-13" d="M451.92,121.4c10.67-3.42,21.33-7.25,31.75-11.5,8.56-3.49,17.09-7.14,25.25-11.5,11.58-6.19,22.33-13.83,33.5-20.75"/>
        <path id="path11048-9" class="cls-15" d="M406.67,69.24V5.8"/>
        <path id="path11050-7" class="cls-13" d="M450.22-3.52s9.2,13.31,14.32,19.55c3.98,4.85,8.37,9.36,12.73,13.87,3.76,3.89,7.58,7.74,11.6,11.37,5.56,5.01,11.3,9.83,17.28,14.32,10.91,8.19,33.88,22.96,33.88,22.96"/>
      </g>
    </g>
  </g>
  <g class="cls-18">
    <g>
      <path id="path9013" class="cls-1" d="M416.47,622.91l-16.55,1.17-21.23-4.12-23.38-9.17-20.37-11.51-15.69-13.05-28.92-36.06-15.38-21.54-14.46-12.74-28.12-20.68-24.25-12.98-29.85-8.86-23.32-2.4-16.86-.31-19.2,5.66,19.45,34.15,16.55-1.17,21.29,4.18,23.32,9.11,20.43,11.57,15.63,12.98,28.98,36.06,15.38,21.6,14.46,12.68,28.06,20.68,24.25,13.05,29.85,8.86,23.32,2.34,16.86.31,19.2-5.6-19.45-34.21Z"/>
      <path id="path9021" class="cls-1" d="M259.92,418.18l65.78,53.41-.49,108.92-6.71,4.62-11.82-11.82-17.97-24.12-14.89-21.05-6.71-7.2-8.18-6.71.98-96.06Z"/>
      <path id="path9023" class="cls-1" d="M350.38,607.22l43.14-31.32,4.12,8.25-36.98,29.29-10.28-6.22Z"/>
      <path id="path9025" class="cls-1" d="M318.51,584.15l62.71-41.11,3.57,8.18-58.58,38.58-7.69-5.66Z"/>
      <path id="path9027" class="cls-1" d="M341.65,459.78l-.55,109.47,41.66-27.26-6.71-30.83-4.62-29.78-1.05-27.75.55-14.89-29.29,21.05Z"/>
      <path id="path9029" d="M325.21,589.81l59.57-39.57s4.18,10.58,6.15,15.94c1.23,3.2,3.63,9.72,3.63,9.72l-44.18,31.88s-11.26-3.69-15.94-7.2c-3.82-2.83-9.23-10.77-9.23-10.77h0Z"/>
      <path id="path9031" d="M221.59,389.2l102.89,82.09,46.46-29.54-.43-24.31,1.29-23.01.86-18.22-47.32,32.12-60.8-49.97-7.82-3.88-4.31-3.94-6.95-.86-3.94-5.66-5.17,1.35-5.23-6.52h-5.23l-4.31-3.94v54.28Z"/>
      <path id="path9033" d="M204.23,326.24l-.43,154.58,10.4,3.88,8.68,4.8-.43-155.01-5.66-.86-5.6-5.66-3.51,1.35-3.45-3.08Z"/>
      <path id="path9035" class="cls-2" d="M416.11,459.53l35.14-17.35s6.77,19.2,10.46,28.68c3.69,9.48,7.02,19.14,11.69,28.18,3.14,6.09,6.65,12,10.83,17.42,4.12,5.23,13.91,14.28,13.91,14.28l-.43,136.37s-17.17-20.8-24.31-32.12c-6.22-9.91-10.95-20.74-16.06-31.26-6.65-13.78-13.72-27.38-19.08-41.72-3.63-9.6-6.15-19.57-8.74-29.48-2.65-10.34-4.98-20.8-6.89-31.26-1.42-7.63-2.28-15.38-3.51-23.01-.98-6.28-3.02-18.71-3.02-18.71h0Z"/>
      <path id="path9037" class="cls-1" d="M422.63,357.5l47.32,25.6-4.8,17.85,1.72,17.35,5.23,11.69-13.91,10.46-23.88,10.4-17.78,7.38-1.72-17.35v-20.86l1.29-24.31,3.88-27.32,2.65-10.89Z"/>
      <path id="path9039" class="cls-5" d="M357.89,613.25l39.51-29.54s6.89,15.08,10.46,22.58c2.83,5.97,8.68,17.78,8.68,17.78,0,0-19.26,1.23-28.68-.43-10.4-1.85-29.97-10.4-29.97-10.4h0Z"/>
      <path id="path9043" class="cls-5" d="M131.25,355.97l.31,116.06-12,3.69s-19.45-27.14-29.41-40.55c-7.26-9.66-15.08-18.95-22.15-28.86-1.72-2.4-4.92-7.32-4.92-7.32,0,0,19.26-14.03,29.17-20.62,7.08-4.62,14.22-8.98,21.54-13.17,5.72-3.26,17.48-9.23,17.48-9.23Z"/>
      <path id="path9045" d="M159.49,341.87l-.62,128.92s-9.6-.49-14.4-.31c-4.98.25-14.77,1.54-14.77,1.54l.31-116.06s10.95-5.91,16.55-8.55c4.25-2.03,12.92-5.54,12.92-5.54Z"/>
      <path id="path9047" class="cls-1" d="M320.97,209.26c-12.25.18-24.55-.18-36.8.62-10.22.62-20.37,1.78-30.4,3.32-6.65,1.05-13.11,2.71-19.69,4-.98,7.2-2.09,14.34-3.08,21.48-1.05,8.12-1.91,16.18-3.02,24.31-.86,6.03-1.35,12.12-2.77,18.09-.86,3.57-2.28,6.95-3.38,10.46l-4.62.62c-1.54-1.54-2.52-4-4.62-4.62-2.77-.86-6.03.12-8.62,1.54-3.69,1.97-6.34,5.6-8.55,9.17-2.15,3.45-3.88,7.32-4.31,11.38-.25,2.58.18,5.29,1.23,7.69.8,1.78,1.91,3.75,3.69,4.62,1.72.8,3.88,0,5.85,0,.98,1.42,1.66,3.14,3.02,4.25,2.09,1.72,4.92,2.28,7.38,3.38,1.35,1.54,2.15,3.75,4,4.62,1.6.74,3.51,0,5.23,0,1.54,1.42,2.65,3.51,4.62,4.31,1.6.62,3.45,0,5.17,0,1.78,2.03,2.77,5.05,5.23,6.15,1.78.74,3.88-.25,5.85-.31,1.54,1.85,2.46,4.49,4.62,5.54,1.78.8,3.88,0,5.85,0,1.91,1.6,3.63,3.57,5.78,4.86,2.52,1.54,5.23,2.71,8,3.38,2.89.68,5.97,1.17,8.92.62,3.2-.55,6.28-2.09,8.92-4,2.89-2.09,5.35-4.92,7.32-7.94,2.77-4.12,4.62-8.8,6.15-13.54,2.77-8.55,3.63-17.54,5.23-26.4,2.03-11.51,3.51-23.14,5.54-34.71,1.97-11.45,4.18-22.95,6.4-34.34,1.91-9.54,3.94-19.08,5.85-28.55h0Z"/>
      <path id="path9049" class="cls-2" d="M193.77,150l34.77,69.48s17.66-4.68,26.71-6.15c14.15-2.28,28.43-3.82,42.77-4.31,17.35-.55,34.77.25,52.06,1.72,20.43,1.85,60.8,8.74,60.8,8.74l39.94-69.48H193.77Z"/>
      <path id="path9051" class="cls-6" d="M219.56,152.52l26.34,51.32c11.26-3.94,19.82-4.06,34.21-5.66l-6.77-45.66h-9.97l8.86,39.51c-8.25.55-14.77.49-21.91,3.32l-19.32-42.83h-11.45Z"/>
      <path id="path9053" class="cls-6" d="M288.78,152.52l5.29,43.94c17.48-1.6,31.51-2.58,48.98-.8l9.54-43.14h-11.2l-5.29,34.4c-13.72-.8-21.85.06-33.35.86l-3.88-35.26h-10.09Z"/>
      <path id="path9055" class="cls-6" d="M369.64,152.52l-12.74,43.51c12.8,1.11,31.38,2.77,45.29,6.03l23.81-49.54h-11.02l-18.03,40.86c-7.75-2.09-20.86-3.02-28.61-4.12l10.83-36.74h-9.54Z"/>
      <path id="path9057" class="cls-12" d="M320.6,210.74s-6.03,28.92-8.74,43.45c-3.14,17.29-5.05,34.89-8.68,52.12-2.4,11.69-2.77,24.31-8.68,34.71-4,7.14-9.42,15.26-17.35,17.35-7.69,2.03-17.72-.31-23.01-6.22-4.43-4.98-5.35-13.54-3.02-19.82,2.46-6.83,9.17-14.46,16.43-14.22,7.57.25,15.94,8.49,16.06,16,.06,6.77-7.26,14.34-14.03,14.77-4.18.31-9.23-3.69-9.78-7.88-.68-4.86,3.75-11.88,8.68-11.82,2.95,0,6.95,3.45,5.11,7.2"/>
      <path id="path9059" class="cls-12" d="M310.45,209.32c-5.11,15.57-6.4,31.38-9.11,47.2-2.77,15.69-3.51,31.69-7.2,47.2-2.95,12.31-6.28,25.41-11.82,36.06"/>
      <path id="path9061" class="cls-12" d="M298.82,209.32c-3.88,13.54-5.05,27.88-7.2,41.85-2.09,13.66-2.83,27.57-5.48,41.11-1.91,9.85-3.32,19.69-7.51,28.98"/>
      <path id="path9063" class="cls-12" d="M288.48,210c-3.45,12.92-4.49,26.65-6.4,40-1.85,13.05-2.52,26.4-4.86,39.32-1.72,9.35-2.95,18.83-6.71,27.69"/>
      <path id="path9065" class="cls-12" d="M278.38,211.11c-3.14,12.31-4.06,25.29-5.78,38.03-1.66,12.37-2.28,24.98-4.37,37.29-1.54,8.92-2.65,17.91-6.03,26.28"/>
      <path id="path9067" class="cls-12" d="M268.48,212.03c-3.08,11.69-4.06,24.06-5.72,36.12-1.72,11.82-2.28,23.81-4.43,35.51-1.54,8.49-2.65,16.98-6.03,24.98"/>
      <path id="path9069" class="cls-12" d="M257.4,213.57c-3.02,10.95-3.69,21.85-5.29,32.74-1.6,11.02-2.22,22.15-4.31,33.05-1.48,7.88-2.52,15.82-5.85,23.26"/>
      <path id="path9071" class="cls-12" d="M246.69,215.17c-2.89,9.97-3.75,20.49-5.29,30.77-1.54,10.03-2.09,20.25-4,30.21-1.42,7.2-2.46,14.46-5.54,21.29"/>
      <path id="path9073" class="cls-12" d="M234.57,218.55c-2.46,8.92-3.2,17.72-4.49,26.65-1.35,8.98-1.78,18.15-3.45,27.08-1.17,6.46-2.03,12.98-4.68,19.08"/>
      <path id="path9075" class="cls-12" d="M269.22,318.8c-2.83-1.91-5.35-5.35-8.74-5.48-5.6-.18-11.14,3.57-14.77,7.75-3.88,4.49-6.22,10.89-5.78,16.8.25,4.25,2.34,8.8,5.72,11.38,1.66,1.23,3.51.92,6.22,1.17"/>
      <path id="path9077" class="cls-12" d="M257.95,313.2c-2.34-2.58-4.12-4.62-6.89-4.8-5.6-.31-11.14,3.57-14.77,7.82-3.88,4.43-6.22,10.83-5.78,16.74.25,4.25,2.09,9.17,5.72,11.38,1.72,1.05,3.26,1.23,6.03-.12"/>
      <path id="path9079" class="cls-12" d="M249.46,308.03c-2.83-1.91-5.35-5.35-8.74-5.48-5.6-.18-11.14,3.57-14.77,7.82-3.88,4.43-6.22,10.83-5.78,16.74.25,4.25,2.09,9.11,5.72,11.38,1.54.98,2.83,1.05,5.54.12"/>
      <path id="path9081" class="cls-12" d="M237.77,302.18c-2.15-3.08-4.31-4.62-7.2-4.8-5.54-.25-11.14,3.57-14.77,7.82-3.82,4.43-6.15,10.83-5.78,16.74.31,4.25,2.28,8.92,5.72,11.38,1.6,1.11,2.83,1.48,5.85.8"/>
      <path id="path9083" class="cls-12" d="M227.86,296.34c-1.05-2.58-3.88-4.37-6.52-4.55-5.54-.37-11.14,3.57-14.71,7.75-3.88,4.49-6.22,10.89-5.85,16.8.31,4.25,2.28,8.86,5.78,11.32,1.29.98,2.03.43,4.74.68"/>
      <path id="path9085" class="cls-12" d="M217.52,291.84c-1.05-3.08-3.08-4.12-5.35-4.31-5.54-.55-11.14,3.51-14.77,7.75-3.88,4.49-5.97,10.83-5.78,16.74.06,3.14,1.11,6.65,3.45,8.68,1.85,1.66,4.43,1.72,7.14,1.91"/>
      <path id="path9087" class="cls-12" d="M410.51,220.28c-1.48,17.66-2.52,35.26-4.37,52.86-.98,9.6-1.85,19.26-3.51,28.8-2.28,12.62-2.83,26.03-8.68,37.41-3.57,6.89-9.29,12.68-15.38,17.35-5.6,4.31-12.06,7.82-18.95,9.48-7.14,1.78-14.83,1.91-22.09.43-7.2-1.54-13.6-5.6-20.06-9.11-8.12-4.37-15.51-9.97-23.26-14.95"/>
      <path id="path9089" class="cls-12" d="M317.03,243.54c6.83-1.97,13.48-4.8,20.49-5.91,4.55-.68,9.42-1.6,13.85-.37,2.22.62,6.22,2.4,5.91,3.75-.18.68-1.29.55-1.97.55-2.58.06-4.92-1.6-7.51-1.97-3.75-.49-7.63-.37-11.45,0-6.52.68-12.86,2.65-19.32,3.94Z"/>
      <path id="path9091" class="cls-12" d="M355.31,257.94c.8-.86,3.02-1.6,2.34-2.52-.8-1.29-5.72-4.43-9.05-5.72-3.14-1.23-6.58-1.72-10.03-1.78-3.57-.12-7.2.43-10.71,1.35-2.4.68-4.31,1.72-7.02,2.89"/>
      <path id="path9093" class="cls-12" d="M313.28,260.15c5.78-1.48,11.45-3.69,17.35-4.37,4.18-.49,8.49-.62,12.62.18,3.38.68,6.71,1.97,9.54,3.82,1.85,1.29,3.26,3.08,4.68,4.86-2.83,1.23-5.48,3.02-8.49,3.75-4.74,1.23-9.72,1.72-14.58,1.17-4.12-.43-8.06-2.03-11.82-3.75-3.32-1.48-6.15-3.82-9.29-5.66Z"/>
      <path id="path9095" class="cls-12" d="M327.86,257.57c.18,2.03-.55,4.31.43,6.09,1.17,2.15,3.57,3.57,5.91,4.37,1.78.55,3.94.62,5.72,0,1.72-.68,3.2-2.03,4.12-3.57,1.29-2.15,1.05-4.86,1.6-7.32"/>
      <path id="path9097" class="cls-6" d="M334.45,258.98c-.55.62-.31,1.78.12,2.46.49.8,1.42,1.42,2.28,1.42.92.06,1.85-.55,2.28-1.29.55-.8.86-2.15.18-2.83-1.17-1.11-3.82-.86-4.86.25h0Z"/>
      <path id="path9099" class="cls-6" d="M327.31,278.24c4.12-.8,9.91-1.72,14.58-3.51,4.12-1.6,8.06-4.68,11.63-6.34"/>
      <path id="path9101" class="cls-12" d="M376.41,248.09c-1.05,2.58-2.65,4.98-3.2,7.69-.98,5.54-.25,11.32.43,16.98.8,6.89,3.32,13.6,4.49,20.49.74,3.94,2.52,8.06,1.6,12-.43,1.97-1.91,3.57-3.32,4.92-1.78,1.66-4.25,2.52-6.34,3.75"/>
      <path id="path9103" class="cls-12" d="M353.34,291.1c-2.71,2.95-6.65,5.11-8.12,8.86-.68,1.78-.8,3.94,0,5.72.98,2.03,2.95,3.82,5.17,4.31,1.78.43,3.69-.55,5.29-1.35,2.09-1.11,3.26-3.57,5.35-4.55,1.48-.74,3.32-1.6,4.92-.98.49.18,1.11.86.98,1.35-.55,1.78-3.45,1.35-5.11,1.97-2.28.86-4.49,1.6-6.71,2.4"/>
      <path id="path9105" class="cls-6" d="M340.23,327.9c2.77-1.42,6.71-1.11,10.03-1.05,3.45.06,6.77,1.66,10.15,1.54,3.88-.18,7.45-2.77,11.38-2.77,2.83-.06,6.09,1.23,8.31,1.85-.12.98-.43,2.28,0,3.02-2.83-1.05-6.89-2.58-10.4-2.15-3.32.43-5.72,4.25-9.11,4.31-3.88.12-6.89-4.31-10.83-4.49-3.75-.12-7.69,2.83-10.65,3.51.8-1.11,1.17-2.95,1.11-3.75h0Z"/>
      <path id="path9107" class="cls-12" d="M347.06,339.97c2.77,1.17,5.35,2.95,8.31,3.51,2.15.43,4.49.37,6.71-.06,1.48-.25,2.83-.98,4.25-1.54,1.29-.55,2.52-1.23,3.82-1.78"/>
      <path id="path9109" class="cls-12" d="M367.06,348.64c-2.03-.86-3.94-1.6-5.97-1.6-1.72,0-3.32.68-4.92,1.42"/>
      <path id="path9111" class="cls-6" d="M378.38,242.98c2.71-3.2,8.68-4,13.35-4.37,3.45-.25,6.83.68,10.15,1.66,2.34.68,4.62,1.97,6.83,3.02-3.75-.74-7.63-2.09-11.51-2.22-3.38-.06-6.77.62-10.09,1.35-2.34.55-4.49,1.66-6.58,2.77-.86.49-2.83-1.42-2.15-2.22Z"/>
      <path id="path9113" class="cls-12" d="M377.4,254.8c2.71-1.35,5.17-3.2,8.06-3.94,4.06-1.17,8.49-1.72,12.62-.98,2.77.49,5.11,2.34,7.69,3.45"/>
      <path id="path9115" class="cls-12" d="M375.61,260.52c2.95-1.17,6.58-2.09,9.91-2.52,3.88-.49,7.88-.62,11.75-.12,2.28.31,4.68.74,6.71,1.91,1.23.74,2.03,2.09,3.08,3.14l-.62,4.74c-2.03.74-4.06,1.78-6.22,2.15-2.89.55-5.97.55-8.92.37-3.2-.18-6.46-.37-9.48-1.54-2.28-.92-4.31-2.46-6.22-4.06-.62-.55-1.11-1.17-1.66-1.78.55-.74.8-1.91,1.66-2.28h0Z"/>
      <path id="path9117" class="cls-12" d="M383.24,259.23c.12,2.03-.55,4.31.43,6.09,1.17,2.15,3.57,3.63,5.91,4.37,1.78.62,3.94.68,5.72,0,1.66-.62,3.2-1.97,4.12-3.57,1.29-2.09,1.05-4.86,1.6-7.26"/>
      <path id="path9119" class="cls-6" d="M389.27,260.71c-.55.62-.31,1.72.12,2.46.49.74,1.42,1.35,2.28,1.42.92,0,1.85-.55,2.28-1.29.55-.8.86-2.22.18-2.89-1.17-1.05-3.75-.86-4.86.31h0Z"/>
      <path id="path9121" class="cls-12" d="M377.03,269.94c2.22,2.4,4,5.23,6.58,7.26,2.09,1.6,4.62,2.46,6.95,3.69"/>
      <path id="path9123" class="cls-2" d="M404.91,286.49c1.17,5.05,2.4,8.43,4.55,12.18,2.22,3.69,4.74,7.38,8.31,9.78,2.83,1.85,6.28,3.32,9.66,3.02,3.08-.25,6.34-1.72,8.25-4.18,1.91-2.46,2.22-6.03,2.03-9.17-.18-2.83-.98-5.91-2.89-8.06-1.66-1.97-4.18-3.32-6.71-3.57-1.78-.18-3.82.12-5.11,1.35-.98.92-1.35,2.52-1.35,3.88.06,1.48-.12,3.02,1.72,4.06-1.35-.55-2.28-2.28-3.26-3.57-1.29-1.85-2.4-3.94-3.32-6.09-1.11-2.4-1.85-4.98-2.58-7.57-.92-3.51-1.6-7.14-2.34-10.65-1.23-5.6-2.65-12.31-3.57-16.74-.98,9.6-2.34,25.66-3.38,35.32h0Z"/>
      <path id="path9125" class="cls-2" d="M400.17,321.2c1.11,5.05,4.49,14.89,8.43,21.48,2.22,3.69,4.86,7.26,8.31,9.78,2.77,2.03,6.03,4.31,9.48,4.06,3.26-.25,6.52-2.52,8.43-5.23,1.78-2.52,2.22-6.03,2.03-9.11-.18-2.89-.98-5.97-2.89-8.12-1.66-1.91-4.18-3.26-6.77-3.57-1.72-.18-3.75.18-5.05,1.35-.98.92-1.42,2.52-1.35,3.88.12,1.42.06,2.71,1.85,3.75-1.35-.55-2.4-1.97-3.38-3.2-1.42-1.85-2.4-4-3.38-6.09-1.05-2.46-1.72-5.11-2.52-7.63-.92-3.02-1.78-6.09-2.71-9.11-2.03-7.14-5.17-16.86-6.09-21.29-.98,9.6-3.38,19.38-4.37,29.05h0Z"/>
      <path id="path9127" class="cls-2" d="M396.29,334.8s1.6,4.98,2.71,7.32c1.29,2.65,4.55,7.57,4.55,7.57,0,0,5.6,2.52,8.49,3.57,2.71.98,8.25,2.52,8.25,2.52,0,0-6.4-4.98-8.92-8.12-2.22-2.71-3.75-5.91-5.29-9.11-1.42-3.08-2.4-6.4-3.51-9.66-.98-2.89-2.71-8.8-2.71-8.8,0,0-.98,5.78-1.72,8.68-.49,2.03-1.85,6.03-1.85,6.03h0Z"/>
      <path id="path9129" class="cls-2" d="M403.55,349.69l-11.82-6.77,4.55-8.25,7.26,15.02Z"/>
      <path id="path9131" class="cls-2" d="M281.34,357.01l43.26,35.94,48.74-32.06-1.17,15.57-46.95,32.31-60.98-50.34c4.92,1.66,11.45,1.42,17.11-1.42Z"/>
      <path id="path9133" class="cls-12" d="M159.49,373.2l16.25,18.4-15.94,16.86"/>
      <path id="path9135" class="cls-12" d="M160.11,384.33l5.85,6.77-5.85,6.09"/>
      <path id="path9137" class="cls-6" d="M182.51,352.33l-16.25,16.86,15.63,17.17,15.82-17.17-15.2-16.86ZM182.2,359.6l9.29,8.68-9.29,10.22-8.98-8.98,8.98-9.91Z"/>
      <path id="path9139" class="cls-2" d="M537.64,188.21l-65.97,62.52h65.97v-62.52Z"/>
      <path id="path9141" class="cls-2" d="M537.64,202.06l-39.94,38.21h39.94v-38.21Z"/>
      <path id="path9143" class="cls-12" d="M158.51,417.63l16.25,18.46-15.94,16.86"/>
      <path id="path9145" class="cls-12" d="M159.13,428.83l5.85,6.71-5.85,6.15"/>
      <path id="path9147" class="cls-12" d="M202.76,375.1l-15.94,17.11,15.94,16.86"/>
      <path id="path9149" class="cls-12" d="M202.45,384.95l-5.85,6.77,5.85,6.09"/>
      <path id="path9151" class="cls-12" d="M201.52,451.59l-14.95-16.12,15.94-16.86"/>
      <path id="path9153" class="cls-12" d="M202.2,442.73l-5.78-6.71,5.78-6.15"/>
      <path id="path9155" class="cls-6" d="M180.79,397.07l-16.25,16.86,15.63,17.17,16.49-17.48-15.88-16.55ZM180.48,404.33l9.29,8.68-9.29,10.22-8.98-8.98,8.98-9.91Z"/>
      <path id="path9157" class="cls-6" d="M181.46,441.13l-16.18,16.86,15.63,16.37,16.8-16-16.25-17.23ZM181.22,448.39l9.29,8.68-9.29,10.22-9.05-8.92,9.05-9.97Z"/>
      <path id="path9159" class="cls-12" d="M203.12,362.37l-14.58-15.75,13.6-14.58"/>
      <path id="path9161" class="cls-12" d="M202.88,353.2l-5.85-6.09,4.8-5.78"/>
      <path id="path9163" class="cls-12" d="M160.17,365.69l17.29-18.09-9.97-10.52"/>
      <path id="path9165" class="cls-12" d="M160.79,354.55l5.85-6.77-5.85-6.15"/>
      <path id="path9167" class="cls-2" d="M158.63,463.1l6.71,8"/>
      <path id="path9169" class="cls-2" d="M203.31,462.73l-12.31,12.68"/>
      <path id="path9171" class="cls-2" d="M159.31,342.37l-.98,128.31"/>
      <path id="path9173" class="cls-2" d="M203.68,326.67l-.37,153.54"/>
      <path id="path9175" class="cls-6" d="M175,334.37l7.63,7.63,14.71-14.65-2.34-4-20,11.02Z"/>
      <path id="path9177" class="cls-2" d="M497.7,250.74v123.26l10.46,3.51v-126.77h-10.46Z"/>
      <path id="path9179" class="cls-2" d="M508.16,737v-350.82h-10.46v354.27l39.94,34.77v-12.18l-29.48-26.03Z"/>
      <path id="path9253" class="cls-6" d="M394.38,394.8l-16.25,16.92,15.63,17.17,16.8-16.86-16.18-17.23ZM394.07,402.12l9.29,8.68-9.29,10.15-8.98-8.92,8.98-9.91Z"/>
      <path id="path9255" class="cls-6" d="M400.84,347.04l-18.28,14.71,13.35,19.02,18.77-14.58-13.85-19.14ZM399.67,354.24l8.06,9.78-10.52,8.92-7.75-10.03,10.22-8.68Z"/>
      <path id="path9257" class="cls-6" d="M393.77,439.72l-14.34,17.23,17.42,14.28,14.52-17.23-17.6-14.28ZM394.26,446.49l10.15,7.08-8.12,10.34-9.91-7.38,7.88-10.03Z"/>
      <path id="path9259" class="cls-6" d="M398.01,480.33l-13.6,19.08,17.97,14.77,14.22-19.14-18.58-14.71ZM398.81,487.59l10.46,7.2-7.69,11.45-10.22-7.51,7.45-11.14Z"/>
      <path id="path9261" class="cls-6" d="M405.27,525.13l-10.46,20.92,20,11.82,11.08-21.11-20.62-11.63ZM407.18,532.15l11.45,5.54-5.85,12.49-11.26-5.85,5.66-12.18Z"/>
      <path id="path9263" class="cls-6" d="M417.89,569.25l-8.49,21.85,21.05,9.85,9.05-22.03-21.6-9.66ZM420.47,576.08l11.88,4.43-4.62,12.98-11.75-4.74,4.49-12.68Z"/>
      <path id="path9265" class="cls-6" d="M436.54,613.81l-4.18,23.01,22.52,5.72,4.68-23.32-23.01-5.42ZM440.35,620.02l12.55,2.09-2.15,13.6-12.43-2.46,2.03-13.23Z"/>
      <path id="path9267" class="cls-6" d="M459.92,654.97l-2.22,23.32,22.95,3.75,2.65-23.69-23.38-3.38ZM464.23,660.88l12.68.98-.92,13.78-12.62-1.42.86-13.35Z"/>
      <path id="path9269" class="cls-12" d="M418.26,373.63l-17.72,14.22,14.03,17.35"/>
      <path id="path9271" class="cls-12" d="M416.91,382.67l-6.52,5.72,5.11,6.28"/>
      <path id="path9273" class="cls-12" d="M420.41,357.5s-2.52,21.41-3.45,32.12c-1.29,14.89-3.2,29.78-3.08,44.74.18,13.11,1.85,26.09,3.51,39.08,1.78,13.85,3.82,27.63,6.95,41.23,3.45,15.14,7.82,30.09,12.98,44.74,4.74,13.17,10.34,26.09,16.55,38.65,6.65,13.54,14.03,26.77,22.09,39.51,6.15,9.72,20,28.25,20,28.25"/>
      <path id="path9275" class="cls-12" d="M372.72,403.78l18.46-19.69-16.49-19.82"/>
      <path id="path9277" class="cls-12" d="M373.46,392.46l7.88-8.25-7.26-8.98"/>
      <path id="path9279" class="cls-12" d="M413.52,418.43l-14.83,14.28,13.72,15.08"/>
      <path id="path9281" class="cls-12" d="M412.97,426.86l-5.48,5.66,5.05,5.48"/>
      <path id="path9283" class="cls-12" d="M371.06,455.72l17.78-20.31-17.11-19.26"/>
      <path id="path9285" class="cls-12" d="M371.43,444.39l7.57-8.55-7.57-8.68"/>
      <path id="path9287" class="cls-12" d="M375.86,499.65l15.57-22.03-18.95-17.42"/>
      <path id="path9289" class="cls-12" d="M375.06,488.33l6.65-9.23-8.43-7.94"/>
      <path id="path9291" class="cls-12" d="M384.11,543.65l12.92-23.69-20.92-15.08"/>
      <path id="path9293" class="cls-12" d="M382.01,532.52l5.54-9.97-9.29-6.89"/>
      <path id="path9295" class="cls-12" d="M402.2,588.95l9.23-25.41-22.89-11.75"/>
      <path id="path9297" class="cls-12" d="M398.44,578.24l4-10.71-10.22-5.42"/>
      <path id="path9299" class="cls-12" d="M423.98,634.91l6.15-26.34-24.18-8.92"/>
      <path id="path9301" class="cls-12" d="M419,624.7l2.65-11.08-10.77-4.12"/>
      <path id="path9303" class="cls-11" d="M449.64,676.82l3.51-26.77-22.95-6.77"/>
      <path id="path9305" class="cls-11" d="M444.17,667.1l1.6-11.26-10.28-3.2"/>
      <path id="path9307" class="cls-11" d="M480.72,717.37l-1.29-27.88-23.75-2.58"/>
      <path id="path9309" class="cls-11" d="M473.64,707.59l-.43-11.26-10.65-1.29"/>
      <path id="path9311" class="cls-12" d="M417.4,625.38c6.95,11.63,13.54,23.38,20.86,34.77,9.35,14.65,18.89,29.17,29.48,42.95,8.98,11.69,19.14,22.34,28.68,33.48"/>
      <path id="path9315" class="cls-6" d="M496.41,717.87l-9.54-2.15.86-25.17,8.68,2.15v25.17Z"/>
      <path id="path9317" class="cls-12" d="M489.46,659.28l-1.72,22.58,8.68,2.15"/>
      <path id="path9319" class="cls-12" d="M415.55,458.79l-12.98,16.12,15.57,13.17"/>
      <path id="path9321" class="cls-12" d="M416.04,467.29l-4.74,6.34,5.66,4.8"/>
      <path id="path9323" class="cls-12" d="M419.55,501.56l-9.97,18.03,17.54,10.34"/>
      <path id="path9325" class="cls-12" d="M421.52,509.81l-3.57,7.02,6.4,3.75"/>
      <path id="path9327" class="cls-12" d="M430.87,543.84l-8.43,18.83,18.34,8.86"/>
      <path id="path9329" class="cls-12" d="M433.52,551.96l-2.95,7.26,6.71,3.2"/>
      <path id="path9331" class="cls-12" d="M445.09,586.3l-5.05,20,19.63,5.54"/>
      <path id="path9333" class="cls-12" d="M449.09,593.81l-1.66,7.69,7.2,1.97"/>
      <path id="path9335" class="cls-12" d="M465.89,626.3l-2.71,20.49,20.12,3.2"/>
      <path id="path9337" class="cls-12" d="M470.75,633.31l-.74,7.82,7.32,1.17"/>
      <path id="path9339" class="cls-6" d="M452.54,442.61c5.54,15.2,10.09,30.77,16.55,45.6,4.06,9.35,8,18.95,13.85,27.32,3.88,5.54,9.29,9.85,13.91,14.77l-.43-24.31-7.82,1.72,4.37-10.83-10.03-.43,6.09-7.38-9.11-.86,5.66-7.82-10.03-.43,6.95-8.68-11.26-.86,6.52-8.68-10.03-.92,6.09-8.25-8.68-1.29,5.66-9.54-12.18-.43-6.09,1.29Z"/>
      <path id="path9341" class="cls-10" d="M471.67,383.1c4.06-4.37,10.77-5.48,16.49-7.26,3.08-.92,6.34-1.91,9.54-1.72,3.63.18,7.45.92,10.46,3.02,1.6,1.17,3.32,2.83,3.45,4.8.12,1.48-1.05,2.95-2.15,3.88-1.05.86-2.58.98-3.94,1.29-2.15.62-4.55.25-6.52,1.29-1.78.98-3.45,2.52-4.18,4.43-.92,2.15-.62,4.8-.18,7.14.49,2.65,1.91,5.42,3.08,7.45l-.43,24.8c-4.92.55-10.09,2.15-15.2,1.72-3.02-.25-6.4-.62-8.68-2.58-4.12-3.69-5.23-9.85-6.52-15.2-1.23-5.54-1.66-11.38-.86-16.92.8-5.66,1.78-11.94,5.66-16.12h0Z"/>
      <path id="path9343" class="cls-10" d="M417.4,458.24c7.82-3.2,14.03-5.85,20.86-9.11,5.85-2.83,11.63-5.97,17.35-9.11,5.42-2.95,11.69-6.22,16.06-9.11"/>
      <path id="path9345" class="cls-10" d="M419.98,357.07c9.42,4.49,18.95,8.8,28.25,13.48,7.45,3.75,14.77,7.82,22.15,11.69"/>
      <path id="path9347" class="cls-10" d="M462.14,378.36s-4,12.55-4.8,19.08c-.8,6.65-1.05,13.42,0,20,.98,5.85,5.66,16.92,5.66,16.92l-22.15,12.62,9.54-15.63-10.4-10.46,11.26-12.55-10.4-14.34,9.11-7.38-5.66-17.35,17.85,9.11Z"/>
      <path id="path9349" class="cls-12" d="M423.06,360.58l12.98,21.23-11.26,10.89,10.83,14.77-11.26,13.85,9.97,10.03-12.12,23.45"/>
      <path id="path9351" class="cls-12" d="M420.41,371.84l4.37,6.95-6.52,5.23"/>
      <path id="path9353" class="cls-12" d="M416.97,401.38l5.23,6.52-5.66,7.38"/>
      <path id="path9355" class="cls-12" d="M415.67,426.55l5.6,7.82-5.6,8.68"/>
      <path id="path9357" class="cls-2" d="M427.8,469.07l19.57-9.54s5.91,19.88,9.54,29.54c3.08,8.25,6.03,16.68,10.4,24.31,5.11,8.8,18.28,24.31,18.28,24.31v90.77s-17.17-27.26-24.31-41.66c-7.38-14.89-13.97-30.28-19.14-46.03-4.31-13.17-7.38-26.77-9.97-40.43-1.97-10.28-4.37-31.26-4.37-31.26Z"/>
      <path id="path9359" class="cls-2" d="M424.23,196.03s1.17,12.68,4,18.22c2.77,5.35,7.26,9.97,12.18,13.48,4.25,3.02,9.23,5.05,14.34,6.03,4.25.86,8.68.43,12.98,0,2.95-.25,8.68-1.72,8.68-1.72,0,0-5.54-1.78-7.32-3.88-3.88-4.43-4.43-10.89-6.09-16.49-1.66-5.6-2.03-11.51-3.94-16.98-1.91-5.54-3.63-11.51-7.38-16.06-2.03-2.46-4.8-4.43-7.82-5.6-1.78-.74-5.72-.92-5.72-.92l-13.91,23.94Z"/>
      <path id="path9361" class="cls-12" d="M432.6,183.78c2.09,6.89,3.88,13.54,7.38,19.57,2.95,5.23,7.14,9.6,11.26,13.91,2.71,2.83,5.78,5.23,8.68,7.82"/>
      <path id="path9363" class="cls-12" d="M447.55,189.26c-3.08,1.66-9.91.18-13.29-.49-2.34,4.62-4.25,8.18-4.06,12.49"/>
      <path id="path9365" class="cls-12" d="M450.32,197.14c-3.08,1.66-8.86,1.17-12.25.49-2.34,4.62-4.25,9.11-4.06,13.42"/>
      <path id="path9367" class="cls-12" d="M454.26,207.85c-3.14,1.66-7.57.43-10.95-.25-2.34,4.62-1.85,8.8-1.66,13.11"/>
      <path id="path9369" class="cls-12" d="M458.75,215.66c-3.08,1.72-5.05.12-8.43-.55-2.34,4.62-1.11,6.4-.92,10.71"/>
      <path id="path9371" class="cls-12" d="M433.46,181.88c3.08.49,6.15.74,9.23-.62"/>
      <path id="path9373" class="cls-1" d="M224.91,343.78c-1.48.55-3.38,1.54-3.57,3.14-.18,1.54,1.54,2.89,2.83,3.75.74.49,1.78.43,2.65.74.92.31,2.15.43,2.77,1.29s.18,2.15.43,3.2c.74,2.58,1.05,5.66,3.02,7.45,1.72,1.66,4.37,1.97,6.71,2.22,2.03.18,4.06-.49,6.03-.74,1.6-.18,3.14-.68,4.74-.55.8.12,1.66.18,2.28.68.55.49.74,1.29.86,1.97.37,1.48.12,3.02.18,4.55.06,1.97-.31,4,.18,5.85.62,2.22,1.54,4.62,3.32,6.03,1.91,1.54,4.55,1.91,6.95,2.03,2.03.06,4-.74,6.03-1.11,1.54-.31,3.02-.92,4.62-.86.68,0,1.48,0,1.97.49.31.25.31.8.37,1.17.12,1.29-.25,2.52-.37,3.82-.12,1.72-.74,3.51-.43,5.23.31,2.09.92,4.43,2.4,5.97,1.66,1.66,4.25,2.4,6.58,2.83,2.03.31,4.12-.43,6.15-.49,2.52,0,5.6-1.29,7.57.31,1.54,1.23.98,3.75,1.35,5.66.37,1.78.18,3.63.86,5.23.86,1.97,1.97,4.06,3.75,5.17,1.48.92,3.45,1.05,5.17.92,1.29-.06,2.52-.8,3.82-1.17,1.05-.31,2.22-1.35,3.26-.92.31.12.37.55.43.86.49,1.05.68,2.15,1.05,3.26.49,1.35.68,3.02,1.66,4.12,1.35,1.6,3.26,3.14,5.35,3.14,2.03-.06,3.94-1.6,5.23-3.14.92-1.17.98-2.77,1.42-4.12.37-1.05.55-2.09.92-3.14.12-.18.12-.49.31-.55.25-.18.62-.06.92,0,1.05.25,1.97.86,2.95,1.23,1.42.49,2.71,1.35,4.18,1.48,1.97.12,4.18.06,5.72-1.11,1.78-1.29,2.65-3.69,3.14-5.85.43-1.78-.12-3.57-.18-5.42-.06-1.23-.37-2.52-.18-3.82.06-.31,0-.68.25-.86.49-.43,1.29-.25,1.91-.25,1.42.06,2.77.49,4.12.86,1.85.62,3.51,2.09,5.42,2.22,1.66.06,4.06,0,4.8-1.48.8-1.48-.49-3.51-1.6-4.74-1.66-1.66-4.31-1.91-6.52-2.58-1.91-.55-3.82-1.23-5.78-1.23-2.15.06-4.55.18-6.28,1.48-1.78,1.35-2.71,3.69-3.2,5.85-.43,1.72.12,3.57.12,5.35.06,1.35,1.11,3.14.12,4.06-.8.74-2.15-.06-3.2-.31-1.42-.37-2.65-1.35-4.06-1.6-1.85-.25-3.88-.43-5.6.37-1.66.86-2.77,2.58-3.75,4.18-.68,1.17-.06,3.75-1.42,3.75s-.74-2.77-1.42-4c-.98-1.66-2.03-3.57-3.82-4.25-2.71-1.11-5.85.74-8.8.68-1.11,0-2.52.43-3.38-.31-.98-.92-.37-2.65-.74-3.94-1.05-3.63-1.05-8.18-4-10.52-3.38-2.71-8.49-1.66-12.8-1.78-1.6,0-3.14.62-4.68.43-.8-.12-1.72-.25-2.22-.86-.31-.31-.37-.8-.43-1.29-.12-1.29.31-2.58.43-3.88.12-1.78.68-3.57.43-5.29-.37-2.09-1.05-4.43-2.71-5.91-1.78-1.6-4.43-2.09-6.83-2.28-2.03-.12-4.06.74-6.03,1.11-1.6.25-3.14.86-4.74.86-.74,0-1.6,0-2.15-.43s-.74-1.23-.92-1.91c-.31-1.48-.06-2.95-.12-4.43-.06-1.97.25-4-.25-5.91-.55-2.22-1.42-4.62-3.2-6.09-1.78-1.54-4.31-2.03-6.65-2.28-2.03-.25-4.06.37-6.09.62-1.6.18-3.2.68-4.8.62-.8-.06-1.85,0-2.34-.62-.62-.62-.25-1.72-.43-2.52-.55-2.52-.62-5.42-2.28-7.45-1.35-1.72-3.75-2.46-5.78-3.26-1.11-.43-2.22-.62-3.38-.86-.18-.06-.43-.12-.62-.12h0Z"/>
      <path id="path9375" class="cls-1" d="M225.09,363.84c-1.42.06-2.77,1.05-3.26,2.4-.43,1.35.06,3.02,1.23,3.88l100.98,79.69c1.17.86,2.89.92,4.12.06l39.51-27.69c1.6-1.05,2.09-3.38.98-4.92-1.05-1.54-3.45-1.91-4.92-.8l-37.48,26.28-98.95-78.09c-.62-.49-1.42-.8-2.22-.8h0Z"/>
      <path id="path9377" d="M324.17,469.07v110.95l16.92-11.82.55-109.97-17.48,10.83Z"/>
      <path id="path9379" class="cls-1" d="M222.45,389.44l36.49,29.29.49,94.52-36.98-25.17v-98.64Z"/>
      <path id="path9381" class="cls-8" d="M259.43,417.13l1.05,97.66"/>
      <path id="path9383" class="cls-8" d="M269.71,424.46l.49,99.57"/>
      <path id="path9385" class="cls-8" d="M316.48,463.9l.49,118.71"/>
      <path id="path9387" class="cls-12" d="M382.2,541.5l-63.2,42.09"/>
      <path id="path9389" class="cls-8" d="M316.41,566.36l-45.72-46.65,46.03-44.55-46.52-47.75"/>
      <path id="path9391" class="cls-8" d="M297.77,447.29l-27.88,28.49,46.52,48.49-26.34,24.61"/>
      <path id="path9393" class="cls-8" d="M292.85,465.07l-8.55,9.17,8.55,10.09,8.86-9.17-8.86-10.09Z"/>
      <path id="path9395" class="cls-8" d="M292.6,513.13l-7.45,8.18,8.43,8.55,7.51-8-8.49-8.74Z"/>
      <path id="path9397" class="cls-9" d="M271.74,441.19l8.49,9.29-8.92,9.42.43-18.71Z"/>
      <path id="path9399" class="cls-9" d="M315.49,489.87l-9.11,9.48,9.23,8.98-.12-18.46Z"/>
      <path id="path9401" class="cls-9" d="M271.25,489.81l8.37,9.11-8.55,7.88.18-16.98Z"/>
      <path id="path9403" class="cls-9" d="M315.74,537.62l-8,8.25,8.43,8.25-.43-16.49Z"/>
      <path id="path9405" class="cls-12" d="M195.43,322.8c-12.31,6.15-24.61,12.25-36.86,18.46-8.8,4.43-17.72,8.74-26.4,13.48-12.49,6.83-24.92,13.78-36.86,21.54-11.2,7.26-21.66,15.51-32.55,23.32,7.2,9.6,14.22,19.32,21.54,28.86,6.22,8.06,12.98,15.75,19.02,23.94,5.6,7.57,10.65,15.57,15.94,23.32,4.31-1.23,8.49-3.02,12.92-3.69,8.68-1.29,17.6-1.17,26.4-.62,7.02.43,13.97,1.72,20.86,3.08,7.45,1.48,14.95,3.02,22.15,5.54,7.38,2.58,14.58,6.03,21.48,9.85,7.88,4.31,15.38,9.42,22.71,14.71,7.88,5.72,15.82,11.51,22.71,18.4,6.71,6.71,12.06,14.65,17.85,22.15,6.28,8.25,11.88,17.05,18.4,25.17,4.43,5.54,8.98,11.02,14.09,15.94,7.08,6.77,14.46,13.23,22.77,18.4,7.63,4.86,16.06,8.49,24.55,11.69,8.12,3.14,16.49,6.15,25.17,7.38,8.49,1.23,17.17,0,25.78,0-4.74-9.66-9.78-19.08-14.15-28.86-5.42-12.31-10.52-24.74-14.71-37.48-3.94-11.88-7.26-24-9.85-36.25-2.58-12.55-4.18-25.29-5.54-38.03-.98-9.6-1.54-19.26-1.85-28.86-.31-10.65-.06-21.29,0-31.94.12-10.03.25-20.06.62-30.09.43-10.46,1.23-20.86,1.85-31.32"/>
      <path id="path9407" class="cls-1" d="M294.38,715.4l-65.78-53.41.49-108.92,6.71-4.62,11.82,11.82,17.97,24.12,14.89,21.05,6.71,7.2,8.18,6.71-.98,96.06Z"/>
      <path id="path9409" class="cls-1" d="M203.92,526.36l-43.14,31.32-4.12-8.25,36.98-29.29,10.28,6.22Z"/>
      <path id="path9411" class="cls-1" d="M235.8,549.44l-62.71,41.11-3.57-8.18,58.58-38.58,7.69,5.66Z"/>
      <path id="path9413" class="cls-1" d="M212.66,673.81l.55-109.47-41.66,27.26,6.71,30.83,4.62,29.78,1.05,27.75-.55,14.89,29.29-21.05Z"/>
      <path id="path9415" d="M229.09,543.78l-59.57,39.57s-4.18-10.58-6.15-15.94c-1.23-3.2-3.63-9.72-3.63-9.72l44.18-31.88s11.26,3.69,15.94,7.2c3.82,2.83,9.23,10.77,9.23,10.77h0Z"/>
      <path id="path9417" d="M332.72,744.39l-102.89-82.09-46.46,29.54.43,24.31-1.29,23.01-.86,18.22,47.32-32.12,60.8,49.97,7.82,3.88,4.31,3.94,6.95.86,3.94,5.66,5.17-1.35,5.23,6.52h5.23l4.31,3.94v-54.28Z"/>
      <path id="path9419" d="M350.08,807.34l.43-154.58-10.4-3.88-8.68-4.8.43,155.01,5.66.86,5.6,5.66,3.51-1.35,3.45,3.08Z"/>
      <path id="path9421" class="cls-2" d="M138.2,674.05l-35.14,17.35s-6.77-19.2-10.46-28.68c-3.69-9.48-7.02-19.14-11.69-28.18-3.14-6.09-6.65-12-10.89-17.42-4.06-5.23-13.85-14.28-13.85-14.28l.43-136.37s17.17,20.8,24.31,32.12c6.22,9.91,10.95,20.74,16.06,31.26,6.65,13.78,13.72,27.38,19.08,41.72,3.63,9.6,6.15,19.57,8.68,29.48,2.71,10.34,5.05,20.8,6.95,31.26,1.42,7.63,2.28,15.38,3.51,23.01.98,6.28,3.02,18.71,3.02,18.71Z"/>
      <path id="path9423" class="cls-1" d="M131.68,776.08l-47.32-25.6,4.8-17.85-1.72-17.35-5.23-11.69,13.91-10.46,23.88-10.4,17.78-7.38,1.72,17.35v20.86l-1.29,24.31-3.88,27.32-2.65,10.89Z"/>
      <path id="path9425" class="cls-5" d="M196.42,520.33l-39.51,29.54s-6.89-15.08-10.46-22.58c-2.83-5.97-8.68-17.78-8.68-17.78,0,0,19.26-1.23,28.68.43,10.4,1.85,29.97,10.4,29.97,10.4h0Z"/>
      <path id="path9427" d="M16.67,370.98l29.29,25.41-.43,485.84-28.86.18v-511.44Z"/>
      <path id="path9429" class="cls-5" d="M423.06,777.62l-.31-116.06,12-3.69s19.45,27.14,29.41,40.55c7.26,9.66,15.08,18.95,22.15,28.86,1.72,2.4,4.92,7.32,4.92,7.32,0,0-19.26,14.03-29.17,20.62-7.08,4.62-14.22,8.98-21.54,13.17-5.72,3.26-17.48,9.23-17.48,9.23h0Z"/>
      <path id="path9431" d="M394.81,791.71l.62-128.92s9.6.49,14.4.31c4.98-.25,14.77-1.54,14.77-1.54l-.31,116.06s-10.95,5.91-16.55,8.55c-4.25,2.03-12.92,5.54-12.92,5.54h0Z"/>
      <path id="path9529" class="cls-12" d="M395.8,715.96l-16.25-18.46,15.94-16.86"/>
      <path id="path9531" class="cls-12" d="M395.18,704.76l-5.85-6.71,5.85-6.15"/>
      <path id="path9537" class="cls-12" d="M352.78,681.99l14.95,16.12-15.94,16.86"/>
      <path id="path9539" class="cls-12" d="M352.11,690.85l5.78,6.71-5.78,6.15"/>
      <path id="path9543" class="cls-6" d="M372.84,692.45l16.18-16.86-15.63-16.62-16.8,16.25,16.25,17.23ZM373.09,685.19l-9.29-8.68,9.29-10.22,9.05,8.92-9.05,9.97Z"/>
      <path id="path9553" class="cls-2" d="M395.67,670.48l-6.71-8"/>
      <path id="path9555" class="cls-2" d="M351,670.85l12.31-12.68"/>
      <path id="path9557" class="cls-2" d="M395,791.22l1.17-128.74"/>
      <path id="path9559" class="cls-2" d="M350.63,806.91l.37-154.4"/>
      <path id="path9565" class="cls-2" d="M46.14,396.58v350.82h10.46v-354.27l-39.94-34.77v12.18l29.48,26.03Z"/>
      <path id="path9585" class="cls-1" d="M31.5,685.68c2.03,0,4.31-2.28,4.31-4.31s-2.28-4.37-4.31-4.37-4.37,2.28-4.37,4.37,2.34,4.31,4.37,4.31Z"/>
      <path id="path9587" class="cls-1" d="M26.27,697.87c2.03,0,4.37-2.34,4.37-4.37s-2.34-4.31-4.37-4.31-4.31,2.28-4.31,4.31,2.28,4.37,4.31,4.37Z"/>
      <path id="path9589" class="cls-1" d="M36.67,697.87c2.09,0,4.37-2.34,4.37-4.37s-2.28-4.31-4.37-4.31-4.31,2.28-4.31,4.31,2.28,4.37,4.31,4.37Z"/>
      <path id="path9591" class="cls-1" d="M31.8,623.96c2.03,0,4.37-2.28,4.37-4.31s-2.34-4.37-4.37-4.37-4.31,2.28-4.31,4.37,2.28,4.31,4.31,4.31Z"/>
      <path id="path9593" class="cls-1" d="M31.8,599.65c2.03,0,4.37-2.28,4.37-4.37s-2.34-4.31-4.37-4.31-4.31,2.28-4.31,4.31,2.28,4.37,4.31,4.37Z"/>
      <path id="path9595" class="cls-1" d="M26.64,611.84c2.03,0,4.31-2.34,4.31-4.37s-2.28-4.37-4.31-4.37-4.37,2.34-4.37,4.37,2.28,4.37,4.37,4.37Z"/>
      <path id="path9597" class="cls-1" d="M37.04,611.84c2.03,0,4.31-2.34,4.31-4.37s-2.28-4.37-4.31-4.37-4.37,2.34-4.37,4.37,2.34,4.37,4.37,4.37Z"/>
      <path id="path9599" class="cls-1" d="M31.8,539.9c2.03,0,4.37-2.28,4.37-4.31s-2.34-4.37-4.37-4.37-4.31,2.34-4.31,4.37,2.28,4.31,4.31,4.31Z"/>
      <path id="path9601" class="cls-1" d="M31.8,515.59c2.03,0,4.37-2.28,4.37-4.31s-2.34-4.37-4.37-4.37-4.31,2.28-4.31,4.37,2.28,4.31,4.31,4.31Z"/>
      <path id="path9603" class="cls-1" d="M26.64,527.78c2.03,0,4.31-2.28,4.31-4.37s-2.28-4.31-4.31-4.31-4.37,2.28-4.37,4.31,2.28,4.37,4.37,4.37Z"/>
      <path id="path9605" class="cls-1" d="M37.04,527.78c2.03,0,4.31-2.28,4.31-4.37s-2.28-4.31-4.31-4.31-4.37,2.28-4.37,4.31,2.34,4.37,4.37,4.37Z"/>
      <path id="path9607" class="cls-1" d="M32.79,455.53c2.09,0,4.37-2.28,4.37-4.31s-2.28-4.37-4.37-4.37-4.31,2.28-4.31,4.37,2.28,4.31,4.31,4.31Z"/>
      <path id="path9609" class="cls-1" d="M32.79,431.23c2.09,0,4.37-2.28,4.37-4.31s-2.28-4.37-4.37-4.37-4.31,2.28-4.31,4.37,2.28,4.31,4.31,4.31Z"/>
      <path id="path9611" class="cls-1" d="M27.62,443.41c2.03,0,4.31-2.34,4.31-4.37s-2.28-4.31-4.31-4.31-4.37,2.28-4.37,4.31,2.34,4.37,4.37,4.37Z"/>
      <path id="path9613" class="cls-1" d="M38.02,443.41c2.03,0,4.37-2.34,4.37-4.37s-2.34-4.31-4.37-4.31-4.31,2.28-4.31,4.31,2.28,4.37,4.31,4.37Z"/>
      <path id="path9623" class="cls-1" d="M42.7,641.5v8.68l-22.58,20.8v-8.68l22.58-20.8Z"/>
      <path id="path9625" class="cls-1" d="M42.7,627.59v8.68l-22.58,20.86v-8.74l22.58-20.8Z"/>
      <path id="path9627" class="cls-1" d="M42.7,558.12v8.68l-22.58,20.86v-8.68l22.58-20.86Z"/>
      <path id="path9629" class="cls-1" d="M42.7,544.21v8.68l-22.58,20.86v-8.68l22.58-20.86Z"/>
      <path id="path9631" class="cls-1" d="M42.7,476.46v8.74l-22.58,20.8v-8.68l22.58-20.86Z"/>
      <path id="path9633" class="cls-1" d="M42.7,462.61v8.68l-22.58,20.8v-8.68l22.58-20.8Z"/>
      <path id="path9635" class="cls-1" d="M42.45,396.15l.25,2.15-22.58,20.86v-8.68l17.35-17.17,4.98,2.83Z"/>
      <path id="path9637" class="cls-1" d="M30.94,387.04l4.18,3.45-15.02,14.77v-8.68l10.83-9.54Z"/>
      <path id="path9643" class="cls-6" d="M160.54,693.87l14.34-17.23-17.42-14.28-14.52,17.23,17.6,14.28ZM160.05,687.1l-10.15-7.08,8.12-10.34,9.91,7.38-7.88,10.03Z"/>
      <path id="path9645" class="cls-6" d="M156.29,653.25l13.6-19.08-17.97-14.77-14.22,19.14,18.58,14.71ZM155.49,645.99l-10.46-7.2,7.69-11.45,10.22,7.51-7.45,11.14Z"/>
      <path id="path9647" class="cls-6" d="M149.03,608.45l10.46-20.92-20-11.82-11.08,21.11,20.61,11.63ZM147.13,601.44l-11.45-5.54,5.85-12.49,11.26,5.85-5.66,12.18Z"/>
      <path id="path9649" class="cls-6" d="M136.42,564.33l8.49-21.85-21.05-9.85-9.05,22.03,21.6,9.66ZM133.83,557.5l-11.88-4.43,4.62-12.98,11.75,4.74-4.49,12.68Z"/>
      <path id="path9651" class="cls-6" d="M117.77,519.78l4.18-23.01-22.52-5.72-4.68,23.32,23.01,5.42ZM113.96,513.56l-12.55-2.09,2.15-13.6,12.43,2.46-2.03,13.23Z"/>
      <path id="path9653" class="cls-6" d="M94.39,478.61l2.22-23.32-22.95-3.75-2.65,23.69,23.38,3.38ZM90.08,472.7l-12.68-.98.92-13.78,12.62,1.42-.86,13.35Z"/>
      <path id="path9659" class="cls-12" d="M133.9,776.08s2.52-21.41,3.45-32.12c1.29-14.89,3.2-29.78,3.02-44.74-.12-13.11-1.78-26.09-3.45-39.08-1.78-13.85-3.82-27.63-6.95-41.23-3.45-15.14-7.82-30.09-13.05-44.74-4.68-13.17-10.28-26.09-16.49-38.65-6.65-13.54-14.03-26.77-22.09-39.51-6.15-9.72-20-28.25-20-28.25"/>
      <path id="path9665" class="cls-12" d="M140.79,715.16l14.83-14.28-13.72-15.08"/>
      <path id="path9667" class="cls-12" d="M141.34,706.73l5.48-5.66-5.05-5.48"/>
      <path id="path9669" class="cls-12" d="M183.25,677.87l-17.78,20.31,17.11,19.26"/>
      <path id="path9671" class="cls-12" d="M182.88,689.19l-7.57,8.55,7.57,8.68"/>
      <path id="path9673" class="cls-12" d="M178.45,633.93l-15.57,22.03,18.95,17.42"/>
      <path id="path9675" class="cls-12" d="M179.25,645.25l-6.65,9.23,8.43,7.94"/>
      <path id="path9677" class="cls-12" d="M170.2,589.93l-12.92,23.69,20.92,15.08"/>
      <path id="path9679" class="cls-12" d="M172.29,601.07l-5.54,9.97,9.29,6.89"/>
      <path id="path9681" class="cls-12" d="M152.11,544.64l-9.23,25.41,22.89,11.75"/>
      <path id="path9683" class="cls-12" d="M155.86,555.35l-4,10.71,10.22,5.42"/>
      <path id="path9685" class="cls-12" d="M130.33,498.67l-6.15,26.34,24.18,8.92"/>
      <path id="path9687" class="cls-12" d="M135.31,508.89l-2.65,11.08,10.77,4.12"/>
      <path id="path9689" class="cls-11" d="M104.66,456.76l-3.51,26.77,22.95,6.77"/>
      <path id="path9691" class="cls-11" d="M110.14,466.49l-1.6,11.26,10.28,3.2"/>
      <path id="path9693" class="cls-11" d="M73.59,416.21l1.29,27.88,23.75,2.58"/>
      <path id="path9695" class="cls-11" d="M80.67,425.99l.43,11.26,10.65,1.29"/>
      <path id="path9697" class="cls-12" d="M136.91,508.21c-6.95-11.63-13.54-23.38-20.86-34.77-9.35-14.65-18.89-29.17-29.48-42.95-8.98-11.69-19.14-22.34-28.68-33.48"/>
      <path id="path9699" class="cls-12" d="M67.43,410.06l-9.97-1.29"/>
      <path id="path9701" class="cls-6" d="M57.9,415.72l9.54,2.15-.86,25.17-8.68-2.15v-25.17Z"/>
      <path id="path9703" class="cls-12" d="M64.85,474.3l1.72-22.58-8.68-2.15"/>
      <path id="path9705" class="cls-12" d="M138.76,674.79l12.98-16.12-15.57-13.17"/>
      <path id="path9707" class="cls-12" d="M138.26,666.3l4.74-6.34-5.66-4.8"/>
      <path id="path9709" class="cls-12" d="M134.76,632.02l9.97-18.03-17.54-10.34"/>
      <path id="path9711" class="cls-12" d="M132.79,623.78l3.57-7.02-6.4-3.75"/>
      <path id="path9713" class="cls-12" d="M123.43,589.75l8.43-18.83-18.34-8.86"/>
      <path id="path9715" class="cls-12" d="M120.79,581.62l2.95-7.26-6.71-3.2"/>
      <path id="path9717" class="cls-12" d="M109.22,547.28l5.05-20-19.63-5.54"/>
      <path id="path9719" class="cls-12" d="M105.22,539.78l1.66-7.69-7.2-1.97"/>
      <path id="path9721" class="cls-12" d="M88.42,507.29l2.71-20.49-20.12-3.2"/>
      <path id="path9723" class="cls-12" d="M83.56,500.27l.74-7.82-7.32-1.17"/>
      <path id="path9725" class="cls-6" d="M101.77,690.97c-5.54-15.2-10.09-30.77-16.55-45.6-4.06-9.35-8-18.95-13.85-27.32-3.88-5.54-9.29-9.85-13.91-14.77l.43,24.31,7.82-1.72-4.37,10.83,10.03.43-6.09,7.38,9.11.86-5.66,7.82,10.03.43-6.95,8.68,11.26.86-6.52,8.68,10.03.92-6.09,8.25,8.68,1.29-5.66,9.54,12.18.43,6.09-1.29Z"/>
      <path id="path9727" class="cls-10" d="M82.63,750.48c-4.06,4.37-10.77,5.48-16.49,7.26-3.08.92-6.34,1.91-9.54,1.72-3.63-.18-7.45-.92-10.46-3.02-1.6-1.17-3.32-2.83-3.45-4.8-.12-1.48,1.05-2.95,2.15-3.88,1.05-.86,2.58-.98,3.94-1.29,2.15-.62,4.55-.25,6.52-1.29,1.78-.98,3.45-2.52,4.18-4.43.92-2.15.62-4.8.18-7.14-.49-2.65-1.91-5.42-3.08-7.45l.43-24.8c4.92-.55,10.09-2.15,15.2-1.72,3.02.25,6.4.62,8.68,2.58,4.12,3.69,5.23,9.85,6.52,15.2,1.23,5.54,1.66,11.38.86,16.92-.8,5.66-1.78,11.94-5.66,16.12h0Z"/>
      <path id="path9729" class="cls-10" d="M136.91,675.34c-7.82,3.2-14.03,5.85-20.86,9.11-5.85,2.83-11.63,5.97-17.35,9.11-5.42,2.95-11.69,6.22-16.06,9.11"/>
      <path id="path9733" class="cls-10" d="M92.17,755.22s4-12.55,4.8-19.08c.8-6.65,1.05-13.42,0-20-.98-5.85-5.66-16.92-5.66-16.92l22.15-12.62-9.54,15.63,10.4,10.46-11.26,12.55,10.4,14.34-9.11,7.38,5.66,17.35-17.85-9.11Z"/>
      <path id="path9735" class="cls-12" d="M131.25,773l-12.98-21.23,11.26-10.89-10.83-14.77,11.26-13.85-9.97-10.03,12.12-23.45"/>
      <path id="path9741" class="cls-12" d="M138.63,707.04l-5.6-7.82,5.6-8.68"/>
      <path id="path9743" class="cls-2" d="M126.51,664.51l-19.57,9.54s-5.91-19.88-9.54-29.54c-3.08-8.25-6.03-16.68-10.4-24.31-5.11-8.8-18.28-24.31-18.28-24.31v-90.77s17.17,27.26,24.31,41.66c7.38,14.89,13.97,30.28,19.14,46.03,4.31,13.17,7.38,26.77,9.97,40.43,1.97,10.28,4.37,31.26,4.37,31.26Z"/>
      <path id="path9761" class="cls-1" d="M329.21,769.74c1.42-.06,2.77-1.05,3.26-2.4.43-1.35-.06-3.02-1.23-3.88l-100.98-79.69c-1.17-.86-2.89-.92-4.12-.06l-39.51,27.69c-1.6,1.05-2.09,3.38-.98,4.92,1.05,1.54,3.45,1.91,4.92.8l37.48-26.28,98.95,78.09c.62.49,1.42.8,2.22.8h0Z"/>
      <path id="path9763" d="M230.14,664.51v-110.95l-16.92,11.82-.55,109.97,17.48-10.83Z"/>
      <path id="path9765" class="cls-1" d="M331.86,744.14l-36.49-29.29-.49-94.52,36.98,25.17v98.64Z"/>
      <path id="path9767" class="cls-8" d="M294.88,716.45l-1.05-97.66"/>
      <path id="path9769" class="cls-8" d="M284.6,709.13l-.49-99.57"/>
      <path id="path9771" class="cls-8" d="M237.83,669.68l-.49-118.71"/>
      <path id="path9773" class="cls-12" d="M172.11,592.08l63.2-42.09"/>
      <path id="path9775" class="cls-8" d="M237.89,567.22l45.72,46.65-46.03,44.55,46.52,47.75"/>
      <path id="path9777" class="cls-8" d="M256.54,686.3l27.88-28.49-46.52-48.49,26.34-24.61"/>
      <path id="path9779" class="cls-8" d="M261.46,668.51l8.55-9.17-8.55-10.09-8.86,9.17,8.86,10.09Z"/>
      <path id="path9781" class="cls-8" d="M261.71,620.45l7.45-8.18-8.43-8.55-7.51,8,8.49,8.74Z"/>
      <path id="path9783" class="cls-9" d="M282.57,692.39l-8.49-9.29,8.92-9.42-.43,18.71Z"/>
      <path id="path9785" class="cls-9" d="M238.82,643.71l9.11-9.48-9.23-8.98.12,18.46Z"/>
      <path id="path9787" class="cls-9" d="M283.06,643.78l-8.37-9.11,8.55-7.88-.18,16.98Z"/>
      <path id="path9789" class="cls-9" d="M238.57,595.96l8-8.25-8.43-8.25.43,16.49Z"/>
      <path id="path9791" class="cls-12" d="M358.88,810.79c12.31-6.15,24.61-12.25,36.86-18.46,8.8-4.43,17.72-8.74,26.4-13.48,12.49-6.83,24.92-13.78,36.86-21.54,11.2-7.26,21.66-15.51,32.55-23.32-7.2-9.6-14.22-19.32-21.54-28.86-6.22-8.06-12.98-15.75-19.02-23.94-5.6-7.57-10.65-15.57-15.94-23.32-4.31,1.23-8.49,3.02-12.92,3.69-8.68,1.29-17.6,1.17-26.4.62-7.02-.43-13.97-1.72-20.86-3.08-7.45-1.48-14.95-3.02-22.15-5.54-7.38-2.58-14.58-6.03-21.48-9.85-7.88-4.31-15.38-9.42-22.71-14.71-7.88-5.72-15.82-11.51-22.71-18.4-6.71-6.71-12.06-14.65-17.85-22.15-6.28-8.25-11.88-17.05-18.4-25.17-4.43-5.54-8.98-11.02-14.09-15.94-7.08-6.77-14.46-13.23-22.77-18.4-7.63-4.86-16.06-8.49-24.55-11.69-8.12-3.14-16.49-6.15-25.17-7.38-8.49-1.23-17.17,0-25.78,0,4.74,9.66,9.78,19.08,14.15,28.86,5.42,12.31,10.52,24.74,14.71,37.48,3.94,11.88,7.26,24,9.85,36.25,2.58,12.55,4.18,25.29,5.54,38.03.98,9.6,1.54,19.26,1.85,28.86.31,10.65.06,21.29,0,31.94-.12,10.03-.25,20.06-.62,30.09-.43,10.46-1.23,20.86-1.85,31.32"/>
      <path id="path9795" d="M290.94,565.87c-1.17.12-2.46,1.17-4.92,2.95l-5.42,3.82-5.35,3.88c-6.71,4-4.86,4.49-.31,9.97l5.11,6.15,5.05,6.09c4.68,6.28,4.43,6.71,9.91,1.66l4.92-4.49,4.92-4.49c5.78-4.49,4.62-4.8.25-10.03l-4.55-5.48-4.62-5.48c-2.4-3.32-3.51-4.68-4.98-4.55h0ZM290.02,575.47c1.17,0,2.52.43,3.38,1.29.55.62.74,1.54.74,2.34,0,.37-.49.86-.18,1.17.25.25.68-.31,1.05-.31.86.06,1.78.25,2.4.86.86.8,1.29,2.15,1.29,3.32,0,1.23-.43,2.52-1.29,3.38-.62.55-1.54.68-2.4.74-.37.06-.8-.49-1.05-.18-.31.25.18.68.18,1.05,0,.86-.18,1.78-.74,2.4-.86.86-2.22,1.29-3.38,1.29s-2.52-.43-3.38-1.29c-.55-.62-.74-1.54-.8-2.4,0-.37.55-.8.31-1.05-.31-.31-.8.25-1.17.18-.86-.06-1.72-.18-2.34-.74-.86-.86-1.29-2.15-1.29-3.38s.43-2.52,1.29-3.32c.62-.62,1.48-.8,2.34-.86.37,0,.86.55,1.17.31.25-.31-.31-.8-.31-1.17.06-.8.25-1.72.8-2.34.86-.86,2.22-1.29,3.38-1.29Z"/>
      <path id="path9797" d="M314.38,593.25c-1.11.25-2.28,1.54-4.37,3.69l-4.68,4.68-4.62,4.68c-6.03,5.11-4.06,5.29,1.29,9.91l6.09,5.23,5.97,5.17c5.66,5.42,5.48,5.91,10.09,0l4.06-5.29,4.12-5.17c4.98-5.42,3.82-5.54-1.42-9.97l-5.42-4.68-5.42-4.62c-2.95-2.89-4.31-4.06-5.72-3.63h0ZM315.06,602.85c1.23-.18,2.58,0,3.57.74.68.49.98,1.35,1.11,2.15.12.37-.31.92,0,1.17.31.25.62-.43,1.05-.43.8-.12,1.78-.06,2.46.37.98.68,1.66,1.91,1.85,3.14.18,1.17,0,2.52-.74,3.51-.49.68-1.42.98-2.22,1.17-.37.06-.86-.37-1.11-.06-.18.31.37.68.43,1.05.06.8.06,1.78-.37,2.46-.68.98-1.91,1.66-3.14,1.85-1.17.18-2.52,0-3.51-.74-.68-.49-1.05-1.35-1.23-2.22-.06-.37.43-.86.12-1.11-.31-.25-.68.37-1.11.43-.8.06-1.72.12-2.4-.37-.98-.68-1.66-1.91-1.85-3.08-.18-1.23,0-2.58.74-3.57.49-.68,1.35-.98,2.15-1.17.37-.12.92.37,1.17.06.18-.31-.43-.68-.49-1.05-.06-.86-.06-1.78.43-2.46.68-.98,1.91-1.66,3.08-1.85h0Z"/>
      <path id="path9799" d="M341.95,614.67c-.98.62-1.66,2.22-3.02,4.92l-2.95,5.91-2.89,5.91c-4.12,6.71-2.15,6.28,4.37,8.98l7.38,3.02,7.32,3.02c7.08,3.32,7.08,3.88,9.54-3.2l2.22-6.28,2.28-6.22c3.02-6.77,1.85-6.46-4.49-9.05l-6.58-2.65-6.65-2.71c-3.69-1.78-5.29-2.52-6.52-1.66h0ZM345.64,623.59c1.05-.55,2.4-.8,3.57-.43.8.25,1.35.98,1.78,1.66.18.37-.06.98.31,1.11.37.18.49-.55.86-.74.74-.31,1.66-.62,2.46-.37,1.17.31,2.15,1.29,2.71,2.34.62,1.05.8,2.46.43,3.57-.25.8-.98,1.35-1.72,1.78-.31.25-.98-.06-1.05.37-.12.37.49.49.68.8.37.8.68,1.66.43,2.52-.31,1.11-1.29,2.15-2.34,2.71-1.05.55-2.46.8-3.57.43-.8-.25-1.42-.98-1.85-1.72-.18-.31.06-.98-.25-1.11-.37-.12-.55.55-.92.74-.74.37-1.6.68-2.4.43-1.17-.31-2.22-1.29-2.77-2.34-.55-1.11-.8-2.46-.43-3.63.25-.8.98-1.35,1.72-1.78.31-.18.98.06,1.11-.31.12-.37-.62-.55-.8-.86-.37-.74-.55-1.66-.37-2.46.37-1.17,1.29-2.15,2.4-2.71h0Z"/>
      <path id="path9801" d="M374.44,628.27c-.74.92-.98,2.65-1.42,5.6l-1.11,6.52-1.05,6.52c-1.97,7.57-.25,6.58,6.83,7.26l7.94.74,7.94.74c7.69,1.11,7.82,1.6,8.12-5.85l.31-6.65.31-6.65c.92-7.32-.12-6.65-6.89-7.26l-7.14-.68-7.14-.62c-4.06-.62-5.78-.8-6.71.31h0ZM380.54,635.71c.86-.8,2.15-1.48,3.32-1.42.86,0,1.6.49,2.22,1.11.25.25.25.92.62.92.43,0,.31-.68.62-.92.62-.55,1.42-1.11,2.22-1.11,1.23-.06,2.46.55,3.32,1.42s1.48,2.09,1.48,3.32c0,.8-.62,1.6-1.17,2.22-.25.31-.92.25-.92.62s.68.31.92.62c.55.62,1.17,1.42,1.17,2.22,0,1.23-.62,2.46-1.48,3.32-.86.86-2.09,1.48-3.26,1.48-.86-.06-1.66-.55-2.28-1.17-.31-.25-.18-.92-.62-.92-.37,0-.31.68-.62.92-.62.55-1.35,1.11-2.22,1.17-1.17,0-2.46-.62-3.26-1.48-.86-.86-1.48-2.09-1.48-3.32,0-.8.49-1.6,1.05-2.22.31-.31,1.05-.18.98-.62,0-.37-.74-.31-.98-.62-.55-.62-1.05-1.35-1.05-2.22-.06-1.17.62-2.46,1.42-3.32Z"/>
      <path id="path9803" d="M266.2,571.47c1.11-.12,2.46-1.17,4.92-2.89l5.35-3.88,5.42-3.82c6.71-4,4.8-4.55.31-10.03l-5.11-6.09-5.05-6.15c-4.68-6.22-4.43-6.71-9.91-1.66l-4.92,4.55-4.92,4.43c-5.85,4.49-4.68,4.8-.25,10.03l4.55,5.48,4.62,5.48c2.4,3.32,3.51,4.74,4.98,4.55h0ZM267.12,561.87c-1.23,0-2.52-.43-3.38-1.29-.55-.62-.74-1.48-.74-2.34-.06-.37.43-.86.18-1.11-.25-.31-.68.31-1.05.25-.86-.06-1.78-.25-2.4-.8-.86-.86-1.29-2.15-1.29-3.38s.43-2.52,1.29-3.38c.62-.55,1.54-.68,2.4-.74.37,0,.8.49,1.05.25.25-.31-.25-.74-.18-1.11,0-.86.18-1.78.74-2.4.86-.86,2.15-1.29,3.38-1.29s2.52.43,3.32,1.29c.62.62.8,1.54.86,2.4,0,.37-.55.8-.31,1.11.31.25.74-.25,1.17-.25.8.06,1.72.18,2.34.74.86.86,1.29,2.22,1.29,3.38,0,1.23-.43,2.52-1.29,3.38-.62.55-1.54.74-2.34.8-.43.06-.86-.55-1.17-.25-.25.25.31.74.31,1.11-.06.86-.25,1.72-.86,2.34-.8.86-2.15,1.29-3.32,1.29Z"/>
      <path id="path9805" d="M243.25,543.59c1.11-.31,2.28-1.6,4.43-3.69l4.62-4.74,4.68-4.68c5.97-5.05,4-5.23-1.35-9.91l-6.03-5.17-6.03-5.23c-5.6-5.35-5.42-5.85-10.03.06l-4.06,5.23-4.12,5.23c-4.98,5.42-3.82,5.48,1.35,9.91l5.42,4.68,5.48,4.62c2.95,2.89,4.25,4.06,5.66,3.69h0ZM242.57,533.99c-1.17.18-2.58-.06-3.51-.74-.68-.49-.98-1.35-1.17-2.22-.06-.37.37-.92.06-1.11-.31-.25-.68.37-1.05.43-.8.06-1.78.06-2.46-.43-.98-.68-1.66-1.91-1.85-3.08-.25-1.17,0-2.58.68-3.57.49-.68,1.42-.92,2.28-1.11.37-.12.86.37,1.11,0,.18-.31-.37-.62-.43-.98-.12-.86-.12-1.85.37-2.52.68-.98,1.91-1.66,3.08-1.85,1.17-.18,2.58,0,3.57.74.68.49.98,1.42,1.17,2.22.06.37-.37.86-.06,1.11.31.25.68-.37,1.05-.37.86-.12,1.78-.12,2.46.31.98.68,1.66,1.97,1.85,3.14s0,2.58-.74,3.51c-.49.68-1.35,1.05-2.15,1.23-.37.06-.98-.43-1.17-.12-.18.37.43.74.43,1.11.12.8.06,1.72-.37,2.46-.68.98-1.97,1.6-3.14,1.85h0Z"/>
      <path id="path9807" d="M213.52,519.96c.98-.68,1.66-2.22,3.02-4.92l2.95-5.91,2.89-5.97c4.06-6.65,2.15-6.22-4.37-8.92l-7.38-3.02-7.38-3.08c-7.02-3.32-7.02-3.82-9.48,3.26l-2.22,6.28-2.28,6.22c-3.02,6.71-1.85,6.4,4.49,8.98l6.58,2.71,6.65,2.65c3.69,1.85,5.29,2.52,6.52,1.72ZM209.83,511.04c-1.05.55-2.4.8-3.57.43-.8-.25-1.35-.98-1.78-1.72-.18-.31.06-.98-.31-1.11-.37-.12-.49.62-.86.74-.74.37-1.66.68-2.46.43-1.17-.31-2.15-1.29-2.77-2.34-.55-1.11-.8-2.46-.43-3.63.31-.8,1.05-1.35,1.78-1.78.31-.18.92.06,1.05-.31.12-.37-.55-.49-.68-.86-.37-.74-.68-1.66-.49-2.46.37-1.17,1.35-2.15,2.4-2.71,1.05-.55,2.4-.8,3.57-.43.8.25,1.42.98,1.85,1.72.18.31-.12.92.25,1.05.37.12.55-.55.92-.68.74-.37,1.6-.68,2.4-.43,1.17.31,2.15,1.29,2.77,2.34.55,1.05.8,2.46.43,3.57-.31.8-.98,1.42-1.72,1.85-.31.18-.98-.12-1.11.31-.12.31.62.49.74.86.37.74.62,1.6.43,2.46-.37,1.11-1.35,2.15-2.4,2.71h0Z"/>
      <path id="path9809" d="M181.09,506.12c.74-.86.92-2.58,1.42-5.54l1.05-6.52,1.05-6.52c1.97-7.63.25-6.65-6.83-7.32l-7.94-.74-7.88-.74c-7.69-1.11-7.88-1.6-8.18,5.91l-.25,6.65-.37,6.58c-.92,7.32.12,6.71,6.95,7.32l7.08.62,7.14.62c4.06.68,5.85.86,6.77-.31ZM174.94,498.67c-.86.86-2.09,1.48-3.32,1.48-.8,0-1.54-.55-2.15-1.11-.31-.25-.31-.98-.68-.98s-.25.74-.55.98c-.62.55-1.42,1.11-2.28,1.11-1.17,0-2.46-.62-3.32-1.48-.8-.8-1.48-2.09-1.42-3.26,0-.86.55-1.6,1.11-2.22.25-.31.92-.25.92-.62,0-.43-.68-.37-.92-.62-.55-.62-1.11-1.42-1.17-2.28,0-1.17.62-2.4,1.48-3.26.86-.86,2.09-1.48,3.32-1.48.8,0,1.66.55,2.28,1.11.25.25.18.98.55.98s.37-.74.68-.98c.62-.55,1.29-1.11,2.15-1.11,1.23,0,2.46.62,3.32,1.48.8.8,1.48,2.09,1.42,3.26,0,.86-.49,1.6-1.05,2.22-.25.31-.98.25-.98.62,0,.43.74.37.98.62.55.62,1.05,1.42,1.11,2.28,0,1.17-.62,2.4-1.48,3.26Z"/>
      <path id="path9811" d="M418.32,629.56l-2.71.55c-3.69.43-5.23.74-5.78,2.09-.37,1.05-.18,2.65.12,5.66l.62,6.58.62,6.65c.12,7.82,1.35,6.46,7.63,5.29l6.95-1.35,6.77-1.23-3.32-5.72c-.43.31-.92.55-1.35.68-.74.18-1.54-.12-2.22-.49-.31-.18-.37-.86-.68-.74-.37.06-.18.74-.37,1.11-.43.68-.92,1.35-1.66,1.54-.98.37-2.22.12-3.14-.49-.92-.62-1.78-1.72-2.03-2.89-.18-.8.06-1.66.37-2.4.12-.31.86-.43.74-.8-.12-.37-.74-.18-1.05-.37-.62-.43-1.23-1.11-1.42-1.91-.31-1.17-.06-2.52.49-3.57.55-.98,1.48-1.97,2.46-2.22.74-.25,1.54.12,2.15.49.31.18.43.86.8.8l.18-.18-4.18-7.08h0Z"/>
      <path id="path9813" d="M137.1,504.89l2.71-.55c3.69-.43,5.23-.74,5.78-2.09.43-1.05.18-2.71-.06-5.66l-.68-6.65-.62-6.58c-.06-7.82-1.35-6.46-7.57-5.29l-7.02,1.35-6.77,1.23,3.38,5.72c.37-.31.86-.55,1.29-.68.74-.18,1.54.12,2.22.49.31.18.37.8.74.74.31-.06.12-.74.31-1.11.43-.68.92-1.35,1.66-1.6.98-.31,2.22-.06,3.14.55.92.62,1.78,1.72,2.09,2.83.18.86-.06,1.66-.43,2.46-.12.31-.86.43-.74.8s.74.18,1.05.37c.62.43,1.23,1.11,1.42,1.91.31,1.11.06,2.52-.49,3.51-.49,1.05-1.42,2.03-2.46,2.28-.74.18-1.48-.12-2.15-.49-.31-.18-.43-.86-.8-.8-.06,0-.12.12-.18.18l4.18,7.08h0Z"/>
    </g>
  </g>
</svg>