<?xml version="1.0" encoding="UTF-8"?>
<svg id="Calque_1" data-name="Calque 1" xmlns="http://www.w3.org/2000/svg" viewBox="0 0 500 700">
  <defs>
    <style>
      .cls-1 {
        fill: #fff;
      }

      .cls-2 {
        font-family: Poppins-Bold, Poppins;
        font-size: 171.15px;
        font-weight: 700;
      }

      .cls-3 {
        fill-rule: evenodd;
      }
    </style>
  </defs>
  <g>
    <rect class="cls-1" x="2.5" y="2.5" width="495" height="695" rx="47.5" ry="47.5"/>
    <path d="M450,5c24.81,0,45,20.19,45,45v600c0,24.81-20.19,45-45,45H50c-24.81,0-45-20.19-45-45V50C5,25.19,25.19,5,50,5h400M450,0H50C22.39,0,0,22.39,0,50v600c0,27.61,22.39,50,50,50h400c27.61,0,50-22.39,50-50V50c0-27.61-22.39-50-50-50h0Z"/>
  </g>
  <text class="cls-2" transform="translate(63.36 168.18)"><tspan x="0" y="0">9</tspan></text>
  <path id="path1" class="cls-3" d="M114.92,200.17c-.34.1-1.52,1.15-3.9,3.48-3.84,3.75-5.21,4.98-10.49,9.38-8.73,7.29-12.07,10.62-14.91,14.87-8.24,12.33-4.12,27.7,8.51,31.7,2.44.77,2.95.84,6.26.84h3.09s1.4-.49,1.4-.49c1.91-.66,4.13-1.73,5.78-2.81,1.7-1.1,1.62-1.11,1.25.17-1.19,4.23-4.1,11.51-5.91,14.76-.31.57-.8,1.45-1.09,1.96-.66,1.19-.73,1.16,1.98.78,5.06-.72,12.87-.73,17.92-.01,3.06.43,2.92.57,1.66-1.69-1.35-2.42-2.53-4.94-3.7-7.95-1.1-2.8-3.1-8.73-2.99-8.84.04-.04.71.32,1.48.8,2.05,1.29,3.7,2.1,5.59,2.75l1.67.57h3.09c12.31-.03,20.5-9.76,18.71-22.23-1.2-8.38-5.26-13.78-18.85-25.11-5.31-4.42-7.34-6.24-10.76-9.59-3.72-3.65-4.05-3.84-5.77-3.35"/>
  <path id="path1-2" data-name="path1" class="cls-3" d="M248.58,204.32c-.27.08-1.23.93-3.15,2.81-3.1,3.03-4.21,4.02-8.46,7.58-7.05,5.89-9.74,8.57-12.04,12.01-6.65,9.96-3.33,22.36,6.87,25.59,1.97.62,2.38.68,5.05.68h2.5s1.13-.39,1.13-.39c1.54-.53,3.33-1.4,4.67-2.27,1.37-.89,1.31-.9,1.01.14-.96,3.41-3.31,9.29-4.77,11.92-.25.46-.65,1.17-.88,1.58-.54.96-.59.94,1.59.63,4.09-.58,10.39-.59,14.47-.01,2.47.35,2.36.46,1.34-1.37-1.09-1.95-2.04-3.99-2.99-6.42-.88-2.26-2.5-7.05-2.41-7.14.03-.03.57.26,1.19.65,1.65,1.04,2.99,1.7,4.51,2.22l1.35.46h2.5c9.94-.02,16.55-7.88,15.1-17.95-.97-6.76-4.25-11.13-15.22-20.27-4.28-3.57-5.93-5.03-8.69-7.74-3-2.95-3.27-3.1-4.66-2.7"/>
  <path id="path1-3" data-name="path1" class="cls-3" d="M249.17,324.76c-.27.08-1.23.93-3.15,2.81-3.1,3.03-4.21,4.02-8.46,7.58-7.05,5.89-9.74,8.57-12.04,12.01-6.65,9.96-3.33,22.36,6.87,25.59,1.97.62,2.38.68,5.05.68h2.5s1.13-.39,1.13-.39c1.54-.53,3.33-1.4,4.67-2.27,1.37-.89,1.31-.9,1.01.14-.96,3.41-3.31,9.29-4.77,11.92-.25.46-.65,1.17-.88,1.58-.54.96-.59.94,1.59.63,4.09-.58,10.39-.59,14.47-.01,2.47.35,2.36.46,1.34-1.37-1.09-1.95-2.04-3.99-2.99-6.42-.88-2.26-2.5-7.05-2.41-7.14.03-.03.57.26,1.19.65,1.65,1.04,2.99,1.7,4.51,2.22l1.35.46h2.5c9.94-.02,16.55-7.88,15.1-17.95-.97-6.76-4.25-11.13-15.22-20.27-4.28-3.57-5.93-5.03-8.69-7.74-3-2.95-3.27-3.1-4.66-2.7"/>
  <path id="path1-4" data-name="path1" class="cls-3" d="M249.17,445.19c-.27.08-1.23.93-3.15,2.81-3.1,3.03-4.21,4.02-8.46,7.58-7.05,5.89-9.74,8.57-12.04,12.01-6.65,9.96-3.33,22.36,6.87,25.59,1.97.62,2.38.68,5.05.68h2.5s1.13-.39,1.13-.39c1.54-.53,3.33-1.4,4.67-2.27,1.37-.89,1.31-.9,1.01.14-.96,3.41-3.31,9.29-4.77,11.92-.25.46-.65,1.17-.88,1.58-.54.96-.59.94,1.59.63,4.09-.58,10.39-.59,14.47-.01,2.47.35,2.36.46,1.34-1.37-1.09-1.95-2.04-3.99-2.99-6.42-.88-2.26-2.5-7.05-2.41-7.14.03-.03.57.26,1.19.65,1.65,1.04,2.99,1.7,4.51,2.22l1.35.46h2.5c9.94-.02,16.55-7.88,15.1-17.95-.97-6.76-4.25-11.13-15.22-20.27-4.28-3.57-5.93-5.03-8.69-7.74-3-2.95-3.27-3.1-4.66-2.7"/>
  <path id="path1-5" data-name="path1" class="cls-3" d="M248.58,565.63c-.27.08-1.23.93-3.15,2.81-3.1,3.03-4.21,4.02-8.46,7.58-7.05,5.89-9.74,8.57-12.04,12.01-6.65,9.96-3.33,22.36,6.87,25.59,1.97.62,2.38.68,5.05.68h2.5s1.13-.39,1.13-.39c1.54-.53,3.33-1.4,4.67-2.27,1.37-.89,1.31-.9,1.01.14-.96,3.41-3.31,9.29-4.77,11.92-.25.46-.65,1.17-.88,1.58-.54.96-.59.94,1.59.63,4.09-.58,10.39-.59,14.47-.01,2.47.35,2.36.46,1.34-1.37-1.09-1.95-2.04-3.99-2.99-6.42-.88-2.26-2.5-7.05-2.41-7.14.03-.03.57.26,1.19.65,1.65,1.04,2.99,1.7,4.51,2.22l1.35.46h2.5c9.94-.02,16.55-7.88,15.1-17.95-.97-6.76-4.25-11.13-15.22-20.27-4.28-3.57-5.93-5.03-8.69-7.74-3-2.95-3.27-3.1-4.66-2.7"/>
  <path id="path1-6" data-name="path1" class="cls-3" d="M335.38,384.98c-.27.08-1.23.93-3.15,2.81-3.1,3.03-4.21,4.02-8.46,7.58-7.05,5.89-9.74,8.57-12.04,12.01-6.65,9.96-3.33,22.36,6.87,25.59,1.97.62,2.38.68,5.05.68h2.5s1.13-.39,1.13-.39c1.54-.53,3.33-1.4,4.67-2.27,1.37-.89,1.31-.9,1.01.14-.96,3.41-3.31,9.29-4.77,11.92-.25.46-.65,1.17-.88,1.58-.54.96-.59.94,1.59.63,4.09-.58,10.39-.59,14.47-.01,2.47.35,2.36.46,1.34-1.37-1.09-1.95-2.04-3.99-2.99-6.42-.88-2.26-2.5-7.05-2.41-7.14.03-.03.57.26,1.19.65,1.65,1.04,2.99,1.7,4.51,2.22l1.35.46h2.5c9.94-.02,16.55-7.88,15.1-17.95-.97-6.76-4.25-11.13-15.22-20.27-4.28-3.57-5.93-5.03-8.69-7.74-3-2.95-3.27-3.1-4.66-2.7"/>
  <path id="path1-7" data-name="path1" class="cls-3" d="M422.18,204.38c-.27.08-1.23.93-3.15,2.81-3.1,3.03-4.21,4.02-8.46,7.58-7.05,5.89-9.74,8.57-12.04,12.01-6.65,9.96-3.33,22.36,6.87,25.59,1.97.62,2.38.68,5.05.68h2.5s1.13-.39,1.13-.39c1.54-.53,3.33-1.4,4.67-2.27,1.37-.89,1.31-.9,1.01.14-.96,3.41-3.31,9.29-4.77,11.92-.25.46-.65,1.17-.88,1.58-.54.96-.59.94,1.59.63,4.09-.58,10.39-.59,14.47-.01,2.47.35,2.36.46,1.34-1.37-1.09-1.95-2.04-3.99-2.99-6.42-.88-2.26-2.5-7.05-2.41-7.14.03-.03.57.26,1.19.65,1.65,1.04,2.99,1.7,4.51,2.22l1.35.46h2.5c9.94-.02,16.55-7.88,15.1-17.95-.97-6.76-4.25-11.13-15.22-20.27-4.28-3.57-5.93-5.03-8.69-7.74-3-2.95-3.27-3.1-4.66-2.7"/>
  <path id="path1-8" data-name="path1" class="cls-3" d="M422.18,324.8c-.27.08-1.23.93-3.15,2.81-3.1,3.03-4.21,4.02-8.46,7.58-7.05,5.89-9.74,8.57-12.04,12.01-6.65,9.96-3.33,22.36,6.87,25.59,1.97.62,2.38.68,5.05.68h2.5s1.13-.39,1.13-.39c1.54-.53,3.33-1.4,4.67-2.27,1.37-.89,1.31-.9,1.01.14-.96,3.41-3.31,9.29-4.77,11.92-.25.46-.65,1.17-.88,1.58-.54.96-.59.94,1.59.63,4.09-.58,10.39-.59,14.47-.01,2.47.35,2.36.46,1.34-1.37-1.09-1.95-2.04-3.99-2.99-6.42-.88-2.26-2.5-7.05-2.41-7.14.03-.03.57.26,1.19.65,1.65,1.04,2.99,1.7,4.51,2.22l1.35.46h2.5c9.94-.02,16.55-7.88,15.1-17.95-.97-6.76-4.25-11.13-15.22-20.27-4.28-3.57-5.93-5.03-8.69-7.74-3-2.95-3.27-3.1-4.66-2.7"/>
  <path id="path1-9" data-name="path1" class="cls-3" d="M422.18,445.21c-.27.08-1.23.93-3.15,2.81-3.1,3.03-4.21,4.02-8.46,7.58-7.05,5.89-9.74,8.57-12.04,12.01-6.65,9.96-3.33,22.36,6.87,25.59,1.97.62,2.38.68,5.05.68h2.5s1.13-.39,1.13-.39c1.54-.53,3.33-1.4,4.67-2.27,1.37-.89,1.31-.9,1.01.14-.96,3.41-3.31,9.29-4.77,11.92-.25.46-.65,1.17-.88,1.58-.54.96-.59.94,1.59.63,4.09-.58,10.39-.59,14.47-.01,2.47.35,2.36.46,1.34-1.37-1.09-1.95-2.04-3.99-2.99-6.42-.88-2.26-2.5-7.05-2.41-7.14.03-.03.57.26,1.19.65,1.65,1.04,2.99,1.7,4.51,2.22l1.35.46h2.5c9.94-.02,16.55-7.88,15.1-17.95-.97-6.76-4.25-11.13-15.22-20.27-4.28-3.57-5.93-5.03-8.69-7.74-3-2.95-3.27-3.1-4.66-2.7"/>
  <path id="path1-10" data-name="path1" class="cls-3" d="M422.18,565.63c-.27.08-1.23.93-3.15,2.81-3.1,3.03-4.21,4.02-8.46,7.58-7.05,5.89-9.74,8.57-12.04,12.01-6.65,9.96-3.33,22.36,6.87,25.59,1.97.62,2.38.68,5.05.68h2.5s1.13-.39,1.13-.39c1.54-.53,3.33-1.4,4.67-2.27,1.37-.89,1.31-.9,1.01.14-.96,3.41-3.31,9.29-4.77,11.92-.25.46-.65,1.17-.88,1.58-.54.96-.59.94,1.59.63,4.09-.58,10.39-.59,14.47-.01,2.47.35,2.36.46,1.34-1.37-1.09-1.95-2.04-3.99-2.99-6.42-.88-2.26-2.5-7.05-2.41-7.14.03-.03.57.26,1.19.65,1.65,1.04,2.99,1.7,4.51,2.22l1.35.46h2.5c9.94-.02,16.55-7.88,15.1-17.95-.97-6.76-4.25-11.13-15.22-20.27-4.28-3.57-5.93-5.03-8.69-7.74-3-2.95-3.27-3.1-4.66-2.7"/>
</svg>