<?xml version="1.0" encoding="UTF-8"?>
<svg id="Calque_1" data-name="Calque 1" xmlns="http://www.w3.org/2000/svg" viewBox="0 0 500 700">
  <defs>
    <style>
      .cls-1 {
        fill: #fff;
      }

      .cls-2 {
        fill-rule: evenodd;
      }

      .cls-2, .cls-3 {
        fill: #b30000;
      }

      .cls-3 {
        font-family: Poppins-Bold, Poppins;
        font-size: 171.15px;
        font-weight: 700;
      }
    </style>
  </defs>
  <g>
    <rect class="cls-1" x="2.5" y="2.5" width="495" height="695" rx="47.5" ry="47.5"/>
    <path d="M450,5c24.81,0,45,20.19,45,45v600c0,24.81-20.19,45-45,45H50c-24.81,0-45-20.19-45-45V50C5,25.19,25.19,5,50,5h400M450,0H50C22.39,0,0,22.39,0,50v600c0,27.61,22.39,50,50,50h400c27.61,0,50-22.39,50-50V50c0-27.61-22.39-50-50-50h0Z"/>
  </g>
  <text class="cls-3" transform="translate(64.21 168.18)"><tspan x="0" y="0">3</tspan></text>
  <path id="path0" class="cls-2" d="M95.25,209.36c-15.36,3-21.2,20.2-11.7,34.5,2.93,4.41,6.05,7.52,15.79,15.7,7.34,6.17,9.79,8.38,12.75,11.48,3.44,3.6,4.2,3.53,8.56-.85,3.06-3.07,5.62-5.36,11.46-10.25,11.58-9.69,15.44-13.83,18.2-19.52,7.69-15.88-2.33-32.35-19.08-31.35-4.37.26-9.4,2.83-13.96,7.13l-1.35,1.27-1.19-1.14c-6.28-6.01-12.65-8.29-19.49-6.95"/>
  <path id="path0-2" data-name="path0" class="cls-2" d="M319.5,573.04c-12.4,2.42-17.11,16.31-9.45,27.85,2.36,3.56,4.89,6.07,12.75,12.67,5.93,4.98,7.9,6.76,10.3,9.27,2.78,2.91,3.39,2.85,6.91-.69,2.47-2.48,4.54-4.33,9.25-8.27,9.35-7.82,12.47-11.16,14.69-15.76,6.21-12.82-1.88-26.11-15.4-25.31-3.53.21-7.59,2.28-11.27,5.75l-1.09,1.02-.96-.92c-5.07-4.86-10.21-6.69-15.74-5.61"/>
  <path id="path0-3" data-name="path0" class="cls-2" d="M319.5,211.74c-12.4,2.42-17.11,16.31-9.45,27.85,2.36,3.56,4.89,6.07,12.75,12.67,5.93,4.98,7.9,6.76,10.3,9.27,2.78,2.91,3.39,2.85,6.91-.69,2.47-2.48,4.54-4.33,9.25-8.27,9.35-7.82,12.47-11.16,14.69-15.76,6.21-12.82-1.88-26.11-15.4-25.31-3.53.21-7.59,2.28-11.27,5.75l-1.09,1.02-.96-.92c-5.07-4.86-10.21-6.69-15.74-5.61"/>
  <path id="path0-4" data-name="path0" class="cls-2" d="M319.5,392.39c-12.4,2.42-17.11,16.31-9.45,27.85,2.36,3.56,4.89,6.07,12.75,12.67,5.93,4.98,7.9,6.76,10.3,9.27,2.78,2.91,3.39,2.85,6.91-.69,2.47-2.48,4.54-4.33,9.25-8.27,9.35-7.82,12.47-11.16,14.69-15.76,6.21-12.82-1.88-26.11-15.4-25.31-3.53.21-7.59,2.28-11.27,5.75l-1.09,1.02-.96-.92c-5.07-4.86-10.21-6.69-15.74-5.61"/>
</svg>