<?xml version="1.0" encoding="UTF-8"?>
<svg id="Calque_1" data-name="Calque 1" xmlns="http://www.w3.org/2000/svg" viewBox="0 0 500 700">
  <defs>
    <style>
      .cls-1 {
        fill: #fff;
      }

      .cls-2 {
        fill-rule: evenodd;
      }

      .cls-2, .cls-3 {
        fill: #b30000;
      }

      .cls-3 {
        font-family: Poppins-Bold, Poppins;
        font-size: 171.15px;
        font-weight: 700;
      }
    </style>
  </defs>
  <g>
    <rect class="cls-1" x="2.5" y="2.5" width="495" height="695" rx="47.5" ry="47.5"/>
    <path d="M450,5c24.81,0,45,20.19,45,45v600c0,24.81-20.19,45-45,45H50c-24.81,0-45-20.19-45-45V50C5,25.19,25.19,5,50,5h400M450,0H50C22.39,0,0,22.39,0,50v600c0,27.61,22.39,50,50,50h400c27.61,0,50-22.39,50-50V50c0-27.61-22.39-50-50-50h0Z"/>
  </g>
  <text class="cls-3" transform="translate(63.36 168.18)"><tspan x="0" y="0">9</tspan></text>
  <path id="path3" class="cls-2" d="M114.4,196.98c-1.08.4-1.5.89-16.53,19.4-20.25,24.95-18.89,23.15-18.9,25.01v1.24s1.21,1.57,1.21,1.57c3.08,3.97,24.5,30.54,29.1,36.08,3.77,4.54,4.4,5.19,5.28,5.43,2.02.55,3.28.05,5.04-1.99,3.07-3.57,16.08-19.58,27.49-33.84,6.26-7.82,6.55-8.41,5.2-10.47-1.32-2-29.63-37.02-33.06-40.9-1.51-1.71-3.03-2.18-4.83-1.52"/>
  <path id="path3-2" data-name="path3" class="cls-2" d="M248.16,201.74c-.87.32-1.21.72-13.34,15.66-16.35,20.14-15.25,18.69-15.26,20.19v1s.97,1.27.97,1.27c2.48,3.21,19.78,24.65,23.49,29.13,3.04,3.67,3.55,4.19,4.26,4.39,1.63.45,2.65.04,4.07-1.61,2.48-2.88,12.98-15.81,22.2-27.32,5.05-6.31,5.29-6.79,4.19-8.45-1.07-1.62-23.92-29.89-26.69-33.02-1.22-1.38-2.44-1.76-3.9-1.23"/>
  <path id="path3-3" data-name="path3" class="cls-2" d="M248.75,322.18c-.87.32-1.21.72-13.34,15.66-16.35,20.14-15.25,18.69-15.26,20.19v1s.97,1.27.97,1.27c2.48,3.21,19.78,24.65,23.49,29.13,3.04,3.67,3.55,4.19,4.26,4.39,1.63.45,2.65.04,4.07-1.61,2.48-2.88,12.98-15.81,22.2-27.32,5.05-6.31,5.29-6.79,4.19-8.45-1.07-1.62-23.92-29.89-26.69-33.02-1.22-1.38-2.44-1.76-3.9-1.23"/>
  <path id="path3-4" data-name="path3" class="cls-2" d="M248.75,442.61c-.87.32-1.21.72-13.34,15.66-16.35,20.14-15.25,18.69-15.26,20.19v1s.97,1.27.97,1.27c2.48,3.21,19.78,24.65,23.49,29.13,3.04,3.67,3.55,4.19,4.26,4.39,1.63.45,2.65.04,4.07-1.61,2.48-2.88,12.98-15.81,22.2-27.32,5.05-6.31,5.29-6.79,4.19-8.45-1.07-1.62-23.92-29.89-26.69-33.02-1.22-1.38-2.44-1.76-3.9-1.23"/>
  <path id="path3-5" data-name="path3" class="cls-2" d="M248.16,563.05c-.87.32-1.21.72-13.34,15.66-16.35,20.14-15.25,18.69-15.26,20.19v1s.97,1.27.97,1.27c2.48,3.21,19.78,24.65,23.49,29.13,3.04,3.67,3.55,4.19,4.26,4.39,1.63.45,2.65.04,4.07-1.61,2.48-2.88,12.98-15.81,22.2-27.32,5.05-6.31,5.29-6.79,4.19-8.45-1.07-1.62-23.92-29.89-26.69-33.02-1.22-1.38-2.44-1.76-3.9-1.23"/>
  <path id="path3-6" data-name="path3" class="cls-2" d="M334.96,382.39c-.87.32-1.21.72-13.34,15.66-16.35,20.14-15.25,18.69-15.26,20.19v1s.97,1.27.97,1.27c2.48,3.21,19.78,24.65,23.49,29.13,3.04,3.67,3.55,4.19,4.26,4.39,1.63.45,2.65.04,4.07-1.61,2.48-2.88,12.98-15.81,22.2-27.32,5.05-6.31,5.29-6.79,4.19-8.45-1.07-1.62-23.92-29.89-26.69-33.02-1.22-1.38-2.44-1.76-3.9-1.23"/>
  <path id="path3-7" data-name="path3" class="cls-2" d="M421.76,201.8c-.87.32-1.21.72-13.34,15.66-16.35,20.14-15.25,18.69-15.26,20.19v1s.97,1.27.97,1.27c2.48,3.21,19.78,24.65,23.49,29.13,3.04,3.67,3.55,4.19,4.26,4.39,1.63.45,2.65.04,4.07-1.61,2.48-2.88,12.98-15.81,22.2-27.32,5.05-6.31,5.29-6.79,4.19-8.45-1.07-1.62-23.92-29.89-26.69-33.02-1.22-1.38-2.44-1.76-3.9-1.23"/>
  <path id="path3-8" data-name="path3" class="cls-2" d="M421.76,322.22c-.87.32-1.21.72-13.34,15.66-16.35,20.14-15.25,18.69-15.26,20.19v1s.97,1.27.97,1.27c2.48,3.21,19.78,24.65,23.49,29.13,3.04,3.67,3.55,4.19,4.26,4.39,1.63.45,2.65.04,4.07-1.61,2.48-2.88,12.98-15.81,22.2-27.32,5.05-6.31,5.29-6.79,4.19-8.45-1.07-1.62-23.92-29.89-26.69-33.02-1.22-1.38-2.44-1.76-3.9-1.23"/>
  <path id="path3-9" data-name="path3" class="cls-2" d="M421.76,442.63c-.87.32-1.21.72-13.34,15.66-16.35,20.14-15.25,18.69-15.26,20.19v1s.97,1.27.97,1.27c2.48,3.21,19.78,24.65,23.49,29.13,3.04,3.67,3.55,4.19,4.26,4.39,1.63.45,2.65.04,4.07-1.61,2.48-2.88,12.98-15.81,22.2-27.32,5.05-6.31,5.29-6.79,4.19-8.45-1.07-1.62-23.92-29.89-26.69-33.02-1.22-1.38-2.44-1.76-3.9-1.23"/>
  <path id="path3-10" data-name="path3" class="cls-2" d="M421.76,563.05c-.87.32-1.21.72-13.34,15.66-16.35,20.14-15.25,18.69-15.26,20.19v1s.97,1.27.97,1.27c2.48,3.21,19.78,24.65,23.49,29.13,3.04,3.67,3.55,4.19,4.26,4.39,1.63.45,2.65.04,4.07-1.61,2.48-2.88,12.98-15.81,22.2-27.32,5.05-6.31,5.29-6.79,4.19-8.45-1.07-1.62-23.92-29.89-26.69-33.02-1.22-1.38-2.44-1.76-3.9-1.23"/>
</svg>