<?xml version="1.0" encoding="UTF-8"?>
<svg id="Calque_1" data-name="Calque 1" xmlns="http://www.w3.org/2000/svg" viewBox="0 0 500 700">
  <defs>
    <style>
      @font-face { font-family: 'Anton'; font-style: normal; font-weight: 400; src: url(https://fonts.gstatic.com/s/anton/v27/1Ptgg87LROyAm3Kz-C8.woff2) format('woff2'); unicode-range: U+0000-00FF, U+0131, U+0152-0153, U+02BB-02BC, U+02C6, U+02DA, U+02DC, U+0304, U+0308, U+0329, U+2000-206F, U+20AC, U+2122, U+2191, U+2193, U+2212, U+2215, U+FEFF, U+FFFD; }
      .cls-1 {
        font-family: Anton-Regular, Anton;
        font-size: 80px;
      }

      .cls-1, .cls-2 {
        fill: #b30000;
      }

      .cls-3 {
        fill: #fff;
      }

      .cls-2 {
        fill-rule: evenodd;
      }
    </style>
  </defs>
  <g>
    <rect class="cls-3" x="2.5" y="2.5" width="495" height="695" rx="47.5" ry="47.5"/>
    <path d="M450,5c24.81,0,45,20.19,45,45v600c0,24.81-20.19,45-45,45H50c-24.81,0-45-20.19-45-45V50C5,25.19,25.19,5,50,5h400M450,0H50C22.39,0,0,22.39,0,50v600c0,27.61,22.39,50,50,50h400c27.61,0,50-22.39,50-50V50c0-27.61-22.39-50-50-50h0Z"/>
  </g>
  <path id="path0" class="cls-2" d="M224.71,310.96c-18.77,3.66-25.9,24.69-14.3,42.16,3.58,5.39,7.39,9.18,19.29,19.19,8.98,7.54,11.96,10.23,15.59,14.03,4.2,4.4,5.13,4.31,10.46-1.04,3.73-3.75,6.87-6.55,14.01-12.52,14.16-11.84,18.87-16.9,22.24-23.86,9.4-19.41-2.85-39.53-23.31-38.31-5.35.32-11.49,3.45-17.06,8.71l-1.64,1.55-1.46-1.4c-7.67-7.35-15.46-10.13-23.82-8.5"/>
  <path id="path0-2" data-name="path0" class="cls-2" d="M224.71,119.03c-18.77,3.66-25.9,24.69-14.3,42.16,3.58,5.39,7.39,9.18,19.29,19.19,8.98,7.54,11.96,10.23,15.59,14.03,4.2,4.4,5.13,4.31,10.46-1.04,3.73-3.75,6.87-6.55,14.01-12.52,14.16-11.84,18.87-16.9,22.24-23.86,9.4-19.41-2.85-39.53-23.31-38.31-5.35.32-11.49,3.45-17.06,8.71l-1.64,1.55-1.46-1.4c-7.67-7.35-15.46-10.13-23.82-8.5"/>
  <path id="path0-3" data-name="path0" class="cls-2" d="M224.71,502.96c-18.77,3.66-25.9,24.69-14.3,42.16,3.58,5.39,7.39,9.18,19.29,19.19,8.98,7.54,11.96,10.23,15.59,14.03,4.2,4.4,5.13,4.31,10.46-1.04,3.73-3.75,6.87-6.55,14.01-12.52,14.16-11.84,18.87-16.9,22.24-23.86,9.4-19.41-2.85-39.53-23.31-38.31-5.35.32-11.49,3.45-17.06,8.71l-1.64,1.55-1.46-1.4c-7.67-7.35-15.46-10.13-23.82-8.5"/>
  <text class="cls-1" transform="translate(33.15 97.23)"><tspan x="0" y="0">3</tspan></text>
  <path id="path0-4" data-name="path0" class="cls-2" d="M39.13,129.69c-11.07,2.16-15.28,14.56-8.43,24.86,2.11,3.18,4.36,5.42,11.38,11.32,5.29,4.45,7.06,6.04,9.19,8.28,2.48,2.6,3.03,2.54,6.17-.62,2.2-2.21,4.05-3.87,8.26-7.39,8.35-6.98,11.13-9.97,13.12-14.07,5.54-11.45-1.68-23.32-13.75-22.59-3.15.19-6.77,2.04-10.06,5.14l-.97.91-.86-.82c-4.52-4.33-9.12-5.97-14.05-5.01"/>
  <text class="cls-1" transform="translate(471.72 608.63) rotate(-180)"><tspan x="0" y="0">3</tspan></text>
  <path id="path0-5" data-name="path0" class="cls-2" d="M465.73,576.17c11.07-2.16,15.28-14.56,8.43-24.86-2.11-3.18-4.36-5.42-11.38-11.32-5.29-4.45-7.06-6.04-9.19-8.28-2.48-2.6-3.03-2.54-6.17.62-2.2,2.21-4.05,3.87-8.26,7.39-8.35,6.98-11.13,9.97-13.12,14.07-5.54,11.45,1.68,23.32,13.75,22.59,3.15-.19,6.77-2.04,10.06-5.14l.97-.91.86.82c4.52,4.33,9.12,5.97,14.05,5.01"/>
</svg>