<?xml version="1.0" encoding="UTF-8"?>
<svg id="Calque_1" data-name="Calque 1" xmlns="http://www.w3.org/2000/svg" viewBox="0 0 500 700">
  <defs>
    <style>
      @font-face { font-family: 'Anton'; font-style: normal; font-weight: 400; src: url(https://fonts.gstatic.com/s/anton/v27/1Ptgg87LROyAm3Kz-C8.woff2) format('woff2'); unicode-range: U+0000-00FF, U+0131, U+0152-0153, U+02BB-02BC, U+02C6, U+02DA, U+02DC, U+0304, U+0308, U+0329, U+2000-206F, U+20AC, U+2122, U+2191, U+2193, U+2212, U+2215, U+FEFF, U+FFFD; }
      .cls-1 {
        fill: #fff;
      }

      .cls-2 {
        font-family: Anton-Regular, Anton;
        font-size: 80px;
      }

      .cls-3 {
        fill-rule: evenodd;
      }
    </style>
  </defs>
  <g>
    <rect class="cls-1" x="4.93" y="2.5" width="495" height="695" rx="47.5" ry="47.5"/>
    <path d="M452.43,5c24.81,0,45,20.19,45,45v600c0,24.81-20.19,45-45,45H52.43c-24.81,0-45-20.19-45-45V50C7.43,25.19,27.62,5,52.43,5h400M452.43,0H52.43C24.82,0,2.43,22.39,2.43,50v600c0,27.61,22.39,50,50,50h400c27.61,0,50-22.39,50-50V50c0-27.61-22.39-50-50-50h0Z"/>
  </g>
  <path id="path1" class="cls-3" d="M141.22,109.81c-.4.11-1.79,1.36-4.59,4.1-4.52,4.42-6.13,5.86-12.34,11.04-10.28,8.58-14.2,12.49-17.55,17.5-9.7,14.51-4.85,32.59,10.01,37.3,2.87.91,3.47.99,7.36.98h3.64s1.65-.57,1.65-.57c2.25-.77,4.85-2.04,6.81-3.31,2-1.3,1.9-1.31,1.48.2-1.4,4.97-4.83,13.54-6.95,17.37-.37.67-.95,1.7-1.28,2.3-.78,1.4-.86,1.37,2.32.92,5.96-.85,15.15-.85,21.08-.02,3.59.51,3.44.67,1.95-1.99-1.59-2.84-2.97-5.82-4.36-9.36-1.29-3.29-3.65-10.27-3.52-10.4.05-.05.83.37,1.74.94,2.41,1.52,4.36,2.47,6.57,3.23l1.96.67h3.64c14.49-.04,24.12-11.48,22.01-26.16-1.42-9.85-6.19-16.22-22.18-29.54-6.24-5.2-8.64-7.34-12.66-11.29-4.38-4.3-4.77-4.52-6.79-3.94"/>
  <path id="path1-2" data-name="path1" class="cls-3" d="M141.88,301.81c-.4.11-1.79,1.36-4.59,4.1-4.52,4.42-6.13,5.86-12.34,11.04-10.28,8.58-14.2,12.49-17.55,17.5-9.7,14.51-4.85,32.59,10.01,37.3,2.87.91,3.47.99,7.36.98h3.64s1.65-.57,1.65-.57c2.25-.77,4.85-2.04,6.81-3.31,2-1.3,1.9-1.31,1.48.2-1.4,4.97-4.83,13.54-6.95,17.37-.37.67-.95,1.7-1.28,2.3-.78,1.4-.86,1.37,2.32.92,5.96-.85,15.15-.85,21.08-.02,3.59.51,3.44.67,1.95-1.99-1.59-2.84-2.97-5.82-4.36-9.36-1.29-3.29-3.65-10.27-3.52-10.4.05-.05.83.37,1.74.94,2.41,1.52,4.36,2.47,6.57,3.23l1.96.67h3.64c14.49-.04,24.12-11.48,22.01-26.16-1.42-9.85-6.19-16.22-22.18-29.54-6.24-5.2-8.64-7.34-12.66-11.29-4.38-4.3-4.77-4.52-6.79-3.94"/>
  <path id="path1-3" data-name="path1" class="cls-3" d="M141.22,493.81c-.4.11-1.79,1.36-4.59,4.1-4.52,4.42-6.13,5.86-12.34,11.04-10.28,8.58-14.2,12.49-17.55,17.5-9.7,14.51-4.85,32.59,10.01,37.3,2.87.91,3.47.99,7.36.98h3.64s1.65-.57,1.65-.57c2.25-.77,4.85-2.04,6.81-3.31,2-1.3,1.9-1.31,1.48.2-1.4,4.97-4.83,13.54-6.95,17.37-.37.67-.95,1.7-1.28,2.3-.78,1.4-.86,1.37,2.32.92,5.96-.85,15.15-.85,21.08-.02,3.59.51,3.44.67,1.95-1.99-1.59-2.84-2.97-5.82-4.36-9.36-1.29-3.29-3.65-10.27-3.52-10.4.05-.05.83.37,1.74.94,2.41,1.52,4.36,2.47,6.57,3.23l1.96.67h3.64c14.49-.04,24.12-11.48,22.01-26.16-1.42-9.85-6.19-16.22-22.18-29.54-6.24-5.2-8.64-7.34-12.66-11.29-4.38-4.3-4.77-4.52-6.79-3.94"/>
  <path id="path1-4" data-name="path1" class="cls-3" d="M361.22,109.88c-.4.11-1.79,1.36-4.59,4.1-4.52,4.42-6.13,5.86-12.34,11.04-10.28,8.58-14.2,12.49-17.55,17.5-9.7,14.51-4.85,32.59,10.01,37.3,2.87.91,3.47.99,7.36.98h3.64s1.65-.57,1.65-.57c2.25-.77,4.85-2.04,6.81-3.31,2-1.3,1.9-1.31,1.48.2-1.4,4.97-4.83,13.54-6.95,17.37-.37.67-.95,1.7-1.28,2.3-.78,1.4-.86,1.37,2.32.92,5.96-.85,15.15-.85,21.08-.02,3.59.51,3.44.67,1.95-1.99-1.59-2.84-2.97-5.82-4.36-9.36-1.29-3.29-3.65-10.27-3.52-10.4.05-.05.83.37,1.74.94,2.41,1.52,4.36,2.47,6.57,3.23l1.96.67h3.64c14.49-.04,24.12-11.48,22.01-26.16-1.42-9.85-6.19-16.22-22.18-29.54-6.24-5.2-8.64-7.34-12.66-11.29-4.38-4.3-4.77-4.52-6.79-3.94"/>
  <path id="path1-5" data-name="path1" class="cls-3" d="M361.22,301.81c-.4.11-1.79,1.36-4.59,4.1-4.52,4.42-6.13,5.86-12.34,11.04-10.28,8.58-14.2,12.49-17.55,17.5-9.7,14.51-4.85,32.59,10.01,37.3,2.87.91,3.47.99,7.36.98h3.64s1.65-.57,1.65-.57c2.25-.77,4.85-2.04,6.81-3.31,2-1.3,1.9-1.31,1.48.2-1.4,4.97-4.83,13.54-6.95,17.37-.37.67-.95,1.7-1.28,2.3-.78,1.4-.86,1.37,2.32.92,5.96-.85,15.15-.85,21.08-.02,3.59.51,3.44.67,1.95-1.99-1.59-2.84-2.97-5.82-4.36-9.36-1.29-3.29-3.65-10.27-3.52-10.4.05-.05.83.37,1.74.94,2.41,1.52,4.36,2.47,6.57,3.23l1.96.67h3.64c14.49-.04,24.12-11.48,22.01-26.16-1.42-9.85-6.19-16.22-22.18-29.54-6.24-5.2-8.64-7.34-12.66-11.29-4.38-4.3-4.77-4.52-6.79-3.94"/>
  <path id="path1-6" data-name="path1" class="cls-3" d="M361.22,493.81c-.4.11-1.79,1.36-4.59,4.1-4.52,4.42-6.13,5.86-12.34,11.04-10.28,8.58-14.2,12.49-17.55,17.5-9.7,14.51-4.85,32.59,10.01,37.3,2.87.91,3.47.99,7.36.98h3.64s1.65-.57,1.65-.57c2.25-.77,4.85-2.04,6.81-3.31,2-1.3,1.9-1.31,1.48.2-1.4,4.97-4.83,13.54-6.95,17.37-.37.67-.95,1.7-1.28,2.3-.78,1.4-.86,1.37,2.32.92,5.96-.85,15.15-.85,21.08-.02,3.59.51,3.44.67,1.95-1.99-1.59-2.84-2.97-5.82-4.36-9.36-1.29-3.29-3.65-10.27-3.52-10.4.05-.05.83.37,1.74.94,2.41,1.52,4.36,2.47,6.57,3.23l1.96.67h3.64c14.49-.04,24.12-11.48,22.01-26.16-1.42-9.85-6.19-16.22-22.18-29.54-6.24-5.2-8.64-7.34-12.66-11.29-4.38-4.3-4.77-4.52-6.79-3.94"/>
  <text class="cls-2" transform="translate(33.15 97.23)"><tspan x="0" y="0">6</tspan></text>
  <path id="path1-7" data-name="path1" class="cls-3" d="M53.34,124.29c-.23.07-1.06.8-2.71,2.42-2.66,2.6-3.62,3.46-7.28,6.51-6.06,5.06-8.38,7.37-10.35,10.32-5.72,8.56-2.86,19.22,5.9,22,1.69.54,2.04.58,4.34.58h2.15s.97-.34.97-.34c1.33-.46,2.86-1.2,4.01-1.95,1.18-.76,1.12-.77.87.12-.83,2.93-2.85,7.98-4.1,10.24-.22.39-.56,1-.76,1.36-.46.83-.51.81,1.37.54,3.51-.5,8.93-.5,12.44,0,2.12.3,2.03.39,1.15-1.18-.94-1.68-1.75-3.43-2.57-5.52-.76-1.94-2.15-6.06-2.08-6.13.03-.03.49.22,1.03.56,1.42.89,2.57,1.46,3.88,1.91l1.16.4h2.15c8.54-.02,14.22-6.77,12.98-15.43-.83-5.81-3.65-9.57-13.08-17.42-3.68-3.07-5.09-4.33-7.47-6.66-2.58-2.53-2.81-2.67-4.01-2.32"/>
  <text class="cls-2" transform="translate(471.72 608.63) rotate(-180)"><tspan x="0" y="0">6</tspan></text>
  <path id="path1-8" data-name="path1" class="cls-3" d="M451.53,581.57c.23-.07,1.06-.8,2.71-2.42,2.66-2.6,3.62-3.46,7.28-6.51,6.06-5.06,8.38-7.37,10.35-10.32,5.72-8.56,2.86-19.22-5.9-22-1.69-.54-2.04-.58-4.34-.58h-2.15s-.97.34-.97.34c-1.33.46-2.86,1.2-4.01,1.95-1.18.76-1.12.77-.87-.12.83-2.93,2.85-7.98,4.1-10.24.22-.39.56-1,.76-1.36.46-.83.51-.81-1.37-.54-3.51.5-8.93.5-12.44,0-2.12-.3-2.03-.39-1.15,1.18.94,1.68,1.75,3.43,2.57,5.52.76,1.94,2.15,6.06,2.08,6.13-.03.03-.49-.22-1.03-.56-1.42-.89-2.57-1.46-3.88-1.91l-1.16-.4h-2.15c-8.54.02-14.22,6.77-12.98,15.43.83,5.81,3.65,9.57,13.08,17.42,3.68,3.07,5.09,4.33,7.47,6.66,2.58,2.53,2.81,2.67,4.01,2.32"/>
</svg>