<?xml version="1.0" encoding="UTF-8"?>
<svg id="Calque_1" data-name="Calque 1" xmlns="http://www.w3.org/2000/svg" viewBox="0 0 500 700">
  <defs>
    <style>
      @font-face { font-family: 'Anton'; font-style: normal; font-weight: 400; src: url(https://fonts.gstatic.com/s/anton/v27/1Ptgg87LROyAm3Kz-C8.woff2) format('woff2'); unicode-range: U+0000-00FF, U+0131, U+0152-0153, U+02BB-02BC, U+02C6, U+02DA, U+02DC, U+0304, U+0308, U+0329, U+2000-206F, U+20AC, U+2122, U+2191, U+2193, U+2212, U+2215, U+FEFF, U+FFFD; }
      .cls-1 {
        fill: #fff;
      }

      .cls-2 {
        font-family: Anton-Regular, Anton;
        font-size: 80px;
      }

      .cls-3 {
        fill-rule: evenodd;
      }
    </style>
  </defs>
  <g>
    <rect class="cls-1" x="2.5" y="2.5" width="495" height="695" rx="47.5" ry="47.5"/>
    <path d="M450,5c24.81,0,45,20.19,45,45v600c0,24.81-20.19,45-45,45H50c-24.81,0-45-20.19-45-45V50C5,25.19,25.19,5,50,5h400M450,0H50C22.39,0,0,22.39,0,50v600c0,27.61,22.39,50,50,50h400c27.61,0,50-22.39,50-50V50c0-27.61-22.39-50-50-50h0Z"/>
  </g>
  <path id="path2" class="cls-3" d="M245.93,110.58c-11.67,3.11-16.97,15.34-11.43,26.36,1.23,2.44,2.28,3.97,6.12,8.87,3.77,4.82,6.5,9.18,6.03,9.64-.04.04-1.65-1.15-3.57-2.65-10.14-7.9-12.48-9.01-19.03-9.04-7.38-.03-13.1,3.59-16.22,10.24-5.2,11.11,2.74,24.28,14.96,24.8,6.78.29,10-1.09,19.23-8.28,4.55-3.54,5.72-4.35,5.72-3.93,0,.37-1.24,5.27-2.16,8.54-2.33,8.27-5.67,16.72-8.37,21.15-.34.57-.63,1.1-.63,1.18,0,.18,1.2.07,3.95-.36,2.87-.44,15.94-.44,18.89,0,2.72.41,3.95.53,3.95.36,0-.08-.46-.96-1.02-1.96-3.22-5.74-5.99-13.13-8.73-23.36-1.1-4.08-1.4-5.47-1.23-5.58.18-.11,1.96,1.17,6.22,4.5,8.21,6.41,11.09,7.68,17.39,7.68,15.95,0,23.75-18.58,12.53-29.89-3.7-3.73-7.18-5.14-12.71-5.13-6.36,0-8.94,1.26-19.23,9.33-3.23,2.53-3.45,2.67-3.26,2.04.54-1.81,2.19-4.31,6.42-9.74,7.3-9.38,9.08-14.65,7.39-21.82-2.15-9.09-12.34-15.33-21.19-12.97"/>
  <path id="path2-2" data-name="path2" class="cls-3" d="M245.93,494.52c-11.67,3.11-16.97,15.34-11.43,26.36,1.23,2.44,2.28,3.97,6.12,8.87,3.77,4.82,6.5,9.18,6.03,9.64-.04.04-1.65-1.15-3.57-2.65-10.14-7.9-12.48-9.01-19.03-9.04-7.38-.03-13.1,3.59-16.22,10.24-5.2,11.11,2.74,24.28,14.96,24.8,6.78.29,10-1.09,19.23-8.28,4.55-3.54,5.72-4.35,5.72-3.93,0,.37-1.24,5.27-2.16,8.54-2.33,8.27-5.67,16.72-8.37,21.15-.34.57-.63,1.1-.63,1.18,0,.18,1.2.07,3.95-.36,2.87-.44,15.94-.44,18.89,0,2.72.41,3.95.53,3.95.36,0-.08-.46-.96-1.02-1.96-3.22-5.74-5.99-13.13-8.73-23.36-1.1-4.08-1.4-5.47-1.23-5.58.18-.11,1.96,1.17,6.22,4.5,8.21,6.41,11.09,7.68,17.39,7.68,15.95,0,23.75-18.58,12.53-29.89-3.7-3.73-7.18-5.14-12.71-5.13-6.36,0-8.94,1.26-19.23,9.33-3.23,2.53-3.45,2.67-3.26,2.04.54-1.81,2.19-4.31,6.42-9.74,7.3-9.38,9.08-14.65,7.39-21.82-2.15-9.09-12.34-15.33-21.19-12.97"/>
  <text class="cls-2" transform="translate(33.15 97.23)"><tspan x="0" y="0">2</tspan></text>
  <path id="path2-3" data-name="path2" class="cls-3" d="M51.65,124.71c-6.88,1.83-10.01,9.05-6.74,15.54.72,1.44,1.35,2.34,3.61,5.23,2.23,2.84,3.83,5.41,3.56,5.69-.02.02-.97-.68-2.11-1.56-5.98-4.66-7.36-5.32-11.23-5.33-4.35-.02-7.73,2.11-9.57,6.04-3.07,6.55,1.62,14.32,8.82,14.63,4,.17,5.9-.64,11.34-4.89,2.68-2.09,3.38-2.57,3.38-2.32,0,.22-.73,3.11-1.27,5.04-1.37,4.88-3.34,9.86-4.94,12.48-.2.33-.37.65-.37.7,0,.11.71.04,2.33-.21,1.69-.26,9.4-.26,11.14,0,1.61.24,2.33.31,2.33.21,0-.04-.27-.56-.6-1.15-1.9-3.38-3.53-7.74-5.15-13.78-.65-2.41-.83-3.23-.73-3.29.11-.07,1.15.69,3.67,2.66,4.84,3.78,6.54,4.53,10.25,4.53,9.41,0,14.01-10.96,7.39-17.63-2.18-2.2-4.24-3.03-7.49-3.03-3.75,0-5.27.74-11.34,5.51-1.9,1.49-2.03,1.57-1.92,1.2.32-1.07,1.29-2.54,3.78-5.75,4.31-5.53,5.36-8.64,4.36-12.87-1.27-5.36-7.28-9.04-12.5-7.65"/>
  <text class="cls-2" transform="translate(471.72 608.63) rotate(-180)"><tspan x="0" y="0">2</tspan></text>
  <path id="path2-4" data-name="path2" class="cls-3" d="M453.21,581.15c6.88-1.83,10.01-9.05,6.74-15.54-.72-1.44-1.35-2.34-3.61-5.23-2.23-2.84-3.83-5.41-3.56-5.69.02-.02.97.68,2.11,1.56,5.98,4.66,7.36,5.32,11.23,5.33,4.35.02,7.73-2.11,9.57-6.04,3.07-6.55-1.62-14.32-8.82-14.63-4-.17-5.9.64-11.34,4.89-2.68,2.09-3.38,2.57-3.38,2.32,0-.22.73-3.11,1.27-5.04,1.37-4.88,3.34-9.86,4.94-12.48.2-.33.37-.65.37-.7,0-.11-.71-.04-2.33.21-1.69.26-9.4.26-11.14,0-1.61-.24-2.33-.31-2.33-.21,0,.04.27.56.6,1.15,1.9,3.38,3.53,7.74,5.15,13.78.65,2.41.83,3.23.73,3.29-.11.07-1.15-.69-3.67-2.66-4.84-3.78-6.54-4.53-10.25-4.53-9.41,0-14.01,10.96-7.39,17.63,2.18,2.2,4.24,3.03,7.49,3.03,3.75,0,5.27-.74,11.34-5.51,1.9-1.49,2.03-1.57,1.92-1.2-.32,1.07-1.29,2.54-3.78,5.75-4.31,5.53-5.36,8.64-4.36,12.87,1.27,5.36,7.28,9.04,12.5,7.65"/>
</svg>