<?xml version="1.0" encoding="UTF-8"?>
<svg id="Calque_1" data-name="Calque 1" xmlns="http://www.w3.org/2000/svg" viewBox="0 0 500 700">
  <defs>
    <style>
      @font-face { font-family: 'Anton'; font-style: normal; font-weight: 400; src: url(https://fonts.gstatic.com/s/anton/v27/1Ptgg87LROyAm3Kz-C8.woff2) format('woff2'); unicode-range: U+0000-00FF, U+0131, U+0152-0153, U+02BB-02BC, U+02C6, U+02DA, U+02DC, U+0304, U+0308, U+0329, U+2000-206F, U+20AC, U+2122, U+2191, U+2193, U+2212, U+2215, U+FEFF, U+FFFD; }
      .cls-1, .cls-2 {
        fill: #e31e46;
      }

      .cls-3, .cls-4 {
        fill: #1d2937;
      }

      .cls-5, .cls-6, .cls-4, .cls-2, .cls-7, .cls-8, .cls-9 {
        stroke-linecap: round;
        stroke-linejoin: round;
      }

      .cls-5, .cls-6, .cls-4, .cls-2, .cls-7, .cls-9 {
        stroke-width: 1.98px;
      }

      .cls-5, .cls-6, .cls-10 {
        stroke: #000;
      }

      .cls-5, .cls-10, .cls-8, .cls-9 {
        fill: none;
      }

      .cls-4, .cls-2, .cls-7, .cls-8, .cls-9 {
        stroke: #1d2937;
      }

      .cls-11, .cls-7 {
        fill: #fff;
      }

      .cls-10 {
        stroke-miterlimit: 10;
        stroke-width: 2px;
      }

      .cls-8 {
        stroke-width: 2.06px;
      }

      .cls-12 {
        font-family: Anton-Regular, Anton;
        font-size: 80px;
      }

      .cls-13 {
        fill-rule: evenodd;
      }
    </style>
  </defs>
  <g>
    <rect class="cls-11" x="2.5" y="2.5" width="495" height="695" rx="47.5" ry="47.5"/>
    <path d="M450,5c24.81,0,45,20.19,45,45v600c0,24.81-20.19,45-45,45H50c-24.81,0-45-20.19-45-45V50C5,25.19,25.19,5,50,5h400M450,0H50C22.39,0,0,22.39,0,50v600c0,27.61,22.39,50,50,50h400c27.61,0,50-22.39,50-50V50c0-27.61-22.39-50-50-50h0Z"/>
  </g>
  <text class="cls-12" transform="translate(34.26 97.23)"><tspan x="0" y="0">J</tspan></text>
  <path id="path2" class="cls-13" d="M51.65,124.71c-6.88,1.83-10.01,9.05-6.74,15.54.72,1.44,1.35,2.34,3.61,5.23,2.23,2.84,3.83,5.41,3.56,5.69-.02.02-.97-.68-2.11-1.56-5.98-4.66-7.36-5.32-11.23-5.33-4.35-.02-7.73,2.11-9.57,6.04-3.07,6.55,1.62,14.32,8.82,14.63,4,.17,5.9-.64,11.34-4.89,2.68-2.09,3.38-2.57,3.38-2.32,0,.22-.73,3.11-1.27,5.04-1.37,4.88-3.34,9.86-4.94,12.48-.2.33-.37.65-.37.7,0,.11.71.04,2.33-.21,1.69-.26,9.4-.26,11.14,0,1.61.24,2.33.31,2.33.21,0-.04-.27-.56-.6-1.15-1.9-3.38-3.53-7.74-5.15-13.78-.65-2.41-.83-3.23-.73-3.29.11-.07,1.15.69,3.67,2.66,4.84,3.78,6.54,4.53,10.25,4.53,9.41,0,14.01-10.96,7.39-17.63-2.18-2.2-4.24-3.03-7.49-3.03-3.75,0-5.27.74-11.34,5.51-1.9,1.49-2.03,1.57-1.92,1.2.32-1.07,1.29-2.54,3.78-5.75,4.31-5.53,5.36-8.64,4.36-12.87-1.27-5.36-7.28-9.04-12.5-7.65"/>
  <text class="cls-12" transform="translate(470.6 608.63) rotate(-180)"><tspan x="0" y="0">J</tspan></text>
  <path id="path2-2" data-name="path2" class="cls-13" d="M453.22,581.15c6.88-1.83,10.01-9.05,6.74-15.54-.72-1.44-1.35-2.34-3.61-5.23-2.23-2.84-3.83-5.41-3.56-5.69.02-.02.97.68,2.11,1.56,5.98,4.66,7.36,5.32,11.23,5.33,4.35.02,7.73-2.11,9.57-6.04,3.07-6.55-1.62-14.32-8.82-14.63-4-.17-5.9.64-11.34,4.89-2.68,2.09-3.38,2.57-3.38,2.32,0-.22.73-3.11,1.27-5.04,1.37-4.88,3.34-9.86,4.94-12.48.2-.33.37-.65.37-.7,0-.11-.71-.04-2.33.21-1.69.26-9.4.26-11.14,0-1.61-.24-2.33-.31-2.33-.21,0,.04.27.56.6,1.15,1.9,3.38,3.53,7.74,5.15,13.78.65,2.41.83,3.23.73,3.29-.11.07-1.15-.69-3.67-2.66-4.84-3.78-6.54-4.53-10.25-4.53-9.41,0-14.01,10.96-7.39,17.63,2.18,2.2,4.24,3.03,7.49,3.03,3.75,0,5.27-.74,11.34-5.51,1.9-1.49,2.03-1.57,1.92-1.2-.32,1.07-1.29,2.54-3.78,5.75-4.31,5.53-5.36,8.64-4.36,12.87,1.27,5.36,7.28,9.04,12.5,7.65"/>
  <rect class="cls-10" x="100" y="110" width="300" height="480"/>
  <g>
    <path id="path9013" class="cls-1" d="M330.23,382.32l-9.53.67-12.23-2.37-13.47-5.28-11.73-6.63-9.04-7.51-16.65-20.76-8.86-12.4-8.33-7.34-16.19-11.91-13.96-7.48-17.19-5.1-13.43-1.38-9.71-.18-11.06,3.26,11.2,19.67,9.53-.67,12.26,2.41,13.43,5.24,11.76,6.66,9,7.48,16.69,20.76,8.86,12.44,8.33,7.3,16.16,11.91,13.96,7.51,17.19,5.1,13.43,1.35,9.71.18,11.06-3.22-11.2-19.7Z"/>
    <path id="path9021" class="cls-1" d="M240.08,264.42l37.88,30.76-.28,62.72-3.86,2.66-6.8-6.8-10.35-13.89-8.58-12.12-3.86-4.15-4.71-3.86.57-55.31Z"/>
    <path id="path9023" class="cls-1" d="M292.17,373.28l24.84-18.04,2.37,4.75-21.3,16.87-5.92-3.58Z"/>
    <path id="path9025" class="cls-1" d="M273.81,359.99l36.11-23.67,2.06,4.71-33.73,22.22-4.43-3.26Z"/>
    <path id="path9027" class="cls-1" d="M287.14,288.38l-.32,63.04,23.99-15.7-3.86-17.75-2.66-17.15-.6-15.98.32-8.58-16.87,12.12Z"/>
    <path id="path9029" d="M277.68,363.25l34.3-22.78s2.41,6.09,3.54,9.18c.71,1.84,2.09,5.6,2.09,5.6l-25.44,18.36s-6.48-2.13-9.18-4.15c-2.2-1.63-5.32-6.2-5.32-6.2h0Z"/>
    <path id="path9031" d="M218,247.74l59.25,47.27,26.75-17.01-.25-14,.74-13.25.5-10.49-27.25,18.5-35.01-28.77-4.5-2.23-2.48-2.27-4-.5-2.27-3.26-2.98.78-3.01-3.76h-3.01l-2.48-2.27v31.25Z"/>
    <path id="path9033" d="M208.01,211.49l-.25,89.01,5.99,2.23,5,2.76-.25-89.26-3.26-.5-3.22-3.26-2.02.78-1.98-1.77Z"/>
    <path id="path9035" class="cls-2" d="M330.01,288.24l20.23-9.99s3.9,11.06,6.02,16.51c2.13,5.46,4.04,11.02,6.73,16.23,1.81,3.51,3.83,6.91,6.24,10.03,2.37,3.01,8.01,8.22,8.01,8.22l-.25,78.52s-9.89-11.98-14-18.5c-3.58-5.7-6.31-11.94-9.25-18-3.83-7.94-7.9-15.77-10.99-24.02-2.09-5.53-3.54-11.27-5.03-16.97-1.52-5.95-2.87-11.98-3.97-18-.82-4.39-1.31-8.86-2.02-13.25-.57-3.61-1.74-10.77-1.74-10.77h0Z"/>
    <path id="path9037" class="cls-1" d="M333.77,229.49l27.25,14.74-2.76,10.28.99,9.99,3.01,6.73-8.01,6.02-13.75,5.99-10.24,4.25-.99-9.99v-12.01l.74-14,2.23-15.73,1.52-6.27Z"/>
    <path id="path9039" class="cls-3" d="M296.49,376.75l22.75-17.01s3.97,8.68,6.02,13c1.63,3.44,5,10.24,5,10.24,0,0-11.09.71-16.51-.25-5.99-1.06-17.26-5.99-17.26-5.99h0Z"/>
    <path id="path9041" d="M400,462.75l-16.87-14.63.25-279.76,16.62-.11v294.5Z"/>
    <path id="path9043" class="cls-3" d="M165.98,228.6l.18,66.83-6.91,2.13s-11.2-15.63-16.94-23.35c-4.18-5.56-8.68-10.91-12.76-16.62-.99-1.38-2.83-4.22-2.83-4.22,0,0,11.09-8.08,16.8-11.87,4.08-2.66,8.19-5.17,12.4-7.58,3.3-1.88,10.06-5.32,10.06-5.32Z"/>
    <path id="path9045" d="M182.25,220.49l-.35,74.24s-5.53-.28-8.29-.18c-2.87.14-8.5.89-8.5.89l.18-66.83s6.31-3.4,9.53-4.93c2.45-1.17,7.44-3.19,7.44-3.19Z"/>
    <path id="path9047" class="cls-1" d="M275.23,144.12c-7.05.11-14.14-.11-21.19.35-5.88.35-11.73,1.03-17.51,1.91-3.83.6-7.55,1.56-11.34,2.3-.57,4.15-1.2,8.26-1.77,12.37-.6,4.68-1.1,9.32-1.74,14-.5,3.47-.78,6.98-1.59,10.42-.5,2.06-1.31,4-1.95,6.02l-2.66.35c-.89-.89-1.45-2.3-2.66-2.66-1.59-.5-3.47.07-4.96.89-2.13,1.13-3.65,3.22-4.93,5.28-1.24,1.98-2.23,4.22-2.48,6.56-.14,1.49.11,3.05.71,4.43.46,1.03,1.1,2.16,2.13,2.66.99.46,2.23,0,3.37,0,.57.81.96,1.81,1.74,2.45,1.2.99,2.83,1.31,4.25,1.95.78.89,1.24,2.16,2.3,2.66.92.43,2.02,0,3.01,0,.89.81,1.52,2.02,2.66,2.48.92.35,1.98,0,2.98,0,1.03,1.17,1.59,2.91,3.01,3.54,1.03.43,2.23-.14,3.37-.18.89,1.06,1.42,2.59,2.66,3.19,1.03.46,2.23,0,3.37,0,1.1.92,2.09,2.06,3.33,2.8,1.45.89,3.01,1.56,4.61,1.95,1.67.39,3.44.67,5.14.35,1.84-.32,3.61-1.2,5.14-2.3,1.67-1.2,3.08-2.83,4.22-4.57,1.59-2.37,2.66-5.07,3.54-7.8,1.59-4.93,2.09-10.1,3.01-15.2,1.17-6.63,2.02-13.32,3.19-19.99,1.13-6.59,2.41-13.22,3.69-19.77,1.1-5.49,2.27-10.98,3.37-16.44h0Z"/>
    <path id="path9049" class="cls-2" d="M201.98,110l20.02,40.01s10.17-2.69,15.38-3.54c8.15-1.31,16.37-2.2,24.63-2.48,9.99-.32,20.02.14,29.98.99,11.76,1.06,35.01,5.03,35.01,5.03l23-40.01h-148.02Z"/>
    <path id="path9051" class="cls-4" d="M216.83,111.45l15.17,29.55c6.48-2.27,11.41-2.34,19.7-3.26l-3.9-26.29h-5.74l5.1,22.75c-4.75.32-8.5.28-12.62,1.91l-11.13-24.66h-6.59Z"/>
    <path id="path9053" class="cls-4" d="M256.7,111.45l3.05,25.3c10.06-.92,18.14-1.49,28.21-.46l5.49-24.84h-6.45l-3.05,19.81c-7.9-.46-12.58.04-19.21.5l-2.23-20.3h-5.81Z"/>
    <path id="path9055" class="cls-4" d="M303.26,111.45l-7.34,25.05c7.37.64,18.07,1.59,26.08,3.47l13.71-28.53h-6.34l-10.38,23.53c-4.46-1.2-12.01-1.74-16.48-2.37l6.24-21.15h-5.49Z"/>
    <path id="path9057" class="cls-9" d="M275.02,144.97s-3.47,16.65-5.03,25.02c-1.81,9.96-2.91,20.09-5,30.01-1.38,6.73-1.59,14-5,19.99-2.3,4.11-5.42,8.79-9.99,9.99-4.43,1.17-10.21-.18-13.25-3.58-2.55-2.87-3.08-7.8-1.74-11.41,1.42-3.93,5.28-8.33,9.46-8.19,4.36.14,9.18,4.89,9.25,9.21.04,3.9-4.18,8.26-8.08,8.5-2.41.18-5.32-2.13-5.63-4.54-.39-2.8,2.16-6.84,5-6.8,1.7,0,4,1.98,2.94,4.15"/>
    <path id="path9059" class="cls-9" d="M269.17,144.16c-2.94,8.97-3.69,18.07-5.24,27.18-1.59,9.04-2.02,18.25-4.15,27.18-1.7,7.09-3.61,14.63-6.8,20.76"/>
    <path id="path9061" class="cls-9" d="M262.47,144.16c-2.23,7.8-2.91,16.05-4.15,24.1-1.2,7.87-1.63,15.87-3.15,23.67-1.1,5.67-1.91,11.34-4.32,16.69"/>
    <path id="path9063" class="cls-9" d="M256.52,144.55c-1.98,7.44-2.59,15.34-3.69,23.03-1.06,7.51-1.45,15.2-2.8,22.64-.99,5.39-1.7,10.84-3.86,15.95"/>
    <path id="path9065" class="cls-9" d="M250.71,145.19c-1.81,7.09-2.34,14.56-3.33,21.9-.96,7.12-1.31,14.39-2.52,21.47-.89,5.14-1.52,10.31-3.47,15.13"/>
    <path id="path9067" class="cls-9" d="M245,145.72c-1.77,6.73-2.34,13.86-3.3,20.8-.99,6.8-1.31,13.71-2.55,20.45-.89,4.89-1.52,9.78-3.47,14.39"/>
    <path id="path9069" class="cls-9" d="M238.63,146.6c-1.74,6.31-2.13,12.58-3.05,18.85-.92,6.34-1.28,12.76-2.48,19.03-.85,4.54-1.45,9.11-3.37,13.39"/>
    <path id="path9071" class="cls-9" d="M232.46,147.53c-1.67,5.74-2.16,11.8-3.05,17.72-.89,5.78-1.2,11.66-2.3,17.4-.82,4.15-1.42,8.33-3.19,12.26"/>
    <path id="path9073" class="cls-9" d="M225.48,149.47c-1.42,5.14-1.84,10.21-2.59,15.34-.78,5.17-1.03,10.45-1.98,15.59-.67,3.72-1.17,7.48-2.69,10.98"/>
    <path id="path9075" class="cls-9" d="M245.43,207.2c-1.63-1.1-3.08-3.08-5.03-3.15-3.22-.11-6.41,2.06-8.5,4.46-2.23,2.59-3.58,6.27-3.33,9.67.14,2.45,1.35,5.07,3.3,6.56.96.71,2.02.53,3.58.67"/>
    <path id="path9077" class="cls-9" d="M238.94,203.97c-1.35-1.49-2.37-2.66-3.97-2.76-3.22-.18-6.41,2.06-8.5,4.5-2.23,2.55-3.58,6.24-3.33,9.64.14,2.45,1.2,5.28,3.3,6.56.99.6,1.88.71,3.47-.07"/>
    <path id="path9079" class="cls-9" d="M234.05,201c-1.63-1.1-3.08-3.08-5.03-3.15-3.22-.11-6.41,2.06-8.5,4.5-2.23,2.55-3.58,6.24-3.33,9.64.14,2.45,1.2,5.24,3.3,6.56.89.57,1.63.6,3.19.07"/>
    <path id="path9081" class="cls-9" d="M227.32,197.63c-1.24-1.77-2.48-2.66-4.15-2.76-3.19-.14-6.41,2.06-8.5,4.5-2.2,2.55-3.54,6.24-3.33,9.64.18,2.45,1.31,5.14,3.3,6.56.92.64,1.63.85,3.37.46"/>
    <path id="path9083" class="cls-9" d="M221.62,194.26c-.6-1.49-2.23-2.52-3.76-2.62-3.19-.21-6.41,2.06-8.47,4.46-2.23,2.59-3.58,6.27-3.37,9.67.18,2.44,1.31,5.1,3.33,6.52.74.57,1.17.25,2.73.39"/>
    <path id="path9085" class="cls-9" d="M215.66,191.68c-.6-1.77-1.77-2.37-3.08-2.48-3.19-.32-6.41,2.02-8.5,4.46-2.23,2.59-3.44,6.24-3.33,9.64.04,1.81.64,3.83,1.98,5,1.06.96,2.55.99,4.11,1.1"/>
    <path id="path9087" class="cls-9" d="M326.79,150.47c-.85,10.17-1.45,20.3-2.52,30.44-.57,5.53-1.06,11.09-2.02,16.58-1.31,7.26-1.63,14.99-5,21.54-2.06,3.97-5.35,7.3-8.86,9.99-3.22,2.48-6.95,4.5-10.91,5.46-4.11,1.03-8.54,1.1-12.72.25-4.15-.89-7.83-3.22-11.55-5.24-4.68-2.52-8.93-5.74-13.39-8.61"/>
    <path id="path9089" class="cls-9" d="M272.96,163.86c3.93-1.13,7.76-2.76,11.8-3.4,2.62-.39,5.42-.92,7.97-.21,1.28.35,3.58,1.38,3.4,2.16-.11.39-.74.32-1.13.32-1.49.04-2.83-.92-4.32-1.13-2.16-.28-4.39-.21-6.59,0-3.76.39-7.41,1.52-11.13,2.27Z"/>
    <path id="path9091" class="cls-9" d="M295,172.15c.46-.5,1.74-.92,1.35-1.45-.46-.74-3.3-2.55-5.21-3.3-1.81-.71-3.79-.99-5.78-1.03-2.06-.07-4.15.25-6.17.78-1.38.39-2.48.99-4.04,1.67"/>
    <path id="path9093" class="cls-9" d="M270.8,173.43c3.33-.85,6.59-2.13,9.99-2.52,2.41-.28,4.89-.35,7.26.11,1.95.39,3.86,1.13,5.49,2.2,1.06.74,1.88,1.77,2.69,2.8-1.63.71-3.15,1.74-4.89,2.16-2.73.71-5.6.99-8.4.67-2.37-.25-4.64-1.17-6.8-2.16-1.91-.85-3.54-2.2-5.35-3.26Z"/>
    <path id="path9095" class="cls-9" d="M279.2,171.94c.11,1.17-.32,2.48.25,3.51.67,1.24,2.06,2.06,3.4,2.52,1.03.32,2.27.35,3.3,0,.99-.39,1.84-1.17,2.37-2.06.74-1.24.6-2.8.92-4.22"/>
    <path id="path9097" class="cls-4" d="M282.99,172.76c-.32.35-.18,1.03.07,1.42.28.46.82.82,1.31.82.53.04,1.06-.32,1.31-.74.32-.46.5-1.24.11-1.63-.67-.64-2.2-.5-2.8.14h0Z"/>
    <path id="path9099" class="cls-4" d="M278.88,183.85c2.37-.46,5.71-.99,8.4-2.02,2.37-.92,4.64-2.69,6.7-3.65"/>
    <path id="path9101" class="cls-9" d="M307.16,166.48c-.6,1.49-1.52,2.87-1.84,4.43-.57,3.19-.14,6.52.25,9.78.46,3.97,1.91,7.83,2.59,11.8.43,2.27,1.45,4.64.92,6.91-.25,1.13-1.1,2.06-1.91,2.83-1.03.96-2.45,1.45-3.65,2.16"/>
    <path id="path9103" class="cls-9" d="M293.87,191.25c-1.56,1.7-3.83,2.94-4.68,5.1-.39,1.03-.46,2.27,0,3.3.57,1.17,1.7,2.2,2.98,2.48,1.03.25,2.13-.32,3.05-.78,1.2-.64,1.88-2.06,3.08-2.62.85-.43,1.91-.92,2.83-.57.28.11.64.5.57.78-.32,1.03-1.98.78-2.94,1.13-1.31.5-2.59.92-3.86,1.38"/>
    <path id="path9105" class="cls-4" d="M286.32,212.44c1.59-.81,3.86-.64,5.78-.6,1.98.04,3.9.96,5.85.89,2.23-.11,4.29-1.59,6.56-1.59,1.63-.04,3.51.71,4.78,1.06-.07.57-.25,1.31,0,1.74-1.63-.6-3.97-1.49-5.99-1.24-1.91.25-3.3,2.45-5.24,2.48-2.23.07-3.97-2.48-6.24-2.59-2.16-.07-4.43,1.63-6.13,2.02.46-.64.67-1.7.64-2.16h0Z"/>
    <path id="path9107" class="cls-9" d="M290.26,219.39c1.59.67,3.08,1.7,4.78,2.02,1.24.25,2.59.21,3.86-.04.85-.14,1.63-.57,2.45-.89.74-.32,1.45-.71,2.2-1.03"/>
    <path id="path9109" class="cls-9" d="M301.77,224.38c-1.17-.5-2.27-.92-3.44-.92-.99,0-1.91.39-2.83.81"/>
    <path id="path9111" class="cls-4" d="M308.29,163.54c1.56-1.84,5-2.3,7.69-2.52,1.98-.14,3.93.39,5.85.96,1.35.39,2.66,1.13,3.93,1.74-2.16-.43-4.39-1.2-6.63-1.28-1.95-.04-3.9.35-5.81.78-1.35.32-2.59.96-3.79,1.59-.5.28-1.63-.82-1.24-1.28Z"/>
    <path id="path9113" class="cls-9" d="M307.73,170.35c1.56-.78,2.98-1.84,4.64-2.27,2.34-.67,4.89-.99,7.26-.57,1.59.28,2.94,1.35,4.43,1.98"/>
    <path id="path9115" class="cls-9" d="M306.7,173.64c1.7-.67,3.79-1.2,5.71-1.45,2.23-.28,4.54-.35,6.77-.07,1.31.18,2.69.43,3.86,1.1.71.43,1.17,1.2,1.77,1.81l-.35,2.73c-1.17.43-2.34,1.03-3.58,1.24-1.67.32-3.44.32-5.14.21-1.84-.11-3.72-.21-5.46-.89-1.31-.53-2.48-1.42-3.58-2.34-.35-.32-.64-.67-.96-1.03.32-.43.46-1.1.96-1.31h0Z"/>
    <path id="path9117" class="cls-9" d="M311.09,172.9c.07,1.17-.32,2.48.25,3.51.67,1.24,2.06,2.09,3.4,2.52,1.03.35,2.27.39,3.3,0,.96-.35,1.84-1.13,2.37-2.06.74-1.2.6-2.8.92-4.18"/>
    <path id="path9119" class="cls-4" d="M314.56,173.75c-.32.35-.18.99.07,1.42.28.43.82.78,1.31.82.53,0,1.06-.32,1.31-.74.32-.46.5-1.28.11-1.67-.67-.6-2.16-.5-2.8.18h0Z"/>
    <path id="path9121" class="cls-9" d="M307.51,179.06c1.28,1.38,2.3,3.01,3.79,4.18,1.2.92,2.66,1.42,4,2.13"/>
    <path id="path9123" class="cls-2" d="M323.56,188.59c.67,2.91,1.38,4.85,2.62,7.02,1.28,2.13,2.73,4.25,4.78,5.63,1.63,1.06,3.61,1.91,5.56,1.74,1.77-.14,3.65-.99,4.75-2.41,1.1-1.42,1.28-3.47,1.17-5.28-.11-1.63-.57-3.4-1.67-4.64-.96-1.13-2.41-1.91-3.86-2.06-1.03-.11-2.2.07-2.94.78-.57.53-.78,1.45-.78,2.23.04.85-.07,1.74.99,2.34-.78-.32-1.31-1.31-1.88-2.06-.74-1.06-1.38-2.27-1.91-3.51-.64-1.38-1.06-2.87-1.49-4.36-.53-2.02-.92-4.11-1.35-6.13-.71-3.22-1.52-7.09-2.06-9.64-.57,5.53-1.35,14.78-1.95,20.34h0Z"/>
    <path id="path9125" class="cls-2" d="M320.84,208.58c.64,2.91,2.59,8.58,4.85,12.37,1.28,2.13,2.8,4.18,4.78,5.63,1.59,1.17,3.47,2.48,5.46,2.34,1.88-.14,3.76-1.45,4.85-3.01,1.03-1.45,1.28-3.47,1.17-5.24-.11-1.67-.57-3.44-1.67-4.68-.96-1.1-2.41-1.88-3.9-2.06-.99-.11-2.16.11-2.91.78-.57.53-.82,1.45-.78,2.23.07.81.04,1.56,1.06,2.16-.78-.32-1.38-1.13-1.95-1.84-.82-1.06-1.38-2.3-1.95-3.51-.6-1.42-.99-2.94-1.45-4.39-.53-1.74-1.03-3.51-1.56-5.24-1.17-4.11-2.98-9.71-3.51-12.26-.57,5.53-1.95,11.16-2.52,16.73h0Z"/>
    <path id="path9127" class="cls-2" d="M318.6,216.41s.92,2.87,1.56,4.22c.74,1.52,2.62,4.36,2.62,4.36,0,0,3.22,1.45,4.89,2.06,1.56.57,4.75,1.45,4.75,1.45,0,0-3.69-2.87-5.14-4.68-1.28-1.56-2.16-3.4-3.05-5.24-.82-1.77-1.38-3.69-2.02-5.56-.57-1.67-1.56-5.07-1.56-5.07,0,0-.57,3.33-.99,5-.28,1.17-1.06,3.47-1.06,3.47h0Z"/>
    <path id="path9129" class="cls-2" d="M322.79,224.99l-6.8-3.9,2.62-4.75,4.18,8.65Z"/>
    <path id="path9131" class="cls-2" d="M252.41,229.2l24.91,20.69,28.07-18.46-.67,8.97-27.04,18.6-35.12-28.99c2.83.96,6.59.81,9.85-.81Z"/>
    <path id="path9133" class="cls-9" d="M182.25,238.52l9.36,10.6-9.18,9.71"/>
    <path id="path9135" class="cls-9" d="M182.6,244.94l3.37,3.9-3.37,3.51"/>
    <path id="path9137" class="cls-4" d="M195.5,226.51l-9.36,9.71,9,9.89,9.11-9.89-8.75-9.71ZM195.32,230.69l5.35,5-5.35,5.88-5.17-5.17,5.17-5.71Z"/>
    <path id="path9139" class="cls-2" d="M400,132.01l-37.99,36h37.99v-36Z"/>
    <path id="path9141" class="cls-2" d="M400,139.98l-23,22.01h23v-22.01Z"/>
    <path id="path9143" class="cls-9" d="M181.68,264.11l9.36,10.63-9.18,9.71"/>
    <path id="path9145" class="cls-9" d="M182.03,270.56l3.37,3.86-3.37,3.54"/>
    <path id="path9147" class="cls-9" d="M207.16,239.62l-9.18,9.85,9.18,9.71"/>
    <path id="path9149" class="cls-9" d="M206.98,245.29l-3.37,3.9,3.37,3.51"/>
    <path id="path9151" class="cls-9" d="M206.45,283.67l-8.61-9.28,9.18-9.71"/>
    <path id="path9153" class="cls-9" d="M206.84,278.56l-3.33-3.86,3.33-3.54"/>
    <path id="path9155" class="cls-4" d="M194.51,252.27l-9.36,9.71,9,9.89,9.5-10.06-9.14-9.53ZM194.33,256.45l5.35,5-5.35,5.88-5.17-5.17,5.17-5.71Z"/>
    <path id="path9157" class="cls-4" d="M194.9,277.64l-9.32,9.71,9,9.43,9.67-9.21-9.36-9.92ZM194.76,281.82l5.35,5-5.35,5.88-5.21-5.14,5.21-5.74Z"/>
    <path id="path9159" class="cls-9" d="M207.37,232.29l-8.4-9.07,7.83-8.4"/>
    <path id="path9161" class="cls-9" d="M207.23,227.01l-3.37-3.51,2.76-3.33"/>
    <path id="path9163" class="cls-9" d="M182.64,234.2l9.96-10.42-5.74-6.06"/>
    <path id="path9165" class="cls-9" d="M182.99,227.79l3.37-3.9-3.37-3.54"/>
    <path id="path9167" class="cls-2" d="M181.75,290.29l3.86,4.61"/>
    <path id="path9169" class="cls-2" d="M207.48,290.08l-7.09,7.3"/>
    <path id="path9171" class="cls-2" d="M182.14,220.77l-.57,73.88"/>
    <path id="path9173" class="cls-2" d="M207.69,211.73l-.21,88.41"/>
    <path id="path9175" class="cls-4" d="M191.18,216.16l4.39,4.39,8.47-8.43-1.35-2.3-11.52,6.34Z"/>
    <path id="path9177" class="cls-2" d="M377,168.01v70.98l6.02,2.02v-73h-6.02Z"/>
    <path id="path9179" class="cls-2" d="M383.03,448.01v-202.01h-6.02v204l23,20.02v-7.02l-16.97-14.99Z"/>
    <path id="path9181" class="cls-1" d="M391.5,169.99c-1.17,0-2.48,1.31-2.48,2.52s1.31,2.48,2.48,2.48,2.52-1.31,2.52-2.48-1.31-2.52-2.52-2.52Z"/>
    <path id="path9183" class="cls-1" d="M391.5,183.99c-1.17,0-2.48,1.31-2.48,2.52s1.31,2.48,2.48,2.48,2.52-1.31,2.52-2.48-1.31-2.52-2.52-2.52Z"/>
    <path id="path9185" class="cls-1" d="M394.51,177.01c-1.17,0-2.48,1.31-2.48,2.48s1.31,2.52,2.48,2.52,2.52-1.35,2.52-2.52-1.35-2.48-2.52-2.48Z"/>
    <path id="path9187" class="cls-1" d="M388.52,177.01c-1.17,0-2.52,1.31-2.52,2.48s1.35,2.52,2.52,2.52,2.48-1.35,2.48-2.52-1.31-2.48-2.48-2.48Z"/>
    <path id="path9189" class="cls-1" d="M391.67,218.75c-1.2,0-2.52,1.31-2.52,2.52s1.31,2.48,2.52,2.48,2.48-1.31,2.48-2.48-1.31-2.52-2.48-2.52Z"/>
    <path id="path9191" class="cls-1" d="M391.67,232.75c-1.2,0-2.52,1.35-2.52,2.52s1.31,2.48,2.52,2.48,2.48-1.31,2.48-2.48-1.31-2.52-2.48-2.52Z"/>
    <path id="path9193" class="cls-1" d="M394.65,225.77c-1.17,0-2.48,1.31-2.48,2.48s1.31,2.52,2.48,2.52,2.52-1.31,2.52-2.52-1.31-2.48-2.52-2.48Z"/>
    <path id="path9195" class="cls-1" d="M388.66,225.77c-1.17,0-2.52,1.31-2.52,2.48s1.35,2.52,2.52,2.52,2.52-1.31,2.52-2.52-1.35-2.48-2.52-2.48Z"/>
    <path id="path9197" class="cls-1" d="M391.46,267.54c-1.17,0-2.48,1.31-2.48,2.48s1.31,2.52,2.48,2.52,2.52-1.31,2.52-2.52-1.35-2.48-2.52-2.48Z"/>
    <path id="path9199" class="cls-1" d="M391.46,281.54c-1.17,0-2.48,1.31-2.48,2.48s1.31,2.52,2.48,2.52,2.52-1.31,2.52-2.52-1.35-2.48-2.52-2.48Z"/>
    <path id="path9201" class="cls-1" d="M394.47,274.52c-1.17,0-2.52,1.35-2.52,2.52s1.35,2.48,2.52,2.48,2.48-1.31,2.48-2.48-1.31-2.52-2.48-2.52Z"/>
    <path id="path9203" class="cls-1" d="M388.48,274.52c-1.2,0-2.52,1.35-2.52,2.52s1.31,2.48,2.52,2.48,2.48-1.31,2.48-2.48-1.31-2.52-2.48-2.52Z"/>
    <path id="path9205" class="cls-1" d="M391.28,317.08c-1.17,0-2.52,1.31-2.52,2.48s1.35,2.52,2.52,2.52,2.48-1.31,2.48-2.52-1.31-2.48-2.48-2.48Z"/>
    <path id="path9207" class="cls-1" d="M391.28,331.08c-1.17,0-2.52,1.31-2.52,2.52s1.35,2.48,2.52,2.48,2.48-1.31,2.48-2.48-1.31-2.52-2.48-2.52Z"/>
    <path id="path9209" class="cls-1" d="M394.26,324.06c-1.17,0-2.48,1.35-2.48,2.52s1.31,2.52,2.48,2.52,2.52-1.35,2.52-2.52-1.31-2.52-2.52-2.52Z"/>
    <path id="path9211" class="cls-1" d="M388.27,324.06c-1.17,0-2.48,1.35-2.48,2.52s1.31,2.52,2.48,2.52,2.52-1.35,2.52-2.52-1.35-2.52-2.52-2.52Z"/>
    <path id="path9213" class="cls-1" d="M391.28,365.49c-1.17,0-2.52,1.31-2.52,2.48s1.35,2.52,2.52,2.52,2.48-1.35,2.48-2.52-1.31-2.48-2.48-2.48Z"/>
    <path id="path9215" class="cls-1" d="M391.28,379.48c-1.17,0-2.52,1.31-2.52,2.48s1.35,2.52,2.52,2.52,2.48-1.31,2.48-2.52-1.31-2.48-2.48-2.48Z"/>
    <path id="path9217" class="cls-1" d="M394.26,372.47c-1.17,0-2.48,1.31-2.48,2.52s1.31,2.48,2.48,2.48,2.52-1.31,2.52-2.48-1.31-2.52-2.52-2.52Z"/>
    <path id="path9219" class="cls-1" d="M388.27,372.47c-1.17,0-2.48,1.31-2.48,2.52s1.31,2.48,2.48,2.48,2.52-1.31,2.52-2.48-1.35-2.52-2.52-2.52Z"/>
    <path id="path9221" class="cls-1" d="M390.72,414.07c-1.2,0-2.52,1.31-2.52,2.48s1.31,2.52,2.52,2.52,2.48-1.31,2.48-2.52-1.31-2.48-2.48-2.48Z"/>
    <path id="path9223" class="cls-1" d="M390.72,428.06c-1.2,0-2.52,1.31-2.52,2.48s1.31,2.52,2.52,2.52,2.48-1.31,2.48-2.52-1.31-2.48-2.48-2.48Z"/>
    <path id="path9225" class="cls-1" d="M393.69,421.05c-1.17,0-2.48,1.35-2.48,2.52s1.31,2.48,2.48,2.48,2.52-1.31,2.52-2.48-1.35-2.52-2.52-2.52Z"/>
    <path id="path9227" class="cls-1" d="M387.7,421.05c-1.17,0-2.52,1.35-2.52,2.52s1.35,2.48,2.52,2.48,2.48-1.31,2.48-2.48-1.31-2.52-2.48-2.52Z"/>
    <path id="path9229" class="cls-1" d="M385.01,206.99v-5l13-12.01v5.03l-13,11.98Z"/>
    <path id="path9231" class="cls-1" d="M385.01,214.99v-5l13-12.01v5l-13,12.01Z"/>
    <path id="path9233" class="cls-1" d="M385.01,256.98v-5l13-11.98v5l-13,11.98Z"/>
    <path id="path9235" class="cls-1" d="M385.01,264.99v-5l13-12.01v5l-13,12.01Z"/>
    <path id="path9237" class="cls-1" d="M385.01,306.98v-5l13-11.98v5l-13,11.98Z"/>
    <path id="path9239" class="cls-1" d="M385.01,314.99v-5l13-12.01v5.03l-13,11.98Z"/>
    <path id="path9241" class="cls-1" d="M385.01,355v-5l13-12.01v5l-13,12.01Z"/>
    <path id="path9243" class="cls-1" d="M385.01,363v-5l13-12.01v5l-13,12.01Z"/>
    <path id="path9245" class="cls-1" d="M385.01,402.02v-5.03l13-11.98v5l-13,12.01Z"/>
    <path id="path9247" class="cls-1" d="M385.01,409.99v-5l13-11.98v5l-13,11.98Z"/>
    <path id="path9249" class="cls-1" d="M385.15,448.26l-.14-1.24,13-12.01v5l-9.99,9.89-2.87-1.63Z"/>
    <path id="path9251" class="cls-1" d="M391.74,453.51l-2.37-1.98,8.65-8.5v5l-6.27,5.49Z"/>
    <path id="path9253" class="cls-4" d="M317.51,250.96l-9.36,9.74,9,9.89,9.67-9.71-9.32-9.92ZM317.33,255.18l5.35,5-5.35,5.85-5.17-5.14,5.17-5.71Z"/>
    <path id="path9255" class="cls-4" d="M321.23,223.46l-10.52,8.47,7.69,10.95,10.81-8.4-7.97-11.02ZM320.55,227.61l4.64,5.63-6.06,5.14-4.46-5.78,5.88-5Z"/>
    <path id="path9257" class="cls-4" d="M317.15,276.83l-8.26,9.92,10.03,8.22,8.36-9.92-10.13-8.22ZM317.43,280.72l5.85,4.07-4.68,5.95-5.71-4.25,4.54-5.78Z"/>
    <path id="path9259" class="cls-4" d="M319.6,300.21l-7.83,10.98,10.35,8.5,8.19-11.02-10.7-8.47ZM320.06,304.4l6.02,4.15-4.43,6.59-5.88-4.32,4.29-6.41Z"/>
    <path id="path9261" class="cls-4" d="M323.78,326.01l-6.02,12.05,11.52,6.8,6.38-12.15-11.87-6.7ZM324.88,330.05l6.59,3.19-3.37,7.19-6.48-3.37,3.26-7.02Z"/>
    <path id="path9263" class="cls-4" d="M331.04,351.42l-4.89,12.58,12.12,5.67,5.21-12.69-12.44-5.56ZM332.53,355.35l6.84,2.55-2.66,7.48-6.77-2.73,2.59-7.3Z"/>
    <path id="path9265" class="cls-4" d="M341.78,377.07l-2.41,13.25,12.97,3.3,2.69-13.43-13.25-3.12ZM343.98,380.65l7.23,1.2-1.24,7.83-7.16-1.42,1.17-7.62Z"/>
    <path id="path9267" class="cls-4" d="M355.24,400.78l-1.28,13.43,13.22,2.16,1.52-13.64-13.47-1.95ZM357.73,404.18l7.3.57-.53,7.94-7.26-.82.5-7.69Z"/>
    <path id="path9269" class="cls-9" d="M331.25,238.77l-10.21,8.19,8.08,9.99"/>
    <path id="path9271" class="cls-9" d="M330.47,243.98l-3.76,3.3,2.94,3.61"/>
    <path id="path9273" class="cls-9" d="M332.49,229.49s-1.45,12.33-1.98,18.5c-.74,8.58-1.84,17.15-1.77,25.76.11,7.55,1.06,15.02,2.02,22.5,1.03,7.97,2.2,15.91,4,23.74,1.98,8.72,4.5,17.33,7.48,25.76,2.73,7.58,5.95,15.02,9.53,22.25,3.83,7.8,8.08,15.41,12.72,22.75,3.54,5.6,11.52,16.26,11.52,16.26"/>
    <path id="path9275" class="cls-9" d="M305.03,256.13l10.63-11.34-9.5-11.41"/>
    <path id="path9277" class="cls-9" d="M305.46,249.61l4.54-4.75-4.18-5.17"/>
    <path id="path9279" class="cls-9" d="M328.53,264.57l-8.54,8.22,7.9,8.68"/>
    <path id="path9281" class="cls-9" d="M328.21,269.42l-3.15,3.26,2.91,3.15"/>
    <path id="path9283" class="cls-9" d="M304.08,286.04l10.24-11.69-9.85-11.09"/>
    <path id="path9285" class="cls-9" d="M304.29,279.52l4.36-4.93-4.36-5"/>
    <path id="path9287" class="cls-9" d="M306.84,311.34l8.97-12.69-10.91-10.03"/>
    <path id="path9289" class="cls-9" d="M306.38,304.82l3.83-5.32-4.85-4.57"/>
    <path id="path9291" class="cls-9" d="M311.59,336.68l7.44-13.64-12.05-8.68"/>
    <path id="path9293" class="cls-9" d="M310.38,330.26l3.19-5.74-5.35-3.97"/>
    <path id="path9295" class="cls-9" d="M322.01,362.76l5.32-14.63-13.18-6.77"/>
    <path id="path9297" class="cls-9" d="M319.84,356.59l2.3-6.17-5.88-3.12"/>
    <path id="path9299" class="cls-9" d="M334.55,389.23l3.54-15.17-13.93-5.14"/>
    <path id="path9301" class="cls-9" d="M331.68,383.34l1.52-6.38-6.2-2.37"/>
    <path id="path9303" class="cls-8" d="M349.33,413.36l2.02-15.41-13.22-3.9"/>
    <path id="path9305" class="cls-8" d="M346.17,407.76l.92-6.48-5.92-1.84"/>
    <path id="path9307" class="cls-8" d="M367.22,436.71l-.74-16.05-13.68-1.49"/>
    <path id="path9309" class="cls-8" d="M363.15,431.07l-.25-6.48-6.13-.74"/>
    <path id="path9311" class="cls-9" d="M330.76,383.73c4,6.7,7.8,13.47,12.01,20.02,5.39,8.43,10.88,16.8,16.97,24.73,5.17,6.73,11.02,12.86,16.51,19.28"/>
    <path id="path9313" class="cls-9" d="M370.77,440.25l5.74.74"/>
    <path id="path9315" class="cls-4" d="M376.26,436.99l-5.49-1.24.5-14.49,5,1.24v14.49Z"/>
    <path id="path9317" class="cls-9" d="M372.25,403.26l-.99,13,5,1.24"/>
    <path id="path9319" class="cls-9" d="M329.7,287.81l-7.48,9.28,8.97,7.58"/>
    <path id="path9321" class="cls-9" d="M329.98,292.7l-2.73,3.65,3.26,2.76"/>
    <path id="path9323" class="cls-9" d="M332,312.44l-5.74,10.38,10.1,5.95"/>
    <path id="path9325" class="cls-9" d="M333.13,317.19l-2.06,4.04,3.69,2.16"/>
    <path id="path9327" class="cls-9" d="M338.52,336.78l-4.85,10.84,10.56,5.1"/>
    <path id="path9329" class="cls-9" d="M340.04,341.46l-1.7,4.18,3.86,1.84"/>
    <path id="path9331" class="cls-9" d="M346.7,361.23l-2.91,11.52,11.3,3.19"/>
    <path id="path9333" class="cls-9" d="M349.01,365.56l-.96,4.43,4.15,1.13"/>
    <path id="path9335" class="cls-9" d="M358.68,384.27l-1.56,11.8,11.59,1.84"/>
    <path id="path9337" class="cls-9" d="M361.48,388.31l-.43,4.5,4.22.67"/>
    <path id="path9339" class="cls-4" d="M350.99,278.49c3.19,8.75,5.81,17.72,9.53,26.26,2.34,5.39,4.61,10.91,7.97,15.73,2.23,3.19,5.35,5.67,8.01,8.5l-.25-14-4.5.99,2.52-6.24-5.78-.25,3.51-4.25-5.24-.5,3.26-4.5-5.78-.25,4-5-6.48-.5,3.76-5-5.78-.53,3.51-4.75-5-.74,3.26-5.49-7.02-.25-3.51.74Z"/>
    <path id="path9341" class="cls-7" d="M362.01,244.23c2.34-2.52,6.2-3.15,9.5-4.18,1.77-.53,3.65-1.1,5.49-.99,2.09.11,4.29.53,6.02,1.74.92.67,1.91,1.63,1.98,2.76.07.85-.6,1.7-1.24,2.23-.6.5-1.49.57-2.27.74-1.24.35-2.62.14-3.76.74-1.03.57-1.98,1.45-2.41,2.55-.53,1.24-.35,2.76-.11,4.11.28,1.52,1.1,3.12,1.77,4.29l-.25,14.28c-2.83.32-5.81,1.24-8.75.99-1.74-.14-3.69-.35-5-1.49-2.37-2.13-3.01-5.67-3.76-8.75-.71-3.19-.96-6.56-.5-9.74.46-3.26,1.03-6.87,3.26-9.28h0Z"/>
    <path id="path9343" class="cls-7" d="M330.76,287.49c4.5-1.84,8.08-3.37,12.01-5.24,3.37-1.63,6.7-3.44,9.99-5.24,3.12-1.7,6.73-3.58,9.25-5.24"/>
    <path id="path9345" class="cls-7" d="M332.25,229.24c5.42,2.59,10.91,5.07,16.27,7.76,4.29,2.16,8.5,4.5,12.76,6.73"/>
    <path id="path9347" class="cls-7" d="M356.52,241.5s-2.3,7.23-2.76,10.98c-.46,3.83-.6,7.72,0,11.52.57,3.37,3.26,9.74,3.26,9.74l-12.76,7.26,5.49-9-5.99-6.02,6.48-7.23-5.99-8.26,5.24-4.25-3.26-9.99,10.28,5.24Z"/>
    <path id="path9349" class="cls-9" d="M334.02,231.26l7.48,12.23-6.48,6.27,6.24,8.5-6.48,7.97,5.74,5.78-6.98,13.5"/>
    <path id="path9351" class="cls-9" d="M332.49,237.74l2.52,4-3.76,3.01"/>
    <path id="path9353" class="cls-9" d="M330.51,254.75l3.01,3.76-3.26,4.25"/>
    <path id="path9355" class="cls-9" d="M329.77,269.24l3.22,4.5-3.22,5"/>
    <path id="path9357" class="cls-2" d="M336.75,293.73l11.27-5.49s3.4,11.45,5.49,17.01c1.77,4.75,3.47,9.6,5.99,14,2.94,5.07,10.52,14,10.52,14v52.27s-9.89-15.7-14-23.99c-4.25-8.58-8.04-17.43-11.02-26.51-2.48-7.58-4.25-15.41-5.74-23.28-1.13-5.92-2.52-18-2.52-18Z"/>
    <path id="path9359" class="cls-2" d="M334.69,136.51s.67,7.3,2.3,10.49c1.59,3.08,4.18,5.74,7.02,7.76,2.45,1.74,5.32,2.91,8.26,3.47,2.45.5,5,.25,7.48,0,1.7-.14,5-.99,5-.99,0,0-3.19-1.03-4.22-2.23-2.23-2.55-2.55-6.27-3.51-9.5-.96-3.22-1.17-6.63-2.27-9.78-1.1-3.19-2.09-6.63-4.25-9.25-1.17-1.42-2.76-2.55-4.5-3.22-1.03-.43-3.3-.53-3.3-.53l-8.01,13.78Z"/>
    <path id="path9361" class="cls-9" d="M339.51,129.45c1.2,3.97,2.23,7.8,4.25,11.27,1.7,3.01,4.11,5.53,6.48,8.01,1.56,1.63,3.33,3.01,5,4.5"/>
    <path id="path9363" class="cls-9" d="M348.12,132.61c-1.77.96-5.71.11-7.65-.28-1.35,2.66-2.45,4.71-2.34,7.19"/>
    <path id="path9365" class="cls-9" d="M349.72,137.14c-1.77.96-5.1.67-7.05.28-1.35,2.66-2.45,5.24-2.34,7.72"/>
    <path id="path9367" class="cls-9" d="M351.98,143.31c-1.81.96-4.36.25-6.31-.14-1.35,2.66-1.06,5.07-.96,7.55"/>
    <path id="path9369" class="cls-9" d="M354.57,147.81c-1.77.99-2.91.07-4.85-.32-1.35,2.66-.64,3.69-.53,6.17"/>
    <path id="path9371" class="cls-9" d="M340.01,128.36c1.77.28,3.54.43,5.32-.35"/>
    <path id="path9373" class="cls-1" d="M219.91,221.58c-.85.32-1.95.89-2.06,1.81-.11.89.89,1.67,1.63,2.16.43.28,1.03.25,1.52.43.53.18,1.24.25,1.59.74s.11,1.24.25,1.84c.43,1.49.6,3.26,1.74,4.29.99.96,2.52,1.13,3.86,1.28,1.17.11,2.34-.28,3.47-.43.92-.11,1.81-.39,2.73-.32.46.07.96.11,1.31.39.32.28.43.74.5,1.13.21.85.07,1.74.11,2.62.04,1.13-.18,2.3.11,3.37.35,1.28.89,2.66,1.91,3.47,1.1.89,2.62,1.1,4,1.17,1.17.04,2.3-.43,3.47-.64.89-.18,1.74-.53,2.66-.5.39,0,.85,0,1.13.28.18.14.18.46.21.67.07.74-.14,1.45-.21,2.2-.07.99-.43,2.02-.25,3.01.18,1.2.53,2.55,1.38,3.44.96.96,2.45,1.38,3.79,1.63,1.17.18,2.37-.25,3.54-.28,1.45,0,3.22-.74,4.36.18.89.71.57,2.16.78,3.26.21,1.03.11,2.09.5,3.01.5,1.13,1.13,2.34,2.16,2.98.85.53,1.98.6,2.98.53.74-.04,1.45-.46,2.2-.67.6-.18,1.28-.78,1.88-.53.18.07.21.32.25.5.28.6.39,1.24.6,1.88.28.78.39,1.74.96,2.37.78.92,1.88,1.81,3.08,1.81,1.17-.04,2.27-.92,3.01-1.81.53-.67.57-1.59.82-2.37.21-.6.32-1.2.53-1.81.07-.11.07-.28.18-.32.14-.11.35-.04.53,0,.6.14,1.13.5,1.7.71.82.28,1.56.78,2.41.85,1.13.07,2.41.04,3.3-.64,1.03-.74,1.52-2.13,1.81-3.37.25-1.03-.07-2.06-.11-3.12-.04-.71-.21-1.45-.11-2.2.04-.18,0-.39.14-.5.28-.25.74-.14,1.1-.14.82.04,1.59.28,2.37.5,1.06.35,2.02,1.2,3.12,1.28.96.04,2.34,0,2.76-.85.46-.85-.28-2.02-.92-2.73-.96-.96-2.48-1.1-3.76-1.49-1.1-.32-2.2-.71-3.33-.71-1.24.04-2.62.11-3.61.85-1.03.78-1.56,2.13-1.84,3.37-.25.99.07,2.06.07,3.08.04.78.64,1.81.07,2.34-.46.43-1.24-.04-1.84-.18-.82-.21-1.52-.78-2.34-.92-1.06-.14-2.23-.25-3.22.21-.96.5-1.59,1.49-2.16,2.41-.39.67-.04,2.16-.82,2.16s-.43-1.59-.82-2.3c-.57-.96-1.17-2.06-2.2-2.45-1.56-.64-3.37.43-5.07.39-.64,0-1.45.25-1.95-.18-.57-.53-.21-1.52-.43-2.27-.6-2.09-.6-4.71-2.3-6.06-1.95-1.56-4.89-.96-7.37-1.03-.92,0-1.81.35-2.69.25-.46-.07-.99-.14-1.28-.5-.18-.18-.21-.46-.25-.74-.07-.74.18-1.49.25-2.23.07-1.03.39-2.06.25-3.05-.21-1.2-.6-2.55-1.56-3.4-1.03-.92-2.55-1.2-3.93-1.31-1.17-.07-2.34.43-3.47.64-.92.14-1.81.5-2.73.5-.43,0-.92,0-1.24-.25s-.43-.71-.53-1.1c-.18-.85-.04-1.7-.07-2.55-.04-1.13.14-2.3-.14-3.4-.32-1.28-.82-2.66-1.84-3.51-1.03-.89-2.48-1.17-3.83-1.31-1.17-.14-2.34.21-3.51.35-.92.11-1.84.39-2.76.35-.46-.04-1.06,0-1.35-.35-.35-.35-.14-.99-.25-1.45-.32-1.45-.35-3.12-1.31-4.29-.78-.99-2.16-1.42-3.33-1.88-.64-.25-1.28-.35-1.95-.5-.11-.04-.25-.07-.35-.07h0Z"/>
    <path id="path9375" class="cls-1" d="M220.02,233.14c-.82.04-1.59.6-1.88,1.38-.25.78.04,1.74.71,2.23l58.15,45.89c.67.5,1.67.53,2.37.04l22.75-15.95c.92-.6,1.2-1.95.57-2.83-.6-.89-1.98-1.1-2.83-.46l-21.58,15.13-56.98-44.97c-.35-.28-.82-.46-1.28-.46h0Z"/>
    <path id="path9377" d="M277.07,293.73v63.89l9.74-6.8.32-63.32-10.06,6.24Z"/>
    <path id="path9379" class="cls-1" d="M218.5,247.88l21.01,16.87.28,54.43-21.3-14.49v-56.8Z"/>
    <path id="path9381" class="cls-5" d="M239.79,263.82l.6,56.24"/>
    <path id="path9383" class="cls-5" d="M245.71,268.04l.28,57.33"/>
    <path id="path9385" class="cls-5" d="M272.64,290.75l.28,68.35"/>
    <path id="path9387" class="cls-9" d="M310.49,335.44l-36.39,24.24"/>
    <path id="path9389" class="cls-5" d="M272.61,349.75l-26.33-26.86,26.51-25.65-26.79-27.5"/>
    <path id="path9391" class="cls-5" d="M261.87,281.19l-16.05,16.41,26.79,27.92-15.17,14.17"/>
    <path id="path9393" class="cls-5" d="M259.04,291.43l-4.93,5.28,4.93,5.81,5.1-5.28-5.1-5.81Z"/>
    <path id="path9395" class="cls-5" d="M258.89,319.1l-4.29,4.71,4.85,4.93,4.32-4.61-4.89-5.03Z"/>
    <path id="path9397" class="cls-6" d="M246.88,277.68l4.89,5.35-5.14,5.42.25-10.77Z"/>
    <path id="path9399" class="cls-6" d="M272.08,305.71l-5.24,5.46,5.32,5.17-.07-10.63Z"/>
    <path id="path9401" class="cls-6" d="M246.6,305.67l4.82,5.24-4.93,4.54.11-9.78Z"/>
    <path id="path9403" class="cls-6" d="M272.22,333.2l-4.61,4.75,4.85,4.75-.25-9.5Z"/>
    <path id="path9405" class="cls-9" d="M202.94,209.5c-7.09,3.54-14.17,7.05-21.23,10.63-5.07,2.55-10.21,5.03-15.2,7.76-7.19,3.93-14.35,7.94-21.23,12.4-6.45,4.18-12.47,8.93-18.75,13.43,4.15,5.53,8.19,11.13,12.4,16.62,3.58,4.64,7.48,9.07,10.95,13.78,3.22,4.36,6.13,8.97,9.18,13.43,2.48-.71,4.89-1.74,7.44-2.13,5-.74,10.13-.67,15.2-.35,4.04.25,8.04.99,12.01,1.77,4.29.85,8.61,1.74,12.76,3.19,4.25,1.49,8.4,3.47,12.37,5.67,4.54,2.48,8.86,5.42,13.08,8.47,4.54,3.3,9.11,6.63,13.08,10.6,3.86,3.86,6.95,8.43,10.28,12.76,3.61,4.75,6.84,9.82,10.6,14.49,2.55,3.19,5.17,6.34,8.11,9.18,4.08,3.9,8.33,7.62,13.11,10.6,4.39,2.8,9.25,4.89,14.14,6.73,4.68,1.81,9.5,3.54,14.49,4.25,4.89.71,9.89,0,14.85,0-2.73-5.56-5.63-10.98-8.15-16.62-3.12-7.09-6.06-14.24-8.47-21.58-2.27-6.84-4.18-13.82-5.67-20.87-1.49-7.23-2.41-14.56-3.19-21.9-.57-5.53-.89-11.09-1.06-16.62-.18-6.13-.04-12.26,0-18.39.07-5.78.14-11.55.35-17.33.25-6.02.71-12.01,1.06-18.04"/>
    <path id="path9407" class="cls-1" d="M259.92,435.58l-37.88-30.76.28-62.72,3.86-2.66,6.8,6.8,10.35,13.89,8.58,12.12,3.86,4.15,4.71,3.86-.57,55.31Z"/>
    <path id="path9409" class="cls-1" d="M207.83,326.72l-24.84,18.04-2.37-4.75,21.3-16.87,5.92,3.58Z"/>
    <path id="path9411" class="cls-1" d="M226.19,340.01l-36.11,23.67-2.06-4.71,33.73-22.22,4.43,3.26Z"/>
    <path id="path9413" class="cls-1" d="M212.86,411.62l.32-63.04-23.99,15.7,3.86,17.75,2.66,17.15.6,15.98-.32,8.58,16.87-12.12Z"/>
    <path id="path9415" d="M222.32,336.75l-34.3,22.78s-2.41-6.09-3.54-9.18c-.71-1.84-2.09-5.6-2.09-5.6l25.44-18.36s6.48,2.13,9.18,4.15c2.2,1.63,5.32,6.2,5.32,6.2h0Z"/>
    <path id="path9417" d="M282,452.26l-59.25-47.27-26.75,17.01.25,14-.74,13.25-.5,10.49,27.25-18.5,35.01,28.77,4.5,2.23,2.48,2.27,4,.5,2.27,3.26,2.98-.78,3.01,3.76h3.01l2.48,2.27v-31.25Z"/>
    <path id="path9419" d="M291.99,488.51l.25-89.01-5.99-2.23-5-2.76.25,89.26,3.26.5,3.22,3.26,2.02-.78,1.98,1.77Z"/>
    <path id="path9421" class="cls-2" d="M169.99,411.76l-20.23,9.99s-3.9-11.06-6.02-16.51c-2.13-5.46-4.04-11.02-6.73-16.23-1.81-3.51-3.83-6.91-6.27-10.03-2.34-3.01-7.97-8.22-7.97-8.22l.25-78.52s9.89,11.98,14,18.5c3.58,5.71,6.31,11.94,9.25,18,3.83,7.94,7.9,15.77,10.99,24.02,2.09,5.53,3.54,11.27,5,16.97,1.56,5.95,2.91,11.98,4,18,.82,4.39,1.31,8.86,2.02,13.25.57,3.61,1.74,10.77,1.74,10.77Z"/>
    <path id="path9423" class="cls-1" d="M166.23,470.51l-27.25-14.74,2.76-10.28-.99-9.99-3.01-6.73,8.01-6.02,13.75-5.99,10.24-4.25.99,9.99v12.01l-.74,14-2.23,15.73-1.52,6.27Z"/>
    <path id="path9425" class="cls-3" d="M203.51,323.25l-22.75,17.01s-3.97-8.68-6.02-13c-1.63-3.44-5-10.24-5-10.24,0,0,11.09-.71,16.51.25,5.99,1.06,17.26,5.99,17.26,5.99h0Z"/>
    <path id="path9427" d="M100,237.25l16.87,14.63-.25,279.76-16.62.11V237.25Z"/>
    <path id="path9429" class="cls-3" d="M334.02,471.4l-.18-66.83,6.91-2.13s11.2,15.63,16.94,23.35c4.18,5.56,8.68,10.91,12.76,16.62.99,1.38,2.83,4.22,2.83,4.22,0,0-11.09,8.08-16.8,11.87-4.08,2.66-8.19,5.17-12.4,7.58-3.3,1.88-10.06,5.32-10.06,5.32h0Z"/>
    <path id="path9431" d="M317.75,479.51l.35-74.24s5.53.28,8.29.18c2.87-.14,8.5-.89,8.5-.89l-.18,66.83s-6.31,3.4-9.53,4.93c-2.45,1.17-7.44,3.19-7.44,3.19h0Z"/>
    <path id="path9433" class="cls-1" d="M224.77,555.88c7.05-.11,14.14.11,21.19-.35,5.88-.35,11.73-1.03,17.51-1.91,3.83-.6,7.55-1.56,11.34-2.3.57-4.15,1.2-8.26,1.77-12.37.6-4.68,1.1-9.32,1.74-14,.5-3.47.78-6.98,1.59-10.42.5-2.06,1.31-4,1.95-6.02l2.66-.35c.89.89,1.45,2.3,2.66,2.66,1.59.5,3.47-.07,4.96-.89,2.13-1.13,3.65-3.22,4.93-5.28,1.24-1.98,2.23-4.22,2.48-6.56.14-1.49-.11-3.05-.71-4.43-.46-1.03-1.1-2.16-2.13-2.66-.99-.46-2.23,0-3.37,0-.57-.82-.96-1.81-1.74-2.45-1.2-.99-2.83-1.31-4.25-1.95-.78-.89-1.24-2.16-2.3-2.66-.92-.43-2.02,0-3.01,0-.89-.82-1.52-2.02-2.66-2.48-.92-.35-1.98,0-2.98,0-1.03-1.17-1.59-2.91-3.01-3.54-1.03-.43-2.23.14-3.37.18-.89-1.06-1.42-2.59-2.66-3.19-1.03-.46-2.23,0-3.37,0-1.1-.92-2.09-2.06-3.33-2.8-1.45-.89-3.01-1.56-4.61-1.95-1.67-.39-3.44-.67-5.14-.35-1.84.32-3.61,1.2-5.14,2.3-1.67,1.2-3.08,2.83-4.22,4.57-1.59,2.37-2.66,5.07-3.54,7.8-1.59,4.93-2.09,10.1-3.01,15.2-1.17,6.63-2.02,13.32-3.19,19.99-1.13,6.59-2.41,13.22-3.69,19.77-1.1,5.49-2.27,10.98-3.37,16.44h0Z"/>
    <path id="path9435" class="cls-2" d="M298.02,590l-20.02-40.01s-10.17,2.69-15.38,3.54c-8.15,1.31-16.37,2.2-24.63,2.48-9.99.32-20.02-.14-29.98-.99-11.76-1.06-35.01-5.03-35.01-5.03l-23,40.01h148.02Z"/>
    <path id="path9437" class="cls-4" d="M283.17,588.55l-15.17-29.55c-6.48,2.27-11.41,2.34-19.7,3.26l3.9,26.29h5.74l-5.1-22.75c4.75-.32,8.5-.28,12.62-1.91l11.13,24.66h6.59Z"/>
    <path id="path9439" class="cls-4" d="M243.3,588.55l-3.05-25.3c-10.06.92-18.14,1.49-28.21.46l-5.49,24.84h6.45l3.05-19.81c7.9.46,12.58-.04,19.21-.5l2.23,20.3h5.81Z"/>
    <path id="path9441" class="cls-4" d="M196.74,588.55l7.34-25.05c-7.37-.64-18.07-1.56-26.08-3.47l-13.71,28.53h6.34l10.38-23.53c4.46,1.2,12.01,1.74,16.48,2.37l-6.24,21.15h5.49Z"/>
    <path id="path9443" class="cls-9" d="M224.98,555.03s3.47-16.65,5.03-25.02c1.81-9.96,2.91-20.09,5-30.01,1.38-6.73,1.59-14,5-19.99,2.3-4.11,5.42-8.79,9.99-9.99,4.43-1.17,10.21.18,13.25,3.58,2.55,2.87,3.08,7.8,1.74,11.41-1.42,3.93-5.28,8.33-9.46,8.19-4.36-.14-9.18-4.89-9.25-9.21-.04-3.9,4.18-8.26,8.08-8.5,2.41-.18,5.32,2.13,5.63,4.54.39,2.8-2.16,6.84-5,6.8-1.7,0-4-1.98-2.94-4.15"/>
    <path id="path9445" class="cls-9" d="M230.83,555.84c2.94-8.97,3.69-18.07,5.24-27.18,1.59-9.04,2.02-18.25,4.15-27.18,1.7-7.09,3.61-14.63,6.8-20.76"/>
    <path id="path9447" class="cls-9" d="M237.53,555.84c2.23-7.8,2.91-16.05,4.15-24.1,1.2-7.87,1.63-15.87,3.15-23.67,1.1-5.67,1.91-11.34,4.32-16.69"/>
    <path id="path9449" class="cls-9" d="M243.48,555.45c1.98-7.44,2.59-15.34,3.69-23.03,1.06-7.51,1.45-15.2,2.8-22.64.99-5.39,1.7-10.84,3.86-15.95"/>
    <path id="path9451" class="cls-9" d="M249.29,554.81c1.81-7.09,2.34-14.56,3.33-21.9.96-7.12,1.31-14.39,2.52-21.47.89-5.14,1.52-10.31,3.47-15.13"/>
    <path id="path9453" class="cls-9" d="M255,554.28c1.77-6.73,2.34-13.86,3.3-20.8.99-6.8,1.31-13.71,2.55-20.45.89-4.89,1.52-9.78,3.47-14.39"/>
    <path id="path9455" class="cls-9" d="M261.37,553.4c1.74-6.31,2.13-12.58,3.05-18.85.92-6.34,1.28-12.76,2.48-19.03.85-4.54,1.45-9.11,3.37-13.39"/>
    <path id="path9457" class="cls-9" d="M267.54,552.47c1.67-5.74,2.16-11.8,3.05-17.72.89-5.78,1.2-11.66,2.3-17.4.82-4.15,1.42-8.33,3.19-12.26"/>
    <path id="path9459" class="cls-9" d="M274.52,550.53c1.42-5.14,1.84-10.21,2.59-15.34.78-5.17,1.03-10.45,1.98-15.59.67-3.72,1.17-7.48,2.69-10.98"/>
    <path id="path9461" class="cls-9" d="M254.57,492.8c1.63,1.13,3.08,3.08,5.03,3.15,3.22.11,6.41-2.06,8.5-4.46,2.23-2.59,3.58-6.27,3.33-9.67-.14-2.45-1.35-5.07-3.3-6.56-.96-.71-2.02-.53-3.58-.67"/>
    <path id="path9463" class="cls-9" d="M261.06,496.03c1.35,1.49,2.37,2.66,3.97,2.76,3.22.18,6.41-2.06,8.5-4.5,2.23-2.55,3.58-6.24,3.33-9.64-.14-2.45-1.2-5.28-3.3-6.56-.99-.6-1.88-.71-3.47.07"/>
    <path id="path9465" class="cls-9" d="M265.95,499c1.63,1.1,3.08,3.08,5.03,3.15,3.22.11,6.41-2.06,8.5-4.5,2.23-2.55,3.58-6.24,3.33-9.64-.14-2.45-1.2-5.24-3.3-6.56-.89-.57-1.63-.6-3.19-.07"/>
    <path id="path9467" class="cls-9" d="M272.68,502.37c1.24,1.77,2.48,2.66,4.15,2.76,3.19.14,6.41-2.06,8.5-4.5,2.2-2.55,3.54-6.24,3.33-9.64-.18-2.45-1.31-5.14-3.3-6.56-.92-.64-1.63-.85-3.37-.46"/>
    <path id="path9469" class="cls-9" d="M278.38,505.74c.6,1.49,2.23,2.52,3.76,2.62,3.19.21,6.41-2.06,8.47-4.46,2.23-2.59,3.58-6.27,3.37-9.67-.18-2.45-1.31-5.1-3.33-6.52-.74-.57-1.17-.25-2.73-.39"/>
    <path id="path9471" class="cls-9" d="M284.34,508.32c.6,1.77,1.77,2.37,3.08,2.48,3.19.32,6.41-2.02,8.5-4.46,2.23-2.59,3.44-6.24,3.33-9.64-.04-1.81-.64-3.83-1.98-5-1.06-.96-2.55-.99-4.11-1.1"/>
    <path id="path9473" class="cls-9" d="M173.21,549.53c.85-10.17,1.45-20.3,2.52-30.44.57-5.53,1.06-11.09,2.02-16.58,1.31-7.26,1.63-14.99,5-21.54,2.06-3.97,5.35-7.3,8.86-9.99,3.22-2.48,6.95-4.5,10.91-5.46,4.11-1.03,8.54-1.1,12.72-.25,4.15.89,7.83,3.22,11.55,5.24,4.68,2.52,8.93,5.74,13.39,8.61"/>
    <path id="path9475" class="cls-9" d="M227.04,536.14c-3.93,1.13-7.76,2.76-11.8,3.4-2.62.39-5.42.92-7.97.21-1.28-.35-3.58-1.38-3.4-2.16.11-.39.74-.32,1.13-.32,1.49-.04,2.83.92,4.32,1.13,2.16.28,4.39.21,6.59,0,3.76-.39,7.41-1.52,11.13-2.27h0Z"/>
    <path id="path9477" class="cls-9" d="M205,527.85c-.46.5-1.74.92-1.35,1.45.46.74,3.3,2.55,5.21,3.3,1.81.71,3.79.99,5.78,1.03,2.06.07,4.15-.25,6.17-.78,1.38-.39,2.48-.99,4.04-1.67"/>
    <path id="path9479" class="cls-9" d="M229.2,526.57c-3.33.85-6.59,2.13-9.99,2.52-2.41.28-4.89.35-7.26-.11-1.95-.39-3.86-1.13-5.49-2.2-1.06-.74-1.88-1.77-2.69-2.8,1.63-.71,3.15-1.74,4.89-2.16,2.73-.71,5.6-.99,8.4-.67,2.37.25,4.64,1.17,6.8,2.16,1.91.85,3.54,2.2,5.35,3.26Z"/>
    <path id="path9481" class="cls-9" d="M220.8,528.06c-.11-1.17.32-2.48-.25-3.51-.67-1.24-2.06-2.06-3.4-2.52-1.03-.32-2.27-.35-3.3,0-.99.39-1.84,1.17-2.37,2.06-.74,1.24-.6,2.8-.92,4.22"/>
    <path id="path9483" class="cls-4" d="M217.01,527.24c.32-.35.18-1.03-.07-1.42-.28-.46-.82-.82-1.31-.82-.53-.04-1.06.32-1.31.74-.32.46-.5,1.24-.11,1.63.67.64,2.2.5,2.8-.14h0Z"/>
    <path id="path9485" class="cls-4" d="M221.12,516.15c-2.37.46-5.71.99-8.4,2.02-2.37.92-4.64,2.69-6.7,3.65"/>
    <path id="path9487" class="cls-9" d="M192.84,533.52c.6-1.49,1.52-2.87,1.84-4.43.57-3.19.14-6.52-.25-9.78-.46-3.97-1.91-7.83-2.59-11.8-.43-2.27-1.45-4.64-.92-6.91.25-1.13,1.1-2.06,1.91-2.83,1.03-.96,2.45-1.45,3.65-2.16"/>
    <path id="path9489" class="cls-9" d="M206.13,508.75c1.56-1.7,3.83-2.94,4.68-5.1.39-1.03.46-2.27,0-3.3-.57-1.17-1.7-2.2-2.98-2.48-1.03-.25-2.13.32-3.05.78-1.2.64-1.88,2.06-3.08,2.62-.85.43-1.91.92-2.83.57-.28-.11-.64-.5-.57-.78.32-1.03,1.98-.78,2.94-1.13,1.31-.5,2.59-.92,3.86-1.38"/>
    <path id="path9491" class="cls-4" d="M213.68,487.56c-1.59.82-3.86.64-5.78.6-1.98-.04-3.9-.96-5.85-.89-2.23.11-4.29,1.59-6.56,1.59-1.63.04-3.51-.71-4.78-1.06.07-.57.25-1.31,0-1.74,1.63.6,3.97,1.49,5.99,1.24,1.91-.25,3.3-2.45,5.24-2.48,2.23-.07,3.97,2.48,6.24,2.59,2.16.07,4.43-1.63,6.13-2.02-.46.64-.67,1.7-.64,2.16h0Z"/>
    <path id="path9493" class="cls-9" d="M209.74,480.61c-1.59-.67-3.08-1.7-4.78-2.02-1.24-.25-2.59-.21-3.86.04-.85.14-1.63.57-2.45.89-.74.32-1.45.71-2.2,1.03"/>
    <path id="path9495" class="cls-9" d="M198.23,475.62c1.17.5,2.27.92,3.44.92.99,0,1.91-.39,2.83-.82"/>
    <path id="path9497" class="cls-4" d="M191.71,536.46c-1.56,1.84-5,2.3-7.69,2.52-1.98.14-3.93-.39-5.85-.96-1.35-.39-2.66-1.13-3.93-1.74,2.16.43,4.39,1.2,6.63,1.28,1.95.04,3.9-.35,5.81-.78,1.35-.32,2.59-.96,3.79-1.59.5-.28,1.63.82,1.24,1.28h0Z"/>
    <path id="path9499" class="cls-9" d="M192.27,529.65c-1.56.78-2.98,1.84-4.64,2.27-2.34.67-4.89.99-7.26.57-1.59-.28-2.94-1.35-4.43-1.98"/>
    <path id="path9501" class="cls-9" d="M193.3,526.36c-1.7.67-3.79,1.2-5.71,1.45-2.23.28-4.54.35-6.77.07-1.31-.18-2.69-.43-3.86-1.1-.71-.43-1.17-1.2-1.77-1.81l.35-2.73c1.17-.43,2.34-1.03,3.58-1.24,1.67-.32,3.44-.32,5.14-.21,1.84.11,3.72.21,5.46.89,1.31.53,2.48,1.42,3.58,2.34.35.32.64.67.96,1.03-.32.43-.46,1.1-.96,1.31h0Z"/>
    <path id="path9503" class="cls-9" d="M188.91,527.1c-.07-1.17.32-2.48-.25-3.51-.67-1.24-2.06-2.09-3.4-2.52-1.03-.35-2.27-.39-3.3,0-.96.35-1.84,1.13-2.37,2.06-.74,1.2-.6,2.8-.92,4.18"/>
    <path id="path9505" class="cls-4" d="M185.44,526.25c.32-.35.18-.99-.07-1.42-.28-.43-.82-.78-1.31-.82-.53,0-1.06.32-1.31.74-.32.46-.5,1.28-.11,1.67.67.6,2.16.5,2.8-.18h0Z"/>
    <path id="path9507" class="cls-9" d="M192.49,520.94c-1.28-1.38-2.3-3.01-3.79-4.18-1.2-.92-2.66-1.42-4-2.13"/>
    <path id="path9509" class="cls-2" d="M176.44,511.41c-.67-2.91-1.38-4.85-2.62-7.02-1.28-2.13-2.73-4.25-4.78-5.63-1.63-1.06-3.61-1.91-5.56-1.74-1.77.14-3.65.99-4.75,2.41s-1.28,3.47-1.17,5.28c.11,1.63.57,3.4,1.67,4.64.96,1.13,2.41,1.91,3.86,2.06,1.03.11,2.2-.07,2.94-.78.57-.53.78-1.45.78-2.23-.04-.85.07-1.74-.99-2.34.78.32,1.31,1.31,1.88,2.06.74,1.06,1.38,2.27,1.91,3.51.64,1.38,1.06,2.87,1.49,4.36.53,2.02.92,4.11,1.35,6.13.71,3.22,1.52,7.09,2.06,9.64.57-5.53,1.35-14.78,1.95-20.34Z"/>
    <path id="path9511" class="cls-2" d="M179.16,491.42c-.64-2.91-2.59-8.58-4.85-12.37-1.28-2.13-2.8-4.18-4.78-5.63-1.59-1.17-3.47-2.48-5.46-2.34-1.88.14-3.76,1.45-4.85,3.01-1.03,1.45-1.28,3.47-1.17,5.24.11,1.67.57,3.44,1.67,4.68.96,1.1,2.41,1.88,3.9,2.06.99.11,2.16-.11,2.91-.78.57-.53.82-1.45.78-2.23-.07-.82-.04-1.56-1.06-2.16.78.32,1.38,1.13,1.95,1.84.82,1.06,1.38,2.3,1.95,3.51.6,1.42.99,2.94,1.45,4.39.53,1.74,1.03,3.51,1.56,5.24,1.17,4.11,2.98,9.71,3.51,12.26.57-5.53,1.95-11.16,2.52-16.73h0Z"/>
    <path id="path9513" class="cls-2" d="M181.4,483.59s-.92-2.87-1.56-4.22c-.74-1.52-2.62-4.36-2.62-4.36,0,0-3.22-1.45-4.89-2.06-1.56-.57-4.75-1.45-4.75-1.45,0,0,3.69,2.87,5.14,4.68,1.28,1.56,2.16,3.4,3.05,5.24.82,1.77,1.38,3.69,2.02,5.56.57,1.67,1.56,5.07,1.56,5.07,0,0,.57-3.33.99-5,.28-1.17,1.06-3.47,1.06-3.47h0Z"/>
    <path id="path9515" class="cls-2" d="M177.21,475.01l6.8,3.9-2.62,4.75-4.18-8.65Z"/>
    <path id="path9517" class="cls-2" d="M247.59,470.8l-24.91-20.69-28.07,18.46.67-8.97,27.04-18.6,35.12,28.99c-2.83-.96-6.59-.82-9.85.82h0Z"/>
    <path id="path9519" class="cls-9" d="M317.75,461.48l-9.36-10.6,9.18-9.71"/>
    <path id="path9521" class="cls-9" d="M317.4,455.06l-3.37-3.9,3.37-3.51"/>
    <path id="path9523" class="cls-4" d="M304.5,473.49l9.36-9.71-9-9.89-9.11,9.89,8.75,9.71ZM304.68,469.31l-5.35-5,5.35-5.88,5.17,5.17-5.17,5.71Z"/>
    <path id="path9525" class="cls-2" d="M100,567.99l37.99-36h-37.99v36Z"/>
    <path id="path9527" class="cls-2" d="M100,560.02l23-22.01h-23v22.01Z"/>
    <path id="path9529" class="cls-9" d="M318.32,435.89l-9.36-10.63,9.18-9.71"/>
    <path id="path9531" class="cls-9" d="M317.97,429.44l-3.37-3.86,3.37-3.54"/>
    <path id="path9533" class="cls-9" d="M292.84,460.38l9.18-9.85-9.18-9.71"/>
    <path id="path9535" class="cls-9" d="M293.02,454.71l3.37-3.9-3.37-3.51"/>
    <path id="path9537" class="cls-9" d="M293.55,416.33l8.61,9.28-9.18,9.71"/>
    <path id="path9539" class="cls-9" d="M293.16,421.44l3.33,3.86-3.33,3.54"/>
    <path id="path9541" class="cls-4" d="M305.49,447.73l9.36-9.71-9-9.89-9.5,10.06,9.14,9.53ZM305.67,443.55l-5.35-5,5.35-5.88,5.17,5.17-5.17,5.71Z"/>
    <path id="path9543" class="cls-4" d="M305.1,422.36l9.32-9.71-9-9.57-9.67,9.35,9.36,9.92ZM305.24,418.18l-5.35-5,5.35-5.88,5.21,5.14-5.21,5.74Z"/>
    <path id="path9545" class="cls-9" d="M292.63,467.71l8.4,9.07-7.83,8.4"/>
    <path id="path9547" class="cls-9" d="M292.77,472.99l3.37,3.51-2.76,3.33"/>
    <path id="path9549" class="cls-9" d="M317.36,465.8l-9.96,10.42,5.74,6.06"/>
    <path id="path9551" class="cls-9" d="M317.01,472.21l-3.37,3.9,3.37,3.54"/>
    <path id="path9553" class="cls-2" d="M318.25,409.71l-3.86-4.61"/>
    <path id="path9555" class="cls-2" d="M292.52,409.92l7.09-7.3"/>
    <path id="path9557" class="cls-2" d="M317.86,479.23l.67-74.13"/>
    <path id="path9559" class="cls-2" d="M292.31,488.27l.21-88.91"/>
    <path id="path9561" class="cls-4" d="M308.82,483.84l-4.39-4.39-8.47,8.43,1.35,2.3,11.52-6.34Z"/>
    <path id="path9563" class="cls-2" d="M123,531.99v-70.98l-6.02-2.02v73h6.02Z"/>
    <path id="path9565" class="cls-2" d="M116.97,251.99v202.01h6.02v-204l-23-20.02v7.02l16.97,14.99Z"/>
    <path id="path9567" class="cls-1" d="M108.5,530.01c1.17,0,2.48-1.31,2.48-2.52s-1.31-2.48-2.48-2.48-2.52,1.31-2.52,2.48,1.31,2.52,2.52,2.52Z"/>
    <path id="path9569" class="cls-1" d="M108.5,516.01c1.17,0,2.48-1.31,2.48-2.52s-1.31-2.48-2.48-2.48-2.52,1.31-2.52,2.48,1.31,2.52,2.52,2.52Z"/>
    <path id="path9571" class="cls-1" d="M105.49,522.99c1.17,0,2.48-1.31,2.48-2.48s-1.31-2.52-2.48-2.52-2.52,1.35-2.52,2.52,1.35,2.48,2.52,2.48Z"/>
    <path id="path9573" class="cls-1" d="M111.48,522.99c1.17,0,2.52-1.31,2.52-2.48s-1.35-2.52-2.52-2.52-2.48,1.35-2.48,2.52,1.31,2.48,2.48,2.48Z"/>
    <path id="path9575" class="cls-1" d="M108.33,481.25c1.2,0,2.52-1.31,2.52-2.52s-1.31-2.48-2.52-2.48-2.48,1.31-2.48,2.48,1.31,2.52,2.48,2.52Z"/>
    <path id="path9577" class="cls-1" d="M108.33,467.25c1.2,0,2.52-1.35,2.52-2.52s-1.31-2.48-2.52-2.48-2.48,1.31-2.48,2.48,1.31,2.52,2.48,2.52Z"/>
    <path id="path9579" class="cls-1" d="M105.35,474.23c1.17,0,2.48-1.31,2.48-2.48s-1.31-2.52-2.48-2.52-2.52,1.31-2.52,2.52,1.31,2.48,2.52,2.48Z"/>
    <path id="path9581" class="cls-1" d="M111.34,474.23c1.17,0,2.52-1.31,2.52-2.48s-1.35-2.52-2.52-2.52-2.52,1.31-2.52,2.52,1.35,2.48,2.52,2.48Z"/>
    <path id="path9583" class="cls-1" d="M108.54,432.46c1.17,0,2.48-1.31,2.48-2.48s-1.31-2.52-2.48-2.52-2.52,1.31-2.52,2.52,1.35,2.48,2.52,2.48Z"/>
    <path id="path9585" class="cls-1" d="M108.54,418.46c1.17,0,2.48-1.31,2.48-2.48s-1.31-2.52-2.48-2.52-2.52,1.31-2.52,2.52,1.35,2.48,2.52,2.48Z"/>
    <path id="path9587" class="cls-1" d="M105.53,425.48c1.17,0,2.52-1.35,2.52-2.52s-1.35-2.48-2.52-2.48-2.48,1.31-2.48,2.48,1.31,2.52,2.48,2.52Z"/>
    <path id="path9589" class="cls-1" d="M111.52,425.48c1.2,0,2.52-1.35,2.52-2.52s-1.31-2.48-2.52-2.48-2.48,1.31-2.48,2.48,1.31,2.52,2.48,2.52Z"/>
    <path id="path9591" class="cls-1" d="M108.72,382.92c1.17,0,2.52-1.31,2.52-2.48s-1.35-2.52-2.52-2.52-2.48,1.31-2.48,2.52,1.31,2.48,2.48,2.48Z"/>
    <path id="path9593" class="cls-1" d="M108.72,368.92c1.17,0,2.52-1.31,2.52-2.52s-1.35-2.48-2.52-2.48-2.48,1.31-2.48,2.48,1.31,2.52,2.48,2.52Z"/>
    <path id="path9595" class="cls-1" d="M105.74,375.94c1.17,0,2.48-1.35,2.48-2.52s-1.31-2.52-2.48-2.52-2.52,1.35-2.52,2.52,1.31,2.52,2.52,2.52Z"/>
    <path id="path9597" class="cls-1" d="M111.73,375.94c1.17,0,2.48-1.35,2.48-2.52s-1.31-2.52-2.48-2.52-2.52,1.35-2.52,2.52,1.35,2.52,2.52,2.52Z"/>
    <path id="path9599" class="cls-1" d="M108.72,334.51c1.17,0,2.52-1.31,2.52-2.48s-1.35-2.52-2.52-2.52-2.48,1.35-2.48,2.52,1.31,2.48,2.48,2.48Z"/>
    <path id="path9601" class="cls-1" d="M108.72,320.52c1.17,0,2.52-1.31,2.52-2.48s-1.35-2.52-2.52-2.52-2.48,1.31-2.48,2.52,1.31,2.48,2.48,2.48Z"/>
    <path id="path9603" class="cls-1" d="M105.74,327.53c1.17,0,2.48-1.31,2.48-2.52s-1.31-2.48-2.48-2.48-2.52,1.31-2.52,2.48,1.31,2.52,2.52,2.52Z"/>
    <path id="path9605" class="cls-1" d="M111.73,327.53c1.17,0,2.48-1.31,2.48-2.52s-1.31-2.48-2.48-2.48-2.52,1.31-2.52,2.48,1.35,2.52,2.52,2.52Z"/>
    <path id="path9607" class="cls-1" d="M109.28,285.93c1.2,0,2.52-1.31,2.52-2.48s-1.31-2.52-2.52-2.52-2.48,1.31-2.48,2.52,1.31,2.48,2.48,2.48Z"/>
    <path id="path9609" class="cls-1" d="M109.28,271.94c1.2,0,2.52-1.31,2.52-2.48s-1.31-2.52-2.52-2.52-2.48,1.31-2.48,2.52,1.31,2.48,2.48,2.48Z"/>
    <path id="path9611" class="cls-1" d="M106.31,278.95c1.17,0,2.48-1.35,2.48-2.52s-1.31-2.48-2.48-2.48-2.52,1.31-2.52,2.48,1.35,2.52,2.52,2.52Z"/>
    <path id="path9613" class="cls-1" d="M112.3,278.95c1.17,0,2.52-1.35,2.52-2.52s-1.35-2.48-2.52-2.48-2.48,1.31-2.48,2.48,1.31,2.52,2.48,2.52Z"/>
    <path id="path9615" class="cls-1" d="M114.99,493.01v5l-13,12.01v-5.03l13-11.98Z"/>
    <path id="path9617" class="cls-1" d="M114.99,485.01v5l-13,12.01v-5l13-12.01Z"/>
    <path id="path9619" class="cls-1" d="M114.99,443.02v5l-13,11.98v-5l13-11.98Z"/>
    <path id="path9621" class="cls-1" d="M114.99,435.01v5l-13,12.01v-5l13-12.01Z"/>
    <path id="path9623" class="cls-1" d="M114.99,393.02v5l-13,11.98v-5l13-11.98Z"/>
    <path id="path9625" class="cls-1" d="M114.99,385.01v5l-13,12.01v-5.03l13-11.98Z"/>
    <path id="path9627" class="cls-1" d="M114.99,345v5l-13,12.01v-5l13-12.01Z"/>
    <path id="path9629" class="cls-1" d="M114.99,337v5l-13,12.01v-5l13-12.01Z"/>
    <path id="path9631" class="cls-1" d="M114.99,297.98v5.03l-13,11.98v-5l13-12.01Z"/>
    <path id="path9633" class="cls-1" d="M114.99,290.01v5l-13,11.98v-5l13-11.98Z"/>
    <path id="path9635" class="cls-1" d="M114.85,251.74l.14,1.24-13,12.01v-5l9.99-9.89,2.87,1.63Z"/>
    <path id="path9637" class="cls-1" d="M108.22,246.49l2.41,1.98-8.65,8.5v-5l6.24-5.49Z"/>
    <path id="path9639" class="cls-4" d="M182.49,449.04l9.36-9.74-9-9.89-9.67,9.71,9.32,9.92ZM182.67,444.82l-5.35-5,5.35-5.85,5.17,5.14-5.17,5.7Z"/>
    <path id="path9641" class="cls-4" d="M178.77,476.54l10.52-8.47-7.69-10.95-10.81,8.4,7.97,11.02ZM179.45,472.39l-4.64-5.63,6.06-5.14,4.46,5.78-5.88,5Z"/>
    <path id="path9643" class="cls-4" d="M182.85,423.17l8.26-9.92-10.03-8.22-8.36,9.92,10.13,8.22ZM182.57,419.28l-5.85-4.07,4.68-5.95,5.71,4.25-4.54,5.78Z"/>
    <path id="path9645" class="cls-4" d="M180.4,399.79l7.83-10.98-10.35-8.5-8.19,11.02,10.7,8.47ZM179.94,395.6l-6.02-4.15,4.43-6.59,5.88,4.32-4.29,6.41Z"/>
    <path id="path9647" class="cls-4" d="M176.22,373.99l6.02-12.05-11.52-6.8-6.38,12.15,11.87,6.7ZM175.12,369.95l-6.59-3.19,3.37-7.19,6.48,3.37-3.26,7.02Z"/>
    <path id="path9649" class="cls-4" d="M168.96,348.58l4.89-12.58-12.12-5.67-5.21,12.69,12.44,5.56ZM167.47,344.65l-6.84-2.55,2.66-7.48,6.77,2.73-2.59,7.3Z"/>
    <path id="path9651" class="cls-4" d="M158.22,322.93l2.41-13.25-12.97-3.3-2.69,13.43,13.25,3.12ZM156.02,319.35l-7.23-1.2,1.24-7.83,7.16,1.42-1.17,7.62Z"/>
    <path id="path9653" class="cls-4" d="M144.76,299.22l1.28-13.43-13.22-2.16-1.52,13.64,13.47,1.95ZM142.27,295.82l-7.3-.57.53-7.94,7.26.81-.5,7.69Z"/>
    <path id="path9655" class="cls-9" d="M168.75,461.23l10.21-8.19-8.08-9.99"/>
    <path id="path9657" class="cls-9" d="M169.53,456.02l3.76-3.3-2.94-3.61"/>
    <path id="path9659" class="cls-9" d="M167.51,470.51s1.45-12.33,1.98-18.5c.74-8.58,1.84-17.15,1.74-25.76-.07-7.55-1.03-15.02-1.98-22.5-1.03-7.97-2.2-15.91-4-23.74-1.98-8.72-4.5-17.33-7.51-25.76-2.69-7.58-5.92-15.02-9.5-22.25-3.83-7.8-8.08-15.41-12.72-22.75-3.54-5.6-11.52-16.26-11.52-16.26"/>
    <path id="path9661" class="cls-9" d="M194.97,443.87l-10.63,11.34,9.5,11.41"/>
    <path id="path9663" class="cls-9" d="M194.54,450.39l-4.54,4.75,4.18,5.17"/>
    <path id="path9665" class="cls-9" d="M171.47,435.43l8.54-8.22-7.9-8.68"/>
    <path id="path9667" class="cls-9" d="M171.79,430.58l3.15-3.26-2.91-3.15"/>
    <path id="path9669" class="cls-9" d="M195.92,413.96l-10.24,11.69,9.85,11.09"/>
    <path id="path9671" class="cls-9" d="M195.71,420.48l-4.36,4.93,4.36,5"/>
    <path id="path9673" class="cls-9" d="M193.16,388.66l-8.97,12.69,10.91,10.03"/>
    <path id="path9675" class="cls-9" d="M193.62,395.18l-3.83,5.32,4.85,4.57"/>
    <path id="path9677" class="cls-9" d="M188.41,363.32l-7.44,13.64,12.05,8.68"/>
    <path id="path9679" class="cls-9" d="M189.62,369.74l-3.19,5.74,5.35,3.97"/>
    <path id="path9681" class="cls-9" d="M177.99,337.24l-5.32,14.63,13.18,6.77"/>
    <path id="path9683" class="cls-9" d="M180.16,343.41l-2.3,6.17,5.88,3.12"/>
    <path id="path9685" class="cls-9" d="M165.45,310.77l-3.54,15.17,13.93,5.14"/>
    <path id="path9687" class="cls-9" d="M168.32,316.66l-1.52,6.38,6.2,2.37"/>
    <path id="path9689" class="cls-8" d="M150.67,286.64l-2.02,15.41,13.22,3.9"/>
    <path id="path9691" class="cls-8" d="M153.83,292.24l-.92,6.48,5.92,1.84"/>
    <path id="path9693" class="cls-8" d="M132.78,263.29l.74,16.05,13.68,1.49"/>
    <path id="path9695" class="cls-8" d="M136.85,268.93l.25,6.48,6.13.74"/>
    <path id="path9697" class="cls-9" d="M169.24,316.27c-4-6.7-7.8-13.47-12.01-20.02-5.39-8.43-10.88-16.8-16.97-24.73-5.17-6.73-11.02-12.86-16.51-19.28"/>
    <path id="path9699" class="cls-9" d="M129.23,259.75l-5.74-.74"/>
    <path id="path9701" class="cls-4" d="M123.74,263.01l5.49,1.24-.5,14.49-5-1.24v-14.49Z"/>
    <path id="path9703" class="cls-9" d="M127.75,296.74l.99-13-5-1.24"/>
    <path id="path9705" class="cls-9" d="M170.3,412.19l7.48-9.28-8.97-7.58"/>
    <path id="path9707" class="cls-9" d="M170.02,407.3l2.73-3.65-3.26-2.76"/>
    <path id="path9709" class="cls-9" d="M168,387.56l5.74-10.38-10.1-5.95"/>
    <path id="path9711" class="cls-9" d="M166.87,382.81l2.06-4.04-3.69-2.16"/>
    <path id="path9713" class="cls-9" d="M161.48,363.22l4.85-10.84-10.56-5.1"/>
    <path id="path9715" class="cls-9" d="M159.96,358.54l1.7-4.18-3.86-1.84"/>
    <path id="path9717" class="cls-9" d="M153.3,338.77l2.91-11.52-11.3-3.19"/>
    <path id="path9719" class="cls-9" d="M150.99,334.44l.96-4.43-4.15-1.13"/>
    <path id="path9721" class="cls-9" d="M141.32,315.73l1.56-11.8-11.59-1.84"/>
    <path id="path9723" class="cls-9" d="M138.52,311.69l.43-4.5-4.22-.67"/>
    <path id="path9725" class="cls-4" d="M149.01,421.51c-3.19-8.75-5.81-17.72-9.53-26.26-2.34-5.39-4.61-10.91-7.97-15.73-2.23-3.19-5.35-5.67-8.01-8.5l.25,14,4.5-.99-2.52,6.24,5.78.25-3.51,4.25,5.24.5-3.26,4.5,5.78.25-4,5,6.48.5-3.76,5,5.78.53-3.51,4.75,5,.74-3.26,5.49,7.02.25,3.51-.74Z"/>
    <path id="path9727" class="cls-7" d="M137.99,455.77c-2.34,2.52-6.2,3.15-9.5,4.18-1.77.53-3.65,1.1-5.49.99-2.09-.11-4.29-.53-6.02-1.74-.92-.67-1.91-1.63-1.98-2.76-.07-.85.6-1.7,1.24-2.23.6-.5,1.49-.57,2.27-.74,1.24-.35,2.62-.14,3.76-.74,1.03-.57,1.98-1.45,2.41-2.55.53-1.24.35-2.76.11-4.11-.28-1.52-1.1-3.12-1.77-4.29l.25-14.28c2.83-.32,5.81-1.24,8.75-.99,1.74.14,3.69.35,5,1.49,2.37,2.13,3.01,5.67,3.76,8.75.71,3.19.96,6.56.5,9.74-.46,3.26-1.03,6.87-3.26,9.28h0Z"/>
    <path id="path9729" class="cls-7" d="M169.24,412.51c-4.5,1.84-8.08,3.37-12.01,5.24-3.37,1.63-6.7,3.44-9.99,5.24-3.12,1.7-6.73,3.58-9.25,5.24"/>
    <path id="path9731" class="cls-7" d="M167.75,470.76c-5.42-2.59-10.91-5.07-16.27-7.76-4.29-2.16-8.5-4.5-12.76-6.73"/>
    <path id="path9733" class="cls-7" d="M143.48,458.5s2.3-7.23,2.76-10.98c.46-3.83.6-7.72,0-11.52-.57-3.37-3.26-9.74-3.26-9.74l12.76-7.26-5.49,9,5.99,6.02-6.48,7.23,5.99,8.26-5.24,4.25,3.26,9.99-10.28-5.24Z"/>
    <path id="path9735" class="cls-9" d="M165.98,468.74l-7.48-12.22,6.48-6.27-6.24-8.5,6.48-7.97-5.74-5.78,6.98-13.5"/>
    <path id="path9737" class="cls-9" d="M167.51,462.26l-2.52-4,3.76-3.01"/>
    <path id="path9739" class="cls-9" d="M169.49,445.25l-3.01-3.76,3.26-4.25"/>
    <path id="path9741" class="cls-9" d="M170.23,430.76l-3.22-4.5,3.22-5"/>
    <path id="path9743" class="cls-2" d="M163.25,406.27l-11.27,5.49s-3.4-11.45-5.49-17.01c-1.77-4.75-3.47-9.6-5.99-14-2.94-5.07-10.52-14-10.52-14v-52.27s9.89,15.7,14,23.99c4.25,8.58,8.04,17.43,11.02,26.51,2.48,7.58,4.25,15.41,5.74,23.28,1.13,5.92,2.52,18,2.52,18Z"/>
    <path id="path9745" class="cls-2" d="M165.31,563.49s-.67-7.3-2.3-10.49c-1.59-3.08-4.18-5.74-7.02-7.76-2.45-1.74-5.32-2.91-8.26-3.47-2.45-.5-5-.25-7.48,0-1.7.14-5.03.99-5.03.99,0,0,3.22,1.03,4.25,2.23,2.23,2.55,2.55,6.27,3.51,9.5.96,3.22,1.17,6.63,2.27,9.78,1.1,3.19,2.09,6.63,4.25,9.25,1.17,1.42,2.76,2.55,4.5,3.22,1.03.43,3.3.53,3.3.53l8.01-13.78Z"/>
    <path id="path9747" class="cls-9" d="M160.49,570.55c-1.2-3.97-2.23-7.8-4.25-11.27-1.7-3.01-4.11-5.53-6.48-8.01-1.56-1.63-3.33-3.01-5-4.5"/>
    <path id="path9749" class="cls-9" d="M151.88,567.39c1.77-.96,5.71-.11,7.65.28,1.35-2.66,2.45-4.71,2.34-7.19"/>
    <path id="path9751" class="cls-9" d="M150.28,562.86c1.77-.96,5.1-.67,7.05-.28,1.35-2.66,2.45-5.24,2.34-7.72"/>
    <path id="path9753" class="cls-9" d="M148.02,556.69c1.81-.96,4.36-.25,6.31.14,1.35-2.66,1.06-5.07.96-7.55"/>
    <path id="path9755" class="cls-9" d="M145.43,552.19c1.77-.99,2.91-.07,4.85.32,1.35-2.66.64-3.69.53-6.17"/>
    <path id="path9757" class="cls-9" d="M159.99,571.64c-1.77-.28-3.54-.43-5.32.35"/>
    <path id="path9759" class="cls-1" d="M280.09,478.42c.85-.32,1.95-.89,2.06-1.81.11-.89-.89-1.67-1.63-2.16-.43-.28-1.03-.25-1.52-.43-.53-.18-1.24-.25-1.59-.74-.35-.5-.11-1.24-.25-1.84-.43-1.49-.6-3.26-1.74-4.29-.99-.96-2.52-1.13-3.86-1.28-1.17-.11-2.34.28-3.47.43-.92.11-1.81.39-2.73.32-.46-.07-.96-.11-1.31-.39-.32-.28-.43-.74-.5-1.13-.21-.85-.07-1.74-.11-2.62-.04-1.13.18-2.3-.11-3.37-.35-1.28-.89-2.66-1.91-3.47-1.1-.85-2.62-1.1-4-1.17-1.17-.04-2.3.43-3.47.64-.89.18-1.74.53-2.66.5-.39,0-.85,0-1.13-.28-.18-.14-.18-.46-.21-.67-.07-.74.14-1.45.21-2.2.07-.99.43-2.02.25-3.01-.18-1.2-.53-2.55-1.38-3.44-.96-.96-2.45-1.38-3.79-1.63-1.17-.18-2.37.25-3.54.28-1.45,0-3.22.74-4.36-.18-.89-.71-.57-2.16-.78-3.26-.21-1.03-.11-2.09-.5-3.01-.5-1.13-1.13-2.34-2.16-2.98-.85-.53-1.98-.6-2.98-.53-.74.04-1.45.46-2.2.67-.6.18-1.28.78-1.88.53-.18-.07-.21-.32-.25-.5-.28-.6-.39-1.24-.6-1.88-.28-.78-.39-1.74-.96-2.37-.78-.92-1.88-1.81-3.08-1.81-1.17.04-2.27.92-3.01,1.81-.53.67-.57,1.59-.82,2.37-.21.6-.32,1.2-.53,1.81-.07.11-.07.28-.18.32-.14.11-.35.04-.53,0-.6-.14-1.13-.5-1.7-.71-.82-.28-1.56-.78-2.41-.85-1.13-.07-2.41-.04-3.3.64-1.03.74-1.52,2.13-1.81,3.37-.25,1.03.07,2.06.11,3.12.04.71.21,1.45.11,2.2-.04.18,0,.39-.14.5-.28.25-.74.14-1.1.14-.82-.04-1.59-.28-2.37-.5-1.06-.35-2.02-1.2-3.12-1.28-.96-.04-2.34,0-2.76.85-.46.85.28,2.02.92,2.73.96.96,2.48,1.1,3.76,1.49,1.1.32,2.2.71,3.33.71,1.24-.04,2.62-.11,3.61-.85,1.03-.78,1.56-2.13,1.84-3.37.25-.99-.07-2.06-.07-3.08-.04-.78-.64-1.81-.07-2.34.46-.43,1.24.04,1.84.18.82.21,1.52.78,2.34.92,1.06.14,2.23.25,3.22-.21.96-.5,1.59-1.49,2.16-2.41.39-.67.04-2.16.82-2.16s.43,1.59.82,2.3c.57.96,1.17,2.06,2.2,2.45,1.56.64,3.37-.43,5.07-.39.64,0,1.45-.25,1.95.18.57.53.21,1.52.43,2.27.6,2.09.6,4.71,2.3,6.06,1.95,1.56,4.89.96,7.37,1.03.92,0,1.81-.35,2.69-.25.46.07.99.14,1.28.5.18.18.21.46.25.74.07.74-.18,1.49-.25,2.23-.07,1.03-.39,2.06-.25,3.05.21,1.2.6,2.55,1.56,3.4,1.03.92,2.55,1.2,3.93,1.31,1.17.07,2.34-.43,3.47-.64.92-.14,1.81-.5,2.73-.5.43,0,.92,0,1.24.25s.43.71.53,1.1c.18.85.04,1.7.07,2.55.04,1.13-.14,2.3.14,3.4.32,1.28.82,2.66,1.84,3.51,1.03.89,2.48,1.17,3.83,1.31,1.17.14,2.34-.21,3.51-.35.92-.11,1.84-.39,2.76-.35.46.04,1.06,0,1.35.35.35.35.14.99.25,1.45.32,1.45.35,3.12,1.31,4.29.78.99,2.16,1.42,3.33,1.88.64.25,1.28.35,1.95.5.11.04.25.07.35.07h0Z"/>
    <path id="path9761" class="cls-1" d="M279.98,466.86c.82-.04,1.59-.6,1.88-1.38.25-.78-.04-1.74-.71-2.23l-58.15-45.89c-.67-.5-1.67-.53-2.37-.04l-22.75,15.95c-.92.6-1.2,1.95-.57,2.83.6.89,1.98,1.1,2.83.46l21.58-15.13,56.98,44.97c.35.28.82.46,1.28.46h0Z"/>
    <path id="path9763" d="M222.93,406.27v-63.89l-9.74,6.8-.32,63.32,10.06-6.24Z"/>
    <path id="path9765" class="cls-1" d="M281.5,452.12l-21.01-16.87-.28-54.43,21.3,14.49v56.8Z"/>
    <path id="path9767" class="cls-5" d="M260.21,436.18l-.6-56.24"/>
    <path id="path9769" class="cls-5" d="M254.29,431.96l-.28-57.33"/>
    <path id="path9771" class="cls-5" d="M227.36,409.25l-.28-68.35"/>
    <path id="path9773" class="cls-9" d="M189.51,364.56l36.39-24.24"/>
    <path id="path9775" class="cls-5" d="M227.39,350.25l26.33,26.86-26.51,25.65,26.79,27.5"/>
    <path id="path9777" class="cls-5" d="M238.13,418.81l16.05-16.41-26.79-27.92,15.17-14.17"/>
    <path id="path9779" class="cls-5" d="M240.96,408.57l4.93-5.28-4.93-5.81-5.1,5.28,5.1,5.81Z"/>
    <path id="path9781" class="cls-5" d="M241.11,380.9l4.29-4.71-4.85-4.93-4.32,4.61,4.89,5.03Z"/>
    <path id="path9783" class="cls-6" d="M253.12,422.32l-4.89-5.35,5.14-5.42-.25,10.77Z"/>
    <path id="path9785" class="cls-6" d="M227.92,394.29l5.24-5.46-5.32-5.17.07,10.63Z"/>
    <path id="path9787" class="cls-6" d="M253.4,394.33l-4.82-5.24,4.93-4.54-.11,9.78Z"/>
    <path id="path9789" class="cls-6" d="M227.78,366.8l4.61-4.75-4.85-4.75.25,9.5Z"/>
    <path id="path9791" class="cls-9" d="M297.06,490.5c7.09-3.54,14.17-7.05,21.23-10.63,5.07-2.55,10.21-5.03,15.2-7.76,7.19-3.93,14.35-7.94,21.23-12.4,6.45-4.18,12.47-8.93,18.75-13.43-4.15-5.53-8.19-11.13-12.4-16.62-3.58-4.64-7.48-9.07-10.95-13.78-3.22-4.36-6.13-8.97-9.18-13.43-2.48.71-4.89,1.74-7.44,2.13-5,.74-10.13.67-15.2.35-4.04-.25-8.04-.99-12.01-1.77-4.29-.85-8.61-1.74-12.76-3.19-4.25-1.49-8.4-3.47-12.37-5.67-4.54-2.48-8.86-5.42-13.08-8.47-4.54-3.3-9.11-6.63-13.08-10.6-3.86-3.86-6.95-8.43-10.28-12.76-3.61-4.75-6.84-9.82-10.6-14.49-2.55-3.19-5.17-6.34-8.11-9.18-4.08-3.9-8.33-7.62-13.11-10.6-4.39-2.8-9.25-4.89-14.14-6.73-4.68-1.81-9.5-3.54-14.49-4.25-4.89-.71-9.89,0-14.85,0,2.73,5.56,5.63,10.98,8.15,16.62,3.12,7.09,6.06,14.24,8.47,21.58,2.27,6.84,4.18,13.82,5.67,20.87,1.49,7.23,2.41,14.56,3.19,21.9.57,5.53.89,11.09,1.06,16.62.18,6.13.04,12.26,0,18.39-.07,5.78-.14,11.55-.35,17.33-.25,6.02-.71,12.01-1.06,18.04"/>
    <path id="path9795" d="M257.94,349.47c-.67.07-1.42.67-2.83,1.7l-3.12,2.2-3.08,2.23c-3.86,2.3-2.8,2.59-.18,5.74l2.94,3.54,2.91,3.51c2.69,3.61,2.55,3.86,5.71.96l2.83-2.59,2.83-2.59c3.33-2.59,2.66-2.76.14-5.78l-2.62-3.15-2.66-3.15c-1.38-1.91-2.02-2.69-2.87-2.62h0ZM257.41,355c.67,0,1.45.25,1.95.74.32.35.43.89.43,1.35,0,.21-.28.5-.11.67.14.14.39-.18.6-.18.5.04,1.03.14,1.38.5.5.46.74,1.24.74,1.91,0,.71-.25,1.45-.74,1.95-.35.32-.89.39-1.38.43-.21.04-.46-.28-.6-.11-.18.14.11.39.11.6,0,.5-.11,1.03-.43,1.38-.5.5-1.28.74-1.95.74s-1.45-.25-1.95-.74c-.32-.35-.43-.89-.46-1.38,0-.21.32-.46.18-.6-.18-.18-.46.14-.67.11-.5-.04-.99-.11-1.35-.43-.5-.5-.74-1.24-.74-1.95s.25-1.45.74-1.91c.35-.35.85-.46,1.35-.5.21,0,.5.32.67.18.14-.18-.18-.46-.18-.67.04-.46.14-.99.46-1.35.5-.5,1.28-.74,1.95-.74Z"/>
    <path id="path9797" d="M271.44,365.24c-.64.14-1.31.89-2.52,2.13l-2.69,2.69-2.66,2.69c-3.47,2.94-2.34,3.05.74,5.71l3.51,3.01,3.44,2.98c3.26,3.12,3.15,3.4,5.81,0l2.34-3.05,2.37-2.98c2.87-3.12,2.2-3.19-.82-5.74l-3.12-2.69-3.12-2.66c-1.7-1.67-2.48-2.34-3.3-2.09h0ZM271.83,370.76c.71-.11,1.49,0,2.06.43.39.28.57.78.64,1.24.07.21-.18.53,0,.67.18.14.35-.25.6-.25.46-.07,1.03-.04,1.42.21.57.39.96,1.1,1.06,1.81.11.67,0,1.45-.43,2.02-.28.39-.82.57-1.28.67-.21.04-.5-.21-.64-.04-.11.18.21.39.25.6.04.46.04,1.03-.21,1.42-.39.57-1.1.96-1.81,1.06-.67.11-1.45,0-2.02-.43-.39-.28-.6-.78-.71-1.28-.04-.21.25-.5.07-.64-.18-.14-.39.21-.64.25-.46.04-.99.07-1.38-.21-.57-.39-.96-1.1-1.06-1.77-.11-.71,0-1.49.43-2.06.28-.39.78-.57,1.24-.67.21-.07.53.21.67.04.11-.18-.25-.39-.28-.6-.04-.5-.04-1.03.25-1.42.39-.57,1.1-.96,1.77-1.06h0Z"/>
    <path id="path9799" d="M287.31,377.57c-.57.35-.96,1.28-1.74,2.83l-1.7,3.4-1.67,3.4c-2.37,3.86-1.24,3.61,2.52,5.17l4.25,1.74,4.22,1.74c4.08,1.91,4.08,2.23,5.49-1.84l1.28-3.61,1.31-3.58c1.74-3.9,1.06-3.72-2.59-5.21l-3.79-1.52-3.83-1.56c-2.13-1.03-3.05-1.45-3.76-.96h0ZM289.44,382.71c.6-.32,1.38-.46,2.06-.25.46.14.78.57,1.03.96.11.21-.04.57.18.64.21.11.28-.32.5-.43.43-.18.96-.35,1.42-.21.67.18,1.24.74,1.56,1.35.35.6.46,1.42.25,2.06-.14.46-.57.78-.99,1.03-.18.14-.57-.04-.6.21-.07.21.28.28.39.46.21.46.39.96.25,1.45-.18.64-.74,1.24-1.35,1.56-.6.32-1.42.46-2.06.25-.46-.14-.82-.57-1.06-.99-.11-.18.04-.57-.14-.64-.21-.07-.32.32-.53.43-.43.21-.92.39-1.38.25-.67-.18-1.28-.74-1.59-1.35-.32-.64-.46-1.42-.25-2.09.14-.46.57-.78.99-1.03.18-.11.57.04.64-.18.07-.21-.35-.32-.46-.5-.21-.43-.32-.96-.21-1.42.21-.67.74-1.24,1.38-1.56h0Z"/>
    <path id="path9801" d="M306.02,385.4c-.43.53-.57,1.52-.82,3.22l-.64,3.76-.6,3.76c-1.13,4.36-.14,3.79,3.93,4.18l4.57.43,4.57.43c4.43.64,4.5.92,4.68-3.37l.18-3.83.18-3.83c.53-4.22-.07-3.83-3.97-4.18l-4.11-.39-4.11-.35c-2.34-.35-3.33-.46-3.86.18h0ZM309.53,389.69c.5-.46,1.24-.85,1.91-.82.5,0,.92.28,1.28.64.14.14.14.53.35.53.25,0,.18-.39.35-.53.35-.32.82-.64,1.28-.64.71-.04,1.42.32,1.91.82s.85,1.2.85,1.91c0,.46-.35.92-.67,1.28-.14.18-.53.14-.53.35s.39.18.53.35c.32.35.67.82.67,1.28,0,.71-.35,1.42-.85,1.91-.5.5-1.2.85-1.88.85-.5-.04-.96-.32-1.31-.67-.18-.14-.11-.53-.35-.53-.21,0-.18.39-.35.53-.35.32-.78.64-1.28.67-.67,0-1.42-.35-1.88-.85-.5-.5-.85-1.2-.85-1.91,0-.46.28-.92.6-1.28.18-.18.6-.11.57-.35,0-.21-.43-.18-.57-.35-.32-.35-.6-.78-.6-1.28-.04-.67.35-1.42.82-1.91Z"/>
    <path id="path9803" d="M243.69,352.69c.64-.07,1.42-.67,2.83-1.67l3.08-2.23,3.12-2.2c3.86-2.3,2.76-2.62.18-5.78l-2.94-3.51-2.91-3.54c-2.69-3.58-2.55-3.86-5.71-.96l-2.83,2.62-2.83,2.55c-3.37,2.59-2.69,2.76-.14,5.78l2.62,3.15,2.66,3.15c1.38,1.91,2.02,2.73,2.87,2.62h0ZM244.22,347.17c-.71,0-1.45-.25-1.95-.74-.32-.35-.43-.85-.43-1.35-.04-.21.25-.5.11-.64-.14-.18-.39.18-.6.14-.5-.04-1.03-.14-1.38-.46-.5-.5-.74-1.24-.74-1.95s.25-1.45.74-1.95c.35-.32.89-.39,1.38-.43.21,0,.46.28.6.14.14-.18-.14-.43-.11-.64,0-.5.11-1.03.43-1.38.5-.5,1.24-.74,1.95-.74s1.45.25,1.91.74c.35.35.46.89.5,1.38,0,.21-.32.46-.18.64.18.14.43-.14.67-.14.46.04.99.11,1.35.43.5.5.74,1.28.74,1.95,0,.71-.25,1.45-.74,1.95-.35.32-.89.43-1.35.46-.25.04-.5-.32-.67-.14-.14.14.18.43.18.64-.04.5-.14.99-.5,1.35-.46.5-1.24.74-1.91.74Z"/>
    <path id="path9805" d="M230.47,336.64c.64-.18,1.31-.92,2.55-2.13l2.66-2.73,2.69-2.69c3.44-2.91,2.3-3.01-.78-5.71l-3.47-2.98-3.47-3.01c-3.22-3.08-3.12-3.37-5.78.04l-2.34,3.01-2.37,3.01c-2.87,3.12-2.2,3.15.78,5.71l3.12,2.69,3.15,2.66c1.7,1.67,2.45,2.34,3.26,2.13h0ZM230.09,331.11c-.67.11-1.49-.04-2.02-.43-.39-.28-.57-.78-.67-1.28-.04-.21.21-.53.04-.64-.18-.14-.39.21-.6.25-.46.04-1.03.04-1.42-.25-.57-.39-.96-1.1-1.06-1.77-.14-.67,0-1.49.39-2.06.28-.39.82-.53,1.31-.64.21-.07.5.21.64,0,.11-.18-.21-.35-.25-.57-.07-.5-.07-1.06.21-1.45.39-.57,1.1-.96,1.77-1.06s1.49,0,2.06.43c.39.28.57.81.67,1.28.04.21-.21.5-.04.64.18.14.39-.21.6-.21.5-.07,1.03-.07,1.42.18.57.39.96,1.13,1.06,1.81s0,1.49-.43,2.02c-.28.39-.78.6-1.24.71-.21.04-.57-.25-.67-.07-.11.21.25.43.25.64.07.46.04.99-.21,1.42-.39.57-1.13.92-1.81,1.06h0Z"/>
    <path id="path9807" d="M213.36,323.03c.57-.39.96-1.28,1.74-2.83l1.7-3.4,1.67-3.44c2.34-3.83,1.24-3.58-2.52-5.14l-4.25-1.74-4.25-1.77c-4.04-1.91-4.04-2.2-5.46,1.88l-1.28,3.61-1.31,3.58c-1.74,3.86-1.06,3.69,2.59,5.17l3.79,1.56,3.83,1.52c2.13,1.06,3.05,1.45,3.76.99ZM211.23,317.9c-.6.32-1.38.46-2.06.25-.46-.14-.78-.57-1.03-.99-.11-.18.04-.57-.18-.64-.21-.07-.28.35-.5.43-.43.21-.96.39-1.42.25-.67-.18-1.24-.74-1.59-1.35-.32-.64-.46-1.42-.25-2.09.18-.46.6-.78,1.03-1.03.18-.11.53.04.6-.18.07-.21-.32-.28-.39-.5-.21-.43-.39-.96-.28-1.42.21-.67.78-1.24,1.38-1.56.6-.32,1.38-.46,2.06-.25.46.14.82.57,1.06.99.11.18-.07.53.14.6.21.07.32-.32.53-.39.43-.21.92-.39,1.38-.25.67.18,1.24.74,1.59,1.35.32.6.46,1.42.25,2.06-.18.46-.57.81-.99,1.06-.18.11-.57-.07-.64.18-.07.18.35.28.43.5.21.43.35.92.25,1.42-.21.64-.78,1.24-1.38,1.56h0Z"/>
    <path id="path9809" d="M194.68,315.06c.43-.5.53-1.49.82-3.19l.6-3.76.6-3.76c1.13-4.39.14-3.83-3.93-4.22l-4.57-.43-4.54-.43c-4.43-.64-4.54-.92-4.71,3.4l-.14,3.83-.21,3.79c-.53,4.22.07,3.86,4,4.22l4.08.35,4.11.35c2.34.39,3.37.5,3.9-.18ZM191.14,310.77c-.5.5-1.2.85-1.91.85-.46,0-.89-.32-1.24-.64-.18-.14-.18-.57-.39-.57s-.14.43-.32.57c-.35.32-.82.64-1.31.64-.67,0-1.42-.35-1.91-.85-.46-.46-.85-1.2-.82-1.88,0-.5.32-.92.64-1.28.14-.18.53-.14.53-.35,0-.25-.39-.21-.53-.35-.32-.35-.64-.81-.67-1.31,0-.67.35-1.38.85-1.88.5-.5,1.2-.85,1.91-.85.46,0,.96.32,1.31.64.14.14.11.57.32.57s.21-.43.39-.57c.35-.32.74-.64,1.24-.64.71,0,1.42.35,1.91.85.46.46.85,1.2.82,1.88,0,.5-.28.92-.6,1.28-.14.18-.57.14-.57.35,0,.25.43.21.57.35.32.35.6.81.64,1.31,0,.67-.35,1.38-.85,1.88Z"/>
    <path id="path9811" d="M331.29,386.14l-1.56.32c-2.13.25-3.01.43-3.33,1.2-.21.6-.11,1.52.07,3.26l.35,3.79.35,3.83c.07,4.5.78,3.72,4.39,3.05l4-.78,3.9-.71-1.91-3.3c-.25.18-.53.32-.78.39-.43.11-.89-.07-1.28-.28-.18-.11-.21-.5-.39-.43-.21.04-.11.43-.21.64-.25.39-.53.78-.96.89-.57.21-1.28.07-1.81-.28-.53-.35-1.03-.99-1.17-1.67-.11-.46.04-.96.21-1.38.07-.18.5-.25.43-.46-.07-.21-.43-.11-.6-.21-.35-.25-.71-.64-.82-1.1-.18-.67-.04-1.45.28-2.06.32-.57.85-1.13,1.42-1.28.43-.14.89.07,1.24.28.18.11.25.5.46.46l.11-.11-2.41-4.07h0Z"/>
    <path id="path9813" d="M169.35,314.35l1.56-.32c2.13-.25,3.01-.43,3.33-1.2.25-.6.11-1.56-.04-3.26l-.39-3.83-.35-3.79c-.04-4.5-.78-3.72-4.36-3.05l-4.04.78-3.9.71,1.95,3.3c.21-.18.5-.32.74-.39.43-.11.89.07,1.28.28.18.11.21.46.43.43.18-.04.07-.43.18-.64.25-.39.53-.78.96-.92.57-.18,1.28-.04,1.81.32.53.35,1.03.99,1.2,1.63.11.5-.04.96-.25,1.42-.07.18-.5.25-.43.46s.43.11.6.21c.35.25.71.64.82,1.1.18.64.04,1.45-.28,2.02-.28.6-.82,1.17-1.42,1.31-.43.11-.85-.07-1.24-.28-.18-.11-.25-.5-.46-.46-.04,0-.07.07-.11.11l2.41,4.07h0Z"/>
  </g>
</svg>