<?xml version="1.0" encoding="UTF-8"?>
<svg id="Calque_1" data-name="Calque 1" xmlns="http://www.w3.org/2000/svg" viewBox="0 0 500 700">
  <defs>
    <style>
      @font-face { font-family: 'Anton'; font-style: normal; font-weight: 400; src: url(https://fonts.gstatic.com/s/anton/v27/1Ptgg87LROyAm3Kz-C8.woff2) format('woff2'); unicode-range: U+0000-00FF, U+0131, U+0152-0153, U+02BB-02BC, U+02C6, U+02DA, U+02DC, U+0304, U+0308, U+0329, U+2000-206F, U+20AC, U+2122, U+2191, U+2193, U+2212, U+2215, U+FEFF, U+FFFD; }
      .cls-1, .cls-2, .cls-3, .cls-4, .cls-5, .cls-6 {
        fill: #e31e46;
      }

      .cls-7, .cls-2, .cls-3, .cls-8, .cls-9, .cls-10, .cls-11, .cls-12, .cls-4, .cls-13, .cls-14, .cls-15, .cls-16, .cls-6, .cls-17, .cls-18 {
        stroke-linecap: round;
        stroke-linejoin: round;
      }

      .cls-7, .cls-9, .cls-10, .cls-11, .cls-12, .cls-5, .cls-15, .cls-16, .cls-6, .cls-17 {
        stroke: #1d2937;
      }

      .cls-7, .cls-9, .cls-12, .cls-14, .cls-15, .cls-19 {
        fill: none;
      }

      .cls-7, .cls-11 {
        stroke-width: 2.19px;
      }

      .cls-2 {
        stroke-width: 1.52px;
      }

      .cls-2, .cls-3, .cls-8, .cls-4, .cls-13, .cls-14, .cls-18 {
        stroke: #000;
      }

      .cls-20, .cls-11, .cls-13, .cls-17 {
        fill: #1d2937;
      }

      .cls-3, .cls-8, .cls-5, .cls-13, .cls-14, .cls-15, .cls-16, .cls-6, .cls-19, .cls-18 {
        stroke-width: 2px;
      }

      .cls-21 {
        font-family: Anton-Regular, Anton;
        font-size: 80px;
      }

      .cls-21, .cls-22 {
        fill: #b30000;
      }

      .cls-8 {
        fill: #000001;
      }

      .cls-23, .cls-10 {
        fill: #fff;
      }

      .cls-9 {
        stroke-width: 2.24px;
      }

      .cls-10 {
        stroke-width: 2.04px;
      }

      .cls-12 {
        stroke-width: 2.28px;
      }

      .cls-4 {
        stroke-width: 1.86px;
      }

      .cls-22 {
        fill-rule: evenodd;
      }

      .cls-16 {
        fill: rgba(227, 30, 70, .33);
      }

      .cls-19 {
        stroke: #b30000;
        stroke-miterlimit: 10;
      }

      .cls-17 {
        stroke-width: 2.15px;
      }
    </style>
  </defs>
  <g>
    <rect class="cls-23" x="2.5" y="2.5" width="495" height="695" rx="47.5" ry="47.5"/>
    <path d="M450,5c24.81,0,45,20.19,45,45v600c0,24.81-20.19,45-45,45H50c-24.81,0-45-20.19-45-45V50C5,25.19,25.19,5,50,5h400M450,0H50C22.39,0,0,22.39,0,50v600c0,27.61,22.39,50,50,50h400c27.61,0,50-22.39,50-50V50c0-27.61-22.39-50-50-50h0Z"/>
  </g>
  <text class="cls-21" transform="translate(34.02 97.23)"><tspan x="0" y="0">K</tspan></text>
  <path id="path0" class="cls-22" d="M39.13,129.69c-11.07,2.16-15.28,14.56-8.43,24.86,2.11,3.18,4.36,5.42,11.38,11.32,5.29,4.45,7.06,6.04,9.19,8.28,2.48,2.6,3.03,2.54,6.17-.62,2.2-2.21,4.05-3.87,8.26-7.39,8.35-6.98,11.13-9.97,13.12-14.07,5.54-11.45-1.68-23.32-13.75-22.59-3.15.19-6.77,2.04-10.06,5.14l-.97.91-.86-.82c-4.52-4.33-9.12-5.97-14.05-5.01"/>
  <text class="cls-21" transform="translate(470.84 608.63) rotate(-180)"><tspan x="0" y="0">K</tspan></text>
  <path id="path0-2" data-name="path0" class="cls-22" d="M465.73,576.17c11.07-2.16,15.28-14.56,8.43-24.86-2.11-3.18-4.36-5.42-11.38-11.32-5.29-4.45-7.06-6.04-9.19-8.28-2.48-2.6-3.03-2.54-6.17.62-2.2,2.21-4.05,3.87-8.26,7.39-8.35,6.98-11.13,9.97-13.12,14.07-5.54,11.45,1.68,23.32,13.75,22.59,3.15-.19,6.77-2.04,10.06-5.14l.97-.91.86.82c4.52,4.33,9.12,5.97,14.05,5.01"/>
  <rect class="cls-19" x="100" y="110" width="300" height="480"/>
  <g>
    <g id="g4947">
      <g id="g4503">
        <path id="path4487" class="cls-1" d="M351.36,410.37l17.67-5.33,13.4-10.36,9.44-9.14,7.77-7.77.3-12.49-48.43-.3,2.28,6.55-.46,6.25-2.44,6.55,5.33,3.05,4.42,3.66v2.89l-3.96,3.5-7.46,3.81,1.98,5.18.15,3.96Z"/>
        <path id="path4489" class="cls-14" d="M360.34,365.27s-1.66,2.58-2.74,3.66-3.66,2.74-3.66,2.74"/>
        <path id="path4491" class="cls-14" d="M370.55,365.27s-5.74,5.5-8.99,7.77c-2.48,1.73-7.92,4.42-7.92,4.42"/>
        <path id="path4493" class="cls-14" d="M351.66,384.47s7.27-2.72,10.66-4.57c3.44-1.87,6.71-4.08,9.75-6.55,2.92-2.38,8.07-7.92,8.07-7.92"/>
        <path id="path4495" class="cls-14" d="M389.59,365.27s-5.23,6.15-8.22,8.84c-3.21,2.89-6.7,5.47-10.36,7.77-3.83,2.41-12.03,6.25-12.03,6.25"/>
        <path id="path4497" class="cls-14" d="M399.18,366.49s-8.15,8.63-12.64,12.49c-3.94,3.38-8.04,6.63-12.49,9.29-4.81,2.88-15.23,7.16-15.23,7.16"/>
        <path id="path4499" class="cls-14" d="M350.9,404.58s9.58-2.67,14.16-4.57c4.01-1.66,7.82-3.77,11.58-5.94,3.88-2.24,7.74-4.56,11.27-7.31,4.1-3.21,11.42-10.66,11.42-10.66"/>
      </g>
      <path id="path4485" class="cls-1" d="M368.11,405.95l-16.91,5.33-1.98,9.45,10.2-7.31,8.68-7.47Z"/>
      <path id="path4483" class="cls-1" d="M305.82,410.67l10.51-.15,4.57-2.13,5.33-4.11,3.5,1.37,3.81-1.52,5.33,3.35,5.94,4.88,2.89,5.94.3,2.74-11.73,7.16-16.45,7.62-8.83-13.56-5.18-11.58Z"/>
      <path id="path4481" class="cls-20" d="M293.17,374.72l1.07,3.5,5.94.3,7.16-1.98,6.7.3,7.01,1.68,4.87,4.42,1.52-2.89,3.2-.15,3.5,1.83-.15-33.52-11.88,11.58-6.85,4.11-10.51,5.79-11.58,5.03Z"/>
      <path id="path4479" class="cls-1" d="M345.87,266.1l8.53,2.13,13.71,14.17-.61,81.81-16.6.61-4.11,4.72-5.03,5.64-8.53,5.94.3-31.84,9.29-12.19,5.33-13.25,3.66-17.06.15-17.22-3.5-15.69-2.59-7.77Z"/>
      <path id="path4477" class="cls-20" d="M361.1,267.62l7.31-1.37,6.7-3.05,7.92,4.11,8.07,1.98,8.38,1.22v35.8l-38.38-38.7Z"/>
      <rect id="rect3350-8" class="cls-20" x="379.91" y="299.79" width="10.95" height="3.65"/>
      <path id="path4420" d="M315.37,262.53l12.1-14.84,9.58,12.1,6.62,16.66,2.97,15.52-.23,16.21-5.02,19.63-7.99,13.92-11.41,11.19-10.95,7.99-18.26,8.45-1.83-17.81,12.78-7.3,14.38-13.01,7.07-12.78,4.11-14.15-.46-10.96-2.97-12.33-4.56-10.27-5.93-8.22Z"/>
      <path id="path4273-7" d="M332.68,453.72l12.52-5.78,14.68-9.13,10.07-7.74,9.93-7.73,10.91-9.42,9.19-8.28.03,12.37-16.36,13.63-12.44,9.67-10.77,7.47-10.07,5.67-12.04,7.12-5.65-7.84Z"/>
      <path id="path4273" d="M323.48,441.12l16.41-8.36,15.95-10.03,10.94-8.51,10.79-8.06,11.85-10.79,10.18-9.27-.15,11.55-17.78,16.41-13.52,11.4-11.7,8.21-10.94,6.23-16.71,8.66-5.32-7.45Z"/>
      <path id="path3469" class="cls-3" d="M319.95,435.99s10.31-4.55,15.29-7.17c4.26-2.25,8.41-4.7,12.45-7.32,5.95-3.86,11.7-8.02,17.31-12.37,5.29-4.1,10.42-8.41,15.38-12.91,6.78-6.16,19.59-19.26,19.59-19.26v8.86s-13.24,12.31-20.13,18.16c-5.41,4.59-10.94,9.04-16.63,13.26-4.98,3.69-10.05,7.28-15.33,10.53-3.91,2.41-8.02,4.48-12.09,6.63-4.13,2.18-12.48,6.37-12.48,6.37l-3.36-4.77Z"/>
      <path id="path4255" class="cls-1" d="M232.89,332.15l34.06-.31.93-9.6,2.17-14.25,2.01-10.37,4.33-15.48-43.96,42.27.46,7.74Z"/>
      <path id="path4253" class="cls-1" d="M204.87,235.07l6.19,15.17,6.5,15.48,3.87,10.53,2.17,6.97,45.51-42.89-6.5.62-8.36-2.17-5.42-3.41-3.72-6.19-3.25-8.21h-2.17l-.77,5.26-4.02,5.42-5.73,1.39-4.18,2.79-5.73-.77-3.56,2.01h-5.42l-4.18-2.32-1.24.31Z"/>
      <path id="path3483" class="cls-1" d="M231.34,313.57l-1.7-6.19-2.79-12.7-2.63-11.15,56.5-54.35,4.49,1.55,5.11-1.55,3.1-2.17,3.56,2.32-9.13,19.82-6.97,17.34-49.54,47.07Z"/>
      <g id="g4904">
        <path id="path4512-13-7-4" class="cls-20" d="M281.98,408.09l9.91,11.03-.71-10.46s-1.11-1.97-1.92-2.73c-1.15.1-3.36-2.05-3.36-2.05,0,0-.1,2.89-1.05,3.75-.72.65-2.86.46-2.86.46h0Z"/>
        <path id="path4512-13-7-4-7-9" class="cls-20" d="M325.75,473.25l-1.07-6.7s-1.5,2.16-2.67,2.36c-1.48.25-4.16-1.71-4.16-1.71,0,0,.38,3.23-.56,4.35-.71.85-3.17,1-3.17,1l5.84,3.59"/>
        <path id="path3338" class="cls-14" d="M297.39,230.22s-7.48,13.33-10.61,20.3c-3.02,6.75-5.57,13.72-7.84,20.76-3.08,9.55-5.79,19.24-7.84,29.06-1.49,7.15-2.5,14.41-3.23,21.68-.9,9.04-1.29,18.13-1.38,27.22-.05,5.08-.04,10.17.46,15.22,1.27,12.88,3.7,25.64,6.46,38.29,2.27,10.42,4.86,20.81,8.3,30.91,2.58,7.57,5.61,15.01,9.22,22.14,4.3,8.49,14.76,24.45,14.76,24.45,0,0,13.07-3.89,19.37-6.46,5.86-2.39,17.06-8.3,17.06-8.3,0,0-7.91-9.05-11.53-13.84-3.94-5.2-7.48-10.69-11.07-16.14-2.69-4.1-5.47-8.16-7.84-12.45-2.23-4.03-6-12.45-6-12.45"/>
        <path id="path4512" class="cls-20" d="M295.97,254.31l12.78-10.96-2.05,16.66s-1.56-2.12-2.74-2.28c-1.48-.21-4.11,1.83-4.11,1.83,0,0,.29-3.24-.68-4.34-.73-.83-3.19-.91-3.19-.91h0Z"/>
        <path id="path4512-3" class="cls-20" d="M309.84,232.18l8.29-5.06,3.87.77-3.09,10.02s-1.23-1.96-2.26-2.18c-1.3-.28-3.76,1.3-3.76,1.3,0,0,.48-2.8-.29-3.82-.59-.77-2.76-1.02-2.76-1.02h0Z"/>
        <path id="path4512-34" class="cls-20" d="M285.67,277.52l11.8-12-.63,16.78s-1.74-1.98-2.92-2.04c-1.5-.08-3.94,2.17-3.94,2.17,0,0,0-3.25-1.05-4.26-.8-.76-3.26-.64-3.26-.64Z"/>
        <path id="path4512-1" class="cls-20" d="M278.08,302.14l9.19-13.62,2.71,16s-2.09-1.54-3.27-1.37c-1.48.21-3.43,2.81-3.43,2.81,0,0-.64-3.08-1.88-3.83-.94-.57-3.32.02-3.32.02Z"/>
        <path id="path4512-13" class="cls-20" d="M274.13,327.17l8.17-14.72,3.87,16.34s-2.2-1.44-3.36-1.19c-1.46.32-3.22,3.14-3.22,3.14,0,0-.86-3.14-2.15-3.83-.98-.52-3.31.26-3.31.26h0Z"/>
        <path id="path4512-13-8" class="cls-20" d="M273.63,351.19l5.58-14.01,6.56,13.63s-2.41-.93-3.51-.53c-1.39.5-2.64,3.21-2.64,3.21,0,0-1.37-2.6-2.76-3.01-1.05-.31-3.22.71-3.22.71h0Z"/>
        <path id="path4512-13-7" class="cls-20" d="M274.22,362.28l8.17,13.71,3.87-15.22s-2.2,1.34-3.36,1.11c-1.46-.3-3.22-2.93-3.22-2.93,0,0-.86,2.92-2.15,3.57-.98.49-3.31-.24-3.31-.24h0Z"/>
        <path id="path4512-13-7-4-2" class="cls-20" d="M290.51,430.72l13.27,10.36-2.82-16.55s-1.46,2.19-2.63,2.41c-1.47.27-4.19-1.63-4.19-1.63,0,0,.43,3.22-.48,4.36-.7.86-3.15,1.06-3.15,1.06h0Z"/>
        <path id="path4512-13-7-4-7" class="cls-20" d="M302.64,452.94l11.39,9.51-2.2-14.91s-1.31,1.94-2.33,2.12c-1.29.22-3.62-1.54-3.62-1.54,0,0,.33,2.9-.49,3.91-.62.76-2.76.9-2.76.9Z"/>
        <circle id="path4293-3" class="cls-20" cx="301.97" cy="241.26" r="2.5"/>
        <circle id="path4293-3-1" class="cls-20" cx="310.87" cy="239.85" r="2.5"/>
        <circle id="path4293-3-1-9" class="cls-20" cx="315.55" cy="247.97" r="2.5"/>
        <circle id="path4293-3-1-8" class="cls-20" cx="289.96" cy="262.18" r="2.5"/>
        <circle id="path4293-3-1-6" class="cls-20" cx="298.54" cy="261.87" r="2.5"/>
        <circle id="path4293-3-1-5" class="cls-20" cx="303.22" cy="270.14" r="2.5"/>
        <circle id="path4293-3-1-0" class="cls-20" cx="288.39" cy="285.13" r="2.5"/>
        <circle id="path4293-3-1-2" class="cls-20" cx="281.21" cy="288.09" r="2.5"/>
        <circle id="path4293-3-1-86" class="cls-20" cx="293.86" cy="292.15" r="2.5"/>
        <circle id="path4293-3-1-02" class="cls-20" cx="282.78" cy="309.17" r="2.5"/>
        <circle id="path4293-3-1-4" class="cls-20" cx="288.39" cy="316.04" r="2.5"/>
        <circle id="path4293-3-1-865" class="cls-20" cx="275.91" cy="311.98" r="2.5"/>
        <circle id="path4293-3-1-09" class="cls-20" cx="271.85" cy="340.08" r="2.5"/>
        <circle id="path4293-3-1-00" class="cls-20" cx="279.5" cy="333.68" r="2.5"/>
        <circle id="path4293-3-1-61" class="cls-20" cx="285.9" cy="339.46" r="2.5"/>
        <circle id="path4293-3-1-3" class="cls-20" cx="279.19" cy="356.16" r="2.5"/>
        <circle id="path4293-3-1-89" class="cls-20" cx="282.31" cy="378.95" r="2.5"/>
        <circle id="path4293-3-1-34" class="cls-20" cx="288.24" cy="371.62" r="2.5"/>
        <circle id="path4293-3-1-46" class="cls-20" cx="274.82" cy="373.96" r="2.5"/>
        <circle id="path4293-3-1-06" class="cls-20" cx="277.78" cy="399.56" r="2.5"/>
        <circle id="path4293-3-1-618" class="cls-20" cx="285.27" cy="420.64" r="2.5"/>
        <circle id="path4293-3-1-49" class="cls-20" cx="293.7" cy="422.51" r="2.5"/>
        <circle id="path4293-3-1-63" class="cls-20" cx="299.79" cy="416.89" r="2.5"/>
        <circle id="path4293-3-1-7" class="cls-20" cx="308.84" cy="435.16" r="2.5"/>
        <circle id="path4293-3-1-88" class="cls-20" cx="304.16" cy="444.52" r="2.5"/>
        <circle id="path4293-3-1-29" class="cls-20" cx="294.79" cy="442.49" r="2.5"/>
        <circle id="path4293-3-1-1" class="cls-20" cx="308.22" cy="466.22" r="2.5"/>
        <circle id="path4293-3-1-35" class="cls-20" cx="315.86" cy="464.82" r="2.5"/>
        <circle id="path4293-3-1-98" class="cls-20" cx="321.01" cy="457.17" r="2.5"/>
      </g>
      <path id="path3340" class="cls-14" d="M223.86,283.07l56.74-53.39"/>
      <path id="path4267" class="cls-13" d="M336.48,248.07s2.42,4.98,4.38,6.82c2.89,2.72,6.6,4.61,10.37,5.77,2.66.81,5.53.87,8.3.71,2.74-.16,5.5-.67,8.07-1.65,2.69-1.03,7.49-4.35,7.49-4.35,0,0,4.65,3.62,7.25,4.96,2.62,1.35,5.45,2.32,8.31,3.04,2.39.6,7.33,1.06,7.33,1.06v-15.88l-61.49-.47Z"/>
      <path id="path4265" class="cls-18" d="M343.89,228.53l-12.94,13.65,5.29,6,61.72.47.18-20.24-54.25.12Z"/>
      <path id="path4243-7" class="cls-1" d="M371.07,214.69l-9.65,12.74h26.12c-5.53-4.32-10.73-8.45-16.47-12.74Z"/>
      <path id="path4243" class="cls-1" d="M350.67,214.06l10.08,13.48-29,.17c5.78-4.57,12.92-9.1,18.92-13.65Z"/>
      <path id="path4263" class="cls-14" d="M323.18,228.12l76.23.06"/>
      <g id="g4132">
        <ellipse id="path4114" class="cls-6" cx="386.57" cy="155.55" rx="7.58" ry="8.55"/>
        <path id="path3343" class="cls-6" d="M346.18,141.71s3.1-.15,4.17-1.11c1.15-1.03,1.86-2.78,1.67-4.31-.18-1.42-1.33-2.66-2.5-3.48-1.1-.78-2.56-1.3-3.89-1.11-2.1.29-4.08,1.69-5.42,3.34-1.21,1.49-1.95,5.42-1.95,5.42l.14,32.68s-2.81-.05-3.89.7c-1.25.86-2.34,2.38-2.36,3.89-.02,1.6,1.17,3.11,2.36,4.17,1.16,1.03,2.76,1.95,4.31,1.81,1.77-.16,3.22-1.64,4.45-2.92,1.05-1.09,1.93-2.44,2.36-3.89.41-1.38.14-4.31.14-4.31l.42-30.88Z"/>
        <path id="path4116" class="cls-16" d="M386.64,151.86s2.2.3,2.64,2.64c.28,1.47-.89,3.7-2.22,3.89-3.9.56-4.45-2.64-4.45-2.64"/>
        <path id="path4118" class="cls-6" d="M311.42,146.3l26.7.14"/>
        <path id="path4120" class="cls-6" d="M338.25,167.16h-28.5"/>
        <path id="path4122" class="cls-6" d="M321.57,146.72l-.14,20.17"/>
        <rect id="rect4124" class="cls-15" x="327.13" y="152.14" width="6.54" height="9.46"/>
        <path id="path4126" class="cls-15" d="M320.46,156.59l-14.46-.14"/>
        <path id="path4128" class="cls-15" d="M308.5,151.73h12.65"/>
        <path id="path4130" class="cls-15" d="M307.94,162.16l13.07.14"/>
      </g>
      <path id="path3475" class="cls-3" d="M332.15,453.86s11.93-6.05,17.68-9.47c5.3-3.15,10.44-6.57,15.46-10.14,5.63-4.01,11.11-8.23,16.42-12.65,6.29-5.25,18.26-16.47,18.26-16.47v-8.15s-11.47,10.84-17.4,16.05c-5.59,4.91-11.18,9.83-17.11,14.32-5.08,3.85-10.3,7.53-15.77,10.79-6.82,4.07-21.18,10.9-21.18,10.9l3.64,4.81Z"/>
      <path id="path3479" class="cls-3" d="M342.11,465.52s6.23-3.06,9.27-4.74c5.12-2.83,10.17-5.79,15.07-8.97,5.51-3.56,10.9-7.32,16.11-11.31,5.99-4.59,17.4-14.5,17.4-14.5v-8s-11.22,10.29-17.13,15.07c-5.11,4.13-10.43,8.01-15.86,11.72-5.5,3.76-11.14,7.3-16.89,10.66-3.75,2.19-11.46,6.18-11.46,6.18l3.49,3.9Z"/>
      <g id="g4147">
        <path id="path4087" class="cls-7" d="M247.28,160.47c2.23-.84,4.19-1.1,6.34-1.3,2.72-.26,5.48-.21,8.18.12,2.98.36,6.05.82,8.76,2.04,1.23.55,3.26,2.32,3.26,2.32,0,0-5.55-2.4-8.51-3.01-2.29-.47-4.67-.54-7.01-.46-2.67.09-5.31.66-7.96,1.05-2.19.32-3.86.3-6.56,1.07l3.51-1.81Z"/>
        <path id="path4089" class="cls-7" d="M243.79,170.87s2-2.25,3.21-3.13c1.45-1.06,3.05-1.98,4.76-2.53,1.43-.46,2.97-.55,4.48-.59,1.69-.05,3.42-.05,5.05.35,2.21.54,4.25,1.62,6.2,2.72,1.69.95,3.39,1.94,4.73,3.31.73.75,1.74,2.61,1.74,2.61,0,0-3.42-1.07-5.12-1.6-2.79-.87-5.49-2.06-8.38-2.6-1.59-.3-3.23-.35-4.86-.35-1.55,0-3.09.17-4.63.33-.58.06-1.15.13-1.72.23-1.83.33-5.45,1.26-5.45,1.26h0Z"/>
        <path id="path4091" class="cls-7" d="M270.19,174.19s-5.3,1.6-7.65,2.89c-1.27.7-2.81.81-4.26.89-2.18.12-4.46.02-6.52-.65-1.24-.4-2.26-1.23-3.33-1.95-1.4-.95-4-3.14-4-3.14,0,0,3.89-.93,5.86-1.3,1.58-.3,3.17-.71,4.78-.75,2.03-.06,4.07.23,6.06.62,3.62.7,10.62,3.08,10.62,3.08l-1.55.31Z"/>
        <ellipse id="path4093" class="cls-12" cx="256.49" cy="174.48" rx="5.11" ry="3.19"/>
        <ellipse id="path4095" class="cls-11" cx="256.17" cy="173.74" rx="1.85" ry="1.33"/>
        <path id="path4097" class="cls-11" d="M211.58,165.04s.31.11,1.29-1.61c.89-1.57,2.25-1.67,3.55-2.11,2.05-.7,4.29-1.01,6.44-.81,1.78.16,3.61.65,5.12,1.62,1.49.96,2.84,2.43,3.57,3.95-1.48-.72-2.36-1.84-3.67-2.54-1.49-.79-3.04-1.59-4.71-1.84-2.43-.36-5.01-.22-7.34.57-1.6.54-4.25,2.78-4.25,2.78h0Z"/>
        <path id="path4099" class="cls-7" d="M233.02,167.86c-.01,1.88-.28,4.55-.58,6.8-.3,2.2-.83,4.36-1.23,6.54-.36,1.97-.69,3.95-1.04,5.93-.33,1.87-1.01,3.72-1,5.62,0,.93-.05,2,.51,2.75,1.03,1.36,3.01,1.61,4.57,2.29.82.36,1.93.32,2.5.95"/>
        <path id="path4103" class="cls-7" d="M243.77,190.24c1.2-.41,2.33.7,2.94,1.58.46.65.49,1.57.26,2.32-.32,1.08-1.09,2.18-2.16,2.69-1.22.59-2.84.53-4.14.11-.98-.31-1.48-1.38-2.39-1.85-1.15-.59-2.48-.82-3.75-1.13"/>
        <path id="path4113" class="cls-11" d="M249.92,207.08s-2.52-.67-3.79-.99c-1.18-.3-2.33-.88-3.55-.88-1.35,0-2.59.73-3.91.99-1.09.21-2.23.66-3.32.44-.78-.16-1.22-1.1-2.01-1.21-1.14-.16-2.27.43-3.32.88-.65.28-1.78,1.1-1.78,1.1,0,0,1.76-.83,2.72-.88,1.25-.07,2.42.65,3.67.77,1.57.14,3.17.05,4.74-.11,1.04-.1,2.05-.4,3.08-.55,1.02-.15,2.05-.4,3.08-.33,1.06.07,2.03.64,3.08.77.43.05,1.3,0,1.3,0Z"/>
        <path id="path4115" class="cls-7" d="M243.05,212.92s-2.15,1.02-3.32,1.21c-1.05.17-2.16.12-3.2-.11-1.18-.26-3.32-1.42-3.32-1.42"/>
        <path id="path4117" class="cls-7" d="M231.57,170.44s-2.91-2.16-4.54-2.93c-1.42-.67-2.92-1.32-4.5-1.42-1.44-.09-2.88.38-4.26.77-1.1.3-2.21.64-3.2,1.21-1.17.66-3.15,2.51-3.15,2.51"/>
        <g id="g7614">
          <path id="path4091-2" class="cls-7" d="M212.54,173.68s2.91,2.47,4.63,3.29c1.22.58,2.55.98,3.9,1.11,2.02.2,4.14.19,6.07-.48,1.16-.4,2.13-1.29,3.13-2.06.71-.55,2.01-1.81,2.01-1.81,0,0-2.41-1.31-3.66-1.84-1.25-.53-2.51-1.15-3.83-1.35-1.93-.3-3.93-.23-5.82.22-2.26.54-6.41,2.92-6.41,2.92h0Z"/>
          <ellipse id="path4093-4" class="cls-9" cx="222.81" cy="174.24" rx="3.58" ry="4.75" transform="translate(33.14 384.06) rotate(-85.91)"/>
          <ellipse id="path4095-5" class="cls-17" cx="223.12" cy="173.42" rx="1.49" ry="1.72" transform="translate(26.41 376.3) rotate(-83.74)"/>
        </g>
        <path id="path4143" class="cls-7" d="M249.21,177.83l7.24,7.01"/>
        <path id="path4145" class="cls-7" d="M230.26,179.25l-5.79,7.12"/>
      </g>
      <path id="path3931-0" class="cls-5" d="M181.37,110l30.18,39.99c10.44-3.78,20.39-2.99,30.66-3.26,10.71-.28,21.45.52,32.1,1.71,10.56,1.18,21.83,2.94,31.41,5.37,10.94-16.16,24.68-27.65,35.63-43.8h-159.98Z"/>
      <path id="path3933-7-5" d="M226.08,128.7c-.73-.38-1.07-2.13-.6-3.07.14-.27.52-.47.83-.43.89.1,1.7.9,1.94,1.71.18.58-.49,1.14-.49,1.74,0,.59.1,1.25.47,1.73.74.93,1.94,1.72,3.16,1.77,2.03.08,4.59-.82,5.49-2.51.84-1.56-.04-3.67-1.08-5.12-.7-.98-1.89-1.88-3.16-2-1.15-.1-2.19.72-3.19,1.27.58-1.66,1.22-3.59.49-5.2-.7-1.54-2.46-2.66-4.18-3.19-.72-.22-1.52.03-2.28.11h0c-1.36.65-2.75,1.65-3.25,2.99-.5,1.34.05,2.89.56,4.23.39,1.03,1.18,1.89,1.88,2.77-1-.32-2.16-.34-3.08.08-1.74.79-3.62,2.37-3.68,4.16-.06,1.72,1.61,3.42,3.27,4.2,1.54.72,3.7.81,5.19-.03,1.16-.65,1.77-2.09,2.01-3.36.12-.62-.32-1.86-.32-1.86h0Z"/>
      <path id="path3933-7-4-0-9-1" d="M200.97,132.07c-.05-.68.44-.75.3-1.57-.14-.81-1.49-1.18-2.32-.99-.29.07-.57,1.07-.61,1.36l-6.31-8.38c.28-.43.76-.84,1.1-1.2.64-.31,1.25-.82,1.97-.84,1.7-.05,3.67.44,4.82,1.67,1.2,1.28,1.29,3.29,1.35,5.04.69-.83,1.33-1.92,2.39-2.19,1.17-.3,2.53.17,3.49.87,1.42,1.04,2.93,2.75,2.73,4.48-.22,1.87-2.2,3.42-4.01,4.07-1.35.48-2.92.05-4.27-.43"/>
      <path id="path4015-2" d="M267.74,135.58c-2.13-.04-4.18-1.3-5.79-2.78-.85-.79-1.04-2.22-1.85-3.07-.37-.39-.91-.24-1.32-.87-.2,3.11.73,3.58,1.65,5.07,1.21,1.95,2.98,3.54,4.86,4.7,2.03,1.26,4.34,2.14,6.69,2.32,2.77.21,5.63-.43,8.26-1.5,1.79-.73,3.53-1.81,4.9-3.27.77-.81,1.51-2.07,1.75-2.93-1.26,1.23-3.25,2.59-5.13,3.23-1.71.59-3.63,1.01-5.32.48-1.64-.52-2.73-1.7-4.05-3.38-1.79.72-3.01,2.02-4.66,1.99h0Z"/>
      <path id="path4015-4-0" d="M246.71,134.39c2.17.28,4.42-.73,6.33-1.88,1.01-.61,1.63-1.76,2.52-2.55.42-.37.54-1.12,1.33-1.01-.31,3.11-1.31,3.55-2.49,4.91-1.55,1.79-3.6,3.05-5.7,3.92-2.26.94-4.76,1.46-7.17,1.29-2.84-.21-5.65-1.27-8.15-2.73-1.7-.99-3.38-2.22-4.45-3.97-.57-.94-.79-2.36-.9-3.24,1.08,1.41,2.59,3.13,4.28,4.05,1.62.89,3.52,1.55,5.32,1.27,1.75-.27,3.05-1.27,4.66-2.73,1.7.98,2.73,2.45,4.41,2.67h0Z"/>
      <path id="path4015-4-8-98" d="M297.63,140.73c-1.94-.06-3.86-1.42-5.46-2.65-.76-.59-1.17-1.54-1.88-2.18-.41-.37-.64-.94-1.36-.95.02,2.9,1.02,2.93,1.92,4.18,1.27,1.75,2.86,3.36,4.74,4.43,1.74.99,3.78,1.49,5.77,1.67,2.64.25,5.44.17,7.93-.75,1.63-.6,2.99-1.81,4.26-2.99,1.08-1,2.65-2.61,2.81-3.41-1.5.52-2.47,1.83-5.58,3.52-1.42.77-3.48,1.01-5.12.52-1.62-.48-2.6-1.62-3.92-3.19-1.58.65-2.62,1.85-4.13,1.8h0Z"/>
      <path id="path4015-4-8-8-9" d="M211.7,137.91c-1.79.72-4.3.41-6.22-.5-1.15-.55-1.85-1.8-2.7-2.77-.55-.63-1.88-3.23-1.54-1.97.51,1.92,1.66,4.69,3.54,6.31,1.7,1.47,4.26,2.19,6.42,2.59,2.32.43,4.7.43,6.74-.24,2.41-.78,4.48-2.38,6.13-4.29,1.12-1.3,2.1-2.96,2.44-4.72.19-.98-.04-2.15-.27-3.02-.58,2.14-1.03,3.78-2.36,5.06-1.1,1.06-2.67,1.7-4.23,1.75-1.75.05-3.13-.59-5.08-1.67-1.13,1.29-1.49,2.92-2.88,3.47h0Z"/>
      <path id="path4072-1" d="M310,146.42s-4.85,1.26-7.34,1.29c-2.81.04-5.76-.12-8.33-1.25-1.82-.8-3.25-2.3-4.64-3.73-.94-.96-2.44-3.21-2.44-3.21,0,0-5.26,2.78-8.13,3.35-2.84.57-5.82.42-8.68.01-2.75-.39-5.57-.99-7.98-2.35-1.94-1.1-4.93-4.52-4.93-4.52,0,0-4,4.14-6.6,5.12-2.52.96-5.38.67-8.06.5-2.45-.16-4.9-.6-7.22-1.39-2.31-.78-6.54-3.28-6.54-3.28,0,0-2.54,3.34-4.22,4.53-1.56,1.11-3.43,1.76-5.26,2.29-1.85.53-3.79,1.04-5.7.86-2.63-.26-7.46-2.68-7.46-2.68l5.67,7.02s11.16-3.02,20.08-3.18c5.78-.1,14.21-.13,21.31.1,5.33.17,10.65.46,15.96.93,4.58.41,9.49,1.11,14.22,1.79,3.86.56,7.73,1.14,11.56,1.9,3.35.66,9.99,2.31,9.99,2.31l4.73-6.42Z"/>
      <path id="path3933-7-4-0-9-6-7" d="M316.24,138.2c-.59-.48-.2-1.12,0-1.93.59-.7.98-.94,1.79-1,.29.08.46.54.48.83l6.77-7.7c-.26-.44-.55-1.1-.87-1.48-.62-.35-1.2-.89-1.91-.96-1.7-.15-3.7.23-4.92,1.38-1.28,1.2-1.5,3.21-1.67,4.95-.64-.87-1.2-1.99-2.24-2.32-1.15-.36-2.54.02-3.54.66-1.48.95-3.11,2.57-3.01,4.31.1,1.88,1.98,3.54,3.74,4.3,1.31.56,2.92.22,4.29-.18"/>
      <path id="path3933-7-1-1" d="M289.03,133.62c.73-.38,1.07-2.13.6-3.07-.14-.27-.52-.47-.83-.43-.89.1-1.7.9-1.94,1.71-.18.58.42,1.14.49,1.74.05.42-.06,1.26-.06,1.26-1.16.91-2.15,2.14-3.57,2.24-2.03.13-4.59-.82-5.49-2.51-.84-1.56.04-3.67,1.08-5.12.7-.98,1.89-1.88,3.16-2,1.15-.1,2.19.72,3.19,1.27-.58-1.66-1.22-3.59-.49-5.2.7-1.54,2.46-2.66,4.18-3.19.72-.22,1.52.03,2.28.11h0c1.36.65,2.75,1.65,3.25,2.99.5,1.34-.05,2.89-.56,4.23-.39,1.03-1.18,1.89-1.88,2.77,1-.32,2.16-.34,3.08.08,1.74.79,3.62,2.37,3.68,4.16.06,1.72-1.61,3.42-3.27,4.2-1.54.72-3.7.81-5.19-.03-1.25-.7-1.38-2.3-2.15-3.62l.46-1.6Z"/>
      <path id="path3933-7-3-33" d="M256.98,129.54c-.6-.54-.46-2.32.25-3.12.2-.23.62-.32.92-.21.83.32,1.37,1.29,1.42,2.13.03.53-.57.92-.73,1.43-.14.44-.22,1.37-.22,1.37.88,1.16,1.29,2.59,2.57,3.04,1.91.67,4.65.33,5.98-1.08,1.23-1.3.94-3.55.34-5.21-.41-1.12-1.32-2.28-2.52-2.71-1.08-.38-2.31.16-3.42.44,1.01-1.47,2.14-3.17,1.87-4.9-.26-1.66-1.66-3.18-3.18-4.1-.64-.39-1.48-.35-2.23-.45h0c-1.49.3-3.11.92-3.95,2.09-.85,1.18-.73,2.81-.6,4.23.11,1.09.63,2.12,1.07,3.14-.88-.55-1.99-.85-3-.68-1.9.34-4.14,1.4-4.68,3.12-.52,1.65.63,3.7,2.03,4.87,1.3,1.08,3.36,1.69,5.02,1.24,1.4-.37,1.95-1.88,3.05-2.97l-.02-1.66Z"/>
      <g id="g7734">
        <path id="path4078-7-0" class="cls-15" d="M278.18,149.49c6.22,16.27,12.51,33.89,18.48,49.2,3.34,8.58,2.97,21.22-3.41,28.24-2.69,2.96-8.21,4.45-11.74,2.56-3.87-2.07-6.83-8.37-4.81-12.27,1.77-3.41,7.91-4.74,11.18-2.75,2.14,1.31,2.07,5.12,1.75,7.33"/>
        <path id="path4075-4" class="cls-15" d="M273.29,149.17c3.78,9.87,10.02,24.57,13.76,37.28,2.67,9.08,8.01,18.44,6.17,27.73-.78,3.94-3.56,8.88-6.89,9.88-2.22.64-3.53-1.31-3.92-3.23"/>
        <path id="path4081-0" class="cls-15" d="M283.06,149.69c3.33,10.78,7.86,20.42,11.5,30.73,3.59,10.15,9.44,19.91,10.19,30.65.34,4.91.62,10.86-2.66,14.54-1.84,2.06-5.04,3.77-7.93,2.39"/>
        <path id="path4081-0-9" class="cls-15" d="M287.8,150.93c3.33,10.4,8.4,21.63,12.53,32.48,3.61,9.49,9.83,18.39,10.71,28.51.37,4.3.49,9.52-2.4,12.71-1.85,2.05-5.04,3.64-7.93,2.3"/>
        <path id="path4081-0-9-4" class="cls-15" d="M293.22,151.57c3.33,10.33,8.4,21.49,12.53,32.26,3.61,9.42,9.83,18.26,10.71,28.31.37,4.27.49,9.46-2.4,12.63-1.85,2.03-5.04,3.61-7.93,2.29"/>
        <path id="path4081-0-9-8" class="cls-15" d="M298.63,153.12c3.33,10.08,8.4,20.97,12.53,31.49,3.61,9.2,9.83,17.83,10.71,27.64.37,4.17.49,9.24-2.4,12.33-1.85,1.98-5.04,3.53-7.93,2.23"/>
        <path id="path4081-0-9-82" class="cls-15" d="M304.07,153.95c3.33,9.98,8.58,20.88,12.77,31.36,3.63,9.09,9.83,17.64,10.71,27.35.37,4.12.49,9.14-2.4,12.2-1.85,1.96-5.04,3.49-7.93,2.21"/>
      </g>
      <path id="path4427-7" class="cls-15" d="M267.24,228.76c2.75-.66,3.77,3.79,2.58,5.39-1.3,1.76-5.14.72-6.49-1.01-1.81-2.32-1.45-6.83.82-8.8,1.75-1.51,5-.96,7.06.14,1.97,1.05,3.41,3.29,3.69,5.44.39,2.97-.47,6.76-3,8.49-4.96,3.4-13.16,3.53-18.27-.11-4.37-3.11-6.35-5.24-8.52-8.66-1.65-2.6-2.76-7.63-3.2-8.67l-2.49.08c-.78,5.67-1.06,6.7-3.29,8.98-1.92,1.95-4.4,2.64-7.65,2.96"/>
      <path id="path4430-6" class="cls-15" d="M247.44,221.21c1.23,3.04,1.81,4.89,3.36,6.93,2.37,3.11,5.02,6.54,8.81,7.72,2.96.92,6.6.54,9.27-.98"/>
      <path id="path4432-6" class="cls-15" d="M251.56,219.86c1.23,2.73,2.56,5.96,4.9,8.06,1.47,1.32,3.38,3.23,5.36,2.51"/>
      <path id="path4434-0" class="cls-15" d="M255.44,218.09c.97,2.31,1.53,3.28,2.73,4.6,1.21,1.33,2.98,2.75,4.37,3.19"/>
      <path id="path4436-28" class="cls-15" d="M259.64,215.87c1.06,2.02,1.91,3.12,3.19,4.41,1.07,1.09,3.09,2.35,3.67,2.73"/>
      <path id="path4438-98" class="cls-15" d="M263.62,212.92c2.01,3.72,4.47,7.2,7.43,9.72,1.56,1.33,4.09,2,5.25,2.67"/>
      <path id="path4440-9" class="cls-15" d="M267.72,210.26c1.28,2.09,2.08,3.58,3.48,5.08,1.29,1.38,4.07,3.11,4.46,3.5"/>
      <path id="path4442-9" class="cls-15" d="M271.23,206.17c.95,2.13,2.13,4.45,3.73,6.3.83.95,2.28,1.84,2.95,2.37"/>
      <path id="path4438-4" class="cls-15" d="M288.78,214.73c.14-6.66-1.09-9.9-2.77-14.54-1.19-3.27-4.34-7.88-5.09-9.12"/>
      <path id="path4440-5" class="cls-15" d="M285.11,212.82c-1.15-3.86-1.8-6.53-3.12-9.63-1.05-2.47-3.47-6.37-3.82-7.1"/>
      <path id="path4442-5-9" class="cls-15" d="M280.6,213.19c-.79-3.29-1.82-6.25-3.09-8.86-.7-1.45-1.89-2.85-2.44-3.66"/>
      <path id="path4427-1" class="cls-15" d="M197.31,206.76c.86,1.76,4.29.36,5.14-1.18,1.05-1.9-.35-4.92-2.13-6.15-1.27-.88-3.23-.51-4.64.14-1.49.69-2.87,2.08-3.3,3.67-.71,2.61-.54,6.32,1.62,7.96,3.1,2.35,8.68,2.31,11.64-.82,2.95-3.12,4.89-6.49,6.3-10.25.78-2.07.81-5.5,1.1-6.55"/>
      <path id="path4432-7" class="cls-15" d="M211.79,180.46c-.97,6.11-1.3,11.29-3.54,16.43-1.48,3.41-4.1,8.64-6.37,9.16"/>
      <path id="path4427-1-1" class="cls-15" d="M193.42,210.55c.17,2.79,1.88,5.15,4.09,6.37,2.68,1.47,6.53,1.6,9.17.06,4.36-2.55,6.35-7.87,7.36-13.25"/>
      <path id="path4427-1-1-1" class="cls-15" d="M194.85,215.08c.17,2.79,1.56,5.84,3.92,7.25,2.62,1.57,6.48,1.51,9.17.06,4.15-2.23,6.7-6.46,7.71-11.84"/>
      <path id="path4427-1-1-5" class="cls-15" d="M198.03,222.15c1.06,3.32,2.13,4.17,4.09,5.13,2.75,1.33,6.52,1.58,9.17.06,4.36-2.5,6.53-7.7,7.54-13.08"/>
      <path id="path4427-1-1-5-2" class="cls-15" d="M201.25,226.82c1.3,4.55,2.85,4.55,5.21,5.38,3.14,1.11,7.18.67,9.91-1.23,3.98-2.78,6.39-7.48,6.65-12.95"/>
      <path id="path4427-1-1-5-2-7" class="cls-15" d="M203.99,231.3c1.77,3.24,3.34,4.83,5.95,5.54,3.16.85,6.96-.2,9.59-2.16,4.17-3.11,7.36-7.94,7.64-13.6"/>
      <path id="path4427-1-1-5-2-7-6" class="cls-15" d="M219.9,235.71c3.27.14,6.07-.52,8.18-2.44,3.18-2.89,5.09-5.47,4.84-11.94"/>
      <path id="path4423-4" class="cls-15" d="M211.99,179.33s-.4,2.35-.94,3.39c-.68,1.34-1.61,2.61-2.81,3.51-1.22.92-2.69,1.83-4.21,1.76-1.55-.08-3.21-.94-4.1-2.22-.83-1.2-.86-2.9-.59-4.33.25-1.32.84-2.81,1.99-3.51.9-.55,2.19-.52,3.16-.12.69.29,1.21.96,1.52,1.64.32.71.23,2.34.23,2.34,0,0,1.31-2.12,1.76-3.28.58-1.5.88-3.1,1.17-4.68.24-1.28.25-2.58.47-3.86.21-1.22.82-3.63.82-3.63"/>
      <path id="path8379" class="cls-15" d="M211.25,149.76c-.53,8.89-.46,17.82.05,26.71.42,7.25,1.47,14.45,2.45,21.64.55,3.99.73,8.04,1.92,11.93"/>
      <g id="g3845-1">
        <path id="path3810-7" class="cls-10" d="M354.88,175.99c-1.72-.56-3.34-1.59-4.81-2.79-1.08-.87-2.28-1.78-2.86-3.13-.67-1.55-.36-3.41-.48-5.12-.18-2.66-.97-5.44-.35-7.99.21-.88,1.11-1.36,1.33-2.24.46-1.82-.58-3.92-.15-5.75.19-.82.54-1.71,1.17-2.15.46-.32,1.62-.18,1.62-.18,0,0-.6-2.8-.02-3.89.46-.86,1.48-1.24,2.37-1.34,1.2-.14,2.44.44,3.54,1.04.96.53,1.83,1.29,2.55,2.19.33.42.79,1.44.79,1.44,0,0-1.19-2.9-.74-4.21.3-.85,1.17-1.42,1.97-1.55.85-.14,1.69.5,2.49.89,1.15.55,2.43,1,3.28,2.05.89,1.1,1.63,4.08,1.63,4.08,0,0-.79-2.89-.26-4.09.35-.78,1.2-1.24,1.97-1.37,1.06-.17,2.21.29,3.14.93.7.48,1.28,1.23,1.67,2.04.31.66.45,2.16.45,2.16,0,0,.79-2.74,1.83-2.86,1.16-.13,2.18,1.44,2.71,2.66,1.08,2.5-.17,5.56.35,8.27.29,1.55,1.24,2.9,1.54,4.45.46,2.37.88,4.92.36,7.25-.39,1.76-1.37,3.33-2.5,4.58-1.33,1.46-3.12,2.3-4.83,3.14-1.74.86-3.57,1.56-5.45,1.9-2.58.47-5.23.26-7.85.18-1.21-.04-2.42-.2-3.64-.31-.94-.08-1.91.04-2.83-.26h0Z"/>
        <path id="path3815-4" class="cls-10" d="M350.99,147.22c2.02,1.73,3.69,4.38,3.59,7.35.31,2.03-.73,4-.32,5.92.72,1.35,1.46,2.6,1.89,4.04.4,1.31.71,2.67.63,4.07"/>
        <path id="path3817-0" class="cls-10" d="M359.83,146.26c1.62,3.4,3.16,8.28,3.43,12.15,0,1.68.04,3.99-1.56,4.71-1.26.64-2.88-.03-3.46-1.54-1.22-2.56-3.29-7.34-4.08-10.1"/>
        <path id="path3819-9" class="cls-10" d="M357.34,159.36c.04-1.66,1.31-4.42,2.98-4.55.58-.2,1.19-.18,1.8-.17"/>
        <path id="path3821-4" class="cls-10" d="M368.07,147.12c.63,4.26,1.59,9.25.94,13.52-.46,1.45-.57,4.18-2.21,4.47-1.41.25-2.6-1.53-3.11-2.95-.13-.55-.23-3.54-.25-4.1"/>
        <path id="path3823-88" class="cls-10" d="M363.6,157.6c.74-1.62,2.02-1.79,3.28-1.98.57-.09,1.45.34,1.69.42"/>
        <path id="path3825-2" class="cls-10" d="M347.84,156.12c1.23-.36,2.87-.93,2.9-2.68.13-2.07-.49-4.08-1.3-5.93"/>
        <path id="path3827-4" class="cls-10" d="M369.26,157.51c-.38,2.48.93,6.32,3.24,6.15,2.63-.2,2.29-4.81,2.61-7.48.1-2.58-.36-5.19.01-7.75.05-.57.1-1.15.16-1.72"/>
        <path id="path3829-5-2" class="cls-10" d="M375.16,156.43c.59,2.08,1.8,3.1,3.19,2.83,1.34-.25,1.69-2.56,1.87-3.64"/>
        <path id="path3831-5" class="cls-10" d="M369.77,156.58c.79-1.09,1.68-1.54,2.7-1.53.8.01,1.8,1.02,2.16,1.26"/>
        <path id="path3833-1" class="cls-10" d="M375.56,153.95c.69-1.15,1.55-1.11,2.45-1.23.62-.08,1.5.13,1.85.37"/>
      </g>
      <path id="path4144" class="cls-3" d="M363.61,176.53c-2.59.08-5.17-.16-7.76-.33-1.87-.12-3.97-1.6-5.61-.5-1.31.88-2.42,3.03-2.15,4.84.38,2.45,2.77,3.88,4.65,4.8,2.79,1.36,5.99.62,8.99.66,3.41.04,6.97.74,10.23-.5,2.2-.83,5-1.87,5.85-4.49.65-1.99.15-5.04-1.3-6.21-1.38-1.12-3.27.68-4.92.92-2.65.38-5.32.73-7.99.81Z"/>
      <g id="g4228">
        <path id="path4144-7" class="cls-18" d="M362.32,185.77c-3.11.08-6.23-.18-9.34-.37-2.25-.14-4.77-1.77-6.75-.55-1.58.97-2.92,3.35-2.58,5.35.45,2.71,3.34,4.29,5.6,5.31,3.36,1.51,7.21.69,10.82.73,4.11.05,8.39.82,12.32-.55,2.64-.92,6.01-2.07,7.04-4.97.78-2.2.18-5.57-1.57-6.87-1.67-1.24-3.94.76-5.92,1.02-3.2.42-6.4.81-9.62.9h0Z"/>
        <ellipse id="path4165" class="cls-2" cx="362.1" cy="191.06" rx="2.71" ry="4.89"/>
        <path id="path4165-1" class="cls-2" d="M355.83,185.75c1.45.45,2.16,2.93,1.59,5.54-.57,2.61-2.21,4.37-3.65,3.92s-2.16-2.93-1.59-5.54c.57-2.61,2.21-4.37,3.65-3.92Z"/>
        <path id="path4165-1-1" class="cls-2" d="M367.67,186.25c-1.45.45-2.16,2.93-1.59,5.54s2.21,4.37,3.65,3.92c1.45-.45,2.16-2.93,1.59-5.54-.57-2.61-2.21-4.37-3.65-3.92Z"/>
        <path id="path4165-1-5" class="cls-4" d="M350.63,185.51c.92.93.82,3.2-.21,5.07s-2.63,2.65-3.55,1.72c-.92-.93-.82-3.2.21-5.07,1.04-1.88,2.63-2.65,3.55-1.72Z"/>
        <path id="path4165-1-5-2" class="cls-4" d="M373.22,185.1c-.92.93-.82,3.2.21,5.07,1.04,1.88,2.63,2.65,3.55,1.72.92-.93.82-3.2-.21-5.07-1.04-1.88-2.63-2.65-3.55-1.72Z"/>
      </g>
      <path id="path4237" class="cls-3" d="M345.62,194.28s-3.52,11.18-6.12,16.41c-3.01,6.06-10.85,17.15-10.85,17.15,0,0,2-.31,2.91-.73,7.16-3.26,19.34-13.5,19.34-13.5l10.15,12.93,10.29-11.82s10.91,9.9,17.66,12.38c1.4.51,4.45.42,4.45.42,0,0-8.09-11.59-11.12-17.94-2.35-4.92-5.42-15.44-5.42-15.44,0,0-3.79,1.16-7.65,1.95-4.54.92-9.24.92-13.9.42-5.26-.57-9.73-2.23-9.73-2.23h0Z"/>
      <path id="path4239" class="cls-14" d="M330.33,227.52s9.26-9.87,13.07-15.44c3.34-4.88,8.48-15.58,8.48-15.58,0,0,1.52,7.92,3.2,11.54,1.49,3.21,5.98,8.76,5.98,8.76,0,0,5.12-6.12,6.67-9.74,1.39-3.22,2.22-10.29,2.22-10.29,0,0,5.16,11.28,8.76,16.27,3.95,5.48,13.9,14.74,13.9,14.74"/>
      <path id="path4241" class="cls-8" d="M357.16,196.93c.42,4.29,2.33,9.28,4.17,10.57,2.13-3.01,3.43-6.86,3.89-10.71l-8.06.14Z"/>
      <path id="path3331" class="cls-3" d="M330.85,242.47l-3.7,4.49c6.48,6.97,11.6,14.94,14.67,23.72,4.24,12.14,6.22,25.55,4.55,38.3-1.52,11.64-5.94,23.34-12.98,32.74-7.24,9.66-18.23,16.01-28.57,22.25-3.82,2.31-9.62,3.79-12.2,5.52l.93,4.99c8.32-3.9,18.85-7.82,26.86-13.96,8.86-6.79,17.36-14.83,22.63-24.66,5.93-11.05,8.58-24,9-36.53.32-9.58-1.75-19.3-4.99-28.32-3.71-10.29-7-18.09-16.21-28.54h0Z"/>
      <path id="path4102" class="cls-3" d="M345.83,265.91c2.9,1.97,5.91,1.65,8.33,2.05l45.81,46.43v-6.88l-39.78-39.79c5.33-.39,10.35-1.62,14.72-4.59,5.23,3.09,9.46,4.44,14.48,5.79,3.44.93,10.57,1.57,10.57,1.57v-5.43s-11.35-1.89-16.6-4.1c-3.23-1.36-8.93-5.55-8.93-5.55,0,0-7.63,4.27-11.83,5.31-3.68.91-7.67,1.64-11.35.72-4.03-1-10.62-6.52-10.62-6.52l5.19,10.99Z"/>
      <path id="path4104" class="cls-14" d="M327.04,247.19s-9.51,10.88-13.44,16.91c-3.78,5.79-6.79,12.06-9.66,18.35-2.94,6.44-5.78,12.99-7.72,19.8-2.41,8.42-3.81,17.13-4.83,25.84-.74,6.32-.94,12.71-.9,19.07.02,3.9.37,7.79.7,11.68.3,3.51,1.15,10.52,1.15,10.52"/>
      <path id="path3331-1" class="cls-3" d="M314.9,262.49l-2.74,4.38c4.15,4.46,7.55,9.6,9.5,15.27,2.62,7.59,3.6,15.99,2.57,23.96-.92,7.11-3.6,14.19-7.68,20.09-4.25,6.15-10.77,10.45-16.77,14.91-2.78,2.07-7.27,4.3-8.86,5.46l-.16,5.03c5.16-2.66,13.15-7.11,18.73-11.99,5.38-4.71,10.55-10.04,13.83-16.4,3.65-7.08,5.65-15.19,5.94-23.15.24-6.34-1.16-12.78-3.35-18.73-2.51-6.82-5.11-12.14-11.01-18.83h0Z"/>
      <path id="path3331-1-7" class="cls-3" d="M302.85,284.77c2,2.53,3.23,5.77,3.93,8.96.84,3.84.9,7.92.23,11.79-.59,3.39-1.84,6.74-3.68,9.65-2.04,3.23-4.92,5.91-7.9,8.28-1.13.9-2.89,1.59-3.72,2.2l-.47,5.13c2.67-1.37,6.82-3.5,9.6-6.06,2.96-2.72,5.45-6.03,7.27-9.61,1.9-3.76,3.18-7.92,3.6-12.1.37-3.58.06-7.29-.92-10.75-1.21-4.24-3.13-7.99-5.98-11.78l-1.95,4.3Z"/>
      <path id="path3342" class="cls-14" d="M225.68,289.46l59.79-58.44"/>
      <path id="path3344" class="cls-18" d="M231.62,314.12l48.84-48.39-4.56,15.98-43.37,42.92-.9-10.5Z"/>
      <path id="path3346" class="cls-14" d="M367.63,282.16l.46,82.63"/>
      <path id="path3348" class="cls-14" d="M374.02,289.46l.46,74.42"/>
      <rect id="rect3350" class="cls-20" x="379.91" y="355.66" width="10.95" height="3.65"/>
      <rect id="rect3350-1" class="cls-20" x="379.91" y="347.68" width="10.95" height="3.65"/>
      <rect id="rect3350-7" class="cls-20" x="379.91" y="339.7" width="10.95" height="3.65"/>
      <rect id="rect3350-4" class="cls-20" x="379.91" y="331.72" width="10.95" height="3.65"/>
      <rect id="rect3350-0" class="cls-20" x="379.91" y="323.74" width="10.95" height="3.65"/>
      <rect id="rect3350-9" class="cls-20" x="379.91" y="315.75" width="10.95" height="3.65"/>
      <rect id="rect3350-48" class="cls-20" x="379.91" y="307.77" width="10.95" height="3.65"/>
      <g id="g3455">
        <path id="path3412" class="cls-14" d="M325.87,404.06c-1.58,2.48-4.32,4.23-7.07,5.25-4.08,1.51-8.66.76-13.01.91-3.57.13-7.19.52-10.73,0-1.57-.23-3.46-.23-4.56-1.37-.61-.62-.87-1.66-.68-2.51.23-1.06.97-2.47,2.05-2.51,4.94-.2,14.83.23,14.83.23,0,0-11.59-.66-17.34-1.37-1.84-.23-3.95.13-5.48-.91-.73-.5-1.43-1.4-1.37-2.28.07-.97,1-1.76,1.83-2.28,1.12-.71,2.55-1,3.88-.91,5.61.37,16.89.68,16.89.68,0,0-12.69-.43-19.17-.46-1.48,0-3.08-.14-4.34-.91-.83-.51-1.78-1.31-1.83-2.28-.04-.82.73-1.54,1.37-2.05.95-.77,2.19-1.39,3.42-1.37,7.31.12,19.67.29,19.63.23,0,0-12.02-.21-18.03-.68-1.03-.08-1.99-.93-2.51-1.83-.35-.6-.49-1.42-.23-2.05.44-1.1,1.37-2.31,2.74-2.28,3.61.08,20.09.49,20.08.23,0,0-10.32.39-15.29-.49-.9-.16-1.85-1.2-1.76-2.12.1-1.04,1.46-1.61,2.45-1.96,1.79-.63,3.81.19,5.71,0,3.86-.38,7.54-2.09,11.41-2.28,3.05-.15,6.23-.07,9.13.91,2.2.74,4.19,2.11,5.93,3.65,1.09.97,2.19,2.07,2.74,3.42.89,2.2.57,4.71.68,7.08.09,1.9.19,3.81,0,5.71-.23,2.24-.16,4.72-1.37,6.62h0Z"/>
        <path id="path3414" class="cls-14" d="M296.74,379.6s.45.71.52,1.69c.07,1.01-.39,2.01-.39,2.01"/>
        <path id="path3414-2" class="cls-14" d="M290.76,384.24s.45.92.52,2.19c.07,1.31-.39,2.62-.39,2.62"/>
        <path id="path3414-4" class="cls-14" d="M286.86,390.48s.85,1.07.97,2.55c.13,1.52-.73,3.04-.73,3.04"/>
        <path id="path3414-5" class="cls-14" d="M289.13,396.98s.9,1.01,1.03,2.4c.13,1.43-.77,2.86-.77,2.86"/>
        <path id="path3414-51" class="cls-14" d="M297.25,404.46s.57.93.65,2.22c.08,1.32-.49,2.65-.49,2.65"/>
      </g>
      <path id="path3467" class="cls-14" d="M351.51,364.71l47.56.26"/>
      <path id="path3481" class="cls-14" d="M230.26,308l3.72-3.72-7.59-8.98,7.89-6.97,3.72,4.34-3.56,3.41,3.87,3.56,7.89-6.66-7.74-8.67,8.51-7.59,3.56,3.56-2.94,4.03,3.1,3.25,8.05-7.9-7.74-7.74,8.51-8.36,4.02,4.18-3.56,4.34,3.72,3.25,7.89-7.43-8.05-8.52,8.67-7.9,3.56,3.87-3.72,3.72,4.33,4.49,8.67-9.45-8.2-7.9,7.74-7.43,3.41,3.87-3.41,3.25,2.32,2.48"/>
      <g id="g4266">
        <path id="path3465" class="cls-3" d="M333.58,380.7s4.76-2.9,6.89-4.68c2-1.67,3.7-3.67,5.46-5.59,1.7-1.86,4.94-5.72,4.94-5.72,0,0,1.8,3.81,2.21,5.85.5,2.51.78,5.17.26,7.67-.47,2.26-2.99,6.24-2.99,6.24,0,0,3.4,1.36,4.94,2.34,1.9,1.21,4.24,2.26,5.2,4.29.33.71.31,1.62,0,2.34-.57,1.32-2,2.08-3.12,2.99-1.51,1.22-3.11,2.33-4.81,3.25-1.07.58-3.38,1.43-3.38,1.43,0,0,1.52,4.09,1.69,6.24.22,2.78-.33,5.59-.91,8.32-.38,1.77-1.67,5.15-1.67,5.15,0,0-1.09-4.79-2.36-6.84-1.37-2.22-3.44-3.94-5.46-5.59-2.11-1.72-6.89-4.42-6.89-4.42,0,0,.48-4.24.52-6.37.05-2.91-.3-5.8-.39-8.71-.08-2.73-.13-8.19-.13-8.19h0Z"/>
        <path id="path4257" class="cls-14" d="M335.03,384.73s5.29.32,7.75,1.22c3.5,1.28,9.57,5.78,9.57,5.78,0,0-4.99,5.16-8.21,6.54-3.1,1.33-10.03,1.37-10.03,1.37"/>
        <path id="path4259" class="cls-14" d="M334.58,389.59c3.24-.25,6.33,1.01,9.72,2.58-2.99,2.53-6.58,3.09-10.33,3.34"/>
        <path id="path4261" class="cls-14" d="M351.14,365.12l-2.28,8.51-3.04,6.99-2.73,5.02"/>
        <path id="path4264" class="cls-14" d="M340.96,399.32s2.99,3.59,4.1,5.62c1.14,2.1,2.02,4.36,2.58,6.69.67,2.77.91,8.51.91,8.51"/>
      </g>
      <path id="path3463" class="cls-3" d="M326.17,382.39s.45-1.51,1.04-1.95c.81-.62,2-.91,2.99-.65,1.45.38,2.7,1.65,3.38,2.99,1.14,2.24.62,5,.72,7.52.11,2.74.08,5.48-.13,8.21-.13,1.74.25,3.74-.72,5.2-.61.92-1.76,1.55-2.86,1.69-1.52.19-4.42-1.3-4.42-1.3.95-6.88,2.19-13.65,0-21.71h0Z"/>
      <circle id="path4293" class="cls-1" cx="331.45" cy="442.26" r="2.5"/>
      <circle id="path4293-1" class="cls-1" cx="339.89" cy="437.32" r="2.5"/>
      <circle id="path4293-15" class="cls-1" cx="347.79" cy="432.91" r="2.5"/>
      <circle id="path4293-2" class="cls-1" cx="355.39" cy="428.35" r="2.5"/>
      <circle id="path4293-7" class="cls-1" cx="362.84" cy="423.03" r="2.5"/>
      <circle id="path4293-6" class="cls-1" cx="370.74" cy="417.26" r="2.5"/>
      <circle id="path4293-14" class="cls-1" cx="378.03" cy="410.87" r="2.5"/>
      <circle id="path4293-23" class="cls-1" cx="385.48" cy="404.79" r="2.5"/>
      <circle id="path4293-22" class="cls-1" cx="392.47" cy="397.65" r="2.5"/>
      <circle id="path4293-16" class="cls-1" cx="394.44" cy="416.5" r="2.5"/>
      <circle id="path4293-8" class="cls-1" cx="387" cy="422.88" r="2.5"/>
      <circle id="path4293-5" class="cls-1" cx="380.16" cy="428.81" r="2.5"/>
      <circle id="path4293-76" class="cls-1" cx="372.71" cy="434.73" r="2.5"/>
      <circle id="path4293-18" class="cls-1" cx="364.66" cy="440.51" r="2.5"/>
      <circle id="path4293-9" class="cls-1" cx="356.76" cy="445.22" r="2.5"/>
      <circle id="path4293-27" class="cls-1" cx="348.71" cy="450.08" r="2.5"/>
      <circle id="path4293-95" class="cls-1" cx="340.5" cy="455.4" r="2.5"/>
      <path id="path4418" class="cls-1" d="M320.39,257.05s1.37,1.59,2.28,2.05c2.98,1.51,7.84-.64,9.81,2.05,3.07,4.2-3.52,10.69-1.6,15.52,1.6,4.01,8.89,4.23,9.81,8.45,1.02,4.66-5.92,8.24-5.93,13.01-.01,5.01,7.35,8.83,6.16,13.7-.99,4.05-7.85,4.08-9.81,7.76-2.76,5.19,2.35,13.03-1.37,17.58-2.45,3-8.34.56-11.18,3.2-3.52,3.25-1.04,10.8-5.02,13.47-3.73,2.5-9.45-2.47-13.46-.46-3.81,1.91-7.3,10.5-7.3,10.5l-.46-4.57s2.96-7.78,6.39-9.36c3.82-1.76,8.99,3.61,12.55,1.37,4.24-2.66,1.43-10.67,5.02-14.15,2.7-2.61,8.49-.41,10.73-3.42,2.9-3.91-1.81-10.19.23-14.61,1.83-3.97,8.9-4.4,9.81-8.67.96-4.5-5.79-7.96-5.71-12.55.08-4.25,6.56-7.25,5.71-11.41-.8-3.91-7.62-4.06-9.13-7.76-1.84-4.53,4.16-10.59,1.37-14.61-1.84-2.65-6.61-.81-9.36-2.51-.73-.45-1.71-1.94-1.71-1.94l2.17-2.63Z"/>
      <path id="path4420-4" d="M305.15,280.14l6.66-12.63,7.22,9.03,3.37,10.12,2.02,9.95-.16,10.39-3.41,12.59-5.85,8.22-7.33,6.75-7.44,6.25-9.15,5.42.03-15.24,7.13-3.55,6.52-6.08,5.09-7.77,2.08-9.08.4-7.03-2.02-7.91-3.1-6.59-2.05-2.87Z"/>
      <path id="path4441" class="cls-1" d="M310.28,283.44l1.13-6.93,6.78,3.68-.99,7.21-6.92-3.96Z"/>
      <path id="path4441-3" class="cls-1" d="M314.04,299.74l4.59-5.31,3.86,6.68-4.61,5.63-3.83-7Z"/>
      <path id="path4441-1" class="cls-1" d="M310.25,315.26l6.91-1.24-1.21,7.62-7.13,1.46,1.43-7.85Z"/>
      <path id="path4441-2" class="cls-1" d="M302.45,336.75l-7.02-.08,2.62-7.26,7.27-.1-2.87,7.44Z"/>
      <path id="path4475" d="M292.19,325.28l2.12-15.12,3.39-12.44,5.37-12.44,3.96,9.75.14,9.47-3.11,9.75-4.66,5.8-7.21,5.23Z"/>
      <path id="path4501" class="cls-14" d="M351.66,410.83s6.02-1.95,8.99-3.05c3.85-1.42,11.42-4.57,11.42-4.57"/>
    </g>
    <g id="g4947-7">
      <g id="g4503-6">
        <path id="path4487-3" class="cls-1" d="M148.64,289.63l-17.67,5.33-13.4,10.36-9.44,9.14-7.77,7.77-.3,12.49,48.43.3-2.28-6.55.46-6.25,2.44-6.55-5.33-3.05-4.42-3.66v-2.89l3.96-3.5,7.46-3.81-1.98-5.18-.15-3.96Z"/>
        <path id="path4489-6" class="cls-14" d="M139.66,334.73s1.66-2.58,2.74-3.66,3.66-2.74,3.66-2.74"/>
        <path id="path4491-1" class="cls-14" d="M129.45,334.73s5.74-5.5,8.99-7.77c2.48-1.73,7.92-4.42,7.92-4.42"/>
        <path id="path4493-5" class="cls-14" d="M148.34,315.53s-7.27,2.72-10.66,4.57c-3.44,1.87-6.71,4.08-9.75,6.55-2.92,2.38-8.07,7.92-8.07,7.92"/>
        <path id="path4495-4" class="cls-14" d="M110.41,334.73s5.23-6.15,8.22-8.84c3.21-2.89,6.7-5.47,10.36-7.77,3.83-2.41,12.03-6.25,12.03-6.25"/>
        <path id="path4497-2" class="cls-14" d="M100.82,333.51s8.15-8.63,12.64-12.49c3.94-3.38,8.04-6.63,12.49-9.29,4.81-2.88,15.23-7.16,15.23-7.16"/>
        <path id="path4499-0" class="cls-14" d="M149.1,295.42s-9.58,2.67-14.16,4.57c-4.01,1.66-7.82,3.77-11.58,5.94-3.88,2.24-7.74,4.56-11.27,7.31-4.1,3.21-11.42,10.66-11.42,10.66"/>
      </g>
      <path id="path4485-9" class="cls-1" d="M131.89,294.05l16.91-5.33,1.98-9.45-10.2,7.31-8.68,7.47Z"/>
      <path id="path4483-7" class="cls-1" d="M194.18,289.33l-10.51.15-4.57,2.13-5.33,4.11-3.5-1.37-3.81,1.52-5.33-3.35-5.94-4.88-2.89-5.94-.3-2.74,11.73-7.16,16.45-7.62,8.83,13.56,5.18,11.58Z"/>
      <path id="path4481-3" class="cls-20" d="M206.83,325.28l-1.07-3.5-5.94-.3-7.16,1.98-6.7-.3-7.01-1.68-4.87-4.42-1.52,2.89-3.2.15-3.5-1.83.15,33.52,11.88-11.58,6.85-4.11,10.51-5.79,11.58-5.03Z"/>
      <path id="path4479-7" class="cls-1" d="M154.13,433.9l-8.53-2.13-13.71-14.17.61-81.81,16.6-.61,4.11-4.72,5.03-5.64,8.53-5.94-.3,31.84-9.29,12.19-5.33,13.25-3.66,17.06-.15,17.22,3.5,15.69,2.59,7.77Z"/>
      <path id="path4477-2" class="cls-20" d="M138.9,432.38l-7.31,1.37-6.7,3.05-7.92-4.11-8.07-1.98-8.38-1.22v-35.8l38.38,38.7Z"/>
      <rect id="rect3350-8-6" class="cls-20" x="109.14" y="396.56" width="10.95" height="3.65"/>
      <path id="path4420-0" d="M184.63,437.47l-12.1,14.84-9.58-12.1-6.62-16.66-2.97-15.52.23-16.21,5.02-19.63,7.99-13.92,11.41-11.19,10.95-7.99,18.26-8.45,1.83,17.81-12.78,7.3-14.38,13.01-7.07,12.78-4.11,14.15.46,10.96,2.97,12.33,4.56,10.27,5.93,8.22Z"/>
      <path id="path4273-7-1" d="M167.32,246.28l-12.52,5.78-14.68,9.13-10.07,7.74-9.93,7.73-10.91,9.42-9.19,8.28-.03-12.37,16.36-13.63,12.44-9.67,10.77-7.47,10.07-5.67,12.04-7.12,5.65,7.84Z"/>
      <path id="path4273-6" d="M176.52,258.88l-16.41,8.36-15.95,10.03-10.94,8.51-10.79,8.06-11.85,10.79-10.18,9.27.15-11.55,17.78-16.41,13.52-11.4,11.7-8.21,10.94-6.23,16.71-8.66,5.32,7.45Z"/>
      <path id="path3469-5" class="cls-3" d="M180.05,264.01s-10.31,4.55-15.29,7.17c-4.26,2.25-8.41,4.7-12.45,7.32-5.95,3.86-11.7,8.02-17.31,12.37-5.29,4.1-10.42,8.41-15.38,12.91-6.78,6.16-19.59,19.26-19.59,19.26v-8.86s13.24-12.31,20.13-18.16c5.41-4.59,10.94-9.04,16.63-13.26,4.98-3.69,10.05-7.28,15.33-10.53,3.91-2.41,8.02-4.48,12.09-6.63,4.13-2.18,12.48-6.37,12.48-6.37l3.36,4.77Z"/>
      <path id="path4255-7" class="cls-1" d="M266.81,367.85l-33.76.31-.93,9.6-2.17,14.25-2.01,10.37-4.33,15.48,43.96-42.27-.76-7.74Z"/>
      <path id="path4253-5" class="cls-1" d="M295.13,464.93l-6.19-15.17-6.5-15.48-3.87-10.53-2.17-6.97-45.51,42.89,6.5-.62,8.36,2.17,5.42,3.41,3.72,6.19,3.25,8.21h2.17l.77-5.26,4.02-5.42,5.73-1.39,4.18-2.79,5.73.77,3.56-2.01h5.42l4.18,2.32,1.24-.31Z"/>
      <path id="path3483-4" class="cls-1" d="M268.66,386.43l1.7,6.19,2.79,12.7,2.63,11.15-56.5,54.35-4.49-1.55-5.11,1.55-3.1,2.17-3.56-2.32,9.13-19.82,6.97-17.34,49.54-47.07Z"/>
      <g id="g4904-1">
        <path id="path4512-13-7-4-20" class="cls-20" d="M218.02,291.91l-9.91-11.03.71,10.46s1.11,1.97,1.92,2.73c1.15-.1,3.36,2.05,3.36,2.05,0,0,.1-2.89,1.05-3.75.72-.65,2.86-.46,2.86-.46h0Z"/>
        <path id="path4512-13-7-4-7-9-0" class="cls-20" d="M174.25,226.75l1.07,6.7s1.5-2.16,2.67-2.36c1.48-.25,4.16,1.71,4.16,1.71,0,0-.38-3.23.56-4.35.71-.85,3.17-1,3.17-1l-5.84-3.59"/>
        <path id="path3338-1" class="cls-14" d="M202.61,469.78s7.48-13.33,10.61-20.3c3.02-6.75,5.57-13.72,7.84-20.76,3.08-9.55,5.79-19.24,7.84-29.06,1.49-7.15,2.5-14.41,3.23-21.68.9-9.04,1.29-18.13,1.38-27.22.05-5.08.04-10.17-.46-15.22-1.27-12.88-3.7-25.64-6.46-38.29-2.27-10.42-4.86-20.81-8.3-30.91-2.58-7.57-5.61-15.01-9.22-22.14-4.3-8.49-14.76-24.45-14.76-24.45,0,0-13.07,3.89-19.37,6.46-5.86,2.39-17.06,8.3-17.06,8.3,0,0,7.91,9.05,11.53,13.84,3.94,5.2,7.48,10.69,11.07,16.14,2.69,4.1,5.47,8.16,7.84,12.45,2.23,4.03,6,12.45,6,12.45"/>
        <path id="path4512-4" class="cls-20" d="M204.03,445.69l-12.78,10.96,2.05-16.66s1.56,2.12,2.74,2.28c1.48.21,4.11-1.83,4.11-1.83,0,0-.29,3.24.68,4.34.73.83,3.19.91,3.19.91h0Z"/>
        <path id="path4512-3-6" class="cls-20" d="M190.16,467.82l-8.29,5.06-3.87-.77,3.09-10.02s1.23,1.96,2.26,2.18c1.3.28,3.76-1.3,3.76-1.3,0,0-.48,2.8.29,3.82.59.77,2.76,1.02,2.76,1.02h0Z"/>
        <path id="path4512-34-0" class="cls-20" d="M214.33,422.48l-11.8,12,.63-16.78s1.74,1.98,2.92,2.04c1.5.08,3.94-2.17,3.94-2.17,0,0,0,3.25,1.05,4.26.8.76,3.26.64,3.26.64Z"/>
        <path id="path4512-1-7" class="cls-20" d="M221.92,397.86l-9.19,13.62-2.71-16s2.09,1.54,3.27,1.37c1.48-.21,3.43-2.81,3.43-2.81,0,0,.64,3.08,1.88,3.83.94.57,3.32-.02,3.32-.02Z"/>
        <path id="path4512-13-1" class="cls-20" d="M225.87,372.83l-8.17,14.72-3.87-16.34s2.2,1.44,3.36,1.19c1.46-.32,3.22-3.14,3.22-3.14,0,0,.86,3.14,2.15,3.83.98.52,3.31-.26,3.31-.26h0Z"/>
        <path id="path4512-13-8-7" class="cls-20" d="M226.37,348.81l-5.58,14.01-6.56-13.63s2.41.93,3.51.53c1.39-.5,2.64-3.21,2.64-3.21,0,0,1.37,2.6,2.76,3.01,1.05.31,3.22-.71,3.22-.71h0Z"/>
        <path id="path4512-13-7-7" class="cls-20" d="M225.78,337.72l-8.17-13.71-3.87,15.22s2.2-1.34,3.36-1.11c1.46.3,3.22,2.93,3.22,2.93,0,0,.86-2.92,2.15-3.57.98-.49,3.31.24,3.31.24h0Z"/>
        <path id="path4512-13-7-4-2-7" class="cls-20" d="M209.49,269.28l-13.27-10.36,2.82,16.55s1.46-2.19,2.63-2.41c1.47-.27,4.19,1.63,4.19,1.63,0,0-.43-3.22.48-4.36.7-.86,3.15-1.06,3.15-1.06h0Z"/>
        <path id="path4512-13-7-4-7-7" class="cls-20" d="M197.36,247.06l-11.39-9.51,2.2,14.91s1.31-1.94,2.33-2.12c1.29-.22,3.62,1.54,3.62,1.54,0,0-.33-2.9.49-3.91.62-.76,2.76-.9,2.76-.9Z"/>
        <circle id="path4293-3-3" class="cls-20" cx="198.03" cy="458.74" r="2.5"/>
        <circle id="path4293-3-1-359" class="cls-20" cx="189.13" cy="460.15" r="2.5"/>
        <circle id="path4293-3-1-9-9" class="cls-20" cx="184.45" cy="452.03" r="2.5"/>
        <circle id="path4293-3-1-8-8" class="cls-20" cx="210.04" cy="437.82" r="2.5"/>
        <circle id="path4293-3-1-6-1" class="cls-20" cx="201.46" cy="438.13" r="2.5"/>
        <circle id="path4293-3-1-5-8" class="cls-20" cx="196.78" cy="429.86" r="2.5"/>
        <circle id="path4293-3-1-0-2" class="cls-20" cx="211.61" cy="414.87" r="2.5"/>
        <circle id="path4293-3-1-2-6" class="cls-20" cx="218.79" cy="411.91" r="2.5"/>
        <circle id="path4293-3-1-86-6" class="cls-20" cx="206.14" cy="407.85" r="2.5"/>
        <circle id="path4293-3-1-02-0" class="cls-20" cx="217.22" cy="390.83" r="2.5"/>
        <circle id="path4293-3-1-4-3" class="cls-20" cx="211.61" cy="383.96" r="2.5"/>
        <circle id="path4293-3-1-865-8" class="cls-20" cx="224.09" cy="388.02" r="2.5"/>
        <circle id="path4293-3-1-09-0" class="cls-20" cx="228.15" cy="359.92" r="2.5"/>
        <circle id="path4293-3-1-00-1" class="cls-20" cx="220.5" cy="366.32" r="2.5"/>
        <circle id="path4293-3-1-61-2" class="cls-20" cx="214.1" cy="360.54" r="2.5"/>
        <circle id="path4293-3-1-3-5" class="cls-20" cx="220.81" cy="343.84" r="2.5"/>
        <circle id="path4293-3-1-89-0" class="cls-20" cx="217.69" cy="321.05" r="2.5"/>
        <circle id="path4293-3-1-34-9" class="cls-20" cx="211.76" cy="328.38" r="2.5"/>
        <circle id="path4293-3-1-46-4" class="cls-20" cx="225.18" cy="326.04" r="2.5"/>
        <circle id="path4293-3-1-06-7" class="cls-20" cx="222.22" cy="300.44" r="2.5"/>
        <circle id="path4293-3-1-618-8" class="cls-20" cx="214.73" cy="279.36" r="2.5"/>
        <circle id="path4293-3-1-49-3" class="cls-20" cx="206.3" cy="277.49" r="2.5"/>
        <circle id="path4293-3-1-63-5" class="cls-20" cx="200.21" cy="283.11" r="2.5"/>
        <circle id="path4293-3-1-7-1" class="cls-20" cx="191.16" cy="264.84" r="2.5"/>
        <circle id="path4293-3-1-88-2" class="cls-20" cx="195.84" cy="255.48" r="2.5"/>
        <circle id="path4293-3-1-29-0" class="cls-20" cx="205.21" cy="257.51" r="2.5"/>
        <circle id="path4293-3-1-1-1" class="cls-20" cx="191.78" cy="233.78" r="2.5"/>
        <circle id="path4293-3-1-35-6" class="cls-20" cx="184.14" cy="235.18" r="2.5"/>
        <circle id="path4293-3-1-98-4" class="cls-20" cx="178.99" cy="242.83" r="2.5"/>
      </g>
      <path id="path3340-0" class="cls-14" d="M276.14,416.93l-56.74,53.39"/>
      <path id="path4267-6" class="cls-13" d="M163.52,451.93s-2.42-4.98-4.38-6.82c-2.89-2.72-6.6-4.61-10.37-5.77-2.66-.81-5.53-.87-8.3-.71-2.74.16-5.5.67-8.07,1.65-2.69,1.03-7.49,4.35-7.49,4.35,0,0-4.65-3.62-7.25-4.96-2.62-1.35-5.45-2.32-8.31-3.04-2.39-.6-7.33-1.06-7.33-1.06v15.88l61.49.47Z"/>
      <path id="path4265-1" class="cls-18" d="M156.11,471.47l12.94-13.65-5.29-6-61.72-.47-.18,20.24,54.25-.12Z"/>
      <path id="path4243-7-8" class="cls-1" d="M128.93,485.31l9.65-12.74h-26.12c5.53,4.32,10.73,8.45,16.47,12.74Z"/>
      <path id="path4243-9" class="cls-1" d="M149.33,485.94l-10.08-13.48,29-.17c-5.78,4.57-12.92,9.1-18.92,13.65Z"/>
      <path id="path4263-8" class="cls-14" d="M176.82,471.88l-76.23-.06"/>
      <g id="g4132-4">
        <ellipse id="path4114-1" class="cls-6" cx="113.43" cy="544.45" rx="7.58" ry="8.55"/>
        <path id="path3343-4" class="cls-6" d="M153.82,558.29s-3.1.15-4.17,1.11c-1.15,1.03-1.86,2.78-1.67,4.31.18,1.42,1.33,2.66,2.5,3.48,1.1.78,2.56,1.3,3.89,1.11,2.1-.29,4.08-1.69,5.42-3.34,1.21-1.49,1.95-5.42,1.95-5.42l-.14-32.68s2.81.05,3.89-.7c1.25-.86,2.34-2.38,2.36-3.89.02-1.6-1.17-3.11-2.36-4.17-1.16-1.03-2.76-1.95-4.31-1.81-1.77.16-3.22,1.64-4.45,2.92-1.05,1.09-1.93,2.44-2.36,3.89-.41,1.38-.14,4.31-.14,4.31l-.42,30.88Z"/>
        <path id="path4116-3" class="cls-16" d="M113.36,548.14s-2.2-.3-2.64-2.64c-.28-1.47.89-3.7,2.22-3.89,3.9-.56,4.45,2.64,4.45,2.64"/>
        <path id="path4118-9" class="cls-6" d="M188.58,553.7l-26.7-.14"/>
        <path id="path4120-8" class="cls-6" d="M161.75,532.84h28.5"/>
        <path id="path4122-8" class="cls-6" d="M178.43,553.28l.14-20.17"/>
        <rect id="rect4124-0" class="cls-15" x="166.34" y="538.4" width="6.54" height="9.46"/>
        <path id="path4126-8" class="cls-15" d="M179.54,543.41l14.46.14"/>
        <path id="path4128-7" class="cls-15" d="M191.5,548.27h-12.65"/>
        <path id="path4130-7" class="cls-15" d="M192.06,537.84l-13.07-.14"/>
      </g>
      <path id="path3475-8" class="cls-3" d="M167.85,246.14s-11.93,6.05-17.68,9.47c-5.3,3.15-10.44,6.57-15.46,10.14-5.63,4.01-11.11,8.23-16.42,12.65-6.29,5.25-18.26,16.47-18.26,16.47v8.15s11.47-10.84,17.4-16.05c5.59-4.91,11.18-9.83,17.11-14.32,5.08-3.85,10.3-7.53,15.77-10.79,6.82-4.07,21.18-10.9,21.18-10.9l-3.64-4.81Z"/>
      <path id="path3479-3" class="cls-3" d="M157.89,234.48s-6.23,3.06-9.27,4.74c-5.12,2.83-10.17,5.79-15.07,8.97-5.51,3.56-10.9,7.32-16.11,11.31-5.99,4.59-17.4,14.5-17.4,14.5v8s11.22-10.29,17.13-15.07c5.11-4.13,10.43-8.01,15.86-11.72,5.5-3.76,11.14-7.3,16.89-10.66,3.75-2.19,11.46-6.18,11.46-6.18l-3.49-3.9Z"/>
      <g id="g4147-8">
        <path id="path4087-3" class="cls-7" d="M252.72,539.53c-2.23.84-4.19,1.1-6.34,1.3-2.72.26-5.48.21-8.18-.12-2.98-.36-6.05-.82-8.76-2.04-1.23-.55-3.26-2.32-3.26-2.32,0,0,5.55,2.4,8.51,3.01,2.29.47,4.67.54,7.01.46,2.67-.09,5.31-.66,7.96-1.05,2.19-.32,3.86-.3,6.56-1.07l-3.51,1.81Z"/>
        <path id="path4089-7" class="cls-7" d="M256.21,529.13s-2,2.25-3.21,3.13c-1.45,1.06-3.05,1.98-4.76,2.53-1.43.46-2.97.55-4.48.59-1.69.05-3.42.05-5.05-.35-2.21-.54-4.25-1.62-6.2-2.72-1.69-.95-3.39-1.94-4.73-3.31-.73-.75-1.74-2.61-1.74-2.61,0,0,3.42,1.07,5.12,1.6,2.79.87,5.49,2.06,8.38,2.6,1.59.3,3.23.35,4.86.35,1.55,0,3.09-.17,4.63-.33.58-.06,1.15-.13,1.72-.23,1.83-.33,5.45-1.26,5.45-1.26h0Z"/>
        <path id="path4091-1" class="cls-7" d="M229.81,525.81s5.3-1.6,7.65-2.89c1.27-.7,2.81-.81,4.26-.89,2.18-.12,4.46-.02,6.52.65,1.24.4,2.26,1.23,3.33,1.95,1.4.95,4,3.14,4,3.14,0,0-3.89.93-5.86,1.3-1.58.3-3.17.71-4.78.75-2.03.06-4.07-.23-6.06-.62-3.62-.7-10.62-3.08-10.62-3.08l1.55-.31Z"/>
        <ellipse id="path4093-0" class="cls-12" cx="243.51" cy="525.52" rx="5.11" ry="3.19"/>
        <ellipse id="path4095-7" class="cls-11" cx="243.83" cy="526.26" rx="1.85" ry="1.33"/>
        <path id="path4097-3" class="cls-11" d="M288.42,534.96s-.31-.11-1.29,1.61c-.89,1.57-2.25,1.67-3.55,2.11-2.05.7-4.29,1.01-6.44.81-1.78-.16-3.61-.65-5.12-1.62-1.49-.96-2.84-2.43-3.57-3.95,1.48.72,2.36,1.84,3.67,2.54,1.49.79,3.04,1.59,4.71,1.84,2.43.36,5.01.22,7.34-.57,1.6-.54,4.25-2.78,4.25-2.78h0Z"/>
        <path id="path4099-4" class="cls-7" d="M266.98,532.14c.01-1.88.28-4.55.58-6.8.3-2.2.83-4.36,1.23-6.54.36-1.97.69-3.95,1.04-5.93.33-1.87,1.01-3.72,1-5.62,0-.93.05-2-.51-2.75-1.03-1.36-3.01-1.61-4.57-2.29-.82-.36-1.93-.32-2.5-.95"/>
        <path id="path4103-9" class="cls-7" d="M256.23,509.76c-1.2.41-2.33-.7-2.94-1.58-.46-.65-.49-1.57-.26-2.32.32-1.08,1.09-2.18,2.16-2.69,1.22-.59,2.84-.53,4.14-.11.98.31,1.48,1.38,2.39,1.85,1.15.59,2.48.82,3.75,1.13"/>
        <path id="path4113-6" class="cls-11" d="M250.08,492.92s2.52.67,3.79.99c1.18.3,2.33.88,3.55.88,1.35,0,2.59-.73,3.91-.99,1.09-.21,2.23-.66,3.32-.44.78.16,1.22,1.1,2.01,1.21,1.14.16,2.27-.43,3.32-.88.65-.28,1.78-1.1,1.78-1.1,0,0-1.76.83-2.72.88-1.25.07-2.42-.65-3.67-.77-1.57-.14-3.17-.05-4.74.11-1.04.1-2.05.4-3.08.55-1.02.15-2.05.4-3.08.33-1.06-.07-2.03-.64-3.08-.77-.43-.05-1.3,0-1.3,0Z"/>
        <path id="path4115-5" class="cls-7" d="M256.95,487.08s2.15-1.02,3.32-1.21c1.05-.17,2.16-.12,3.2.11,1.18.26,3.32,1.42,3.32,1.42"/>
        <path id="path4117-1" class="cls-7" d="M268.43,529.56s2.91,2.16,4.54,2.93c1.42.67,2.92,1.32,4.5,1.42,1.44.09,2.88-.38,4.26-.77,1.1-.3,2.21-.64,3.2-1.21,1.17-.66,3.15-2.51,3.15-2.51"/>
        <g id="g7614-0">
          <path id="path4091-2-9" class="cls-7" d="M287.46,526.32s-2.91-2.47-4.63-3.29c-1.22-.58-2.55-.98-3.9-1.11-2.02-.2-4.14-.19-6.07.48-1.16.4-2.13,1.29-3.13,2.06-.71.55-2.01,1.81-2.01,1.81,0,0,2.41,1.31,3.66,1.84,1.25.53,2.51,1.15,3.83,1.35,1.93.3,3.93.23,5.82-.22,2.26-.54,6.41-2.92,6.41-2.92h0Z"/>
          <ellipse id="path4093-4-9" class="cls-9" cx="277.19" cy="525.76" rx="3.58" ry="4.75" transform="translate(-266.98 764.79) rotate(-85.91)"/>
          <ellipse id="path4095-5-6" class="cls-17" cx="276.88" cy="526.58" rx="1.49" ry="1.72" transform="translate(-276.75 744.4) rotate(-83.74)"/>
        </g>
        <path id="path4143-8" class="cls-7" d="M250.79,522.17l-7.24-7.01"/>
        <path id="path4145-3" class="cls-7" d="M269.74,520.75l5.79-7.12"/>
      </g>
      <path id="path3931-4" class="cls-5" d="M318.63,590l-30.18-39.99c-10.44,3.78-20.39,2.99-30.66,3.26-10.71.28-21.45-.52-32.1-1.71-10.56-1.18-21.83-2.94-31.41-5.37-10.94,16.16-24.68,27.65-35.63,43.8h159.98Z"/>
      <path id="path3933-7-8" d="M273.92,571.3c.73.38,1.07,2.13.6,3.07-.14.27-.52.47-.83.43-.89-.1-1.7-.9-1.94-1.71-.18-.58.49-1.14.49-1.74,0-.59-.1-1.25-.47-1.73-.74-.93-1.94-1.72-3.16-1.77-2.03-.08-4.59.82-5.49,2.51-.84,1.56.04,3.67,1.08,5.12.7.98,1.89,1.88,3.16,2,1.15.1,2.19-.72,3.19-1.27-.58,1.66-1.22,3.59-.49,5.2.7,1.54,2.46,2.66,4.18,3.19.72.22,1.52-.03,2.28-.11h0c1.36-.65,2.75-1.65,3.25-2.99.5-1.34-.05-2.89-.56-4.23-.39-1.03-1.18-1.89-1.88-2.77,1,.32,2.16.34,3.08-.08,1.74-.79,3.62-2.37,3.68-4.16.06-1.72-1.61-3.42-3.27-4.2-1.54-.72-3.7-.81-5.19.03-1.16.65-1.77,2.09-2.01,3.36-.12.62.32,1.86.32,1.86h0Z"/>
      <path id="path3933-7-4-0-9-4-0" d="M299.03,567.93c.05.68-.44.75-.3,1.57.14.81,1.49,1.18,2.32.99.29-.07.57-1.07.61-1.36l6.31,8.38c-.28.43-.76.84-1.1,1.2-.64.31-1.25.82-1.97.84-1.7.05-3.67-.44-4.82-1.67-1.2-1.28-1.29-3.29-1.35-5.04-.69.83-1.33,1.92-2.39,2.19-1.17.3-2.53-.17-3.49-.87-1.42-1.04-2.93-2.75-2.73-4.48.22-1.87,2.2-3.42,4.01-4.07,1.35-.48,2.92-.05,4.27.43"/>
      <path id="path4015-9" d="M232.26,564.42c2.13.04,4.18,1.3,5.79,2.78.85.79,1.04,2.22,1.85,3.07.37.39.91.24,1.32.87.2-3.11-.73-3.58-1.65-5.07-1.21-1.95-2.98-3.54-4.86-4.7-2.03-1.26-4.34-2.14-6.69-2.32-2.77-.21-5.63.43-8.26,1.5-1.79.73-3.53,1.81-4.9,3.27-.77.81-1.51,2.07-1.75,2.93,1.26-1.23,3.25-2.59,5.13-3.23,1.71-.59,3.63-1.01,5.32-.48,1.64.52,2.73,1.7,4.05,3.38,1.79-.72,3.01-2.02,4.66-1.99h0Z"/>
      <path id="path4015-4-9" d="M253.29,565.61c-2.17-.28-4.42.73-6.33,1.88-1.01.61-1.63,1.76-2.52,2.55-.42.37-.54,1.12-1.33,1.01.31-3.11,1.31-3.55,2.49-4.91,1.55-1.79,3.6-3.05,5.7-3.92,2.26-.94,4.76-1.46,7.17-1.29,2.84.21,5.65,1.27,8.15,2.73,1.7.99,3.38,2.22,4.45,3.97.57.94.79,2.36.9,3.24-1.08-1.41-2.59-3.13-4.28-4.05-1.62-.89-3.52-1.55-5.32-1.27-1.75.27-3.05,1.27-4.66,2.73-1.7-.98-2.73-2.45-4.41-2.67h0Z"/>
      <path id="path4015-4-8-2" d="M202.37,559.27c1.94.06,3.86,1.42,5.46,2.65.76.59,1.17,1.54,1.88,2.18.41.37.64.94,1.36.95-.02-2.9-1.02-2.93-1.92-4.18-1.27-1.75-2.86-3.36-4.74-4.43-1.74-.99-3.78-1.49-5.77-1.67-2.64-.25-5.44-.17-7.93.75-1.63.6-2.99,1.81-4.26,2.99-1.08,1-2.65,2.61-2.81,3.41,1.5-.52,2.47-1.83,5.58-3.52,1.42-.77,3.48-1.01,5.12-.52,1.62.48,2.6,1.62,3.92,3.19,1.58-.65,2.62-1.85,4.13-1.8h0Z"/>
      <path id="path4015-4-8-8-5-8" d="M288.3,562.09c1.79-.72,4.3-.41,6.22.5,1.15.55,1.85,1.8,2.7,2.77.55.63,1.88,3.23,1.54,1.97-.51-1.92-1.66-4.69-3.54-6.31-1.7-1.47-4.26-2.19-6.42-2.59-2.32-.43-4.7-.43-6.74.24-2.41.78-4.48,2.38-6.13,4.29-1.12,1.3-2.1,2.96-2.44,4.72-.19.98.04,2.15.27,3.02.58-2.14,1.03-3.78,2.36-5.06,1.1-1.06,2.67-1.7,4.23-1.75,1.75-.05,3.13.59,5.08,1.67,1.13-1.29,1.49-2.92,2.88-3.47h0Z"/>
      <path id="path4072-5" d="M190,553.58s4.85-1.26,7.34-1.29c2.81-.04,5.76.12,8.33,1.25,1.82.8,3.25,2.3,4.64,3.73.94.96,2.44,3.21,2.44,3.21,0,0,5.26-2.78,8.13-3.35,2.84-.57,5.82-.42,8.68-.01,2.75.39,5.57.99,7.98,2.35,1.94,1.1,4.93,4.52,4.93,4.52,0,0,4-4.14,6.6-5.12,2.52-.96,5.38-.67,8.06-.5,2.45.16,4.9.6,7.22,1.39,2.31.78,6.54,3.28,6.54,3.28,0,0,2.54-3.34,4.22-4.53,1.56-1.11,3.43-1.76,5.26-2.29,1.85-.53,3.79-1.04,5.7-.86,2.63.26,7.46,2.68,7.46,2.68l-5.67-7.02s-11.16,3.02-20.08,3.18c-5.78.1-14.21.13-21.31-.1-5.33-.17-10.65-.46-15.96-.93-4.58-.41-9.49-1.11-14.22-1.79-3.86-.56-7.73-1.14-11.56-1.9-3.35-.66-9.99-2.31-9.99-2.31l-4.73,6.42Z"/>
      <path id="path3933-7-4-0-9-6-3" d="M183.76,561.8c.59.48.2,1.12,0,1.93-.59.7-.98.94-1.79,1-.29-.08-.46-.54-.48-.83l-6.77,7.7c.26.44.55,1.1.87,1.48.62.35,1.2.89,1.91.96,1.7.15,3.7-.23,4.92-1.38,1.28-1.2,1.5-3.21,1.67-4.95.64.87,1.2,1.99,2.24,2.32,1.15.36,2.54-.02,3.54-.66,1.48-.95,3.11-2.57,3.01-4.31-.1-1.88-1.98-3.54-3.74-4.3-1.31-.56-2.92-.22-4.29.18"/>
      <path id="path3933-7-1-1-3" d="M210.97,566.38c-.73.38-1.07,2.13-.6,3.07.14.27.52.47.83.43.89-.1,1.7-.9,1.94-1.71.18-.58-.42-1.14-.49-1.74-.05-.42.06-1.26.06-1.26,1.16-.91,2.15-2.14,3.57-2.24,2.03-.13,4.59.82,5.49,2.51.84,1.56-.04,3.67-1.08,5.12-.7.98-1.89,1.88-3.16,2-1.15.1-2.19-.72-3.19-1.27.58,1.66,1.22,3.59.49,5.2-.7,1.54-2.46,2.66-4.18,3.19-.72.22-1.52-.03-2.28-.11h0c-1.36-.65-2.75-1.65-3.25-2.99-.5-1.34.05-2.89.56-4.23.39-1.03,1.18-1.89,1.88-2.77-1,.32-2.16.34-3.08-.08-1.74-.79-3.62-2.37-3.68-4.16-.06-1.72,1.61-3.42,3.27-4.2,1.54-.72,3.7-.81,5.19.03,1.25.7,1.38,2.3,2.15,3.62l-.46,1.6Z"/>
      <path id="path3933-7-3-3" d="M243.02,570.46c.6.54.46,2.32-.25,3.12-.2.23-.62.32-.92.21-.83-.32-1.37-1.29-1.42-2.13-.03-.53.57-.92.73-1.43.14-.44.22-1.37.22-1.37-.88-1.16-1.29-2.59-2.57-3.04-1.91-.67-4.65-.33-5.98,1.08-1.23,1.3-.94,3.55-.34,5.21.41,1.12,1.32,2.28,2.52,2.71,1.08.38,2.31-.16,3.42-.44-1.01,1.47-2.14,3.17-1.87,4.9.26,1.66,1.66,3.18,3.18,4.1.64.39,1.48.35,2.23.45h0c1.49-.3,3.11-.92,3.95-2.09.85-1.18.73-2.81.6-4.23-.11-1.09-.63-2.12-1.07-3.14.88.55,1.99.85,3,.68,1.9-.34,4.14-1.4,4.68-3.12.52-1.65-.63-3.7-2.03-4.87-1.3-1.08-3.36-1.69-5.02-1.24-1.4.37-1.95,1.88-3.05,2.97l.02,1.66Z"/>
      <g id="g7734-7">
        <path id="path4078-7-4" class="cls-15" d="M221.82,550.51c-6.22-16.27-12.51-33.89-18.48-49.2-3.34-8.58-2.97-21.22,3.41-28.24,2.69-2.96,8.21-4.45,11.74-2.56,3.87,2.07,6.83,8.37,4.81,12.27-1.77,3.41-7.91,4.74-11.18,2.75-2.14-1.31-2.07-5.12-1.75-7.33"/>
        <path id="path4075-4-3" class="cls-15" d="M226.71,550.83c-3.78-9.87-10.02-24.57-13.76-37.28-2.67-9.08-8.01-18.44-6.17-27.73.78-3.94,3.56-8.88,6.89-9.88,2.22-.64,3.53,1.31,3.92,3.23"/>
        <path id="path4081-0-8" class="cls-15" d="M216.94,550.31c-3.33-10.78-7.86-20.42-11.5-30.73-3.59-10.15-9.44-19.91-10.19-30.65-.34-4.91-.62-10.86,2.66-14.54,1.84-2.06,5.04-3.77,7.93-2.39"/>
        <path id="path4081-0-9-0" class="cls-15" d="M212.2,549.07c-3.33-10.4-8.4-21.63-12.53-32.48-3.61-9.49-9.83-18.39-10.71-28.51-.37-4.3-.49-9.52,2.4-12.71,1.85-2.05,5.04-3.64,7.93-2.3"/>
        <path id="path4081-0-9-4-8" class="cls-15" d="M206.78,548.43c-3.33-10.33-8.4-21.49-12.53-32.26-3.61-9.42-9.83-18.26-10.71-28.31-.37-4.27-.49-9.46,2.4-12.63,1.85-2.03,5.04-3.61,7.93-2.29"/>
        <path id="path4081-0-9-8-8" class="cls-15" d="M201.37,546.88c-3.33-10.08-8.4-20.97-12.53-31.49-3.61-9.2-9.83-17.83-10.71-27.64-.37-4.17-.49-9.24,2.4-12.33,1.85-1.98,5.04-3.53,7.93-2.23"/>
        <path id="path4081-0-9-82-0" class="cls-15" d="M195.93,546.05c-3.33-9.98-8.58-20.88-12.77-31.36-3.63-9.09-9.83-17.64-10.71-27.35-.37-4.12-.49-9.14,2.4-12.2,1.85-1.96,5.04-3.49,7.93-2.21"/>
      </g>
      <path id="path4427-6" class="cls-15" d="M232.76,471.24c-2.75.66-3.77-3.79-2.58-5.39,1.3-1.76,5.14-.72,6.49,1.01,1.81,2.32,1.45,6.83-.82,8.8-1.75,1.51-5,.96-7.06-.14-1.97-1.05-3.41-3.29-3.69-5.44-.39-2.97.47-6.76,3-8.49,4.96-3.4,13.16-3.53,18.27.11,4.37,3.11,6.35,5.24,8.52,8.66,1.65,2.6,2.76,7.63,3.2,8.67l2.49-.08c.78-5.67,1.06-6.7,3.29-8.98,1.92-1.95,4.4-2.64,7.65-2.96"/>
      <path id="path4430-8" class="cls-15" d="M252.56,478.79c-1.23-3.04-1.81-4.89-3.36-6.93-2.37-3.11-5.02-6.54-8.81-7.72-2.96-.92-6.6-.54-9.27.98"/>
      <path id="path4432-1" class="cls-15" d="M248.44,480.14c-1.23-2.73-2.56-5.96-4.9-8.06-1.47-1.32-3.38-3.23-5.36-2.51"/>
      <path id="path4434-9" class="cls-15" d="M244.56,481.91c-.97-2.31-1.53-3.28-2.73-4.6-1.21-1.33-2.98-2.75-4.37-3.19"/>
      <path id="path4436-8" class="cls-15" d="M240.36,484.13c-1.06-2.02-1.91-3.12-3.19-4.41-1.07-1.09-3.09-2.35-3.67-2.73"/>
      <path id="path4438-9" class="cls-15" d="M236.38,487.08c-2.01-3.72-4.47-7.2-7.43-9.72-1.56-1.33-4.09-2-5.25-2.67"/>
      <path id="path4440-7" class="cls-15" d="M232.28,489.74c-1.28-2.09-2.08-3.58-3.48-5.08-1.29-1.38-4.07-3.11-4.46-3.5"/>
      <path id="path4442-2" class="cls-15" d="M228.77,493.83c-.95-2.13-2.13-4.45-3.73-6.3-.83-.95-2.28-1.84-2.95-2.37"/>
      <path id="path4438-4-2" class="cls-15" d="M211.22,485.27c-.14,6.66,1.09,9.9,2.77,14.54,1.19,3.27,4.34,7.88,5.09,9.12"/>
      <path id="path4440-5-8" class="cls-15" d="M214.89,487.18c1.15,3.86,1.8,6.53,3.12,9.63,1.05,2.47,3.47,6.37,3.82,7.1"/>
      <path id="path4442-5-2" class="cls-15" d="M219.4,486.81c.79,3.29,1.82,6.25,3.09,8.86.7,1.45,1.89,2.85,2.44,3.66"/>
      <path id="path4427-1-8" class="cls-15" d="M302.69,493.24c-.86-1.76-4.29-.36-5.14,1.18-1.05,1.9.35,4.92,2.13,6.15,1.27.88,3.23.51,4.64-.14,1.49-.69,2.87-2.08,3.3-3.67.71-2.61.54-6.32-1.62-7.96-3.1-2.35-8.68-2.31-11.64.82-2.95,3.12-4.89,6.49-6.3,10.25-.78,2.07-.81,5.5-1.1,6.55"/>
      <path id="path4432-7-9" class="cls-15" d="M288.21,519.54c.97-6.11,1.3-11.29,3.54-16.43,1.48-3.41,4.1-8.64,6.37-9.16"/>
      <path id="path4427-1-1-0" class="cls-15" d="M306.58,489.45c-.17-2.79-1.88-5.15-4.09-6.37-2.68-1.47-6.53-1.6-9.17-.06-4.36,2.55-6.35,7.87-7.36,13.25"/>
      <path id="path4427-1-1-1-7" class="cls-15" d="M305.15,484.92c-.17-2.79-1.56-5.84-3.92-7.25-2.62-1.57-6.48-1.51-9.17-.06-4.15,2.23-6.7,6.46-7.71,11.84"/>
      <path id="path4427-1-1-5-8" class="cls-15" d="M301.97,477.85c-1.06-3.32-2.13-4.17-4.09-5.13-2.75-1.33-6.52-1.58-9.17-.06-4.36,2.5-6.53,7.7-7.54,13.08"/>
      <path id="path4427-1-1-5-2-1" class="cls-15" d="M298.75,473.18c-1.3-4.55-2.85-4.55-5.21-5.38-3.14-1.11-7.18-.67-9.91,1.23-3.98,2.78-6.39,7.48-6.65,12.95"/>
      <path id="path4427-1-1-5-2-7-5" class="cls-15" d="M296.01,468.7c-1.77-3.24-3.34-4.83-5.95-5.54-3.16-.85-6.96.2-9.59,2.16-4.17,3.11-7.36,7.94-7.64,13.6"/>
      <path id="path4427-1-1-5-2-7-6-8" class="cls-15" d="M280.1,464.29c-3.27-.14-6.07.52-8.18,2.44-3.18,2.89-5.09,5.47-4.84,11.94"/>
      <path id="path4423-6" class="cls-15" d="M288.01,520.67s.4-2.35.94-3.39c.68-1.34,1.61-2.61,2.81-3.51,1.22-.92,2.69-1.83,4.21-1.76,1.55.08,3.21.94,4.1,2.22.83,1.2.86,2.9.59,4.33-.25,1.32-.84,2.81-1.99,3.51-.9.55-2.19.52-3.16.12-.69-.29-1.21-.96-1.52-1.64-.32-.71-.23-2.34-.23-2.34,0,0-1.31,2.12-1.76,3.28-.58,1.5-.88,3.1-1.17,4.68-.24,1.28-.25,2.58-.47,3.86-.21,1.22-.82,3.63-.82,3.63"/>
      <path id="path8379-1" class="cls-15" d="M288.75,550.24c.53-8.89.46-17.82-.05-26.71-.42-7.25-1.47-14.45-2.45-21.64-.55-3.99-.73-8.04-1.92-11.93"/>
      <g id="g3845-1-2">
        <path id="path3810-7-4" class="cls-10" d="M145.12,524.01c1.72.56,3.34,1.59,4.81,2.79,1.08.87,2.28,1.78,2.86,3.13.67,1.55.36,3.41.48,5.12.18,2.66.97,5.44.35,7.99-.21.88-1.11,1.36-1.33,2.24-.46,1.82.58,3.92.15,5.75-.19.82-.54,1.71-1.17,2.15-.46.32-1.62.18-1.62.18,0,0,.6,2.8.02,3.89-.46.86-1.48,1.24-2.37,1.34-1.2.14-2.44-.44-3.54-1.04-.96-.53-1.83-1.29-2.55-2.19-.33-.42-.79-1.44-.79-1.44,0,0,1.19,2.9.74,4.21-.3.85-1.17,1.42-1.97,1.55-.85.14-1.69-.5-2.49-.89-1.15-.55-2.43-1-3.28-2.05-.89-1.1-1.63-4.08-1.63-4.08,0,0,.79,2.89.26,4.09-.35.78-1.2,1.24-1.97,1.37-1.06.17-2.21-.29-3.14-.93-.7-.48-1.28-1.23-1.67-2.04-.31-.66-.45-2.16-.45-2.16,0,0-.79,2.74-1.83,2.86-1.16.13-2.18-1.44-2.71-2.66-1.08-2.5.17-5.56-.35-8.27-.29-1.55-1.24-2.9-1.54-4.45-.46-2.37-.88-4.92-.36-7.25.39-1.76,1.37-3.33,2.5-4.58,1.33-1.46,3.12-2.3,4.83-3.14,1.74-.86,3.57-1.56,5.45-1.9,2.58-.47,5.23-.26,7.85-.18,1.21.04,2.42.2,3.64.31.94.08,1.91-.04,2.83.26h0Z"/>
        <path id="path3815-4-2" class="cls-10" d="M149.01,552.78c-2.02-1.73-3.69-4.38-3.59-7.35-.31-2.03.73-4,.32-5.92-.72-1.35-1.46-2.6-1.89-4.04-.4-1.31-.71-2.67-.63-4.07"/>
        <path id="path3817-0-5" class="cls-10" d="M140.17,553.74c-1.62-3.4-3.16-8.28-3.43-12.15,0-1.68-.04-3.99,1.56-4.71,1.26-.64,2.88.03,3.46,1.54,1.22,2.56,3.29,7.34,4.08,10.1"/>
        <path id="path3819-9-8" class="cls-10" d="M142.66,540.64c-.04,1.66-1.31,4.42-2.98,4.55-.58.2-1.19.18-1.8.17"/>
        <path id="path3821-4-6" class="cls-10" d="M131.93,552.88c-.63-4.26-1.59-9.25-.94-13.52.46-1.45.57-4.18,2.21-4.47,1.41-.25,2.6,1.53,3.11,2.95.13.55.23,3.54.25,4.1"/>
        <path id="path3823-88-2" class="cls-10" d="M136.4,542.4c-.74,1.62-2.02,1.79-3.28,1.98-.57.09-1.45-.34-1.69-.42"/>
        <path id="path3825-2-6" class="cls-10" d="M152.16,543.88c-1.23.36-2.87.93-2.9,2.68-.13,2.07.49,4.08,1.3,5.93"/>
        <path id="path3827-4-5" class="cls-10" d="M130.74,542.49c.38-2.48-.93-6.32-3.24-6.15-2.63.2-2.29,4.81-2.61,7.48-.1,2.58.36,5.19-.01,7.75-.05.57-.1,1.15-.16,1.72"/>
        <path id="path3829-5-3" class="cls-10" d="M124.84,543.57c-.59-2.08-1.8-3.1-3.19-2.83-1.34.25-1.69,2.56-1.87,3.64"/>
        <path id="path3831-5-9" class="cls-10" d="M130.23,543.42c-.79,1.09-1.68,1.54-2.7,1.53-.8-.01-1.8-1.02-2.16-1.26"/>
        <path id="path3833-1-2" class="cls-10" d="M124.44,546.05c-.69,1.15-1.55,1.11-2.45,1.23-.62.08-1.5-.13-1.85-.37"/>
      </g>
      <path id="path4144-4" class="cls-3" d="M136.39,523.47c2.59-.08,5.17.16,7.76.33,1.87.12,3.97,1.6,5.61.5,1.31-.88,2.42-3.03,2.15-4.84-.38-2.45-2.77-3.88-4.65-4.8-2.79-1.36-5.99-.62-8.99-.66-3.41-.04-6.97-.74-10.23.5-2.2.83-5,1.87-5.85,4.49-.65,1.99-.15,5.04,1.3,6.21,1.38,1.12,3.27-.68,4.92-.92,2.65-.38,5.32-.73,7.99-.81Z"/>
      <g id="g4228-6">
        <path id="path4144-7-1" class="cls-18" d="M137.68,514.23c3.11-.08,6.23.18,9.34.37,2.25.14,4.77,1.77,6.75.55,1.58-.97,2.92-3.35,2.58-5.35-.45-2.71-3.34-4.29-5.6-5.31-3.36-1.51-7.21-.69-10.82-.73-4.11-.05-8.39-.82-12.32.55-2.64.92-6.01,2.07-7.04,4.97-.78,2.2-.18,5.57,1.57,6.87,1.67,1.24,3.94-.76,5.92-1.02,3.2-.42,6.4-.81,9.62-.9h0Z"/>
        <ellipse id="path4165-8" class="cls-2" cx="137.9" cy="508.94" rx="2.71" ry="4.89"/>
        <path id="path4165-1-2" class="cls-2" d="M144.17,514.25c-1.45-.45-2.16-2.93-1.59-5.54s2.21-4.37,3.65-3.92,2.16,2.93,1.59,5.54-2.21,4.37-3.65,3.92Z"/>
        <path id="path4165-1-1-1" class="cls-2" d="M132.33,513.75c1.45-.45,2.16-2.93,1.59-5.54-.57-2.61-2.21-4.37-3.65-3.92s-2.16,2.93-1.59,5.54,2.21,4.37,3.65,3.92Z"/>
        <path id="path4165-1-5-1" class="cls-4" d="M149.37,514.49c-.92-.93-.82-3.2.21-5.07,1.04-1.88,2.63-2.65,3.55-1.72.92.93.82,3.2-.21,5.07-1.04,1.88-2.63,2.65-3.55,1.72Z"/>
        <path id="path4165-1-5-2-9" class="cls-4" d="M126.78,514.9c.92-.93.82-3.2-.21-5.07-1.04-1.88-2.63-2.65-3.55-1.72-.92.93-.82,3.2.21,5.07,1.04,1.88,2.63,2.65,3.55,1.72Z"/>
      </g>
      <path id="path4237-7" class="cls-3" d="M154.38,505.72s3.52-11.18,6.12-16.41c3.01-6.06,10.85-17.15,10.85-17.15,0,0-2,.31-2.91.73-7.16,3.26-19.34,13.5-19.34,13.5l-10.15-12.93-10.29,11.82s-10.91-9.9-17.66-12.38c-1.4-.51-4.45-.42-4.45-.42,0,0,8.09,11.59,11.12,17.94,2.35,4.92,5.42,15.44,5.42,15.44,0,0,3.79-1.16,7.65-1.95,4.54-.92,9.24-.92,13.9-.42,5.26.57,9.73,2.23,9.73,2.23h0Z"/>
      <path id="path4239-6" class="cls-14" d="M169.67,472.48s-9.26,9.87-13.07,15.44c-3.34,4.88-8.48,15.58-8.48,15.58,0,0-1.52-7.92-3.2-11.54-1.49-3.21-5.98-8.76-5.98-8.76,0,0-5.12,6.12-6.67,9.74-1.39,3.22-2.22,10.29-2.22,10.29,0,0-5.16-11.28-8.76-16.27-3.95-5.48-13.9-14.74-13.9-14.74"/>
      <path id="path4241-2" class="cls-8" d="M142.84,503.07c-.42-4.29-2.33-9.28-4.17-10.57-2.13,3.01-3.43,6.86-3.89,10.71l8.06-.14Z"/>
      <path id="path3331-9" class="cls-3" d="M169.15,457.53l3.7-4.49c-6.48-6.97-11.6-14.94-14.67-23.72-4.24-12.14-6.22-25.55-4.55-38.3,1.52-11.64,5.94-23.34,12.98-32.74,7.24-9.66,18.23-16.01,28.57-22.25,3.82-2.31,9.62-3.79,12.2-5.52l-.93-4.99c-8.32,3.9-18.85,7.82-26.86,13.96-8.86,6.79-17.36,14.83-22.63,24.66-5.93,11.05-8.58,24-9,36.53-.32,9.58,1.75,19.3,4.99,28.32,3.71,10.29,7,18.09,16.21,28.54h0Z"/>
      <path id="path4102-5" class="cls-3" d="M154.17,434.09c-2.9-1.97-5.91-1.65-8.33-2.05l-45.81-46.43v6.88l39.78,39.79c-5.33.39-10.35,1.62-14.72,4.59-5.23-3.09-9.46-4.44-14.48-5.79-3.44-.93-10.57-1.57-10.57-1.57v5.43s11.35,1.89,16.6,4.1c3.23,1.36,8.93,5.55,8.93,5.55,0,0,7.63-4.27,11.83-5.31,3.68-.91,7.67-1.64,11.35-.72,4.03,1,10.62,6.52,10.62,6.52l-5.19-10.99Z"/>
      <path id="path4104-2" class="cls-14" d="M172.96,452.81s9.51-10.88,13.44-16.91c3.78-5.79,6.79-12.06,9.66-18.35,2.94-6.44,5.78-12.99,7.72-19.8,2.41-8.42,3.81-17.13,4.83-25.84.74-6.32.94-12.71.9-19.07-.02-3.9-.37-7.79-.7-11.68-.3-3.51-1.15-10.52-1.15-10.52"/>
      <path id="path3331-1-0" class="cls-3" d="M185.1,437.51l2.74-4.38c-4.15-4.46-7.55-9.6-9.5-15.27-2.62-7.59-3.6-15.99-2.57-23.96.92-7.11,3.6-14.19,7.68-20.09,4.25-6.15,10.77-10.45,16.77-14.91,2.78-2.07,7.27-4.3,8.86-5.46l.16-5.03c-5.16,2.66-13.15,7.11-18.73,11.99-5.38,4.71-10.55,10.04-13.83,16.4-3.65,7.08-5.65,15.19-5.94,23.15-.24,6.34,1.16,12.78,3.35,18.73,2.51,6.82,5.11,12.14,11.01,18.83h0Z"/>
      <path id="path3331-1-7-0" class="cls-3" d="M197.15,415.23c-2-2.53-3.23-5.77-3.93-8.96-.84-3.84-.9-7.92-.23-11.79.59-3.39,1.84-6.74,3.68-9.65,2.04-3.23,4.92-5.91,7.9-8.28,1.13-.9,2.89-1.59,3.72-2.2l.47-5.13c-2.67,1.37-6.82,3.5-9.6,6.06-2.96,2.72-5.45,6.03-7.27,9.61-1.9,3.76-3.18,7.92-3.6,12.1-.37,3.58-.06,7.29.92,10.75,1.21,4.24,3.13,7.99,5.98,11.78l1.95-4.3Z"/>
      <path id="path3342-3" class="cls-14" d="M274.32,410.54l-59.79,58.44"/>
      <path id="path3344-9" class="cls-18" d="M268.38,385.88l-48.84,48.39,4.56-15.98,43.37-42.92.9,10.5Z"/>
      <path id="path3346-1" class="cls-14" d="M132.37,417.84l-.46-82.63"/>
      <path id="path3348-8" class="cls-14" d="M125.98,410.54l-.46-74.42"/>
      <rect id="rect3350-19" class="cls-20" x="109.14" y="340.69" width="10.95" height="3.65"/>
      <rect id="rect3350-1-5" class="cls-20" x="109.14" y="348.67" width="10.95" height="3.65"/>
      <rect id="rect3350-7-3" class="cls-20" x="109.14" y="356.65" width="10.95" height="3.65"/>
      <rect id="rect3350-4-2" class="cls-20" x="109.14" y="364.63" width="10.95" height="3.65"/>
      <rect id="rect3350-0-5" class="cls-20" x="109.14" y="372.61" width="10.95" height="3.65"/>
      <rect id="rect3350-9-2" class="cls-20" x="109.14" y="380.59" width="10.95" height="3.65"/>
      <rect id="rect3350-48-5" class="cls-20" x="109.14" y="388.58" width="10.95" height="3.65"/>
      <g id="g3455-8">
        <path id="path3412-6" class="cls-14" d="M174.13,295.94c1.58-2.48,4.32-4.23,7.07-5.25,4.08-1.51,8.66-.76,13.01-.91,3.57-.13,7.19-.52,10.73,0,1.57.23,3.46.23,4.56,1.37.61.62.87,1.66.68,2.51-.23,1.06-.97,2.47-2.05,2.51-4.94.2-14.83-.23-14.83-.23,0,0,11.59.66,17.34,1.37,1.84.23,3.95-.13,5.48.91.73.5,1.43,1.4,1.37,2.28-.07.97-1,1.76-1.83,2.28-1.12.71-2.55,1-3.88.91-5.61-.37-16.89-.68-16.89-.68,0,0,12.69.43,19.17.46,1.48,0,3.08.14,4.34.91.83.51,1.78,1.31,1.83,2.28.04.82-.73,1.54-1.37,2.05-.95.77-2.19,1.39-3.42,1.37-7.31-.12-19.67-.29-19.63-.23,0,0,12.02.21,18.03.68,1.03.08,1.99.93,2.51,1.83.35.6.49,1.42.23,2.05-.44,1.1-1.37,2.31-2.74,2.28-3.61-.08-20.09-.49-20.08-.23,0,0,10.32-.39,15.29.49.9.16,1.85,1.2,1.76,2.12-.1,1.04-1.46,1.61-2.45,1.96-1.79.63-3.81-.19-5.71,0-3.86.38-7.54,2.09-11.41,2.28-3.05.15-6.23.07-9.13-.91-2.2-.74-4.19-2.11-5.93-3.65-1.09-.97-2.19-2.07-2.74-3.42-.89-2.2-.57-4.71-.68-7.08-.09-1.9-.19-3.81,0-5.71.23-2.24.16-4.72,1.37-6.62h0Z"/>
        <path id="path3414-7" class="cls-14" d="M203.26,320.4s-.45-.71-.52-1.69c-.07-1.01.39-2.01.39-2.01"/>
        <path id="path3414-2-7" class="cls-14" d="M209.24,315.76s-.45-.92-.52-2.19c-.07-1.31.39-2.62.39-2.62"/>
        <path id="path3414-4-2" class="cls-14" d="M213.14,309.52s-.85-1.07-.97-2.55c-.13-1.52.73-3.04.73-3.04"/>
        <path id="path3414-5-2" class="cls-14" d="M210.87,303.02s-.9-1.01-1.03-2.4c-.13-1.43.77-2.86.77-2.86"/>
        <path id="path3414-51-9" class="cls-14" d="M202.75,295.54s-.57-.93-.65-2.22c-.08-1.32.49-2.65.49-2.65"/>
      </g>
      <path id="path3467-4" class="cls-14" d="M148.49,335.29l-47.56-.26"/>
      <path id="path3481-1" class="cls-14" d="M269.74,392l-3.72,3.72,7.59,8.98-7.89,6.97-3.72-4.34,3.56-3.41-3.87-3.56-7.89,6.66,7.74,8.67-8.51,7.59-3.56-3.56,2.94-4.03-3.1-3.25-8.05,7.9,7.74,7.74-8.51,8.36-4.02-4.18,3.56-4.34-3.72-3.25-7.89,7.43,8.05,8.52-8.67,7.9-3.56-3.87,3.72-3.72-4.33-4.49-8.67,9.45,8.2,7.9-7.74,7.43-3.41-3.87,3.41-3.25-2.32-2.48"/>
      <g id="g4266-9">
        <path id="path3465-6" class="cls-3" d="M166.42,319.3s-4.76,2.9-6.89,4.68c-2,1.67-3.7,3.67-5.46,5.59-1.7,1.86-4.94,5.72-4.94,5.72,0,0-1.8-3.81-2.21-5.85-.5-2.51-.78-5.17-.26-7.67.47-2.26,2.99-6.24,2.99-6.24,0,0-3.4-1.36-4.94-2.34-1.9-1.21-4.24-2.26-5.2-4.29-.33-.71-.31-1.62,0-2.34.57-1.32,2-2.08,3.12-2.99,1.51-1.22,3.11-2.33,4.81-3.25,1.07-.58,3.38-1.43,3.38-1.43,0,0-1.52-4.09-1.69-6.24-.22-2.78.33-5.59.91-8.32.38-1.77,1.67-5.15,1.67-5.15,0,0,1.09,4.79,2.36,6.84,1.37,2.22,3.44,3.94,5.46,5.59,2.11,1.72,6.89,4.42,6.89,4.42,0,0-.48,4.24-.52,6.37-.05,2.91.3,5.8.39,8.71.08,2.73.13,8.19.13,8.19h0Z"/>
        <path id="path4257-9" class="cls-14" d="M164.97,315.27s-5.29-.32-7.75-1.22c-3.5-1.28-9.57-5.78-9.57-5.78,0,0,4.99-5.16,8.21-6.54,3.1-1.33,10.03-1.37,10.03-1.37"/>
        <path id="path4259-8" class="cls-14" d="M165.42,310.41c-3.24.25-6.33-1.01-9.72-2.58,2.99-2.53,6.58-3.09,10.33-3.34"/>
        <path id="path4261-2" class="cls-14" d="M148.86,334.88l2.28-8.51,3.04-6.99,2.73-5.02"/>
        <path id="path4264-5" class="cls-14" d="M159.04,300.68s-2.99-3.59-4.1-5.62c-1.14-2.1-2.02-4.36-2.58-6.69-.67-2.77-.91-8.51-.91-8.51"/>
      </g>
      <path id="path3463-5" class="cls-3" d="M173.83,317.61s-.45,1.51-1.04,1.95c-.81.62-2,.91-2.99.65-1.45-.38-2.7-1.65-3.38-2.99-1.14-2.24-.62-5-.72-7.52-.11-2.74-.08-5.48.13-8.21.13-1.74-.25-3.74.72-5.2.61-.92,1.76-1.55,2.86-1.69,1.52-.19,4.42,1.3,4.42,1.3-.95,6.88-2.19,13.65,0,21.71h0Z"/>
      <circle id="path4293-4" class="cls-1" cx="168.55" cy="257.74" r="2.5"/>
      <circle id="path4293-1-9" class="cls-1" cx="160.11" cy="262.68" r="2.5"/>
      <circle id="path4293-15-1" class="cls-1" cx="152.21" cy="267.09" r="2.5"/>
      <circle id="path4293-2-2" class="cls-1" cx="144.61" cy="271.65" r="2.5"/>
      <circle id="path4293-7-5" class="cls-1" cx="137.16" cy="276.97" r="2.5"/>
      <circle id="path4293-6-0" class="cls-1" cx="129.26" cy="282.74" r="2.5"/>
      <circle id="path4293-14-8" class="cls-1" cx="121.97" cy="289.13" r="2.5"/>
      <circle id="path4293-23-3" class="cls-1" cx="114.52" cy="295.21" r="2.5"/>
      <circle id="path4293-22-9" class="cls-1" cx="107.53" cy="302.35" r="2.5"/>
      <circle id="path4293-16-3" class="cls-1" cx="105.56" cy="283.5" r="2.5"/>
      <circle id="path4293-8-9" class="cls-1" cx="113" cy="277.12" r="2.5"/>
      <circle id="path4293-5-6" class="cls-1" cx="119.84" cy="271.19" r="2.5"/>
      <circle id="path4293-76-7" class="cls-1" cx="127.29" cy="265.27" r="2.5"/>
      <circle id="path4293-18-9" class="cls-1" cx="135.34" cy="259.49" r="2.5"/>
      <circle id="path4293-9-9" class="cls-1" cx="143.24" cy="254.78" r="2.5"/>
      <circle id="path4293-27-7" class="cls-1" cx="151.29" cy="249.92" r="2.5"/>
      <circle id="path4293-95-6" class="cls-1" cx="159.5" cy="244.6" r="2.5"/>
      <path id="path4418-9" class="cls-1" d="M179.61,442.95s-1.37-1.59-2.28-2.05c-2.98-1.51-7.84.64-9.81-2.05-3.07-4.2,3.52-10.69,1.6-15.52-1.6-4.01-8.89-4.23-9.81-8.45-1.02-4.66,5.92-8.24,5.93-13.01.01-5.01-7.35-8.83-6.16-13.7.99-4.05,7.85-4.08,9.81-7.76,2.76-5.19-2.35-13.03,1.37-17.58,2.45-3,8.34-.56,11.18-3.2,3.52-3.25,1.04-10.8,5.02-13.47,3.73-2.5,9.45,2.47,13.46.46,3.81-1.91,7.3-10.5,7.3-10.5l.46,4.57s-2.96,7.78-6.39,9.36c-3.82,1.76-8.99-3.61-12.55-1.37-4.24,2.66-1.43,10.67-5.02,14.15-2.7,2.61-8.49.41-10.73,3.42-2.9,3.91,1.81,10.19-.23,14.61-1.83,3.97-8.9,4.4-9.81,8.67-.96,4.5,5.79,7.96,5.71,12.55-.08,4.25-6.56,7.25-5.71,11.41.8,3.91,7.62,4.06,9.13,7.76,1.84,4.53-4.16,10.59-1.37,14.61,1.84,2.65,6.61.81,9.36,2.51.73.45,1.71,1.94,1.71,1.94l-2.17,2.63Z"/>
      <path id="path4420-4-3" d="M194.85,419.86l-6.66,12.63-7.22-9.03-3.37-10.12-2.02-9.95.16-10.39,3.41-12.59,5.85-8.22,7.33-6.75,7.44-6.25,9.15-5.42-.03,15.24-7.13,3.55-6.52,6.08-5.09,7.77-2.08,9.08-.4,7.03,2.02,7.91,3.1,6.59,2.05,2.87Z"/>
      <path id="path4441-5" class="cls-1" d="M189.72,416.56l-1.13,6.93-6.78-3.68.99-7.21,6.92,3.96Z"/>
      <path id="path4441-3-7" class="cls-1" d="M185.96,400.26l-4.59,5.31-3.86-6.68,4.61-5.63,3.83,7Z"/>
      <path id="path4441-1-6" class="cls-1" d="M189.75,384.74l-6.91,1.24,1.21-7.62,7.13-1.46-1.43,7.85Z"/>
      <path id="path4441-2-6" class="cls-1" d="M197.55,363.25l7.02.08-2.62,7.26-7.27.1,2.87-7.44Z"/>
      <path id="path4475-5" d="M207.81,374.72l-2.12,15.12-3.39,12.44-5.37,12.44-3.96-9.75-.14-9.47,3.11-9.75,4.66-5.8,7.21-5.23Z"/>
      <path id="path4501-8" class="cls-14" d="M148.34,289.17s-6.02,1.95-8.99,3.05c-3.85,1.42-11.42,4.57-11.42,4.57"/>
    </g>
    <path id="path5854" d="M233.37,331.71l33.69-.39-.9,18.45,1.15,18.06-34.07.52.9-18.71-.77-17.93Z"/>
    <rect id="rect5856" class="cls-3" x="245" y="334.99" width="10" height="10"/>
    <rect id="rect5856-2" class="cls-3" x="235" y="344.99" width="10" height="10"/>
    <rect id="rect5856-5" class="cls-3" x="255" y="344.99" width="10" height="10"/>
    <rect id="rect5856-4" class="cls-3" x="245" y="354.99" width="10" height="10"/>
  </g>
</svg>