<?xml version="1.0" encoding="UTF-8"?>
<svg id="Calque_1" data-name="Calque 1" xmlns="http://www.w3.org/2000/svg" viewBox="0 0 500 700">
  <defs>
    <style>
      @font-face { font-family: 'Anton'; font-style: normal; font-weight: 400; src: url(https://fonts.gstatic.com/s/anton/v27/1Ptgg87LROyAm3Kz-C8.woff2) format('woff2'); unicode-range: U+0000-00FF, U+0131, U+0152-0153, U+02BB-02BC, U+02C6, U+02DA, U+02DC, U+0304, U+0308, U+0329, U+2000-206F, U+20AC, U+2122, U+2191, U+2193, U+2212, U+2215, U+FEFF, U+FFFD; }
      .cls-1 {
        font-family: Anton-Regular, Anton;
        font-size: 80px;
      }

      .cls-1, .cls-2 {
        fill: #b30000;
      }

      .cls-3 {
        fill: #fff;
      }

      .cls-2 {
        fill-rule: evenodd;
      }
    </style>
  </defs>
  <g>
    <rect class="cls-3" x="2.5" y="2.5" width="495" height="695" rx="47.5" ry="47.5"/>
    <path d="M450,5c24.81,0,45,20.19,45,45v600c0,24.81-20.19,45-45,45H50c-24.81,0-45-20.19-45-45V50C5,25.19,25.19,5,50,5h400M450,0H50C22.39,0,0,22.39,0,50v600c0,27.61,22.39,50,50,50h400c27.61,0,50-22.39,50-50V50C500,22.39,477.61,0,450,0h0Z"/>
  </g>
  <path id="path3" class="cls-2" d="M248.32,302.08c-1.17.43-1.62.96-17.87,20.97-21.9,26.98-20.43,25.03-20.44,27.04v1.34s1.3,1.69,1.3,1.69c3.33,4.3,26.49,33.02,31.46,39.01,4.08,4.91,4.76,5.61,5.71,5.87,2.18.6,3.54.06,5.45-2.15,3.32-3.86,17.38-21.17,29.72-36.59,6.77-8.46,7.09-9.1,5.62-11.32-1.43-2.17-32.03-40.03-35.74-44.22-1.63-1.84-3.27-2.36-5.23-1.64"/>
  <path id="path3-2" data-name="path3" class="cls-2" d="M248.32,110.14c-1.17.43-1.62.96-17.87,20.97-21.9,26.98-20.43,25.03-20.44,27.04v1.34s1.3,1.69,1.3,1.69c3.33,4.3,26.49,33.02,31.46,39.01,4.08,4.91,4.76,5.61,5.71,5.87,2.18.6,3.54.06,5.45-2.15,3.32-3.86,17.38-21.17,29.72-36.59,6.77-8.46,7.09-9.1,5.62-11.32-1.43-2.17-32.03-40.03-35.74-44.22-1.63-1.84-3.27-2.36-5.23-1.64"/>
  <path id="path3-3" data-name="path3" class="cls-2" d="M248.32,494.08c-1.17.43-1.62.96-17.87,20.97-21.9,26.98-20.43,25.03-20.44,27.04v1.34s1.3,1.69,1.3,1.69c3.33,4.3,26.49,33.02,31.46,39.01,4.08,4.91,4.76,5.61,5.71,5.87,2.18.6,3.54.06,5.45-2.15,3.32-3.86,17.38-21.17,29.72-36.59,6.77-8.46,7.09-9.1,5.62-11.32-1.43-2.17-32.03-40.03-35.74-44.22-1.63-1.84-3.27-2.36-5.23-1.64"/>
  <text class="cls-1" transform="translate(33.15 97.23)"><tspan x="0" y="0">3</tspan></text>
  <path id="path3-4" data-name="path3" class="cls-2" d="M53.06,124.45c-.69.25-.96.57-10.54,12.37-12.92,15.91-12.05,14.76-12.05,15.95v.79s.77,1,.77,1c1.96,2.53,15.63,19.48,18.56,23.01,2.4,2.9,2.81,3.31,3.37,3.46,1.29.35,2.09.03,3.21-1.27,1.96-2.28,10.25-12.49,17.53-21.58,3.99-4.99,4.18-5.36,3.31-6.68-.84-1.28-18.89-23.61-21.08-26.08-.96-1.09-1.93-1.39-3.08-.97"/>
  <text class="cls-1" transform="translate(471.72 608.63) rotate(-180)"><tspan x="0" y="0">3</tspan></text>
  <path id="path3-5" data-name="path3" class="cls-2" d="M451.81,581.41c.69-.25.96-.57,10.54-12.37,12.92-15.91,12.05-14.76,12.05-15.95v-.79s-.77-1-.77-1c-1.96-2.53-15.63-19.48-18.56-23.01-2.4-2.9-2.81-3.31-3.37-3.46-1.29-.35-2.09-.03-3.21,1.27-1.96,2.28-10.25,12.49-17.53,21.58-3.99,4.99-4.18,5.36-3.31,6.68.84,1.28,18.89,23.61,21.08,26.08.96,1.09,1.93,1.39,3.08.97"/>
</svg>