<?xml version="1.0" encoding="UTF-8"?>
<svg id="Calque_1" data-name="Calque 1" xmlns="http://www.w3.org/2000/svg" viewBox="0 0 500 700">
  <defs>
    <style>
      .cls-1 {
        fill: #fff;
      }

      .cls-2 {
        fill-rule: evenodd;
      }

      .cls-2, .cls-3 {
        fill: #b30000;
      }

      .cls-3 {
        font-family: Poppins-Bold, Poppins;
        font-size: 171.15px;
        font-weight: 700;
      }
    </style>
  </defs>
  <g>
    <rect class="cls-1" x="2.5" y="2.5" width="495" height="695" rx="47.5" ry="47.5"/>
    <path d="M450,5c24.81,0,45,20.19,45,45v600c0,24.81-20.19,45-45,45H50c-24.81,0-45-20.19-45-45V50C5,25.19,25.19,5,50,5h400M450,0H50C22.39,0,0,22.39,0,50v600c0,27.61,22.39,50,50,50h400c27.61,0,50-22.39,50-50V50c0-27.61-22.39-50-50-50h0Z"/>
  </g>
  <text class="cls-3" transform="translate(63.36 168.18)"><tspan x="0" y="0">9</tspan></text>
  <path id="path0" class="cls-2" d="M95.25,209.36c-15.36,3-21.2,20.2-11.7,34.5,2.93,4.41,6.05,7.52,15.79,15.7,7.34,6.17,9.79,8.38,12.75,11.48,3.44,3.6,4.2,3.53,8.56-.85,3.06-3.07,5.62-5.36,11.46-10.25,11.58-9.69,15.44-13.83,18.2-19.52,7.69-15.88-2.33-32.35-19.08-31.35-4.37.26-9.4,2.83-13.96,7.13l-1.35,1.27-1.19-1.14c-6.28-6.01-12.65-8.29-19.49-6.95"/>
  <path id="path0-2" data-name="path0" class="cls-2" d="M211.04,364.27c-67.86,13.25-93.65,89.26-51.71,152.43,12.93,19.48,26.74,33.21,69.76,69.38,32.45,27.28,43.26,37.01,56.35,50.73,15.2,15.92,18.56,15.59,37.83-3.78,13.5-13.56,24.84-23.7,50.64-45.28,51.19-42.81,68.24-61.11,80.43-86.27,33.97-70.17-10.31-142.93-84.29-138.52-19.33,1.15-41.53,12.49-61.68,31.49l-5.94,5.6-5.27-5.05c-27.73-26.57-55.9-36.62-86.13-30.72"/>
</svg>