<?xml version="1.0" encoding="UTF-8"?>
<svg id="Calque_1" data-name="Calque 1" xmlns="http://www.w3.org/2000/svg" viewBox="0 0 500 700">
  <defs>
    <style>
      .cls-1 {
        fill: #fff;
      }

      .cls-2 {
        font-family: Poppins-Bold, Poppins;
        font-size: 171.15px;
        font-weight: 700;
      }

      .cls-3 {
        fill-rule: evenodd;
      }
    </style>
  </defs>
  <g>
    <rect class="cls-1" x="2.5" y="2.5" width="495" height="695" rx="47.5" ry="47.5"/>
    <path d="M450,5c24.81,0,45,20.19,45,45v600c0,24.81-20.19,45-45,45H50c-24.81,0-45-20.19-45-45V50C5,25.19,25.19,5,50,5h400M450,0H50C22.39,0,0,22.39,0,50v600c0,27.61,22.39,50,50,50h400c27.61,0,50-22.39,50-50V50c0-27.61-22.39-50-50-50h0Z"/>
  </g>
  <text class="cls-2" transform="translate(58.06 168.18)"><tspan x="0" y="0">4</tspan></text>
  <path id="path2" class="cls-3" d="M112.52,201c-9.86,2.63-14.34,12.95-9.66,22.26,1.04,2.06,1.93,3.35,5.17,7.49,3.19,4.07,5.49,7.75,5.09,8.15-.04.04-1.39-.97-3.02-2.24-8.56-6.67-10.54-7.61-16.08-7.63-6.24-.02-11.07,3.03-13.7,8.65-4.39,9.38,2.31,20.51,12.63,20.95,5.73.25,8.44-.92,16.25-7,3.84-2.99,4.83-3.67,4.83-3.32,0,.31-1.05,4.45-1.83,7.21-1.97,6.99-4.79,14.12-7.07,17.87-.29.48-.53.93-.53,1,0,.15,1.02.06,3.34-.3,2.42-.38,13.47-.37,15.95,0,2.3.35,3.34.44,3.34.31,0-.06-.39-.81-.86-1.65-2.72-4.85-5.06-11.09-7.38-19.74-.93-3.45-1.19-4.62-1.04-4.71.15-.09,1.65.99,5.26,3.8,6.93,5.41,9.37,6.49,14.69,6.49,13.48,0,20.06-15.69,10.59-25.25-3.12-3.15-6.07-4.34-10.73-4.34-5.37,0-7.55,1.06-16.24,7.89-2.73,2.14-2.91,2.26-2.75,1.72.46-1.53,1.85-3.64,5.42-8.23,6.17-7.93,7.67-12.37,6.24-18.43-1.82-7.68-10.43-12.95-17.9-10.96"/>
  <path id="path2-2" data-name="path2" class="cls-3" d="M286.06,324.03c-44,11.72-64,57.83-43.11,99.39,4.63,9.2,8.6,14.97,23.07,33.44,14.23,18.18,24.5,34.6,22.74,36.37-.16.16-6.22-4.34-13.47-9.99-38.22-29.8-47.06-33.99-71.78-34.08-27.84-.1-49.4,13.52-61.17,38.63-19.62,41.89,10.33,91.55,56.4,93.53,25.58,1.1,37.7-4.12,72.53-31.24,17.16-13.36,21.58-16.4,21.58-14.83,0,1.38-4.68,19.89-8.15,32.21-8.77,31.18-21.38,63.05-31.57,79.77-1.3,2.14-2.37,4.14-2.37,4.46,0,.67,4.53.27,14.89-1.34,10.82-1.68,60.12-1.66,71.23.03,10.27,1.56,14.89,1.98,14.89,1.37,0-.28-1.73-3.6-3.86-7.38-12.16-21.63-22.58-49.52-32.94-88.11-4.13-15.4-5.29-20.65-4.65-21.04.68-.42,7.38,4.42,23.46,16.98,30.95,24.16,41.82,28.96,65.57,28.98,60.16.03,89.56-70.05,47.27-112.71-13.94-14.06-27.09-19.37-47.91-19.35-23.98.02-33.7,4.74-72.51,35.2-12.17,9.55-13,10.07-12.28,7.68,2.05-6.84,8.26-16.26,24.2-36.75,27.54-35.39,34.26-55.24,27.86-82.28-8.11-34.28-46.55-57.81-79.92-48.92"/>
</svg>