<?xml version="1.0" encoding="UTF-8"?>
<svg id="Calque_1" data-name="Calque 1" xmlns="http://www.w3.org/2000/svg" viewBox="0 0 500 700">
  <defs>
    <style>
      .cls-1 {
        fill: #fff;
      }

      .cls-2 {
        fill-rule: evenodd;
      }

      .cls-2, .cls-3 {
        fill: #b30000;
      }

      .cls-3 {
        font-family: Poppins-Bold, Poppins;
        font-size: 171.15px;
        font-weight: 700;
      }
    </style>
  </defs>
  <g>
    <rect class="cls-1" x="2.5" y="2.5" width="495" height="695" rx="47.5" ry="47.5"/>
    <path d="M450,5c24.81,0,45,20.19,45,45v600c0,24.81-20.19,45-45,45H50c-24.81,0-45-20.19-45-45V50C5,25.19,25.19,5,50,5h400M450,0H50C22.39,0,0,22.39,0,50v600c0,27.61,22.39,50,50,50h400c27.61,0,50-22.39,50-50V50c0-27.61-22.39-50-50-50h0Z"/>
  </g>
  <text class="cls-3" transform="translate(64.21 168.18)"><tspan x="0" y="0">3</tspan></text>
  <path id="path3" class="cls-2" d="M114.4,196.98c-1.08.4-1.5.89-16.53,19.4-20.25,24.95-18.89,23.15-18.9,25.01v1.24s1.21,1.57,1.21,1.57c3.08,3.97,24.5,30.54,29.1,36.08,3.77,4.54,4.4,5.19,5.28,5.43,2.02.55,3.28.05,5.04-1.99,3.07-3.57,16.08-19.58,27.49-33.84,6.26-7.82,6.55-8.41,5.2-10.47-1.32-2-29.63-37.02-33.06-40.9-1.51-1.71-3.03-2.18-4.83-1.52"/>
  <path id="path3-2" data-name="path3" class="cls-2" d="M300.46,360.18c-3.46,1.27-4.81,2.85-52.89,62.09-64.82,79.86-60.47,74.1-60.5,80.04l-.02,3.97,3.88,5.02c9.84,12.72,78.43,97.74,93.14,115.47,12.06,14.53,14.09,16.62,16.91,17.39,6.45,1.77,10.49.17,16.12-6.38,9.83-11.43,51.46-62.67,87.99-108.31,20.04-25.03,20.98-26.93,16.63-33.51-4.23-6.41-94.81-118.49-105.8-130.9-4.83-5.46-9.68-6.99-15.47-4.86"/>
</svg>