<?xml version="1.0" encoding="UTF-8"?>
<svg id="Calque_1" data-name="Calque 1" xmlns="http://www.w3.org/2000/svg" viewBox="0 0 500 700">
  <defs>
    <style>
      .cls-1 {
        fill: #fff;
      }

      .cls-2 {
        font-family: Poppins-Bold, Poppins;
        font-size: 171.15px;
        font-weight: 700;
      }

      .cls-3 {
        fill-rule: evenodd;
      }
    </style>
  </defs>
  <g>
    <rect class="cls-1" x="2.5" y="2.5" width="495" height="695" rx="47.5" ry="47.5"/>
    <path d="M450,5c24.81,0,45,20.19,45,45v600c0,24.81-20.19,45-45,45H50c-24.81,0-45-20.19-45-45V50C5,25.19,25.19,5,50,5h400M450,0H50C22.39,0,0,22.39,0,50v600c0,27.61,22.39,50,50,50h400c27.61,0,50-22.39,50-50V50c0-27.61-22.39-50-50-50h0Z"/>
  </g>
  <text class="cls-2" transform="translate(61.48 168.18)"><tspan x="0" y="0">6</tspan></text>
  <path id="path1" class="cls-3" d="M114.92,200.17c-.34.1-1.52,1.15-3.9,3.48-3.84,3.75-5.21,4.98-10.49,9.38-8.73,7.29-12.07,10.62-14.91,14.87-8.24,12.33-4.12,27.7,8.51,31.7,2.44.77,2.95.84,6.26.84h3.09s1.4-.49,1.4-.49c1.91-.66,4.13-1.73,5.78-2.81,1.7-1.1,1.62-1.11,1.25.17-1.19,4.23-4.1,11.51-5.91,14.76-.31.57-.8,1.45-1.09,1.96-.66,1.19-.73,1.16,1.98.78,5.06-.72,12.87-.73,17.92-.01,3.06.43,2.92.57,1.66-1.69-1.35-2.42-2.53-4.94-3.7-7.95-1.1-2.8-3.1-8.73-2.99-8.84.04-.04.71.32,1.48.8,2.05,1.29,3.7,2.1,5.59,2.75l1.67.57h3.09c12.31-.03,20.5-9.76,18.71-22.23-1.2-8.38-5.26-13.78-18.85-25.11-5.31-4.42-7.34-6.24-10.76-9.59-3.72-3.65-4.05-3.84-5.77-3.35"/>
  <path id="path1-2" data-name="path1" class="cls-3" d="M297.47,323.02c-1.48.43-6.68,5.07-17.15,15.3-16.86,16.48-22.89,21.88-46.05,41.21-38.36,32.02-53.02,46.64-65.51,65.32-36.21,54.16-18.09,121.66,37.37,139.25,10.7,3.39,12.94,3.69,27.49,3.68h13.58s6.14-2.13,6.14-2.13c8.39-2.89,18.12-7.62,25.41-12.34,7.47-4.84,7.1-4.89,5.51.75-5.23,18.56-18.03,50.53-25.96,64.84-1.38,2.49-3.53,6.36-4.78,8.6-2.92,5.23-3.2,5.12,8.68,3.43,22.24-3.16,56.55-3.19,78.71-.06,13.42,1.89,12.83,2.49,7.29-7.44-5.93-10.61-11.1-21.72-16.27-34.93-4.81-12.29-13.62-38.33-13.13-38.82.19-.19,3.11,1.4,6.49,3.52,9,5.66,16.26,9.23,24.54,12.07l7.33,2.52,13.58-.03c54.08-.11,90.03-42.83,82.16-97.63-5.28-36.79-23.12-60.54-82.81-110.29-23.31-19.43-32.24-27.39-47.26-42.13-16.34-16.04-17.8-16.88-25.36-14.7"/>
</svg>