<?xml version="1.0" encoding="UTF-8"?>
<svg id="Calque_1" data-name="Calque 1" xmlns="http://www.w3.org/2000/svg" viewBox="0 0 500 700">
  <defs>
    <style>
      @font-face { font-family: 'Anton'; font-style: normal; font-weight: 400; src: url(https://fonts.gstatic.com/s/anton/v27/1Ptgg87LROyAm3Kz-C8.woff2) format('woff2'); unicode-range: U+0000-00FF, U+0131, U+0152-0153, U+02BB-02BC, U+02C6, U+02DA, U+02DC, U+0304, U+0308, U+0329, U+2000-206F, U+20AC, U+2122, U+2191, U+2193, U+2212, U+2215, U+FEFF, U+FFFD; }
      .cls-1 {
        font-family: Anton-Regular, Anton;
        font-size: 133.33px;
      }

      .cls-1, .cls-2 {
        fill: #b30000;
      }

      .cls-3 {
        fill: #fff;
      }

      .cls-2 {
        fill-rule: evenodd;
      }
    </style>
  </defs>
  <g>
    <rect class="cls-3" x="2.5" y="2.5" width="495" height="695" rx="47.5" ry="47.5"/>
    <path d="M450,5c24.81,0,45,20.19,45,45v600c0,24.81-20.19,45-45,45H50c-24.81,0-45-20.19-45-45V50C5,25.19,25.19,5,50,5h400M450,0H50C22.39,0,0,22.39,0,50v600c0,27.61,22.39,50,50,50h400c27.61,0,50-22.39,50-50V50c0-27.61-22.39-50-50-50h0Z"/>
  </g>
  <text class="cls-1" transform="translate(39.25 147.41)"><tspan x="0" y="0">9</tspan></text>
  <path id="path3" class="cls-2" d="M69.33,176.4c-1.05.39-1.46.87-16.06,18.85-19.68,24.25-18.36,22.5-18.37,24.3v1.2s1.17,1.52,1.17,1.52c2.99,3.86,23.82,29.68,28.29,35.07,3.66,4.41,4.28,5.05,5.13,5.28,1.96.54,3.19.05,4.9-1.94,2.98-3.47,15.63-19.03,26.72-32.89,6.09-7.6,6.37-8.18,5.05-10.18-1.29-1.95-28.79-35.98-32.13-39.75-1.47-1.66-2.94-2.12-4.7-1.48"/>
  <text class="cls-1" transform="translate(397.58 147.41)"><tspan x="0" y="0">9</tspan></text>
  <path id="path3-2" data-name="path3" class="cls-2" d="M427.65,176.4c-1.05.39-1.46.87-16.06,18.85-19.68,24.25-18.36,22.5-18.37,24.3v1.2s1.17,1.52,1.17,1.52c2.99,3.86,23.82,29.68,28.29,35.07,3.66,4.41,4.28,5.05,5.13,5.28,1.96.54,3.19.05,4.9-1.94,2.98-3.47,15.63-19.03,26.72-32.89,6.09-7.6,6.37-8.18,5.05-10.18-1.29-1.95-28.79-35.98-32.13-39.75-1.47-1.66-2.94-2.12-4.7-1.48"/>
  <text class="cls-1" transform="translate(460.75 556.42) rotate(-180)"><tspan x="0" y="0">9</tspan></text>
  <path id="path3-3" data-name="path3" class="cls-2" d="M430.67,527.43c1.05-.39,1.46-.87,16.06-18.85,19.68-24.25,18.36-22.5,18.37-24.3v-1.2s-1.17-1.52-1.17-1.52c-2.99-3.86-23.82-29.68-28.29-35.07-3.66-4.41-4.28-5.05-5.13-5.28-1.96-.54-3.19-.05-4.9,1.94-2.98,3.47-15.63,19.03-26.72,32.89-6.09,7.6-6.37,8.18-5.05,10.18,1.29,1.95,28.79,35.98,32.13,39.75,1.47,1.66,2.94,2.12,4.7,1.48"/>
  <text class="cls-1" transform="translate(102.42 556.42) rotate(-180)"><tspan x="0" y="0">9</tspan></text>
  <path id="path3-4" data-name="path3" class="cls-2" d="M72.35,527.43c1.05-.39,1.46-.87,16.06-18.85,19.68-24.25,18.36-22.5,18.37-24.3v-1.2s-1.17-1.52-1.17-1.52c-2.99-3.86-23.82-29.68-28.29-35.07-3.66-4.41-4.28-5.05-5.13-5.28-1.96-.54-3.19-.05-4.9,1.94-2.98,3.47-15.63,19.03-26.72,32.89-6.09,7.6-6.37,8.18-5.05,10.18,1.29,1.95,28.79,35.98,32.13,39.75,1.47,1.66,2.94,2.12,4.7,1.48"/>
  <path id="path3-5" data-name="path3" class="cls-2" d="M196.13,189.64c-.64.24-.9.53-9.85,11.56-12.07,14.87-11.26,13.8-11.27,14.91v.74s.72.93.72.93c1.83,2.37,14.61,18.21,17.35,21.51,2.25,2.71,2.62,3.1,3.15,3.24,1.2.33,1.95.03,3-1.19,1.83-2.13,9.59-11.67,16.39-20.18,3.73-4.66,3.91-5.02,3.1-6.24-.79-1.19-17.66-22.07-19.71-24.38-.9-1.02-1.8-1.3-2.88-.91"/>
  <path id="path3-6" data-name="path3" class="cls-2" d="M196.56,278.58c-.64.24-.9.53-9.85,11.56-12.07,14.87-11.26,13.8-11.27,14.91v.74s.72.93.72.93c1.83,2.37,14.61,18.21,17.35,21.51,2.25,2.71,2.62,3.1,3.15,3.24,1.2.33,1.95.03,3-1.19,1.83-2.13,9.59-11.67,16.39-20.18,3.73-4.66,3.91-5.02,3.1-6.24-.79-1.19-17.66-22.07-19.71-24.38-.9-1.02-1.8-1.3-2.88-.91"/>
  <path id="path3-7" data-name="path3" class="cls-2" d="M196.56,367.52c-.64.24-.9.53-9.85,11.56-12.07,14.87-11.26,13.8-11.27,14.91v.74s.72.93.72.93c1.83,2.37,14.61,18.21,17.35,21.51,2.25,2.71,2.62,3.1,3.15,3.24,1.2.33,1.95.03,3-1.19,1.83-2.13,9.59-11.67,16.39-20.18,3.73-4.66,3.91-5.02,3.1-6.24-.79-1.19-17.66-22.07-19.71-24.38-.9-1.02-1.8-1.3-2.88-.91"/>
  <path id="path3-8" data-name="path3" class="cls-2" d="M196.13,456.45c-.64.24-.9.53-9.85,11.56-12.07,14.87-11.26,13.8-11.27,14.91v.74s.72.93.72.93c1.83,2.37,14.61,18.21,17.35,21.51,2.25,2.71,2.62,3.1,3.15,3.24,1.2.33,1.95.03,3-1.19,1.83-2.13,9.59-11.67,16.39-20.18,3.73-4.66,3.91-5.02,3.1-6.24-.79-1.19-17.66-22.07-19.71-24.38-.9-1.02-1.8-1.3-2.88-.91"/>
  <path id="path3-9" data-name="path3" class="cls-2" d="M249.06,415.33c-.64.24-.9.53-9.85,11.56-12.07,14.87-11.26,13.8-11.27,14.91v.74s.72.93.72.93c1.83,2.37,14.61,18.21,17.35,21.51,2.25,2.71,2.62,3.1,3.15,3.24,1.2.33,1.95.03,3-1.19,1.83-2.13,9.59-11.67,16.39-20.18,3.73-4.66,3.91-5.02,3.1-6.24-.79-1.19-17.66-22.07-19.71-24.38-.9-1.02-1.8-1.3-2.88-.91"/>
  <path id="path3-10" data-name="path3" class="cls-2" d="M249.06,235.84c-.64.24-.9.53-9.85,11.56-12.07,14.87-11.26,13.8-11.27,14.91v.74s.72.93.72.93c1.83,2.37,14.61,18.21,17.35,21.51,2.25,2.71,2.62,3.1,3.15,3.24,1.2.33,1.95.03,3-1.19,1.83-2.13,9.59-11.67,16.39-20.18,3.73-4.66,3.91-5.02,3.1-6.24-.79-1.19-17.66-22.07-19.71-24.38-.9-1.02-1.8-1.3-2.88-.91"/>
  <path id="path3-11" data-name="path3" class="cls-2" d="M301.55,189.69c-.64.24-.9.53-9.85,11.56-12.07,14.87-11.26,13.8-11.27,14.91v.74s.72.93.72.93c1.83,2.37,14.61,18.21,17.35,21.51,2.25,2.71,2.62,3.1,3.15,3.24,1.2.33,1.95.03,3-1.19,1.83-2.13,9.59-11.67,16.39-20.18,3.73-4.66,3.91-5.02,3.1-6.24-.79-1.19-17.66-22.07-19.71-24.38-.9-1.02-1.8-1.3-2.88-.91"/>
  <path id="path3-12" data-name="path3" class="cls-2" d="M301.55,278.61c-.64.24-.9.53-9.85,11.56-12.07,14.87-11.26,13.8-11.27,14.91v.74s.72.93.72.93c1.83,2.37,14.61,18.21,17.35,21.51,2.25,2.71,2.62,3.1,3.15,3.24,1.2.33,1.95.03,3-1.19,1.83-2.13,9.59-11.67,16.39-20.18,3.73-4.66,3.91-5.02,3.1-6.24-.79-1.19-17.66-22.07-19.71-24.38-.9-1.02-1.8-1.3-2.88-.91"/>
  <path id="path3-13" data-name="path3" class="cls-2" d="M301.55,367.53c-.64.24-.9.53-9.85,11.56-12.07,14.87-11.26,13.8-11.27,14.91v.74s.72.93.72.93c1.83,2.37,14.61,18.21,17.35,21.51,2.25,2.71,2.62,3.1,3.15,3.24,1.2.33,1.95.03,3-1.19,1.83-2.13,9.59-11.67,16.39-20.18,3.73-4.66,3.91-5.02,3.1-6.24-.79-1.19-17.66-22.07-19.71-24.38-.9-1.02-1.8-1.3-2.88-.91"/>
  <path id="path3-14" data-name="path3" class="cls-2" d="M301.55,456.45c-.64.24-.9.53-9.85,11.56-12.07,14.87-11.26,13.8-11.27,14.91v.74s.72.93.72.93c1.83,2.37,14.61,18.21,17.35,21.51,2.25,2.71,2.62,3.1,3.15,3.24,1.2.33,1.95.03,3-1.19,1.83-2.13,9.59-11.67,16.39-20.18,3.73-4.66,3.91-5.02,3.1-6.24-.79-1.19-17.66-22.07-19.71-24.38-.9-1.02-1.8-1.3-2.88-.91"/>
</svg>