<?xml version="1.0" encoding="UTF-8"?>
<svg id="Calque_1" data-name="Calque 1" xmlns="http://www.w3.org/2000/svg" viewBox="0 0 500 700">
  <defs>
    <style>
      @font-face { font-family: 'Anton'; font-style: normal; font-weight: 400; src: url(https://fonts.gstatic.com/s/anton/v27/1Ptgg87LROyAm3Kz-C8.woff2) format('woff2'); unicode-range: U+0000-00FF, U+0131, U+0152-0153, U+02BB-02BC, U+02C6, U+02DA, U+02DC, U+0304, U+0308, U+0329, U+2000-206F, U+20AC, U+2122, U+2191, U+2193, U+2212, U+2215, U+FEFF, U+FFFD; }
      .cls-1 {
        fill: #fff;
      }

      .cls-2 {
        font-family: Anton-Regular, Anton;
        font-size: 133.33px;
      }

      .cls-3 {
        fill-rule: evenodd;
      }
    </style>
  </defs>
  <g>
    <rect class="cls-1" x="1.91" y="2.44" width="495" height="695" rx="47.5" ry="47.5"/>
    <path d="M449.41,4.94c24.81,0,45,20.19,45,45v600c0,24.81-20.19,45-45,45H49.41c-24.81,0-45-20.19-45-45V49.94C4.41,25.12,24.6,4.94,49.41,4.94h400M449.41-.06H49.41C21.8-.06-.59,22.32-.59,49.94v600c0,27.61,22.39,50,50,50h400c27.61,0,50-22.39,50-50V49.94C499.41,22.32,477.03-.06,449.41-.06h0Z"/>
  </g>
  <text class="cls-2" transform="translate(39.33 147.35)"><tspan x="0" y="0">4</tspan></text>
  <path id="path1" class="cls-3" d="M69.26,185.71c-.32.09-1.47,1.11-3.77,3.37-3.71,3.62-5.03,4.81-10.13,9.06-8.44,7.04-11.66,10.25-14.4,14.36-7.96,11.91-3.98,26.75,8.22,30.62,2.35.75,2.84.81,6.04.81h2.99s1.35-.47,1.35-.47c1.84-.64,3.99-1.68,5.59-2.71,1.64-1.06,1.56-1.08,1.21.17-1.15,4.08-3.96,11.11-5.71,14.26-.3.55-.78,1.4-1.05,1.89-.64,1.15-.7,1.13,1.91.75,4.89-.69,12.43-.7,17.31-.01,2.95.42,2.82.55,1.6-1.64-1.3-2.33-2.44-4.78-3.58-7.68-1.06-2.7-2.99-8.43-2.89-8.54.04-.04.68.31,1.43.77,1.98,1.24,3.58,2.03,5.4,2.65l1.61.55h2.99c11.89-.03,19.8-9.42,18.07-21.47-1.16-8.09-5.08-13.31-18.21-24.25-5.13-4.27-7.09-6.02-10.39-9.26-3.59-3.53-3.91-3.71-5.58-3.23"/>
  <text class="cls-2" transform="translate(397.65 147.35)"><tspan x="0" y="0">4</tspan></text>
  <path id="path1-2" data-name="path1" class="cls-3" d="M427.58,185.71c-.32.09-1.47,1.11-3.77,3.37-3.71,3.62-5.03,4.81-10.13,9.06-8.44,7.04-11.66,10.25-14.4,14.36-7.96,11.91-3.98,26.75,8.22,30.62,2.35.75,2.84.81,6.04.81h2.99s1.35-.47,1.35-.47c1.84-.64,3.99-1.68,5.59-2.71,1.64-1.06,1.56-1.08,1.21.17-1.15,4.08-3.96,11.11-5.71,14.26-.3.55-.78,1.4-1.05,1.89-.64,1.15-.7,1.13,1.91.75,4.89-.69,12.43-.7,17.31-.01,2.95.42,2.82.55,1.6-1.64-1.3-2.33-2.44-4.78-3.58-7.68-1.06-2.7-2.99-8.43-2.89-8.54.04-.04.68.31,1.43.77,1.98,1.24,3.58,2.03,5.4,2.65l1.61.55h2.99c11.89-.03,19.8-9.42,18.07-21.47-1.16-8.09-5.08-13.31-18.21-24.25-5.13-4.27-7.09-6.02-10.39-9.26-3.59-3.53-3.91-3.71-5.58-3.23"/>
  <text class="cls-2" transform="translate(459.49 556.36) rotate(-180)"><tspan x="0" y="0">4</tspan></text>
  <path id="path1-3" data-name="path1" class="cls-3" d="M429.57,518c.32-.09,1.47-1.11,3.77-3.37,3.71-3.62,5.03-4.81,10.13-9.06,8.44-7.04,11.66-10.25,14.4-14.36,7.96-11.91,3.98-26.75-8.22-30.62-2.35-.75-2.84-.81-6.04-.81h-2.99s-1.35.47-1.35.47c-1.84.64-3.99,1.68-5.59,2.71-1.64,1.06-1.56,1.08-1.21-.17,1.15-4.08,3.96-11.11,5.71-14.26.3-.55.78-1.4,1.05-1.89.64-1.15.7-1.13-1.91-.75-4.89.69-12.43.7-17.31.01-2.95-.42-2.82-.55-1.6,1.64,1.3,2.33,2.44,4.78,3.58,7.68,1.06,2.7,2.99,8.43,2.89,8.54-.04.04-.68-.31-1.43-.77-1.98-1.24-3.58-2.03-5.4-2.65l-1.61-.55h-2.99c-11.89.03-19.8,9.42-18.07,21.47,1.16,8.09,5.08,13.31,18.21,24.25,5.13,4.27,7.09,6.02,10.39,9.26,3.59,3.53,3.91,3.71,5.58,3.23"/>
  <text class="cls-2" transform="translate(101.17 556.36) rotate(-180)"><tspan x="0" y="0">4</tspan></text>
  <path id="path1-4" data-name="path1" class="cls-3" d="M71.24,518c.32-.09,1.47-1.11,3.77-3.37,3.71-3.62,5.03-4.81,10.13-9.06,8.44-7.04,11.66-10.25,14.4-14.36,7.96-11.91,3.98-26.75-8.22-30.62-2.35-.75-2.84-.81-6.04-.81h-2.99s-1.35.47-1.35.47c-1.84.64-3.99,1.68-5.59,2.71-1.64,1.06-1.56,1.08-1.21-.17,1.15-4.08,3.96-11.11,5.71-14.26.3-.55.78-1.4,1.05-1.89.64-1.15.7-1.13-1.91-.75-4.89.69-12.43.7-17.31.01-2.95-.42-2.82-.55-1.6,1.64,1.3,2.33,2.44,4.78,3.58,7.68,1.06,2.7,2.99,8.43,2.89,8.54-.04.04-.68-.31-1.43-.77-1.98-1.24-3.58-2.03-5.4-2.65l-1.61-.55h-2.99c-11.89.03-19.8,9.42-18.07,21.47,1.16,8.09,5.08,13.31,18.21,24.25,5.13,4.27,7.09,6.02,10.39,9.26,3.59,3.53,3.91,3.71,5.58,3.23"/>
  <path id="path1-5" data-name="path1" class="cls-3" d="M195.86,195.85c-.2.06-.9.68-2.31,2.06-2.27,2.22-3.09,2.95-6.21,5.56-5.17,4.32-7.15,6.29-8.84,8.81-4.88,7.31-2.44,16.41,5.04,18.78,1.44.46,1.74.5,3.71.5h1.83s.83-.29.83-.29c1.13-.39,2.44-1.03,3.43-1.66,1.01-.65.96-.66.74.1-.7,2.5-2.43,6.82-3.5,8.75-.19.34-.48.86-.64,1.16-.39.71-.43.69,1.17.46,3-.43,7.63-.43,10.62,0,1.81.26,1.73.34.98-1-.8-1.43-1.5-2.93-2.19-4.71-.65-1.66-1.84-5.17-1.77-5.24.03-.03.42.19.88.48,1.21.76,2.19,1.24,3.31,1.63l.99.34h1.83c7.29-.02,12.14-5.78,11.08-13.17-.71-4.96-3.12-8.17-11.17-14.88-3.14-2.62-4.35-3.69-6.37-5.68-2.2-2.16-2.4-2.28-3.42-1.98"/>
  <path id="path1-6" data-name="path1" class="cls-3" d="M195.86,462.66c-.2.06-.9.68-2.31,2.06-2.27,2.22-3.09,2.95-6.21,5.56-5.17,4.32-7.15,6.29-8.84,8.81-4.88,7.31-2.44,16.41,5.04,18.78,1.44.46,1.74.5,3.71.5h1.83s.83-.29.83-.29c1.13-.39,2.44-1.03,3.43-1.66,1.01-.65.96-.66.74.1-.7,2.5-2.43,6.82-3.5,8.75-.19.34-.48.86-.64,1.16-.39.71-.43.69,1.17.46,3-.43,7.63-.43,10.62,0,1.81.26,1.73.34.98-1-.8-1.43-1.5-2.93-2.19-4.71-.65-1.66-1.84-5.17-1.77-5.24.03-.03.42.19.88.48,1.21.76,2.19,1.24,3.31,1.63l.99.34h1.83c7.29-.02,12.14-5.78,11.08-13.17-.71-4.96-3.12-8.17-11.17-14.88-3.14-2.62-4.35-3.69-6.37-5.68-2.2-2.16-2.4-2.28-3.42-1.98"/>
  <path id="path1-7" data-name="path1" class="cls-3" d="M301.75,195.9c-.2.06-.9.68-2.31,2.06-2.27,2.22-3.09,2.95-6.21,5.56-5.17,4.32-7.15,6.29-8.84,8.81-4.88,7.31-2.44,16.41,5.04,18.78,1.44.46,1.74.5,3.71.5h1.83s.83-.29.83-.29c1.13-.39,2.44-1.03,3.43-1.66,1.01-.65.96-.66.74.1-.7,2.5-2.43,6.82-3.5,8.75-.19.34-.48.86-.64,1.16-.39.71-.43.69,1.17.46,3-.43,7.63-.43,10.62,0,1.81.26,1.73.34.98-1-.8-1.43-1.5-2.93-2.19-4.71-.65-1.66-1.84-5.17-1.77-5.24.03-.03.42.19.88.48,1.21.76,2.19,1.24,3.31,1.63l.99.34h1.83c7.29-.02,12.14-5.78,11.08-13.17-.71-4.96-3.12-8.17-11.17-14.88-3.14-2.62-4.35-3.69-6.37-5.68-2.2-2.16-2.4-2.28-3.42-1.98"/>
  <path id="path1-8" data-name="path1" class="cls-3" d="M301.75,462.66c-.2.06-.9.68-2.31,2.06-2.27,2.22-3.09,2.95-6.21,5.56-5.17,4.32-7.15,6.29-8.84,8.81-4.88,7.31-2.44,16.41,5.04,18.78,1.44.46,1.74.5,3.71.5h1.83s.83-.29.83-.29c1.13-.39,2.44-1.03,3.43-1.66,1.01-.65.96-.66.74.1-.7,2.5-2.43,6.82-3.5,8.75-.19.34-.48.86-.64,1.16-.39.71-.43.69,1.17.46,3-.43,7.63-.43,10.62,0,1.81.26,1.73.34.98-1-.8-1.43-1.5-2.93-2.19-4.71-.65-1.66-1.84-5.17-1.77-5.24.03-.03.42.19.88.48,1.21.76,2.19,1.24,3.31,1.63l.99.34h1.83c7.29-.02,12.14-5.78,11.08-13.17-.71-4.96-3.12-8.17-11.17-14.88-3.14-2.62-4.35-3.69-6.37-5.68-2.2-2.16-2.4-2.28-3.42-1.98"/>
</svg>