<?xml version="1.0" encoding="UTF-8"?>
<svg id="Calque_1" data-name="Calque 1" xmlns="http://www.w3.org/2000/svg" viewBox="0 0 500 700">
  <defs>
    <style>
      @font-face { font-family: 'Anton'; font-style: normal; font-weight: 400; src: url(https://fonts.gstatic.com/s/anton/v27/1Ptgg87LROyAm3Kz-C8.woff2) format('woff2'); unicode-range: U+0000-00FF, U+0131, U+0152-0153, U+02BB-02BC, U+02C6, U+02DA, U+02DC, U+0304, U+0308, U+0329, U+2000-206F, U+20AC, U+2122, U+2191, U+2193, U+2212, U+2215, U+FEFF, U+FFFD; }
      .cls-1 {
        font-family: Anton-Regular, Anton;
        font-size: 133.33px;
      }

      .cls-1, .cls-2 {
        fill: #b30000;
      }

      .cls-3 {
        fill: #fff;
      }

      .cls-2 {
        fill-rule: evenodd;
      }
    </style>
  </defs>
  <g>
    <rect class="cls-3" x="2.5" y="2.56" width="495" height="695" rx="47.5" ry="47.5"/>
    <path d="M450,5.06c24.81,0,45,20.19,45,45v600c0,24.81-20.19,45-45,45H50c-24.81,0-45-20.19-45-45V50.06C5,25.25,25.19,5.06,50,5.06h400M450,.06H50C22.39.06,0,22.45,0,50.06v600c0,27.61,22.39,50,50,50h400c27.61,0,50-22.39,50-50V50.06C500,22.45,477.61.06,450,.06h0Z"/>
  </g>
  <text class="cls-1" transform="translate(39.92 147.48)"><tspan x="0" y="0">7</tspan></text>
  <path id="path0" class="cls-2" d="M49.31,191.35c-15.97,3.12-22.04,21.01-12.17,35.87,3.04,4.58,6.29,7.82,16.42,16.33,7.64,6.42,10.18,8.71,13.26,11.94,3.58,3.75,4.37,3.67,8.9-.89,3.18-3.19,5.85-5.58,11.92-10.66,12.05-10.08,16.06-14.38,18.93-20.3,8-16.51-2.43-33.64-19.84-32.6-4.55.27-9.77,2.94-14.52,7.41l-1.4,1.32-1.24-1.19c-6.53-6.25-13.16-8.62-20.27-7.23"/>
  <text class="cls-1" transform="translate(398.24 147.48)"><tspan x="0" y="0">7</tspan></text>
  <path id="path0-2" data-name="path0" class="cls-2" d="M407.64,191.36c-15.97,3.12-22.04,21.01-12.17,35.87,3.04,4.58,6.29,7.82,16.42,16.33,7.64,6.42,10.18,8.71,13.26,11.94,3.58,3.75,4.37,3.67,8.9-.89,3.18-3.19,5.85-5.58,11.92-10.66,12.05-10.08,16.06-14.38,18.93-20.3,8-16.51-2.43-33.64-19.84-32.6-4.55.27-9.77,2.94-14.52,7.41l-1.4,1.32-1.24-1.19c-6.53-6.25-13.16-8.62-20.27-7.23"/>
  <text class="cls-1" transform="translate(460.08 556.48) rotate(-180)"><tspan x="0" y="0">7</tspan></text>
  <path id="path0-3" data-name="path0" class="cls-2" d="M450.69,512.61c15.97-3.12,22.04-21.01,12.17-35.87-3.04-4.58-6.29-7.82-16.42-16.33-7.64-6.42-10.18-8.71-13.26-11.94-3.58-3.75-4.37-3.67-8.9.89-3.18,3.19-5.85,5.58-11.92,10.66-12.05,10.08-16.06,14.38-18.93,20.3-8,16.51,2.43,33.64,19.84,32.6,4.55-.27,9.77-2.94,14.52-7.41l1.4-1.32,1.24,1.19c6.53,6.25,13.16,8.62,20.27,7.23"/>
  <text class="cls-1" transform="translate(101.76 556.48) rotate(-180)"><tspan x="0" y="0">7</tspan></text>
  <path id="path0-4" data-name="path0" class="cls-2" d="M92.36,512.61c15.97-3.12,22.04-21.01,12.17-35.87-3.04-4.58-6.29-7.82-16.42-16.33-7.64-6.42-10.18-8.71-13.26-11.94-3.58-3.75-4.37-3.67-8.9.89-3.18,3.19-5.85,5.58-11.92,10.66-12.05,10.08-16.06,14.38-18.93,20.3-8,16.51,2.43,33.64,19.84,32.6,4.55-.27,9.77-2.94,14.52-7.41l1.4-1.32,1.24,1.19c6.53,6.25,13.16,8.62,20.27,7.23"/>
  <path id="path0-5" data-name="path0" class="cls-2" d="M185.68,200.41c-9.76,1.91-13.47,12.84-7.44,21.93,1.86,2.8,3.85,4.78,10.04,9.98,4.67,3.92,6.22,5.32,8.11,7.3,2.19,2.29,2.67,2.24,5.44-.54,1.94-1.95,3.57-3.41,7.29-6.52,7.36-6.16,9.82-8.79,11.57-12.41,4.89-10.1-1.48-20.56-12.13-19.93-2.78.17-5.97,1.8-8.87,4.53l-.86.81-.76-.73c-3.99-3.82-8.04-5.27-12.39-4.42"/>
  <path id="path0-6" data-name="path0" class="cls-2" d="M186.11,333.36c-9.76,1.91-13.47,12.84-7.44,21.93,1.86,2.8,3.85,4.78,10.04,9.98,4.67,3.92,6.22,5.32,8.11,7.3,2.19,2.29,2.67,2.24,5.44-.54,1.94-1.95,3.57-3.41,7.29-6.52,7.36-6.16,9.82-8.79,11.57-12.41,4.89-10.1-1.48-20.56-12.13-19.93-2.78.17-5.97,1.8-8.87,4.53l-.86.81-.76-.73c-3.99-3.82-8.04-5.27-12.39-4.42"/>
  <path id="path0-7" data-name="path0" class="cls-2" d="M185.68,466.32c-9.76,1.91-13.47,12.84-7.44,21.93,1.86,2.8,3.85,4.78,10.04,9.98,4.67,3.92,6.22,5.32,8.11,7.3,2.19,2.29,2.67,2.24,5.44-.54,1.94-1.95,3.57-3.41,7.29-6.52,7.36-6.16,9.82-8.79,11.57-12.41,4.89-10.1-1.48-20.56-12.13-19.93-2.78.17-5.97,1.8-8.87,4.53l-.86.81-.76-.73c-3.99-3.82-8.04-5.27-12.39-4.42"/>
  <path id="path0-8" data-name="path0" class="cls-2" d="M236.25,265.23c-9.76,1.91-13.47,12.84-7.44,21.93,1.86,2.8,3.85,4.78,10.04,9.98,4.67,3.92,6.22,5.32,8.11,7.3,2.19,2.29,2.67,2.24,5.44-.54,1.94-1.95,3.57-3.41,7.29-6.52,7.36-6.16,9.82-8.79,11.57-12.41,4.89-10.1-1.48-20.56-12.13-19.93-2.78.17-5.97,1.8-8.87,4.53l-.86.81-.76-.73c-3.99-3.82-8.04-5.27-12.39-4.42"/>
  <path id="path0-9" data-name="path0" class="cls-2" d="M288.1,200.45c-9.76,1.91-13.47,12.84-7.44,21.93,1.86,2.8,3.85,4.78,10.04,9.98,4.67,3.92,6.22,5.32,8.11,7.3,2.19,2.29,2.67,2.24,5.44-.54,1.94-1.95,3.57-3.41,7.29-6.52,7.36-6.16,9.82-8.79,11.57-12.41,4.89-10.1-1.48-20.56-12.13-19.93-2.78.17-5.97,1.8-8.87,4.53l-.86.81-.76-.73c-3.99-3.82-8.04-5.27-12.39-4.42"/>
  <path id="path0-10" data-name="path0" class="cls-2" d="M288.1,333.36c-9.76,1.91-13.47,12.84-7.44,21.93,1.86,2.8,3.85,4.78,10.04,9.98,4.67,3.92,6.22,5.32,8.11,7.3,2.19,2.29,2.67,2.24,5.44-.54,1.94-1.95,3.57-3.41,7.29-6.52,7.36-6.16,9.82-8.79,11.57-12.41,4.89-10.1-1.48-20.56-12.13-19.93-2.78.17-5.97,1.8-8.87,4.53l-.86.81-.76-.73c-3.99-3.82-8.04-5.27-12.39-4.42"/>
  <path id="path0-11" data-name="path0" class="cls-2" d="M288.1,466.32c-9.76,1.91-13.47,12.84-7.44,21.93,1.86,2.8,3.85,4.78,10.04,9.98,4.67,3.92,6.22,5.32,8.11,7.3,2.19,2.29,2.67,2.24,5.44-.54,1.94-1.95,3.57-3.41,7.29-6.52,7.36-6.16,9.82-8.79,11.57-12.41,4.89-10.1-1.48-20.56-12.13-19.93-2.78.17-5.97,1.8-8.87,4.53l-.86.81-.76-.73c-3.99-3.82-8.04-5.27-12.39-4.42"/>
</svg>