<?xml version="1.0" encoding="UTF-8"?>
<svg id="Calque_1" data-name="Calque 1" xmlns="http://www.w3.org/2000/svg" viewBox="0 0 500 700">
  <defs>
    <style>
      @font-face { font-family: 'Anton'; font-style: normal; font-weight: 400; src: url(https://fonts.gstatic.com/s/anton/v27/1Ptgg87LROyAm3Kz-C8.woff2) format('woff2'); unicode-range: U+0000-00FF, U+0131, U+0152-0153, U+02BB-02BC, U+02C6, U+02DA, U+02DC, U+0304, U+0308, U+0329, U+2000-206F, U+20AC, U+2122, U+2191, U+2193, U+2212, U+2215, U+FEFF, U+FFFD; }
      .cls-1 {
        font-family: Anton-Regular, Anton;
        font-size: 133.33px;
      }

      .cls-1, .cls-2 {
        fill: #b30000;
      }

      .cls-3 {
        fill: #fff;
      }

      .cls-2 {
        fill-rule: evenodd;
      }
    </style>
  </defs>
  <g>
    <rect class="cls-3" x="1.33" y="2.5" width="495" height="695" rx="47.5" ry="47.5"/>
    <path d="M448.83,5c24.81,0,45,20.19,45,45v600c0,24.81-20.19,45-45,45H48.83c-24.81,0-45-20.19-45-45V50C3.83,25.19,24.01,5,48.83,5h400M448.83,0H48.83C21.21,0-1.17,22.39-1.17,50v600c0,27.61,22.39,50,50,50h400c27.61,0,50-22.39,50-50V50c0-27.61-22.39-50-50-50h0Z"/>
  </g>
  <text class="cls-1" transform="translate(38.74 147.41)"><tspan x="0" y="0">8</tspan></text>
  <path id="path3" class="cls-2" d="M68.15,176.4c-1.05.39-1.46.87-16.06,18.85-19.68,24.25-18.36,22.5-18.37,24.3v1.2s1.17,1.52,1.17,1.52c2.99,3.86,23.82,29.68,28.29,35.07,3.66,4.41,4.28,5.05,5.13,5.28,1.96.54,3.19.05,4.9-1.94,2.98-3.47,15.63-19.03,26.72-32.89,6.09-7.6,6.37-8.18,5.05-10.18-1.29-1.95-28.79-35.98-32.13-39.75-1.47-1.66-2.94-2.12-4.7-1.48"/>
  <text class="cls-1" transform="translate(397.07 147.41)"><tspan x="0" y="0">8</tspan></text>
  <path id="path3-2" data-name="path3" class="cls-2" d="M426.48,176.4c-1.05.39-1.46.87-16.06,18.85-19.68,24.25-18.36,22.5-18.37,24.3v1.2s1.17,1.52,1.17,1.52c2.99,3.86,23.82,29.68,28.29,35.07,3.66,4.41,4.28,5.05,5.13,5.28,1.96.54,3.19.05,4.9-1.94,2.98-3.47,15.63-19.03,26.72-32.89,6.09-7.6,6.37-8.18,5.05-10.18-1.29-1.95-28.79-35.98-32.13-39.75-1.47-1.66-2.94-2.12-4.7-1.48"/>
  <text class="cls-1" transform="translate(458.91 556.42) rotate(-180)"><tspan x="0" y="0">8</tspan></text>
  <path id="path3-3" data-name="path3" class="cls-2" d="M429.5,527.43c1.05-.39,1.46-.87,16.06-18.85,19.68-24.25,18.36-22.5,18.37-24.3v-1.2s-1.17-1.52-1.17-1.52c-2.99-3.86-23.82-29.68-28.29-35.07-3.66-4.41-4.28-5.05-5.13-5.28-1.96-.54-3.19-.05-4.9,1.94-2.98,3.47-15.63,19.03-26.72,32.89-6.09,7.6-6.37,8.18-5.05,10.18,1.29,1.95,28.79,35.98,32.13,39.75,1.47,1.66,2.94,2.12,4.7,1.48"/>
  <text class="cls-1" transform="translate(100.58 556.42) rotate(-180)"><tspan x="0" y="0">8</tspan></text>
  <path id="path3-4" data-name="path3" class="cls-2" d="M71.17,527.43c1.05-.39,1.46-.87,16.06-18.85,19.68-24.25,18.36-22.5,18.37-24.3v-1.2s-1.17-1.52-1.17-1.52c-2.99-3.86-23.82-29.68-28.29-35.07-3.66-4.41-4.28-5.05-5.13-5.28-1.96-.54-3.19-.05-4.9,1.94-2.98,3.47-15.63,19.03-26.72,32.89-6.09,7.6-6.37,8.18-5.05,10.18,1.29,1.95,28.79,35.98,32.13,39.75,1.47,1.66,2.94,2.12,4.7,1.48"/>
  <path id="path3-5" data-name="path3" class="cls-2" d="M196.74,191.24c-.64.24-.89.53-9.82,11.53-12.03,14.82-11.23,13.76-11.23,14.86v.74s.72.93.72.93c1.83,2.36,14.56,18.15,17.29,21.44,2.24,2.7,2.62,3.09,3.14,3.23,1.2.33,1.95.03,2.99-1.18,1.82-2.12,9.55-11.64,16.34-20.11,3.72-4.65,3.89-5,3.09-6.22-.79-1.19-17.6-22-19.64-24.3-.9-1.01-1.8-1.3-2.87-.9"/>
  <path id="path3-6" data-name="path3" class="cls-2" d="M197.17,324.2c-.64.24-.89.53-9.82,11.53-12.03,14.82-11.23,13.76-11.23,14.86v.74s.72.93.72.93c1.83,2.36,14.56,18.15,17.29,21.44,2.24,2.7,2.62,3.09,3.14,3.23,1.2.33,1.95.03,2.99-1.18,1.82-2.12,9.55-11.64,16.34-20.11,3.72-4.65,3.89-5,3.09-6.22-.79-1.19-17.6-22-19.64-24.3-.9-1.01-1.8-1.3-2.87-.9"/>
  <path id="path3-7" data-name="path3" class="cls-2" d="M196.74,457.16c-.64.24-.89.53-9.82,11.53-12.03,14.82-11.23,13.76-11.23,14.86v.74s.72.93.72.93c1.83,2.36,14.56,18.15,17.29,21.44,2.24,2.7,2.62,3.09,3.14,3.23,1.2.33,1.95.03,2.99-1.18,1.82-2.12,9.55-11.64,16.34-20.11,3.72-4.65,3.89-5,3.09-6.22-.79-1.19-17.6-22-19.64-24.3-.9-1.01-1.8-1.3-2.87-.9"/>
  <path id="path3-8" data-name="path3" class="cls-2" d="M247.31,392.33c-.64.24-.89.53-9.82,11.53-12.03,14.82-11.23,13.76-11.23,14.86v.74s.72.93.72.93c1.83,2.36,14.56,18.15,17.29,21.44,2.24,2.7,2.62,3.09,3.14,3.23,1.2.33,1.95.03,2.99-1.18,1.82-2.12,9.55-11.64,16.34-20.11,3.72-4.65,3.89-5,3.09-6.22-.79-1.19-17.6-22-19.64-24.3-.9-1.01-1.8-1.3-2.87-.9"/>
  <path id="path3-9" data-name="path3" class="cls-2" d="M247.31,256.07c-.64.24-.89.53-9.82,11.53-12.03,14.82-11.23,13.76-11.23,14.86v.74s.72.93.72.93c1.83,2.36,14.56,18.15,17.29,21.44,2.24,2.7,2.62,3.09,3.14,3.23,1.2.33,1.95.03,2.99-1.18,1.82-2.12,9.55-11.64,16.34-20.11,3.72-4.65,3.89-5,3.09-6.22-.79-1.19-17.6-22-19.64-24.3-.9-1.01-1.8-1.3-2.87-.9"/>
  <path id="path3-10" data-name="path3" class="cls-2" d="M299.16,191.29c-.64.24-.89.53-9.82,11.53-12.03,14.82-11.23,13.76-11.23,14.86v.74s.72.93.72.93c1.83,2.36,14.56,18.15,17.29,21.44,2.24,2.7,2.62,3.09,3.14,3.23,1.2.33,1.95.03,2.99-1.18,1.82-2.12,9.55-11.64,16.34-20.11,3.72-4.65,3.89-5,3.09-6.22-.79-1.19-17.6-22-19.64-24.3-.9-1.01-1.8-1.3-2.87-.9"/>
  <path id="path3-11" data-name="path3" class="cls-2" d="M299.16,324.2c-.64.24-.89.53-9.82,11.53-12.03,14.82-11.23,13.76-11.23,14.86v.74s.72.93.72.93c1.83,2.36,14.56,18.15,17.29,21.44,2.24,2.7,2.62,3.09,3.14,3.23,1.2.33,1.95.03,2.99-1.18,1.82-2.12,9.55-11.64,16.34-20.11,3.72-4.65,3.89-5,3.09-6.22-.79-1.19-17.6-22-19.64-24.3-.9-1.01-1.8-1.3-2.87-.9"/>
  <path id="path3-12" data-name="path3" class="cls-2" d="M299.16,457.16c-.64.24-.89.53-9.82,11.53-12.03,14.82-11.23,13.76-11.23,14.86v.74s.72.93.72.93c1.83,2.36,14.56,18.15,17.29,21.44,2.24,2.7,2.62,3.09,3.14,3.23,1.2.33,1.95.03,2.99-1.18,1.82-2.12,9.55-11.64,16.34-20.11,3.72-4.65,3.89-5,3.09-6.22-.79-1.19-17.6-22-19.64-24.3-.9-1.01-1.8-1.3-2.87-.9"/>
</svg>