<?xml version="1.0" encoding="UTF-8"?>
<svg id="Calque_1" data-name="Calque 1" xmlns="http://www.w3.org/2000/svg" viewBox="0 0 500 700">
  <defs>
    <style>
      @font-face { font-family: 'Anton'; font-style: normal; font-weight: 400; src: url(https://fonts.gstatic.com/s/anton/v27/1Ptgg87LROyAm3Kz-C8.woff2) format('woff2'); unicode-range: U+0000-00FF, U+0131, U+0152-0153, U+02BB-02BC, U+02C6, U+02DA, U+02DC, U+0304, U+0308, U+0329, U+2000-206F, U+20AC, U+2122, U+2191, U+2193, U+2212, U+2215, U+FEFF, U+FFFD; }
      .cls-1 {
        font-family: Anton-Regular, Anton;
        font-size: 133.33px;
      }

      .cls-1, .cls-2 {
        fill: #b30000;
      }

      .cls-3 {
        fill: #fff;
      }

      .cls-2 {
        fill-rule: evenodd;
      }
    </style>
  </defs>
  <g>
    <rect class="cls-3" x="2.5" y="2.44" width="495" height="695" rx="47.5" ry="47.5"/>
    <path d="M450,4.94c24.81,0,45,20.19,45,45v600c0,24.81-20.19,45-45,45H50c-24.81,0-45-20.19-45-45V49.94C5,25.12,25.19,4.94,50,4.94h400M450-.06H50C22.39-.06,0,22.32,0,49.94v600c0,27.61,22.39,50,50,50h400c27.61,0,50-22.39,50-50V49.94C500,22.32,477.61-.06,450-.06h0Z"/>
  </g>
  <text class="cls-1" transform="translate(39.25 147.35)"><tspan x="0" y="0">9</tspan></text>
  <path id="path0" class="cls-2" d="M49.31,191.23c-15.97,3.12-22.04,21.01-12.17,35.87,3.04,4.58,6.29,7.82,16.42,16.33,7.64,6.42,10.18,8.71,13.26,11.94,3.58,3.75,4.37,3.67,8.9-.89,3.18-3.19,5.85-5.58,11.92-10.66,12.05-10.08,16.06-14.38,18.93-20.3,8-16.51-2.43-33.64-19.84-32.6-4.55.27-9.77,2.94-14.52,7.41l-1.4,1.32-1.24-1.19c-6.53-6.25-13.16-8.62-20.27-7.23"/>
  <text class="cls-1" transform="translate(397.58 147.35)"><tspan x="0" y="0">9</tspan></text>
  <path id="path0-2" data-name="path0" class="cls-2" d="M407.64,191.23c-15.97,3.12-22.04,21.01-12.17,35.87,3.04,4.58,6.29,7.82,16.42,16.33,7.64,6.42,10.18,8.71,13.26,11.94,3.58,3.75,4.37,3.67,8.9-.89,3.18-3.19,5.85-5.58,11.92-10.66,12.05-10.08,16.06-14.38,18.93-20.3,8-16.51-2.43-33.64-19.84-32.6-4.55.27-9.77,2.94-14.52,7.41l-1.4,1.32-1.24-1.19c-6.53-6.25-13.16-8.62-20.27-7.23"/>
  <text class="cls-1" transform="translate(460.75 556.36) rotate(-180)"><tspan x="0" y="0">9</tspan></text>
  <path id="path0-3" data-name="path0" class="cls-2" d="M450.69,512.48c15.97-3.12,22.04-21.01,12.17-35.87-3.04-4.58-6.29-7.82-16.42-16.33-7.64-6.42-10.18-8.71-13.26-11.94-3.58-3.75-4.37-3.67-8.9.89-3.18,3.19-5.85,5.58-11.92,10.66-12.05,10.08-16.06,14.38-18.93,20.3-8,16.51,2.43,33.64,19.84,32.6,4.55-.27,9.77-2.94,14.52-7.41l1.4-1.32,1.24,1.19c6.53,6.25,13.16,8.62,20.27,7.23"/>
  <text class="cls-1" transform="translate(102.42 556.36) rotate(-180)"><tspan x="0" y="0">9</tspan></text>
  <path id="path0-4" data-name="path0" class="cls-2" d="M92.36,512.48c15.97-3.12,22.04-21.01,12.17-35.87-3.04-4.58-6.29-7.82-16.42-16.33-7.64-6.42-10.18-8.71-13.26-11.94-3.58-3.75-4.37-3.67-8.9.89-3.18,3.19-5.85,5.58-11.92,10.66-12.05,10.08-16.06,14.38-18.93,20.3-8,16.51,2.43,33.64,19.84,32.6,4.55-.27,9.77-2.94,14.52-7.41l1.4-1.32,1.24,1.19c6.53,6.25,13.16,8.62,20.27,7.23"/>
  <path id="path0-5" data-name="path0" class="cls-2" d="M183.85,198.71c-9.8,1.91-13.52,12.89-7.46,22,1.87,2.81,3.86,4.79,10.07,10.01,4.68,3.94,6.24,5.34,8.14,7.32,2.19,2.3,2.68,2.25,5.46-.55,1.95-1.96,3.59-3.42,7.31-6.54,7.39-6.18,9.85-8.82,11.61-12.45,4.9-10.13-1.49-20.63-12.17-20-2.79.17-5.99,1.8-8.9,4.55l-.86.81-.76-.73c-4-3.84-8.07-5.29-12.43-4.44"/>
  <path id="path0-6" data-name="path0" class="cls-2" d="M184.29,287.65c-9.8,1.91-13.52,12.89-7.46,22,1.87,2.81,3.86,4.79,10.07,10.01,4.68,3.94,6.24,5.34,8.14,7.32,2.19,2.3,2.68,2.25,5.46-.55,1.95-1.96,3.59-3.42,7.31-6.54,7.39-6.18,9.85-8.82,11.61-12.45,4.9-10.13-1.49-20.63-12.17-20-2.79.17-5.99,1.8-8.9,4.55l-.86.81-.76-.73c-4-3.84-8.07-5.29-12.43-4.44"/>
  <path id="path0-7" data-name="path0" class="cls-2" d="M184.29,376.58c-9.8,1.91-13.52,12.89-7.46,22,1.87,2.81,3.86,4.79,10.07,10.01,4.68,3.94,6.24,5.34,8.14,7.32,2.19,2.3,2.68,2.25,5.46-.55,1.95-1.96,3.59-3.42,7.31-6.54,7.39-6.18,9.85-8.82,11.61-12.45,4.9-10.13-1.49-20.63-12.17-20-2.79.17-5.99,1.8-8.9,4.55l-.86.81-.76-.73c-4-3.84-8.07-5.29-12.43-4.44"/>
  <path id="path0-8" data-name="path0" class="cls-2" d="M183.85,465.52c-9.8,1.91-13.52,12.89-7.46,22,1.87,2.81,3.86,4.79,10.07,10.01,4.68,3.94,6.24,5.34,8.14,7.32,2.19,2.3,2.68,2.25,5.46-.55,1.95-1.96,3.59-3.42,7.31-6.54,7.39-6.18,9.85-8.82,11.61-12.45,4.9-10.13-1.49-20.63-12.17-20-2.79.17-5.99,1.8-8.9,4.55l-.86.81-.76-.73c-4-3.84-8.07-5.29-12.43-4.44"/>
  <path id="path0-9" data-name="path0" class="cls-2" d="M236.78,424.4c-9.8,1.91-13.52,12.89-7.46,22,1.87,2.81,3.86,4.79,10.07,10.01,4.68,3.94,6.24,5.34,8.14,7.32,2.19,2.3,2.68,2.25,5.46-.55,1.95-1.96,3.59-3.42,7.31-6.54,7.39-6.18,9.85-8.82,11.61-12.45,4.9-10.13-1.49-20.63-12.17-20-2.79.17-5.99,1.8-8.9,4.55l-.86.81-.76-.73c-4-3.84-8.07-5.29-12.43-4.44"/>
  <path id="path0-10" data-name="path0" class="cls-2" d="M236.78,244.9c-9.8,1.91-13.52,12.89-7.46,22,1.87,2.81,3.86,4.79,10.07,10.01,4.68,3.94,6.24,5.34,8.14,7.32,2.19,2.3,2.68,2.25,5.46-.55,1.95-1.96,3.59-3.42,7.31-6.54,7.39-6.18,9.85-8.82,11.61-12.45,4.9-10.13-1.49-20.63-12.17-20-2.79.17-5.99,1.8-8.9,4.55l-.86.81-.76-.73c-4-3.84-8.07-5.29-12.43-4.44"/>
  <path id="path0-11" data-name="path0" class="cls-2" d="M289.27,198.75c-9.8,1.91-13.52,12.89-7.46,22,1.87,2.81,3.86,4.79,10.07,10.01,4.68,3.94,6.24,5.34,8.14,7.32,2.19,2.3,2.68,2.25,5.46-.55,1.95-1.96,3.59-3.42,7.31-6.54,7.39-6.18,9.85-8.82,11.61-12.45,4.9-10.13-1.49-20.63-12.17-20-2.79.17-5.99,1.8-8.9,4.55l-.86.81-.76-.73c-4-3.84-8.07-5.29-12.43-4.44"/>
  <path id="path0-12" data-name="path0" class="cls-2" d="M289.27,287.68c-9.8,1.91-13.52,12.89-7.46,22,1.87,2.81,3.86,4.79,10.07,10.01,4.68,3.94,6.24,5.34,8.14,7.32,2.19,2.3,2.68,2.25,5.46-.55,1.95-1.96,3.59-3.42,7.31-6.54,7.39-6.18,9.85-8.82,11.61-12.45,4.9-10.13-1.49-20.63-12.17-20-2.79.17-5.99,1.8-8.9,4.55l-.86.81-.76-.73c-4-3.84-8.07-5.29-12.43-4.44"/>
  <path id="path0-13" data-name="path0" class="cls-2" d="M289.27,376.6c-9.8,1.91-13.52,12.89-7.46,22,1.87,2.81,3.86,4.79,10.07,10.01,4.68,3.94,6.24,5.34,8.14,7.32,2.19,2.3,2.68,2.25,5.46-.55,1.95-1.96,3.59-3.42,7.31-6.54,7.39-6.18,9.85-8.82,11.61-12.45,4.9-10.13-1.49-20.63-12.17-20-2.79.17-5.99,1.8-8.9,4.55l-.86.81-.76-.73c-4-3.84-8.07-5.29-12.43-4.44"/>
  <path id="path0-14" data-name="path0" class="cls-2" d="M289.27,465.52c-9.8,1.91-13.52,12.89-7.46,22,1.87,2.81,3.86,4.79,10.07,10.01,4.68,3.94,6.24,5.34,8.14,7.32,2.19,2.3,2.68,2.25,5.46-.55,1.95-1.96,3.59-3.42,7.31-6.54,7.39-6.18,9.85-8.82,11.61-12.45,4.9-10.13-1.49-20.63-12.17-20-2.79.17-5.99,1.8-8.9,4.55l-.86.81-.76-.73c-4-3.84-8.07-5.29-12.43-4.44"/>
</svg>