<?xml version="1.0" encoding="UTF-8"?>
<svg id="Calque_1" data-name="Calque 1" xmlns="http://www.w3.org/2000/svg" viewBox="0 0 500 700">
  <defs>
    <style>
      @font-face { font-family: 'Anton'; font-style: normal; font-weight: 400; src: url(https://fonts.gstatic.com/s/anton/v27/1Ptgg87LROyAm3Kz-C8.woff2) format('woff2'); unicode-range: U+0000-00FF, U+0131, U+0152-0153, U+02BB-02BC, U+02C6, U+02DA, U+02DC, U+0304, U+0308, U+0329, U+2000-206F, U+20AC, U+2122, U+2191, U+2193, U+2212, U+2215, U+FEFF, U+FFFD; }
      .cls-1 {
        fill: #fff;
      }

      .cls-2 {
        font-family: Anton-Regular, Anton;
        font-size: 133.33px;
      }

      .cls-3 {
        fill-rule: evenodd;
      }
    </style>
  </defs>
  <g>
    <rect class="cls-1" x="1.33" y="2.44" width="495" height="695" rx="47.5" ry="47.5"/>
    <path d="M448.83,4.94c24.81,0,45,20.19,45,45v600c0,24.81-20.19,45-45,45H48.83c-24.81,0-45-20.19-45-45V49.94C3.83,25.12,24.01,4.94,48.83,4.94h400M448.83-.06H48.83C21.21-.06-1.17,22.32-1.17,49.94v600c0,27.61,22.39,50,50,50h400c27.61,0,50-22.39,50-50V49.94C498.83,22.32,476.44-.06,448.83-.06h0Z"/>
  </g>
  <text class="cls-2" transform="translate(38.74 147.35)"><tspan x="0" y="0">8</tspan></text>
  <path id="path2" class="cls-3" d="M66.29,185.92c-9.68,2.58-14.07,12.72-9.48,21.85,1.02,2.02,1.89,3.29,5.07,7.35,3.13,4,5.39,7.61,5,8-.03.03-1.37-.95-2.96-2.2-8.41-6.55-10.35-7.47-15.78-7.49-6.12-.02-10.86,2.97-13.45,8.5-4.31,9.21,2.27,20.13,12.4,20.57,5.63.24,8.29-.91,15.95-6.87,3.77-2.94,4.75-3.61,4.75-3.26,0,.3-1.03,4.37-1.79,7.08-1.93,6.86-4.7,13.86-6.94,17.54-.29.47-.52.91-.52.98,0,.15,1,.06,3.27-.29,2.38-.37,13.22-.36,15.66,0,2.26.34,3.27.44,3.27.3,0-.06-.38-.79-.85-1.62-2.67-4.76-4.97-10.89-7.24-19.37-.91-3.39-1.16-4.54-1.02-4.63.15-.09,1.62.97,5.16,3.73,6.81,5.31,9.2,6.37,14.42,6.37,13.23,0,19.69-15.4,10.39-24.78-3.07-3.09-5.96-4.26-10.54-4.26-5.27,0-7.41,1.04-15.94,7.74-2.67,2.1-2.86,2.21-2.7,1.69.45-1.5,1.82-3.58,5.32-8.08,6.06-7.78,7.53-12.15,6.13-18.09-1.78-7.54-10.24-12.71-17.57-10.76"/>
  <text class="cls-2" transform="translate(397.07 147.35)"><tspan x="0" y="0">8</tspan></text>
  <path id="path2-2" data-name="path2" class="cls-3" d="M424.62,185.93c-9.68,2.58-14.07,12.72-9.48,21.85,1.02,2.02,1.89,3.29,5.07,7.35,3.13,4,5.39,7.61,5,8-.03.03-1.37-.95-2.96-2.2-8.41-6.55-10.35-7.47-15.78-7.49-6.12-.02-10.86,2.97-13.45,8.5-4.31,9.21,2.27,20.13,12.4,20.57,5.63.24,8.29-.91,15.95-6.87,3.77-2.94,4.75-3.61,4.75-3.26,0,.3-1.03,4.37-1.79,7.08-1.93,6.86-4.7,13.86-6.94,17.54-.29.47-.52.91-.52.98,0,.15,1,.06,3.27-.29,2.38-.37,13.22-.36,15.66,0,2.26.34,3.27.44,3.27.3,0-.06-.38-.79-.85-1.62-2.67-4.76-4.97-10.89-7.24-19.37-.91-3.39-1.16-4.54-1.02-4.63.15-.09,1.62.97,5.16,3.73,6.81,5.31,9.2,6.37,14.42,6.37,13.23,0,19.69-15.4,10.39-24.78-3.07-3.09-5.96-4.26-10.54-4.26-5.27,0-7.41,1.04-15.94,7.74-2.68,2.1-2.86,2.21-2.7,1.69.45-1.5,1.82-3.58,5.32-8.08,6.06-7.78,7.53-12.15,6.13-18.09-1.78-7.54-10.24-12.71-17.57-10.76"/>
  <text class="cls-2" transform="translate(458.91 556.36) rotate(-180)"><tspan x="0" y="0">8</tspan></text>
  <path id="path2-3" data-name="path2" class="cls-3" d="M431.36,517.78c9.68-2.58,14.07-12.72,9.48-21.85-1.02-2.02-1.89-3.29-5.07-7.35-3.13-4-5.39-7.61-5-8,.03-.03,1.37.95,2.96,2.2,8.41,6.55,10.35,7.47,15.78,7.49,6.12.02,10.86-2.97,13.45-8.5,4.31-9.21-2.27-20.13-12.4-20.57-5.63-.24-8.29.91-15.95,6.87-3.77,2.94-4.75,3.61-4.75,3.26,0-.3,1.03-4.37,1.79-7.08,1.93-6.86,4.7-13.86,6.94-17.54.29-.47.52-.91.52-.98,0-.15-1-.06-3.27.29-2.38.37-13.22.36-15.66,0-2.26-.34-3.27-.44-3.27-.3,0,.06.38.79.85,1.62,2.67,4.76,4.97,10.89,7.24,19.37.91,3.39,1.16,4.54,1.02,4.63-.15.09-1.62-.97-5.16-3.73-6.81-5.31-9.2-6.37-14.42-6.37-13.23,0-19.69,15.4-10.39,24.78,3.07,3.09,5.96,4.26,10.54,4.26,5.27,0,7.41-1.04,15.94-7.74,2.68-2.1,2.86-2.21,2.7-1.69-.45,1.5-1.82,3.58-5.32,8.08-6.06,7.78-7.53,12.15-6.13,18.09,1.78,7.54,10.24,12.71,17.57,10.76"/>
  <text class="cls-2" transform="translate(100.58 556.36) rotate(-180)"><tspan x="0" y="0">8</tspan></text>
  <path id="path2-4" data-name="path2" class="cls-3" d="M73.03,517.78c9.68-2.58,14.07-12.72,9.48-21.85-1.02-2.02-1.89-3.29-5.07-7.35-3.13-4-5.39-7.61-5-8,.03-.03,1.37.95,2.96,2.2,8.41,6.55,10.35,7.47,15.78,7.49,6.12.02,10.86-2.97,13.45-8.5,4.31-9.21-2.27-20.13-12.4-20.57-5.63-.24-8.29.91-15.95,6.87-3.77,2.94-4.75,3.61-4.75,3.26,0-.3,1.03-4.37,1.79-7.08,1.93-6.86,4.7-13.86,6.94-17.54.29-.47.52-.91.52-.98,0-.15-1-.06-3.27.29-2.38.37-13.22.36-15.66,0-2.26-.34-3.27-.44-3.27-.3,0,.06.38.79.85,1.62,2.67,4.76,4.97,10.89,7.24,19.37.91,3.39,1.16,4.54,1.02,4.63-.15.09-1.62-.97-5.16-3.73-6.81-5.31-9.2-6.37-14.42-6.37-13.23,0-19.69,15.4-10.39,24.78,3.07,3.09,5.96,4.26,10.54,4.26,5.27,0,7.41-1.04,15.94-7.74,2.68-2.1,2.86-2.21,2.7-1.69-.45,1.5-1.82,3.58-5.32,8.08-6.06,7.78-7.53,12.15-6.13,18.09,1.78,7.54,10.24,12.71,17.57,10.76"/>
  <path id="path2-5" data-name="path2" class="cls-3" d="M195.6,197.04c-5.91,1.58-8.6,7.77-5.79,13.36.62,1.24,1.16,2.01,3.1,4.49,1.91,2.44,3.29,4.65,3.06,4.89-.02.02-.84-.58-1.81-1.34-5.14-4.01-6.33-4.57-9.65-4.58-3.74-.01-6.64,1.82-8.22,5.19-2.64,5.63,1.39,12.31,7.58,12.57,3.44.15,5.07-.55,9.75-4.2,2.31-1.8,2.9-2.2,2.9-1.99,0,.19-.63,2.67-1.1,4.33-1.18,4.19-2.87,8.48-4.24,10.72-.17.29-.32.56-.32.6,0,.09.61.04,2-.18,1.45-.23,8.08-.22,9.57,0,1.38.21,2,.27,2,.18,0-.04-.23-.48-.52-.99-1.63-2.91-3.04-6.66-4.43-11.84-.56-2.07-.71-2.78-.62-2.83.09-.06.99.59,3.15,2.28,4.16,3.25,5.62,3.89,8.81,3.9,8.09,0,12.04-9.42,6.35-15.15-1.87-1.89-3.64-2.6-6.44-2.6-3.22,0-4.53.64-9.75,4.73-1.64,1.28-1.75,1.35-1.65,1.03.28-.92,1.11-2.19,3.25-4.94,3.7-4.76,4.61-7.43,3.75-11.06-1.09-4.61-6.26-7.77-10.74-6.58"/>
  <path id="path2-6" data-name="path2" class="cls-3" d="M196.03,330c-5.91,1.58-8.6,7.77-5.79,13.36.62,1.24,1.16,2.01,3.1,4.49,1.91,2.44,3.29,4.65,3.06,4.89-.02.02-.84-.58-1.81-1.34-5.14-4.01-6.33-4.57-9.65-4.58-3.74-.01-6.64,1.82-8.22,5.19-2.64,5.63,1.39,12.31,7.58,12.57,3.44.15,5.07-.55,9.75-4.2,2.31-1.8,2.9-2.2,2.9-1.99,0,.19-.63,2.67-1.1,4.33-1.18,4.19-2.87,8.48-4.24,10.72-.17.29-.32.56-.32.6,0,.09.61.04,2-.18,1.45-.23,8.08-.22,9.57,0,1.38.21,2,.27,2,.18,0-.04-.23-.48-.52-.99-1.63-2.91-3.04-6.66-4.43-11.84-.56-2.07-.71-2.78-.62-2.83.09-.06.99.59,3.15,2.28,4.16,3.25,5.62,3.89,8.81,3.9,8.09,0,12.04-9.42,6.35-15.15-1.87-1.89-3.64-2.6-6.44-2.6-3.22,0-4.53.64-9.75,4.73-1.64,1.28-1.75,1.35-1.65,1.03.28-.92,1.11-2.19,3.25-4.94,3.7-4.76,4.61-7.43,3.75-11.06-1.09-4.61-6.26-7.77-10.74-6.58"/>
  <path id="path2-7" data-name="path2" class="cls-3" d="M195.6,462.96c-5.91,1.58-8.6,7.77-5.79,13.36.62,1.24,1.16,2.01,3.1,4.49,1.91,2.44,3.29,4.65,3.06,4.89-.02.02-.84-.58-1.81-1.34-5.14-4.01-6.33-4.57-9.65-4.58-3.74-.01-6.64,1.82-8.22,5.19-2.64,5.63,1.39,12.31,7.58,12.57,3.44.15,5.07-.55,9.75-4.2,2.31-1.8,2.9-2.2,2.9-1.99,0,.19-.63,2.67-1.1,4.33-1.18,4.19-2.87,8.48-4.24,10.72-.17.29-.32.56-.32.6,0,.09.61.04,2-.18,1.45-.23,8.08-.22,9.57,0,1.38.21,2,.27,2,.18,0-.04-.23-.48-.52-.99-1.63-2.91-3.04-6.66-4.43-11.84-.56-2.07-.71-2.78-.62-2.83.09-.06.99.59,3.15,2.28,4.16,3.25,5.62,3.89,8.81,3.9,8.09,0,12.04-9.42,6.35-15.15-1.87-1.89-3.64-2.6-6.44-2.6-3.22,0-4.53.64-9.75,4.73-1.64,1.28-1.75,1.35-1.65,1.03.28-.92,1.11-2.19,3.25-4.94,3.7-4.76,4.61-7.43,3.75-11.06-1.09-4.61-6.26-7.77-10.74-6.58"/>
  <path id="path2-8" data-name="path2" class="cls-3" d="M246.18,398.13c-5.91,1.58-8.6,7.77-5.79,13.36.62,1.24,1.16,2.01,3.1,4.49,1.91,2.44,3.29,4.65,3.06,4.89-.02.02-.84-.58-1.81-1.34-5.14-4.01-6.33-4.57-9.65-4.58-3.74-.01-6.64,1.82-8.22,5.19-2.64,5.63,1.39,12.31,7.58,12.57,3.44.15,5.07-.55,9.75-4.2,2.31-1.8,2.9-2.2,2.9-1.99,0,.19-.63,2.67-1.1,4.33-1.18,4.19-2.87,8.48-4.24,10.72-.17.29-.32.56-.32.6,0,.09.61.04,2-.18,1.45-.23,8.08-.22,9.57,0,1.38.21,2,.27,2,.18,0-.04-.23-.48-.52-.99-1.63-2.91-3.04-6.66-4.43-11.84-.56-2.07-.71-2.78-.62-2.83.09-.06.99.59,3.15,2.28,4.16,3.25,5.62,3.89,8.81,3.9,8.09,0,12.04-9.42,6.35-15.15-1.87-1.89-3.64-2.6-6.44-2.6-3.22,0-4.53.64-9.75,4.73-1.64,1.28-1.75,1.35-1.65,1.03.28-.92,1.11-2.19,3.25-4.94,3.7-4.76,4.61-7.43,3.75-11.06-1.09-4.61-6.26-7.77-10.74-6.58"/>
  <path id="path2-9" data-name="path2" class="cls-3" d="M246.18,261.87c-5.91,1.58-8.6,7.77-5.79,13.36.62,1.24,1.16,2.01,3.1,4.49,1.91,2.44,3.29,4.65,3.06,4.89-.02.02-.84-.58-1.81-1.34-5.14-4.01-6.33-4.57-9.65-4.58-3.74-.01-6.64,1.82-8.22,5.19-2.64,5.63,1.39,12.31,7.58,12.57,3.44.15,5.07-.55,9.75-4.2,2.31-1.8,2.9-2.2,2.9-1.99,0,.19-.63,2.67-1.1,4.33-1.18,4.19-2.87,8.48-4.24,10.72-.17.29-.32.56-.32.6,0,.09.61.04,2-.18,1.45-.23,8.08-.22,9.57,0,1.38.21,2,.27,2,.18,0-.04-.23-.48-.52-.99-1.63-2.91-3.04-6.66-4.43-11.84-.56-2.07-.71-2.78-.62-2.83.09-.06.99.59,3.15,2.28,4.16,3.25,5.62,3.89,8.81,3.9,8.09,0,12.04-9.42,6.35-15.15-1.87-1.89-3.64-2.6-6.44-2.6-3.22,0-4.53.64-9.75,4.73-1.64,1.28-1.75,1.35-1.65,1.03.28-.92,1.11-2.19,3.25-4.94,3.7-4.76,4.61-7.43,3.75-11.06-1.09-4.61-6.26-7.77-10.74-6.58"/>
  <path id="path2-10" data-name="path2" class="cls-3" d="M298.03,197.08c-5.91,1.58-8.6,7.77-5.79,13.36.62,1.24,1.16,2.01,3.1,4.49,1.91,2.44,3.29,4.65,3.06,4.89-.02.02-.84-.58-1.81-1.34-5.14-4.01-6.33-4.57-9.65-4.58-3.74-.01-6.64,1.82-8.22,5.19-2.64,5.63,1.39,12.31,7.58,12.57,3.44.15,5.07-.55,9.75-4.2,2.31-1.8,2.9-2.2,2.9-1.99,0,.19-.63,2.67-1.1,4.33-1.18,4.19-2.87,8.48-4.24,10.72-.17.29-.32.56-.32.6,0,.09.61.04,2-.18,1.45-.23,8.08-.22,9.57,0,1.38.21,2,.27,2,.18,0-.04-.23-.48-.52-.99-1.63-2.91-3.04-6.66-4.43-11.84-.56-2.07-.71-2.78-.62-2.83.09-.06.99.59,3.15,2.28,4.16,3.25,5.62,3.89,8.81,3.9,8.09,0,12.04-9.42,6.35-15.15-1.87-1.89-3.64-2.6-6.44-2.6-3.22,0-4.53.64-9.75,4.73-1.64,1.28-1.75,1.35-1.65,1.03.28-.92,1.11-2.19,3.25-4.94,3.7-4.76,4.61-7.43,3.75-11.06-1.09-4.61-6.26-7.77-10.74-6.58"/>
  <path id="path2-11" data-name="path2" class="cls-3" d="M298.03,330c-5.91,1.58-8.6,7.77-5.79,13.36.62,1.24,1.16,2.01,3.1,4.49,1.91,2.44,3.29,4.65,3.06,4.89-.02.02-.84-.58-1.81-1.34-5.14-4.01-6.33-4.57-9.65-4.58-3.74-.01-6.64,1.82-8.22,5.19-2.64,5.63,1.39,12.31,7.58,12.57,3.44.15,5.07-.55,9.75-4.2,2.31-1.8,2.9-2.2,2.9-1.99,0,.19-.63,2.67-1.1,4.33-1.18,4.19-2.87,8.48-4.24,10.72-.17.29-.32.56-.32.6,0,.09.61.04,2-.18,1.45-.23,8.08-.22,9.57,0,1.38.21,2,.27,2,.18,0-.04-.23-.48-.52-.99-1.63-2.91-3.04-6.66-4.43-11.84-.56-2.07-.71-2.78-.62-2.83.09-.06.99.59,3.15,2.28,4.16,3.25,5.62,3.89,8.81,3.9,8.09,0,12.04-9.42,6.35-15.15-1.87-1.89-3.64-2.6-6.44-2.6-3.22,0-4.53.64-9.75,4.73-1.64,1.28-1.75,1.35-1.65,1.03.28-.92,1.11-2.19,3.25-4.94,3.7-4.76,4.61-7.43,3.75-11.06-1.09-4.61-6.26-7.77-10.74-6.58"/>
  <path id="path2-12" data-name="path2" class="cls-3" d="M298.03,462.96c-5.91,1.58-8.6,7.77-5.79,13.36.62,1.24,1.16,2.01,3.1,4.49,1.91,2.44,3.29,4.65,3.06,4.89-.02.02-.84-.58-1.81-1.34-5.14-4.01-6.33-4.57-9.65-4.58-3.74-.01-6.64,1.82-8.22,5.19-2.64,5.63,1.39,12.31,7.58,12.57,3.44.15,5.07-.55,9.75-4.2,2.31-1.8,2.9-2.2,2.9-1.99,0,.19-.63,2.67-1.1,4.33-1.18,4.19-2.87,8.48-4.24,10.72-.17.29-.32.56-.32.6,0,.09.61.04,2-.18,1.45-.23,8.08-.22,9.57,0,1.38.21,2,.27,2,.18,0-.04-.23-.48-.52-.99-1.63-2.91-3.04-6.66-4.43-11.84-.56-2.07-.71-2.78-.62-2.83.09-.06.99.59,3.15,2.28,4.16,3.25,5.62,3.89,8.81,3.9,8.09,0,12.04-9.42,6.35-15.15-1.87-1.89-3.64-2.6-6.44-2.6-3.22,0-4.53.64-9.75,4.73-1.64,1.28-1.75,1.35-1.65,1.03.28-.92,1.11-2.19,3.25-4.94,3.7-4.76,4.61-7.43,3.75-11.06-1.09-4.61-6.26-7.77-10.74-6.58"/>
</svg>