<?xml version="1.0" encoding="UTF-8"?>
<svg id="Calque_1" data-name="Calque 1" xmlns="http://www.w3.org/2000/svg" viewBox="0 0 500 700">
  <defs>
    <style>
      @font-face { font-family: 'Anton'; font-style: normal; font-weight: 400; src: url(https://fonts.gstatic.com/s/anton/v27/1Ptgg87LROyAm3Kz-C8.woff2) format('woff2'); unicode-range: U+0000-00FF, U+0131, U+0152-0153, U+02BB-02BC, U+02C6, U+02DA, U+02DC, U+0304, U+0308, U+0329, U+2000-206F, U+20AC, U+2122, U+2191, U+2193, U+2212, U+2215, U+FEFF, U+FFFD; }
      .cls-1 {
        stroke-width: 2.23px;
      }

      .cls-1, .cls-2, .cls-3, .cls-4, .cls-5, .cls-6, .cls-7, .cls-8, .cls-9, .cls-10 {
        stroke-linecap: round;
        stroke-linejoin: round;
      }

      .cls-1, .cls-2, .cls-11, .cls-5, .cls-7, .cls-8, .cls-9, .cls-10 {
        stroke: #1d2937;
      }

      .cls-1, .cls-12, .cls-4, .cls-5, .cls-7 {
        fill: none;
      }

      .cls-13, .cls-3, .cls-11, .cls-6, .cls-8 {
        fill: #e31e46;
      }

      .cls-2 {
        stroke-width: 2.14px;
      }

      .cls-2, .cls-14, .cls-10 {
        fill: #1d2937;
      }

      .cls-3, .cls-11, .cls-12, .cls-4, .cls-7, .cls-8, .cls-9, .cls-10 {
        stroke-width: 2px;
      }

      .cls-3, .cls-12, .cls-4, .cls-6 {
        stroke: #000;
      }

      .cls-15, .cls-9 {
        fill: #fff;
      }

      .cls-12 {
        stroke-miterlimit: 10;
      }

      .cls-5 {
        stroke-width: 2.08px;
      }

      .cls-16 {
        font-family: Anton-Regular, Anton;
        font-size: 133.33px;
      }

      .cls-17 {
        fill-rule: evenodd;
      }
    </style>
  </defs>
  <g>
    <rect class="cls-15" x="2.5" y="2.44" width="495" height="695" rx="47.5" ry="47.5"/>
    <path d="M450,4.94c24.81,0,45,20.19,45,45v600c0,24.81-20.19,45-45,45H50c-24.81,0-45-20.19-45-45V49.94C5,25.12,25.19,4.94,50,4.94h400M450-.06H50C22.39-.06,0,22.32,0,49.94v600c0,27.61,22.39,50,50,50h400c27.61,0,50-22.39,50-50V49.94C500,22.32,477.61-.06,450-.06h0Z"/>
  </g>
  <text class="cls-16" transform="translate(41.38 147.35)"><tspan x="0" y="0">K</tspan></text>
  <path id="path1" class="cls-17" d="M69.85,185.71c-.32.09-1.47,1.11-3.77,3.37-3.71,3.62-5.03,4.81-10.13,9.06-8.44,7.04-11.66,10.25-14.4,14.36-7.96,11.91-3.98,26.75,8.22,30.62,2.35.75,2.84.81,6.04.81h2.99s1.35-.47,1.35-.47c1.84-.64,3.99-1.68,5.59-2.71,1.64-1.06,1.56-1.08,1.21.17-1.15,4.08-3.96,11.11-5.71,14.26-.3.55-.78,1.4-1.05,1.89-.64,1.15-.7,1.13,1.91.75,4.89-.69,12.43-.7,17.31-.01,2.95.42,2.82.55,1.6-1.64-1.3-2.33-2.44-4.78-3.58-7.68-1.06-2.7-2.99-8.43-2.89-8.54.04-.04.68.31,1.43.77,1.98,1.24,3.58,2.03,5.4,2.65l1.61.55h2.99c11.89-.03,19.8-9.42,18.07-21.47-1.16-8.09-5.08-13.31-18.21-24.25-5.13-4.27-7.09-6.02-10.39-9.26-3.59-3.53-3.91-3.71-5.58-3.23"/>
  <rect class="cls-12" x="150" y="189.94" width="200" height="320"/>
  <text class="cls-16" transform="translate(399.71 147.35)"><tspan x="0" y="0">K</tspan></text>
  <path id="path1-2" data-name="path1" class="cls-17" d="M428.17,185.71c-.32.09-1.47,1.11-3.77,3.37-3.71,3.62-5.03,4.81-10.13,9.06-8.44,7.04-11.66,10.25-14.4,14.36-7.96,11.91-3.98,26.75,8.22,30.62,2.35.75,2.84.81,6.04.81h2.99s1.35-.47,1.35-.47c1.84-.64,3.99-1.68,5.59-2.71,1.64-1.06,1.56-1.08,1.21.17-1.15,4.08-3.96,11.11-5.71,14.26-.3.55-.78,1.4-1.05,1.89-.64,1.15-.7,1.13,1.91.75,4.89-.69,12.43-.7,17.31-.01,2.95.42,2.82.55,1.6-1.64-1.3-2.33-2.44-4.78-3.58-7.68-1.06-2.7-2.99-8.43-2.89-8.54.04-.04.68.31,1.43.77,1.98,1.24,3.58,2.03,5.4,2.65l1.61.55h2.99c11.89-.03,19.8-9.42,18.07-21.47-1.16-8.09-5.08-13.31-18.21-24.25-5.13-4.27-7.09-6.02-10.39-9.26-3.59-3.53-3.91-3.71-5.58-3.23"/>
  <text class="cls-16" transform="translate(458.62 556.36) rotate(-180)"><tspan x="0" y="0">K</tspan></text>
  <path id="path1-3" data-name="path1" class="cls-17" d="M430.15,518c.32-.09,1.47-1.11,3.77-3.37,3.71-3.62,5.03-4.81,10.13-9.06,8.44-7.04,11.66-10.25,14.4-14.36,7.96-11.91,3.98-26.75-8.22-30.62-2.35-.75-2.84-.81-6.04-.81h-2.99s-1.35.47-1.35.47c-1.84.64-3.99,1.68-5.59,2.71-1.64,1.06-1.56,1.08-1.21-.17,1.15-4.08,3.96-11.11,5.71-14.26.3-.55.78-1.4,1.05-1.89.64-1.15.7-1.13-1.91-.75-4.89.69-12.43.7-17.31.01-2.95-.42-2.82-.55-1.6,1.64,1.3,2.33,2.44,4.78,3.58,7.68,1.06,2.7,2.99,8.43,2.89,8.54-.04.04-.68-.31-1.43-.77-1.98-1.24-3.58-2.03-5.4-2.65l-1.61-.55h-2.99c-11.89.03-19.8,9.42-18.07,21.47,1.16,8.09,5.08,13.31,18.21,24.25,5.13,4.27,7.09,6.02,10.39,9.26,3.59,3.53,3.91,3.71,5.58,3.23"/>
  <text class="cls-16" transform="translate(100.29 556.36) rotate(-180)"><tspan x="0" y="0">K</tspan></text>
  <path id="path1-4" data-name="path1" class="cls-17" d="M71.83,518c.32-.09,1.47-1.11,3.77-3.37,3.71-3.62,5.03-4.81,10.13-9.06,8.44-7.04,11.66-10.25,14.4-14.36,7.96-11.91,3.98-26.75-8.22-30.62-2.35-.75-2.84-.81-6.04-.81h-2.99s-1.35.47-1.35.47c-1.84.64-3.99,1.68-5.59,2.71-1.64,1.06-1.56,1.08-1.21-.17,1.15-4.08,3.96-11.11,5.71-14.26.3-.55.78-1.4,1.05-1.89.64-1.15.7-1.13-1.91-.75-4.89.69-12.43.7-17.31.01-2.95-.42-2.82-.55-1.6,1.64,1.3,2.33,2.44,4.78,3.58,7.68,1.06,2.7,2.99,8.43,2.89,8.54-.04.04-.68-.31-1.43-.77-1.98-1.24-3.58-2.03-5.4-2.65l-1.61-.55h-2.99c-11.89.03-19.8,9.42-18.07,21.47,1.16,8.09,5.08,13.31,18.21,24.25,5.13,4.27,7.09,6.02,10.39,9.26,3.59,3.53,3.91,3.71,5.58,3.23"/>
  <g>
    <path id="path4171-1" d="M262.5,428.6s-.93-1.39-1.5-2c-.75-.81-1.49-1.72-2.5-2.17-1.23-.55-2.66-.58-4-.5-1.37.08-4,1-4,1,0,0,.11-2.63-.33-3.83-.5-1.35-1.36-2.62-2.5-3.5-1.36-1.05-3.11-1.78-4.83-1.83-1.33-.04-2.6.65-3.83,1.17-.76.32-2.17,1.17-2.17,1.17,0,0-.76-2.99-1.5-4.33-.52-.93-1.17-1.83-2-2.5-1.06-.86-2.35-1.46-3.67-1.83-.59-.17-1.83-.17-1.83-.17l3.17-8.33,3-10.33,2-7.5,1.17-6.17,1.33-6.67.17-4.5-11.5-.17-1.67,9.17-4.5,14.33-3.5,8-4.33,7.83-4.5,6.5-4,1.33-2.17,4.17v3.17l-3.5.5-2,4v4.33l.5,2.67-5.33-3.33-13-8,8.17-7.67,5.67-7.5,5.83-8,4.83-9.67,3.17-6-24.37-11.9-.8-3.76-3.5-1.17-3.83.67-1,2.67.17,1.83-8,.83-6.83-1-8.67-.17v-55l5,4.33,7.17,6.67,6.17,8.5,5.24,8.61,2.45,9.71.71,5.08,33.1,16.1,1.17-4.83,1-6.83.67-8v-10.5h74l1,22.5,1.33,12.33,3.33,10.67,4.5,10.83,5.67,10.5,4.67,7.17,3.67,5.5-14.67,6.17-3.83-3.17-6.67-11.33-7.5-16.17-4-14.5-2.33-9.5-.83-8.17-14.83.17,1.17,14.67,1.17,9.5,2.67,9.67,2,7.83,3.33,8.33,3.17,6,2.17,4-1.33.5-2.17-.67-2.83,3.5-2.67-.67-.33-.33Z"/>
    <path id="path4175" class="cls-13" d="M213.1,276.18l2.97-.42,2.76,1.27,2.65-1.27,1.8.96,1.8-.53,4.03,8.7,4.88,12.31,2.97,10.51,1.38,9.02.85,6.79.21,6.9-7.43-.21-1.49-9.76-2.55-11.99-3.08-9.45-3.29-7.54-3.5-6.79-2.23-4.25-2.76-4.25Z"/>
    <path id="path4173" class="cls-13" d="M282.72,278.62l-5.31,9.98-5.31,11.89-3.61,11.89-2.33,10.93-1.27,6.9,5.2.21,2.87-11.14,4.14-12.1,3.5-8.17,4.14-7.11,2.97-4.25-2.55-1.59-1.38-3.82-1.06-3.61Z"/>
    <path id="path4171" d="M237.5,271.27s.93,1.39,1.5,2c.75.81,1.49,1.72,2.5,2.17,1.23.55,2.66.58,4,.5,1.37-.08,4-1,4-1,0,0-.11,2.63.33,3.83.5,1.35,1.36,2.62,2.5,3.5,1.36,1.05,3.11,1.78,4.83,1.83,1.33.04,2.6-.65,3.83-1.17.76-.32,2.17-1.17,2.17-1.17,0,0,.76,2.99,1.5,4.33.52.93,1.17,1.83,2,2.5,1.06.86,2.35,1.46,3.67,1.83.59.17,1.83.17,1.83.17l-3.17,8.33-3,10.33-2,7.5-1.17,6.17-1.33,6.67-.17,4.5,11.5.17,1.67-9.17,4.5-14.33,3.5-8,4.33-7.83,4.5-6.5,4-1.33,2.17-4.17v-3.17l3.5-.5,2-4v-4.33l-.5-2.67,5.33,3.33,13,8-8.17,7.67-5.67,7.5-5.83,8-4.83,9.67-3.17,6,24.37,11.9.8,3.76,3.5,1.17,3.83-.67,1-2.67-.17-1.83,8-.83,6.83,1,8.67.17v55l-5-4.33-7.17-6.67-6.17-8.5-5.67-9.67-2.17-8.67-.5-4.33-33.17-16.83-1.17,4.83-1,6.83-.67,8v10.5h-74l-1-22.5-1.33-12.33-3.33-10.67-4.5-10.83-5.67-10.5-4.67-7.17-3.67-5.5,14.67-6.17,3.83,3.17,6.67,11.33,7.5,16.17,4,14.5,2.33,9.5.83,8.17,14.83-.17-1.17-14.67-1.17-9.5-2.67-9.67-2-7.83-3.33-8.33-3.17-6-2.17-4,1.33-.5,2.17.67,2.83-3.5,2.67.67.33.33Z"/>
    <path id="path4177" class="cls-13" d="M310.11,327.02l7.34,3.67s.02-1.89.52-2.62c.82-1.2,2.33-1.79,3.67-2.36,1.35-.58,2.84-.79,4.28-1.05.72-.13,2.18-.26,2.18-.26l-.09-25.6s-3.1,2.73-4.46,4.28c-1.62,1.85-3,3.9-4.37,5.94-1.34,1.99-2.61,4.02-3.76,6.12-1.12,2.04-2.11,4.16-3.06,6.29-.82,1.84-2.27,5.59-2.27,5.59Z"/>
    <path id="path4169" class="cls-13" d="M155.5,296.44l11-7.67,13.5-7.33,6.17-3.17.83,2.17-3.5,8.17-3.33,12.33-.5,7.67,1.5,9.5,2.67,7.17,4.5,7.33,5.17,6.17,4.17,4,5,3.67,7.17,3.67.33,9.33-1,5.83-1.33,7.17-13.67-6.5-.67-11-2.67-11.67-4.67-12.33-4-6.5-8.83-11.5-7.83-7.83-6.17-4.83-3.83-3.83Z"/>
    <g id="g4120">
      <path id="path3931-8" class="cls-11" d="M207.33,189.94c7,12.78,14,25.56,21,38.33,7.52-2.81,15.53-3.74,23.46-4.58,8.65-.92,17.4-.95,26.09-.47,7.09.39,14.22.92,21.12,2.72,7.89-12,15.78-24,23.67-36h-115.33Z"/>
      <path id="path3933" d="M257.46,210.3c.8.67,1.86,1.27,2.9,1.2,1.05-.06,1.96-.87,2.76-1.56.51-.44.81-.89,1.23-1.58.54.65,1.02,1.46,1.76,1.9.92.54,2.11,1.17,3.1.77,1.19-.48,1.92-1.99,2.02-3.27.09-1.18-.48-2.5-1.38-3.27-.85-.72-2.14-.7-3.25-.8.32-1,.85-2.27.46-3.32-.45-1.22-1.65-2.4-2.94-2.58-1.17-.16-2.46.6-3.2,1.52-.64.8-.89,2-.69,3.01.15.75.7,1.38,1.33,1.85-1.29.11-2.78.25-3.69,1.17-.87.88-1.18,2.32-1.09,3.55.04.52.42.96.67,1.41h0ZM263.12,206.04c-.09-.59.34-1.46.93-1.54.61-.08,1.36.65,1.35,1.27,0,.58-.72,1.15-1.29,1.15-.44,0-.92-.44-.99-.88Z"/>
      <path id="path3933-7-51" d="M238.76,200.55c-.93.48-1.88,1.23-2.23,2.22-.35,1,.03,2.15.38,3.15.27.76.81,1.4,1.29,2.06-.68-.23-1.48-.25-2.11.06-1.19.59-2.48,1.76-2.52,3.09-.04,1.28,1.1,2.54,2.24,3.12,1.06.54,2.5.52,3.55-.02.99-.51,1.47-1.71,1.99-2.69.8.68,1.76,1.37,2.81,1.37,1.4,0,3.14-.61,3.76-1.86.57-1.16-.03-2.72-.74-3.8-.48-.73-1.29-1.4-2.16-1.48-.79-.08-1.5.53-2.18.94.4-1.24.84-2.67.34-3.86-.48-1.14-1.68-1.98-2.86-2.37-.49-.16-1.04.02-1.56.08h0ZM240.68,207.75c.61.08,1.44.66,1.33,1.27-.1.61-1.15,1.06-1.69.75-.5-.28-.47-1.19-.21-1.7.1-.19.35-.35.57-.32Z"/>
      <path id="path3933-7-4" d="M290.03,199.26c.93.48,1.88,1.23,2.23,2.22.35,1-.03,2.15-.38,3.15-.27.76-.81,1.4-1.29,2.06.68-.23,1.48-.25,2.11.06,1.19.59,2.48,1.76,2.52,3.09.04,1.28-1.1,2.54-2.24,3.12-1.06.54-2.5.52-3.55-.02-.99-.51-1.47-1.71-1.99-2.69-.8.68-1.76,1.37-2.81,1.37-1.4,0-3.14-.61-3.76-1.86-.57-1.16.03-2.72.74-3.8.48-.73,1.29-1.4,2.16-1.48.79-.08,1.5.53,2.18.94-.4-1.24-.84-2.67-.34-3.86.48-1.14,1.68-1.98,2.86-2.37.49-.16,1.04.02,1.56.08h0ZM288.11,206.46c-.61.08-1.44.66-1.33,1.27.1.61,1.15,1.06,1.69.75.5-.28.47-1.19.21-1.7-.1-.19-.35-.35-.57-.32Z"/>
      <path id="path3933-7-4-0" d="M310.77,202.51c-1.17-.03-2.52.35-3.31,1.26-.83.95-.9,2.45-.95,3.75-.47-.61-.9-1.42-1.62-1.61-.8-.21-1.73.14-2.39.66-.98.78-2.02,2.06-1.89,3.34.14,1.39,1.49,2.53,2.73,3.01.92.35,2,.02,2.93-.34.04.32.08.67.12,1.01l1.6-2.42c-.07.05-.16.1-.24.11-.57.1-1.35-.67-1.25-1.28.1-.6,1.03-.88,1.59-.75.2.05.38.27.41.48.03.26-.02.59-.13.87l4.39-6.61c-.19-.32-.41-.6-.64-.87-.44-.23-.85-.6-1.34-.61Z"/>
      <path id="path3933-7-4-0-9-3" d="M218.36,203.5c1.16.07,2.48.56,3.19,1.54.74,1.02.69,2.52.62,3.81.52-.57,1.02-1.33,1.76-1.47.81-.14,1.72.29,2.33.87.91.86,1.84,2.22,1.6,3.49-.26,1.37-1.7,2.39-2.98,2.76-.95.27-2-.15-2.89-.59-.07.32-.14.66-.21.99l-1.39-2.55c.07.06.15.11.23.13.56.15,1.4-.55,1.35-1.17-.05-.61-.95-.97-1.52-.88-.2.03-.4.23-.45.44-.05.26-.03.59.05.88l-3.8-6.96c.22-.3.46-.57.71-.81.46-.19.9-.53,1.39-.5h0Z"/>
      <path id="path4015-28" d="M272.49,213.54c-1.75.22-3.59-.47-5.09-1.38-.8-.48-1.36-1.29-1.91-2.04-.5-.68-.82-1.79-1.25-2.21.24,2.31.85,3.81,2.05,5.26,1.15,1.39,2.89,2.25,4.58,2.89,1.82.69,3.83,1.07,5.78.93,2.29-.16,4.56-.96,6.57-2.05,1.37-.74,2.65-1.73,3.59-2.96.52-.68.97-1.7,1.05-2.35-.87,1.05-2.33,2.28-3.78,2.96-1.32.63-2.84,1.16-4.29.96-1.41-.19-2.46-.94-3.75-2.02-1.37.73-2.21,1.83-3.56,2h0Z"/>
      <path id="path4015-4-1" d="M256.36,214.19c1.73.13,3.48-.71,4.95-1.63.77-.49,1.37-1.24,1.9-1.98.49-.68.52-2.28,1.16-2.23-.12,2.32-.81,3.71-1.93,5.16-1.09,1.42-2.74,2.4-4.38,3.12-1.76.78-3.72,1.26-5.65,1.23-2.27-.05-4.55-.73-6.59-1.71-1.39-.67-2.71-1.59-3.7-2.77-.55-.66-1.04-1.64-1.16-2.29.92,1,2.42,2.15,3.88,2.77,1.34.56,2.86,1.01,4.28.74,1.38-.26,2.38-1.06,3.6-2.2,1.39.66,2.27,1.71,3.62,1.81h0Z"/>
      <path id="path4015-4-8-6" d="M293.49,215.57c-1.37-.04-2.74-.93-3.84-1.97-.58-.55-.9-1.41-1.32-2.14-.33-.57-.45-1.73-.95-1.74.01,2.15.55,3.29,1.35,4.65.82,1.41,2.07,2.47,3.33,3.29,1.36.88,2.88,1.51,4.4,1.66,1.78.17,3.59-.25,5.23-.97,1.11-.49,2.18-1.22,3-2.22.45-.56.87-1.42.99-2.01-.75.84-1.97,1.77-3.14,2.2-1.07.39-2.28.67-3.39.29-1.08-.37-1.83-1.2-2.75-2.37-1.11.48-1.84,1.37-2.9,1.34h0Z"/>
      <path id="path4015-4-8-8-4" d="M230.19,217.72c-1.34.52-3.02.18-4.5-.44-.78-.33-1.47-1.04-2.13-1.65-.69-.64-1.41-2.29-1.9-2.1.87,2.2,1.89,3.65,3.44,4.92,1.27,1.05,2.98,1.68,4.53,2,1.67.35,3.39.36,4.91-.12,1.79-.57,3.38-1.74,4.68-3.16.88-.96,1.62-2.16,2.02-3.52.22-.76.28-1.82.16-2.47-.53,1.6-1.04,2.97-2.17,3.98-.85.76-2.03,1.25-3.16,1.27-1.28.02-2.25-.48-3.61-1.3-.89.96-1.24,2.17-2.27,2.58h0Z"/>
      <path id="path4072-67" class="cls-13" d="M225.58,221.87s3.41,1.1,5.19,1.18c2.1.1,4.31-.02,6.25-.82,1.37-.57,2.47-1.67,3.54-2.71.72-.7,1.89-2.36,1.89-2.36,0,0,3.88,2.13,6.01,2.59,2.11.46,4.34.39,6.48.12,2.06-.26,4.18-.67,6.01-1.65,1.47-.79,3.77-3.3,3.77-3.3,0,0,2.91,3.13,4.83,3.89,1.87.74,4,.57,6.01.47,1.83-.09,3.67-.39,5.42-.94,1.74-.55,4.95-2.36,4.95-2.36,0,0,1.83,2.51,3.06,3.42,1.15.84,2.53,1.35,3.89,1.77,1.37.42,2.81.84,4.24.71,1.75-.16,4.95-1.77,4.95-1.77l-3.37,5.05s-10.15-1.75-15.28-2.23c-4.3-.4-8.63-.49-12.95-.54-4.65-.06-9.31-.03-13.96.25-3.88.24-7.75.7-11.6,1.2-2.9.37-5.83.66-8.68,1.34-2.61.62-7.65,2.48-7.65,2.48l-3-5.77Z"/>
    </g>
    <g id="g4187">
      <path id="path4075-7" class="cls-7" d="M228.8,228.46c-1.35,6.92-2.66,13.88-4.88,20.58-2.15,6.14-5.34,11.84-8.51,17.49-1.19,1.81-3.49,3.38-5.73,2.77-1.48-.42-1.54-1.99-1.08-3.21"/>
      <path id="path4078-9" class="cls-7" d="M232.28,227.59c-1.21,10.88-3.79,21.7-8.15,31.72-2.46,5.63-6.43,12.64-12.56,14.21-2.61.67-6.34-.37-7.61-2.75-1.43-2.68-.38-7.24,2.2-8.84,2.44-1.5,6.38-.16,8.38,1.89.71.73.51,1.99.6,3.01"/>
      <path id="path4081-6" class="cls-7" d="M236.21,225.99c-.94,6.75-1.77,13.76-3.76,20.38-2.32,7.68-4.8,15.6-9.46,22.14-2.15,3.01-4.62,6.61-8.22,7.43-1.79.41-4.19.26-5.29-1.56"/>
      <path id="path4081-2-41" class="cls-7" d="M239.98,225.84c-.82,7.04-1.9,14.02-3.79,20.81-1.6,5.74-3.61,11.43-6.36,16.71-2.36,4.54-4.72,8.84-8.62,12.7-.99.98-3.36.86-5.05-.18"/>
      <path id="path4081-2-4-9" class="cls-7" d="M243.54,225.1c-.64,7.06-1.54,14.06-3.27,20.9-1.46,5.78-3.33,11.51-5.94,16.87-2.13,4.38-4.06,8.37-7.87,12.33-.97,1.01-2.76,1.81-4.48.82"/>
      <path id="path4081-2-4-5-26" class="cls-7" d="M247.49,224.36c-.69,7.05-1.54,12.91-3,19.23-1.31,5.69-2.95,11.44-5.17,16.74-1.81,4.34-3.45,8.28-6.59,12.17-.8.99-2.25,1.75-3.59.73"/>
      <path id="path4081-2-4-5-5-3" class="cls-7" d="M250.89,223.96c-.42,6.67-1.01,12.24-2.17,18.26-1.04,5.42-2.39,10.9-4.29,15.98-1.56,4.16-2.96,7.94-5.78,11.71-.71.96-2.05,1.73-3.34.81"/>
      <path id="path4081-2-4-5-5-1" class="cls-7" d="M254.61,223.91c-.39,6.43-.94,11.79-2.01,17.58-.97,5.22-2.21,10.49-3.97,15.39-1.44,4-2.74,7.64-5.35,11.27-.66.92-1.9,1.67-3.09.78"/>
    </g>
    <g id="g4260">
      <path id="path4197" class="cls-7" d="M242.83,269.15c.49.46,1.17.94,1.84.85,1.09-.14,1.87-1.24,2.54-2.1,1-1.29,1.44-2.94,2.09-4.44.67-1.55,1.24-3.14,1.87-4.7"/>
      <path id="path4199" class="cls-7" d="M252.84,262.08c-1.12,2.52-2.08,5.14-3.48,7.51-.67,1.13-1.17,2.57-2.34,3.18-1.6.84-3.93,1.17-5.43.15-1.11-.75-1.36-2.43-1.4-3.78"/>
      <path id="path4201-15" class="cls-7" d="M254.51,264.43l-5,10.3"/>
      <path id="path4203" class="cls-7" d="M267.07,274.15l-3.73,7.26"/>
      <path id="path4246" class="cls-7" d="M277.86,287.39l4.32-8.63"/>
      <path id="path4205" class="cls-7" d="M283.06,278.56c.84,2.44.75,5.43,2.5,7.32,1.56,1.67,4.06,3.03,6.32,2.67,2.3-.37,4.57-2.38,5.27-4.6,1.23-3.93-1.54-8.47-2.98-11.98"/>
      <path id="path4211" class="cls-7" d="M258.63,268.26c-1.26,2.15-4.05,4.96-3.24,7.59.37,1.18,1.92,2.21,3.14,1.99,1.45-.27,1.94-2.26,2.66-3.55.52-.93.78-1.99,1.17-2.98"/>
      <path id="path4213" class="cls-7" d="M256.47,266.58c-1.82,3.16-3.68,6.25-4.2,9.51-.29,1.82,1.26,3.9,2.93,4.68,1.83.86,4.65.65,6.01-.84,1.44-1.58,2.16-3.42,3.04-5.22.31-.62.76-1.94.76-1.94"/>
      <path id="path4215" class="cls-7" d="M269.52,275.52c-1.37,2.49-3.31,5.34-2.74,8.15.39,1.93,2.04,3.86,3.93,4.42,1.42.42,3.38-.02,4.29-1.2,1.94-2.54,2.97-5.41,3.84-7.84"/>
      <path id="path4217" class="cls-7" d="M271.48,276.99c-.75,1.7-2.62,4.86-1.48,6.93.46.84,1.79,1.34,2.69,1,2.14-.81,2.67-4.56,3.21-6.07"/>
      <path id="path4219" class="cls-7" d="M298.37,226.36c-.2,11.16.34,22.43-1.15,33.48-.66,4.85-1.9,10.09-5.13,13.76-2.29,2.61-5.7,4.36-9.22,4.86"/>
      <path id="path4232-97" class="cls-7" d="M298.82,243.8c2.03,3.54,3.82,7.39,4.34,11.43.48,3.76-.28,7.3-1.24,11.32"/>
      <path id="path4234-02" class="cls-7" d="M298.33,249.61c2.22,2.58,2.05,5.04,2.22,7.71.12,1.74-.53,3.78-.77,5.17"/>
      <path id="path4236-61" class="cls-7" d="M297.95,259.48c1.82,3.87,4.67,7.53,5.06,11.79.23,2.43-.02,5.28-1.6,7.13-.92,1.08-2.53,1.35-3.95,1.6"/>
      <path id="path4238-7" class="cls-7" d="M297.27,263.84c1.73,3.3,4.21,7.29,2.94,10.8-.53,1.45-1.95,2.85-3.81,2.65"/>
      <path id="path4240" class="cls-7" d="M295.82,267.22c1.7,2.56,2.85,4.72,1.82,6.84-.33.69-1.57.8-2.11.9"/>
      <path id="path4248" class="cls-7" d="M292.43,274.48c1.1,2.88,3.38,6.51,1.73,9.13-.98,1.55-3.65,2.18-5.32,1.42-2.28-1.04-2.65-4.34-3.29-6.78"/>
      <path id="path4250" class="cls-7" d="M287.98,277.29c.46,2.44,1.04,5.81,3.04,5.35,1.41-.33.5-2.92.25-4.35-.16-.88-.83-1.93-1.06-2.45"/>
    </g>
    <g id="g4190">
      <path id="path3868" class="cls-3" d="M320.68,279.59c-5.88,5.68-11.54,11.89-16.26,18.65-4.4,6.32-7.78,13.31-11.08,20.27,5.5,2.75,11,5.5,16.5,8.25,2.63-6.06,5.58-12.03,9.25-17.52,2.59-3.87,5.62-7.58,8.91-10.76.08-4.48-.08-9.42,0-13.9-2.36-1.73-4.96-3.26-7.32-4.99Z"/>
      <path id="path3870" class="cls-4" d="M323.15,282.46c-5.08,4.78-6.62,5.82-9.47,9.17-3.83,4.5-7.13,9.44-10.13,14.53-2.56,4.33-5.71,11.73-6.68,13.54"/>
      <path id="path3872" class="cls-4" d="M327.66,293c-3.58,3.46-7.31,7.56-10.46,11.75-2.32,3.08-4.39,6.36-6.17,9.78-1.69,3.24-3.08,6.65-4.25,10.12"/>
      <path id="path3874" class="cls-4" d="M321.63,284.26l.79,7.18,5.09-.03"/>
      <path id="path3876" class="cls-4" d="M315.5,290.46l.47,8.01,6.47-.67"/>
      <path id="path3878" class="cls-4" d="M309.6,297.19l.71,9.3,6.36-1.18"/>
      <path id="path3880" class="cls-4" d="M304.42,305.39l1.18,8.41,6.36-1.32"/>
      <path id="path3882" class="cls-4" d="M299.91,313.19l2.15,8.38,6.62-2.82"/>
    </g>
    <path id="path3805-6" class="cls-7" d="M303.14,268.74l13.05,7.88,11.34,7.61"/>
    <path id="path3807-2" class="cls-8" d="M350,326.13c-4.77.24-10.27-1.23-15.44-1.4-3.47-.11-7.04-.58-10.4.26-2.16.54-4.84,1.08-5.97,3-1.03,1.76-1.2,4.68.26,6.11,1.76,1.73,5.55,1.81,7.39.17,1.03-.91.48-2.74.4-4.11,3.26-.31,6.55-.61,9.83-.47,2.6.11,5.13.93,7.73,1.05,2.07.09,4.27-.15,6.2-.3v-4.31Z"/>
    <g id="g3845-5">
      <path id="path3810-3" class="cls-9" d="M325.61,337.69c.29-1.26.89-2.45,1.59-3.54.51-.79,1.05-1.68,1.89-2.12.96-.51,2.16-.31,3.24-.41,1.69-.17,3.43-.77,5.07-.35.57.14.91.79,1.47.94,1.18.31,2.47-.47,3.66-.18.53.13,1.11.37,1.42.83.22.33.18,1.18.18,1.18,0,0,1.76-.47,2.48-.06.56.32.85,1.07.94,1.71.13.87-.19,1.78-.53,2.59-.3.7-.75,1.35-1.3,1.89-.25.25-.88.59-.88.59,0,0,1.8-.9,2.65-.59.55.2.95.84,1.06,1.42.12.62-.25,1.24-.47,1.83-.31.84-.55,1.78-1.18,2.42-.67.67-2.54,1.24-2.54,1.24,0,0,1.81-.61,2.59-.24.51.24.83.86.94,1.42.15.77-.1,1.61-.47,2.3-.28.51-.73.95-1.24,1.24-.41.23-1.36.35-1.36.35,0,0,1.77.54,1.89,1.3.13.84-.84,1.61-1.59,2.01-1.55.82-3.54-.05-5.25.35-.98.23-1.8.94-2.77,1.18-1.49.36-3.1.7-4.6.35-1.13-.26-2.17-.96-3.01-1.77-.98-.95-1.58-2.25-2.18-3.48-.61-1.26-1.13-2.58-1.42-3.95-.39-1.87-.37-3.81-.41-5.72-.02-.88.04-1.77.06-2.65.02-.69-.1-1.39.06-2.06h0Z"/>
      <path id="path3815-40" class="cls-9" d="M343.77,334.5c-1.03,1.49-2.65,2.74-4.54,2.71-1.28.25-2.57-.49-3.78-.16-.84.54-1.6,1.09-2.5,1.43-.82.31-1.67.55-2.56.51"/>
      <path id="path3817-7" class="cls-9" d="M344.72,340.93c-2.11,1.22-5.15,2.4-7.6,2.65-1.07.01-2.54.08-3.06-1.08-.46-.91-.09-2.1.85-2.54,1.58-.92,4.55-2.49,6.27-3.1"/>
      <path id="path3819-5" class="cls-9" d="M336.29,339.28c1.06.01,2.86.9,3.01,2.11.15.42.16.87.17,1.31"/>
      <path id="path3821-5" class="cls-9" d="M344.48,346.94c-2.69.51-6.22,1.43-8.96,1.01-.94-.32-2.23-.63-2.54-1.71-.07-1.05.88-1.92,1.76-2.3.35-.1,2.24-.21,2.6-.23"/>
      <path id="path3823-3" class="cls-9" d="M337.88,344.11c1.06.52,1.39,1.7,1.05,2.78-.03.18-.07.35-.11.52"/>
      <path id="path3825-1" class="cls-9" d="M338,332.32c.27.89.7,2.08,1.82,2.08,1.32.07,2.58-.41,3.73-1.02"/>
      <path id="path3827-8" class="cls-9" d="M336.11,348.12c-.9.35-2.73,1.01-1.99,2.25,1.15,1.46,3.15,1.61,4.86,1.81,1.65.04,3.29-.33,4.93-.09.37.03.73.06,1.1.1"/>
      <path id="path3829-8" class="cls-9" d="M338.82,352.19c-1.3.46-2.57,1.78-1.67,2.62.46.59,1.68.98,2.38,1.1"/>
      <path id="path3831-8" class="cls-9" d="M338.53,348.3c.72.56,1.04,1.21,1.07,1.95.02.58-.58,1.33-.72,1.59"/>
      <path id="path3833-0" class="cls-9" d="M340.41,352.49c.76.49,1.65,1.35,1.08,2.33-.1.28-.23.54-.37.8"/>
    </g>
    <g id="g4369-1">
      <path id="path3858-7" class="cls-7" d="M328,323.94v-101.33l9.67-8.67,8.33,8.67v103"/>
      <path id="path3860-5" class="cls-7" d="M337,230.6s1.34,8.45,1.13,12.69c-.22,4.4-1.9,8.61-2.47,12.97-.5,3.84-1.14,7.72-.81,11.57.38,4.36,2.49,8.43,3.15,12.76.55,3.63.88,7.33.67,11-.26,4.33-1.86,8.5-2.31,12.81-.42,4.04-.85,8.15-.36,12.19.35,2.86,2.33,8.33,2.33,8.33"/>
      <ellipse id="path3862-0" class="cls-8" cx="337.48" cy="363.35" rx="4.77" ry="4.89"/>
      <path id="path3864-5" class="cls-8" d="M333.35,361.19c-.22,2.55.77,3.27,2.02,4.19.68.51,1.66.47,2.51.4.66-.05,1.35-.25,1.9-.63.41-.29.84-.83.93-1.19"/>
    </g>
    <path id="path3888" class="cls-8" d="M277.88,287.5s-2.03,2.47-3.41,3.18c-.56.29-1.85.37-1.85.37,0,0-2.61,5.88-3.71,8.9-1.47,4.05-2.7,8.2-3.83,12.36-1.09,4.04-2.15,8.11-2.84,12.23-.53,3.19-.99,9.64-.99,9.64l11.74-.12s.76-4.54,1.24-6.8c.51-2.44,1.04-4.89,1.73-7.29.85-2.93,1.84-5.82,2.97-8.65,1.18-2.98,2.52-5.9,3.95-8.77,1.49-2.99,3.09-5.92,4.82-8.77,1-1.65,3.21-4.82,3.21-4.82l-3.46-1.24s-3.73,5.58-5.31,8.53c-1.93,3.59-3.55,7.34-5.07,11.12-1.67,4.17-3.19,8.42-4.45,12.73-1,3.41-2.47,10.38-2.47,10.38l-5.07-.12s1.43-9.35,2.47-13.97c.85-3.79,1.91-7.54,3.09-11.25.95-3.01,2.02-5.98,3.21-8.9,1.22-2.97,4.03-8.74,4.03-8.74h0Z"/>
    <path id="path3905" class="cls-8" d="M207.31,273.85c5.16,8.26,10.07,16.75,13.7,25.78,2.71,6.73,4.4,13.85,5.95,20.94.95,4.37,1.4,8.84,2.04,13.26,5.03.04,10.06.08,15.08.12-.57-7.58-.78-13.4-1.98-19.99-1.56-8.56-3.69-17.07-6.74-25.22-1.91-5.1-4.45-9.63-7.19-14.66-.46,1.83-2.63,1.78-2.98,2.87,3.97,7.58,7.59,15.43,9.89,23.67,2.7,9.66,4.56,23.36,4.48,29.77-1.87-.03-5.51-.18-7.38-.21-1.55-9.87-3.05-18.68-6-27.63-1.79-5.44-4.47-10.55-7.05-15.65-1.78-3.53-4.32-7.55-5.81-10.34-2.07-.77-3.46-1.17-4.11-2.66-.32-.02-1.58-.04-1.9-.05Z"/>
    <g id="g5554">
      <path id="path3897" class="cls-6" d="M250.02,295.9s-1.22-3.69-.12-4.9c1.43-1.58,4.74-1.87,6.37-.49,1.41,1.19.49,5.51.49,5.51,0,0,3.57-.87,4.65.24,1.31,1.35,1.36,4.22.12,5.63-1,1.14-4.53.49-4.53.49,0,0,.23,3.51-.98,4.41-1.41,1.05-3.92.76-5.27-.37-1.16-.97-1.1-4.41-1.1-4.41,0,0-3.93,1.03-5.02-.24-1.28-1.5-.85-4.56.61-5.88,1.18-1.07,4.78,0,4.78,0Z"/>
      <circle id="path3899" class="cls-3" cx="253.51" cy="299.27" r="2.76"/>
      <path id="path3912" class="cls-6" d="M236.3,285.05c-.17-1.35-.61-3.01.23-4.08,1.11-1.42,3.4-1.94,5.16-1.59,1.72.34,3.01,1.95,4.04,3.37.83,1.13,1.17,2.56,1.57,3.9.58-.7,1.42-1.3,2.31-1.43.88-.13,1.75.37,2.58.7-1.4,1.23-2.84,2.6-3.51,4.34-.64,1.68-.47,3.61-.26,5.4-1.29-2.85-2.55-5.75-4.34-8.31-.91-1.3-1.71-3.04-3.23-3.52-1.02-.32-2.11.39-3.13.69-.49.15-.96.35-1.43.54h0Z"/>
      <path id="path3914" class="cls-6" d="M257.6,294.27s1.56-2.93,2.95-3.65c.98-.51,2.29-.68,3.3-.24,1.1.48,2.24,2.83,2.24,2.83,0,0-1.35,1.89-2.36,1.89-.81,0-1.1-1.32-1.89-1.53-1.39-.37-4.24.71-4.24.71h0Z"/>
      <path id="path3916" class="cls-6" d="M257.71,302.45c1.07.98,2.28,1.86,2.84,3.17.52,1.21.8,2.72.29,3.94-.47,1.14-1.58,2.26-2.81,2.42-.78.11-1.48-.57-2.13-1.01-.27-.18-.72-.45-.71-.65.81-.18,1.74-.52,2.27-1.19.7-.88.8-2.15.85-3.27.05-1.15-.31-2.26-.59-3.41h0Z"/>
      <path id="path3918" class="cls-6" d="M249.07,303.15c0,.2-2.61,2.19-3.13,3.73-.45,1.32-.56,3.01.2,4.19.63.97,1.97,1.3,3.1,1.56.86.2,1.77.03,2.65-.04-.1-.88-.31-1.79-.76-2.56-.45-.77-1.52-1.1-1.87-1.92-.65-1.51-.46-3.32-.2-4.94Z"/>
    </g>
    <path id="path3929" class="cls-13" d="M251.15,319.93c-1.46.22-3,1.01-3.84,2.22-1.04,1.5-1.03,3.57-.94,5.39.08,1.61,1.49,3.06,1.28,4.65-.17,1.32-2.02,3.44-2.02,3.44l1.69,1.48s1.81-1.33,2.29-2.29c.72-1.44.7-3.18.67-4.79-.02-1.07-.76-2.12-.54-3.17.21-1,.68-2.4,1.69-2.56.76-.13,1.42.76,1.82,1.42.55.9.58,2.05.61,3.1.04,1.7-1.16,3.4-.74,5.06.27,1.06,1.08,1.98,1.96,2.63.33.24,1.15.4,1.15.4l1.21-2.02s-1.25-.62-1.48-1.21c-.61-1.57.68-3.31.74-4.99.06-1.6.12-3.25-.34-4.79-.34-1.16-.79-2.44-1.75-3.17-.94-.71-2.27-.98-3.44-.81h0Z"/>
    <path id="path3932" class="cls-7" d="M186.45,279.03c8.19,10.85,15.1,22.93,19.25,35.85,3.63,11.31,4.15,23.47,4.56,35.33.18,5.39-.22,10.81-.97,16.16-.27,1.95-.81,3.85-1.27,5.76"/>
    <g id="g4018">
      <path id="path4007" class="cls-3" d="M155.17,296.74c9.59,7.19,18.51,15.57,25.39,25.36,4.9,6.98,8.44,14.99,10.88,23.16,1.97,6.62,3.17,14.48,2.9,20.51-5.83-2.72-11.67-5.44-17.5-8.17-.69-5.84-2.01-11.7-4.51-17-3.38-7.17-8.17-13.78-13.83-19.33-2.45-2.41-5.35-4.4-8.49-5.83v-14.67c1.72-1.34,3.44-2.69,5.17-4.03Z"/>
      <path id="path4010" class="cls-4" d="M153.17,299.27c6.09,3.8,11.54,8.22,16.33,13.37,5.83,6.27,10.92,13.37,14.8,21,3.21,6.31,5.51,13.16,6.84,20.11.66,3.45.72,7,.53,10.52"/>
      <path id="path4012" class="cls-4" d="M150.5,312.27c4.02,2.43,7.74,5.36,11.06,8.66,4.16,4.15,7.91,8.8,10.91,13.84,2.42,4.07,4.27,8.5,5.62,13.04,1.08,3.66,2.19,8.53,1.91,11.29"/>
      <path id="path4014" class="cls-4" d="M183.5,360.44l-.17-3,2.67.17v2.33l2.83.67-.67-6.17-5,.5-1.5-5.67,2.17-.67,1,3,2.67-.67-1.67-5.5-5,1.67-2.67-5.67,2.83-1,1.17,2.5,2.67-.83-2.33-5.83-5,2.5-2.83-5.33,2.5-1.83,1.33,2.83,2.83-1.33-3.17-5.17-4.67,2.83-3.33-4.5,2.5-1.83,1.17,1.83,2.17-1.33-3.17-4.67-4.83,3.83-3.67-4.33,2.33-2.33,2.17,2.5,1.67-1.67-4.17-4.83-4.33,4-4.17-4,2-2.5,2.67,2.67,1.5-2.33-4.5-4-4.33,4.33-4.55-3.5,2.38-2.33,2.17,1.67,2-1.83-4.67-3.17-2.17,2.33"/>
    </g>
    <path id="path3932-8" class="cls-7" d="M189.21,277.62c8.29,11.11,15.18,23.5,19.44,36.66,3.45,10.67,4.24,22.11,4.6,33.31.22,6.59-.45,13.2-1.41,19.72-.31,2.11-.91,4.17-1.42,6.24"/>
    <g id="g4071">
      <path id="path3934" class="cls-7" d="M186.92,280.68s-2.7,5.9-3.77,8.96c-1.1,3.12-2.18,6.28-2.71,9.55-.54,3.34-.67,6.76-.47,10.14.16,2.62.68,5.22,1.3,7.78.57,2.37,1.24,4.73,2.24,6.95,1.36,3,3.18,5.78,5.07,8.49,1.97,2.82,4.03,5.6,6.48,8.01,1.96,1.92,4.19,3.56,6.48,5.07,2.58,1.7,8.13,4.48,8.13,4.48"/>
      <path id="path3936" class="cls-10" d="M198.12,297.65c-.57,5.49-.95,11.2.41,16.54.91,3.6,2.88,6.92,5.07,9.91,1.45,1.97,3.37,3.56,5.24,5.14,0,0-2.05-10.89-3.82-16.13-1.81-5.35-6.9-15.46-6.9-15.46h0Z"/>
      <path id="path3938" class="cls-7" d="M189.4,283.75s-2.27.02-3.06.71c-.92.8-1.34,2.2-1.3,3.42.04,1.21.75,2.37,1.53,3.3,1.11,1.32,2.71,2.15,4.24,2.95,1.22.63,3.89,1.41,3.89,1.41"/>
      <path id="path3940-9" class="cls-7" d="M193.29,305.43s-3.22-.1-4.83-.24c-1.38-.11-2.87.1-4.12-.47-1.16-.53-2.25-1.45-2.83-2.59-.48-.95-.58-2.14-.35-3.18.32-1.52,1.1-3.1,2.36-4.01,1.04-.76,2.48-.82,3.77-.82,2.53-.02,7.42,1.53,7.42,1.53"/>
      <path id="path3942" class="cls-14" d="M193.99,297.48s-3.86-1.24-5.77-.89c-.92.17-1.97.55-2.47,1.39-.46.78-.44,1.92-.12,2.78.4,1.08,1.35,1.97,2.36,2.4,1.71.73,5.54,0,5.54,0l.47-5.69Z"/>
      <path id="path3940-1-09" class="cls-7" d="M194.79,314.79s-3.09.9-4.66,1.27c-1.34.32-2.69.98-4.06.83-1.27-.14-2.59-.66-3.5-1.54-.76-.74-1.22-1.81-1.34-2.85-.17-1.51.07-3.22.98-4.45.75-1.02,2.1-1.53,3.32-1.93,2.39-.79,7.53-.86,7.53-.86"/>
      <path id="path3942-7" class="cls-14" d="M193.56,307.68s-4.35-.05-6.21.89c-.82.42-1.71,1.08-1.94,1.97-.21.82.14,1.8.7,2.45.7.81,1.86,1.29,2.94,1.36,1.84.11,5.26-1.71,5.26-1.71l-.75-4.96Z"/>
      <path id="path3940-1-4" class="cls-7" d="M198.65,323.92s-2.79,1.6-4.23,2.34c-1.23.63-2.38,1.59-3.75,1.77-1.27.17-2.67-.03-3.77-.67-.91-.54-1.61-1.47-1.97-2.45-.52-1.43-.69-3.15-.11-4.56.49-1.17,1.68-1.98,2.77-2.66,2.14-1.34,7.11-2.62,7.11-2.62"/>
      <path id="path3942-7-0" class="cls-14" d="M195.17,317.17s-3.71,1-5.1,2.23c-.69.61-1.41,1.46-1.42,2.37-.01.85.57,1.72,1.26,2.21.87.62,2.11.82,3.18.62,1.82-.33,4.7-2.9,4.7-2.9l-2.62-4.53Z"/>
      <path id="path3940-1-4-9" class="cls-7" d="M204.76,331.22s-2.22,2.34-3.38,3.45c-1,.96-1.82,2.2-3.09,2.77-1.17.53-2.57.74-3.8.44-1.03-.25-1.97-.95-2.59-1.79-.91-1.22-1.57-2.82-1.41-4.34.13-1.26,1.04-2.38,1.89-3.34,1.67-1.89,6.06-4.55,6.06-4.55"/>
      <path id="path3942-7-0-4" class="cls-14" d="M199.64,325.83s-3.42,2.13-4.44,3.77c-.49.79-.93,1.8-.68,2.68.23.82,1.03,1.48,1.84,1.76,1.01.35,2.26.18,3.22-.32,1.65-.84,3.67-4.13,3.67-4.13l-3.62-3.77Z"/>
      <path id="path4045-3" class="cls-10" d="M195.48,293.07c-1.4-.39-2.95-.64-4.05-1.58-1.19-1.02-2.31-2.5-2.36-4.06-.01-.5.31-1.01.68-1.35.33-.29.87-.51,1.23-.47,1.5,2.48,3.01,4.96,4.5,7.46Z"/>
      <path id="path4049-54" class="cls-7" d="M204.42,331.36c-1.76,1.57-3.91,3.88-4.76,6.4-.52,1.56-.63,3.4-.04,4.94.49,1.27,1.51,2.41,2.76,3.03,1.25.62,2.89.87,4.21.4,1.44-.5,2.31-1.97,3.2-3.16"/>
      <path id="path3942-7-0-4-8" class="cls-14" d="M206.76,332.35s-3.09,3.35-3.7,5.46c-.26.89-.43,2,.09,2.76.66.97,2.05,1.54,3.21,1.41,1.28-.14,2.47-1.42,3.13-2.27.23-2.51-.24-5.47-.24-5.47l-2.5-1.9Z"/>
    </g>
    <g id="g4147-27">
      <path id="path4087-2" class="cls-7" d="M278.72,234.97s-.08-1.8.18-2.64c.14-.45.7-1.23.7-1.23,0,0-2.9,1.05-4.41,1.06-1.57,0-3.03-.81-4.58-1.06-1.86-.29-3.76-.64-5.64-.49-2.11.17-4.26.62-6.17,1.55-.87.42-2.29,1.76-2.29,1.76,0,0,3.9-1.83,5.99-2.29,1.61-.36,3.29-.48,4.93-.35,1.56.12,3.02.93,4.58,1.06,1.88.15,3.8.04,5.64-.35.5-.11,1.44-.53,1.44-.53,0,0-.45,1.13-.52,1.73-.06.6.13,1.09.13,1.8Z"/>
      <path id="path4089-6" class="cls-7" d="M276.83,237.02s-1.06.37-1.58.25c-1.26-.28-2-1.7-3.2-2.16-.99-.38-2.09-.41-3.15-.45-1.19-.04-2.41-.03-3.55.27-1.56.41-2.99,1.23-4.36,2.07-1.19.72-2.15,1.79-3.33,2.52-.46.28-1.44.72-1.44.72,0,0,2.56.24,3.82.04,2.05-.32,3.86-1.57,5.89-1.98,1.12-.23,2.28-.27,3.42-.27,1.09,0,2.18.13,3.26.25.41.04.81.24,1.21.18,1.1-.17,3.01-1.44,3.01-1.44Z"/>
      <path id="path4091-7" class="cls-7" d="M260.93,240.55s2.12,2.03,3.46,2.52c.96.35,2.04.24,3.06.22,1.54-.03,3.14.01,4.59-.49.87-.3,1.6-.93,2.34-1.48.53-.39,1.5-1.28,1.5-1.28,0,0-1.85-.82-2.8-1.14-.96-.33-1.92-.71-2.92-.81-1.47-.15-2.98-.04-4.41.31-1.71.43-4.81,2.16-4.81,2.16h0Z"/>
      <ellipse id="path4093-2" class="cls-5" cx="268.71" cy="240.64" rx="3.6" ry="2.43"/>
      <ellipse id="path4095-2" class="cls-10" cx="268.93" cy="240.08" rx="1.3" ry="1.01"/>
      <path id="path4097-0" class="cls-10" d="M299.83,236.02s-1.14-.85-1.83-2.17c-.63-1.2-1.97-1.99-3.25-2.42-1.05-.35-2.23-.09-3.33,0-1.26.1-2.49.64-3.75.58-.69-.03-1.34-.33-2-.5-.31-.08-.92-.25-.92-.25l.67,3.72-.25-3.31s1.63.68,2.5.83c1.12.2,2.28.1,3.42.08,1.36-.03,2.78-.66,4.08-.25,1.89.59,4.67,3.67,4.67,3.67Z"/>
      <path id="path4099-11" class="cls-7" d="M284.81,235.8c0,1.43.03,3.25.29,4.85.29,1.74,1.03,3.38,1.4,5.1.32,1.49.44,3.01.73,4.51.13.67.44,1.32.46,2.01.02.71.04,1.51-.36,2.09-.8,1.16-2.54,1.25-3.64,2.13-.49.39-.88.89-1.28,1.37"/>
      <path id="path4103-75" class="cls-7" d="M276.25,251.1c-.84-.31-1.64.53-2.07,1.2-.32.5-.34,1.19-.19,1.76.22.82.77,1.65,1.52,2.05.86.45,2,.4,2.91.08.69-.24,1.04-1.05,1.68-1.4.81-.45,1.74-.63,2.64-.86"/>
      <path id="path4106-9" class="cls-10" d="M269.25,257.02s-1.84-.57-2.75-.42c-.47.08-.96.29-1.25.67-.49.63-.66,1.54-.58,2.33.08.85.4,1.81,1.08,2.33,1.08.82,2.66.84,4,.67,1.3-.16,2.41-1.01,3.58-1.58.79-.39,1.51-.93,2.33-1.25.91-.36,1.86-.74,2.83-.75.6,0,1.57-.16,1.75.42.13.43-.5.81-.92,1-1.11.5-2.47-.15-3.67.08-1.31.25-2.47,1.03-3.75,1.42-1.2.36-2.42.95-3.67.83-1.03-.1-2.11-.52-2.83-1.25-.49-.49-.79-1.22-.83-1.92-.05-.72.13-1.52.58-2.08.57-.7,1.51-1.23,2.42-1.25.61-.02,1.67.75,1.67.75Z"/>
      <path id="path4110-18" class="cls-10" d="M292.58,256.1s1.54.61,2,1.25c.4.56.5,1.31.5,2,0,.94-.05,2.04-.67,2.75-.39.45-1.07.63-1.67.67-.89.06-1.75-.35-2.58-.67-.87-.33-1.65-.88-2.5-1.25-.79-.35-1.56-.85-2.42-.92-.54-.04-1.16.67-1.58.33-.17-.14-.11-.47,0-.67.22-.41.71-.7,1.17-.75.68-.07,1.29.47,1.92.75.88.4,1.72.9,2.58,1.33.91.46,1.74,1.21,2.75,1.33.79.1,1.77.06,2.33-.5.66-.66.67-1.82.58-2.75-.07-.78-.38-1.59-.92-2.17-.38-.41-1.5-.75-1.5-.75Z"/>
      <path id="path4113-17" class="cls-10" d="M273.33,265.44s1.78-.51,2.67-.75c.83-.23,1.64-.67,2.5-.67.95,0,1.82.56,2.75.75.77.16,1.57.5,2.33.33.55-.12.86-.83,1.42-.92.8-.12,1.6.33,2.33.67.45.21,1.25.83,1.25.83,0,0-1.24-.63-1.92-.67-.88-.05-1.7.5-2.58.58-1.11.11-2.23.04-3.33-.08-.73-.08-1.44-.3-2.17-.42-.72-.11-1.44-.3-2.17-.25-.75.06-1.43.49-2.17.58-.3.04-.92,0-.92,0Z"/>
      <path id="path4115-8" class="cls-7" d="M278.17,268.35s1.51.78,2.33.92c.74.13,1.52.09,2.25-.08.83-.2,2.33-1.08,2.33-1.08"/>
      <path id="path4117-6" class="cls-7" d="M285.67,238.27s2.19-1.65,3.42-2.25c1-.49,2.05-1.01,3.17-1.08,1.02-.07,2.02.29,3,.58.78.23,1.47.71,2.25.92.65.17,2,.25,2,.25"/>
      <path id="path4091-2-6" class="cls-7" d="M298.55,239.63s-1.93,1.67-3.06,2.23c-.8.4-1.69.66-2.58.75-1.33.14-2.73.13-4.01-.32-.77-.27-1.41-.87-2.07-1.4-.47-.37-1.33-1.23-1.33-1.23,0,0,1.6-.89,2.42-1.25.83-.36,1.66-.78,2.54-.92,1.28-.2,2.6-.16,3.85.15,1.5.37,4.24,1.98,4.24,1.98h0Z"/>
      <ellipse id="path4093-4-99" class="cls-1" cx="291.77" cy="240.01" rx="3.14" ry="2.43" transform="translate(-17.88 23.56) rotate(-4.49)"/>
      <ellipse id="path4095-5-2" class="cls-2" cx="291.56" cy="239.45" rx="1.14" ry="1.01" transform="translate(-28.91 40.35) rotate(-7.54)"/>
      <path id="path4143-6" class="cls-7" d="M273.83,243.19l-3.42,3"/>
      <path id="path4145-6" class="cls-7" d="M287.17,244.27l3.42,2.5"/>
    </g>
    <path id="path3037-7-45-51" class="cls-15" d="M279.58,346.48c.22.43.57.87,1.24.94,1.19.13,2.11-.84,2.26-2.16.1-.93-.17-1.58-.41-2.33-.26-.8-.68-1.53-1.09-2.27-.52-.94-1.7-2.74-1.7-2.74,0,0-1.56,1.49-2.27,2.29-.56.63-1.14,1.25-1.56,1.97-.4.68-.81,1.25-.92,2.18-.15,1.32.53,2.47,1.72,2.61.66.07,1.1-.28,1.41-.65l.12.15q-.21.65-.41,1.3c-.21.65-.75,1.93-.75,1.93q1.35-.12,2.65.3s-.25-1.37-.31-2.05-.06-.68-.12-1.35l.15-.12Z"/>
    <path id="path3037-7-45-51-7" class="cls-15" d="M282.21,329.66c.18.45.49.92,1.14,1.05,1.17.24,2.17-.64,2.45-1.94.19-.91-.02-1.59-.19-2.35-.18-.82-.54-1.59-.87-2.36-.43-.99-1.44-2.89-1.44-2.89,0,0-1.69,1.34-2.47,2.07-.61.57-1.25,1.14-1.74,1.82-.46.64-.92,1.17-1.11,2.08-.27,1.31.3,2.51,1.47,2.76.65.14,1.13-.18,1.47-.51l.1.16q-.27.63-.53,1.25c-.27.63-.93,1.85-.93,1.85q1.36,0,2.61.54s-.12-1.39-.12-2.07q0-.68,0-1.36l.16-.1Z"/>
    <path id="path3037-7-45-51-7-1" class="cls-15" d="M287.57,313.7c.11.47.34.99.96,1.23,1.12.43,2.25-.28,2.73-1.52.33-.87.23-1.57.19-2.35-.05-.84-.27-1.66-.48-2.47-.26-1.04-.96-3.08-.96-3.08,0,0-1.88,1.05-2.78,1.65-.7.47-1.41.92-2.01,1.51-.56.55-1.1,1.01-1.44,1.88-.48,1.24-.11,2.53,1.01,2.96.62.24,1.14,0,1.53-.27l.08.17-.73,1.15c-.36.57-1.22,1.68-1.22,1.68q1.34.23,2.49.96s.1-1.39.22-2.06q.11-.67.23-1.34l.17-.08Z"/>
    <path id="path3037-7-45-51-7-1-1" class="cls-15" d="M295.53,298.08c.03.48.18,1.03.76,1.36,1.04.6,2.27.07,2.93-1.08.47-.81.47-1.51.55-2.3.08-.83-.02-1.68-.09-2.51-.1-1.07-.47-3.19-.47-3.19,0,0-2.02.74-3,1.2-.76.35-1.54.69-2.22,1.18-.64.46-1.24.82-1.71,1.63-.66,1.16-.5,2.48.54,3.08.58.33,1.12.19,1.55-.03l.05.18-.9,1.02c-.45.51-1.46,1.47-1.46,1.47q1.29.43,2.31,1.33s.32-1.36.54-2q.22-.64.43-1.29l.18-.05Z"/>
    <path id="path3037-7-45-51-7-1-1-5" class="cls-15" d="M304.85,284.91c-.06.48-.01,1.04.5,1.47.91.78,2.21.48,3.08-.53.6-.71.74-1.4.96-2.16.23-.81.29-1.65.37-2.49.1-1.07.12-3.23.12-3.23,0,0-2.12.36-3.16.63-.81.21-1.64.4-2.4.76-.71.34-1.37.58-1.98,1.29-.86,1.02-.95,2.35-.03,3.12.51.43,1.07.39,1.53.25l.02.19q-.53.42-1.07.84c-.53.42-1.7,1.18-1.7,1.18q1.19.66,2.03,1.73s.56-1.27.89-1.87q.33-.59.66-1.19l.19-.02Z"/>
    <path id="path3037-7-45-51-7-1-1-5-2" class="cls-15" d="M201.88,278.71c0-.48.12-1.03.67-1.4,1-.66,2.26-.21,2.99.9.51.78.56,1.48.69,2.26.13.83.09,1.68.06,2.51-.03,1.08-.28,3.22-.28,3.22,0,0-2.06-.62-3.06-1.01-.78-.31-1.58-.6-2.29-1.05-.66-.42-1.29-.75-1.8-1.53-.73-1.11-.65-2.44.35-3.1.56-.37,1.11-.25,1.55-.07l.04-.18q-.48-.48-.96-.97c-.48-.48-1.55-1.38-1.55-1.38q1.26-.51,2.23-1.47s.4,1.33.66,1.96q.26.63.51,1.26l.18.04Z"/>
    <path id="path3037-7-45-51-7-1-1-5-2-7" class="cls-15" d="M208.92,292.09c.08-.47.29-1,.9-1.27,1.1-.48,2.26.17,2.8,1.39.38.85.31,1.56.31,2.34,0,.84-.19,1.67-.36,2.49-.21,1.05-.81,3.13-.81,3.13,0,0-1.93-.96-2.85-1.51-.72-.43-1.46-.85-2.08-1.41-.59-.53-1.15-.95-1.53-1.8-.54-1.22-.24-2.52.86-3,.61-.27,1.14-.06,1.54.19l.07-.18q-.39-.56-.78-1.11c-.39-.56-1.3-1.61-1.3-1.61q1.33-.29,2.44-1.08s.17,1.38.32,2.05q.15.66.29,1.33l.18.07Z"/>
    <path id="path3037-7-45-51-7-1-1-5-2-7-6" class="cls-15" d="M214.91,305.83c.11-.47.34-.99.96-1.22,1.12-.43,2.25.28,2.73,1.53.33.87.23,1.57.19,2.36-.05.84-.28,1.66-.48,2.47-.26,1.04-.96,3.08-.96,3.08,0,0-1.88-1.05-2.77-1.65-.7-.47-1.41-.92-2.01-1.52-.56-.56-1.1-1.01-1.43-1.88-.48-1.25-.11-2.53,1.01-2.96.62-.24,1.14,0,1.53.27l.08-.17q-.36-.57-.73-1.15c-.36-.57-1.21-1.68-1.21-1.68q1.34-.23,2.49-.95s.1,1.39.22,2.06q.11.67.23,1.34l.17.08Z"/>
    <path id="path3037-7-45-51-7-1-1-5-2-7-6-1" class="cls-15" d="M219.88,321.63c.18-.45.48-.92,1.14-1.06,1.17-.25,2.18.63,2.46,1.93.19.91-.01,1.59-.18,2.36-.18.82-.53,1.59-.86,2.36-.42.99-1.43,2.9-1.43,2.9,0,0-1.7-1.33-2.48-2.06-.62-.57-1.25-1.13-1.75-1.81-.47-.64-.93-1.16-1.13-2.08-.28-1.3.28-2.51,1.45-2.76.65-.14,1.13.17,1.47.5l.1-.16q-.27-.62-.54-1.25c-.27-.62-.94-1.84-.94-1.84q1.36-.02,2.61-.56s-.11,1.39-.1,2.07q0,.68.02,1.36l.16.1Z"/>
    <path id="path3037-7-45-51-7-1-1-5-2-7-6-1-4" class="cls-15" d="M221.87,337.87c.22-.43.57-.87,1.23-.95,1.19-.14,2.11.83,2.26,2.15.11.93-.16,1.58-.4,2.33-.25.8-.68,1.54-1.08,2.27-.51.95-1.69,2.75-1.69,2.75,0,0-1.56-1.48-2.28-2.29-.56-.63-1.14-1.25-1.57-1.97-.4-.68-.82-1.25-.92-2.17-.15-1.32.52-2.48,1.71-2.61.66-.08,1.11.27,1.42.64l.12-.15q-.21-.65-.42-1.29c-.21-.65-.76-1.93-.76-1.93q1.36.11,2.65-.31s-.24,1.37-.3,2.05q-.06.68-.11,1.36l.15.12Z"/>
    <path id="path3033-5" class="cls-7" d="M203.93,270.91c-10.15,3.73-20.09,8.12-29.52,13.4-8.57,4.8-16.92,10.02-24.41,16.5"/>
    <path id="path4175-2" class="cls-13" d="M286.9,423.69l-2.97.42-2.76-1.27-2.65,1.27-1.8-.96-1.8.53-4.03-8.7-4.88-12.31-2.97-10.51-1.38-9.02-.85-6.79-.21-6.9,7.43.21,1.49,9.76,2.55,11.99,3.08,9.45,3.29,7.54,3.5,6.79,2.23,4.25,2.76,4.25Z"/>
    <path id="path4173-2" class="cls-13" d="M217.28,421.25l5.31-9.98,5.31-11.89,3.61-11.89,2.33-10.93,1.27-6.9-5.2-.21-2.87,11.14-4.14,12.1-3.5,8.17-4.14,7.11-2.97,4.25,2.55,1.59,1.38,3.82,1.06,3.61Z"/>
    <path id="path4177-6" class="cls-13" d="M189.89,372.85l-7.34-3.67s-.02,1.89-.52,2.62c-.82,1.2-2.33,1.79-3.67,2.36-1.35.58-2.84.79-4.28,1.05-.72.13-2.18.26-2.18.26l.09,25.6s3.1-2.73,4.46-4.28c1.62-1.85,3-3.9,4.37-5.94,1.34-1.99,2.61-4.02,3.76-6.12,1.12-2.04,2.11-4.16,3.06-6.29.82-1.84,2.27-5.59,2.27-5.59Z"/>
    <path id="path4169-8" class="cls-13" d="M344.5,403.44l-11,7.67-13.5,7.33-6.17,3.17-.83-2.17,3.5-8.17,3.33-12.33.5-7.67-1.5-9.5-2.67-7.17-4.5-7.33-5.17-6.17-4.17-4-5-3.67-7.17-3.67-.33-9.33,1-5.83,1.33-7.17,13.67,6.5.67,11,2.67,11.67,4.67,12.33,4,6.5,8.83,11.5,7.83,7.83,6.17,4.83,3.83,3.83Z"/>
    <g id="g4120-5">
      <path id="path3931-7" class="cls-11" d="M292.67,509.94c-7-12.78-14-25.56-21-38.33-7.52,2.81-15.53,3.74-23.46,4.58-8.65.92-17.4.95-26.09.47-7.09-.39-14.22-.92-21.12-2.72-7.89,12-15.78,24-23.67,36h115.33Z"/>
      <path id="path3933-6" d="M242.54,489.57c-.8-.67-1.86-1.27-2.9-1.2-1.05.06-1.96.87-2.76,1.56-.51.44-.81.89-1.23,1.58-.54-.65-1.02-1.46-1.76-1.9-.92-.54-2.11-1.17-3.1-.77-1.19.48-1.92,1.99-2.02,3.27-.09,1.18.48,2.5,1.38,3.27.85.72,2.14.7,3.25.8-.32,1-.85,2.27-.46,3.32.45,1.22,1.65,2.4,2.94,2.58,1.17.16,2.46-.6,3.2-1.52.64-.8.89-2,.69-3.01-.15-.75-.7-1.38-1.33-1.85,1.29-.11,2.78-.25,3.69-1.17.87-.88,1.18-2.32,1.09-3.55-.04-.52-.42-.96-.67-1.41h0ZM236.88,493.83c.09.59-.34,1.46-.93,1.54-.61.08-1.36-.65-1.35-1.27,0-.58.72-1.15,1.29-1.15.44,0,.92.44.99.88Z"/>
      <path id="path3933-7-1-8" d="M261.24,499.32c.93-.48,1.88-1.23,2.23-2.22.35-1-.03-2.15-.38-3.15-.27-.76-.81-1.4-1.29-2.06.68.23,1.48.25,2.11-.06,1.19-.59,2.48-1.76,2.52-3.09.04-1.28-1.1-2.54-2.24-3.12-1.06-.54-2.5-.52-3.55.02-.99.51-1.47,1.71-1.99,2.69-.8-.68-1.76-1.37-2.81-1.37-1.4,0-3.14.61-3.76,1.86-.57,1.16.03,2.72.74,3.8.48.73,1.29,1.4,2.16,1.48.79.08,1.5-.53,2.18-.94-.4,1.24-.84,2.67-.34,3.86.48,1.14,1.68,1.98,2.86,2.37.49.16,1.04-.02,1.56-.08h0ZM259.32,492.12c-.61-.08-1.44-.66-1.33-1.27.1-.61,1.15-1.06,1.69-.75.5.28.47,1.19.21,1.7-.1.19-.35.35-.57.32Z"/>
      <path id="path3933-7-4-8" d="M209.97,500.61c-.93-.48-1.88-1.23-2.23-2.22-.35-1,.03-2.15.38-3.15.27-.76.81-1.4,1.29-2.06-.68.23-1.48.25-2.11-.06-1.19-.59-2.48-1.76-2.52-3.09-.04-1.28,1.1-2.54,2.24-3.12,1.06-.54,2.5-.52,3.55.02.99.51,1.47,1.71,1.99,2.69.8-.68,1.76-1.37,2.81-1.37,1.4,0,3.14.61,3.76,1.86.57,1.16-.03,2.72-.74,3.8-.48.73-1.29,1.4-2.16,1.48-.79.08-1.5-.53-2.18-.94.4,1.24.84,2.67.34,3.86-.48,1.14-1.68,1.98-2.86,2.37-.49.16-1.04-.02-1.56-.08h0ZM211.89,493.41c.61-.08,1.44-.66,1.33-1.27-.1-.61-1.15-1.06-1.69-.75-.5.28-.47,1.19-.21,1.7.1.19.35.35.57.32Z"/>
      <path id="path3933-7-4-0-92" d="M189.23,497.36c1.17.03,2.52-.35,3.31-1.26.83-.95.9-2.45.95-3.75.47.61.9,1.42,1.62,1.61.8.21,1.73-.14,2.39-.66.98-.78,2.02-2.06,1.89-3.34-.14-1.39-1.49-2.53-2.73-3.01-.92-.35-2-.02-2.93.34-.04-.32-.08-.67-.12-1.01l-1.6,2.42c.07-.05.16-.1.24-.11.57-.1,1.35.67,1.25,1.28-.1.6-1.03.88-1.59.75-.2-.05-.38-.27-.41-.48-.03-.26.02-.59.13-.87l-4.39,6.61c.19.32.41.6.64.87.44.23.85.6,1.34.61Z"/>
      <path id="path3933-7-4-0-9-7" d="M281.64,496.37c-1.16-.07-2.48-.56-3.19-1.54-.74-1.02-.69-2.52-.62-3.81-.52.57-1.02,1.33-1.76,1.47-.81.14-1.72-.29-2.33-.87-.91-.86-1.84-2.22-1.6-3.49.26-1.37,1.7-2.39,2.98-2.76.95-.27,2,.15,2.89.59.07-.32.14-.66.21-.99l1.39,2.55c-.07-.06-.15-.11-.23-.13-.56-.15-1.4.55-1.35,1.17.05.61.95.97,1.52.88.2-.03.4-.23.45-.44.05-.26.03-.59-.05-.88l3.8,6.96c-.22.3-.46.57-.71.81-.46.19-.9.53-1.39.5h0Z"/>
      <path id="path4015-9-4" d="M227.51,486.33c1.75-.22,3.59.47,5.09,1.38.8.48,1.36,1.29,1.91,2.04.5.68.82,1.79,1.25,2.21-.24-2.31-.85-3.81-2.05-5.26-1.15-1.39-2.89-2.25-4.58-2.89-1.82-.69-3.83-1.07-5.78-.93-2.29.16-4.56.96-6.57,2.05-1.37.74-2.65,1.73-3.59,2.96-.52.68-.97,1.7-1.05,2.35.87-1.05,2.33-2.28,3.78-2.96,1.32-.63,2.84-1.16,4.29-.96,1.41.19,2.46.94,3.75,2.02,1.37-.73,2.21-1.83,3.56-2h0Z"/>
      <path id="path4015-4-5" d="M243.64,485.68c-1.73-.13-3.48.71-4.95,1.63-.77.49-1.37,1.24-1.9,1.98-.49.68-.52,2.28-1.16,2.23.12-2.32.81-3.71,1.93-5.16,1.09-1.42,2.74-2.4,4.38-3.12,1.76-.78,3.72-1.26,5.65-1.23,2.27.05,4.55.73,6.59,1.71,1.39.67,2.71,1.59,3.7,2.77.55.66,1.04,1.64,1.16,2.29-.92-1-2.42-2.15-3.88-2.77-1.34-.56-2.86-1.01-4.28-.74-1.38.26-2.38,1.06-3.6,2.2-1.39-.66-2.27-1.71-3.62-1.81h0Z"/>
      <path id="path4015-4-8-4" d="M206.51,484.3c1.37.04,2.74.93,3.84,1.97.58.55.9,1.41,1.32,2.14.33.57.45,1.73.95,1.74-.01-2.15-.55-3.29-1.35-4.65-.82-1.41-2.07-2.47-3.33-3.29-1.36-.88-2.88-1.51-4.4-1.66-1.78-.17-3.59.25-5.23.97-1.11.49-2.18,1.22-3,2.22-.45.56-.87,1.42-.99,2.01.75-.84,1.97-1.77,3.14-2.2,1.07-.39,2.28-.67,3.39-.29,1.08.37,1.83,1.2,2.75,2.37,1.11-.48,1.84-1.37,2.9-1.34h0Z"/>
      <path id="path4015-4-8-8-3" d="M269.81,482.15c1.34-.52,3.02-.18,4.5.44.78.33,1.47,1.04,2.13,1.65.69.64,1.41,2.29,1.9,2.1-.87-2.2-1.89-3.65-3.44-4.92-1.27-1.05-2.98-1.68-4.53-2-1.67-.35-3.39-.36-4.91.12-1.79.57-3.38,1.74-4.68,3.16-.88.96-1.62,2.16-2.02,3.52-.22.76-.28,1.82-.16,2.47.53-1.6,1.04-2.97,2.17-3.98.85-.76,2.03-1.25,3.16-1.27,1.28-.02,2.25.48,3.61,1.3.89-.96,1.24-2.17,2.27-2.58h0Z"/>
      <path id="path4072-1-0" class="cls-13" d="M274.42,478s-3.41-1.1-5.19-1.18c-2.1-.1-4.31.02-6.25.82-1.37.57-2.47,1.67-3.54,2.71-.72.7-1.89,2.36-1.89,2.36,0,0-3.88-2.13-6.01-2.59-2.11-.46-4.34-.39-6.48-.12-2.06.26-4.18.67-6.01,1.65-1.47.79-3.77,3.3-3.77,3.3,0,0-2.91-3.13-4.83-3.89-1.87-.74-4-.57-6.01-.47-1.83.09-3.67.39-5.42.94-1.74.55-4.95,2.36-4.95,2.36,0,0-1.83-2.51-3.06-3.42-1.15-.84-2.53-1.35-3.89-1.77-1.37-.42-2.81-.84-4.24-.71-1.75.16-4.95,1.77-4.95,1.77l3.37-5.05s10.15,1.75,15.28,2.23c4.3.4,8.63.49,12.95.54,4.65.06,9.31.03,13.96-.25,3.88-.24,7.75-.7,11.6-1.2,2.9-.37,5.83-.66,8.68-1.34,2.61-.62,7.65-2.48,7.65-2.48l3,5.77Z"/>
    </g>
    <g id="g4187-2">
      <path id="path4075-3" class="cls-7" d="M271.2,471.41c1.35-6.92,2.66-13.88,4.88-20.58,2.15-6.14,5.34-11.84,8.51-17.49,1.19-1.81,3.49-3.38,5.73-2.77,1.48.42,1.54,1.99,1.08,3.21"/>
      <path id="path4078-3" class="cls-7" d="M267.72,472.28c1.21-10.88,3.79-21.7,8.15-31.72,2.46-5.63,6.43-12.64,12.56-14.21,2.61-.67,6.34.37,7.61,2.75,1.43,2.68.38,7.24-2.2,8.84-2.44,1.5-6.38.16-8.38-1.89-.71-.73-.51-1.99-.6-3.01"/>
      <path id="path4081-4" class="cls-7" d="M263.79,473.88c.94-6.75,1.77-13.76,3.76-20.38,2.32-7.68,4.8-15.6,9.46-22.14,2.15-3.01,4.62-6.61,8.22-7.43,1.79-.41,4.19-.26,5.29,1.56"/>
      <path id="path4081-2-1" class="cls-7" d="M260.02,474.03c.82-7.04,1.9-14.02,3.79-20.81,1.6-5.74,3.61-11.43,6.36-16.71,2.36-4.54,4.72-8.84,8.62-12.7.99-.98,3.36-.86,5.05.18"/>
      <path id="path4081-2-4-1" class="cls-7" d="M256.46,474.77c.64-7.06,1.54-14.06,3.27-20.9,1.46-5.78,3.33-11.51,5.94-16.87,2.13-4.38,4.06-8.37,7.87-12.33.97-1.01,2.76-1.81,4.48-.82"/>
      <path id="path4081-2-4-5-3" class="cls-7" d="M252.51,475.51c.69-7.05,1.54-12.91,3-19.23,1.31-5.69,2.95-11.44,5.17-16.74,1.81-4.34,3.45-8.28,6.59-12.17.8-.99,2.25-1.75,3.59-.73"/>
      <path id="path4081-2-4-5-5-8" class="cls-7" d="M249.11,475.91c.42-6.67,1.01-12.24,2.17-18.26,1.04-5.42,2.39-10.9,4.29-15.98,1.56-4.16,2.96-7.94,5.78-11.71.71-.96,2.05-1.73,3.34-.81"/>
      <path id="path4081-2-4-5-5-1-7" class="cls-7" d="M245.39,475.96c.39-6.43.94-11.79,2.01-17.58.97-5.22,2.21-10.49,3.97-15.39,1.44-4,2.74-7.64,5.35-11.27.66-.92,1.9-1.67,3.09-.78"/>
    </g>
    <g id="g4260-4">
      <path id="path4197-2" class="cls-7" d="M257.17,430.72c-.49-.46-1.17-.94-1.84-.85-1.09.14-1.87,1.24-2.54,2.1-1,1.29-1.44,2.94-2.09,4.44-.67,1.55-1.24,3.14-1.87,4.7"/>
      <path id="path4199-7" class="cls-7" d="M247.16,437.79c1.12-2.52,2.08-5.14,3.48-7.51.67-1.13,1.17-2.57,2.34-3.18,1.6-.84,3.93-1.17,5.43-.15,1.11.75,1.36,2.43,1.4,3.78"/>
      <path id="path4201-7-3" class="cls-7" d="M245.49,435.45l5-10.3"/>
      <path id="path4203-9" class="cls-7" d="M232.93,425.73l3.73-7.26"/>
      <path id="path4246-3" class="cls-7" d="M222.14,412.48l-4.32,8.63"/>
      <path id="path4205-1" class="cls-7" d="M216.94,421.31c-.84-2.44-.75-5.43-2.5-7.32-1.56-1.67-4.06-3.03-6.32-2.67-2.3.37-4.57,2.38-5.27,4.6-1.23,3.93,1.54,8.47,2.98,11.98"/>
      <path id="path4211-9" class="cls-7" d="M241.37,431.61c1.26-2.15,4.05-4.96,3.24-7.59-.37-1.18-1.92-2.21-3.14-1.99-1.45.27-1.94,2.26-2.66,3.55-.52.93-.78,1.99-1.17,2.98"/>
      <path id="path4213-8" class="cls-7" d="M243.53,433.29c1.82-3.16,3.68-6.25,4.2-9.51.29-1.82-1.26-3.9-2.93-4.68-1.83-.86-4.65-.65-6.01.84-1.44,1.58-2.16,3.42-3.04,5.22-.31.62-.76,1.94-.76,1.94"/>
      <path id="path4215-6" class="cls-7" d="M230.48,424.35c1.37-2.49,3.31-5.34,2.74-8.15-.39-1.93-2.04-3.86-3.93-4.42-1.42-.42-3.38.02-4.29,1.2-1.94,2.54-2.97,5.41-3.84,7.84"/>
      <path id="path4217-5" class="cls-7" d="M228.52,422.88c.75-1.7,2.62-4.86,1.48-6.93-.46-.84-1.79-1.34-2.69-1-2.14.81-2.67,4.56-3.21,6.07"/>
      <path id="path4219-0" class="cls-7" d="M201.63,473.51c.2-11.16-.34-22.43,1.15-33.48.66-4.85,1.9-10.09,5.13-13.76,2.29-2.61,5.7-4.36,9.22-4.86"/>
      <path id="path4232-2" class="cls-7" d="M201.18,456.07c-2.03-3.54-3.82-7.39-4.34-11.43-.48-3.76.28-7.3,1.24-11.32"/>
      <path id="path4234-8" class="cls-7" d="M201.67,450.27c-2.22-2.58-2.05-5.04-2.22-7.71-.12-1.74.53-3.78.77-5.17"/>
      <path id="path4236-6" class="cls-7" d="M202.05,440.39c-1.82-3.87-4.67-7.53-5.06-11.79-.23-2.43.02-5.28,1.6-7.13.92-1.08,2.53-1.35,3.95-1.6"/>
      <path id="path4238-0" class="cls-7" d="M202.73,436.04c-1.73-3.3-4.21-7.29-2.94-10.8.53-1.45,1.95-2.85,3.81-2.65"/>
      <path id="path4240-2" class="cls-7" d="M204.18,432.65c-1.7-2.56-2.85-4.72-1.82-6.84.33-.69,1.57-.8,2.11-.9"/>
      <path id="path4248-4" class="cls-7" d="M207.57,425.39c-1.1-2.88-3.38-6.51-1.73-9.13.98-1.55,3.65-2.18,5.32-1.42,2.28,1.04,2.65,4.34,3.29,6.78"/>
      <path id="path4250-8" class="cls-7" d="M212.02,422.58c-.46-2.44-1.04-5.81-3.04-5.35-1.41.33-.5,2.92-.25,4.35.16.88.83,1.93,1.06,2.45"/>
    </g>
    <path id="path3807-0" class="cls-8" d="M150,373.75c4.77-.24,10.27,1.23,15.44,1.4,3.47.11,7.04.58,10.4-.26,2.16-.54,4.84-1.08,5.97-3,1.03-1.76,1.2-4.68-.26-6.11-1.76-1.73-5.55-1.81-7.39-.17-1.03.91-.48,2.74-.4,4.11-3.26.31-6.55.61-9.83.47-2.6-.11-5.13-.93-7.73-1.05-2.07-.09-4.27.15-6.2.3v4.31Z"/>
    <g id="g3845-9">
      <path id="path3810-0" class="cls-9" d="M174.39,362.19c-.29,1.26-.89,2.45-1.59,3.54-.51.79-1.05,1.68-1.89,2.12-.96.51-2.16.31-3.24.41-1.69.17-3.43.77-5.07.35-.57-.14-.91-.79-1.47-.94-1.18-.31-2.47.47-3.66.18-.53-.13-1.11-.37-1.42-.83-.22-.33-.18-1.18-.18-1.18,0,0-1.76.47-2.48.06-.56-.32-.85-1.07-.94-1.71-.13-.87.19-1.78.53-2.59.3-.7.75-1.35,1.3-1.89.25-.25.88-.59.88-.59,0,0-1.8.9-2.65.59-.55-.2-.95-.84-1.06-1.42-.12-.62.25-1.24.47-1.83.31-.84.55-1.78,1.18-2.42.67-.67,2.54-1.24,2.54-1.24,0,0-1.81.61-2.59.24-.51-.24-.83-.86-.94-1.42-.15-.77.1-1.61.47-2.3.28-.51.73-.95,1.24-1.24.41-.23,1.36-.35,1.36-.35,0,0-1.77-.54-1.89-1.3-.13-.84.84-1.61,1.59-2.01,1.55-.82,3.54.05,5.25-.35.98-.23,1.8-.94,2.77-1.18,1.49-.36,3.1-.7,4.6-.35,1.13.26,2.17.96,3.01,1.77.98.95,1.58,2.25,2.18,3.48.61,1.26,1.13,2.58,1.42,3.95.39,1.87.37,3.81.41,5.72.02.88-.04,1.77-.06,2.65-.02.69.1,1.39-.06,2.06h0Z"/>
      <path id="path3815-0" class="cls-9" d="M156.22,365.37c1.03-1.49,2.65-2.74,4.54-2.71,1.28-.25,2.57.49,3.78.16.84-.54,1.6-1.09,2.5-1.43.82-.31,1.67-.55,2.56-.51"/>
      <path id="path3817-6" class="cls-9" d="M155.28,358.94c2.11-1.22,5.15-2.4,7.6-2.65,1.07-.01,2.54-.08,3.06,1.08.46.91.09,2.1-.85,2.54-1.58.92-4.55,2.49-6.27,3.1"/>
      <path id="path3819-1" class="cls-9" d="M163.71,360.59c-1.06-.01-2.86-.9-3.01-2.11-.15-.42-.16-.87-.17-1.31"/>
      <path id="path3821-3" class="cls-9" d="M155.52,352.93c2.69-.51,6.22-1.43,8.96-1.01.94.32,2.23.63,2.54,1.71.07,1.05-.88,1.92-1.76,2.3-.35.1-2.24.21-2.6.23"/>
      <path id="path3823-8" class="cls-9" d="M162.12,355.76c-1.06-.52-1.39-1.7-1.05-2.78.03-.18.07-.35.11-.52"/>
      <path id="path3825-9" class="cls-9" d="M162,367.55c-.27-.89-.7-2.08-1.82-2.08-1.32-.07-2.58.41-3.73,1.02"/>
      <path id="path3827-3" class="cls-9" d="M163.89,351.75c.9-.35,2.73-1.01,1.99-2.25-1.15-1.46-3.15-1.61-4.86-1.81-1.65-.04-3.29.33-4.93.09-.37-.03-.73-.06-1.1-.1"/>
      <path id="path3829-4" class="cls-9" d="M161.18,347.68c1.3-.46,2.57-1.78,1.67-2.62-.46-.59-1.68-.98-2.38-1.1"/>
      <path id="path3831-4" class="cls-9" d="M161.47,351.57c-.72-.56-1.04-1.21-1.07-1.95-.02-.58.58-1.33.72-1.59"/>
      <path id="path3833-6" class="cls-9" d="M159.59,347.38c-.76-.49-1.65-1.35-1.08-2.33.1-.28.23-.54.37-.8"/>
    </g>
    <g id="g4190-4">
      <path id="path3868-9" class="cls-3" d="M179.32,420.28c5.88-5.68,11.54-11.89,16.26-18.65,4.4-6.32,7.78-13.31,11.08-20.27-5.5-2.75-11-5.5-16.5-8.25-2.63,6.06-5.58,12.03-9.25,17.52-2.59,3.87-5.62,7.58-8.91,10.76-.08,4.48.08,9.42,0,13.9,2.36,1.73,4.96,3.26,7.32,4.99h0Z"/>
      <path id="path3870-6" class="cls-4" d="M176.85,417.42c5.08-4.78,6.62-5.82,9.47-9.17,3.83-4.5,7.13-9.44,10.13-14.53,2.56-4.33,5.71-11.73,6.68-13.54"/>
      <path id="path3872-3" class="cls-4" d="M172.34,406.87c3.58-3.46,7.31-7.56,10.46-11.75,2.32-3.08,4.39-6.36,6.17-9.78,1.69-3.24,3.08-6.65,4.25-10.12"/>
      <path id="path3874-7" class="cls-4" d="M178.37,415.62l-.79-7.18-5.09.03"/>
      <path id="path3876-8" class="cls-4" d="M184.5,409.41l-.47-8.01-6.47.67"/>
      <path id="path3878-8" class="cls-4" d="M190.39,402.68l-.71-9.3-6.36,1.18"/>
      <path id="path3880-2" class="cls-4" d="M195.58,394.48l-1.18-8.41-6.36,1.32"/>
      <path id="path3882-9" class="cls-4" d="M200.08,386.68l-2.15-8.38-6.62,2.82"/>
    </g>
    <path id="path3805-5" class="cls-7" d="M196.86,431.14l-13.05-7.88-11.34-7.61"/>
    <g id="g4369-0">
      <path id="path3858-6" class="cls-7" d="M172,375.94v101.33l-9.67,8.67-8.33-8.67v-103"/>
      <path id="path3860-6" class="cls-7" d="M163,469.27s-1.34-8.45-1.13-12.69c.22-4.4,1.9-8.61,2.47-12.97.5-3.84,1.14-7.72.81-11.57-.38-4.36-2.49-8.43-3.15-12.76-.55-3.63-.88-7.33-.67-11,.26-4.33,1.86-8.5,2.31-12.81.42-4.04.85-8.15.36-12.19-.35-2.86-2.33-8.33-2.33-8.33"/>
      <ellipse id="path3862-1" class="cls-8" cx="162.52" cy="336.52" rx="4.77" ry="4.89"/>
      <path id="path3864-8" class="cls-8" d="M166.65,338.68c.22-2.55-.77-3.27-2.02-4.19-.68-.51-1.66-.47-2.51-.4-.66.05-1.35.25-1.9.63-.41.29-.84.83-.93,1.19"/>
    </g>
    <path id="path3888-1" class="cls-8" d="M222.12,412.38s2.03-2.47,3.41-3.18c.56-.29,1.85-.37,1.85-.37,0,0,2.61-5.88,3.71-8.9,1.47-4.05,2.7-8.2,3.83-12.36,1.09-4.04,2.15-8.11,2.84-12.23.53-3.19.99-9.64.99-9.64l-11.74.12s-.76,4.54-1.24,6.8c-.51,2.44-1.04,4.89-1.73,7.29-.85,2.93-1.84,5.82-2.97,8.65-1.18,2.98-2.52,5.9-3.95,8.77-1.49,2.99-3.09,5.92-4.82,8.77-1,1.65-3.21,4.82-3.21,4.82l3.46,1.24s3.73-5.58,5.31-8.53c1.93-3.59,3.55-7.34,5.07-11.12,1.67-4.17,3.19-8.42,4.45-12.73,1-3.41,2.47-10.38,2.47-10.38l5.07.12s-1.43,9.35-2.47,13.97c-.85,3.79-1.91,7.54-3.09,11.25-.95,3.01-2.02,5.98-3.21,8.9-1.22,2.97-4.03,8.74-4.03,8.74h0Z"/>
    <path id="path3897-3" class="cls-6" d="M249.98,403.97s1.22,3.69.12,4.9c-1.43,1.58-4.74,1.87-6.37.49-1.41-1.19-.49-5.51-.49-5.51,0,0-3.57.87-4.65-.24-1.31-1.35-1.36-4.22-.12-5.63,1-1.14,4.53-.49,4.53-.49,0,0-.23-3.51.98-4.41,1.41-1.05,3.92-.76,5.27.37,1.16.97,1.1,4.41,1.1,4.41,0,0,3.93-1.03,5.02.24,1.28,1.5.85,4.56-.61,5.88-1.18,1.07-4.78,0-4.78,0Z"/>
    <circle id="path3899-5" class="cls-3" cx="246.49" cy="400.6" r="2.76"/>
    <path id="path3905-9" class="cls-8" d="M292.69,426.03c-5.16-8.26-10.07-16.75-13.7-25.78-2.71-6.73-4.4-13.85-5.95-20.94-.95-4.37-1.4-8.84-2.04-13.26-5.03-.04-10.06-.08-15.08-.12.57,7.58.78,13.4,1.98,19.99,1.56,8.56,3.69,17.07,6.74,25.22,1.91,5.1,4.45,9.63,7.19,14.66.46-1.83,2.63-1.78,2.98-2.87-3.97-7.58-7.59-15.43-9.89-23.67-2.7-9.66-4.56-23.36-4.48-29.77,1.87.03,5.51.18,7.38.21,1.55,9.87,3.05,18.68,6,27.63,1.79,5.44,4.47,10.55,7.05,15.65,1.78,3.53,4.32,7.55,5.81,10.34,2.07.77,3.46,1.17,4.11,2.66.32.02,1.58.04,1.9.05h0Z"/>
    <path id="path3912-8" class="cls-6" d="M263.49,415.49c.13,1.35.53,3.03-.34,4.08-1.15,1.39-3.45,1.85-5.2,1.45-1.71-.39-2.96-2.03-3.95-3.48-.79-1.15-1.1-2.59-1.46-3.94-.6.68-1.45,1.26-2.35,1.37-.89.1-1.74-.42-2.56-.77,1.44-1.19,2.91-2.52,3.62-4.24.69-1.66.57-3.6.41-5.39,1.21,2.88,2.39,5.82,4.12,8.42.88,1.33,1.63,3.09,3.13,3.61,1.01.35,2.12-.33,3.15-.61.49-.13.97-.32,1.45-.5h0Z"/>
    <path id="path3914-4" class="cls-6" d="M242.4,405.6s-1.56,2.93-2.95,3.65c-.98.51-2.29.68-3.3.24-1.1-.48-2.24-2.83-2.24-2.83,0,0,1.35-1.89,2.36-1.89.81,0,1.1,1.32,1.89,1.53,1.39.37,4.24-.71,4.24-.71h0Z"/>
    <path id="path3916-0" class="cls-6" d="M242.29,397.43c-1.07-.98-2.28-1.86-2.84-3.17-.52-1.21-.8-2.72-.29-3.94.47-1.14,1.58-2.26,2.81-2.42.78-.11,1.48.57,2.13,1.01.27.18.72.45.71.65-.81.18-1.74.52-2.27,1.19-.7.88-.8,2.15-.85,3.27-.05,1.15.31,2.26.59,3.41h0Z"/>
    <path id="path3918-7" class="cls-6" d="M250.93,396.72c0-.2,2.61-2.19,3.13-3.73.45-1.32.56-3.01-.2-4.19-.63-.97-1.97-1.3-3.1-1.56-.86-.2-1.77-.03-2.65.04.1.88.31,1.79.76,2.56.45.77,1.52,1.1,1.87,1.92.65,1.51.46,3.32.2,4.94Z"/>
    <path id="path3929-6" class="cls-13" d="M248.85,379.94c1.46-.22,3-1.01,3.84-2.22,1.04-1.5,1.03-3.57.94-5.39-.08-1.61-1.49-3.06-1.28-4.65.17-1.32,2.02-3.44,2.02-3.44l-1.69-1.48s-1.81,1.33-2.29,2.29c-.72,1.44-.7,3.18-.67,4.79.02,1.07.76,2.12.54,3.17-.21,1-.68,2.4-1.69,2.56-.76.13-1.42-.76-1.82-1.42-.55-.9-.58-2.05-.61-3.1-.04-1.7,1.16-3.4.74-5.06-.27-1.06-1.08-1.98-1.96-2.63-.33-.24-1.15-.4-1.15-.4l-1.21,2.02s1.25.62,1.48,1.21c.61,1.57-.68,3.31-.74,4.99-.06,1.6-.12,3.25.34,4.79.34,1.16.79,2.44,1.75,3.17.94.71,2.27.98,3.44.81h0Z"/>
    <path id="path3932-3" class="cls-7" d="M313.55,420.84c-8.19-10.85-15.1-22.93-19.25-35.85-3.63-11.31-4.15-23.47-4.56-35.33-.18-5.39.22-10.81.97-16.16.27-1.95.81-3.85,1.27-5.76"/>
    <g id="g4018-6">
      <path id="path4007-1" class="cls-3" d="M344.83,403.14c-9.59-7.19-18.51-15.57-25.39-25.36-4.9-6.98-8.44-14.99-10.88-23.16-1.97-6.62-3.17-14.48-2.9-20.51,5.83,2.72,11.67,5.44,17.5,8.17.69,5.84,2.01,11.7,4.51,17,3.38,7.17,8.17,13.78,13.83,19.33,2.45,2.41,5.35,4.4,8.49,5.83v14.67c-1.72,1.34-3.44,2.69-5.17,4.03Z"/>
      <path id="path4010-5" class="cls-4" d="M346.83,400.6c-6.09-3.8-11.54-8.22-16.33-13.37-5.83-6.27-10.92-13.37-14.8-21-3.21-6.31-5.51-13.16-6.84-20.11-.66-3.45-.72-7-.53-10.52"/>
      <path id="path4012-4" class="cls-4" d="M349.5,387.6c-4.02-2.43-7.74-5.36-11.06-8.66-4.16-4.15-7.91-8.8-10.91-13.84-2.42-4.07-4.27-8.5-5.62-13.04-1.08-3.66-2.19-8.53-1.91-11.29"/>
      <path id="path4014-2" class="cls-4" d="M316.5,339.44l.17,3-2.67-.17v-2.33l-2.83-.67.67,6.17,5-.5,1.5,5.67-2.17.67-1-3-2.67.67,1.67,5.5,5-1.67,2.67,5.67-2.83,1-1.17-2.5-2.67.83,2.33,5.83,5-2.5,2.83,5.33-2.5,1.83-1.33-2.83-2.83,1.33,3.17,5.17,4.67-2.83,3.33,4.5-2.5,1.83-1.17-1.83-2.17,1.33,3.17,4.67,4.83-3.83,3.67,4.33-2.33,2.33-2.17-2.5-1.67,1.67,4.17,4.83,4.33-4,4.17,4-2,2.5-2.67-2.67-1.5,2.33,4.5,4,4.33-4.33,4.55,3.5-2.38,2.33-2.17-1.67-2,1.83,4.67,3.17,2.17-2.33"/>
    </g>
    <path id="path3932-8-0" class="cls-7" d="M310.79,422.26c-8.29-11.11-15.18-23.5-19.44-36.66-3.45-10.67-4.26-22.11-4.6-33.31-.21-6.59.54-13.19,1.48-19.72.31-2.11.84-4.17,1.35-6.24"/>
    <g id="g4071-9">
      <path id="path3934-7" class="cls-7" d="M313.08,419.19s2.7-5.9,3.77-8.96c1.1-3.12,2.18-6.28,2.71-9.55.54-3.34.67-6.76.47-10.14-.16-2.62-.68-5.22-1.3-7.78-.57-2.37-1.24-4.73-2.24-6.95-1.36-3-3.18-5.78-5.07-8.49-1.97-2.82-4.03-5.6-6.48-8.01-1.96-1.92-4.19-3.56-6.48-5.07-2.58-1.7-8.13-4.48-8.13-4.48"/>
      <path id="path3936-3" class="cls-10" d="M301.88,402.22c.57-5.49.95-11.2-.41-16.54-.91-3.6-2.88-6.92-5.07-9.91-1.45-1.97-3.37-3.56-5.24-5.14,0,0,2.05,10.89,3.82,16.13,1.81,5.35,6.9,15.46,6.9,15.46h0Z"/>
      <path id="path3938-7" class="cls-7" d="M310.6,416.13s2.27-.02,3.06-.71c.92-.8,1.34-2.2,1.3-3.42-.04-1.21-.75-2.37-1.53-3.3-1.11-1.32-2.71-2.15-4.24-2.95-1.22-.63-3.89-1.41-3.89-1.41"/>
      <path id="path3940-2" class="cls-7" d="M306.71,394.44s3.22.1,4.83.24c1.38.11,2.87-.1,4.12.47,1.16.53,2.25,1.45,2.83,2.59.48.95.58,2.14.35,3.18-.32,1.52-1.1,3.1-2.36,4.01-1.04.76-2.48.82-3.77.82-2.53.02-7.42-1.53-7.42-1.53"/>
      <path id="path3942-6" class="cls-14" d="M306.01,402.4s3.86,1.24,5.77.89c.92-.17,1.97-.55,2.47-1.39.46-.78.44-1.92.12-2.78-.4-1.08-1.35-1.97-2.36-2.4-1.71-.73-5.54,0-5.54,0l-.47,5.69Z"/>
      <path id="path3940-1-0" class="cls-7" d="M305.21,385.08s3.09-.9,4.66-1.27c1.34-.32,2.69-.98,4.06-.83,1.27.14,2.59.66,3.5,1.54.76.74,1.22,1.81,1.34,2.85.17,1.51-.07,3.22-.98,4.45-.75,1.02-2.1,1.53-3.32,1.93-2.39.79-7.53.86-7.53.86"/>
      <path id="path3942-7-1" class="cls-14" d="M306.44,392.2s4.35.05,6.21-.89c.82-.42,1.71-1.08,1.94-1.97.21-.82-.14-1.8-.7-2.45-.7-.81-1.86-1.29-2.94-1.36-1.84-.11-5.26,1.71-5.26,1.71l.75,4.96Z"/>
      <path id="path3940-1-4-6" class="cls-7" d="M301.35,375.95s2.79-1.6,4.23-2.34c1.23-.63,2.38-1.59,3.75-1.77,1.27-.17,2.67.03,3.77.67.91.54,1.61,1.47,1.97,2.45.52,1.43.69,3.15.11,4.56-.49,1.17-1.68,1.98-2.77,2.66-2.14,1.34-7.11,2.62-7.11,2.62"/>
      <path id="path3942-7-0-5" class="cls-14" d="M304.83,382.7s3.71-1,5.1-2.23c.69-.61,1.41-1.46,1.42-2.37.01-.85-.57-1.72-1.26-2.21-.87-.62-2.11-.82-3.18-.62-1.82.33-4.7,2.9-4.7,2.9l2.62,4.53Z"/>
      <path id="path3940-1-4-9-7" class="cls-7" d="M295.24,368.66s2.22-2.34,3.38-3.45c1-.96,1.82-2.2,3.09-2.77,1.17-.53,2.57-.74,3.8-.44,1.03.25,1.97.95,2.59,1.79.91,1.22,1.57,2.82,1.41,4.34-.13,1.26-1.04,2.38-1.89,3.34-1.67,1.89-6.06,4.55-6.06,4.55"/>
      <path id="path3942-7-0-4-5" class="cls-14" d="M300.36,374.04s3.42-2.13,4.44-3.77c.49-.79.93-1.8.68-2.68-.23-.82-1.03-1.48-1.84-1.76-1.01-.35-2.26-.18-3.22.32-1.65.84-3.67,4.13-3.67,4.13l3.62,3.77Z"/>
      <path id="path4045-4" class="cls-10" d="M304.52,406.8c1.4.39,2.95.64,4.05,1.58,1.19,1.02,2.31,2.5,2.36,4.06.01.5-.31,1.01-.68,1.35-.33.29-.87.51-1.23.47-1.5-2.48-3.01-4.96-4.5-7.46Z"/>
      <path id="path4049-1" class="cls-7" d="M295.58,368.51c1.76-1.57,3.91-3.88,4.76-6.4.52-1.56.63-3.4.04-4.94-.49-1.27-1.51-2.41-2.76-3.03-1.25-.62-2.89-.87-4.21-.4-1.44.5-2.31,1.97-3.2,3.16"/>
      <path id="path3942-7-0-4-8-2" class="cls-14" d="M293.24,367.52s3.09-3.35,3.7-5.46c.26-.89.43-2-.09-2.76-.66-.97-2.05-1.54-3.21-1.41-1.28.14-2.47,1.42-3.13,2.27-.23,2.51.24,5.47.24,5.47l2.5,1.9Z"/>
    </g>
    <g id="g4147-0">
      <path id="path4087-0" class="cls-7" d="M221.28,464.9s.08,1.8-.18,2.64c-.14.45-.7,1.23-.7,1.23,0,0,2.9-1.05,4.41-1.06,1.57,0,3.03.81,4.58,1.06,1.86.29,3.76.64,5.64.49,2.11-.17,4.26-.62,6.17-1.55.87-.42,2.29-1.76,2.29-1.76,0,0-3.9,1.83-5.99,2.29-1.61.36-3.29.48-4.93.35-1.56-.12-3.02-.93-4.58-1.06-1.88-.15-3.8-.04-5.64.35-.5.11-1.44.53-1.44.53,0,0,.45-1.13.52-1.73.06-.6-.13-1.09-.13-1.8Z"/>
      <path id="path4089-1" class="cls-7" d="M223.17,462.85s1.06-.37,1.58-.25c1.26.28,2,1.7,3.2,2.16.99.38,2.09.41,3.15.45,1.19.04,2.41.03,3.55-.27,1.56-.41,2.99-1.23,4.36-2.07,1.19-.72,2.15-1.79,3.33-2.52.46-.28,1.44-.72,1.44-.72,0,0-2.56-.24-3.82-.04-2.05.32-3.86,1.57-5.89,1.98-1.12.23-2.28.27-3.42.27-1.09,0-2.18-.13-3.26-.25-.41-.04-.81-.24-1.21-.18-1.1.17-3.01,1.44-3.01,1.44Z"/>
      <path id="path4091-4" class="cls-7" d="M239.07,459.32s-2.12-2.03-3.46-2.52c-.96-.35-2.04-.24-3.06-.22-1.54.03-3.14-.01-4.59.49-.87.3-1.6.93-2.34,1.48-.53.39-1.5,1.28-1.5,1.28,0,0,1.85.82,2.8,1.14.96.33,1.92.71,2.92.81,1.47.15,2.98.04,4.41-.31,1.71-.43,4.81-2.16,4.81-2.16h0Z"/>
      <ellipse id="path4093-6" class="cls-5" cx="231.29" cy="459.23" rx="3.6" ry="2.43"/>
      <ellipse id="path4095-0" class="cls-10" cx="231.07" cy="459.79" rx="1.3" ry="1.01"/>
      <path id="path4097-7" class="cls-10" d="M200.17,463.85s1.14.85,1.83,2.17c.63,1.2,1.97,1.99,3.25,2.42,1.05.35,2.23.09,3.33,0,1.26-.1,2.49-.64,3.75-.58.69.03,1.34.33,2,.5.31.08.92.25.92.25l-.67-3.72.25,3.31s-1.63-.68-2.5-.83c-1.12-.2-2.28-.1-3.42-.08-1.36.03-2.78.66-4.08.25-1.89-.59-4.67-3.67-4.67-3.67Z"/>
      <path id="path4099-1" class="cls-7" d="M215.19,464.07c0-1.43-.03-3.25-.29-4.85-.29-1.74-1.03-3.38-1.4-5.1-.32-1.49-.44-3.01-.73-4.51-.13-.67-.44-1.32-.46-2.01-.02-.71-.04-1.51.36-2.09.8-1.16,2.54-1.25,3.64-2.13.49-.39.88-.89,1.28-1.37"/>
      <path id="path4103-7" class="cls-7" d="M223.75,448.77c.84.31,1.64-.53,2.07-1.2.32-.5.34-1.19.19-1.76-.22-.82-.77-1.65-1.52-2.05-.86-.45-2-.4-2.91-.08-.69.24-1.04,1.05-1.68,1.4-.81.45-1.74.63-2.64.86"/>
      <path id="path4106-7" class="cls-10" d="M230.75,442.85s1.84.57,2.75.42c.47-.08.96-.29,1.25-.67.49-.63.66-1.54.58-2.33-.08-.85-.4-1.81-1.08-2.33-1.08-.82-2.66-.84-4-.67-1.3.16-2.41,1.01-3.58,1.58-.79.39-1.51.93-2.33,1.25-.91.36-1.86.74-2.83.75-.6,0-1.57.16-1.75-.42-.13-.43.5-.81.92-1,1.11-.5,2.47.15,3.67-.08,1.31-.25,2.47-1.03,3.75-1.42,1.2-.36,2.42-.95,3.67-.83,1.03.1,2.11.52,2.83,1.25.49.49.79,1.22.83,1.92.05.72-.13,1.52-.58,2.08-.57.7-1.51,1.23-2.42,1.25-.61.02-1.67-.75-1.67-.75Z"/>
      <path id="path4110-7-7" class="cls-10" d="M207.42,443.77s-1.54-.61-2-1.25c-.4-.56-.5-1.31-.5-2,0-.94.05-2.04.67-2.75.39-.45,1.07-.63,1.67-.67.89-.06,1.75.35,2.58.67.87.33,1.65.88,2.5,1.25.79.35,1.56.85,2.42.92.54.04,1.16-.67,1.58-.33.17.14.11.47,0,.67-.22.41-.71.7-1.17.75-.68.07-1.29-.47-1.92-.75-.88-.4-1.72-.9-2.58-1.33-.91-.46-1.74-1.21-2.75-1.33-.79-.1-1.77-.06-2.33.5-.66.66-.67,1.82-.58,2.75.07.78.38,1.59.92,2.17.38.41,1.5.75,1.5.75Z"/>
      <path id="path4113-7" class="cls-10" d="M226.67,434.44s-1.78.51-2.67.75c-.83.23-1.64.67-2.5.67-.95,0-1.82-.56-2.75-.75-.77-.16-1.57-.5-2.33-.33-.55.12-.86.83-1.42.92-.8.12-1.6-.33-2.33-.67-.45-.21-1.25-.83-1.25-.83,0,0,1.24.63,1.92.67.88.05,1.7-.5,2.58-.58,1.11-.11,2.23-.04,3.33.08.73.08,1.44.3,2.17.42.72.11,1.44.3,2.17.25.75-.06,1.43-.49,2.17-.58.3-.04.92,0,.92,0Z"/>
      <path id="path4115-3" class="cls-7" d="M221.83,431.52s-1.51-.78-2.33-.92c-.74-.13-1.52-.09-2.25.08-.83.2-2.33,1.08-2.33,1.08"/>
      <path id="path4117-3" class="cls-7" d="M214.33,461.6s-2.19,1.65-3.42,2.25c-1,.49-2.05,1.01-3.17,1.08-1.02.07-2.02-.29-3-.58-.78-.23-1.47-.71-2.25-.92-.65-.17-2-.25-2-.25"/>
      <path id="path4091-2-5" class="cls-7" d="M201.45,460.25s1.93-1.67,3.06-2.23c.8-.4,1.69-.66,2.58-.75,1.33-.14,2.73-.13,4.01.32.77.27,1.41.87,2.07,1.4.47.37,1.33,1.23,1.33,1.23,0,0-1.6.89-2.42,1.25-.83.36-1.66.78-2.54.92-1.28.2-2.6.16-3.85-.15-1.5-.37-4.24-1.98-4.24-1.98h0Z"/>
      <ellipse id="path4093-4-9-8" class="cls-1" cx="208.23" cy="459.87" rx="3.14" ry="2.43" transform="translate(-35.34 17.7) rotate(-4.49)"/>
      <ellipse id="path4095-5-9" class="cls-2" cx="208.44" cy="460.42" rx="1.14" ry="1.01" transform="translate(-58.64 31.35) rotate(-7.54)"/>
      <path id="path4143-8-3" class="cls-7" d="M226.17,456.69l3.42-3"/>
      <path id="path4145-1" class="cls-7" d="M212.83,455.6l-3.42-2.5"/>
    </g>
    <path id="path3037-7-45-51-8" class="cls-15" d="M220.42,353.39c-.22-.43-.57-.87-1.24-.94-1.19-.13-2.11.84-2.26,2.16-.1.93.17,1.58.41,2.33.26.8.68,1.53,1.09,2.27.52.94,1.7,2.74,1.7,2.74,0,0,1.56-1.49,2.27-2.29.56-.63,1.14-1.25,1.56-1.97.4-.68.81-1.25.92-2.18.15-1.32-.53-2.47-1.72-2.61-.66-.07-1.1.28-1.41.65l-.12-.15q.21-.65.41-1.3c.21-.65.75-1.93.75-1.93q-1.35.12-2.65-.3s.25,1.37.31,2.05.06.68.12,1.35l-.15.12Z"/>
    <path id="path3037-7-45-51-7-2" class="cls-15" d="M217.78,370.21c-.18-.45-.49-.92-1.14-1.05-1.17-.24-2.17.64-2.45,1.94-.19.91.02,1.59.19,2.35.18.82.54,1.59.87,2.36.43.99,1.44,2.89,1.44,2.89,0,0,1.69-1.34,2.47-2.07.61-.57,1.25-1.14,1.74-1.82.46-.64.92-1.17,1.11-2.08.27-1.31-.3-2.51-1.47-2.76-.65-.14-1.13.18-1.47.51l-.1-.16q.27-.63.53-1.25c.27-.63.93-1.85.93-1.85q-1.36,0-2.61-.54s.12,1.39.12,2.07q0,.68,0,1.36l-.16.1Z"/>
    <path id="path3037-7-45-51-7-1-6" class="cls-15" d="M212.43,386.17c-.11-.47-.34-.99-.96-1.23-1.12-.43-2.25.28-2.73,1.52-.33.87-.23,1.57-.19,2.35.05.84.27,1.66.48,2.47.26,1.04.96,3.08.96,3.08,0,0,1.88-1.05,2.78-1.65.7-.47,1.41-.92,2.01-1.51.56-.55,1.1-1.01,1.44-1.88.48-1.24.11-2.53-1.01-2.96-.62-.24-1.14,0-1.53.27l-.08-.17.73-1.15c.36-.57,1.22-1.68,1.22-1.68q-1.34-.23-2.49-.96s-.1,1.39-.22,2.06q-.11.67-.23,1.34l-.17.08Z"/>
    <path id="path3037-7-45-51-7-1-1-6" class="cls-15" d="M204.47,401.79c-.03-.48-.18-1.03-.76-1.36-1.04-.6-2.27-.07-2.93,1.08-.47.81-.47,1.51-.55,2.3-.08.83.02,1.68.09,2.51.1,1.07.47,3.19.47,3.19,0,0,2.02-.74,3-1.2.76-.35,1.54-.69,2.22-1.18.64-.46,1.24-.82,1.71-1.63.66-1.16.5-2.48-.54-3.08-.58-.33-1.12-.19-1.55.03l-.05-.18q.45-.51.9-1.02c.45-.51,1.46-1.47,1.46-1.47q-1.29-.43-2.31-1.33s-.32,1.36-.54,2q-.22.64-.43,1.29l-.18.05Z"/>
    <path id="path3037-7-45-51-7-1-1-5-0" class="cls-15" d="M195.15,414.97c.06-.48.01-1.04-.5-1.47-.91-.78-2.21-.48-3.08.53-.6.71-.74,1.4-.96,2.16-.23.81-.29,1.65-.37,2.49-.1,1.07-.12,3.23-.12,3.23,0,0,2.12-.36,3.16-.63.81-.21,1.64-.4,2.4-.76.71-.34,1.37-.58,1.98-1.29.86-1.02.95-2.35.03-3.12-.51-.43-1.07-.39-1.53-.25l-.02-.19q.53-.42,1.07-.84c.53-.42,1.7-1.18,1.7-1.18q-1.19-.66-2.03-1.73s-.56,1.27-.89,1.87q-.33.59-.66,1.19l-.19.02Z"/>
    <path id="path3037-7-45-51-7-1-1-5-2-3" class="cls-15" d="M298.12,421.16c0,.48-.12,1.03-.67,1.4-1,.66-2.26.21-2.99-.9-.51-.78-.56-1.48-.69-2.26-.13-.83-.09-1.68-.06-2.51.03-1.08.28-3.22.28-3.22,0,0,2.06.62,3.06,1.01.78.31,1.58.6,2.29,1.05.66.42,1.29.75,1.8,1.53.73,1.11.65,2.44-.35,3.1-.56.37-1.11.25-1.55.07l-.04.18q.48.48.96.97c.48.48,1.55,1.38,1.55,1.38q-1.26.51-2.23,1.47s-.4-1.33-.66-1.96q-.26-.63-.51-1.26l-.18-.04Z"/>
    <path id="path3037-7-45-51-7-1-1-5-2-7-8" class="cls-15" d="M291.08,407.78c-.08.47-.29,1-.9,1.27-1.1.48-2.26-.17-2.8-1.39-.38-.85-.31-1.56-.31-2.34,0-.84.19-1.67.36-2.49.21-1.05.81-3.13.81-3.13,0,0,1.93.96,2.85,1.51.72.43,1.46.85,2.08,1.41.59.53,1.15.95,1.53,1.8.54,1.22.24,2.52-.86,3-.61.27-1.14.06-1.54-.19l-.07.18q.39.56.78,1.11c.39.56,1.3,1.61,1.3,1.61q-1.33.29-2.44,1.08s-.17-1.38-.32-2.05q-.15-.66-.29-1.33l-.18-.07Z"/>
    <path id="path3037-7-45-51-7-1-1-5-2-7-6-0" class="cls-15" d="M285.09,394.04c-.11.47-.34.99-.96,1.22-1.12.43-2.25-.28-2.73-1.53-.33-.87-.23-1.57-.19-2.36.05-.84.28-1.66.48-2.47.26-1.04.96-3.08.96-3.08,0,0,1.88,1.05,2.77,1.65.7.47,1.41.92,2.01,1.52.56.56,1.1,1.01,1.43,1.88.48,1.25.11,2.53-1.01,2.96-.62.24-1.14,0-1.53-.27l-.08.17q.36.57.73,1.15c.36.57,1.21,1.68,1.21,1.68q-1.34.23-2.49.95s-.1-1.39-.22-2.06q-.11-.67-.23-1.34l-.17-.08Z"/>
    <path id="path3037-7-45-51-7-1-1-5-2-7-6-1-1" class="cls-15" d="M280.12,378.24c-.18.45-.48.92-1.14,1.06-1.17.25-2.18-.63-2.46-1.93-.19-.91.01-1.59.18-2.36.18-.82.53-1.59.86-2.36.42-.99,1.43-2.9,1.43-2.9,0,0,1.7,1.33,2.48,2.06.62.57,1.25,1.13,1.75,1.81.47.64.93,1.16,1.13,2.08.28,1.3-.28,2.51-1.45,2.76-.65.14-1.13-.17-1.47-.5l-.1.16q.27.62.54,1.25c.27.62.94,1.84.94,1.84q-1.36.02-2.61.56s.11-1.39.1-2.07q0-.68-.02-1.36l-.16-.1Z"/>
    <path id="path3037-7-45-51-7-1-1-5-2-7-6-1-4-2" class="cls-15" d="M278.13,362c-.22.43-.57.87-1.23.95-1.19.14-2.11-.83-2.26-2.15-.11-.93.16-1.58.4-2.33.25-.8.68-1.54,1.08-2.27.51-.95,1.69-2.75,1.69-2.75,0,0,1.56,1.48,2.28,2.29.56.63,1.14,1.25,1.57,1.97.4.68.82,1.25.92,2.17.15,1.32-.52,2.48-1.71,2.61-.66.08-1.11-.27-1.42-.64l-.12.15q.21.65.42,1.29c.21.65.76,1.93.76,1.93q-1.36-.11-2.65.31s.24-1.37.3-2.05q.06-.68.11-1.36l-.15-.12Z"/>
    <path id="path5362" class="cls-3" d="M249.62,338.18s-6.29,5.09-6.29,11.76,5.91,11.88,5.91,11.88c0,0,7.42-5.22,7.42-11.88s-7.04-11.76-7.04-11.76Z"/>
    <path id="path5362-5" class="cls-3" d="M250.07,342.21s-3.78,2.36-3.78,8.2c0,4.21,3.4,7.32,3.4,7.32,0,0,4.41-3.49,4.41-7.7s-4.03-7.82-4.03-7.82h0Z"/>
    <path id="path5362-5-0" class="cls-3" d="M250.07,345.97s-1.39,2.7-1.39,4.32,1.39,3.81,1.39,3.81c0,0,1.64-2.82,1.64-4.44s-1.64-3.69-1.64-3.69Z"/>
    <path id="path5400-1" class="cls-13" d="M228.67,343.27v13.33h13.33s-2-3.33-2-6.67,2-6.67,2-6.67h-13.33Z"/>
    <path id="path5400-9" class="cls-13" d="M271.33,343.27v13.33h-13.33s2-3.33,2-6.67-2-6.67-2-6.67h13.33Z"/>
    <path id="path3033-6" class="cls-7" d="M296.07,428.96c10.15-3.73,20.09-8.12,29.52-13.4,8.57-4.8,16.92-10.02,24.41-16.5"/>
  </g>
</svg>