<?xml version="1.0" encoding="UTF-8"?>
<svg id="Calque_1" data-name="Calque 1" xmlns="http://www.w3.org/2000/svg" viewBox="0 0 500 700">
  <defs>
    <style>
      @font-face { font-family: 'Anton'; font-style: normal; font-weight: 400; src: url(https://fonts.gstatic.com/s/anton/v27/1Ptgg87LROyAm3Kz-C8.woff2) format('woff2'); unicode-range: U+0000-00FF, U+0131, U+0152-0153, U+02BB-02BC, U+02C6, U+02DA, U+02DC, U+0304, U+0308, U+0329, U+2000-206F, U+20AC, U+2122, U+2191, U+2193, U+2212, U+2215, U+FEFF, U+FFFD; }
      .cls-1 {
        fill: #fff;
      }

      .cls-2 {
        font-family: Anton-Regular, Anton;
        font-size: 133.33px;
      }

      .cls-3 {
        fill-rule: evenodd;
      }
    </style>
  </defs>
  <g>
    <rect class="cls-1" x="2.5" y="2.44" width="495" height="695" rx="47.5" ry="47.5"/>
    <path d="M450,4.94c24.81,0,45,20.19,45,45v600c0,24.81-20.19,45-45,45H50c-24.81,0-45-20.19-45-45V49.94C5,25.12,25.19,4.94,50,4.94h400M450-.06H50C22.39-.06,0,22.32,0,49.94v600c0,27.61,22.39,50,50,50h400c27.61,0,50-22.39,50-50V49.94C500,22.32,477.61-.06,450-.06h0Z"/>
  </g>
  <text class="cls-2" transform="translate(17.9 147.35)"><tspan x="0" y="0">10</tspan></text>
  <path id="path2" class="cls-3" d="M67.47,185.93c-9.68,2.58-14.07,12.72-9.48,21.85,1.02,2.02,1.89,3.29,5.07,7.35,3.13,4,5.39,7.61,5,8-.03.03-1.37-.95-2.96-2.2-8.41-6.55-10.35-7.47-15.78-7.49-6.12-.02-10.86,2.97-13.45,8.5-4.31,9.21,2.27,20.13,12.4,20.57,5.63.24,8.29-.91,15.95-6.87,3.77-2.94,4.75-3.61,4.75-3.26,0,.3-1.03,4.37-1.79,7.08-1.93,6.86-4.7,13.86-6.94,17.54-.29.47-.52.91-.52.98,0,.15,1,.06,3.27-.29,2.38-.37,13.22-.36,15.66,0,2.26.34,3.27.44,3.27.3,0-.06-.38-.79-.85-1.62-2.67-4.76-4.97-10.89-7.24-19.37-.91-3.39-1.16-4.54-1.02-4.63.15-.09,1.62.97,5.16,3.73,6.81,5.31,9.2,6.37,14.42,6.37,13.23,0,19.69-15.4,10.39-24.78-3.07-3.09-5.96-4.26-10.54-4.26-5.27,0-7.41,1.04-15.94,7.74-2.67,2.1-2.86,2.21-2.7,1.69.45-1.5,1.82-3.58,5.32-8.08,6.06-7.78,7.53-12.15,6.13-18.09-1.78-7.54-10.24-12.71-17.57-10.76"/>
  <text class="cls-2" transform="translate(376.23 147.35)"><tspan x="0" y="0">10</tspan></text>
  <path id="path2-2" data-name="path2" class="cls-3" d="M425.79,185.93c-9.68,2.58-14.07,12.72-9.48,21.85,1.02,2.02,1.89,3.29,5.07,7.35,3.13,4,5.39,7.61,5,8-.03.03-1.37-.95-2.96-2.2-8.41-6.55-10.35-7.47-15.78-7.49-6.12-.02-10.86,2.97-13.45,8.5-4.31,9.21,2.27,20.13,12.4,20.57,5.63.24,8.29-.91,15.95-6.87,3.77-2.94,4.75-3.61,4.75-3.26,0,.3-1.03,4.37-1.79,7.08-1.93,6.86-4.7,13.86-6.94,17.54-.29.47-.52.91-.52.98,0,.15,1,.06,3.27-.29,2.38-.37,13.22-.36,15.66,0,2.26.34,3.27.44,3.27.3,0-.06-.38-.79-.85-1.62-2.67-4.76-4.97-10.89-7.24-19.37-.91-3.39-1.16-4.54-1.02-4.63.15-.09,1.62.97,5.16,3.73,6.81,5.31,9.2,6.37,14.42,6.37,13.23,0,19.69-15.4,10.39-24.78-3.07-3.09-5.96-4.26-10.54-4.26-5.27,0-7.41,1.04-15.94,7.74-2.68,2.1-2.86,2.21-2.7,1.69.45-1.5,1.82-3.58,5.32-8.08,6.06-7.78,7.53-12.15,6.13-18.09-1.78-7.54-10.24-12.71-17.57-10.76"/>
  <text class="cls-2" transform="translate(482.1 556.36) rotate(-180)"><tspan x="0" y="0">10</tspan></text>
  <path id="path2-3" data-name="path2" class="cls-3" d="M432.53,517.78c9.68-2.58,14.07-12.72,9.48-21.85-1.02-2.02-1.89-3.29-5.07-7.35-3.13-4-5.39-7.61-5-8,.03-.03,1.37.95,2.96,2.2,8.41,6.55,10.35,7.47,15.78,7.49,6.12.02,10.86-2.97,13.45-8.5,4.31-9.21-2.27-20.13-12.4-20.57-5.63-.24-8.29.91-15.95,6.87-3.77,2.94-4.75,3.61-4.75,3.26,0-.3,1.03-4.37,1.79-7.08,1.93-6.86,4.7-13.86,6.94-17.54.29-.47.52-.91.52-.98,0-.15-1-.06-3.27.29-2.38.37-13.22.36-15.66,0-2.26-.34-3.27-.44-3.27-.3,0,.06.38.79.85,1.62,2.67,4.76,4.97,10.89,7.24,19.37.91,3.39,1.16,4.54,1.02,4.63-.15.09-1.62-.97-5.16-3.73-6.81-5.31-9.2-6.37-14.42-6.37-13.23,0-19.69,15.4-10.39,24.78,3.07,3.09,5.96,4.26,10.54,4.26,5.27,0,7.41-1.04,15.94-7.74,2.68-2.1,2.86-2.21,2.7-1.69-.45,1.5-1.82,3.58-5.32,8.08-6.06,7.78-7.53,12.15-6.13,18.09,1.78,7.54,10.24,12.71,17.57,10.76"/>
  <text class="cls-2" transform="translate(123.77 556.36) rotate(-180)"><tspan x="0" y="0">10</tspan></text>
  <path id="path2-4" data-name="path2" class="cls-3" d="M74.21,517.78c9.68-2.58,14.07-12.72,9.48-21.85-1.02-2.02-1.89-3.29-5.07-7.35-3.13-4-5.39-7.61-5-8,.03-.03,1.37.95,2.96,2.2,8.41,6.55,10.35,7.47,15.78,7.49,6.12.02,10.86-2.97,13.45-8.5,4.31-9.21-2.27-20.13-12.4-20.57-5.63-.24-8.29.91-15.95,6.87-3.77,2.94-4.75,3.61-4.75,3.26,0-.3,1.03-4.37,1.79-7.08,1.93-6.86,4.7-13.86,6.94-17.54.29-.47.52-.91.52-.98,0-.15-1-.06-3.27.29-2.38.37-13.22.36-15.66,0-2.26-.34-3.27-.44-3.27-.3,0,.06.38.79.85,1.62,2.67,4.76,4.97,10.89,7.24,19.37.91,3.39,1.16,4.54,1.02,4.63-.15.09-1.62-.97-5.16-3.73-6.81-5.31-9.2-6.37-14.42-6.37-13.23,0-19.69,15.4-10.39,24.78,3.07,3.09,5.96,4.26,10.54,4.26,5.27,0,7.41-1.04,15.94-7.74,2.68-2.1,2.86-2.21,2.7-1.69-.45,1.5-1.82,3.58-5.32,8.08-6.06,7.78-7.53,12.15-6.13,18.09,1.78,7.54,10.24,12.71,17.57,10.76"/>
  <path id="path2-5" data-name="path2" class="cls-3" d="M194.99,195.46c-5.93,1.58-8.63,7.8-5.81,13.41.62,1.24,1.16,2.02,3.11,4.51,1.92,2.45,3.3,4.67,3.07,4.91-.02.02-.84-.59-1.82-1.35-5.16-4.02-6.35-4.58-9.68-4.6-3.75-.01-6.66,1.82-8.25,5.21-2.65,5.65,1.39,12.35,7.61,12.61,3.45.15,5.08-.56,9.78-4.21,2.31-1.8,2.91-2.21,2.91-2,0,.19-.63,2.68-1.1,4.34-1.18,4.21-2.88,8.5-4.26,10.76-.18.29-.32.56-.32.6,0,.09.61.04,2.01-.18,1.46-.23,8.11-.22,9.61,0,1.38.21,2.01.27,2.01.19,0-.04-.23-.49-.52-1-1.64-2.92-3.05-6.68-4.44-11.88-.56-2.08-.71-2.78-.63-2.84.09-.06.99.6,3.16,2.29,4.18,3.26,5.64,3.91,8.84,3.91,8.11,0,12.08-9.45,6.37-15.2-1.88-1.9-3.65-2.61-6.46-2.61-3.23,0-4.55.64-9.78,4.75-1.64,1.29-1.75,1.36-1.66,1.04.28-.92,1.11-2.19,3.26-4.96,3.71-4.77,4.62-7.45,3.76-11.1-1.09-4.62-6.28-7.8-10.78-6.6"/>
  <path id="path2-6" data-name="path2" class="cls-3" d="M195.42,284.4c-5.93,1.58-8.63,7.8-5.81,13.41.62,1.24,1.16,2.02,3.11,4.51,1.92,2.45,3.3,4.67,3.07,4.91-.02.02-.84-.59-1.82-1.35-5.16-4.02-6.35-4.58-9.68-4.6-3.75-.01-6.66,1.82-8.25,5.21-2.65,5.65,1.39,12.35,7.61,12.61,3.45.15,5.08-.56,9.78-4.21,2.31-1.8,2.91-2.21,2.91-2,0,.19-.63,2.68-1.1,4.34-1.18,4.21-2.88,8.5-4.26,10.76-.18.29-.32.56-.32.6,0,.09.61.04,2.01-.18,1.46-.23,8.11-.22,9.61,0,1.38.21,2.01.27,2.01.19,0-.04-.23-.49-.52-1-1.64-2.92-3.05-6.68-4.44-11.88-.56-2.08-.71-2.78-.63-2.84.09-.06.99.6,3.16,2.29,4.18,3.26,5.64,3.91,8.84,3.91,8.11,0,12.08-9.45,6.37-15.2-1.88-1.9-3.65-2.61-6.46-2.61-3.23,0-4.55.64-9.78,4.75-1.64,1.29-1.75,1.36-1.66,1.04.28-.92,1.11-2.19,3.26-4.96,3.71-4.77,4.62-7.45,3.76-11.1-1.09-4.62-6.28-7.8-10.78-6.6"/>
  <path id="path2-7" data-name="path2" class="cls-3" d="M195.42,373.34c-5.93,1.58-8.63,7.8-5.81,13.41.62,1.24,1.16,2.02,3.11,4.51,1.92,2.45,3.3,4.67,3.07,4.91-.02.02-.84-.59-1.82-1.35-5.16-4.02-6.35-4.58-9.68-4.6-3.75-.01-6.66,1.82-8.25,5.21-2.65,5.65,1.39,12.35,7.61,12.61,3.45.15,5.08-.56,9.78-4.21,2.31-1.8,2.91-2.21,2.91-2,0,.19-.63,2.68-1.1,4.34-1.18,4.21-2.88,8.5-4.26,10.76-.18.29-.32.56-.32.6,0,.09.61.04,2.01-.18,1.46-.23,8.11-.22,9.61,0,1.38.21,2.01.27,2.01.19,0-.04-.23-.49-.52-1-1.64-2.92-3.05-6.68-4.44-11.88-.56-2.08-.71-2.78-.63-2.84.09-.06.99.6,3.16,2.29,4.18,3.26,5.64,3.91,8.84,3.91,8.11,0,12.08-9.45,6.37-15.2-1.88-1.9-3.65-2.61-6.46-2.61-3.23,0-4.55.64-9.78,4.75-1.64,1.29-1.75,1.36-1.66,1.04.28-.92,1.11-2.19,3.26-4.96,3.71-4.77,4.62-7.45,3.76-11.1-1.09-4.62-6.28-7.8-10.78-6.6"/>
  <path id="path2-8" data-name="path2" class="cls-3" d="M194.99,462.27c-5.93,1.58-8.63,7.8-5.81,13.41.62,1.24,1.16,2.02,3.11,4.51,1.92,2.45,3.3,4.67,3.07,4.91-.02.02-.84-.59-1.82-1.35-5.16-4.02-6.35-4.58-9.68-4.6-3.75-.01-6.66,1.82-8.25,5.21-2.65,5.65,1.39,12.35,7.61,12.61,3.45.15,5.08-.56,9.78-4.21,2.31-1.8,2.91-2.21,2.91-2,0,.19-.63,2.68-1.1,4.34-1.18,4.21-2.88,8.5-4.26,10.76-.18.29-.32.56-.32.6,0,.09.61.04,2.01-.18,1.46-.23,8.11-.22,9.61,0,1.38.21,2.01.27,2.01.19,0-.04-.23-.49-.52-1-1.64-2.92-3.05-6.68-4.44-11.88-.56-2.08-.71-2.78-.63-2.84.09-.06.99.6,3.16,2.29,4.18,3.26,5.64,3.91,8.84,3.91,8.11,0,12.08-9.45,6.37-15.2-1.88-1.9-3.65-2.61-6.46-2.61-3.23,0-4.55.64-9.78,4.75-1.64,1.29-1.75,1.36-1.66,1.04.28-.92,1.11-2.19,3.26-4.96,3.71-4.77,4.62-7.45,3.76-11.1-1.09-4.62-6.28-7.8-10.78-6.6"/>
  <path id="path2-9" data-name="path2" class="cls-3" d="M247.92,421.15c-5.93,1.58-8.63,7.8-5.81,13.41.62,1.24,1.16,2.02,3.11,4.51,1.92,2.45,3.3,4.67,3.07,4.91-.02.02-.84-.59-1.82-1.35-5.16-4.02-6.35-4.58-9.68-4.6-3.75-.01-6.66,1.82-8.25,5.21-2.65,5.65,1.39,12.35,7.61,12.61,3.45.15,5.08-.56,9.78-4.21,2.31-1.8,2.91-2.21,2.91-2,0,.19-.63,2.68-1.1,4.34-1.18,4.21-2.88,8.5-4.26,10.76-.18.29-.32.56-.32.6,0,.09.61.04,2.01-.18,1.46-.23,8.11-.22,9.61,0,1.38.21,2.01.27,2.01.19,0-.04-.23-.49-.52-1-1.64-2.92-3.05-6.68-4.44-11.88-.56-2.08-.71-2.78-.63-2.84.09-.06.99.6,3.16,2.29,4.18,3.26,5.64,3.91,8.84,3.91,8.11,0,12.08-9.45,6.37-15.2-1.88-1.9-3.65-2.61-6.46-2.61-3.23,0-4.55.64-9.78,4.75-1.64,1.29-1.75,1.36-1.66,1.04.28-.92,1.11-2.19,3.26-4.96,3.71-4.77,4.62-7.45,3.76-11.1-1.09-4.62-6.28-7.8-10.78-6.6"/>
  <path id="path2-10" data-name="path2" class="cls-3" d="M247.92,241.66c-5.93,1.58-8.63,7.8-5.81,13.41.62,1.24,1.16,2.02,3.11,4.51,1.92,2.45,3.3,4.67,3.07,4.91-.02.02-.84-.59-1.82-1.35-5.16-4.02-6.35-4.58-9.68-4.6-3.75-.01-6.66,1.82-8.25,5.21-2.65,5.65,1.39,12.35,7.61,12.61,3.45.15,5.08-.56,9.78-4.21,2.31-1.8,2.91-2.21,2.91-2,0,.19-.63,2.68-1.1,4.34-1.18,4.21-2.88,8.5-4.26,10.76-.18.29-.32.56-.32.6,0,.09.61.04,2.01-.18,1.46-.23,8.11-.22,9.61,0,1.38.21,2.01.27,2.01.19,0-.04-.23-.49-.52-1-1.64-2.92-3.05-6.68-4.44-11.88-.56-2.08-.71-2.78-.63-2.84.09-.06.99.6,3.16,2.29,4.18,3.26,5.64,3.91,8.84,3.91,8.11,0,12.08-9.45,6.37-15.2-1.88-1.9-3.65-2.61-6.46-2.61-3.23,0-4.55.64-9.78,4.75-1.64,1.29-1.75,1.36-1.66,1.04.28-.92,1.11-2.19,3.26-4.96,3.71-4.77,4.62-7.45,3.76-11.1-1.09-4.62-6.28-7.8-10.78-6.6"/>
  <path id="path2-11" data-name="path2" class="cls-3" d="M300.41,195.51c-5.93,1.58-8.63,7.8-5.81,13.41.62,1.24,1.16,2.02,3.11,4.51,1.92,2.45,3.3,4.67,3.07,4.91-.02.02-.84-.59-1.82-1.35-5.16-4.02-6.35-4.58-9.68-4.6-3.75-.01-6.66,1.82-8.25,5.21-2.65,5.65,1.39,12.35,7.61,12.61,3.45.15,5.08-.56,9.78-4.21,2.31-1.8,2.91-2.21,2.91-2,0,.19-.63,2.68-1.1,4.34-1.18,4.21-2.88,8.5-4.26,10.76-.18.29-.32.56-.32.6,0,.09.61.04,2.01-.18,1.46-.23,8.11-.22,9.61,0,1.38.21,2.01.27,2.01.19,0-.04-.23-.49-.52-1-1.64-2.92-3.05-6.68-4.44-11.88-.56-2.08-.71-2.78-.63-2.84.09-.06.99.6,3.16,2.29,4.18,3.26,5.64,3.91,8.84,3.91,8.11,0,12.08-9.45,6.37-15.2-1.88-1.9-3.65-2.61-6.46-2.61-3.23,0-4.55.64-9.78,4.75-1.64,1.29-1.75,1.36-1.66,1.04.28-.92,1.11-2.19,3.26-4.96,3.71-4.77,4.62-7.45,3.76-11.1-1.09-4.62-6.28-7.8-10.78-6.6"/>
  <path id="path2-12" data-name="path2" class="cls-3" d="M300.41,284.43c-5.93,1.58-8.63,7.8-5.81,13.41.62,1.24,1.16,2.02,3.11,4.51,1.92,2.45,3.3,4.67,3.07,4.91-.02.02-.84-.59-1.82-1.35-5.16-4.02-6.35-4.58-9.68-4.6-3.75-.01-6.66,1.82-8.25,5.21-2.65,5.65,1.39,12.35,7.61,12.61,3.45.15,5.08-.56,9.78-4.21,2.31-1.8,2.91-2.21,2.91-2,0,.19-.63,2.68-1.1,4.34-1.18,4.21-2.88,8.5-4.26,10.76-.18.29-.32.56-.32.6,0,.09.61.04,2.01-.18,1.46-.23,8.11-.22,9.61,0,1.38.21,2.01.27,2.01.19,0-.04-.23-.49-.52-1-1.64-2.92-3.05-6.68-4.44-11.88-.56-2.08-.71-2.78-.63-2.84.09-.06.99.6,3.16,2.29,4.18,3.26,5.64,3.91,8.84,3.91,8.11,0,12.08-9.45,6.37-15.2-1.88-1.9-3.65-2.61-6.46-2.61-3.23,0-4.55.64-9.78,4.75-1.64,1.29-1.75,1.36-1.66,1.04.28-.92,1.11-2.19,3.26-4.96,3.71-4.77,4.62-7.45,3.76-11.1-1.09-4.62-6.28-7.8-10.78-6.6"/>
  <path id="path2-13" data-name="path2" class="cls-3" d="M300.41,373.35c-5.93,1.58-8.63,7.8-5.81,13.41.62,1.24,1.16,2.02,3.11,4.51,1.92,2.45,3.3,4.67,3.07,4.91-.02.02-.84-.59-1.82-1.35-5.16-4.02-6.35-4.58-9.68-4.6-3.75-.01-6.66,1.82-8.25,5.21-2.65,5.65,1.39,12.35,7.61,12.61,3.45.15,5.08-.56,9.78-4.21,2.31-1.8,2.91-2.21,2.91-2,0,.19-.63,2.68-1.1,4.34-1.18,4.21-2.88,8.5-4.26,10.76-.18.29-.32.56-.32.6,0,.09.61.04,2.01-.18,1.46-.23,8.11-.22,9.61,0,1.38.21,2.01.27,2.01.19,0-.04-.23-.49-.52-1-1.64-2.92-3.05-6.68-4.44-11.88-.56-2.08-.71-2.78-.63-2.84.09-.06.99.6,3.16,2.29,4.18,3.26,5.64,3.91,8.84,3.91,8.11,0,12.08-9.45,6.37-15.2-1.88-1.9-3.65-2.61-6.46-2.61-3.23,0-4.55.64-9.78,4.75-1.64,1.29-1.75,1.36-1.66,1.04.28-.92,1.11-2.19,3.26-4.96,3.71-4.77,4.62-7.45,3.76-11.1-1.09-4.62-6.28-7.8-10.78-6.6"/>
  <path id="path2-14" data-name="path2" class="cls-3" d="M300.41,462.27c-5.93,1.58-8.63,7.8-5.81,13.41.62,1.24,1.16,2.02,3.11,4.51,1.92,2.45,3.3,4.67,3.07,4.91-.02.02-.84-.59-1.82-1.35-5.16-4.02-6.35-4.58-9.68-4.6-3.75-.01-6.66,1.82-8.25,5.21-2.65,5.65,1.39,12.35,7.61,12.61,3.45.15,5.08-.56,9.78-4.21,2.31-1.8,2.91-2.21,2.91-2,0,.19-.63,2.68-1.1,4.34-1.18,4.21-2.88,8.5-4.26,10.76-.18.29-.32.56-.32.6,0,.09.61.04,2.01-.18,1.46-.23,8.11-.22,9.61,0,1.38.21,2.01.27,2.01.19,0-.04-.23-.49-.52-1-1.64-2.92-3.05-6.68-4.44-11.88-.56-2.08-.71-2.78-.63-2.84.09-.06.99.6,3.16,2.29,4.18,3.26,5.64,3.91,8.84,3.91,8.11,0,12.08-9.45,6.37-15.2-1.88-1.9-3.65-2.61-6.46-2.61-3.23,0-4.55.64-9.78,4.75-1.64,1.29-1.75,1.36-1.66,1.04.28-.92,1.11-2.19,3.26-4.96,3.71-4.77,4.62-7.45,3.76-11.1-1.09-4.62-6.28-7.8-10.78-6.6"/>
</svg>