<?xml version="1.0" encoding="UTF-8"?>
<svg id="Calque_1" data-name="Calque 1" xmlns="http://www.w3.org/2000/svg" viewBox="0 0 500 700">
  <defs>
    <style>
      @font-face { font-family: 'Anton'; font-style: normal; font-weight: 400; src: url(https://fonts.gstatic.com/s/anton/v27/1Ptgg87LROyAm3Kz-C8.woff2) format('woff2'); unicode-range: U+0000-00FF, U+0131, U+0152-0153, U+02BB-02BC, U+02C6, U+02DA, U+02DC, U+0304, U+0308, U+0329, U+2000-206F, U+20AC, U+2122, U+2191, U+2193, U+2212, U+2215, U+FEFF, U+FFFD; }
      .cls-1, .cls-2 {
        fill: #e31e46;
      }

      .cls-3, .cls-4 {
        fill: #1d2937;
      }

      .cls-5, .cls-6, .cls-4, .cls-2, .cls-7, .cls-8, .cls-9 {
        stroke-linecap: round;
        stroke-linejoin: round;
      }

      .cls-5, .cls-6, .cls-4, .cls-2, .cls-7, .cls-9 {
        stroke-width: 1.98px;
      }

      .cls-5, .cls-6, .cls-10 {
        stroke: #000;
      }

      .cls-5, .cls-10, .cls-8, .cls-9 {
        fill: none;
      }

      .cls-4, .cls-2, .cls-7, .cls-8, .cls-9 {
        stroke: #1d2937;
      }

      .cls-11, .cls-7 {
        fill: #fff;
      }

      .cls-10 {
        stroke-miterlimit: 10;
        stroke-width: 2px;
      }

      .cls-8 {
        stroke-width: 2.06px;
      }

      .cls-12 {
        font-family: Anton-Regular, Anton;
        font-size: 133.33px;
      }

      .cls-13 {
        fill-rule: evenodd;
      }
    </style>
  </defs>
  <g>
    <rect class="cls-11" x="2.5" y="2.44" width="495" height="695" rx="47.5" ry="47.5"/>
    <path d="M450,4.94c24.81,0,45,20.19,45,45v600c0,24.81-20.19,45-45,45H50c-24.81,0-45-20.19-45-45V49.94C5,25.12,25.19,4.94,50,4.94h400M450-.06H50C22.39-.06,0,22.32,0,49.94v600c0,27.61,22.39,50,50,50h400c27.61,0,50-22.39,50-50V49.94C500,22.32,477.61-.06,450-.06h0Z"/>
  </g>
  <text class="cls-12" transform="translate(41.78 147.35)"><tspan x="0" y="0">J</tspan></text>
  <path id="path2" class="cls-13" d="M67.47,185.93c-9.68,2.58-14.07,12.72-9.48,21.85,1.02,2.02,1.89,3.29,5.07,7.35,3.13,4,5.39,7.61,5,8-.03.03-1.37-.95-2.96-2.2-8.41-6.55-10.35-7.47-15.78-7.49-6.12-.02-10.86,2.97-13.45,8.5-4.31,9.21,2.27,20.13,12.4,20.57,5.63.24,8.29-.91,15.95-6.87,3.77-2.94,4.75-3.61,4.75-3.26,0,.3-1.03,4.37-1.79,7.08-1.93,6.86-4.7,13.86-6.94,17.54-.29.47-.52.91-.52.98,0,.15,1,.06,3.27-.29,2.38-.37,13.22-.36,15.66,0,2.26.34,3.27.44,3.27.3,0-.06-.38-.79-.85-1.62-2.67-4.76-4.97-10.89-7.24-19.37-.91-3.39-1.16-4.54-1.02-4.63.15-.09,1.62.97,5.16,3.73,6.81,5.31,9.2,6.37,14.42,6.37,13.23,0,19.69-15.4,10.39-24.78-3.07-3.09-5.96-4.26-10.54-4.26-5.27,0-7.41,1.04-15.94,7.74-2.68,2.1-2.86,2.21-2.7,1.69.45-1.5,1.82-3.58,5.32-8.08,6.06-7.78,7.53-12.15,6.13-18.09-1.78-7.54-10.24-12.71-17.57-10.76"/>
  <rect class="cls-10" x="150" y="189.94" width="200" height="320"/>
  <text class="cls-12" transform="translate(400.11 147.35)"><tspan x="0" y="0">J</tspan></text>
  <path id="path2-2" data-name="path2" class="cls-13" d="M425.79,185.93c-9.68,2.58-14.07,12.72-9.48,21.85,1.02,2.02,1.89,3.29,5.07,7.35,3.13,4,5.39,7.61,5,8-.03.03-1.37-.95-2.96-2.2-8.41-6.55-10.35-7.47-15.78-7.49-6.12-.02-10.86,2.97-13.45,8.5-4.31,9.21,2.27,20.13,12.4,20.57,5.63.24,8.29-.91,15.95-6.87,3.77-2.94,4.75-3.61,4.75-3.26,0,.3-1.03,4.37-1.79,7.08-1.93,6.86-4.7,13.86-6.94,17.54-.29.47-.52.91-.52.98,0,.15,1,.06,3.27-.29,2.38-.37,13.22-.36,15.66,0,2.26.34,3.27.44,3.27.3,0-.06-.38-.79-.85-1.62-2.67-4.76-4.97-10.89-7.24-19.37-.91-3.39-1.16-4.54-1.02-4.63.15-.09,1.62.97,5.16,3.73,6.81,5.31,9.2,6.37,14.42,6.37,13.23,0,19.69-15.4,10.39-24.78-3.07-3.09-5.96-4.26-10.54-4.26-5.27,0-7.41,1.04-15.94,7.74-2.68,2.1-2.86,2.21-2.7,1.69.45-1.5,1.82-3.58,5.32-8.08,6.06-7.78,7.53-12.15,6.13-18.09-1.78-7.54-10.24-12.71-17.57-10.76"/>
  <text class="cls-12" transform="translate(458.22 556.36) rotate(-180)"><tspan x="0" y="0">J</tspan></text>
  <path id="path2-3" data-name="path2" class="cls-13" d="M432.53,517.78c9.68-2.58,14.07-12.72,9.48-21.85-1.02-2.02-1.89-3.29-5.07-7.35-3.13-4-5.39-7.61-5-8,.03-.03,1.37.95,2.96,2.2,8.41,6.55,10.35,7.47,15.78,7.49,6.12.02,10.86-2.97,13.45-8.5,4.31-9.21-2.27-20.13-12.4-20.57-5.63-.24-8.29.91-15.95,6.87-3.77,2.94-4.75,3.61-4.75,3.26,0-.3,1.03-4.37,1.79-7.08,1.93-6.86,4.7-13.86,6.94-17.54.29-.47.52-.91.52-.98,0-.15-1-.06-3.27.29-2.38.37-13.22.36-15.66,0-2.26-.34-3.27-.44-3.27-.3,0,.06.38.79.85,1.62,2.67,4.76,4.97,10.89,7.24,19.37.91,3.39,1.16,4.54,1.02,4.63-.15.09-1.62-.97-5.16-3.73-6.81-5.31-9.2-6.37-14.42-6.37-13.23,0-19.69,15.4-10.39,24.78,3.07,3.09,5.96,4.26,10.54,4.26,5.27,0,7.41-1.04,15.94-7.74,2.68-2.1,2.86-2.21,2.7-1.69-.45,1.5-1.82,3.58-5.32,8.08-6.06,7.78-7.53,12.15-6.13,18.09,1.78,7.54,10.24,12.71,17.57,10.76"/>
  <text class="cls-12" transform="translate(99.89 556.36) rotate(-180)"><tspan x="0" y="0">J</tspan></text>
  <path id="path2-4" data-name="path2" class="cls-13" d="M74.21,517.78c9.68-2.58,14.07-12.72,9.48-21.85-1.02-2.02-1.89-3.29-5.07-7.35-3.13-4-5.39-7.61-5-8,.03-.03,1.37.95,2.96,2.2,8.41,6.55,10.35,7.47,15.78,7.49,6.12.02,10.86-2.97,13.45-8.5,4.31-9.21-2.27-20.13-12.4-20.57-5.63-.24-8.29.91-15.95,6.87-3.77,2.94-4.75,3.61-4.75,3.26,0-.3,1.03-4.37,1.79-7.08,1.93-6.86,4.7-13.86,6.94-17.54.29-.47.52-.91.52-.98,0-.15-1-.06-3.27.29-2.38.37-13.22.36-15.66,0-2.26-.34-3.27-.44-3.27-.3,0,.06.38.79.85,1.62,2.67,4.76,4.97,10.89,7.24,19.37.91,3.39,1.16,4.54,1.02,4.63-.15.09-1.62-.97-5.16-3.73-6.81-5.31-9.2-6.37-14.42-6.37-13.23,0-19.69,15.4-10.39,24.78,3.07,3.09,5.96,4.26,10.54,4.26,5.27,0,7.41-1.04,15.94-7.74,2.68-2.1,2.86-2.21,2.7-1.69-.45,1.5-1.82,3.58-5.32,8.08-6.06,7.78-7.53,12.15-6.13,18.09,1.78,7.54,10.24,12.71,17.57,10.76"/>
  <g>
    <path id="path9013" class="cls-1" d="M303.48,371.48l-6.35.45-8.15-1.58-8.98-3.52-7.82-4.42-6.02-5.01-11.1-13.84-5.91-8.27-5.55-4.89-10.8-7.94-9.31-4.98-11.46-3.4-8.95-.92-6.47-.12-7.37,2.17,7.47,13.11,6.35-.45,8.17,1.61,8.95,3.5,7.84,4.44,6,4.98,11.13,13.84,5.91,8.29,5.55,4.87,10.77,7.94,9.31,5.01,11.46,3.4,8.95.9,6.47.12,7.37-2.15-7.47-13.13Z"/>
    <path id="path9021" class="cls-1" d="M243.38,292.88l25.25,20.51-.19,41.81-2.58,1.77-4.54-4.54-6.9-9.26-5.72-8.08-2.58-2.76-3.14-2.58.38-36.88Z"/>
    <path id="path9023" class="cls-1" d="M278.11,365.46l16.56-12.02,1.58,3.17-14.2,11.24-3.95-2.39Z"/>
    <path id="path9025" class="cls-1" d="M265.87,356.6l24.07-15.78,1.37,3.14-22.49,14.81-2.95-2.17Z"/>
    <path id="path9027" class="cls-1" d="M274.76,308.85l-.21,42.03,15.99-10.47-2.58-11.84-1.77-11.43-.4-10.65.21-5.72-11.24,8.08Z"/>
    <path id="path9029" d="M268.45,358.77l22.87-15.19s1.61,4.06,2.36,6.12c.47,1.23,1.39,3.73,1.39,3.73l-16.96,12.24s-4.32-1.42-6.12-2.76c-1.46-1.09-3.54-4.13-3.54-4.13h0Z"/>
    <path id="path9031" d="M228.67,281.76l39.5,31.51,17.84-11.34-.17-9.33.5-8.84.33-6.99-18.17,12.33-23.34-19.18-3-1.49-1.65-1.51-2.67-.33-1.51-2.17-1.98.52-2.01-2.5h-2.01l-1.65-1.51v20.84Z"/>
    <path id="path9033" d="M222.01,257.59l-.17,59.34,3.99,1.49,3.33,1.84-.17-59.51-2.17-.33-2.15-2.17-1.35.52-1.32-1.18Z"/>
    <path id="path9035" class="cls-2" d="M303.34,308.76l13.49-6.66s2.6,7.37,4.02,11.01,2.69,7.35,4.49,10.82c1.2,2.34,2.55,4.61,4.16,6.69,1.58,2.01,5.34,5.48,5.34,5.48l-.17,52.35s-6.59-7.98-9.33-12.33c-2.39-3.8-4.21-7.96-6.17-12-2.55-5.29-5.27-10.51-7.32-16.02-1.39-3.69-2.36-7.51-3.35-11.32-1.02-3.97-1.91-7.98-2.65-12-.54-2.93-.87-5.91-1.35-8.84-.38-2.41-1.16-7.18-1.16-7.18h0Z"/>
    <path id="path9037" class="cls-1" d="M305.85,269.59l18.17,9.83-1.84,6.85.66,6.66,2.01,4.49-5.34,4.02-9.17,3.99-6.83,2.83-.66-6.66v-8.01l.5-9.33,1.49-10.49,1.02-4.18Z"/>
    <path id="path9039" class="cls-3" d="M280.99,367.77l15.17-11.34s2.65,5.79,4.02,8.67c1.09,2.29,3.33,6.83,3.33,6.83,0,0-7.39.47-11.01-.17-3.99-.71-11.5-3.99-11.5-3.99h0Z"/>
    <path id="path9041" d="M350,425.11l-11.24-9.76.17-186.51,11.08-.07v196.34Z"/>
    <path id="path9043" class="cls-3" d="M193.99,269l.12,44.55-4.61,1.42s-7.47-10.42-11.29-15.57c-2.79-3.71-5.79-7.28-8.5-11.08-.66-.92-1.89-2.81-1.89-2.81,0,0,7.39-5.39,11.2-7.91,2.72-1.77,5.46-3.45,8.27-5.06,2.2-1.25,6.71-3.54,6.71-3.54Z"/>
    <path id="path9045" d="M204.83,263.59l-.24,49.49s-3.69-.19-5.53-.12c-1.91.09-5.67.59-5.67.59l.12-44.55s4.21-2.27,6.35-3.28c1.63-.78,4.96-2.13,4.96-2.13Z"/>
    <path id="path9047" class="cls-1" d="M266.82,212.68c-4.7.07-9.43-.07-14.13.24-3.92.24-7.82.69-11.67,1.28-2.55.4-5.03,1.04-7.56,1.54-.38,2.76-.8,5.5-1.18,8.24-.4,3.12-.73,6.21-1.16,9.33-.33,2.32-.52,4.65-1.06,6.95-.33,1.37-.87,2.67-1.3,4.02l-1.77.24c-.59-.59-.97-1.54-1.77-1.77-1.06-.33-2.32.05-3.31.59-1.42.76-2.43,2.15-3.28,3.52-.83,1.32-1.49,2.81-1.65,4.37-.09.99.07,2.03.47,2.95.31.69.73,1.44,1.42,1.77.66.31,1.49,0,2.24,0,.38.54.64,1.2,1.16,1.63.8.66,1.89.87,2.83,1.3.52.59.83,1.44,1.54,1.77.61.28,1.35,0,2.01,0,.59.54,1.02,1.35,1.77,1.65.61.24,1.32,0,1.98,0,.69.78,1.06,1.94,2.01,2.36.69.28,1.49-.09,2.24-.12.59.71.94,1.72,1.77,2.13.69.31,1.49,0,2.24,0,.73.61,1.39,1.37,2.22,1.87.97.59,2.01,1.04,3.07,1.3,1.11.26,2.29.45,3.43.24,1.23-.21,2.41-.8,3.43-1.54,1.11-.8,2.06-1.89,2.81-3.05,1.06-1.58,1.77-3.38,2.36-5.2,1.06-3.28,1.39-6.73,2.01-10.13.78-4.42,1.35-8.88,2.13-13.32.76-4.39,1.61-8.81,2.46-13.18.73-3.66,1.51-7.32,2.24-10.96h0Z"/>
    <path id="path9049" class="cls-2" d="M217.99,189.93l13.35,26.67s6.78-1.8,10.25-2.36c5.43-.87,10.91-1.46,16.42-1.65,6.66-.21,13.35.09,19.99.66,7.84.71,23.34,3.35,23.34,3.35l15.33-26.67h-98.68Z"/>
    <path id="path9051" class="cls-4" d="M227.89,190.9l10.11,19.7c4.32-1.51,7.61-1.56,13.13-2.17l-2.6-17.53h-3.83l3.4,15.17c-3.17.21-5.67.19-8.41,1.28l-7.42-16.44h-4.39Z"/>
    <path id="path9053" class="cls-4" d="M254.46,190.9l2.03,16.87c6.71-.61,12.1-.99,18.8-.31l3.66-16.56h-4.3l-2.03,13.21c-5.27-.31-8.39.02-12.8.33l-1.49-13.54h-3.87Z"/>
    <path id="path9055" class="cls-4" d="M285.51,190.9l-4.89,16.7c4.91.43,12.05,1.06,17.39,2.32l9.14-19.02h-4.23l-6.92,15.69c-2.98-.8-8.01-1.16-10.99-1.58l4.16-14.1h-3.66Z"/>
    <path id="path9057" class="cls-9" d="M266.68,213.25s-2.32,11.1-3.35,16.68c-1.2,6.64-1.94,13.39-3.33,20.01-.92,4.49-1.06,9.33-3.33,13.32-1.54,2.74-3.61,5.86-6.66,6.66-2.95.78-6.8-.12-8.84-2.39-1.7-1.91-2.06-5.2-1.16-7.61.94-2.62,3.52-5.55,6.31-5.46,2.91.09,6.12,3.26,6.17,6.14.02,2.6-2.79,5.5-5.39,5.67-1.61.12-3.54-1.42-3.76-3.02-.26-1.87,1.44-4.56,3.33-4.54,1.13,0,2.67,1.32,1.96,2.76"/>
    <path id="path9059" class="cls-9" d="M262.78,212.7c-1.96,5.98-2.46,12.05-3.5,18.12-1.06,6.02-1.35,12.17-2.76,18.12-1.13,4.72-2.41,9.76-4.54,13.84"/>
    <path id="path9061" class="cls-9" d="M258.32,212.7c-1.49,5.2-1.94,10.7-2.76,16.06-.8,5.24-1.09,10.58-2.1,15.78-.73,3.78-1.28,7.56-2.88,11.13"/>
    <path id="path9063" class="cls-9" d="M254.35,212.96c-1.32,4.96-1.72,10.23-2.46,15.36-.71,5.01-.97,10.13-1.87,15.1-.66,3.59-1.13,7.23-2.58,10.63"/>
    <path id="path9065" class="cls-9" d="M250.47,213.39c-1.2,4.72-1.56,9.71-2.22,14.6-.64,4.75-.87,9.59-1.68,14.32-.59,3.43-1.02,6.87-2.32,10.09"/>
    <path id="path9067" class="cls-9" d="M246.67,213.74c-1.18,4.49-1.56,9.24-2.2,13.87-.66,4.54-.87,9.14-1.7,13.63-.59,3.26-1.02,6.52-2.32,9.59"/>
    <path id="path9069" class="cls-9" d="M242.42,214.33c-1.16,4.21-1.42,8.39-2.03,12.57-.61,4.23-.85,8.5-1.65,12.69-.57,3.02-.97,6.07-2.24,8.93"/>
    <path id="path9071" class="cls-9" d="M238.31,214.95c-1.11,3.83-1.44,7.87-2.03,11.81-.59,3.85-.8,7.77-1.54,11.6-.54,2.76-.94,5.55-2.13,8.17"/>
    <path id="path9073" class="cls-9" d="M233.65,216.25c-.94,3.43-1.23,6.8-1.72,10.23-.52,3.45-.69,6.97-1.32,10.39-.45,2.48-.78,4.98-1.8,7.32"/>
    <path id="path9075" class="cls-9" d="M246.95,254.73c-1.09-.73-2.06-2.06-3.35-2.1-2.15-.07-4.28,1.37-5.67,2.98-1.49,1.72-2.39,4.18-2.22,6.45.09,1.63.9,3.38,2.2,4.37.64.47,1.35.35,2.39.45"/>
    <path id="path9077" class="cls-9" d="M242.63,252.58c-.9-.99-1.58-1.77-2.65-1.84-2.15-.12-4.28,1.37-5.67,3-1.49,1.7-2.39,4.16-2.22,6.43.09,1.63.8,3.52,2.2,4.37.66.4,1.25.47,2.32-.05"/>
    <path id="path9079" class="cls-9" d="M239.37,250.6c-1.09-.73-2.06-2.06-3.35-2.1-2.15-.07-4.28,1.37-5.67,3-1.49,1.7-2.39,4.16-2.22,6.43.09,1.63.8,3.5,2.2,4.37.59.38,1.09.4,2.13.05"/>
    <path id="path9081" class="cls-9" d="M234.88,248.35c-.83-1.18-1.65-1.77-2.76-1.84-2.13-.09-4.28,1.37-5.67,3-1.46,1.7-2.36,4.16-2.22,6.43.12,1.63.87,3.43,2.2,4.37.61.43,1.09.57,2.24.31"/>
    <path id="path9083" class="cls-9" d="M231.08,246.11c-.4-.99-1.49-1.68-2.5-1.75-2.13-.14-4.28,1.37-5.65,2.98-1.49,1.72-2.39,4.18-2.24,6.45.12,1.63.87,3.4,2.22,4.35.5.38.78.17,1.82.26"/>
    <path id="path9085" class="cls-9" d="M227.11,244.38c-.4-1.18-1.18-1.58-2.06-1.65-2.13-.21-4.28,1.35-5.67,2.98-1.49,1.72-2.29,4.16-2.22,6.43.02,1.2.43,2.55,1.32,3.33.71.64,1.7.66,2.74.73"/>
    <path id="path9087" class="cls-9" d="M301.19,216.91c-.57,6.78-.97,13.54-1.68,20.29-.38,3.69-.71,7.39-1.35,11.06-.87,4.84-1.09,9.99-3.33,14.36-1.37,2.65-3.57,4.87-5.91,6.66-2.15,1.65-4.63,3-7.28,3.64-2.74.69-5.69.73-8.48.17-2.76-.59-5.22-2.15-7.7-3.5-3.12-1.68-5.95-3.83-8.93-5.74"/>
    <path id="path9089" class="cls-9" d="M265.31,225.84c2.62-.76,5.17-1.84,7.87-2.27,1.75-.26,3.61-.61,5.32-.14.85.24,2.39.92,2.27,1.44-.07.26-.5.21-.76.21-.99.02-1.89-.61-2.88-.76-1.44-.19-2.93-.14-4.39,0-2.5.26-4.94,1.02-7.42,1.51Z"/>
    <path id="path9091" class="cls-9" d="M280,231.37c.31-.33,1.16-.61.9-.97-.31-.5-2.2-1.7-3.47-2.2-1.2-.47-2.53-.66-3.85-.69-1.37-.05-2.76.17-4.11.52-.92.26-1.65.66-2.69,1.11"/>
    <path id="path9093" class="cls-9" d="M263.87,232.22c2.22-.57,4.39-1.42,6.66-1.68,1.61-.19,3.26-.24,4.84.07,1.3.26,2.58.76,3.66,1.46.71.5,1.25,1.18,1.8,1.87-1.09.47-2.1,1.16-3.26,1.44-1.82.47-3.73.66-5.6.45-1.58-.17-3.09-.78-4.54-1.44-1.28-.57-2.36-1.46-3.57-2.17Z"/>
    <path id="path9095" class="cls-9" d="M269.47,231.23c.07.78-.21,1.65.17,2.34.45.83,1.37,1.37,2.27,1.68.69.21,1.51.24,2.2,0,.66-.26,1.23-.78,1.58-1.37.5-.83.4-1.87.61-2.81"/>
    <path id="path9097" class="cls-4" d="M271.99,231.77c-.21.24-.12.69.05.94.19.31.54.54.87.54.35.02.71-.21.87-.5.21-.31.33-.83.07-1.09-.45-.43-1.46-.33-1.87.09h0Z"/>
    <path id="path9099" class="cls-4" d="M269.25,239.16c1.58-.31,3.8-.66,5.6-1.35,1.58-.61,3.09-1.8,4.46-2.43"/>
    <path id="path9101" class="cls-9" d="M288.1,227.59c-.4.99-1.02,1.91-1.23,2.95-.38,2.13-.09,4.35.17,6.52.31,2.65,1.28,5.22,1.72,7.87.28,1.51.97,3.09.61,4.61-.17.76-.73,1.37-1.28,1.89-.69.64-1.63.97-2.43,1.44"/>
    <path id="path9103" class="cls-9" d="M279.25,244.1c-1.04,1.13-2.55,1.96-3.12,3.4-.26.69-.31,1.51,0,2.2.38.78,1.13,1.46,1.98,1.65.69.17,1.42-.21,2.03-.52.8-.43,1.25-1.37,2.06-1.75.57-.28,1.28-.61,1.89-.38.19.07.43.33.38.52-.21.69-1.32.52-1.96.76-.87.33-1.72.61-2.58.92"/>
    <path id="path9105" class="cls-4" d="M274.21,258.23c1.06-.54,2.58-.43,3.85-.4,1.32.02,2.6.64,3.9.59,1.49-.07,2.86-1.06,4.37-1.06,1.09-.02,2.34.47,3.19.71-.05.38-.17.87,0,1.16-1.09-.4-2.65-.99-3.99-.83-1.28.17-2.2,1.63-3.5,1.65-1.49.05-2.65-1.65-4.16-1.72-1.44-.05-2.95,1.09-4.09,1.35.31-.43.45-1.13.43-1.44h0Z"/>
    <path id="path9107" class="cls-9" d="M276.84,262.86c1.06.45,2.06,1.13,3.19,1.35.83.17,1.72.14,2.58-.02.57-.09,1.09-.38,1.63-.59.5-.21.97-.47,1.46-.69"/>
    <path id="path9109" class="cls-9" d="M284.51,266.19c-.78-.33-1.51-.61-2.29-.61-.66,0-1.28.26-1.89.54"/>
    <path id="path9111" class="cls-4" d="M288.86,225.63c1.04-1.23,3.33-1.54,5.13-1.68,1.32-.09,2.62.26,3.9.64.9.26,1.77.76,2.62,1.16-1.44-.28-2.93-.8-4.42-.85-1.3-.02-2.6.24-3.87.52-.9.21-1.72.64-2.53,1.06-.33.19-1.09-.54-.83-.85Z"/>
    <path id="path9113" class="cls-9" d="M288.48,230.16c1.04-.52,1.98-1.23,3.09-1.51,1.56-.45,3.26-.66,4.84-.38,1.06.19,1.96.9,2.95,1.32"/>
    <path id="path9115" class="cls-9" d="M287.8,232.36c1.13-.45,2.53-.8,3.8-.97,1.49-.19,3.02-.24,4.51-.05.87.12,1.8.28,2.58.73.47.28.78.8,1.18,1.2l-.24,1.82c-.78.28-1.56.69-2.39.83-1.11.21-2.29.21-3.43.14-1.23-.07-2.48-.14-3.64-.59-.87-.35-1.65-.94-2.39-1.56-.24-.21-.43-.45-.64-.69.21-.28.31-.73.64-.87h0Z"/>
    <path id="path9117" class="cls-9" d="M290.73,231.86c.05.78-.21,1.65.17,2.34.45.83,1.37,1.39,2.27,1.68.69.24,1.51.26,2.2,0,.64-.24,1.23-.76,1.58-1.37.5-.8.4-1.87.61-2.79"/>
    <path id="path9119" class="cls-4" d="M293.04,232.43c-.21.24-.12.66.05.94.19.28.54.52.87.54.35,0,.71-.21.87-.5.21-.31.33-.85.07-1.11-.45-.4-1.44-.33-1.87.12h0Z"/>
    <path id="path9121" class="cls-9" d="M288.34,235.97c.85.92,1.54,2.01,2.53,2.79.8.61,1.77.94,2.67,1.42"/>
    <path id="path9123" class="cls-2" d="M299.04,242.33c.45,1.94.92,3.24,1.75,4.68.85,1.42,1.82,2.83,3.19,3.76,1.09.71,2.41,1.28,3.71,1.16,1.18-.09,2.43-.66,3.17-1.61.73-.94.85-2.32.78-3.52-.07-1.09-.38-2.27-1.11-3.09-.64-.76-1.61-1.28-2.58-1.37-.69-.07-1.46.05-1.96.52-.38.35-.52.97-.52,1.49.02.57-.05,1.16.66,1.56-.52-.21-.87-.87-1.25-1.37-.5-.71-.92-1.51-1.28-2.34-.43-.92-.71-1.91-.99-2.91-.35-1.35-.61-2.74-.9-4.09-.47-2.15-1.02-4.72-1.37-6.43-.38,3.69-.9,9.85-1.3,13.56h0Z"/>
    <path id="path9125" class="cls-2" d="M297.22,255.65c.43,1.94,1.72,5.72,3.24,8.24.85,1.42,1.87,2.79,3.19,3.76,1.06.78,2.32,1.65,3.64,1.56,1.25-.09,2.5-.97,3.24-2.01.69-.97.85-2.32.78-3.5-.07-1.11-.38-2.29-1.11-3.12-.64-.73-1.61-1.25-2.6-1.37-.66-.07-1.44.07-1.94.52-.38.35-.54.97-.52,1.49.05.54.02,1.04.71,1.44-.52-.21-.92-.76-1.3-1.23-.54-.71-.92-1.54-1.3-2.34-.4-.94-.66-1.96-.97-2.93-.35-1.16-.69-2.34-1.04-3.5-.78-2.74-1.98-6.47-2.34-8.17-.38,3.69-1.3,7.44-1.68,11.15h0Z"/>
    <path id="path9127" class="cls-2" d="M295.74,260.87s.61,1.91,1.04,2.81c.5,1.02,1.75,2.91,1.75,2.91,0,0,2.15.97,3.26,1.37,1.04.38,3.17.97,3.17.97,0,0-2.46-1.91-3.43-3.12-.85-1.04-1.44-2.27-2.03-3.5-.54-1.18-.92-2.46-1.35-3.71-.38-1.11-1.04-3.38-1.04-3.38,0,0-.38,2.22-.66,3.33-.19.78-.71,2.32-.71,2.32h0Z"/>
    <path id="path9129" class="cls-2" d="M298.52,266.59l-4.54-2.6,1.75-3.17,2.79,5.76Z"/>
    <path id="path9131" class="cls-2" d="M251.61,269.4l16.61,13.8,18.71-12.31-.45,5.98-18.03,12.4-23.41-19.32c1.89.64,4.39.54,6.57-.54Z"/>
    <path id="path9133" class="cls-9" d="M204.83,275.62l6.24,7.06-6.12,6.47"/>
    <path id="path9135" class="cls-9" d="M205.07,279.89l2.24,2.6-2.24,2.34"/>
    <path id="path9137" class="cls-4" d="M213.67,267.61l-6.24,6.47,6,6.59,6.07-6.59-5.84-6.47ZM213.55,270.39l3.57,3.33-3.57,3.92-3.45-3.45,3.45-3.8Z"/>
    <path id="path9139" class="cls-2" d="M350,204.6l-25.32,24h25.32v-24Z"/>
    <path id="path9141" class="cls-2" d="M350,209.92l-15.33,14.67h15.33v-14.67Z"/>
    <path id="path9143" class="cls-9" d="M204.45,292.67l6.24,7.09-6.12,6.47"/>
    <path id="path9145" class="cls-9" d="M204.69,296.97l2.24,2.58-2.24,2.36"/>
    <path id="path9147" class="cls-9" d="M221.44,276.35l-6.12,6.57,6.12,6.47"/>
    <path id="path9149" class="cls-9" d="M221.32,280.13l-2.24,2.6,2.24,2.34"/>
    <path id="path9151" class="cls-9" d="M220.97,305.71l-5.74-6.19,6.12-6.47"/>
    <path id="path9153" class="cls-9" d="M221.23,302.31l-2.22-2.58,2.22-2.36"/>
    <path id="path9155" class="cls-4" d="M213,284.78l-6.24,6.47,6,6.59,6.33-6.71-6.09-6.35ZM212.89,287.57l3.57,3.33-3.57,3.92-3.45-3.45,3.45-3.8Z"/>
    <path id="path9157" class="cls-4" d="M213.26,301.7l-6.21,6.47,6,6.28,6.45-6.14-6.24-6.61ZM213.17,304.48l3.57,3.33-3.57,3.92-3.47-3.43,3.47-3.83Z"/>
    <path id="path9159" class="cls-9" d="M221.58,271.46l-5.6-6.05,5.22-5.6"/>
    <path id="path9161" class="cls-9" d="M221.49,267.94l-2.24-2.34,1.84-2.22"/>
    <path id="path9163" class="cls-9" d="M205.09,272.73l6.64-6.95-3.83-4.04"/>
    <path id="path9165" class="cls-9" d="M205.33,268.46l2.24-2.6-2.24-2.36"/>
    <path id="path9167" class="cls-2" d="M204.5,310.13l2.58,3.07"/>
    <path id="path9169" class="cls-2" d="M221.65,309.99l-4.72,4.87"/>
    <path id="path9171" class="cls-2" d="M204.76,263.78l-.38,49.26"/>
    <path id="path9173" class="cls-2" d="M221.79,257.76l-.14,58.94"/>
    <path id="path9175" class="cls-4" d="M210.78,260.71l2.93,2.93,5.65-5.62-.9-1.54-7.68,4.23Z"/>
    <path id="path9177" class="cls-2" d="M334.67,228.6v47.32l4.02,1.35v-48.67h-4.02Z"/>
    <path id="path9179" class="cls-2" d="M338.68,415.28v-134.68h-4.02v136l15.33,13.35v-4.68l-11.32-9.99Z"/>
    <path id="path9181" class="cls-1" d="M344.33,229.93c-.78,0-1.65.87-1.65,1.68s.87,1.65,1.65,1.65,1.68-.87,1.68-1.65-.87-1.68-1.68-1.68Z"/>
    <path id="path9183" class="cls-1" d="M344.33,239.26c-.78,0-1.65.87-1.65,1.68s.87,1.65,1.65,1.65,1.68-.87,1.68-1.65-.87-1.68-1.68-1.68Z"/>
    <path id="path9185" class="cls-1" d="M346.34,234.6c-.78,0-1.65.87-1.65,1.65s.87,1.68,1.65,1.68,1.68-.9,1.68-1.68-.9-1.65-1.68-1.65Z"/>
    <path id="path9187" class="cls-1" d="M342.35,234.6c-.78,0-1.68.87-1.68,1.65s.9,1.68,1.68,1.68,1.65-.9,1.65-1.68-.87-1.65-1.65-1.65Z"/>
    <path id="path9189" class="cls-1" d="M344.45,262.43c-.8,0-1.68.87-1.68,1.68s.87,1.65,1.68,1.65,1.65-.87,1.65-1.65-.87-1.68-1.65-1.68Z"/>
    <path id="path9191" class="cls-1" d="M344.45,271.76c-.8,0-1.68.9-1.68,1.68s.87,1.65,1.68,1.65,1.65-.87,1.65-1.65-.87-1.68-1.65-1.68Z"/>
    <path id="path9193" class="cls-1" d="M346.43,267.11c-.78,0-1.65.87-1.65,1.65s.87,1.68,1.65,1.68,1.68-.87,1.68-1.68-.87-1.65-1.68-1.65Z"/>
    <path id="path9195" class="cls-1" d="M342.44,267.11c-.78,0-1.68.87-1.68,1.65s.9,1.68,1.68,1.68,1.68-.87,1.68-1.68-.9-1.65-1.68-1.65Z"/>
    <path id="path9197" class="cls-1" d="M344.31,294.96c-.78,0-1.65.87-1.65,1.65s.87,1.68,1.65,1.68,1.68-.87,1.68-1.68-.9-1.65-1.68-1.65Z"/>
    <path id="path9199" class="cls-1" d="M344.31,304.29c-.78,0-1.65.87-1.65,1.65s.87,1.68,1.65,1.68,1.68-.87,1.68-1.68-.9-1.65-1.68-1.65Z"/>
    <path id="path9201" class="cls-1" d="M346.31,299.62c-.78,0-1.68.9-1.68,1.68s.9,1.65,1.68,1.65,1.65-.87,1.65-1.65-.87-1.68-1.65-1.68Z"/>
    <path id="path9203" class="cls-1" d="M342.32,299.62c-.8,0-1.68.9-1.68,1.68s.87,1.65,1.68,1.65,1.65-.87,1.65-1.65-.87-1.68-1.65-1.68Z"/>
    <path id="path9205" class="cls-1" d="M344.19,327.99c-.78,0-1.68.87-1.68,1.65s.9,1.68,1.68,1.68,1.65-.87,1.65-1.68-.87-1.65-1.65-1.65Z"/>
    <path id="path9207" class="cls-1" d="M344.19,337.32c-.78,0-1.68.87-1.68,1.68s.9,1.65,1.68,1.65,1.65-.87,1.65-1.65-.87-1.68-1.65-1.68Z"/>
    <path id="path9209" class="cls-1" d="M346.17,332.64c-.78,0-1.65.9-1.65,1.68s.87,1.68,1.65,1.68,1.68-.9,1.68-1.68-.87-1.68-1.68-1.68Z"/>
    <path id="path9211" class="cls-1" d="M342.18,332.64c-.78,0-1.65.9-1.65,1.68s.87,1.68,1.65,1.68,1.68-.9,1.68-1.68-.9-1.68-1.68-1.68Z"/>
    <path id="path9213" class="cls-1" d="M344.19,360.26c-.78,0-1.68.87-1.68,1.65s.9,1.68,1.68,1.68,1.65-.9,1.65-1.68-.87-1.65-1.65-1.65Z"/>
    <path id="path9215" class="cls-1" d="M344.19,369.59c-.78,0-1.68.87-1.68,1.65s.9,1.68,1.68,1.68,1.65-.87,1.65-1.68-.87-1.65-1.65-1.65Z"/>
    <path id="path9217" class="cls-1" d="M346.17,364.91c-.78,0-1.65.87-1.65,1.68s.87,1.65,1.65,1.65,1.68-.87,1.68-1.65-.87-1.68-1.68-1.68Z"/>
    <path id="path9219" class="cls-1" d="M342.18,364.91c-.78,0-1.65.87-1.65,1.68s.87,1.65,1.65,1.65,1.68-.87,1.68-1.65-.9-1.68-1.68-1.68Z"/>
    <path id="path9221" class="cls-1" d="M343.81,392.65c-.8,0-1.68.87-1.68,1.65s.87,1.68,1.68,1.68,1.65-.87,1.65-1.68-.87-1.65-1.65-1.65Z"/>
    <path id="path9223" class="cls-1" d="M343.81,401.98c-.8,0-1.68.87-1.68,1.65s.87,1.68,1.68,1.68,1.65-.87,1.65-1.68-.87-1.65-1.65-1.65Z"/>
    <path id="path9225" class="cls-1" d="M345.79,397.3c-.78,0-1.65.9-1.65,1.68s.87,1.65,1.65,1.65,1.68-.87,1.68-1.65-.9-1.68-1.68-1.68Z"/>
    <path id="path9227" class="cls-1" d="M341.8,397.3c-.78,0-1.68.9-1.68,1.68s.9,1.65,1.68,1.65,1.65-.87,1.65-1.65-.87-1.68-1.65-1.68Z"/>
    <path id="path9229" class="cls-1" d="M340.01,254.59v-3.33l8.67-8.01v3.35l-8.67,7.98Z"/>
    <path id="path9231" class="cls-1" d="M340.01,259.93v-3.33l8.67-8.01v3.33l-8.67,8.01Z"/>
    <path id="path9233" class="cls-1" d="M340.01,287.92v-3.33l8.67-7.98v3.33l-8.67,7.98Z"/>
    <path id="path9235" class="cls-1" d="M340.01,293.26v-3.33l8.67-8.01v3.33l-8.67,8.01Z"/>
    <path id="path9237" class="cls-1" d="M340.01,321.26v-3.33l8.67-7.98v3.33l-8.67,7.98Z"/>
    <path id="path9239" class="cls-1" d="M340.01,326.6v-3.33l8.67-8.01v3.35l-8.67,7.98Z"/>
    <path id="path9241" class="cls-1" d="M340.01,353.27v-3.33l8.67-8.01v3.33l-8.67,8.01Z"/>
    <path id="path9243" class="cls-1" d="M340.01,358.61v-3.33l8.67-8.01v3.33l-8.67,8.01Z"/>
    <path id="path9245" class="cls-1" d="M340.01,384.62v-3.35l8.67-7.98v3.33l-8.67,8.01Z"/>
    <path id="path9247" class="cls-1" d="M340.01,389.93v-3.33l8.67-7.98v3.33l-8.67,7.98Z"/>
    <path id="path9249" class="cls-1" d="M340.1,415.45l-.09-.83,8.67-8.01v3.33l-6.66,6.59-1.91-1.09Z"/>
    <path id="path9251" class="cls-1" d="M344.5,418.94l-1.58-1.32,5.76-5.67v3.33l-4.18,3.66Z"/>
    <path id="path9253" class="cls-4" d="M295,283.91l-6.24,6.5,6,6.59,6.45-6.47-6.21-6.61ZM294.89,286.72l3.57,3.33-3.57,3.9-3.45-3.43,3.45-3.8Z"/>
    <path id="path9255" class="cls-4" d="M297.48,265.58l-7.02,5.65,5.13,7.3,7.21-5.6-5.32-7.35ZM297.03,268.34l3.09,3.76-4.04,3.43-2.98-3.85,3.92-3.33Z"/>
    <path id="path9257" class="cls-4" d="M294.77,301.15l-5.5,6.61,6.69,5.48,5.58-6.61-6.76-5.48ZM294.96,303.75l3.9,2.72-3.12,3.97-3.8-2.83,3.02-3.85Z"/>
    <path id="path9259" class="cls-4" d="M296.4,316.74l-5.22,7.32,6.9,5.67,5.46-7.35-7.13-5.65ZM296.7,319.53l4.02,2.76-2.95,4.39-3.92-2.88,2.86-4.28Z"/>
    <path id="path9261" class="cls-4" d="M299.18,333.94l-4.02,8.03,7.68,4.54,4.25-8.1-7.91-4.46ZM299.92,336.64l4.39,2.13-2.24,4.8-4.32-2.24,2.17-4.68Z"/>
    <path id="path9263" class="cls-4" d="M304.03,350.88l-3.26,8.39,8.08,3.78,3.47-8.46-8.29-3.71ZM305.02,353.5l4.56,1.7-1.77,4.98-4.51-1.82,1.72-4.87Z"/>
    <path id="path9265" class="cls-4" d="M311.19,367.98l-1.61,8.84,8.65,2.2,1.8-8.95-8.84-2.08ZM312.65,370.37l4.82.8-.83,5.22-4.77-.94.78-5.08Z"/>
    <path id="path9267" class="cls-4" d="M320.16,383.79l-.85,8.95,8.81,1.44,1.02-9.1-8.98-1.3ZM321.82,386.06l4.87.38-.35,5.29-4.84-.54.33-5.13Z"/>
    <path id="path9269" class="cls-9" d="M304.17,275.78l-6.8,5.46,5.39,6.66"/>
    <path id="path9271" class="cls-9" d="M303.65,279.25l-2.5,2.2,1.96,2.41"/>
    <path id="path9273" class="cls-9" d="M305,269.59s-.97,8.22-1.32,12.33c-.5,5.72-1.23,11.43-1.18,17.17.07,5.03.71,10.02,1.35,15,.69,5.32,1.46,10.61,2.67,15.83,1.32,5.81,3,11.55,4.98,17.17,1.82,5.06,3.97,10.02,6.35,14.84,2.55,5.2,5.39,10.28,8.48,15.17,2.36,3.73,7.68,10.84,7.68,10.84"/>
    <path id="path9275" class="cls-9" d="M286.69,287.36l7.09-7.56-6.33-7.61"/>
    <path id="path9277" class="cls-9" d="M286.97,283.01l3.02-3.17-2.79-3.45"/>
    <path id="path9279" class="cls-9" d="M302.35,292.98l-5.69,5.48,5.27,5.79"/>
    <path id="path9281" class="cls-9" d="M302.14,296.22l-2.1,2.17,1.94,2.1"/>
    <path id="path9283" class="cls-9" d="M286.05,307.3l6.83-7.8-6.57-7.39"/>
    <path id="path9285" class="cls-9" d="M286.19,302.95l2.91-3.28-2.91-3.33"/>
    <path id="path9287" class="cls-9" d="M287.89,324.16l5.98-8.46-7.28-6.69"/>
    <path id="path9289" class="cls-9" d="M287.59,319.82l2.55-3.54-3.24-3.05"/>
    <path id="path9291" class="cls-9" d="M291.06,341.05l4.96-9.1-8.03-5.79"/>
    <path id="path9293" class="cls-9" d="M290.25,336.78l2.13-3.83-3.57-2.65"/>
    <path id="path9295" class="cls-9" d="M298,358.44l3.54-9.76-8.79-4.51"/>
    <path id="path9297" class="cls-9" d="M296.56,354.33l1.54-4.11-3.92-2.08"/>
    <path id="path9299" class="cls-9" d="M306.37,376.09l2.36-10.11-9.28-3.43"/>
    <path id="path9301" class="cls-9" d="M304.45,372.17l1.02-4.25-4.13-1.58"/>
    <path id="path9303" class="cls-8" d="M316.22,392.18l1.35-10.28-8.81-2.6"/>
    <path id="path9305" class="cls-8" d="M314.11,388.44l.61-4.32-3.95-1.23"/>
    <path id="path9307" class="cls-8" d="M328.15,407.74l-.5-10.7-9.12-.99"/>
    <path id="path9309" class="cls-8" d="M325.43,403.99l-.17-4.32-4.09-.5"/>
    <path id="path9311" class="cls-9" d="M303.84,372.43c2.67,4.46,5.2,8.98,8.01,13.35,3.59,5.62,7.25,11.2,11.32,16.49,3.45,4.49,7.35,8.58,11.01,12.85"/>
    <path id="path9313" class="cls-9" d="M330.51,410.11l3.83.5"/>
    <path id="path9315" class="cls-4" d="M334.17,407.93l-3.66-.83.33-9.66,3.33.83v9.66Z"/>
    <path id="path9317" class="cls-9" d="M331.5,385.44l-.66,8.67,3.33.83"/>
    <path id="path9319" class="cls-9" d="M303.13,308.48l-4.98,6.19,5.98,5.06"/>
    <path id="path9321" class="cls-9" d="M303.32,311.74l-1.82,2.43,2.17,1.84"/>
    <path id="path9323" class="cls-9" d="M304.67,324.89l-3.83,6.92,6.73,3.97"/>
    <path id="path9325" class="cls-9" d="M305.42,328.06l-1.37,2.69,2.46,1.44"/>
    <path id="path9327" class="cls-9" d="M309.01,341.12l-3.24,7.23,7.04,3.4"/>
    <path id="path9329" class="cls-9" d="M310.03,344.24l-1.13,2.79,2.58,1.23"/>
    <path id="path9331" class="cls-9" d="M314.47,357.42l-1.94,7.68,7.54,2.13"/>
    <path id="path9333" class="cls-9" d="M316,360.31l-.64,2.95,2.76.76"/>
    <path id="path9335" class="cls-9" d="M322.45,372.78l-1.04,7.87,7.73,1.23"/>
    <path id="path9337" class="cls-9" d="M324.32,375.47l-.28,3,2.81.45"/>
    <path id="path9339" class="cls-4" d="M317.33,302.26c2.13,5.84,3.87,11.81,6.35,17.51,1.56,3.59,3.07,7.28,5.32,10.49,1.49,2.13,3.57,3.78,5.34,5.67l-.17-9.33-3,.66,1.68-4.16-3.85-.17,2.34-2.83-3.5-.33,2.17-3-3.85-.17,2.67-3.33-4.32-.33,2.5-3.33-3.85-.35,2.34-3.17-3.33-.5,2.17-3.66-4.68-.17-2.34.5Z"/>
    <path id="path9341" class="cls-7" d="M324.67,279.42c1.56-1.68,4.13-2.1,6.33-2.79,1.18-.35,2.43-.73,3.66-.66,1.39.07,2.86.35,4.02,1.16.61.45,1.28,1.09,1.32,1.84.05.57-.4,1.13-.83,1.49-.4.33-.99.38-1.51.5-.83.24-1.75.09-2.5.5-.69.38-1.32.97-1.61,1.7-.35.83-.24,1.84-.07,2.74.19,1.02.73,2.08,1.18,2.86l-.17,9.52c-1.89.21-3.87.83-5.84.66-1.16-.09-2.46-.24-3.33-.99-1.58-1.42-2.01-3.78-2.5-5.84-.47-2.13-.64-4.37-.33-6.5.31-2.17.69-4.58,2.17-6.19h0Z"/>
    <path id="path9343" class="cls-7" d="M303.84,308.26c3-1.23,5.39-2.24,8.01-3.5,2.24-1.09,4.46-2.29,6.66-3.5,2.08-1.13,4.49-2.39,6.17-3.5"/>
    <path id="path9345" class="cls-7" d="M304.83,269.43c3.61,1.72,7.28,3.38,10.84,5.17,2.86,1.44,5.67,3,8.5,4.49"/>
    <path id="path9347" class="cls-7" d="M321.01,277.6s-1.54,4.82-1.84,7.32c-.31,2.55-.4,5.15,0,7.68.38,2.24,2.17,6.5,2.17,6.5l-8.5,4.84,3.66-6-3.99-4.02,4.32-4.82-3.99-5.5,3.5-2.83-2.17-6.66,6.85,3.5Z"/>
    <path id="path9349" class="cls-9" d="M306.01,270.77l4.98,8.15-4.32,4.18,4.16,5.67-4.32,5.32,3.83,3.85-4.65,9"/>
    <path id="path9351" class="cls-9" d="M305,275.1l1.68,2.67-2.5,2.01"/>
    <path id="path9353" class="cls-9" d="M303.67,286.44l2.01,2.5-2.17,2.83"/>
    <path id="path9355" class="cls-9" d="M303.18,296.1l2.15,3-2.15,3.33"/>
    <path id="path9357" class="cls-2" d="M307.83,312.42l7.51-3.66s2.27,7.63,3.66,11.34c1.18,3.17,2.32,6.4,3.99,9.33,1.96,3.38,7.02,9.33,7.02,9.33v34.85s-6.59-10.47-9.33-15.99c-2.83-5.72-5.36-11.62-7.35-17.67-1.65-5.06-2.83-10.28-3.83-15.52-.76-3.95-1.68-12-1.68-12Z"/>
    <path id="path9359" class="cls-2" d="M306.46,207.6s.45,4.87,1.54,6.99c1.06,2.06,2.79,3.83,4.68,5.17,1.63,1.16,3.54,1.94,5.5,2.32,1.63.33,3.33.17,4.98,0,1.13-.09,3.33-.66,3.33-.66,0,0-2.13-.69-2.81-1.49-1.49-1.7-1.7-4.18-2.34-6.33s-.78-4.42-1.51-6.52c-.73-2.13-1.39-4.42-2.83-6.17-.78-.94-1.84-1.7-3-2.15-.69-.28-2.2-.35-2.2-.35l-5.34,9.19Z"/>
    <path id="path9361" class="cls-9" d="M309.67,202.9c.8,2.65,1.49,5.2,2.83,7.51,1.13,2.01,2.74,3.69,4.32,5.34,1.04,1.09,2.22,2.01,3.33,3"/>
    <path id="path9363" class="cls-9" d="M315.41,205c-1.18.64-3.8.07-5.1-.19-.9,1.77-1.63,3.14-1.56,4.8"/>
    <path id="path9365" class="cls-9" d="M316.48,208.03c-1.18.64-3.4.45-4.7.19-.9,1.77-1.63,3.5-1.56,5.15"/>
    <path id="path9367" class="cls-9" d="M317.99,212.14c-1.2.64-2.91.17-4.21-.09-.9,1.77-.71,3.38-.64,5.03"/>
    <path id="path9369" class="cls-9" d="M319.71,215.14c-1.18.66-1.94.05-3.24-.21-.9,1.77-.43,2.46-.35,4.11"/>
    <path id="path9371" class="cls-9" d="M310,202.17c1.18.19,2.36.28,3.54-.24"/>
    <path id="path9373" class="cls-1" d="M229.94,264.32c-.57.21-1.3.59-1.37,1.2-.07.59.59,1.11,1.09,1.44.28.19.69.17,1.02.28.35.12.83.17,1.06.5s.07.83.17,1.23c.28.99.4,2.17,1.16,2.86.66.64,1.68.76,2.58.85.78.07,1.56-.19,2.32-.28.61-.07,1.2-.26,1.82-.21.31.05.64.07.87.26.21.19.28.5.33.76.14.57.05,1.16.07,1.75.02.76-.12,1.54.07,2.24.24.85.59,1.77,1.28,2.32.73.59,1.75.73,2.67.78.78.02,1.54-.28,2.32-.43.59-.12,1.16-.35,1.77-.33.26,0,.57,0,.76.19.12.09.12.31.14.45.05.5-.09.97-.14,1.46-.05.66-.28,1.35-.17,2.01.12.8.35,1.7.92,2.29.64.64,1.63.92,2.53,1.09.78.12,1.58-.17,2.36-.19.97,0,2.15-.5,2.91.12.59.47.38,1.44.52,2.17.14.69.07,1.39.33,2.01.33.76.76,1.56,1.44,1.98.57.35,1.32.4,1.98.35.5-.02.97-.31,1.46-.45.4-.12.85-.52,1.25-.35.12.05.14.21.17.33.19.4.26.83.4,1.25.19.52.26,1.16.64,1.58.52.61,1.25,1.2,2.06,1.2.78-.02,1.51-.61,2.01-1.2.35-.45.38-1.06.54-1.58.14-.4.21-.8.35-1.2.05-.07.05-.19.12-.21.09-.07.24-.02.35,0,.4.09.76.33,1.13.47.54.19,1.04.52,1.61.57.76.05,1.61.02,2.2-.43.69-.5,1.02-1.42,1.2-2.24.17-.69-.05-1.37-.07-2.08-.02-.47-.14-.97-.07-1.46.02-.12,0-.26.09-.33.19-.17.5-.09.73-.09.54.02,1.06.19,1.58.33.71.24,1.35.8,2.08.85.64.02,1.56,0,1.84-.57.31-.57-.19-1.35-.61-1.82-.64-.64-1.65-.73-2.5-.99-.73-.21-1.46-.47-2.22-.47-.83.02-1.75.07-2.41.57-.69.52-1.04,1.42-1.23,2.24-.17.66.05,1.37.05,2.06.02.52.43,1.2.05,1.56-.31.28-.83-.02-1.23-.12-.54-.14-1.02-.52-1.56-.61-.71-.09-1.49-.17-2.15.14-.64.33-1.06.99-1.44,1.61-.26.45-.02,1.44-.54,1.44s-.28-1.06-.54-1.54c-.38-.64-.78-1.37-1.46-1.63-1.04-.43-2.24.28-3.38.26-.43,0-.97.17-1.3-.12-.38-.35-.14-1.02-.28-1.51-.4-1.39-.4-3.14-1.54-4.04-1.3-1.04-3.26-.64-4.91-.69-.61,0-1.2.24-1.8.17-.31-.05-.66-.09-.85-.33-.12-.12-.14-.31-.17-.5-.05-.5.12-.99.17-1.49.05-.69.26-1.37.17-2.03-.14-.8-.4-1.7-1.04-2.27-.69-.61-1.7-.8-2.62-.87-.78-.05-1.56.28-2.32.43-.61.09-1.2.33-1.82.33-.28,0-.61,0-.83-.17s-.28-.47-.35-.73c-.12-.57-.02-1.13-.05-1.7-.02-.76.09-1.54-.09-2.27-.21-.85-.54-1.77-1.23-2.34-.69-.59-1.65-.78-2.55-.87-.78-.09-1.56.14-2.34.24-.61.07-1.23.26-1.84.24-.31-.02-.71,0-.9-.24-.24-.24-.09-.66-.17-.97-.21-.97-.24-2.08-.87-2.86-.52-.66-1.44-.94-2.22-1.25-.43-.17-.85-.24-1.3-.33-.07-.02-.17-.05-.24-.05h0Z"/>
    <path id="path9375" class="cls-1" d="M230.01,272.02c-.54.02-1.06.4-1.25.92-.17.52.02,1.16.47,1.49l38.77,30.59c.45.33,1.11.35,1.58.02l15.17-10.63c.61-.4.8-1.3.38-1.89-.4-.59-1.32-.73-1.89-.31l-14.39,10.09-37.99-29.98c-.24-.19-.54-.31-.85-.31h0Z"/>
    <path id="path9377" d="M268.05,312.42v42.59l6.5-4.54.21-42.22-6.71,4.16Z"/>
    <path id="path9379" class="cls-1" d="M229,281.85l14.01,11.24.19,36.29-14.2-9.66v-37.87Z"/>
    <path id="path9381" class="cls-5" d="M243.2,292.48l.4,37.49"/>
    <path id="path9383" class="cls-5" d="M247.14,295.29l.19,38.22"/>
    <path id="path9385" class="cls-5" d="M265.1,310.44l.19,45.57"/>
    <path id="path9387" class="cls-9" d="M290.33,340.23l-24.26,16.16"/>
    <path id="path9389" class="cls-5" d="M265.07,349.77l-17.55-17.91,17.67-17.1-17.86-18.33"/>
    <path id="path9391" class="cls-5" d="M257.91,304.06l-10.7,10.94,17.86,18.62-10.11,9.45"/>
    <path id="path9393" class="cls-5" d="M256.02,310.89l-3.28,3.52,3.28,3.87,3.4-3.52-3.4-3.87Z"/>
    <path id="path9395" class="cls-5" d="M255.93,329.34l-2.86,3.14,3.24,3.28,2.88-3.07-3.26-3.35Z"/>
    <path id="path9397" class="cls-6" d="M247.92,301.72l3.26,3.57-3.43,3.61.17-7.18Z"/>
    <path id="path9399" class="cls-6" d="M264.72,320.41l-3.5,3.64,3.54,3.45-.05-7.09Z"/>
    <path id="path9401" class="cls-6" d="M247.73,320.38l3.21,3.5-3.28,3.02.07-6.52Z"/>
    <path id="path9403" class="cls-6" d="M264.81,338.74l-3.07,3.17,3.24,3.17-.17-6.33Z"/>
    <path id="path9405" class="cls-9" d="M218.63,256.27c-4.72,2.36-9.45,4.7-14.15,7.09-3.38,1.7-6.8,3.35-10.13,5.17-4.8,2.62-9.57,5.29-14.15,8.27-4.3,2.79-8.32,5.95-12.5,8.95,2.76,3.69,5.46,7.42,8.27,11.08,2.39,3.09,4.98,6.05,7.3,9.19,2.15,2.91,4.09,5.98,6.12,8.95,1.65-.47,3.26-1.16,4.96-1.42,3.33-.5,6.76-.45,10.13-.24,2.69.17,5.36.66,8.01,1.18,2.86.57,5.74,1.16,8.5,2.13,2.83.99,5.6,2.32,8.24,3.78,3.02,1.65,5.91,3.61,8.72,5.65,3.02,2.2,6.07,4.42,8.72,7.06,2.58,2.58,4.63,5.62,6.85,8.5,2.41,3.17,4.56,6.54,7.06,9.66,1.7,2.13,3.45,4.23,5.41,6.12,2.72,2.6,5.55,5.08,8.74,7.06,2.93,1.87,6.17,3.26,9.43,4.49,3.12,1.2,6.33,2.36,9.66,2.83,3.26.47,6.59,0,9.9,0-1.82-3.71-3.76-7.32-5.43-11.08-2.08-4.72-4.04-9.5-5.65-14.39-1.51-4.56-2.79-9.21-3.78-13.91-.99-4.82-1.61-9.71-2.13-14.6-.38-3.69-.59-7.39-.71-11.08-.12-4.09-.02-8.17,0-12.26.05-3.85.09-7.7.24-11.55.17-4.02.47-8.01.71-12.02"/>
    <path id="path9407" class="cls-1" d="M256.61,406.99l-25.25-20.51.19-41.81,2.58-1.77,4.54,4.54,6.9,9.26,5.72,8.08,2.58,2.76,3.14,2.58-.38,36.88Z"/>
    <path id="path9409" class="cls-1" d="M221.89,334.42l-16.56,12.02-1.58-3.17,14.2-11.24,3.95,2.39Z"/>
    <path id="path9411" class="cls-1" d="M234.12,343.27l-24.07,15.78-1.37-3.14,22.49-14.81,2.95,2.17Z"/>
    <path id="path9413" class="cls-1" d="M225.24,391.02l.21-42.03-15.99,10.47,2.58,11.84,1.77,11.43.4,10.65-.21,5.72,11.24-8.08Z"/>
    <path id="path9415" d="M231.55,341.1l-22.87,15.19s-1.61-4.06-2.36-6.12c-.47-1.23-1.39-3.73-1.39-3.73l16.96-12.24s4.32,1.42,6.12,2.76c1.46,1.09,3.54,4.13,3.54,4.13h0Z"/>
    <path id="path9417" d="M271.33,418.11l-39.5-31.51-17.84,11.34.17,9.33-.5,8.84-.33,6.99,18.17-12.33,23.34,19.18,3,1.49,1.65,1.51,2.67.33,1.51,2.17,1.98-.52,2.01,2.5h2.01l1.65,1.51v-20.84Z"/>
    <path id="path9419" d="M277.99,442.28l.17-59.34-3.99-1.49-3.33-1.84.17,59.51,2.17.33,2.15,2.17,1.35-.52,1.32,1.18Z"/>
    <path id="path9421" class="cls-2" d="M196.66,391.11l-13.49,6.66s-2.6-7.37-4.02-11.01-2.69-7.35-4.49-10.82c-1.2-2.34-2.55-4.61-4.18-6.69-1.56-2.01-5.32-5.48-5.32-5.48l.17-52.35s6.59,7.98,9.33,12.33c2.39,3.8,4.21,7.96,6.17,12,2.55,5.29,5.27,10.51,7.32,16.02,1.39,3.69,2.36,7.51,3.33,11.32,1.04,3.97,1.94,7.98,2.67,12,.54,2.93.87,5.91,1.35,8.84.38,2.41,1.16,7.18,1.16,7.18Z"/>
    <path id="path9423" class="cls-1" d="M194.15,430.28l-18.17-9.83,1.84-6.85-.66-6.66-2.01-4.49,5.34-4.02,9.17-3.99,6.83-2.83.66,6.66v8.01l-.5,9.33-1.49,10.49-1.02,4.18Z"/>
    <path id="path9425" class="cls-3" d="M219.01,332.1l-15.17,11.34s-2.65-5.79-4.02-8.67c-1.09-2.29-3.33-6.83-3.33-6.83,0,0,7.39-.47,11.01.17,3.99.71,11.5,3.99,11.5,3.99h0Z"/>
    <path id="path9427" d="M150,274.76l11.24,9.76-.17,186.51-11.08.07v-196.34Z"/>
    <path id="path9429" class="cls-3" d="M306.01,430.87l-.12-44.55,4.61-1.42s7.47,10.42,11.29,15.57c2.79,3.71,5.79,7.28,8.5,11.08.66.92,1.89,2.81,1.89,2.81,0,0-7.39,5.39-11.2,7.91-2.72,1.77-5.46,3.45-8.27,5.06-2.2,1.25-6.71,3.54-6.71,3.54h0Z"/>
    <path id="path9431" d="M295.17,436.28l.24-49.49s3.69.19,5.53.12c1.91-.09,5.67-.59,5.67-.59l-.12,44.55s-4.21,2.27-6.35,3.28c-1.63.78-4.96,2.13-4.96,2.13h0Z"/>
    <path id="path9433" class="cls-1" d="M233.18,487.19c4.7-.07,9.43.07,14.13-.24,3.92-.24,7.82-.69,11.67-1.28,2.55-.4,5.03-1.04,7.56-1.54.38-2.76.8-5.5,1.18-8.24.4-3.12.73-6.21,1.16-9.33.33-2.32.52-4.65,1.06-6.95.33-1.37.87-2.67,1.3-4.02l1.77-.24c.59.59.97,1.54,1.77,1.77,1.06.33,2.32-.05,3.31-.59,1.42-.76,2.43-2.15,3.28-3.52.83-1.32,1.49-2.81,1.65-4.37.09-.99-.07-2.03-.47-2.95-.31-.69-.73-1.44-1.42-1.77-.66-.31-1.49,0-2.24,0-.38-.54-.64-1.2-1.16-1.63-.8-.66-1.89-.87-2.83-1.3-.52-.59-.83-1.44-1.54-1.77-.61-.28-1.35,0-2.01,0-.59-.54-1.02-1.35-1.77-1.65-.61-.24-1.32,0-1.98,0-.69-.78-1.06-1.94-2.01-2.36-.69-.28-1.49.09-2.24.12-.59-.71-.94-1.72-1.77-2.13-.69-.31-1.49,0-2.24,0-.73-.61-1.39-1.37-2.22-1.87-.97-.59-2.01-1.04-3.07-1.3-1.11-.26-2.29-.45-3.43-.24-1.23.21-2.41.8-3.43,1.54-1.11.8-2.06,1.89-2.81,3.05-1.06,1.58-1.77,3.38-2.36,5.2-1.06,3.28-1.39,6.73-2.01,10.13-.78,4.42-1.35,8.88-2.13,13.32-.76,4.39-1.61,8.81-2.46,13.18-.73,3.66-1.51,7.32-2.24,10.96h0Z"/>
    <path id="path9435" class="cls-2" d="M282.01,509.94l-13.35-26.67s-6.78,1.8-10.25,2.36c-5.43.87-10.91,1.46-16.42,1.65-6.66.21-13.35-.09-19.99-.66-7.84-.71-23.34-3.35-23.34-3.35l-15.33,26.67h98.68Z"/>
    <path id="path9437" class="cls-4" d="M272.11,508.97l-10.11-19.7c-4.32,1.51-7.61,1.56-13.13,2.17l2.6,17.53h3.83l-3.4-15.17c3.17-.21,5.67-.19,8.41-1.28l7.42,16.44h4.39Z"/>
    <path id="path9439" class="cls-4" d="M245.53,508.97l-2.03-16.87c-6.71.61-12.1.99-18.8.31l-3.66,16.56h4.3l2.03-13.21c5.27.31,8.39-.02,12.8-.33l1.49,13.54h3.87Z"/>
    <path id="path9441" class="cls-4" d="M214.49,508.97l4.89-16.7c-4.91-.43-12.05-1.04-17.39-2.32l-9.14,19.02h4.23l6.92-15.69c2.98.8,8.01,1.16,10.99,1.58l-4.16,14.1h3.66Z"/>
    <path id="path9443" class="cls-9" d="M233.32,486.62s2.32-11.1,3.35-16.68c1.2-6.64,1.94-13.39,3.33-20.01.92-4.49,1.06-9.33,3.33-13.32,1.54-2.74,3.61-5.86,6.66-6.66,2.95-.78,6.8.12,8.84,2.39,1.7,1.91,2.06,5.2,1.16,7.61-.94,2.62-3.52,5.55-6.31,5.46-2.91-.09-6.12-3.26-6.17-6.14-.02-2.6,2.79-5.5,5.39-5.67,1.61-.12,3.54,1.42,3.76,3.02.26,1.87-1.44,4.56-3.33,4.54-1.13,0-2.67-1.32-1.96-2.76"/>
    <path id="path9445" class="cls-9" d="M237.22,487.17c1.96-5.98,2.46-12.05,3.5-18.12,1.06-6.02,1.35-12.17,2.76-18.12,1.13-4.72,2.41-9.76,4.54-13.84"/>
    <path id="path9447" class="cls-9" d="M241.68,487.17c1.49-5.2,1.94-10.7,2.76-16.06.8-5.24,1.09-10.58,2.1-15.78.73-3.78,1.28-7.56,2.88-11.13"/>
    <path id="path9449" class="cls-9" d="M245.65,486.91c1.32-4.96,1.72-10.23,2.46-15.36.71-5.01.97-10.13,1.87-15.1.66-3.59,1.13-7.23,2.58-10.63"/>
    <path id="path9451" class="cls-9" d="M249.53,486.48c1.2-4.72,1.56-9.71,2.22-14.6.64-4.75.87-9.59,1.68-14.32.59-3.43,1.02-6.87,2.32-10.09"/>
    <path id="path9453" class="cls-9" d="M253.33,486.13c1.18-4.49,1.56-9.24,2.2-13.87.66-4.54.87-9.14,1.7-13.63.59-3.26,1.02-6.52,2.32-9.59"/>
    <path id="path9455" class="cls-9" d="M257.58,485.54c1.16-4.21,1.42-8.39,2.03-12.57.61-4.23.85-8.5,1.65-12.69.57-3.02.97-6.07,2.24-8.93"/>
    <path id="path9457" class="cls-9" d="M261.69,484.92c1.11-3.83,1.44-7.87,2.03-11.81.59-3.85.8-7.77,1.54-11.6.54-2.76.94-5.55,2.13-8.17"/>
    <path id="path9459" class="cls-9" d="M266.35,483.62c.94-3.43,1.23-6.8,1.72-10.23.52-3.45.69-6.97,1.32-10.39.45-2.48.78-4.98,1.8-7.32"/>
    <path id="path9461" class="cls-9" d="M253.05,445.14c1.09.76,2.06,2.06,3.35,2.1,2.15.07,4.28-1.37,5.67-2.98,1.49-1.72,2.39-4.18,2.22-6.45-.09-1.63-.9-3.38-2.2-4.37-.64-.47-1.35-.35-2.39-.45"/>
    <path id="path9463" class="cls-9" d="M257.37,447.29c.9.99,1.58,1.77,2.65,1.84,2.15.12,4.28-1.37,5.67-3,1.49-1.7,2.39-4.16,2.22-6.43-.09-1.63-.8-3.52-2.2-4.37-.66-.4-1.25-.47-2.32.05"/>
    <path id="path9465" class="cls-9" d="M260.63,449.27c1.09.73,2.06,2.06,3.35,2.1,2.15.07,4.28-1.37,5.67-3,1.49-1.7,2.39-4.16,2.22-6.43-.09-1.63-.8-3.5-2.2-4.37-.59-.38-1.09-.4-2.13-.05"/>
    <path id="path9467" class="cls-9" d="M265.12,451.52c.83,1.18,1.65,1.77,2.76,1.84,2.13.09,4.28-1.37,5.67-3,1.46-1.7,2.36-4.16,2.22-6.43-.12-1.63-.87-3.43-2.2-4.37-.61-.43-1.09-.57-2.24-.31"/>
    <path id="path9469" class="cls-9" d="M268.92,453.76c.4.99,1.49,1.68,2.5,1.75,2.13.14,4.28-1.37,5.65-2.98,1.49-1.72,2.39-4.18,2.24-6.45-.12-1.63-.87-3.4-2.22-4.35-.5-.38-.78-.17-1.82-.26"/>
    <path id="path9471" class="cls-9" d="M272.89,455.49c.4,1.18,1.18,1.58,2.06,1.65,2.13.21,4.28-1.35,5.67-2.98,1.49-1.72,2.29-4.16,2.22-6.43-.02-1.2-.43-2.55-1.32-3.33-.71-.64-1.7-.66-2.74-.73"/>
    <path id="path9473" class="cls-9" d="M198.81,482.96c.57-6.78.97-13.54,1.68-20.29.38-3.69.71-7.39,1.35-11.06.87-4.84,1.09-9.99,3.33-14.36,1.37-2.65,3.57-4.87,5.91-6.66,2.15-1.65,4.63-3,7.28-3.64,2.74-.69,5.69-.73,8.48-.17,2.76.59,5.22,2.15,7.7,3.5,3.12,1.68,5.95,3.83,8.93,5.74"/>
    <path id="path9475" class="cls-9" d="M234.69,474.03c-2.62.76-5.17,1.84-7.87,2.27-1.75.26-3.61.61-5.32.14-.85-.24-2.39-.92-2.27-1.44.07-.26.5-.21.76-.21.99-.02,1.89.61,2.88.76,1.44.19,2.93.14,4.39,0,2.5-.26,4.94-1.02,7.42-1.51h0Z"/>
    <path id="path9477" class="cls-9" d="M220,468.5c-.31.33-1.16.61-.9.97.31.5,2.2,1.7,3.47,2.2,1.2.47,2.53.66,3.85.69,1.37.05,2.76-.17,4.11-.52.92-.26,1.65-.66,2.69-1.11"/>
    <path id="path9479" class="cls-9" d="M236.13,467.65c-2.22.57-4.39,1.42-6.66,1.68-1.61.19-3.26.24-4.84-.07-1.3-.26-2.58-.76-3.66-1.46-.71-.5-1.25-1.18-1.8-1.87,1.09-.47,2.1-1.16,3.26-1.44,1.82-.47,3.73-.66,5.6-.45,1.58.17,3.09.78,4.54,1.44,1.28.57,2.36,1.46,3.57,2.17Z"/>
    <path id="path9481" class="cls-9" d="M230.53,468.65c-.07-.78.21-1.65-.17-2.34-.45-.83-1.37-1.37-2.27-1.68-.69-.21-1.51-.24-2.2,0-.66.26-1.23.78-1.58,1.37-.5.83-.4,1.87-.61,2.81"/>
    <path id="path9483" class="cls-4" d="M228.01,468.1c.21-.24.12-.69-.05-.94-.19-.31-.54-.54-.87-.54-.35-.02-.71.21-.87.5-.21.31-.33.83-.07,1.09.45.43,1.46.33,1.87-.09h0Z"/>
    <path id="path9485" class="cls-4" d="M230.75,460.71c-1.58.31-3.8.66-5.6,1.35-1.58.61-3.09,1.8-4.46,2.43"/>
    <path id="path9487" class="cls-9" d="M211.89,472.28c.4-.99,1.02-1.91,1.23-2.95.38-2.13.09-4.35-.17-6.52-.31-2.65-1.28-5.22-1.72-7.87-.28-1.51-.97-3.09-.61-4.61.17-.76.73-1.37,1.28-1.89.69-.64,1.63-.97,2.43-1.44"/>
    <path id="path9489" class="cls-9" d="M220.75,455.77c1.04-1.13,2.55-1.96,3.12-3.4.26-.69.31-1.51,0-2.2-.38-.78-1.13-1.46-1.98-1.65-.69-.17-1.42.21-2.03.52-.8.43-1.25,1.37-2.06,1.75-.57.28-1.28.61-1.89.38-.19-.07-.43-.33-.38-.52.21-.69,1.32-.52,1.96-.76.87-.33,1.72-.61,2.58-.92"/>
    <path id="path9491" class="cls-4" d="M225.79,441.64c-1.06.54-2.58.43-3.85.4-1.32-.02-2.6-.64-3.9-.59-1.49.07-2.86,1.06-4.37,1.06-1.09.02-2.34-.47-3.19-.71.05-.38.17-.87,0-1.16,1.09.4,2.65.99,3.99.83,1.28-.17,2.2-1.63,3.5-1.65,1.49-.05,2.65,1.65,4.16,1.72,1.44.05,2.95-1.09,4.09-1.35-.31.43-.45,1.13-.43,1.44h0Z"/>
    <path id="path9493" class="cls-9" d="M223.16,437.01c-1.06-.45-2.06-1.13-3.19-1.35-.83-.17-1.72-.14-2.58.02-.57.09-1.09.38-1.63.59-.5.21-.97.47-1.46.69"/>
    <path id="path9495" class="cls-9" d="M215.49,433.68c.78.33,1.51.61,2.29.61.66,0,1.28-.26,1.89-.54"/>
    <path id="path9497" class="cls-4" d="M211.14,474.25c-1.04,1.23-3.33,1.54-5.13,1.68-1.32.09-2.62-.26-3.9-.64-.9-.26-1.77-.76-2.62-1.16,1.44.28,2.93.8,4.42.85,1.3.02,2.6-.24,3.87-.52.9-.21,1.72-.64,2.53-1.06.33-.19,1.09.54.83.85h0Z"/>
    <path id="path9499" class="cls-9" d="M211.52,469.71c-1.04.52-1.98,1.23-3.09,1.51-1.56.45-3.26.66-4.84.38-1.06-.19-1.96-.9-2.95-1.32"/>
    <path id="path9501" class="cls-9" d="M212.2,467.51c-1.13.45-2.53.8-3.8.97-1.49.19-3.02.24-4.51.05-.87-.12-1.8-.28-2.58-.73-.47-.28-.78-.8-1.18-1.2l.24-1.82c.78-.28,1.56-.69,2.39-.83,1.11-.21,2.29-.21,3.43-.14,1.23.07,2.48.14,3.64.59.87.35,1.65.94,2.39,1.56.24.21.43.45.64.69-.21.28-.31.73-.64.87h0Z"/>
    <path id="path9503" class="cls-9" d="M209.27,468.01c-.05-.78.21-1.65-.17-2.34-.45-.83-1.37-1.39-2.27-1.68-.69-.24-1.51-.26-2.2,0-.64.24-1.23.76-1.58,1.37-.5.8-.4,1.87-.61,2.79"/>
    <path id="path9505" class="cls-4" d="M206.96,467.44c.21-.24.12-.66-.05-.94-.19-.28-.54-.52-.87-.54-.35,0-.71.21-.87.5-.21.31-.33.85-.07,1.11.45.4,1.44.33,1.87-.12h0Z"/>
    <path id="path9507" class="cls-9" d="M211.66,463.9c-.85-.92-1.54-2.01-2.53-2.79-.8-.61-1.77-.94-2.67-1.42"/>
    <path id="path9509" class="cls-2" d="M200.96,457.54c-.45-1.94-.92-3.24-1.75-4.68-.85-1.42-1.82-2.83-3.19-3.76-1.09-.71-2.41-1.28-3.71-1.16-1.18.09-2.43.66-3.17,1.61s-.85,2.32-.78,3.52c.07,1.09.38,2.27,1.11,3.09.64.76,1.61,1.28,2.58,1.37.69.07,1.46-.05,1.96-.52.38-.35.52-.97.52-1.49-.02-.57.05-1.16-.66-1.56.52.21.87.87,1.25,1.37.5.71.92,1.51,1.28,2.34.43.92.71,1.91.99,2.91.35,1.35.61,2.74.9,4.09.47,2.15,1.02,4.72,1.37,6.43.38-3.69.9-9.85,1.3-13.56Z"/>
    <path id="path9511" class="cls-2" d="M202.78,444.22c-.43-1.94-1.72-5.72-3.24-8.24-.85-1.42-1.87-2.79-3.19-3.76-1.06-.78-2.32-1.65-3.64-1.56-1.25.09-2.5.97-3.24,2.01-.69.97-.85,2.32-.78,3.5.07,1.11.38,2.29,1.11,3.12.64.73,1.61,1.25,2.6,1.37.66.07,1.44-.07,1.94-.52.38-.35.54-.97.52-1.49-.05-.54-.02-1.04-.71-1.44.52.21.92.76,1.3,1.23.54.71.92,1.54,1.3,2.34.4.94.66,1.96.97,2.93.35,1.16.69,2.34,1.04,3.5.78,2.74,1.98,6.47,2.34,8.17.38-3.69,1.3-7.44,1.68-11.15h0Z"/>
    <path id="path9513" class="cls-2" d="M204.26,439s-.61-1.91-1.04-2.81c-.5-1.02-1.75-2.91-1.75-2.91,0,0-2.15-.97-3.26-1.37-1.04-.38-3.17-.97-3.17-.97,0,0,2.46,1.91,3.43,3.12.85,1.04,1.44,2.27,2.03,3.5.54,1.18.92,2.46,1.35,3.71.38,1.11,1.04,3.38,1.04,3.38,0,0,.38-2.22.66-3.33.19-.78.71-2.32.71-2.32h0Z"/>
    <path id="path9515" class="cls-2" d="M201.48,433.28l4.54,2.6-1.75,3.17-2.79-5.76Z"/>
    <path id="path9517" class="cls-2" d="M248.39,430.47l-16.61-13.8-18.71,12.31.45-5.98,18.03-12.4,23.41,19.32c-1.89-.64-4.39-.54-6.57.54h0Z"/>
    <path id="path9519" class="cls-9" d="M295.17,424.26l-6.24-7.06,6.12-6.47"/>
    <path id="path9521" class="cls-9" d="M294.93,419.98l-2.24-2.6,2.24-2.34"/>
    <path id="path9523" class="cls-4" d="M286.33,432.27l6.24-6.47-6-6.59-6.07,6.59,5.84,6.47ZM286.45,429.48l-3.57-3.33,3.57-3.92,3.45,3.45-3.45,3.8Z"/>
    <path id="path9525" class="cls-2" d="M150,495.27l25.32-24h-25.32v24Z"/>
    <path id="path9527" class="cls-2" d="M150,489.96l15.33-14.67h-15.33v14.67Z"/>
    <path id="path9529" class="cls-9" d="M295.55,407.2l-6.24-7.09,6.12-6.47"/>
    <path id="path9531" class="cls-9" d="M295.31,402.9l-2.24-2.58,2.24-2.36"/>
    <path id="path9533" class="cls-9" d="M278.56,423.52l6.12-6.57-6.12-6.47"/>
    <path id="path9535" class="cls-9" d="M278.68,419.74l2.24-2.6-2.24-2.34"/>
    <path id="path9537" class="cls-9" d="M279.03,394.16l5.74,6.19-6.12,6.47"/>
    <path id="path9539" class="cls-9" d="M278.77,397.56l2.22,2.58-2.22,2.36"/>
    <path id="path9541" class="cls-4" d="M286.99,415.09l6.24-6.47-6-6.59-6.33,6.71,6.09,6.35ZM287.11,412.3l-3.57-3.33,3.57-3.92,3.45,3.45-3.45,3.8Z"/>
    <path id="path9543" class="cls-4" d="M286.73,398.18l6.21-6.47-6-6.38-6.45,6.24,6.24,6.61ZM286.83,395.39l-3.57-3.33,3.57-3.92,3.47,3.43-3.47,3.83Z"/>
    <path id="path9545" class="cls-9" d="M278.42,428.41l5.6,6.05-5.22,5.6"/>
    <path id="path9547" class="cls-9" d="M278.51,431.93l2.24,2.34-1.84,2.22"/>
    <path id="path9549" class="cls-9" d="M294.91,427.14l-6.64,6.95,3.83,4.04"/>
    <path id="path9551" class="cls-9" d="M294.67,431.42l-2.24,2.6,2.24,2.36"/>
    <path id="path9553" class="cls-2" d="M295.5,389.74l-2.58-3.07"/>
    <path id="path9555" class="cls-2" d="M278.35,389.88l4.72-4.87"/>
    <path id="path9557" class="cls-2" d="M295.24,436.09l.45-49.42"/>
    <path id="path9559" class="cls-2" d="M278.21,442.12l.14-59.27"/>
    <path id="path9561" class="cls-4" d="M289.22,439.16l-2.93-2.93-5.65,5.62.9,1.54,7.68-4.23Z"/>
    <path id="path9563" class="cls-2" d="M165.33,471.27v-47.32l-4.02-1.35v48.67h4.02Z"/>
    <path id="path9565" class="cls-2" d="M161.32,284.59v134.68h4.02v-136l-15.33-13.35v4.68l11.32,9.99Z"/>
    <path id="path9567" class="cls-1" d="M155.67,469.95c.78,0,1.65-.87,1.65-1.68s-.87-1.65-1.65-1.65-1.68.87-1.68,1.65.87,1.68,1.68,1.68Z"/>
    <path id="path9569" class="cls-1" d="M155.67,460.61c.78,0,1.65-.87,1.65-1.68s-.87-1.65-1.65-1.65-1.68.87-1.68,1.65.87,1.68,1.68,1.68Z"/>
    <path id="path9571" class="cls-1" d="M153.66,465.27c.78,0,1.65-.87,1.65-1.65s-.87-1.68-1.65-1.68-1.68.9-1.68,1.68.9,1.65,1.68,1.65Z"/>
    <path id="path9573" class="cls-1" d="M157.65,465.27c.78,0,1.68-.87,1.68-1.65s-.9-1.68-1.68-1.68-1.65.9-1.65,1.68.87,1.65,1.65,1.65Z"/>
    <path id="path9575" class="cls-1" d="M155.55,437.44c.8,0,1.68-.87,1.68-1.68s-.87-1.65-1.68-1.65-1.65.87-1.65,1.65.87,1.68,1.65,1.68Z"/>
    <path id="path9577" class="cls-1" d="M155.55,428.11c.8,0,1.68-.9,1.68-1.68s-.87-1.65-1.68-1.65-1.65.87-1.65,1.65.87,1.68,1.65,1.68Z"/>
    <path id="path9579" class="cls-1" d="M153.57,432.76c.78,0,1.65-.87,1.65-1.65s-.87-1.68-1.65-1.68-1.68.87-1.68,1.68.87,1.65,1.68,1.65Z"/>
    <path id="path9581" class="cls-1" d="M157.56,432.76c.78,0,1.68-.87,1.68-1.65s-.9-1.68-1.68-1.68-1.68.87-1.68,1.68.9,1.65,1.68,1.65Z"/>
    <path id="path9583" class="cls-1" d="M155.69,404.91c.78,0,1.65-.87,1.65-1.65s-.87-1.68-1.65-1.68-1.68.87-1.68,1.68.9,1.65,1.68,1.65Z"/>
    <path id="path9585" class="cls-1" d="M155.69,395.58c.78,0,1.65-.87,1.65-1.65s-.87-1.68-1.65-1.68-1.68.87-1.68,1.68.9,1.65,1.68,1.65Z"/>
    <path id="path9587" class="cls-1" d="M153.68,400.26c.78,0,1.68-.9,1.68-1.68s-.9-1.65-1.68-1.65-1.65.87-1.65,1.65.87,1.68,1.65,1.68Z"/>
    <path id="path9589" class="cls-1" d="M157.68,400.26c.8,0,1.68-.9,1.68-1.68s-.87-1.65-1.68-1.65-1.65.87-1.65,1.65.87,1.68,1.65,1.68Z"/>
    <path id="path9591" class="cls-1" d="M155.81,371.88c.78,0,1.68-.87,1.68-1.65s-.9-1.68-1.68-1.68-1.65.87-1.65,1.68.87,1.65,1.65,1.65Z"/>
    <path id="path9593" class="cls-1" d="M155.81,362.55c.78,0,1.68-.87,1.68-1.68s-.9-1.65-1.68-1.65-1.65.87-1.65,1.65.87,1.68,1.65,1.68Z"/>
    <path id="path9595" class="cls-1" d="M153.83,367.23c.78,0,1.65-.9,1.65-1.68s-.87-1.68-1.65-1.68-1.68.9-1.68,1.68.87,1.68,1.68,1.68Z"/>
    <path id="path9597" class="cls-1" d="M157.82,367.23c.78,0,1.65-.9,1.65-1.68s-.87-1.68-1.65-1.68-1.68.9-1.68,1.68.9,1.68,1.68,1.68Z"/>
    <path id="path9599" class="cls-1" d="M155.81,339.61c.78,0,1.68-.87,1.68-1.65s-.9-1.68-1.68-1.68-1.65.9-1.65,1.68.87,1.65,1.65,1.65Z"/>
    <path id="path9601" class="cls-1" d="M155.81,330.28c.78,0,1.68-.87,1.68-1.65s-.9-1.68-1.68-1.68-1.65.87-1.65,1.68.87,1.65,1.65,1.65Z"/>
    <path id="path9603" class="cls-1" d="M153.83,334.96c.78,0,1.65-.87,1.65-1.68s-.87-1.65-1.65-1.65-1.68.87-1.68,1.65.87,1.68,1.68,1.68Z"/>
    <path id="path9605" class="cls-1" d="M157.82,334.96c.78,0,1.65-.87,1.65-1.68s-.87-1.65-1.65-1.65-1.68.87-1.68,1.65.9,1.68,1.68,1.68Z"/>
    <path id="path9607" class="cls-1" d="M156.19,307.22c.8,0,1.68-.87,1.68-1.65s-.87-1.68-1.68-1.68-1.65.87-1.65,1.68.87,1.65,1.65,1.65Z"/>
    <path id="path9609" class="cls-1" d="M156.19,297.89c.8,0,1.68-.87,1.68-1.65s-.87-1.68-1.68-1.68-1.65.87-1.65,1.68.87,1.65,1.65,1.65Z"/>
    <path id="path9611" class="cls-1" d="M154.2,302.57c.78,0,1.65-.9,1.65-1.68s-.87-1.65-1.65-1.65-1.68.87-1.68,1.65.9,1.68,1.68,1.68Z"/>
    <path id="path9613" class="cls-1" d="M158.2,302.57c.78,0,1.68-.9,1.68-1.68s-.9-1.65-1.68-1.65-1.65.87-1.65,1.65.87,1.68,1.65,1.68Z"/>
    <path id="path9615" class="cls-1" d="M159.99,445.28v3.33l-8.67,8.01v-3.35l8.67-7.98Z"/>
    <path id="path9617" class="cls-1" d="M159.99,439.94v3.33l-8.67,8.01v-3.33l8.67-8.01Z"/>
    <path id="path9619" class="cls-1" d="M159.99,411.95v3.33l-8.67,7.98v-3.33l8.67-7.98Z"/>
    <path id="path9621" class="cls-1" d="M159.99,406.61v3.33l-8.67,8.01v-3.33l8.67-8.01Z"/>
    <path id="path9623" class="cls-1" d="M159.99,378.62v3.33l-8.67,7.98v-3.33l8.67-7.98Z"/>
    <path id="path9625" class="cls-1" d="M159.99,373.28v3.33l-8.67,8.01v-3.35l8.67-7.98Z"/>
    <path id="path9627" class="cls-1" d="M159.99,346.61v3.33l-8.67,8.01v-3.33l8.67-8.01Z"/>
    <path id="path9629" class="cls-1" d="M159.99,341.27v3.33l-8.67,8.01v-3.33l8.67-8.01Z"/>
    <path id="path9631" class="cls-1" d="M159.99,315.26v3.35l-8.67,7.98v-3.33l8.67-8.01Z"/>
    <path id="path9633" class="cls-1" d="M159.99,309.94v3.33l-8.67,7.98v-3.33l8.67-7.98Z"/>
    <path id="path9635" class="cls-1" d="M159.9,284.43l.09.83-8.67,8.01v-3.33l6.66-6.59,1.91,1.09Z"/>
    <path id="path9637" class="cls-1" d="M155.48,280.93l1.61,1.32-5.76,5.67v-3.33l4.16-3.66Z"/>
    <path id="path9639" class="cls-4" d="M205,415.97l6.24-6.5-6-6.59-6.45,6.47,6.21,6.61ZM205.11,413.15l-3.57-3.33,3.57-3.9,3.45,3.43-3.45,3.8Z"/>
    <path id="path9641" class="cls-4" d="M202.52,434.3l7.02-5.65-5.13-7.3-7.21,5.6,5.32,7.35ZM202.96,431.53l-3.09-3.76,4.04-3.43,2.98,3.85-3.92,3.33Z"/>
    <path id="path9643" class="cls-4" d="M205.23,398.72l5.5-6.61-6.69-5.48-5.58,6.61,6.76,5.48ZM205.04,396.12l-3.9-2.72,3.12-3.97,3.8,2.83-3.02,3.85Z"/>
    <path id="path9645" class="cls-4" d="M203.6,383.13l5.22-7.32-6.9-5.67-5.46,7.35,7.13,5.65ZM203.3,380.34l-4.02-2.76,2.95-4.39,3.92,2.88-2.86,4.28Z"/>
    <path id="path9647" class="cls-4" d="M200.81,365.93l4.02-8.03-7.68-4.54-4.25,8.1,7.91,4.46ZM200.08,363.24l-4.39-2.13,2.24-4.8,4.32,2.24-2.17,4.68Z"/>
    <path id="path9649" class="cls-4" d="M195.97,348.99l3.26-8.39-8.08-3.78-3.47,8.46,8.29,3.71ZM194.98,346.37l-4.56-1.7,1.77-4.98,4.51,1.82-1.72,4.87Z"/>
    <path id="path9651" class="cls-4" d="M188.81,331.89l1.61-8.84-8.65-2.2-1.8,8.95,8.84,2.08ZM187.35,329.5l-4.82-.8.83-5.22,4.77.94-.78,5.08Z"/>
    <path id="path9653" class="cls-4" d="M179.84,316.08l.85-8.95-8.81-1.44-1.02,9.1,8.98,1.3ZM178.18,313.82l-4.87-.38.35-5.29,4.84.54-.33,5.13Z"/>
    <path id="path9655" class="cls-9" d="M195.83,424.09l6.8-5.46-5.39-6.66"/>
    <path id="path9657" class="cls-9" d="M196.35,420.62l2.5-2.2-1.96-2.41"/>
    <path id="path9659" class="cls-9" d="M195,430.28s.97-8.22,1.32-12.33c.5-5.72,1.23-11.43,1.16-17.17-.05-5.03-.69-10.02-1.32-15-.69-5.32-1.46-10.61-2.67-15.83-1.32-5.81-3-11.55-5.01-17.17-1.8-5.06-3.95-10.02-6.33-14.84-2.55-5.2-5.39-10.28-8.48-15.17-2.36-3.73-7.68-10.84-7.68-10.84"/>
    <path id="path9661" class="cls-9" d="M213.31,412.52l-7.09,7.56,6.33,7.61"/>
    <path id="path9663" class="cls-9" d="M213.03,416.86l-3.02,3.17,2.79,3.45"/>
    <path id="path9665" class="cls-9" d="M197.65,406.89l5.69-5.48-5.27-5.79"/>
    <path id="path9667" class="cls-9" d="M197.86,403.66l2.1-2.17-1.94-2.1"/>
    <path id="path9669" class="cls-9" d="M213.95,392.58l-6.83,7.8,6.57,7.39"/>
    <path id="path9671" class="cls-9" d="M213.81,396.92l-2.91,3.28,2.91,3.33"/>
    <path id="path9673" class="cls-9" d="M212.11,375.71l-5.98,8.46,7.28,6.69"/>
    <path id="path9675" class="cls-9" d="M212.41,380.06l-2.55,3.54,3.24,3.05"/>
    <path id="path9677" class="cls-9" d="M208.94,358.82l-4.96,9.1,8.03,5.79"/>
    <path id="path9679" class="cls-9" d="M209.74,363.09l-2.13,3.83,3.57,2.65"/>
    <path id="path9681" class="cls-9" d="M202,341.43l-3.54,9.76,8.79,4.51"/>
    <path id="path9683" class="cls-9" d="M203.44,345.54l-1.54,4.11,3.92,2.08"/>
    <path id="path9685" class="cls-9" d="M193.63,323.78l-2.36,10.11,9.28,3.43"/>
    <path id="path9687" class="cls-9" d="M195.55,327.71l-1.02,4.25,4.13,1.58"/>
    <path id="path9689" class="cls-8" d="M183.78,307.7l-1.35,10.28,8.81,2.6"/>
    <path id="path9691" class="cls-8" d="M185.88,311.43l-.61,4.32,3.95,1.23"/>
    <path id="path9693" class="cls-8" d="M171.85,292.13l.5,10.7,9.12.99"/>
    <path id="path9695" class="cls-8" d="M174.57,295.88l.17,4.32,4.09.5"/>
    <path id="path9697" class="cls-9" d="M196.16,327.45c-2.67-4.46-5.2-8.98-8.01-13.35-3.59-5.62-7.25-11.2-11.32-16.49-3.45-4.49-7.35-8.58-11.01-12.85"/>
    <path id="path9699" class="cls-9" d="M169.49,289.77l-3.83-.5"/>
    <path id="path9701" class="cls-4" d="M165.83,291.94l3.66.83-.33,9.66-3.33-.83v-9.66Z"/>
    <path id="path9703" class="cls-9" d="M168.5,314.43l.66-8.67-3.33-.83"/>
    <path id="path9705" class="cls-9" d="M196.87,391.4l4.98-6.19-5.98-5.06"/>
    <path id="path9707" class="cls-9" d="M196.68,388.14l1.82-2.43-2.17-1.84"/>
    <path id="path9709" class="cls-9" d="M195.33,374.98l3.83-6.92-6.73-3.97"/>
    <path id="path9711" class="cls-9" d="M194.58,371.81l1.37-2.69-2.46-1.44"/>
    <path id="path9713" class="cls-9" d="M190.99,358.75l3.24-7.23-7.04-3.4"/>
    <path id="path9715" class="cls-9" d="M189.97,355.63l1.13-2.79-2.58-1.23"/>
    <path id="path9717" class="cls-9" d="M185.53,342.45l1.94-7.68-7.54-2.13"/>
    <path id="path9719" class="cls-9" d="M183.99,339.57l.64-2.95-2.76-.76"/>
    <path id="path9721" class="cls-9" d="M177.55,327.09l1.04-7.87-7.73-1.23"/>
    <path id="path9723" class="cls-9" d="M175.68,324.4l.28-3-2.81-.45"/>
    <path id="path9725" class="cls-4" d="M182.67,397.61c-2.13-5.84-3.87-11.81-6.35-17.51-1.56-3.59-3.07-7.28-5.32-10.49-1.49-2.13-3.57-3.78-5.34-5.67l.17,9.33,3-.66-1.68,4.16,3.85.17-2.34,2.83,3.5.33-2.17,3,3.85.17-2.67,3.33,4.32.33-2.5,3.33,3.85.35-2.34,3.17,3.33.5-2.17,3.66,4.68.17,2.34-.5Z"/>
    <path id="path9727" class="cls-7" d="M175.32,420.45c-1.56,1.68-4.13,2.1-6.33,2.79-1.18.35-2.43.73-3.66.66-1.39-.07-2.86-.35-4.02-1.16-.61-.45-1.28-1.09-1.32-1.84-.05-.57.4-1.13.83-1.49.4-.33.99-.38,1.51-.5.83-.24,1.75-.09,2.5-.5.69-.38,1.32-.97,1.61-1.7.35-.83.24-1.84.07-2.74-.19-1.02-.73-2.08-1.18-2.86l.17-9.52c1.89-.21,3.87-.83,5.84-.66,1.16.09,2.46.24,3.33.99,1.58,1.42,2.01,3.78,2.5,5.84.47,2.13.64,4.37.33,6.5-.31,2.17-.69,4.58-2.17,6.19h0Z"/>
    <path id="path9729" class="cls-7" d="M196.16,391.61c-3,1.23-5.39,2.24-8.01,3.5-2.24,1.09-4.46,2.29-6.66,3.5-2.08,1.13-4.49,2.39-6.17,3.5"/>
    <path id="path9731" class="cls-7" d="M195.17,430.45c-3.61-1.72-7.28-3.38-10.84-5.17-2.86-1.44-5.67-3-8.5-4.49"/>
    <path id="path9733" class="cls-7" d="M178.99,422.27s1.54-4.82,1.84-7.32c.31-2.55.4-5.15,0-7.68-.38-2.24-2.17-6.5-2.17-6.5l8.5-4.84-3.66,6,3.99,4.02-4.32,4.82,3.99,5.5-3.5,2.83,2.17,6.66-6.85-3.5Z"/>
    <path id="path9735" class="cls-9" d="M193.99,429.1l-4.98-8.15,4.32-4.18-4.16-5.67,4.32-5.32-3.83-3.85,4.65-9"/>
    <path id="path9737" class="cls-9" d="M195,424.78l-1.68-2.67,2.5-2.01"/>
    <path id="path9739" class="cls-9" d="M196.33,413.44l-2.01-2.5,2.17-2.83"/>
    <path id="path9741" class="cls-9" d="M196.82,403.78l-2.15-3,2.15-3.33"/>
    <path id="path9743" class="cls-2" d="M192.17,387.45l-7.51,3.66s-2.27-7.63-3.66-11.34c-1.18-3.17-2.32-6.4-3.99-9.33-1.96-3.38-7.02-9.33-7.02-9.33v-34.85s6.59,10.47,9.33,15.99c2.83,5.72,5.36,11.62,7.35,17.67,1.65,5.06,2.83,10.28,3.83,15.52.76,3.95,1.68,12,1.68,12Z"/>
    <path id="path9745" class="cls-2" d="M193.54,492.27s-.45-4.87-1.54-6.99c-1.06-2.06-2.79-3.83-4.68-5.17-1.63-1.16-3.54-1.94-5.5-2.32-1.63-.33-3.33-.17-4.98,0-1.13.09-3.35.66-3.35.66,0,0,2.15.69,2.83,1.49,1.49,1.7,1.7,4.18,2.34,6.33.64,2.15.78,4.42,1.51,6.52.73,2.13,1.39,4.42,2.83,6.17.78.94,1.84,1.7,3,2.15.69.28,2.2.35,2.2.35l5.34-9.19Z"/>
    <path id="path9747" class="cls-9" d="M190.33,496.97c-.8-2.65-1.49-5.2-2.83-7.51-1.13-2.01-2.74-3.69-4.32-5.34-1.04-1.09-2.22-2.01-3.33-3"/>
    <path id="path9749" class="cls-9" d="M184.59,494.87c1.18-.64,3.8-.07,5.1.19.9-1.77,1.63-3.14,1.56-4.8"/>
    <path id="path9751" class="cls-9" d="M183.52,491.85c1.18-.64,3.4-.45,4.7-.19.9-1.77,1.63-3.5,1.56-5.15"/>
    <path id="path9753" class="cls-9" d="M182.01,487.73c1.2-.64,2.91-.17,4.21.09.9-1.77.71-3.38.64-5.03"/>
    <path id="path9755" class="cls-9" d="M180.29,484.73c1.18-.66,1.94-.05,3.24.21.9-1.77.43-2.46.35-4.11"/>
    <path id="path9757" class="cls-9" d="M189.99,497.7c-1.18-.19-2.36-.28-3.54.24"/>
    <path id="path9759" class="cls-1" d="M270.06,435.55c.57-.21,1.3-.59,1.37-1.2.07-.59-.59-1.11-1.09-1.44-.28-.19-.69-.17-1.02-.28-.35-.12-.83-.17-1.06-.5-.24-.33-.07-.83-.17-1.23-.28-.99-.4-2.17-1.16-2.86-.66-.64-1.68-.76-2.58-.85-.78-.07-1.56.19-2.32.28-.61.07-1.2.26-1.82.21-.31-.05-.64-.07-.87-.26-.21-.19-.28-.5-.33-.76-.14-.57-.05-1.16-.07-1.75-.02-.76.12-1.54-.07-2.24-.24-.85-.59-1.77-1.28-2.32-.73-.57-1.75-.73-2.67-.78-.78-.02-1.54.28-2.32.43-.59.12-1.16.35-1.77.33-.26,0-.57,0-.76-.19-.12-.09-.12-.31-.14-.45-.05-.5.09-.97.14-1.46.05-.66.28-1.35.17-2.01-.12-.8-.35-1.7-.92-2.29-.64-.64-1.63-.92-2.53-1.09-.78-.12-1.58.17-2.36.19-.97,0-2.15.5-2.91-.12-.59-.47-.38-1.44-.52-2.17-.14-.69-.07-1.39-.33-2.01-.33-.76-.76-1.56-1.44-1.98-.57-.35-1.32-.4-1.98-.35-.5.02-.97.31-1.46.45-.4.12-.85.52-1.25.35-.12-.05-.14-.21-.17-.33-.19-.4-.26-.83-.4-1.25-.19-.52-.26-1.16-.64-1.58-.52-.61-1.25-1.2-2.06-1.2-.78.02-1.51.61-2.01,1.2-.35.45-.38,1.06-.54,1.58-.14.4-.21.8-.35,1.2-.05.07-.05.19-.12.21-.09.07-.24.02-.35,0-.4-.09-.76-.33-1.13-.47-.54-.19-1.04-.52-1.61-.57-.76-.05-1.61-.02-2.2.43-.69.5-1.02,1.42-1.2,2.24-.17.69.05,1.37.07,2.08.02.47.14.97.07,1.46-.02.12,0,.26-.09.33-.19.17-.5.09-.73.09-.54-.02-1.06-.19-1.58-.33-.71-.24-1.35-.8-2.08-.85-.64-.02-1.56,0-1.84.57-.31.57.19,1.35.61,1.82.64.64,1.65.73,2.5.99.73.21,1.46.47,2.22.47.83-.02,1.75-.07,2.41-.57.69-.52,1.04-1.42,1.23-2.24.17-.66-.05-1.37-.05-2.06-.02-.52-.43-1.2-.05-1.56.31-.28.83.02,1.23.12.54.14,1.02.52,1.56.61.71.09,1.49.17,2.15-.14.64-.33,1.06-.99,1.44-1.61.26-.45.02-1.44.54-1.44s.28,1.06.54,1.54c.38.64.78,1.37,1.46,1.63,1.04.43,2.24-.28,3.38-.26.43,0,.97-.17,1.3.12.38.35.14,1.02.28,1.51.4,1.39.4,3.14,1.54,4.04,1.3,1.04,3.26.64,4.91.69.61,0,1.2-.24,1.8-.17.31.05.66.09.85.33.12.12.14.31.17.5.05.5-.12.99-.17,1.49-.05.69-.26,1.37-.17,2.03.14.8.4,1.7,1.04,2.27.69.61,1.7.8,2.62.87.78.05,1.56-.28,2.32-.43.61-.09,1.2-.33,1.82-.33.28,0,.61,0,.83.17s.28.47.35.73c.12.57.02,1.13.05,1.7.02.76-.09,1.54.09,2.27.21.85.54,1.77,1.23,2.34.69.59,1.65.78,2.55.87.78.09,1.56-.14,2.34-.24.61-.07,1.23-.26,1.84-.24.31.02.71,0,.9.24.24.24.09.66.17.97.21.97.24,2.08.87,2.86.52.66,1.44.94,2.22,1.25.43.17.85.24,1.3.33.07.02.17.05.24.05h0Z"/>
    <path id="path9761" class="cls-1" d="M269.99,427.85c.54-.02,1.06-.4,1.25-.92.17-.52-.02-1.16-.47-1.49l-38.77-30.59c-.45-.33-1.11-.35-1.58-.02l-15.17,10.63c-.61.4-.8,1.3-.38,1.89.4.59,1.32.73,1.89.31l14.39-10.09,37.99,29.98c.24.19.54.31.85.31h0Z"/>
    <path id="path9763" d="M231.95,387.45v-42.59l-6.5,4.54-.21,42.22,6.71-4.16Z"/>
    <path id="path9765" class="cls-1" d="M271,418.02l-14.01-11.24-.19-36.29,14.2,9.66v37.87Z"/>
    <path id="path9767" class="cls-5" d="M256.8,407.39l-.4-37.49"/>
    <path id="path9769" class="cls-5" d="M252.86,404.58l-.19-38.22"/>
    <path id="path9771" class="cls-5" d="M234.9,389.44l-.19-45.57"/>
    <path id="path9773" class="cls-9" d="M209.67,359.65l24.26-16.16"/>
    <path id="path9775" class="cls-5" d="M234.93,350.1l17.55,17.91-17.67,17.1,17.86,18.33"/>
    <path id="path9777" class="cls-5" d="M242.09,395.81l10.7-10.94-17.86-18.62,10.11-9.45"/>
    <path id="path9779" class="cls-5" d="M243.98,388.99l3.28-3.52-3.28-3.87-3.4,3.52,3.4,3.87Z"/>
    <path id="path9781" class="cls-5" d="M244.07,370.54l2.86-3.14-3.24-3.28-2.88,3.07,3.26,3.35Z"/>
    <path id="path9783" class="cls-6" d="M252.08,398.15l-3.26-3.57,3.43-3.61-.17,7.18Z"/>
    <path id="path9785" class="cls-6" d="M235.28,379.47l3.5-3.64-3.54-3.45.05,7.09Z"/>
    <path id="path9787" class="cls-6" d="M252.27,379.49l-3.21-3.5,3.28-3.02-.07,6.52Z"/>
    <path id="path9789" class="cls-6" d="M235.19,361.13l3.07-3.17-3.24-3.17.17,6.33Z"/>
    <path id="path9791" class="cls-9" d="M281.37,443.61c4.72-2.36,9.45-4.7,14.15-7.09,3.38-1.7,6.8-3.35,10.13-5.17,4.8-2.62,9.57-5.29,14.15-8.27,4.3-2.79,8.32-5.95,12.5-8.95-2.76-3.69-5.46-7.42-8.27-11.08-2.39-3.09-4.98-6.05-7.3-9.19-2.15-2.91-4.09-5.98-6.12-8.95-1.65.47-3.26,1.16-4.96,1.42-3.33.5-6.76.45-10.13.24-2.69-.17-5.36-.66-8.01-1.18-2.86-.57-5.74-1.16-8.5-2.13-2.83-.99-5.6-2.32-8.24-3.78-3.02-1.65-5.91-3.61-8.72-5.65-3.02-2.2-6.07-4.42-8.72-7.06-2.58-2.58-4.63-5.62-6.85-8.5-2.41-3.17-4.56-6.54-7.06-9.66-1.7-2.13-3.45-4.23-5.41-6.12-2.72-2.6-5.55-5.08-8.74-7.06-2.93-1.87-6.17-3.26-9.43-4.49-3.12-1.2-6.33-2.36-9.66-2.83-3.26-.47-6.59,0-9.9,0,1.82,3.71,3.76,7.32,5.43,11.08,2.08,4.72,4.04,9.5,5.65,14.39,1.51,4.56,2.79,9.21,3.78,13.91.99,4.82,1.61,9.71,2.13,14.6.38,3.69.59,7.39.71,11.08.12,4.09.02,8.17,0,12.26-.05,3.85-.09,7.7-.24,11.55-.17,4.02-.47,8.01-.71,12.02"/>
    <path id="path9795" d="M255.29,349.58c-.45.05-.94.45-1.89,1.13l-2.08,1.46-2.06,1.49c-2.58,1.54-1.87,1.72-.12,3.83l1.96,2.36,1.94,2.34c1.8,2.41,1.7,2.58,3.8.64l1.89-1.72,1.89-1.72c2.22-1.72,1.77-1.84.09-3.85l-1.75-2.1-1.77-2.1c-.92-1.28-1.35-1.8-1.91-1.75h0ZM254.94,353.27c.45,0,.97.17,1.3.5.21.24.28.59.28.9,0,.14-.19.33-.07.45.09.09.26-.12.4-.12.33.02.69.09.92.33.33.31.5.83.5,1.28,0,.47-.17.97-.5,1.3-.24.21-.59.26-.92.28-.14.02-.31-.19-.4-.07-.12.09.07.26.07.4,0,.33-.07.69-.28.92-.33.33-.85.5-1.3.5s-.97-.17-1.3-.5c-.21-.24-.28-.59-.31-.92,0-.14.21-.31.12-.4-.12-.12-.31.09-.45.07-.33-.02-.66-.07-.9-.28-.33-.33-.5-.83-.5-1.3s.17-.97.5-1.28c.24-.24.57-.31.9-.33.14,0,.33.21.45.12.09-.12-.12-.31-.12-.45.02-.31.09-.66.31-.9.33-.33.85-.5,1.3-.5Z"/>
    <path id="path9797" d="M264.29,360.09c-.43.09-.87.59-1.68,1.42l-1.8,1.8-1.77,1.8c-2.32,1.96-1.56,2.03.5,3.8l2.34,2.01,2.29,1.98c2.17,2.08,2.1,2.27,3.87,0l1.56-2.03,1.58-1.98c1.91-2.08,1.46-2.13-.54-3.83l-2.08-1.8-2.08-1.77c-1.13-1.11-1.65-1.56-2.2-1.39h0ZM264.55,363.78c.47-.07.99,0,1.37.28.26.19.38.52.43.83.05.14-.12.35,0,.45.12.09.24-.17.4-.17.31-.05.69-.02.94.14.38.26.64.73.71,1.2.07.45,0,.97-.28,1.35-.19.26-.54.38-.85.45-.14.02-.33-.14-.43-.02-.07.12.14.26.17.4.02.31.02.69-.14.94-.26.38-.73.64-1.2.71-.45.07-.97,0-1.35-.28-.26-.19-.4-.52-.47-.85-.02-.14.17-.33.05-.43-.12-.09-.26.14-.43.17-.31.02-.66.05-.92-.14-.38-.26-.64-.73-.71-1.18-.07-.47,0-.99.28-1.37.19-.26.52-.38.83-.45.14-.05.35.14.45.02.07-.12-.17-.26-.19-.4-.02-.33-.02-.69.17-.94.26-.38.73-.64,1.18-.71h0Z"/>
    <path id="path9799" d="M274.88,368.32c-.38.24-.64.85-1.16,1.89l-1.13,2.27-1.11,2.27c-1.58,2.58-.83,2.41,1.68,3.45l2.83,1.16,2.81,1.16c2.72,1.28,2.72,1.49,3.66-1.23l.85-2.41.87-2.39c1.16-2.6.71-2.48-1.72-3.47l-2.53-1.02-2.55-1.04c-1.42-.69-2.03-.97-2.5-.64h0ZM276.29,371.74c.4-.21.92-.31,1.37-.17.31.09.52.38.69.64.07.14-.02.38.12.43.14.07.19-.21.33-.28.28-.12.64-.24.94-.14.45.12.83.5,1.04.9.24.4.31.94.17,1.37-.09.31-.38.52-.66.69-.12.09-.38-.02-.4.14-.05.14.19.19.26.31.14.31.26.64.17.97-.12.43-.5.83-.9,1.04-.4.21-.94.31-1.37.17-.31-.09-.54-.38-.71-.66-.07-.12.02-.38-.09-.43-.14-.05-.21.21-.35.28-.28.14-.61.26-.92.17-.45-.12-.85-.5-1.06-.9-.21-.43-.31-.94-.17-1.39.09-.31.38-.52.66-.69.12-.07.38.02.43-.12.05-.14-.24-.21-.31-.33-.14-.28-.21-.64-.14-.94.14-.45.5-.83.92-1.04h0Z"/>
    <path id="path9801" d="M287.35,373.54c-.28.35-.38,1.02-.54,2.15l-.43,2.5-.4,2.5c-.76,2.91-.09,2.53,2.62,2.79l3.05.28,3.05.28c2.95.43,3,.61,3.12-2.24l.12-2.55.12-2.55c.35-2.81-.05-2.55-2.65-2.79l-2.74-.26-2.74-.24c-1.56-.24-2.22-.31-2.58.12h0ZM289.69,376.4c.33-.31.83-.57,1.28-.54.33,0,.61.19.85.43.09.09.09.35.24.35.17,0,.12-.26.24-.35.24-.21.54-.43.85-.43.47-.02.94.21,1.28.54s.57.8.57,1.28c0,.31-.24.61-.45.85-.09.12-.35.09-.35.24s.26.12.35.24c.21.24.45.54.45.85,0,.47-.24.94-.57,1.28-.33.33-.8.57-1.25.57-.33-.02-.64-.21-.87-.45-.12-.09-.07-.35-.24-.35-.14,0-.12.26-.24.35-.24.21-.52.43-.85.45-.45,0-.94-.24-1.25-.57-.33-.33-.57-.8-.57-1.28,0-.31.19-.61.4-.85.12-.12.4-.07.38-.24,0-.14-.28-.12-.38-.24-.21-.24-.4-.52-.4-.85-.02-.45.24-.94.54-1.28Z"/>
    <path id="path9803" d="M245.79,351.73c.43-.05.94-.45,1.89-1.11l2.06-1.49,2.08-1.46c2.58-1.54,1.84-1.75.12-3.85l-1.96-2.34-1.94-2.36c-1.8-2.39-1.7-2.58-3.8-.64l-1.89,1.75-1.89,1.7c-2.24,1.72-1.8,1.84-.09,3.85l1.75,2.1,1.77,2.1c.92,1.28,1.35,1.82,1.91,1.75h0ZM246.15,348.05c-.47,0-.97-.17-1.3-.5-.21-.24-.28-.57-.28-.9-.02-.14.17-.33.07-.43-.09-.12-.26.12-.4.09-.33-.02-.69-.09-.92-.31-.33-.33-.5-.83-.5-1.3s.17-.97.5-1.3c.24-.21.59-.26.92-.28.14,0,.31.19.4.09.09-.12-.09-.28-.07-.43,0-.33.07-.69.28-.92.33-.33.83-.5,1.3-.5s.97.17,1.28.5c.24.24.31.59.33.92,0,.14-.21.31-.12.43.12.09.28-.09.45-.09.31.02.66.07.9.28.33.33.5.85.5,1.3,0,.47-.17.97-.5,1.3-.24.21-.59.28-.9.31-.17.02-.33-.21-.45-.09-.09.09.12.28.12.43-.02.33-.09.66-.33.9-.31.33-.83.5-1.28.5Z"/>
    <path id="path9805" d="M236.98,341.03c.43-.12.87-.61,1.7-1.42l1.77-1.82,1.8-1.8c2.29-1.94,1.54-2.01-.52-3.8l-2.32-1.98-2.32-2.01c-2.15-2.06-2.08-2.24-3.85.02l-1.56,2.01-1.58,2.01c-1.91,2.08-1.46,2.1.52,3.8l2.08,1.8,2.1,1.77c1.13,1.11,1.63,1.56,2.17,1.42h0ZM236.72,337.34c-.45.07-.99-.02-1.35-.28-.26-.19-.38-.52-.45-.85-.02-.14.14-.35.02-.43-.12-.09-.26.14-.4.17-.31.02-.69.02-.94-.17-.38-.26-.64-.73-.71-1.18-.09-.45,0-.99.26-1.37.19-.26.54-.35.87-.43.14-.05.33.14.43,0,.07-.12-.14-.24-.17-.38-.05-.33-.05-.71.14-.97.26-.38.73-.64,1.18-.71s.99,0,1.37.28c.26.19.38.54.45.85.02.14-.14.33-.02.43.12.09.26-.14.4-.14.33-.05.69-.05.94.12.38.26.64.76.71,1.2s0,.99-.28,1.35c-.19.26-.52.4-.83.47-.14.02-.38-.17-.45-.05-.07.14.17.28.17.43.05.31.02.66-.14.94-.26.38-.76.61-1.2.71h0Z"/>
    <path id="path9807" d="M225.57,331.96c.38-.26.64-.85,1.16-1.89l1.13-2.27,1.11-2.29c1.56-2.55.83-2.39-1.68-3.43l-2.83-1.16-2.83-1.18c-2.69-1.28-2.69-1.46-3.64,1.25l-.85,2.41-.87,2.39c-1.16,2.58-.71,2.46,1.72,3.45l2.53,1.04,2.55,1.02c1.42.71,2.03.97,2.5.66ZM224.16,328.53c-.4.21-.92.31-1.37.17-.31-.09-.52-.38-.69-.66-.07-.12.02-.38-.12-.43-.14-.05-.19.24-.33.28-.28.14-.64.26-.94.17-.45-.12-.83-.5-1.06-.9-.21-.43-.31-.94-.17-1.39.12-.31.4-.52.69-.69.12-.07.35.02.4-.12.05-.14-.21-.19-.26-.33-.14-.28-.26-.64-.19-.94.14-.45.52-.83.92-1.04.4-.21.92-.31,1.37-.17.31.09.54.38.71.66.07.12-.05.35.09.4.14.05.21-.21.35-.26.28-.14.61-.26.92-.17.45.12.83.5,1.06.9.21.4.31.94.17,1.37-.12.31-.38.54-.66.71-.12.07-.38-.05-.43.12-.05.12.24.19.28.33.14.28.24.61.17.94-.14.43-.52.83-.92,1.04h0Z"/>
    <path id="path9809" d="M213.12,326.64c.28-.33.35-.99.54-2.13l.4-2.5.4-2.5c.76-2.93.09-2.55-2.62-2.81l-3.05-.28-3.02-.28c-2.95-.43-3.02-.61-3.14,2.27l-.09,2.55-.14,2.53c-.35,2.81.05,2.58,2.67,2.81l2.72.24,2.74.24c1.56.26,2.24.33,2.6-.12ZM210.76,323.78c-.33.33-.8.57-1.28.57-.31,0-.59-.21-.83-.43-.12-.09-.12-.38-.26-.38s-.09.28-.21.38c-.24.21-.54.43-.87.43-.45,0-.94-.24-1.28-.57-.31-.31-.57-.8-.54-1.25,0-.33.21-.61.43-.85.09-.12.35-.09.35-.24,0-.17-.26-.14-.35-.24-.21-.24-.43-.54-.45-.87,0-.45.24-.92.57-1.25.33-.33.8-.57,1.28-.57.31,0,.64.21.87.43.09.09.07.38.21.38s.14-.28.26-.38c.24-.21.5-.43.83-.43.47,0,.94.24,1.28.57.31.31.57.8.54,1.25,0,.33-.19.61-.4.85-.09.12-.38.09-.38.24,0,.17.28.14.38.24.21.24.4.54.43.87,0,.45-.24.92-.57,1.25Z"/>
    <path id="path9811" d="M304.19,374.03l-1.04.21c-1.42.17-2.01.28-2.22.8-.14.4-.07,1.02.05,2.17l.24,2.53.24,2.55c.05,3,.52,2.48,2.93,2.03l2.67-.52,2.6-.47-1.28-2.2c-.17.12-.35.21-.52.26-.28.07-.59-.05-.85-.19-.12-.07-.14-.33-.26-.28-.14.02-.07.28-.14.43-.17.26-.35.52-.64.59-.38.14-.85.05-1.2-.19-.35-.24-.69-.66-.78-1.11-.07-.31.02-.64.14-.92.05-.12.33-.17.28-.31-.05-.14-.28-.07-.4-.14-.24-.17-.47-.43-.54-.73-.12-.45-.02-.97.19-1.37.21-.38.57-.76.94-.85.28-.09.59.05.83.19.12.07.17.33.31.31l.07-.07-1.61-2.72h0Z"/>
    <path id="path9813" d="M196.23,326.17l1.04-.21c1.42-.17,2.01-.28,2.22-.8.17-.4.07-1.04-.02-2.17l-.26-2.55-.24-2.53c-.02-3-.52-2.48-2.91-2.03l-2.69.52-2.6.47,1.3,2.2c.14-.12.33-.21.5-.26.28-.07.59.05.85.19.12.07.14.31.28.28.12-.02.05-.28.12-.43.17-.26.35-.52.64-.61.38-.12.85-.02,1.2.21.35.24.69.66.8,1.09.07.33-.02.64-.17.94-.05.12-.33.17-.28.31s.28.07.4.14c.24.17.47.43.54.73.12.43.02.97-.19,1.35-.19.4-.54.78-.94.87-.28.07-.57-.05-.83-.19-.12-.07-.17-.33-.31-.31-.02,0-.05.05-.07.07l1.61,2.72h0Z"/>
  </g>
</svg>